# Blender 4.5.0
# www.blender.org
mtllib link_side_carry_handle_fold.mtl
o right_side_carry_handle
v 0.000092 -0.007705 0.074292
v 0.000000 -0.006330 0.075670
v 0.000046 -0.007521 0.074981
v 0.000012 -0.007017 0.075485
v 0.017594 -0.006330 0.074486
v 0.015099 -0.006330 0.075316
v 0.016020 -0.007705 0.073919
v 0.016846 -0.006330 0.074880
v 0.017228 -0.007004 0.074497
v 0.016649 -0.006983 0.074836
v 0.015398 -0.007004 0.075106
v 0.015934 -0.006330 0.075184
v 0.016065 -0.006983 0.075030
v 0.016659 -0.007502 0.074292
v 0.015731 -0.007502 0.074600
v 0.016295 -0.007349 0.074745
v 0.039591 -0.006330 0.057651
v 0.038227 -0.006330 0.059802
v 0.038093 -0.007705 0.058209
v 0.039308 -0.006330 0.058429
v 0.039345 -0.007004 0.057871
v 0.039141 -0.006983 0.058514
v 0.038321 -0.007004 0.059485
v 0.038810 -0.006330 0.059214
v 0.038816 -0.006983 0.059027
v 0.038803 -0.007501 0.058073
v 0.038273 -0.007501 0.058909
v 0.038813 -0.007349 0.058665
v 0.044842 -0.006330 0.028450
v 0.043466 -0.007705 0.028327
v 0.044657 -0.007017 0.028433
v 0.044154 -0.007521 0.028389
v 0.044837 -0.006330 -0.028524
v 0.043462 -0.007705 -0.028390
v 0.044653 -0.007017 -0.028506
v 0.044149 -0.007521 -0.028457
v 0.036528 -0.006330 -0.065245
v 0.038025 -0.006330 -0.063285
v 0.036542 -0.007705 -0.063704
v 0.037225 -0.006330 -0.064795
v 0.036484 -0.007016 -0.065004
v 0.037154 -0.006987 -0.064573
v 0.037781 -0.007016 -0.063306
v 0.037774 -0.006330 -0.064076
v 0.037541 -0.006987 -0.064066
v 0.036489 -0.007521 -0.064438
v 0.037237 -0.007521 -0.063460
v 0.037158 -0.007343 -0.064174
v 0.015794 -0.006330 -0.075507
v 0.015465 -0.007705 -0.074135
v 0.015750 -0.007017 -0.075323
v 0.015630 -0.007521 -0.074821
v 0.000000 -0.006330 -0.075670
v 0.000101 -0.007705 -0.074293
v 0.000014 -0.007017 -0.075486
v 0.000051 -0.007521 -0.074982
v -0.001635 -0.006330 -0.075411
v -0.001204 -0.007705 -0.074087
v -0.001577 -0.007017 -0.075234
v -0.001420 -0.007521 -0.074749
v -0.003109 -0.006330 -0.074660
v -0.002291 -0.007705 -0.073533
v -0.003000 -0.007017 -0.074509
v -0.002700 -0.007521 -0.074096
v -0.004280 -0.006330 -0.073489
v -0.003153 -0.007705 -0.072671
v -0.004129 -0.007017 -0.073380
v -0.003716 -0.007521 -0.073080
v -0.005031 -0.006330 -0.072015
v -0.003707 -0.007705 -0.071584
v -0.004854 -0.007017 -0.071957
v -0.004369 -0.007521 -0.071800
v -0.005290 -0.006330 -0.070380
v -0.003897 -0.007705 -0.070380
v -0.005103 -0.007017 -0.070380
v -0.004594 -0.007521 -0.070380
v -0.005031 -0.006330 -0.068745
v -0.003707 -0.007705 -0.069176
v -0.004854 -0.007017 -0.068803
v -0.004369 -0.007521 -0.068960
v -0.004280 -0.006330 -0.067271
v -0.003153 -0.007705 -0.068089
v -0.004129 -0.007017 -0.067380
v -0.003716 -0.007521 -0.067680
v -0.003109 -0.006330 -0.066100
v -0.002291 -0.007705 -0.067227
v -0.003000 -0.007017 -0.066251
v -0.002700 -0.007521 -0.066664
v -0.001635 -0.006330 -0.065349
v -0.001204 -0.007705 -0.066673
v -0.001577 -0.007017 -0.065526
v -0.001420 -0.007521 -0.066011
v 0.000000 -0.006330 -0.065090
v 0.000100 -0.007705 -0.066467
v 0.000013 -0.007017 -0.065274
v 0.000050 -0.007521 -0.065778
v 0.013186 -0.006330 -0.065253
v 0.013436 -0.007705 -0.066632
v 0.013220 -0.007017 -0.065438
v 0.013311 -0.007521 -0.065942
v 0.028905 -0.006330 -0.057880
v 0.027381 -0.006330 -0.059732
v 0.029881 -0.007705 -0.060236
v 0.028599 -0.006330 -0.058615
v 0.028984 -0.007002 -0.058588
v 0.028725 -0.006982 -0.058989
v 0.028091 -0.007002 -0.059673
v 0.028043 -0.006330 -0.059290
v 0.028435 -0.006982 -0.059341
v 0.029339 -0.007503 -0.059445
v 0.029001 -0.007503 -0.059857
v 0.028860 -0.007350 -0.059395
v 0.034283 -0.006330 -0.027780
v 0.035659 -0.007705 -0.027902
v 0.034467 -0.007017 -0.027797
v 0.034971 -0.007521 -0.027841
v 0.034278 -0.006330 0.027854
v 0.035654 -0.007705 0.027961
v 0.034463 -0.007017 0.027869
v 0.034966 -0.007521 0.027908
v 0.029107 -0.006330 0.054368
v 0.030463 -0.006330 0.052245
v 0.031516 -0.007705 0.054411
v 0.029696 -0.006330 0.053796
v 0.029743 -0.007002 0.054187
v 0.030059 -0.006982 0.053775
v 0.030566 -0.007002 0.052898
v 0.030191 -0.006330 0.053020
v 0.030325 -0.006982 0.053358
v 0.030619 -0.007502 0.054202
v 0.030949 -0.007502 0.053686
v 0.030469 -0.007350 0.053743
v 0.011132 -0.006330 0.065434
v 0.013649 -0.006330 0.064711
v 0.012905 -0.007705 0.066864
v 0.011970 -0.006330 0.065342
v 0.011703 -0.007003 0.065654
v 0.012246 -0.006982 0.065529
v 0.013282 -0.007003 0.065201
v 0.012890 -0.006330 0.065078
v 0.012755 -0.006982 0.065383
v 0.012348 -0.007502 0.066174
v 0.013011 -0.007502 0.065984
v 0.012583 -0.007350 0.065742
v 0.000000 -0.006330 0.065090
v 0.000087 -0.007705 0.066469
v 0.000012 -0.007017 0.065275
v 0.000044 -0.007521 0.065779
v -0.001635 -0.006330 0.065349
v -0.001204 -0.007705 0.066673
v -0.001577 -0.007017 0.065526
v -0.001420 -0.007521 0.066011
v -0.003109 -0.006330 0.066100
v -0.002291 -0.007705 0.067227
v -0.003000 -0.007017 0.066251
v -0.002700 -0.007521 0.066664
v -0.004280 -0.006330 0.067271
v -0.003153 -0.007705 0.068089
v -0.004129 -0.007017 0.067380
v -0.003716 -0.007521 0.067680
v -0.005031 -0.006330 0.068745
v -0.003707 -0.007705 0.069176
v -0.004854 -0.007017 0.068803
v -0.004369 -0.007521 0.068960
v -0.005290 -0.006330 0.070380
v -0.003897 -0.007705 0.070380
v -0.005103 -0.007017 0.070380
v -0.004594 -0.007521 0.070380
v -0.005031 -0.006330 0.072015
v -0.003707 -0.007705 0.071584
v -0.004854 -0.007017 0.071957
v -0.004369 -0.007521 0.071800
v -0.004280 -0.006330 0.073489
v -0.003153 -0.007705 0.072671
v -0.004129 -0.007017 0.073380
v -0.003716 -0.007521 0.073080
v -0.003109 -0.006330 0.074660
v -0.002291 -0.007705 0.073533
v -0.003000 -0.007017 0.074509
v -0.002700 -0.007521 0.074096
v -0.001635 -0.006330 0.075411
v -0.001204 -0.007705 0.074087
v -0.001577 -0.007017 0.075234
v -0.001420 -0.007521 0.074749
v 0.000000 0.006330 0.075670
v 0.000092 0.007705 0.074292
v 0.000012 0.007017 0.075485
v 0.000046 0.007521 0.074981
v 0.015099 0.006330 0.075316
v 0.017594 0.006330 0.074486
v 0.016020 0.007705 0.073919
v 0.015934 0.006330 0.075184
v 0.015398 0.007004 0.075106
v 0.016065 0.006983 0.075030
v 0.017228 0.007004 0.074497
v 0.016846 0.006330 0.074880
v 0.016649 0.006983 0.074836
v 0.015731 0.007502 0.074600
v 0.016659 0.007502 0.074292
v 0.016295 0.007349 0.074745
v 0.038227 0.006330 0.059802
v 0.039591 0.006330 0.057651
v 0.038093 0.007705 0.058209
v 0.038810 0.006330 0.059214
v 0.038321 0.007004 0.059485
v 0.038816 0.006983 0.059027
v 0.039345 0.007004 0.057871
v 0.039308 0.006330 0.058429
v 0.039141 0.006983 0.058514
v 0.038273 0.007501 0.058909
v 0.038803 0.007501 0.058073
v 0.038813 0.007349 0.058665
v 0.044842 0.006330 0.028450
v 0.043466 0.007705 0.028327
v 0.044657 0.007017 0.028433
v 0.044154 0.007521 0.028389
v 0.044837 0.006330 -0.028524
v 0.043462 0.007705 -0.028390
v 0.044653 0.007017 -0.028506
v 0.044149 0.007521 -0.028457
v 0.038025 0.006330 -0.063285
v 0.036528 0.006330 -0.065245
v 0.036542 0.007705 -0.063704
v 0.037774 0.006330 -0.064076
v 0.037781 0.007016 -0.063306
v 0.037541 0.006987 -0.064066
v 0.036484 0.007016 -0.065004
v 0.037225 0.006330 -0.064795
v 0.037154 0.006987 -0.064573
v 0.037237 0.007521 -0.063460
v 0.036489 0.007521 -0.064438
v 0.037158 0.007343 -0.064174
v 0.015794 0.006330 -0.075507
v 0.015465 0.007705 -0.074135
v 0.015750 0.007017 -0.075323
v 0.015630 0.007521 -0.074821
v 0.000000 0.006330 -0.075670
v 0.000101 0.007705 -0.074293
v 0.000014 0.007017 -0.075486
v 0.000051 0.007521 -0.074982
v -0.001635 0.006330 -0.075411
v -0.001204 0.007705 -0.074087
v -0.001577 0.007017 -0.075234
v -0.001420 0.007521 -0.074749
v -0.003109 0.006330 -0.074660
v -0.002291 0.007705 -0.073533
v -0.003000 0.007017 -0.074509
v -0.002700 0.007521 -0.074096
v -0.004280 0.006330 -0.073489
v -0.003153 0.007705 -0.072671
v -0.004129 0.007017 -0.073380
v -0.003716 0.007521 -0.073080
v -0.005031 0.006330 -0.072015
v -0.003707 0.007705 -0.071584
v -0.004854 0.007017 -0.071957
v -0.004369 0.007521 -0.071800
v -0.005290 0.006330 -0.070380
v -0.003897 0.007705 -0.070380
v -0.005103 0.007017 -0.070380
v -0.004594 0.007521 -0.070380
v -0.005031 0.006330 -0.068745
v -0.003707 0.007705 -0.069176
v -0.004854 0.007017 -0.068803
v -0.004369 0.007521 -0.068960
v -0.004280 0.006330 -0.067271
v -0.003153 0.007705 -0.068089
v -0.004129 0.007017 -0.067380
v -0.003716 0.007521 -0.067680
v -0.003109 0.006330 -0.066100
v -0.002291 0.007705 -0.067227
v -0.003000 0.007017 -0.066251
v -0.002700 0.007521 -0.066664
v -0.001635 0.006330 -0.065349
v -0.001204 0.007705 -0.066673
v -0.001577 0.007017 -0.065526
v -0.001420 0.007521 -0.066011
v 0.000000 0.006330 -0.065090
v 0.000100 0.007705 -0.066467
v 0.000013 0.007017 -0.065274
v 0.000050 0.007521 -0.065778
v 0.013186 0.006330 -0.065253
v 0.013436 0.007705 -0.066632
v 0.013220 0.007017 -0.065438
v 0.013311 0.007521 -0.065942
v 0.027381 0.006330 -0.059732
v 0.028905 0.006330 -0.057880
v 0.029881 0.007705 -0.060236
v 0.028043 0.006330 -0.059290
v 0.028091 0.007002 -0.059673
v 0.028435 0.006982 -0.059341
v 0.028984 0.007002 -0.058588
v 0.028599 0.006330 -0.058615
v 0.028725 0.006982 -0.058989
v 0.029001 0.007503 -0.059857
v 0.029339 0.007503 -0.059445
v 0.028860 0.007350 -0.059395
v 0.034283 0.006330 -0.027780
v 0.035659 0.007705 -0.027902
v 0.034467 0.007017 -0.027797
v 0.034971 0.007521 -0.027841
v 0.034278 0.006330 0.027854
v 0.035654 0.007705 0.027961
v 0.034463 0.007017 0.027869
v 0.034966 0.007521 0.027908
v 0.030463 0.006330 0.052245
v 0.029107 0.006330 0.054368
v 0.031516 0.007705 0.054411
v 0.030191 0.006330 0.053020
v 0.030566 0.007002 0.052898
v 0.030325 0.006982 0.053358
v 0.029743 0.007002 0.054187
v 0.029696 0.006330 0.053796
v 0.030059 0.006982 0.053775
v 0.030949 0.007502 0.053686
v 0.030619 0.007502 0.054202
v 0.030469 0.007350 0.053743
v 0.013649 0.006330 0.064711
v 0.011132 0.006330 0.065434
v 0.012905 0.007705 0.066864
v 0.012890 0.006330 0.065078
v 0.013282 0.007003 0.065201
v 0.012755 0.006982 0.065383
v 0.011703 0.007003 0.065654
v 0.011970 0.006330 0.065342
v 0.012246 0.006982 0.065529
v 0.013011 0.007502 0.065984
v 0.012348 0.007502 0.066174
v 0.012583 0.007350 0.065742
v 0.000000 0.006330 0.065090
v 0.000087 0.007705 0.066469
v 0.000012 0.007017 0.065275
v 0.000044 0.007521 0.065779
v -0.001635 0.006330 0.065349
v -0.001204 0.007705 0.066673
v -0.001577 0.007017 0.065526
v -0.001420 0.007521 0.066011
v -0.003109 0.006330 0.066100
v -0.002291 0.007705 0.067227
v -0.003000 0.007017 0.066251
v -0.002700 0.007521 0.066664
v -0.004280 0.006330 0.067271
v -0.003153 0.007705 0.068089
v -0.004129 0.007017 0.067380
v -0.003716 0.007521 0.067680
v -0.005031 0.006330 0.068745
v -0.003707 0.007705 0.069176
v -0.004854 0.007017 0.068803
v -0.004369 0.007521 0.068960
v -0.005290 0.006330 0.070380
v -0.003897 0.007705 0.070380
v -0.005103 0.007017 0.070380
v -0.004594 0.007521 0.070380
v -0.005031 0.006330 0.072015
v -0.003707 0.007705 0.071584
v -0.004854 0.007017 0.071957
v -0.004369 0.007521 0.071800
v -0.004280 0.006330 0.073489
v -0.003153 0.007705 0.072671
v -0.004129 0.007017 0.073380
v -0.003716 0.007521 0.073080
v -0.003109 0.006330 0.074660
v -0.002291 0.007705 0.073533
v -0.003000 0.007017 0.074509
v -0.002700 0.007521 0.074096
v -0.001204 0.007705 0.074087
v -0.001635 0.006330 0.075411
v -0.001420 0.007521 0.074749
v -0.001577 0.007017 0.075234
vn 0.4531 -0.2323 0.8607
vn 0.3115 -0.1576 0.9371
vn 0.1524 -0.2324 0.9606
vn 0.1037 -0.6738 0.7316
vn 0.1618 -0.9247 0.3447
vn 0.4915 -0.6262 0.6053
vn 0.2775 -0.4759 0.8346
vn 0.9154 -0.2258 0.3332
vn 0.8358 -0.1439 0.5299
vn 0.6918 -0.2258 0.6859
vn 0.5208 -0.6673 0.5324
vn 0.3422 -0.9221 0.1806
vn 0.7652 -0.6263 0.1488
vn 0.7439 -0.4733 0.4717
vn 0.5152 -0.3130 -0.7979
vn 0.7630 -0.2792 -0.5829
vn 0.9053 -0.3130 -0.2873
vn 0.6954 -0.6754 -0.2455
vn 0.3318 -0.9059 -0.2629
vn 0.4197 -0.6754 -0.6064
vn 0.6595 -0.5580 -0.5037
vn -0.8209 -0.4570 0.3424
vn -0.6868 -0.4574 0.5649
vn -0.4943 -0.4570 0.7394
vn -0.5014 -0.6596 0.5599
vn -0.1658 -0.9767 0.1364
vn -0.2364 -0.8786 0.4150
vn -0.5509 -0.7009 0.4531
vn -0.6320 -0.4216 -0.6503
vn -0.7683 -0.4115 -0.4904
vn -0.8559 -0.4216 -0.2995
vn -0.5414 -0.8037 -0.2470
vn -0.1914 -0.9739 -0.1222
vn -0.6694 -0.7424 -0.0277
vn -0.6293 -0.6653 -0.4017
vn -0.1000 -0.3854 -0.9173
vn -0.2569 -0.3650 -0.8949
vn -0.4016 -0.3854 -0.8308
vn -0.2307 -0.7819 -0.5792
vn -0.0664 -0.9706 -0.2313
vn -0.4674 -0.7226 -0.5093
vn -0.2145 -0.6287 -0.7475
vn 0.1524 0.2324 0.9606
vn 0.3115 0.1576 0.9371
vn 0.4531 0.2323 0.8607
vn 0.3549 0.6738 0.6481
vn 0.0768 0.9247 0.3730
vn -0.0312 0.6262 0.7790
vn 0.2776 0.4758 0.8346
vn 0.6918 0.2259 0.6859
vn 0.8358 0.1440 0.5299
vn 0.9154 0.2258 0.3332
vn 0.7037 0.6672 0.2441
vn 0.3093 0.9221 0.2326
vn 0.4610 0.6264 0.6286
vn 0.7440 0.4733 0.4717
vn 0.9053 0.3130 -0.2873
vn 0.7631 0.2792 -0.5829
vn 0.5151 0.3130 -0.7979
vn 0.4197 0.6754 -0.6063
vn 0.3409 0.9060 -0.2510
vn 0.6954 0.6754 -0.2455
vn 0.6594 0.5580 -0.5038
vn -0.4943 0.4570 0.7394
vn -0.6868 0.4574 0.5649
vn -0.8209 0.4570 0.3424
vn -0.6460 0.6597 0.3840
vn -0.1657 0.9767 0.1364
vn -0.4528 0.8786 0.1519
vn -0.5509 0.7009 0.4530
vn -0.8559 0.4216 -0.2995
vn -0.7683 0.4114 -0.4904
vn -0.6319 0.4217 -0.6503
vn -0.4520 0.8037 -0.3870
vn -0.1914 0.9739 -0.1222
vn -0.3070 0.7424 -0.5955
vn -0.6293 0.6653 -0.4017
vn -0.4017 0.3854 -0.8308
vn -0.2566 0.3650 -0.8950
vn -0.1000 0.3854 -0.9173
vn -0.1115 0.7819 -0.6134
vn -0.0664 0.9706 -0.2313
vn 0.1262 0.7226 -0.6797
vn -0.2145 0.6288 -0.7474
vn -0.1511 -0.2588 0.9540
vn -0.1107 -0.7071 0.6984
vn -0.0405 -0.9659 0.2556
vn -0.1175 -0.9659 0.2306
vn -0.3210 -0.7071 0.6300
vn -0.4385 -0.2588 0.8607
vn -0.1830 -0.9659 0.1830
vn -0.5000 -0.7071 0.5000
vn -0.6830 -0.2588 0.6830
vn -0.2306 -0.9659 0.1175
vn -0.6301 -0.7071 0.3210
vn -0.8607 -0.2588 0.4385
vn -0.2557 -0.9659 0.0405
vn -0.6984 -0.7071 0.1106
vn -0.9540 -0.2588 0.1511
vn -0.2556 -0.9659 -0.0405
vn -0.6984 -0.7071 -0.1106
vn -0.9540 -0.2588 -0.1511
vn -0.2306 -0.9659 -0.1175
vn -0.6301 -0.7071 -0.3210
vn -0.8606 -0.2589 -0.4385
vn -0.1830 -0.9659 -0.1830
vn -0.5000 -0.7071 -0.5000
vn -0.6830 -0.2589 -0.6830
vn -0.1175 -0.9659 -0.2306
vn -0.3211 -0.7071 -0.6300
vn -0.4386 -0.2588 -0.8606
vn -0.0405 -0.9659 -0.2556
vn -0.1106 -0.7071 -0.6984
vn -0.1511 -0.2588 -0.9540
vn 0.0089 -0.9575 -0.2882
vn 0.0238 -0.7058 -0.7080
vn 0.0314 -0.2869 -0.9574
vn -0.1603 -0.9575 -0.2396
vn -0.3932 -0.7071 -0.5877
vn -0.5325 -0.2883 -0.7958
vn -0.2558 -0.9659 -0.0392
vn -0.6987 -0.7071 -0.1084
vn -0.9543 -0.2589 -0.1493
vn -0.2588 -0.9659 -0.0000
vn -0.7071 -0.7071 -0.0001
vn -0.9659 -0.2588 -0.0001
vn -0.2837 -0.9576 0.0507
vn -0.6968 -0.7066 0.1237
vn -0.9430 -0.2875 0.1678
vn -0.0925 -0.9660 0.2415
vn -0.2549 -0.7072 0.6594
vn -0.3501 -0.2588 0.9002
vn 0.0032 -0.9659 0.2588
vn 0.0087 -0.7071 0.7070
vn 0.0119 -0.2588 0.9659
vn -0.1106 -0.7071 0.6984
vn -0.2556 -0.9659 0.0405
vn -0.8607 -0.2588 -0.4385
vn -0.4385 -0.2588 -0.8606
vn 0.0027 -0.9659 -0.2588
vn 0.0073 -0.7071 -0.7071
vn 0.0100 -0.2589 -0.9659
vn 0.1233 -0.9606 -0.2491
vn 0.3152 -0.7067 -0.6334
vn 0.4215 -0.3241 -0.8469
vn 0.2539 -0.9659 -0.0501
vn 0.6937 -0.7071 -0.1370
vn 0.9479 -0.2587 -0.1858
vn 0.2588 -0.9659 -0.0000
vn 0.7071 -0.7071 -0.0001
vn 0.9659 -0.2588 -0.0001
vn 0.2845 -0.9573 0.0511
vn 0.6960 -0.7069 0.1259
vn 0.9422 -0.2888 0.1702
vn 0.1675 -0.9573 0.2354
vn 0.4100 -0.7071 0.5761
vn 0.5551 -0.2890 0.7800
vn 0.0075 -0.9659 0.2588
vn 0.0181 -0.7070 0.7070
vn 0.0226 -0.2588 0.9657
vn -0.0405 0.9659 0.2556
vn -0.1107 0.7071 0.6984
vn -0.1511 0.2588 0.9540
vn 0.0226 0.2588 0.9657
vn 0.0181 0.7070 0.7070
vn 0.0075 0.9659 0.2588
vn 0.5551 0.2890 0.7800
vn 0.4100 0.7071 0.5761
vn 0.1675 0.9573 0.2354
vn 0.9422 0.2888 0.1702
vn 0.6960 0.7069 0.1259
vn 0.2845 0.9573 0.0511
vn 0.9659 0.2588 -0.0001
vn 0.7071 0.7071 -0.0001
vn 0.2588 0.9659 -0.0000
vn 0.9479 0.2587 -0.1858
vn 0.6937 0.7071 -0.1370
vn 0.2539 0.9659 -0.0501
vn 0.4215 0.3241 -0.8469
vn 0.3152 0.7067 -0.6334
vn 0.1233 0.9606 -0.2491
vn 0.0100 0.2589 -0.9659
vn 0.0073 0.7071 -0.7071
vn 0.0027 0.9659 -0.2588
vn -0.1511 0.2588 -0.9540
vn -0.1106 0.7071 -0.6984
vn -0.0405 0.9659 -0.2556
vn -0.4385 0.2588 -0.8606
vn -0.3211 0.7071 -0.6300
vn -0.1175 0.9659 -0.2306
vn -0.6830 0.2589 -0.6830
vn -0.5000 0.7071 -0.5000
vn -0.1830 0.9659 -0.1830
vn -0.8607 0.2588 -0.4385
vn -0.6301 0.7071 -0.3210
vn -0.2306 0.9659 -0.1175
vn -0.9540 0.2588 -0.1511
vn -0.6984 0.7071 -0.1106
vn -0.2556 0.9659 -0.0405
vn -0.9540 0.2588 0.1511
vn -0.6984 0.7071 0.1106
vn -0.2556 0.9659 0.0405
vn -0.8607 0.2588 0.4385
vn -0.6301 0.7071 0.3210
vn -0.2306 0.9659 0.1175
vn -0.6830 0.2588 0.6830
vn -0.5000 0.7071 0.5000
vn -0.1830 0.9659 0.1830
vn -0.4385 0.2588 0.8607
vn -0.3210 0.7071 0.6300
vn -0.1175 0.9659 0.2306
vn -0.1106 0.7071 0.6984
vn 0.0119 0.2588 0.9659
vn 0.0087 0.7071 0.7070
vn 0.0032 0.9659 0.2588
vn -0.3501 0.2588 0.9002
vn -0.2549 0.7072 0.6594
vn -0.0925 0.9660 0.2415
vn -0.9430 0.2875 0.1678
vn -0.6968 0.7066 0.1237
vn -0.2837 0.9576 0.0507
vn -0.9659 0.2588 -0.0001
vn -0.7071 0.7071 -0.0001
vn -0.2588 0.9659 -0.0000
vn -0.9543 0.2589 -0.1493
vn -0.6987 0.7071 -0.1084
vn -0.2558 0.9659 -0.0392
vn -0.5325 0.2883 -0.7958
vn -0.3932 0.7071 -0.5877
vn -0.1603 0.9575 -0.2396
vn 0.0314 0.2869 -0.9574
vn 0.0238 0.7058 -0.7080
vn 0.0089 0.9575 -0.2882
vn -0.3210 0.7071 -0.6300
vn -0.8606 0.2588 -0.4385
vn -0.2557 0.9659 0.0405
vn -0.8606 0.2588 0.4385
vn -0.6300 0.7071 0.3210
vn 0.4659 -0.0000 0.8849
vn 0.3155 -0.0000 0.9489
vn 0.1567 -0.0000 0.9876
vn 0.9397 -0.0000 0.3421
vn 0.8446 -0.0000 0.5355
vn 0.7101 -0.0000 0.7041
vn 0.5425 -0.0000 -0.8401
vn 0.7947 -0.0000 -0.6071
vn 0.9532 -0.0000 -0.3024
vn -0.9229 -0.0000 0.3850
vn -0.7723 -0.0000 0.6353
vn -0.5558 -0.0000 0.8313
vn -0.6969 -0.0000 -0.7171
vn -0.8429 -0.0000 -0.5381
vn -0.9439 -0.0000 -0.3303
vn -0.1084 -0.0000 -0.9941
vn -0.2758 -0.0000 -0.9612
vn -0.4352 -0.0000 -0.9003
vn -0.1564 -0.0000 0.9877
vn -0.0000 -1.0000 -0.0000
vn 0.0234 -0.0000 0.9997
vn 0.5798 -0.0000 0.8147
vn 0.9842 -0.0000 0.1770
vn 1.0000 -0.0000 -0.0001
vn 0.9813 -0.0000 -0.1923
vn 0.4436 -0.0000 -0.8962
vn 0.0103 -0.0000 -0.9999
vn -0.1564 -0.0000 -0.9877
vn -0.4540 -0.0000 -0.8910
vn -0.7071 -0.0000 -0.7071
vn -0.8910 -0.0000 -0.4540
vn -0.9877 -0.0000 -0.1564
vn -0.9877 -0.0000 0.1564
vn -0.8910 -0.0000 0.4540
vn -0.7071 -0.0000 0.7071
vn -0.4540 -0.0000 0.8910
vn -0.1565 -0.0000 0.9877
vn 0.0124 -0.0000 0.9999
vn -0.3625 -0.0000 0.9320
vn -0.9844 -0.0000 0.1759
vn -1.0000 -0.0000 -0.0001
vn -0.9880 -0.0000 -0.1546
vn -0.5561 -0.0000 -0.8311
vn 0.0308 -0.0000 -0.9995
vn -0.0000 1.0000 -0.0000
vn 0.4887 -0.2050 0.8480
vn 0.1164 -0.2050 0.9718
vn -0.0313 -0.6262 0.7790
vn 0.0768 -0.9246 0.3730
vn 0.3550 -0.6738 0.6481
vn 0.9326 -0.1985 0.3013
vn 0.8358 -0.1440 0.5299
vn 0.6702 -0.1986 0.7151
vn 0.4609 -0.6264 0.6287
vn 0.3093 -0.9221 0.2325
vn 0.7037 -0.6672 0.2441
vn 0.5222 -0.3231 -0.7892
vn 0.7631 -0.2792 -0.5829
vn 0.8988 -0.3231 -0.2963
vn 0.3409 -0.9060 -0.2510
vn -0.7707 -0.4229 0.4767
vn -0.6164 -0.4229 0.6642
vn -0.4527 -0.8786 0.1519
vn -0.2739 -0.9350 0.2253
vn -0.6461 -0.6597 0.3840
vn -0.7232 -0.3837 -0.5743
vn -0.7682 -0.4114 -0.4905
vn -0.8254 -0.3836 -0.4142
vn -0.3070 -0.7424 -0.5955
vn -0.3185 -0.9258 -0.2033
vn -0.4520 -0.8037 -0.3870
vn -0.1980 -0.3464 -0.9169
vn -0.2568 -0.3650 -0.8949
vn -0.3184 -0.3464 -0.8824
vn 0.1260 -0.7227 -0.6796
vn -0.1101 -0.9169 -0.3837
vn -0.1115 -0.7819 -0.6134
vn 0.1164 0.2050 0.9718
vn 0.3116 0.1576 0.9370
vn 0.4886 0.2050 0.8481
vn 0.4916 0.6261 0.6053
vn 0.1618 0.9246 0.3447
vn 0.1038 0.6738 0.7316
vn 0.6702 0.1986 0.7151
vn 0.8357 0.1441 0.5299
vn 0.9326 0.1985 0.3014
vn 0.7651 0.6264 0.1489
vn 0.3422 0.9221 0.1806
vn 0.5209 0.6673 0.5324
vn 0.8988 0.3232 -0.2963
vn 0.7630 0.2793 -0.5830
vn 0.5222 0.3231 -0.7892
vn 0.4197 0.6754 -0.6064
vn 0.3319 0.9059 -0.2629
vn -0.6163 0.4229 0.6643
vn -0.6869 0.4573 0.5648
vn -0.7707 0.4229 0.4767
vn -0.2364 0.8786 0.4150
vn -0.2739 0.9350 0.2253
vn -0.5014 0.6597 0.5599
vn -0.8254 0.3836 -0.4142
vn -0.7682 0.4115 -0.4904
vn -0.7232 0.3838 -0.5742
vn -0.6694 0.7424 -0.0278
vn -0.3185 0.9258 -0.2033
vn -0.5414 0.8037 -0.2470
vn -0.3184 0.3464 -0.8824
vn -0.2569 0.3650 -0.8949
vn -0.1980 0.3464 -0.9169
vn -0.4673 0.7226 -0.5093
vn -0.1101 0.9169 -0.3837
vn -0.2307 0.7818 -0.5792
vn -0.6300 -0.7071 0.3210
vn -0.6300 -0.7071 -0.3210
vn -0.6830 -0.2588 -0.6830
vn -0.3210 -0.7071 -0.6300
vn -0.4385 -0.2589 -0.8606
vn 0.0097 -0.9659 -0.2588
vn 0.0238 -0.7070 -0.7068
vn 0.0298 -0.2588 -0.9655
vn -0.1604 -0.9575 -0.2397
vn -0.2848 -0.9576 -0.0446
vn -0.6994 -0.7065 -0.1085
vn -0.9464 -0.2875 -0.1472
vn -0.9659 -0.2589 -0.0001
vn -0.2549 -0.9659 0.0449
vn -0.6962 -0.7071 0.1236
vn -0.9509 -0.2588 0.1699
vn -0.1045 -0.9576 0.2686
vn -0.2554 -0.7060 0.6606
vn -0.3460 -0.2869 0.8933
vn 0.0088 -0.7071 0.7071
vn 0.0120 -0.2588 0.9658
vn 0.0100 -0.2588 -0.9659
vn 0.1154 -0.9659 -0.2318
vn 0.3152 -0.7069 -0.6332
vn 0.4285 -0.2588 -0.8657
vn 0.2727 -0.9606 -0.0534
vn 0.6940 -0.7068 -0.1370
vn 0.9281 -0.3242 -0.1833
vn 0.7070 -0.7072 -0.0001
vn 0.2547 -0.9659 0.0465
vn 0.6959 -0.7071 0.1259
vn 0.9507 -0.2588 0.1709
vn 0.1676 -0.9573 0.2355
vn 0.0068 -0.9573 0.2889
vn 0.0181 -0.7066 0.7074
vn 0.0239 -0.2884 0.9572
vn 0.0239 0.2884 0.9572
vn 0.0181 0.7066 0.7074
vn 0.0068 0.9573 0.2889
vn 0.5551 0.2891 0.7799
vn 0.1676 0.9573 0.2355
vn 0.9507 0.2588 0.1709
vn 0.6959 0.7070 0.1259
vn 0.2547 0.9659 0.0465
vn 0.7071 0.7072 -0.0001
vn 0.9281 0.3242 -0.1833
vn 0.6940 0.7068 -0.1370
vn 0.2727 0.9606 -0.0534
vn 0.4285 0.2588 -0.8657
vn 0.3152 0.7069 -0.6332
vn 0.1154 0.9659 -0.2318
vn 0.0100 0.2588 -0.9659
vn -0.4385 0.2589 -0.8606
vn -0.6830 0.2588 -0.6830
vn -0.6300 0.7071 -0.3210
vn 0.0120 0.2588 0.9658
vn 0.0088 0.7071 0.7071
vn -0.3460 0.2869 0.8933
vn -0.2554 0.7060 0.6605
vn -0.1045 0.9576 0.2686
vn -0.9509 0.2588 0.1699
vn -0.6962 0.7071 0.1236
vn -0.2548 0.9659 0.0449
vn -0.9659 0.2589 -0.0001
vn -0.9464 0.2875 -0.1472
vn -0.6994 0.7065 -0.1085
vn -0.2848 0.9575 -0.0446
vn -0.5325 0.2884 -0.7958
vn 0.0298 0.2588 -0.9655
vn 0.0238 0.7070 -0.7068
vn 0.0097 0.9659 -0.2588
vn 0.9397 -0.0000 0.3420
vn 0.8446 -0.0000 0.5354
vn 0.5424 -0.0000 -0.8401
vn 0.9532 -0.0000 -0.3025
vn -0.5557 -0.0000 0.8314
vn -0.1083 -0.0000 -0.9941
s 0
usemtl gray_handle_polymer
f 8//1 9//1 5//1
f 8//2 13//2 10//2
f 11//3 12//3 6//3
f 15//4 13//4 11//4
f 7//5 16//5 15//5
f 14//6 10//6 16//6
f 10//7 13//7 16//7
f 20//8 21//8 17//8
f 20//9 25//9 22//9
f 23//10 24//10 18//10
f 27//11 25//11 23//11
f 19//12 28//12 27//12
f 26//13 22//13 28//13
f 22//14 25//14 28//14
f 40//15 41//15 37//15
f 44//16 42//16 40//16
f 43//17 44//17 38//17
f 47//18 45//18 43//18
f 39//19 48//19 47//19
f 46//20 42//20 48//20
f 42//21 45//21 48//21
f 104//22 105//22 101//22
f 104//23 109//23 106//23
f 107//24 108//24 102//24
f 107//25 112//25 109//25
f 110//26 111//26 103//26
f 105//27 112//27 110//27
f 106//28 109//28 112//28
f 124//29 125//29 121//29
f 124//30 129//30 126//30
f 127//31 128//31 122//31
f 131//32 129//32 127//32
f 130//33 131//33 123//33
f 130//34 126//34 132//34
f 126//35 129//35 132//35
f 136//36 137//36 133//36
f 140//37 138//37 136//37
f 139//38 140//38 134//38
f 143//39 141//39 139//39
f 142//40 143//40 135//40
f 142//41 138//41 144//41
f 138//42 141//42 144//42
f 192//43 193//43 189//43
f 192//44 197//44 194//44
f 195//45 196//45 190//45
f 199//46 197//46 195//46
f 191//47 200//47 199//47
f 198//48 194//48 200//48
f 194//49 197//49 200//49
f 204//50 205//50 201//50
f 204//51 209//51 206//51
f 207//52 208//52 202//52
f 211//53 209//53 207//53
f 203//54 212//54 211//54
f 210//55 206//55 212//55
f 206//56 209//56 212//56
f 224//57 225//57 221//57
f 228//58 226//58 224//58
f 227//59 228//59 222//59
f 231//60 229//60 227//60
f 223//61 232//61 231//61
f 230//62 226//62 232//62
f 226//63 229//63 232//63
f 288//64 289//64 285//64
f 292//65 290//65 288//65
f 291//66 292//66 286//66
f 291//67 296//67 293//67
f 294//68 295//68 287//68
f 289//69 296//69 294//69
f 290//70 293//70 296//70
f 308//71 309//71 305//71
f 312//72 310//72 308//72
f 311//73 312//73 306//73
f 315//74 313//74 311//74
f 314//75 315//75 307//75
f 314//76 310//76 316//76
f 310//77 313//77 316//77
f 320//78 321//78 317//78
f 320//79 325//79 322//79
f 323//80 324//80 318//80
f 327//81 325//81 323//81
f 326//82 327//82 319//82
f 326//83 322//83 328//83
f 322//84 325//84 328//84
f 2//85 183//85 4//85
f 4//86 184//86 3//86
f 3//87 182//87 1//87
f 178//88 184//88 180//88
f 184//89 179//89 180//89
f 183//90 177//90 179//90
f 178//91 176//91 174//91
f 180//92 175//92 176//92
f 175//93 177//93 173//93
f 170//94 176//94 172//94
f 172//95 175//95 171//95
f 171//96 173//96 169//96
f 170//97 168//97 166//97
f 172//98 167//98 168//98
f 167//99 169//99 165//99
f 166//100 164//100 162//100
f 168//101 163//101 164//101
f 163//102 165//102 161//102
f 158//103 164//103 160//103
f 160//104 163//104 159//104
f 163//105 157//105 159//105
f 154//106 160//106 156//106
f 160//107 155//107 156//107
f 159//108 153//108 155//108
f 150//109 156//109 152//109
f 152//110 155//110 151//110
f 155//111 149//111 151//111
f 150//112 148//112 146//112
f 152//113 147//113 148//113
f 151//114 145//114 147//114
f 146//115 142//115 135//115
f 148//116 137//116 142//116
f 147//117 133//117 137//117
f 135//118 130//118 123//118
f 143//119 125//119 130//119
f 139//120 121//120 125//120
f 118//121 131//121 120//121
f 120//122 127//122 119//122
f 119//123 122//123 117//123
f 118//124 116//124 114//124
f 120//125 115//125 116//125
f 119//126 113//126 115//126
f 114//127 110//127 103//127
f 116//128 105//128 110//128
f 115//129 101//129 105//129
f 98//130 111//130 100//130
f 100//131 107//131 99//131
f 99//132 102//132 97//132
f 94//133 100//133 96//133
f 96//134 99//134 95//134
f 95//135 97//135 93//135
f 90//87 96//87 92//87
f 92//136 95//136 91//136
f 91//85 93//85 89//85
f 86//88 92//88 88//88
f 92//89 87//89 88//89
f 91//90 85//90 87//90
f 86//91 84//91 82//91
f 88//92 83//92 84//92
f 87//93 81//93 83//93
f 78//94 84//94 80//94
f 80//95 83//95 79//95
f 79//96 81//96 77//96
f 78//137 76//137 74//137
f 80//98 75//98 76//98
f 75//99 77//99 73//99
f 74//100 72//100 70//100
f 76//101 71//101 72//101
f 75//102 69//102 71//102
f 66//103 72//103 68//103
f 68//104 71//104 67//104
f 67//138 69//138 65//138
f 66//106 64//106 62//106
f 68//107 63//107 64//107
f 67//108 61//108 63//108
f 58//109 64//109 60//109
f 60//110 63//110 59//110
f 63//139 57//139 59//139
f 58//112 56//112 54//112
f 60//113 55//113 56//113
f 59//114 53//114 55//114
f 50//140 56//140 52//140
f 52//141 55//141 51//141
f 51//142 53//142 49//142
f 50//143 46//143 39//143
f 52//144 41//144 46//144
f 51//145 37//145 41//145
f 34//146 47//146 36//146
f 36//147 43//147 35//147
f 35//148 38//148 33//148
f 34//149 32//149 30//149
f 36//150 31//150 32//150
f 35//151 29//151 31//151
f 30//152 26//152 19//152
f 32//153 21//153 26//153
f 31//154 17//154 21//154
f 19//155 14//155 7//155
f 27//156 9//156 14//156
f 23//157 5//157 9//157
f 1//158 15//158 3//158
f 3//159 11//159 4//159
f 4//160 6//160 2//160
f 365//161 188//161 186//161
f 367//162 187//162 188//162
f 368//163 185//163 187//163
f 189//164 187//164 185//164
f 193//165 188//165 187//165
f 198//166 186//166 188//166
f 190//167 205//167 195//167
f 195//168 210//168 199//168
f 199//169 203//169 191//169
f 202//170 215//170 207//170
f 207//171 216//171 211//171
f 211//172 214//172 203//172
f 213//173 219//173 215//173
f 215//174 220//174 216//174
f 216//175 218//175 214//175
f 221//176 219//176 217//176
f 225//177 220//177 219//177
f 230//178 218//178 220//178
f 222//179 235//179 227//179
f 227//180 236//180 231//180
f 231//181 234//181 223//181
f 237//182 235//182 233//182
f 239//183 236//183 235//183
f 240//184 234//184 236//184
f 237//185 243//185 239//185
f 239//186 244//186 240//186
f 240//187 242//187 238//187
f 245//188 243//188 241//188
f 243//189 248//189 244//189
f 248//190 242//190 244//190
f 245//191 251//191 247//191
f 247//192 252//192 248//192
f 248//193 250//193 246//193
f 253//194 251//194 249//194
f 255//195 252//195 251//195
f 252//196 254//196 250//196
f 257//197 255//197 253//197
f 255//198 260//198 256//198
f 256//199 258//199 254//199
f 261//200 259//200 257//200
f 259//201 264//201 260//201
f 260//202 262//202 258//202
f 265//203 263//203 261//203
f 267//204 264//204 263//204
f 268//205 262//205 264//205
f 265//206 271//206 267//206
f 271//207 268//207 267//207
f 268//208 270//208 266//208
f 269//209 275//209 271//209
f 275//210 272//210 271//210
f 276//211 270//211 272//211
f 277//163 275//163 273//163
f 279//212 276//212 275//212
f 280//161 274//161 276//161
f 281//213 279//213 277//213
f 283//214 280//214 279//214
f 284//215 278//215 280//215
f 285//216 283//216 281//216
f 289//217 284//217 283//217
f 294//218 282//218 284//218
f 286//219 299//219 291//219
f 291//220 300//220 295//220
f 295//221 298//221 287//221
f 297//222 303//222 299//222
f 299//223 304//223 300//223
f 300//224 302//224 298//224
f 305//225 303//225 301//225
f 309//226 304//226 303//226
f 314//227 302//227 304//227
f 306//228 321//228 311//228
f 311//229 326//229 315//229
f 315//230 319//230 307//230
f 318//231 331//231 323//231
f 323//232 332//232 327//232
f 327//233 330//233 319//233
f 329//185 335//185 331//185
f 331//186 336//186 332//186
f 332//187 334//187 330//187
f 333//188 339//188 335//188
f 339//234 336//234 335//234
f 340//190 334//190 336//190
f 337//191 343//191 339//191
f 339//192 344//192 340//192
f 344//193 338//193 340//193
f 345//235 343//235 341//235
f 347//195 344//195 343//195
f 348//196 342//196 344//196
f 349//197 347//197 345//197
f 347//198 352//198 348//198
f 348//199 350//199 346//199
f 349//200 355//200 351//200
f 351//201 356//201 352//201
f 352//236 354//236 350//236
f 357//237 355//237 353//237
f 359//238 356//238 355//238
f 360//205 354//205 356//205
f 361//206 359//206 357//206
f 363//207 360//207 359//207
f 360//208 362//208 358//208
f 361//209 368//209 363//209
f 368//210 364//210 363//210
f 367//211 362//211 364//211
f 190//239 8//239 5//239
f 196//240 12//240 8//240
f 12//241 189//241 6//241
f 202//242 20//242 17//242
f 208//243 24//243 20//243
f 204//244 18//244 24//244
f 222//245 40//245 37//245
f 228//246 44//246 40//246
f 224//247 38//247 44//247
f 286//248 104//248 101//248
f 292//249 108//249 104//249
f 108//250 285//250 102//250
f 306//251 124//251 121//251
f 312//252 128//252 124//252
f 308//253 122//253 128//253
f 318//254 136//254 133//254
f 324//255 140//255 136//255
f 320//256 134//256 140//256
f 2//257 366//257 181//257
f 118//258 39//258 19//258
f 6//259 185//259 2//259
f 18//260 190//260 5//260
f 29//261 202//261 17//261
f 33//262 213//262 29//262
f 38//263 217//263 33//263
f 49//264 222//264 37//264
f 53//265 233//265 49//265
f 57//266 237//266 53//266
f 61//267 241//267 57//267
f 65//268 245//268 61//268
f 69//269 249//269 65//269
f 73//270 253//270 69//270
f 77//271 257//271 73//271
f 81//272 261//272 77//272
f 85//273 265//273 81//273
f 89//274 269//274 85//274
f 93//275 273//275 89//275
f 97//276 277//276 93//276
f 102//277 281//277 97//277
f 113//278 286//278 101//278
f 117//279 297//279 113//279
f 122//280 301//280 117//280
f 134//281 306//281 121//281
f 145//282 318//282 133//282
f 149//266 329//266 145//266
f 153//267 333//267 149//267
f 157//268 337//268 153//268
f 161//269 341//269 157//269
f 165//270 345//270 161//270
f 169//271 349//271 165//271
f 173//272 353//272 169//272
f 177//273 357//273 173//273
f 181//274 361//274 177//274
f 203//283 223//283 302//283
f 8//284 10//284 9//284
f 8//2 12//2 13//2
f 11//285 13//285 12//285
f 15//286 16//286 13//286
f 7//287 14//287 16//287
f 14//288 9//288 10//288
f 20//289 22//289 21//289
f 20//290 24//290 25//290
f 23//291 25//291 24//291
f 27//292 28//292 25//292
f 19//293 26//293 28//293
f 26//294 21//294 22//294
f 40//295 42//295 41//295
f 44//296 45//296 42//296
f 43//297 45//297 44//297
f 47//18 48//18 45//18
f 39//298 46//298 48//298
f 46//20 41//20 42//20
f 104//299 106//299 105//299
f 104//23 108//23 109//23
f 107//300 109//300 108//300
f 107//301 111//301 112//301
f 110//302 112//302 111//302
f 105//303 106//303 112//303
f 124//304 126//304 125//304
f 124//305 128//305 129//305
f 127//306 129//306 128//306
f 131//307 132//307 129//307
f 130//308 132//308 131//308
f 130//309 125//309 126//309
f 136//310 138//310 137//310
f 140//311 141//311 138//311
f 139//312 141//312 140//312
f 143//313 144//313 141//313
f 142//314 144//314 143//314
f 142//315 137//315 138//315
f 192//316 194//316 193//316
f 192//317 196//317 197//317
f 195//318 197//318 196//318
f 199//319 200//319 197//319
f 191//320 198//320 200//320
f 198//321 193//321 194//321
f 204//322 206//322 205//322
f 204//323 208//323 209//323
f 207//324 209//324 208//324
f 211//325 212//325 209//325
f 203//326 210//326 212//326
f 210//327 205//327 206//327
f 224//328 226//328 225//328
f 228//329 229//329 226//329
f 227//330 229//330 228//330
f 231//331 232//331 229//331
f 223//332 230//332 232//332
f 230//62 225//62 226//62
f 288//333 290//333 289//333
f 292//334 293//334 290//334
f 291//335 293//335 292//335
f 291//336 295//336 296//336
f 294//337 296//337 295//337
f 289//338 290//338 296//338
f 308//339 310//339 309//339
f 312//340 313//340 310//340
f 311//341 313//341 312//341
f 315//342 316//342 313//342
f 314//343 316//343 315//343
f 314//344 309//344 310//344
f 320//345 322//345 321//345
f 320//346 324//346 325//346
f 323//347 325//347 324//347
f 327//348 328//348 325//348
f 326//349 328//349 327//349
f 326//350 321//350 322//350
f 2//85 181//85 183//85
f 4//136 183//136 184//136
f 3//87 184//87 182//87
f 178//88 182//88 184//88
f 184//89 183//89 179//89
f 183//90 181//90 177//90
f 178//91 180//91 176//91
f 180//92 179//92 175//92
f 175//93 179//93 177//93
f 170//94 174//94 176//94
f 172//351 176//351 175//351
f 171//96 175//96 173//96
f 170//137 172//137 168//137
f 172//98 171//98 167//98
f 167//99 171//99 169//99
f 166//100 168//100 164//100
f 168//101 167//101 163//101
f 163//102 167//102 165//102
f 158//103 162//103 164//103
f 160//352 164//352 163//352
f 163//138 161//138 157//138
f 154//106 158//106 160//106
f 160//107 159//107 155//107
f 159//353 157//353 153//353
f 150//109 154//109 156//109
f 152//354 156//354 155//354
f 155//355 153//355 149//355
f 150//112 152//112 148//112
f 152//113 151//113 147//113
f 151//114 149//114 145//114
f 146//356 148//356 142//356
f 148//357 147//357 137//357
f 147//358 145//358 133//358
f 135//359 143//359 130//359
f 143//119 139//119 125//119
f 139//120 134//120 121//120
f 118//360 123//360 131//360
f 120//361 131//361 127//361
f 119//362 127//362 122//362
f 118//124 120//124 116//124
f 120//125 119//125 115//125
f 119//363 117//363 113//363
f 114//364 116//364 110//364
f 116//365 115//365 105//365
f 115//366 113//366 101//366
f 98//367 103//367 111//367
f 100//368 111//368 107//368
f 99//369 107//369 102//369
f 94//133 98//133 100//133
f 96//370 100//370 99//370
f 95//371 99//371 97//371
f 90//87 94//87 96//87
f 92//136 96//136 95//136
f 91//85 95//85 93//85
f 86//88 90//88 92//88
f 92//89 91//89 87//89
f 91//90 89//90 85//90
f 86//91 88//91 84//91
f 88//92 87//92 83//92
f 87//93 85//93 81//93
f 78//94 82//94 84//94
f 80//351 84//351 83//351
f 79//96 83//96 81//96
f 78//137 80//137 76//137
f 80//98 79//98 75//98
f 75//99 79//99 77//99
f 74//100 76//100 72//100
f 76//101 75//101 71//101
f 75//102 73//102 69//102
f 66//103 70//103 72//103
f 68//352 72//352 71//352
f 67//105 71//105 69//105
f 66//106 68//106 64//106
f 68//107 67//107 63//107
f 67//353 65//353 61//353
f 58//109 62//109 64//109
f 60//354 64//354 63//354
f 63//355 61//355 57//355
f 58//112 60//112 56//112
f 60//113 59//113 55//113
f 59//114 57//114 53//114
f 50//140 54//140 56//140
f 52//141 56//141 55//141
f 51//372 55//372 53//372
f 50//373 52//373 46//373
f 52//374 51//374 41//374
f 51//375 49//375 37//375
f 34//376 39//376 47//376
f 36//377 47//377 43//377
f 35//378 43//378 38//378
f 34//149 36//149 32//149
f 36//379 35//379 31//379
f 35//151 33//151 29//151
f 30//380 32//380 26//380
f 32//381 31//381 21//381
f 31//382 29//382 17//382
f 19//383 27//383 14//383
f 27//156 23//156 9//156
f 23//157 18//157 5//157
f 1//384 7//384 15//384
f 3//385 15//385 11//385
f 4//386 11//386 6//386
f 365//161 367//161 188//161
f 367//212 368//212 187//212
f 368//163 366//163 185//163
f 189//387 193//387 187//387
f 193//388 198//388 188//388
f 198//389 191//389 186//389
f 190//390 201//390 205//390
f 195//168 205//168 210//168
f 199//391 210//391 203//391
f 202//392 213//392 215//392
f 207//393 215//393 216//393
f 211//394 216//394 214//394
f 213//173 217//173 219//173
f 215//395 219//395 220//395
f 216//175 220//175 218//175
f 221//396 225//396 219//396
f 225//397 230//397 220//397
f 230//398 223//398 218//398
f 222//399 233//399 235//399
f 227//400 235//400 236//400
f 231//401 236//401 234//401
f 237//402 239//402 235//402
f 239//183 240//183 236//183
f 240//184 238//184 234//184
f 237//185 241//185 243//185
f 239//186 243//186 244//186
f 240//187 244//187 242//187
f 245//403 247//403 243//403
f 243//234 247//234 248//234
f 248//190 246//190 242//190
f 245//404 249//404 251//404
f 247//192 251//192 252//192
f 248//193 252//193 250//193
f 253//235 255//235 251//235
f 255//405 256//405 252//405
f 252//196 256//196 254//196
f 257//197 259//197 255//197
f 255//198 259//198 260//198
f 256//199 260//199 258//199
f 261//200 263//200 259//200
f 259//201 263//201 264//201
f 260//202 264//202 262//202
f 265//203 267//203 263//203
f 267//238 268//238 264//238
f 268//205 266//205 262//205
f 265//206 269//206 271//206
f 271//207 272//207 268//207
f 268//208 272//208 270//208
f 269//209 273//209 275//209
f 275//210 276//210 272//210
f 276//211 274//211 270//211
f 277//163 279//163 275//163
f 279//212 280//212 276//212
f 280//161 278//161 274//161
f 281//406 283//406 279//406
f 283//407 284//407 280//407
f 284//215 282//215 278//215
f 285//408 289//408 283//408
f 289//409 294//409 284//409
f 294//410 287//410 282//410
f 286//411 297//411 299//411
f 291//412 299//412 300//412
f 295//413 300//413 298//413
f 297//414 301//414 303//414
f 299//223 303//223 304//223
f 300//224 304//224 302//224
f 305//415 309//415 303//415
f 309//416 314//416 304//416
f 314//417 307//417 302//417
f 306//418 317//418 321//418
f 311//229 321//229 326//229
f 315//230 326//230 319//230
f 318//419 329//419 331//419
f 323//420 331//420 332//420
f 327//421 332//421 330//421
f 329//185 333//185 335//185
f 331//186 335//186 336//186
f 332//187 336//187 334//187
f 333//403 337//403 339//403
f 339//189 340//189 336//189
f 340//190 338//190 334//190
f 337//404 341//404 343//404
f 339//192 343//192 344//192
f 344//193 342//193 338//193
f 345//235 347//235 343//235
f 347//405 348//405 344//405
f 348//196 346//196 342//196
f 349//197 351//197 347//197
f 347//198 351//198 352//198
f 348//199 352//199 350//199
f 349//200 353//200 355//200
f 351//201 355//201 356//201
f 352//202 356//202 354//202
f 357//203 359//203 355//203
f 359//238 360//238 356//238
f 360//205 358//205 354//205
f 361//206 363//206 359//206
f 363//207 364//207 360//207
f 360//208 364//208 362//208
f 361//209 366//209 368//209
f 368//210 367//210 364//210
f 367//211 365//211 362//211
f 190//239 196//239 8//239
f 196//240 192//240 12//240
f 12//241 192//241 189//241
f 202//422 208//422 20//422
f 208//423 204//423 24//423
f 204//244 201//244 18//244
f 222//424 228//424 40//424
f 228//246 224//246 44//246
f 224//425 221//425 38//425
f 286//248 292//248 104//248
f 292//249 288//249 108//249
f 108//426 288//426 285//426
f 306//251 312//251 124//251
f 312//252 308//252 128//252
f 308//253 305//253 122//253
f 318//427 324//427 136//427
f 324//255 320//255 140//255
f 320//256 317//256 134//256
f 2//275 185//275 366//275
f 1//258 182//258 178//258
f 178//258 174//258 170//258
f 170//258 166//258 162//258
f 162//258 158//258 154//258
f 154//258 150//258 146//258
f 154//258 146//258 135//258
f 170//258 162//258 154//258
f 1//258 178//258 170//258
f 19//258 7//258 1//258
f 34//258 30//258 19//258
f 54//258 50//258 39//258
f 62//258 58//258 54//258
f 70//258 66//258 62//258
f 78//258 74//258 70//258
f 86//258 82//258 78//258
f 94//258 90//258 86//258
f 98//258 94//258 86//258
f 86//258 78//258 70//258
f 70//258 62//258 54//258
f 39//258 34//258 19//258
f 1//258 170//258 154//258
f 1//258 154//258 135//258
f 70//258 54//258 39//258
f 98//258 86//258 70//258
f 98//258 70//258 39//258
f 19//258 1//258 135//258
f 19//258 135//258 123//258
f 103//258 98//258 39//258
f 114//258 103//258 39//258
f 19//258 123//258 118//258
f 118//258 114//258 39//258
f 6//259 189//259 185//259
f 18//260 201//260 190//260
f 29//261 213//261 202//261
f 33//262 217//262 213//262
f 38//263 221//263 217//263
f 49//264 233//264 222//264
f 53//265 237//265 233//265
f 57//266 241//266 237//266
f 61//267 245//267 241//267
f 65//268 249//268 245//268
f 69//269 253//269 249//269
f 73//270 257//270 253//270
f 77//271 261//271 257//271
f 81//272 265//272 261//272
f 85//273 269//273 265//273
f 89//274 273//274 269//274
f 93//257 277//257 273//257
f 97//276 281//276 277//276
f 102//277 285//277 281//277
f 113//278 297//278 286//278
f 117//279 301//279 297//279
f 122//280 305//280 301//280
f 134//281 317//281 306//281
f 145//282 329//282 318//282
f 149//266 333//266 329//266
f 153//267 337//267 333//267
f 157//268 341//268 337//268
f 161//269 345//269 341//269
f 165//270 349//270 345//270
f 169//271 353//271 349//271
f 173//272 357//272 353//272
f 177//273 361//273 357//273
f 181//274 366//274 361//274
f 365//283 186//283 191//283
f 203//283 214//283 218//283
f 223//283 234//283 238//283
f 238//283 242//283 246//283
f 246//283 250//283 254//283
f 254//283 258//283 262//283
f 262//283 266//283 270//283
f 270//283 274//283 278//283
f 270//283 278//283 282//283
f 254//283 262//283 270//283
f 238//283 246//283 254//283
f 203//283 218//283 223//283
f 365//283 191//283 203//283
f 358//283 362//283 365//283
f 350//283 354//283 358//283
f 342//283 346//283 350//283
f 334//283 338//283 342//283
f 319//283 330//283 334//283
f 319//283 334//283 342//283
f 342//283 350//283 358//283
f 358//283 365//283 203//283
f 223//283 238//283 254//283
f 254//283 270//283 282//283
f 223//283 254//283 282//283
f 319//283 342//283 358//283
f 319//283 358//283 203//283
f 223//283 282//283 287//283
f 223//283 287//283 298//283
f 307//283 319//283 203//283
f 223//283 298//283 302//283
f 302//283 307//283 203//283
