# Blender 4.5.0
# www.blender.org
mtllib link_top_carry_handle_fold.mtl
o arched_top_carry_handle
v -0.061411 -0.007475 0.000088
v -0.062790 -0.006100 0.000000
v -0.062101 -0.007291 0.000044
v -0.062605 -0.006787 0.000012
v -0.061094 -0.006100 0.023152
v -0.062185 -0.006100 0.020890
v -0.060788 -0.007475 0.021611
v -0.061688 -0.006100 0.022556
v -0.060990 -0.006786 0.022916
v -0.061562 -0.006757 0.022344
v -0.061935 -0.006786 0.020956
v -0.062088 -0.006100 0.021726
v -0.061844 -0.006757 0.021759
v -0.060878 -0.007291 0.022350
v -0.061422 -0.007291 0.021220
v -0.061483 -0.007113 0.021946
v -0.040586 -0.006100 0.040466
v -0.039882 -0.007475 0.039260
v -0.040492 -0.006787 0.040305
v -0.040234 -0.007291 0.039863
v -0.014703 -0.006100 0.050062
v -0.014457 -0.007475 0.048687
v -0.014670 -0.006787 0.049878
v -0.014580 -0.007291 0.049375
v 0.014703 -0.006100 0.050062
v 0.014457 -0.007475 0.048687
v 0.014670 -0.006787 0.049878
v 0.014580 -0.007291 0.049375
v 0.040586 -0.006100 0.040466
v 0.039882 -0.007475 0.039260
v 0.040492 -0.006787 0.040305
v 0.040234 -0.007291 0.039863
v 0.062185 -0.006100 0.020890
v 0.061094 -0.006100 0.023152
v 0.060788 -0.007475 0.021611
v 0.062088 -0.006100 0.021726
v 0.061935 -0.006786 0.020956
v 0.061844 -0.006757 0.021759
v 0.060990 -0.006786 0.022916
v 0.061688 -0.006100 0.022556
v 0.061562 -0.006757 0.022344
v 0.061422 -0.007291 0.021220
v 0.060878 -0.007291 0.022350
v 0.061483 -0.007113 0.021946
v 0.062790 -0.006100 0.000000
v 0.061411 -0.007475 0.000088
v 0.062605 -0.006787 0.000012
v 0.062101 -0.007291 0.000044
v 0.062531 -0.006100 -0.001635
v 0.061207 -0.007475 -0.001204
v 0.062354 -0.006787 -0.001577
v 0.061869 -0.007291 -0.001420
v 0.061780 -0.006100 -0.003109
v 0.060653 -0.007475 -0.002291
v 0.061629 -0.006787 -0.003000
v 0.061216 -0.007291 -0.002700
v 0.060609 -0.006100 -0.004280
v 0.059791 -0.007475 -0.003153
v 0.060500 -0.006787 -0.004129
v 0.060200 -0.007291 -0.003716
v 0.059135 -0.006100 -0.005031
v 0.058704 -0.007475 -0.003707
v 0.059077 -0.006787 -0.004854
v 0.058920 -0.007291 -0.004369
v 0.057500 -0.006100 -0.005290
v 0.057500 -0.007475 -0.003897
v 0.057500 -0.006787 -0.005103
v 0.057500 -0.007291 -0.004594
v 0.055865 -0.006100 -0.005031
v 0.056296 -0.007475 -0.003707
v 0.055923 -0.006787 -0.004854
v 0.056080 -0.007291 -0.004369
v 0.054391 -0.006100 -0.004280
v 0.055209 -0.007475 -0.003153
v 0.054500 -0.006787 -0.004129
v 0.054800 -0.007291 -0.003716
v 0.053220 -0.006100 -0.003109
v 0.054347 -0.007475 -0.002291
v 0.053371 -0.006787 -0.003000
v 0.053784 -0.007291 -0.002700
v 0.052469 -0.006100 -0.001635
v 0.053793 -0.007475 -0.001204
v 0.052646 -0.006787 -0.001577
v 0.053131 -0.007291 -0.001420
v 0.052210 -0.006100 0.000000
v 0.053589 -0.007475 0.000083
v 0.052395 -0.006787 0.000011
v 0.052900 -0.007291 0.000041
v 0.051783 -0.006100 0.018064
v 0.052803 -0.006100 0.015829
v 0.054255 -0.007475 0.017842
v 0.052299 -0.006100 0.017442
v 0.052422 -0.006772 0.017810
v 0.052674 -0.006752 0.017381
v 0.053030 -0.006772 0.016478
v 0.052671 -0.006100 0.016626
v 0.052871 -0.006752 0.016950
v 0.053321 -0.007273 0.017730
v 0.053558 -0.007273 0.017210
v 0.053087 -0.007120 0.017309
v 0.035314 -0.006100 0.031294
v 0.036002 -0.007475 0.032505
v 0.035406 -0.006787 0.031456
v 0.035658 -0.007291 0.031899
v 0.012897 -0.006100 0.039638
v 0.013144 -0.007475 0.041013
v 0.012930 -0.006787 0.039822
v 0.013020 -0.007291 0.040325
v -0.012897 -0.006100 0.039638
v -0.013144 -0.007475 0.041013
v -0.012930 -0.006787 0.039822
v -0.013020 -0.007291 0.040325
v -0.035314 -0.006100 0.031294
v -0.036002 -0.007475 0.032505
v -0.035406 -0.006787 0.031456
v -0.035658 -0.007291 0.031899
v -0.052803 -0.006100 0.015829
v -0.051783 -0.006100 0.018064
v -0.054255 -0.007475 0.017842
v -0.052671 -0.006100 0.016626
v -0.053030 -0.006772 0.016478
v -0.052871 -0.006752 0.016950
v -0.052422 -0.006772 0.017810
v -0.052299 -0.006100 0.017442
v -0.052674 -0.006752 0.017381
v -0.053558 -0.007273 0.017210
v -0.053321 -0.007273 0.017730
v -0.053087 -0.007120 0.017309
v -0.052210 -0.006100 0.000000
v -0.053589 -0.007475 0.000083
v -0.052395 -0.006787 0.000011
v -0.052900 -0.007291 0.000041
v -0.052469 -0.006100 -0.001635
v -0.053793 -0.007475 -0.001204
v -0.052646 -0.006787 -0.001577
v -0.053131 -0.007291 -0.001420
v -0.053220 -0.006100 -0.003109
v -0.054347 -0.007475 -0.002291
v -0.053371 -0.006787 -0.003000
v -0.053784 -0.007291 -0.002700
v -0.054391 -0.006100 -0.004280
v -0.055209 -0.007475 -0.003153
v -0.054500 -0.006787 -0.004129
v -0.054800 -0.007291 -0.003716
v -0.055865 -0.006100 -0.005031
v -0.056296 -0.007475 -0.003707
v -0.055923 -0.006787 -0.004854
v -0.056080 -0.007291 -0.004369
v -0.057500 -0.006100 -0.005290
v -0.057500 -0.007475 -0.003897
v -0.057500 -0.006787 -0.005103
v -0.057500 -0.007291 -0.004594
v -0.059135 -0.006100 -0.005031
v -0.058704 -0.007475 -0.003707
v -0.059077 -0.006787 -0.004854
v -0.058920 -0.007291 -0.004369
v -0.060609 -0.006100 -0.004280
v -0.059791 -0.007475 -0.003153
v -0.060500 -0.006787 -0.004129
v -0.060200 -0.007291 -0.003716
v -0.061780 -0.006100 -0.003109
v -0.060653 -0.007475 -0.002291
v -0.061629 -0.006787 -0.003000
v -0.061216 -0.007291 -0.002700
v -0.062531 -0.006100 -0.001635
v -0.061207 -0.007475 -0.001204
v -0.062354 -0.006787 -0.001577
v -0.061869 -0.007291 -0.001420
v -0.062790 0.006100 0.000000
v -0.061411 0.007475 0.000088
v -0.062605 0.006787 0.000012
v -0.062101 0.007291 0.000044
v -0.062185 0.006100 0.020890
v -0.061094 0.006100 0.023152
v -0.060788 0.007475 0.021611
v -0.062088 0.006100 0.021726
v -0.061935 0.006786 0.020956
v -0.061844 0.006757 0.021759
v -0.060990 0.006786 0.022916
v -0.061688 0.006100 0.022556
v -0.061562 0.006757 0.022344
v -0.061422 0.007291 0.021220
v -0.060878 0.007291 0.022350
v -0.061483 0.007113 0.021946
v -0.040586 0.006100 0.040466
v -0.039882 0.007475 0.039260
v -0.040492 0.006787 0.040305
v -0.040234 0.007291 0.039863
v -0.014703 0.006100 0.050062
v -0.014457 0.007475 0.048687
v -0.014670 0.006787 0.049878
v -0.014580 0.007291 0.049375
v 0.014703 0.006100 0.050062
v 0.014457 0.007475 0.048687
v 0.014670 0.006787 0.049878
v 0.014580 0.007291 0.049375
v 0.040586 0.006100 0.040466
v 0.039882 0.007475 0.039260
v 0.040492 0.006787 0.040305
v 0.040234 0.007291 0.039863
v 0.061094 0.006100 0.023152
v 0.062185 0.006100 0.020890
v 0.060788 0.007475 0.021611
v 0.061688 0.006100 0.022556
v 0.060990 0.006786 0.022916
v 0.061562 0.006757 0.022344
v 0.061935 0.006786 0.020956
v 0.062088 0.006100 0.021726
v 0.061844 0.006757 0.021759
v 0.060878 0.007291 0.022350
v 0.061422 0.007291 0.021220
v 0.061483 0.007113 0.021946
v 0.062790 0.006100 0.000000
v 0.061411 0.007475 0.000088
v 0.062605 0.006787 0.000012
v 0.062101 0.007291 0.000044
v 0.062531 0.006100 -0.001635
v 0.061207 0.007475 -0.001204
v 0.062354 0.006787 -0.001577
v 0.061869 0.007291 -0.001420
v 0.061780 0.006100 -0.003109
v 0.060653 0.007475 -0.002291
v 0.061629 0.006787 -0.003000
v 0.061216 0.007291 -0.002700
v 0.060609 0.006100 -0.004280
v 0.059791 0.007475 -0.003153
v 0.060500 0.006787 -0.004129
v 0.060200 0.007291 -0.003716
v 0.059135 0.006100 -0.005031
v 0.058704 0.007475 -0.003707
v 0.059077 0.006787 -0.004854
v 0.058920 0.007291 -0.004369
v 0.057500 0.006100 -0.005290
v 0.057500 0.007475 -0.003897
v 0.057500 0.006787 -0.005103
v 0.057500 0.007291 -0.004594
v 0.055865 0.006100 -0.005031
v 0.056296 0.007475 -0.003707
v 0.055923 0.006787 -0.004854
v 0.056080 0.007291 -0.004369
v 0.054391 0.006100 -0.004280
v 0.055209 0.007475 -0.003153
v 0.054500 0.006787 -0.004129
v 0.054800 0.007291 -0.003716
v 0.053220 0.006100 -0.003109
v 0.054347 0.007475 -0.002291
v 0.053371 0.006787 -0.003000
v 0.053784 0.007291 -0.002700
v 0.052469 0.006100 -0.001635
v 0.053793 0.007475 -0.001204
v 0.052646 0.006787 -0.001577
v 0.053131 0.007291 -0.001420
v 0.052210 0.006100 0.000000
v 0.053589 0.007475 0.000083
v 0.052395 0.006787 0.000011
v 0.052900 0.007291 0.000041
v 0.052803 0.006100 0.015829
v 0.051783 0.006100 0.018064
v 0.054255 0.007475 0.017842
v 0.052671 0.006100 0.016626
v 0.053030 0.006772 0.016478
v 0.052871 0.006752 0.016950
v 0.052422 0.006772 0.017810
v 0.052299 0.006100 0.017442
v 0.052674 0.006752 0.017381
v 0.053558 0.007273 0.017210
v 0.053321 0.007273 0.017730
v 0.053087 0.007120 0.017309
v 0.035314 0.006100 0.031294
v 0.036002 0.007475 0.032505
v 0.035406 0.006787 0.031456
v 0.035658 0.007291 0.031899
v 0.012897 0.006100 0.039638
v 0.013144 0.007475 0.041013
v 0.012930 0.006787 0.039822
v 0.013020 0.007291 0.040325
v -0.012897 0.006100 0.039638
v -0.013144 0.007475 0.041013
v -0.012930 0.006787 0.039822
v -0.013020 0.007291 0.040325
v -0.035314 0.006100 0.031294
v -0.036002 0.007475 0.032505
v -0.035406 0.006787 0.031456
v -0.035658 0.007291 0.031899
v -0.051783 0.006100 0.018064
v -0.052803 0.006100 0.015829
v -0.054255 0.007475 0.017842
v -0.052299 0.006100 0.017442
v -0.052422 0.006772 0.017810
v -0.052674 0.006752 0.017381
v -0.053030 0.006772 0.016478
v -0.052671 0.006100 0.016626
v -0.052871 0.006752 0.016950
v -0.053321 0.007273 0.017730
v -0.053558 0.007273 0.017210
v -0.053087 0.007120 0.017309
v -0.052210 0.006100 0.000000
v -0.053589 0.007475 0.000083
v -0.052395 0.006787 0.000011
v -0.052900 0.007291 0.000041
v -0.052469 0.006100 -0.001635
v -0.053793 0.007475 -0.001204
v -0.052646 0.006787 -0.001577
v -0.053131 0.007291 -0.001420
v -0.053220 0.006100 -0.003109
v -0.054347 0.007475 -0.002291
v -0.053371 0.006787 -0.003000
v -0.053784 0.007291 -0.002700
v -0.054391 0.006100 -0.004280
v -0.055209 0.007475 -0.003153
v -0.054500 0.006787 -0.004129
v -0.054800 0.007291 -0.003716
v -0.055865 0.006100 -0.005031
v -0.056296 0.007475 -0.003707
v -0.055923 0.006787 -0.004854
v -0.056080 0.007291 -0.004369
v -0.057500 0.006100 -0.005290
v -0.057500 0.007475 -0.003897
v -0.057500 0.006787 -0.005103
v -0.057500 0.007291 -0.004594
v -0.059135 0.006100 -0.005031
v -0.058704 0.007475 -0.003707
v -0.059077 0.006787 -0.004854
v -0.058920 0.007291 -0.004369
v -0.060609 0.006100 -0.004280
v -0.059791 0.007475 -0.003153
v -0.060500 0.006787 -0.004129
v -0.060200 0.007291 -0.003716
v -0.061780 0.006100 -0.003109
v -0.060653 0.007475 -0.002291
v -0.061629 0.006787 -0.003000
v -0.061216 0.007291 -0.002700
v -0.061207 0.007475 -0.001204
v -0.062531 0.006100 -0.001635
v -0.061869 0.007291 -0.001420
v -0.062354 0.006787 -0.001577
vn -0.6689 -0.3307 0.6658
vn -0.8598 -0.2982 0.4146
vn -0.9375 -0.3306 0.1089
vn -0.7251 -0.6802 0.1072
vn -0.3798 -0.9051 0.1912
vn -0.5355 -0.6802 0.5006
vn -0.7424 -0.5664 0.3579
vn 0.9375 -0.3306 0.1089
vn 0.8598 -0.2982 0.4146
vn 0.6689 -0.3307 0.6658
vn 0.5353 -0.6803 0.5006
vn 0.3862 -0.9050 0.1782
vn 0.7250 -0.6803 0.1072
vn 0.7424 -0.5664 0.3579
vn -0.6910 -0.4406 -0.5731
vn -0.8187 -0.4359 -0.3738
vn -0.8856 -0.4406 -0.1468
vn -0.5589 -0.8149 -0.1536
vn -0.2004 -0.9754 -0.0915
vn -0.6538 -0.7511 0.0921
vn -0.6633 -0.6843 -0.3028
vn 0.8856 -0.4406 -0.1468
vn 0.8187 -0.4359 -0.3738
vn 0.6910 -0.4406 -0.5731
vn 0.4822 -0.8148 -0.3218
vn 0.2004 -0.9754 -0.0915
vn 0.3586 -0.7511 -0.5543
vn 0.6633 -0.6844 -0.3028
vn -0.9375 0.3306 0.1089
vn -0.8598 0.2982 0.4146
vn -0.6690 0.3306 0.6657
vn -0.5354 0.6803 0.5006
vn -0.3862 0.9051 0.1782
vn -0.7251 0.6802 0.1072
vn -0.7424 0.5664 0.3579
vn 0.6690 0.3306 0.6657
vn 0.8598 0.2982 0.4146
vn 0.9375 0.3306 0.1089
vn 0.7251 0.6803 0.1072
vn 0.3799 0.9051 0.1912
vn 0.5354 0.6803 0.5006
vn 0.7424 0.5664 0.3579
vn -0.8856 0.4406 -0.1468
vn -0.8187 0.4359 -0.3738
vn -0.6911 0.4405 -0.5730
vn -0.4822 0.8148 -0.3217
vn -0.2004 0.9754 -0.0915
vn -0.3584 0.7511 -0.5544
vn -0.6632 0.6844 -0.3029
vn 0.6910 0.4404 -0.5731
vn 0.8188 0.4358 -0.3737
vn 0.8856 0.4406 -0.1468
vn 0.5589 0.8149 -0.1536
vn 0.2004 0.9754 -0.0915
vn 0.6536 0.7512 0.0922
vn 0.6633 0.6844 -0.3028
vn -0.9540 -0.2588 -0.1511
vn -0.6984 -0.7071 -0.1106
vn -0.2556 -0.9659 -0.0405
vn -0.2306 -0.9659 -0.1175
vn -0.6300 -0.7071 -0.3210
vn -0.8607 -0.2588 -0.4385
vn -0.1830 -0.9659 -0.1830
vn -0.5000 -0.7071 -0.5000
vn -0.6830 -0.2588 -0.6830
vn -0.1175 -0.9659 -0.2306
vn -0.3210 -0.7071 -0.6301
vn -0.4385 -0.2589 -0.8606
vn -0.0405 -0.9659 -0.2556
vn -0.1107 -0.7071 -0.6984
vn -0.1512 -0.2589 -0.9540
vn 0.0405 -0.9659 -0.2556
vn 0.1106 -0.7071 -0.6984
vn 0.1510 -0.2589 -0.9540
vn 0.1175 -0.9659 -0.2306
vn 0.3210 -0.7071 -0.6301
vn 0.4385 -0.2588 -0.8606
vn 0.1830 -0.9659 -0.1830
vn 0.5000 -0.7071 -0.5000
vn 0.6830 -0.2589 -0.6830
vn 0.2306 -0.9659 -0.1175
vn 0.6300 -0.7071 -0.3210
vn 0.8607 -0.2588 -0.4385
vn 0.2556 -0.9659 -0.0405
vn 0.6984 -0.7071 -0.1106
vn 0.9540 -0.2588 -0.1511
vn 0.2880 -0.9576 0.0108
vn 0.7076 -0.7061 0.0279
vn 0.9572 -0.2870 0.0372
vn 0.1613 -0.9660 -0.2023
vn 0.4419 -0.7072 -0.5519
vn 0.6049 -0.2587 -0.7531
vn 0.0903 -0.9659 -0.2426
vn 0.2467 -0.7071 -0.6627
vn 0.3370 -0.2589 -0.9052
vn -0.0000 -0.9659 -0.2588
vn -0.0000 -0.7071 -0.7071
vn -0.0000 -0.2589 -0.9659
vn -0.0903 -0.9659 -0.2426
vn -0.2467 -0.7071 -0.6627
vn -0.3370 -0.2587 -0.9053
vn -0.1805 -0.9576 -0.2247
vn -0.4425 -0.7063 -0.5525
vn -0.5991 -0.2873 -0.7474
vn -0.2587 -0.9659 0.0109
vn -0.7066 -0.7070 0.0279
vn -0.9652 -0.2588 0.0362
vn -0.2557 -0.9659 -0.0405
vn -0.9540 -0.2589 -0.1511
vn -0.8606 -0.2589 -0.4385
vn 0.0405 -0.9659 -0.2557
vn 0.1107 -0.7071 -0.6984
vn 0.1831 -0.9659 -0.1830
vn 0.2829 -0.9591 0.0082
vn 0.7073 -0.7065 0.0226
vn 0.9402 -0.3392 0.0301
vn 0.1675 -0.9659 0.1974
vn 0.4575 -0.7070 0.5393
vn 0.6231 -0.2588 0.7381
vn 0.0900 -0.9659 0.2427
vn 0.2458 -0.7071 0.6630
vn 0.3358 -0.2589 0.9057
vn -0.0000 -0.9659 0.2588
vn -0.0000 -0.7071 0.7071
vn -0.0000 -0.2589 0.9659
vn -0.0900 -0.9659 0.2427
vn -0.2458 -0.7071 0.6630
vn -0.3358 -0.2588 0.9057
vn -0.1826 -0.9591 0.2163
vn -0.4577 -0.7067 0.5396
vn -0.6085 -0.3393 0.7173
vn -0.2588 -0.9659 0.0083
vn -0.7068 -0.7070 0.0226
vn -0.9655 -0.2588 0.0280
vn -0.2556 0.9659 -0.0405
vn -0.6984 0.7071 -0.1106
vn -0.9540 0.2588 -0.1511
vn -0.9655 0.2588 0.0280
vn -0.7069 0.7070 0.0226
vn -0.2588 0.9659 0.0083
vn -0.6085 0.3393 0.7173
vn -0.4577 0.7067 0.5396
vn -0.1826 0.9591 0.2163
vn -0.3358 0.2588 0.9057
vn -0.2458 0.7071 0.6630
vn -0.0900 0.9659 0.2427
vn -0.0000 0.2589 0.9659
vn -0.0000 0.7071 0.7071
vn -0.0000 0.9659 0.2588
vn 0.3358 0.2589 0.9057
vn 0.2458 0.7071 0.6630
vn 0.0900 0.9659 0.2427
vn 0.6231 0.2588 0.7381
vn 0.4575 0.7070 0.5393
vn 0.1675 0.9659 0.1974
vn 0.9402 0.3392 0.0301
vn 0.7073 0.7065 0.0226
vn 0.2829 0.9591 0.0082
vn 0.9540 0.2588 -0.1511
vn 0.6984 0.7071 -0.1106
vn 0.2556 0.9659 -0.0405
vn 0.8607 0.2588 -0.4385
vn 0.6300 0.7071 -0.3210
vn 0.2306 0.9659 -0.1175
vn 0.6830 0.2589 -0.6830
vn 0.5000 0.7071 -0.5000
vn 0.1830 0.9659 -0.1830
vn 0.4385 0.2588 -0.8606
vn 0.3210 0.7071 -0.6301
vn 0.1175 0.9659 -0.2306
vn 0.1511 0.2589 -0.9540
vn 0.1107 0.7071 -0.6984
vn 0.0405 0.9659 -0.2556
vn -0.1512 0.2589 -0.9540
vn -0.1107 0.7071 -0.6984
vn -0.0405 0.9659 -0.2556
vn -0.4385 0.2589 -0.8606
vn -0.3210 0.7071 -0.6301
vn -0.1175 0.9659 -0.2306
vn -0.6830 0.2588 -0.6830
vn -0.5000 0.7071 -0.5000
vn -0.1830 0.9659 -0.1830
vn -0.8606 0.2589 -0.4385
vn -0.6300 0.7071 -0.3210
vn -0.2306 0.9659 -0.1175
vn -0.9540 0.2589 -0.1511
vn -0.2557 0.9659 -0.0405
vn -0.9652 0.2588 0.0362
vn -0.7066 0.7070 0.0279
vn -0.2587 0.9659 0.0109
vn -0.5991 0.2874 -0.7474
vn -0.4425 0.7063 -0.5525
vn -0.1805 0.9576 -0.2247
vn -0.3370 0.2587 -0.9053
vn -0.2467 0.7071 -0.6627
vn -0.0903 0.9659 -0.2425
vn -0.0000 0.2589 -0.9659
vn -0.0000 0.7071 -0.7071
vn -0.0000 0.9659 -0.2588
vn 0.3370 0.2589 -0.9052
vn 0.2467 0.7071 -0.6627
vn 0.0903 0.9659 -0.2426
vn 0.6049 0.2587 -0.7531
vn 0.4419 0.7072 -0.5519
vn 0.1613 0.9660 -0.2022
vn 0.9572 0.2870 0.0372
vn 0.7076 0.7061 0.0279
vn 0.2880 0.9576 0.0108
vn 0.1512 0.2589 -0.9540
vn -0.1510 0.2589 -0.9540
vn -0.1106 0.7071 -0.6984
vn -0.4384 0.2589 -0.8607
vn -0.8607 0.2588 -0.4385
vn -0.7088 -0.0000 0.7054
vn -0.9007 -0.0000 0.4343
vn -0.9933 -0.0000 0.1154
vn 0.9933 -0.0000 0.1154
vn 0.9007 -0.0000 0.4343
vn 0.7088 -0.0000 0.7054
vn -0.7697 -0.0000 -0.6384
vn -0.9097 -0.0000 -0.4153
vn -0.9865 -0.0000 -0.1635
vn 0.9865 -0.0000 -0.1636
vn 0.9097 -0.0000 -0.4153
vn 0.7697 -0.0000 -0.6384
vn -0.9877 -0.0000 -0.1564
vn -0.0000 -1.0000 -0.0000
vn -0.9996 -0.0000 0.0289
vn -0.6451 -0.0000 0.7641
vn -0.3476 -0.0000 0.9376
vn -0.0000 -0.0000 1.0000
vn 0.3476 -0.0000 0.9376
vn 0.6451 -0.0000 0.7641
vn 0.9996 -0.0000 0.0289
vn 0.9877 -0.0000 -0.1564
vn 0.8910 -0.0000 -0.4540
vn 0.7071 -0.0000 -0.7071
vn 0.4540 -0.0000 -0.8910
vn 0.1565 -0.0000 -0.9877
vn -0.1564 -0.0000 -0.9877
vn -0.4540 -0.0000 -0.8910
vn -0.7072 -0.0000 -0.7071
vn -0.8910 -0.0000 -0.4540
vn -0.9993 -0.0000 0.0375
vn -0.6263 -0.0000 -0.7796
vn -0.3488 -0.0000 -0.9372
vn -0.0000 -0.0000 -1.0000
vn 0.3488 -0.0000 -0.9372
vn 0.6263 -0.0000 -0.7796
vn 0.9993 -0.0000 0.0375
vn -0.0000 1.0000 -0.0000
vn -0.6737 -0.3404 0.6559
vn -0.9327 -0.3405 0.1186
vn -0.7250 -0.6803 0.1072
vn -0.3862 -0.9050 0.1782
vn -0.5353 -0.6803 0.5006
vn 0.9327 -0.3405 0.1186
vn 0.6737 -0.3404 0.6559
vn 0.5355 -0.6802 0.5006
vn 0.3798 -0.9051 0.1912
vn 0.7251 -0.6802 0.1072
vn -0.7805 -0.4042 -0.4769
vn -0.8716 -0.4043 -0.2773
vn -0.3586 -0.7511 -0.5543
vn -0.3328 -0.9307 -0.1520
vn -0.4823 -0.8148 -0.3217
vn 0.8715 -0.4044 -0.2774
vn 0.7805 -0.4042 -0.4769
vn 0.6538 -0.7510 0.0921
vn 0.3329 -0.9307 -0.1520
vn 0.5589 -0.8149 -0.1536
vn -0.9328 0.3404 0.1186
vn -0.6736 0.3405 0.6560
vn -0.3799 0.9051 0.1912
vn -0.7251 0.6803 0.1072
vn 0.6736 0.3405 0.6560
vn 0.9327 0.3405 0.1186
vn 0.3862 0.9051 0.1782
vn -0.8716 0.4043 -0.2773
vn -0.8186 0.4360 -0.3738
vn -0.7805 0.4042 -0.4769
vn -0.6537 0.7511 0.0921
vn -0.3329 0.9307 -0.1520
vn -0.5590 0.8148 -0.1536
vn 0.7804 0.4042 -0.4771
vn 0.8187 0.4359 -0.3738
vn 0.8716 0.4042 -0.2773
vn 0.3584 0.7511 -0.5544
vn 0.3328 0.9307 -0.1520
vn 0.4823 0.8148 -0.3217
vn -0.8606 -0.2588 -0.4385
vn -0.1831 -0.9659 -0.1830
vn -0.6830 -0.2589 -0.6830
vn -0.4384 -0.2588 -0.8607
vn -0.0405 -0.9659 -0.2557
vn -0.1106 -0.7071 -0.6984
vn -0.1510 -0.2589 -0.9540
vn 0.1512 -0.2589 -0.9540
vn 0.4384 -0.2589 -0.8607
vn 0.6830 -0.2588 -0.6830
vn 0.8606 -0.2589 -0.4385
vn 0.2557 -0.9659 -0.0405
vn 0.2587 -0.9659 0.0109
vn 0.7066 -0.7070 0.0279
vn 0.9652 -0.2588 0.0362
vn 0.1805 -0.9576 -0.2247
vn 0.4425 -0.7063 -0.5525
vn 0.5991 -0.2873 -0.7474
vn 0.3370 -0.2587 -0.9053
vn -0.3370 -0.2589 -0.9052
vn -0.1613 -0.9660 -0.2023
vn -0.4419 -0.7072 -0.5519
vn -0.6049 -0.2587 -0.7531
vn -0.2880 -0.9576 0.0108
vn -0.7076 -0.7061 0.0279
vn -0.9572 -0.2870 0.0372
vn -0.3210 -0.7071 -0.6300
vn 0.2588 -0.9659 0.0083
vn 0.7069 -0.7070 0.0226
vn 0.9655 -0.2588 0.0280
vn 0.1826 -0.9591 0.2163
vn 0.4577 -0.7067 0.5396
vn 0.6085 -0.3393 0.7173
vn 0.3358 -0.2588 0.9057
vn -0.3358 -0.2589 0.9057
vn -0.1675 -0.9659 0.1974
vn -0.4575 -0.7069 0.5393
vn -0.6231 -0.2588 0.7381
vn -0.2829 -0.9591 0.0082
vn -0.7073 -0.7065 0.0226
vn -0.9402 -0.3392 0.0301
vn -0.9402 0.3392 0.0301
vn -0.7073 0.7065 0.0226
vn -0.2829 0.9591 0.0082
vn -0.6231 0.2588 0.7381
vn -0.4575 0.7070 0.5393
vn -0.1675 0.9659 0.1974
vn -0.3358 0.2589 0.9057
vn 0.3358 0.2588 0.9057
vn 0.6085 0.3392 0.7173
vn 0.4577 0.7067 0.5396
vn 0.1826 0.9591 0.2163
vn 0.9655 0.2588 0.0280
vn 0.7068 0.7070 0.0226
vn 0.2588 0.9659 0.0083
vn 0.8606 0.2589 -0.4385
vn 0.6830 0.2588 -0.6830
vn 0.4384 0.2589 -0.8607
vn 0.1106 0.7071 -0.6984
vn -0.0405 0.9659 -0.2557
vn -0.4384 0.2588 -0.8607
vn -0.6830 0.2589 -0.6830
vn -0.9572 0.2870 0.0372
vn -0.7076 0.7061 0.0279
vn -0.2880 0.9576 0.0108
vn -0.6049 0.2587 -0.7531
vn -0.4419 0.7072 -0.5519
vn -0.1613 0.9660 -0.2023
vn -0.3370 0.2589 -0.9052
vn -0.0903 0.9659 -0.2426
vn 0.3370 0.2587 -0.9053
vn 0.0903 0.9659 -0.2425
vn 0.5991 0.2873 -0.7474
vn 0.4425 0.7063 -0.5525
vn 0.1805 0.9576 -0.2247
vn 0.9652 0.2588 0.0362
vn 0.7066 0.7070 0.0279
vn 0.2587 0.9659 0.0109
vn 0.9540 0.2589 -0.1511
vn 0.2557 0.9659 -0.0405
vn -0.4385 0.2588 -0.8606
vn -0.8606 0.2588 -0.4385
vn -0.7089 -0.0000 0.7053
vn 0.7089 -0.0000 0.7053
vn -0.7698 -0.0000 -0.6383
vn -0.9865 -0.0000 -0.1636
vn 0.9865 -0.0000 -0.1635
vn 0.9097 -0.0000 -0.4152
vn 0.7072 -0.0000 -0.7071
vn 0.1564 -0.0000 -0.9877
vn -0.1565 -0.0000 -0.9877
vn -0.7071 -0.0000 -0.7071
s 0
usemtl gray_handle_polymer
f 8//1 9//1 5//1
f 12//2 10//2 8//2
f 11//3 12//3 6//3
f 15//4 13//4 11//4
f 7//5 16//5 15//5
f 14//6 10//6 16//6
f 10//7 13//7 16//7
f 36//8 37//8 33//8
f 36//9 41//9 38//9
f 39//10 40//10 34//10
f 43//11 41//11 39//11
f 35//12 44//12 43//12
f 42//13 38//13 44//13
f 38//14 41//14 44//14
f 92//15 93//15 89//15
f 92//16 97//16 94//16
f 95//17 96//17 90//17
f 99//18 97//18 95//18
f 98//19 99//19 91//19
f 98//20 94//20 100//20
f 94//21 97//21 100//21
f 120//22 121//22 117//22
f 124//23 122//23 120//23
f 123//24 124//24 118//24
f 127//25 125//25 123//25
f 126//26 127//26 119//26
f 126//27 122//27 128//27
f 122//28 125//28 128//28
f 176//29 177//29 173//29
f 180//30 178//30 176//30
f 179//31 180//31 174//31
f 183//32 181//32 179//32
f 175//33 184//33 183//33
f 182//34 178//34 184//34
f 178//35 181//35 184//35
f 204//36 205//36 201//36
f 208//37 206//37 204//37
f 207//38 208//38 202//38
f 211//39 209//39 207//39
f 203//40 212//40 211//40
f 210//41 206//41 212//41
f 206//42 209//42 212//42
f 260//43 261//43 257//43
f 264//44 262//44 260//44
f 263//45 264//45 258//45
f 267//46 265//46 263//46
f 266//47 267//47 259//47
f 266//48 262//48 268//48
f 262//49 265//49 268//49
f 288//50 289//50 285//50
f 292//51 290//51 288//51
f 291//52 292//52 286//52
f 295//53 293//53 291//53
f 294//54 295//54 287//54
f 294//55 290//55 296//55
f 290//56 293//56 296//56
f 2//57 167//57 4//57
f 4//58 168//58 3//58
f 3//59 166//59 1//59
f 162//60 168//60 164//60
f 164//61 167//61 163//61
f 163//62 165//62 161//62
f 162//63 160//63 158//63
f 164//64 159//64 160//64
f 163//65 157//65 159//65
f 158//66 156//66 154//66
f 160//67 155//67 156//67
f 155//68 157//68 153//68
f 150//69 156//69 152//69
f 152//70 155//70 151//70
f 151//71 153//71 149//71
f 150//72 148//72 146//72
f 152//73 147//73 148//73
f 151//74 145//74 147//74
f 142//75 148//75 144//75
f 144//76 147//76 143//76
f 143//77 145//77 141//77
f 142//78 140//78 138//78
f 144//79 139//79 140//79
f 139//80 141//80 137//80
f 134//81 140//81 136//81
f 140//82 135//82 136//82
f 135//83 137//83 133//83
f 134//84 132//84 130//84
f 136//85 131//85 132//85
f 135//86 129//86 131//86
f 130//87 126//87 119//87
f 132//88 121//88 126//88
f 131//89 117//89 121//89
f 114//90 127//90 116//90
f 116//91 123//91 115//91
f 115//92 118//92 113//92
f 114//93 112//93 110//93
f 116//94 111//94 112//94
f 115//95 109//95 111//95
f 110//96 108//96 106//96
f 112//97 107//97 108//97
f 111//98 105//98 107//98
f 102//99 108//99 104//99
f 104//100 107//100 103//100
f 103//101 105//101 101//101
f 102//102 98//102 91//102
f 104//103 93//103 98//103
f 103//104 89//104 93//104
f 86//105 99//105 88//105
f 88//106 95//106 87//106
f 87//107 90//107 85//107
f 82//108 88//108 84//108
f 84//58 87//58 83//58
f 83//109 85//109 81//109
f 82//60 80//60 78//60
f 84//61 79//61 80//61
f 83//110 77//110 79//110
f 78//63 76//63 74//63
f 80//64 75//64 76//64
f 75//65 77//65 73//65
f 74//66 72//66 70//66
f 76//67 71//67 72//67
f 71//68 73//68 69//68
f 70//69 68//69 66//69
f 68//70 71//70 67//70
f 67//71 69//71 65//71
f 62//111 68//111 64//111
f 64//112 67//112 63//112
f 67//74 61//74 63//74
f 58//75 64//75 60//75
f 60//76 63//76 59//76
f 59//77 61//77 57//77
f 54//113 60//113 56//113
f 60//79 55//79 56//79
f 55//80 57//80 53//80
f 50//81 56//81 52//81
f 56//82 51//82 52//82
f 51//83 53//83 49//83
f 50//84 48//84 46//84
f 52//85 47//85 48//85
f 51//86 45//86 47//86
f 46//114 42//114 35//114
f 48//115 37//115 42//115
f 47//116 33//116 37//116
f 30//117 43//117 32//117
f 32//118 39//118 31//118
f 31//119 34//119 29//119
f 26//120 32//120 28//120
f 28//121 31//121 27//121
f 27//122 29//122 25//122
f 26//123 24//123 22//123
f 28//124 23//124 24//124
f 27//125 21//125 23//125
f 22//126 20//126 18//126
f 24//127 19//127 20//127
f 23//128 17//128 19//128
f 18//129 14//129 7//129
f 20//130 9//130 14//130
f 19//131 5//131 9//131
f 1//132 15//132 3//132
f 3//133 11//133 4//133
f 4//134 6//134 2//134
f 333//135 172//135 170//135
f 335//136 171//136 172//136
f 336//137 169//137 171//137
f 173//138 171//138 169//138
f 177//139 172//139 171//139
f 182//140 170//140 172//140
f 174//141 187//141 179//141
f 179//142 188//142 183//142
f 183//143 186//143 175//143
f 185//144 191//144 187//144
f 187//145 192//145 188//145
f 188//146 190//146 186//146
f 193//147 191//147 189//147
f 195//148 192//148 191//148
f 196//149 190//149 192//149
f 197//150 195//150 193//150
f 199//151 196//151 195//151
f 200//152 194//152 196//152
f 201//153 199//153 197//153
f 205//154 200//154 199//154
f 210//155 198//155 200//155
f 202//156 215//156 207//156
f 207//157 216//157 211//157
f 211//158 214//158 203//158
f 213//159 219//159 215//159
f 215//160 220//160 216//160
f 216//161 218//161 214//161
f 221//162 219//162 217//162
f 223//163 220//163 219//163
f 224//164 218//164 220//164
f 225//165 223//165 221//165
f 223//166 228//166 224//166
f 228//167 222//167 224//167
f 229//168 227//168 225//168
f 231//169 228//169 227//169
f 232//170 226//170 228//170
f 229//171 235//171 231//171
f 235//172 232//172 231//172
f 236//173 230//173 232//173
f 237//174 235//174 233//174
f 239//175 236//175 235//175
f 236//176 238//176 234//176
f 241//177 239//177 237//177
f 239//178 244//178 240//178
f 240//179 242//179 238//179
f 241//180 247//180 243//180
f 247//181 244//181 243//181
f 248//182 242//182 244//182
f 245//183 251//183 247//183
f 251//184 248//184 247//184
f 248//185 250//185 246//185
f 253//186 251//186 249//186
f 255//136 252//136 251//136
f 256//187 250//187 252//187
f 257//188 255//188 253//188
f 261//189 256//189 255//189
f 266//190 254//190 256//190
f 258//191 271//191 263//191
f 263//192 272//192 267//192
f 267//193 270//193 259//193
f 273//194 271//194 269//194
f 275//195 272//195 271//195
f 276//196 270//196 272//196
f 273//197 279//197 275//197
f 279//198 276//198 275//198
f 280//199 274//199 276//199
f 277//200 283//200 279//200
f 279//201 284//201 280//201
f 280//202 282//202 278//202
f 285//203 283//203 281//203
f 289//204 284//204 283//204
f 294//205 282//205 284//205
f 286//206 299//206 291//206
f 291//207 300//207 295//207
f 295//208 298//208 287//208
f 297//159 303//159 299//159
f 299//160 304//160 300//160
f 300//161 302//161 298//161
f 305//162 303//162 301//162
f 307//163 304//163 303//163
f 308//164 302//164 304//164
f 309//165 307//165 305//165
f 307//166 312//166 308//166
f 312//167 306//167 308//167
f 313//168 311//168 309//168
f 315//169 312//169 311//169
f 316//170 310//170 312//170
f 317//209 315//209 313//209
f 319//172 316//172 315//172
f 320//173 314//173 316//173
f 317//210 323//210 319//210
f 319//211 324//211 320//211
f 320//176 322//176 318//176
f 321//212 327//212 323//212
f 323//178 328//178 324//178
f 324//179 326//179 322//179
f 325//180 331//180 327//180
f 331//181 328//181 327//181
f 328//182 330//182 326//182
f 334//213 331//213 329//213
f 336//184 332//184 331//184
f 332//185 333//185 330//185
f 174//214 8//214 5//214
f 180//215 12//215 8//215
f 12//216 173//216 6//216
f 202//217 36//217 33//217
f 208//218 40//218 36//218
f 40//219 201//219 34//219
f 258//220 92//220 89//220
f 264//221 96//221 92//221
f 260//222 90//222 96//222
f 286//223 120//223 117//223
f 292//224 124//224 120//224
f 288//225 118//225 124//225
f 2//226 334//226 165//226
f 106//227 30//227 22//227
f 6//228 169//228 2//228
f 17//229 174//229 5//229
f 21//230 185//230 17//230
f 25//231 189//231 21//231
f 29//232 193//232 25//232
f 29//233 201//233 197//233
f 45//234 202//234 33//234
f 49//235 213//235 45//235
f 53//236 217//236 49//236
f 57//237 221//237 53//237
f 61//238 225//238 57//238
f 65//239 229//239 61//239
f 69//240 233//240 65//240
f 73//241 237//241 69//241
f 77//242 241//242 73//242
f 81//243 245//243 77//243
f 85//226 249//226 81//226
f 90//244 253//244 85//244
f 101//245 258//245 89//245
f 105//246 269//246 101//246
f 109//247 273//247 105//247
f 113//248 277//248 109//248
f 118//249 281//249 113//249
f 129//250 286//250 117//250
f 133//235 297//235 129//235
f 137//236 301//236 133//236
f 141//237 305//237 137//237
f 145//238 309//238 141//238
f 149//239 313//239 145//239
f 153//240 317//240 149//240
f 157//241 321//241 153//241
f 161//242 325//242 157//242
f 165//243 329//243 161//243
f 190//251 274//251 278//251
f 8//252 10//252 9//252
f 12//2 13//2 10//2
f 11//253 13//253 12//253
f 15//254 16//254 13//254
f 7//255 14//255 16//255
f 14//256 9//256 10//256
f 36//257 38//257 37//257
f 36//9 40//9 41//9
f 39//258 41//258 40//258
f 43//259 44//259 41//259
f 35//260 42//260 44//260
f 42//261 37//261 38//261
f 92//262 94//262 93//262
f 92//16 96//16 97//16
f 95//263 97//263 96//263
f 99//264 100//264 97//264
f 98//265 100//265 99//265
f 98//266 93//266 94//266
f 120//267 122//267 121//267
f 124//23 125//23 122//23
f 123//268 125//268 124//268
f 127//269 128//269 125//269
f 126//270 128//270 127//270
f 126//271 121//271 122//271
f 176//272 178//272 177//272
f 180//30 181//30 178//30
f 179//273 181//273 180//273
f 183//32 184//32 181//32
f 175//274 182//274 184//274
f 182//275 177//275 178//275
f 204//276 206//276 205//276
f 208//37 209//37 206//37
f 207//277 209//277 208//277
f 211//39 212//39 209//39
f 203//278 210//278 212//278
f 210//41 205//41 206//41
f 260//279 262//279 261//279
f 264//280 265//280 262//280
f 263//281 265//281 264//281
f 267//282 268//282 265//282
f 266//283 268//283 267//283
f 266//284 261//284 262//284
f 288//285 290//285 289//285
f 292//286 293//286 290//286
f 291//287 293//287 292//287
f 295//288 296//288 293//288
f 294//289 296//289 295//289
f 294//290 289//290 290//290
f 2//57 165//57 167//57
f 4//58 167//58 168//58
f 3//59 168//59 166//59
f 162//60 166//60 168//60
f 164//61 168//61 167//61
f 163//291 167//291 165//291
f 162//292 164//292 160//292
f 164//64 163//64 159//64
f 163//293 161//293 157//293
f 158//66 160//66 156//66
f 160//67 159//67 155//67
f 155//294 159//294 157//294
f 150//295 154//295 156//295
f 152//296 156//296 155//296
f 151//297 155//297 153//297
f 150//72 152//72 148//72
f 152//112 151//112 147//112
f 151//298 149//298 145//298
f 142//75 146//75 148//75
f 144//76 148//76 147//76
f 143//299 147//299 145//299
f 142//78 144//78 140//78
f 144//79 143//79 139//79
f 139//300 143//300 141//300
f 134//81 138//81 140//81
f 140//82 139//82 135//82
f 135//301 139//301 137//301
f 134//302 136//302 132//302
f 136//85 135//85 131//85
f 135//86 133//86 129//86
f 130//303 132//303 126//303
f 132//304 131//304 121//304
f 131//305 129//305 117//305
f 114//306 119//306 127//306
f 116//307 127//307 123//307
f 115//308 123//308 118//308
f 114//93 116//93 112//93
f 116//94 115//94 111//94
f 115//309 113//309 109//309
f 110//96 112//96 108//96
f 112//97 111//97 107//97
f 111//98 109//98 105//98
f 102//99 106//99 108//99
f 104//100 108//100 107//100
f 103//310 107//310 105//310
f 102//311 104//311 98//311
f 104//312 103//312 93//312
f 103//313 101//313 89//313
f 86//314 91//314 99//314
f 88//315 99//315 95//315
f 87//316 95//316 90//316
f 82//59 86//59 88//59
f 84//58 88//58 87//58
f 83//57 87//57 85//57
f 82//60 84//60 80//60
f 84//61 83//61 79//61
f 83//62 81//62 77//62
f 78//292 80//292 76//292
f 80//64 79//64 75//64
f 75//293 79//293 77//293
f 74//66 76//66 72//66
f 76//317 75//317 71//317
f 71//294 75//294 73//294
f 70//295 72//295 68//295
f 68//296 72//296 71//296
f 67//297 71//297 69//297
f 62//72 66//72 68//72
f 64//73 68//73 67//73
f 67//298 65//298 61//298
f 58//75 62//75 64//75
f 60//76 64//76 63//76
f 59//299 63//299 61//299
f 54//78 58//78 60//78
f 60//79 59//79 55//79
f 55//300 59//300 57//300
f 50//81 54//81 56//81
f 56//82 55//82 51//82
f 51//301 55//301 53//301
f 50//302 52//302 48//302
f 52//85 51//85 47//85
f 51//86 49//86 45//86
f 46//318 48//318 42//318
f 48//319 47//319 37//319
f 47//320 45//320 33//320
f 30//321 35//321 43//321
f 32//322 43//322 39//322
f 31//323 39//323 34//323
f 26//120 30//120 32//120
f 28//121 32//121 31//121
f 27//324 31//324 29//324
f 26//123 28//123 24//123
f 28//124 27//124 23//124
f 27//125 25//125 21//125
f 22//126 24//126 20//126
f 24//127 23//127 19//127
f 23//325 21//325 17//325
f 18//326 20//326 14//326
f 20//327 19//327 9//327
f 19//328 17//328 5//328
f 1//329 7//329 15//329
f 3//330 15//330 11//330
f 4//331 11//331 6//331
f 333//135 335//135 172//135
f 335//136 336//136 171//136
f 336//137 334//137 169//137
f 173//332 177//332 171//332
f 177//333 182//333 172//333
f 182//334 175//334 170//334
f 174//335 185//335 187//335
f 179//336 187//336 188//336
f 183//337 188//337 186//337
f 185//338 189//338 191//338
f 187//145 191//145 192//145
f 188//146 192//146 190//146
f 193//147 195//147 191//147
f 195//148 196//148 192//148
f 196//149 194//149 190//149
f 197//339 199//339 195//339
f 199//151 200//151 196//151
f 200//152 198//152 194//152
f 201//340 205//340 199//340
f 205//341 210//341 200//341
f 210//342 203//342 198//342
f 202//343 213//343 215//343
f 207//344 215//344 216//344
f 211//345 216//345 214//345
f 213//159 217//159 219//159
f 215//160 219//160 220//160
f 216//161 220//161 218//161
f 221//346 223//346 219//346
f 223//163 224//163 220//163
f 224//164 222//164 218//164
f 225//347 227//347 223//347
f 223//166 227//166 228//166
f 228//167 226//167 222//167
f 229//348 231//348 227//348
f 231//169 232//169 228//169
f 232//170 230//170 226//170
f 229//209 233//209 235//209
f 235//349 236//349 232//349
f 236//173 234//173 230//173
f 237//210 239//210 235//210
f 239//211 240//211 236//211
f 236//350 240//350 238//350
f 241//351 243//351 239//351
f 239//178 243//178 244//178
f 240//179 244//179 242//179
f 241//352 245//352 247//352
f 247//181 248//181 244//181
f 248//182 246//182 242//182
f 245//213 249//213 251//213
f 251//184 252//184 248//184
f 248//185 252//185 250//185
f 253//137 255//137 251//137
f 255//136 256//136 252//136
f 256//135 254//135 250//135
f 257//353 261//353 255//353
f 261//354 266//354 256//354
f 266//355 259//355 254//355
f 258//356 269//356 271//356
f 263//357 271//357 272//357
f 267//358 272//358 270//358
f 273//359 275//359 271//359
f 275//195 276//195 272//195
f 276//360 274//360 270//360
f 273//197 277//197 279//197
f 279//198 280//198 276//198
f 280//199 278//199 274//199
f 277//361 281//361 283//361
f 279//201 283//201 284//201
f 280//362 284//362 282//362
f 285//363 289//363 283//363
f 289//364 294//364 284//364
f 294//365 287//365 282//365
f 286//366 297//366 299//366
f 291//367 299//367 300//367
f 295//368 300//368 298//368
f 297//369 301//369 303//369
f 299//160 303//160 304//160
f 300//370 304//370 302//370
f 305//346 307//346 303//346
f 307//163 308//163 304//163
f 308//164 306//164 302//164
f 309//347 311//347 307//347
f 307//166 311//166 312//166
f 312//167 310//167 306//167
f 313//348 315//348 311//348
f 315//169 316//169 312//169
f 316//170 314//170 310//170
f 317//171 319//171 315//171
f 319//349 320//349 316//349
f 320//173 318//173 314//173
f 317//174 321//174 323//174
f 319//175 323//175 324//175
f 320//350 324//350 322//350
f 321//371 325//371 327//371
f 323//178 327//178 328//178
f 324//179 328//179 326//179
f 325//352 329//352 331//352
f 331//181 332//181 328//181
f 328//182 332//182 330//182
f 334//372 336//372 331//372
f 336//184 335//184 332//184
f 332//185 335//185 333//185
f 174//373 180//373 8//373
f 180//215 176//215 12//215
f 12//216 176//216 173//216
f 202//217 208//217 36//217
f 208//218 204//218 40//218
f 40//374 204//374 201//374
f 258//375 264//375 92//375
f 264//221 260//221 96//221
f 260//376 257//376 90//376
f 286//377 292//377 120//377
f 292//378 288//378 124//378
f 288//225 285//225 118//225
f 2//226 169//226 334//226
f 1//227 166//227 162//227
f 162//227 158//227 154//227
f 154//227 150//227 146//227
f 146//227 142//227 138//227
f 138//227 134//227 130//227
f 138//227 130//227 119//227
f 154//227 146//227 138//227
f 1//227 162//227 154//227
f 22//227 18//227 7//227
f 30//227 26//227 22//227
f 50//227 46//227 35//227
f 58//227 54//227 50//227
f 66//227 62//227 58//227
f 74//227 70//227 66//227
f 82//227 78//227 74//227
f 91//227 86//227 82//227
f 91//227 82//227 74//227
f 74//227 66//227 58//227
f 58//227 50//227 35//227
f 7//227 1//227 154//227
f 154//227 138//227 119//227
f 7//227 154//227 119//227
f 74//227 58//227 35//227
f 91//227 74//227 35//227
f 7//227 119//227 114//227
f 22//227 7//227 114//227
f 91//227 35//227 30//227
f 102//227 91//227 30//227
f 22//227 114//227 110//227
f 106//227 102//227 30//227
f 22//227 110//227 106//227
f 6//228 173//228 169//228
f 17//229 185//229 174//229
f 21//230 189//230 185//230
f 25//231 193//231 189//231
f 29//232 197//232 193//232
f 29//233 34//233 201//233
f 45//234 213//234 202//234
f 49//235 217//235 213//235
f 53//236 221//236 217//236
f 57//379 225//379 221//379
f 61//238 229//238 225//238
f 65//380 233//380 229//380
f 69//381 237//381 233//381
f 73//241 241//241 237//241
f 77//382 245//382 241//382
f 81//243 249//243 245//243
f 85//226 253//226 249//226
f 90//244 257//244 253//244
f 101//245 269//245 258//245
f 105//246 273//246 269//246
f 109//247 277//247 273//247
f 113//248 281//248 277//248
f 118//249 285//249 281//249
f 129//250 297//250 286//250
f 133//235 301//235 297//235
f 137//236 305//236 301//236
f 141//379 309//379 305//379
f 145//238 313//238 309//238
f 149//380 317//380 313//380
f 153//381 321//381 317//381
f 157//241 325//241 321//241
f 161//382 329//382 325//382
f 165//243 334//243 329//243
f 333//251 170//251 175//251
f 175//251 186//251 190//251
f 190//251 194//251 198//251
f 203//251 214//251 218//251
f 218//251 222//251 226//251
f 226//251 230//251 234//251
f 234//251 238//251 242//251
f 242//251 246//251 250//251
f 250//251 254//251 259//251
f 242//251 250//251 259//251
f 226//251 234//251 242//251
f 203//251 218//251 226//251
f 330//251 333//251 175//251
f 322//251 326//251 330//251
f 314//251 318//251 322//251
f 306//251 310//251 314//251
f 298//251 302//251 306//251
f 287//251 298//251 306//251
f 306//251 314//251 322//251
f 322//251 330//251 175//251
f 203//251 226//251 242//251
f 203//251 242//251 259//251
f 306//251 322//251 175//251
f 287//251 306//251 175//251
f 198//251 203//251 259//251
f 198//251 259//251 270//251
f 282//251 287//251 175//251
f 282//251 175//251 190//251
f 198//251 270//251 274//251
f 278//251 282//251 190//251
f 190//251 198//251 274//251
