# Blender 4.5.0
# www.blender.org
mtllib link_wheel_rear_right_roll.mtl
o rear_right_wheel_tire
v -0.011960 0.000000 0.024000
v 0.011960 -0.000000 0.024000
v -0.011960 0.003754 0.023705
v 0.011960 0.003754 0.023705
v -0.011960 0.007416 0.022825
v 0.011960 0.007416 0.022825
v -0.011960 0.010896 0.021384
v 0.011960 0.010896 0.021384
v -0.011960 0.014107 0.019416
v 0.011960 0.014107 0.019416
v -0.011960 0.016971 0.016971
v 0.011960 0.016971 0.016971
v -0.011960 0.019416 0.014107
v 0.011960 0.019416 0.014107
v -0.011960 0.021384 0.010896
v 0.011960 0.021384 0.010896
v -0.011960 0.022825 0.007416
v 0.011960 0.022825 0.007416
v -0.011960 0.023705 0.003754
v 0.011960 0.023705 0.003754
v -0.011960 0.024000 -0.000000
v 0.011960 0.024000 0.000000
v -0.011960 0.023705 -0.003754
v 0.011960 0.023705 -0.003754
v -0.011960 0.022825 -0.007416
v 0.011960 0.022825 -0.007416
v -0.011960 0.021384 -0.010896
v 0.011960 0.021384 -0.010896
v -0.011960 0.019416 -0.014107
v 0.011960 0.019416 -0.014107
v -0.011960 0.016971 -0.016971
v 0.011960 0.016971 -0.016971
v -0.011960 0.014107 -0.019416
v 0.011960 0.014107 -0.019416
v -0.011960 0.010896 -0.021384
v 0.011960 0.010896 -0.021384
v -0.011960 0.007416 -0.022825
v 0.011960 0.007416 -0.022825
v -0.011960 0.003754 -0.023705
v 0.011960 0.003754 -0.023705
v -0.011960 0.000000 -0.024000
v 0.011960 -0.000000 -0.024000
v -0.011960 -0.003754 -0.023705
v 0.011960 -0.003754 -0.023705
v -0.011960 -0.007416 -0.022825
v 0.011960 -0.007416 -0.022825
v -0.011960 -0.010896 -0.021384
v 0.011960 -0.010896 -0.021384
v -0.011960 -0.014107 -0.019416
v 0.011960 -0.014107 -0.019416
v -0.011960 -0.016971 -0.016971
v 0.011960 -0.016971 -0.016971
v -0.011960 -0.019416 -0.014107
v 0.011960 -0.019416 -0.014107
v -0.011960 -0.021384 -0.010896
v 0.011960 -0.021384 -0.010896
v -0.011960 -0.022825 -0.007416
v 0.011960 -0.022825 -0.007416
v -0.011960 -0.023705 -0.003754
v 0.011960 -0.023705 -0.003754
v -0.011960 -0.024000 -0.000000
v 0.011960 -0.024000 0.000000
v -0.011960 -0.023705 0.003754
v 0.011960 -0.023705 0.003754
v -0.011960 -0.022825 0.007416
v 0.011960 -0.022825 0.007416
v -0.011960 -0.021384 0.010896
v 0.011960 -0.021384 0.010896
v -0.011960 -0.019416 0.014107
v 0.011960 -0.019416 0.014107
v -0.011960 -0.016971 0.016971
v 0.011960 -0.016971 0.016971
v -0.011960 -0.014107 0.019416
v 0.011960 -0.014107 0.019416
v -0.011960 -0.010896 0.021384
v 0.011960 -0.010896 0.021384
v -0.011960 -0.007416 0.022825
v 0.011960 -0.007416 0.022825
v -0.011960 -0.003754 0.023705
v 0.011960 -0.003754 0.023705
vn 0.5965 0.6489 0.4724
vn -0.9958 0.0144 0.0908
vn -0.9985 -0.0001 0.0544
vn 0.9870 -0.1348 0.0876
vn -0.9985 0.0168 0.0518
vn 0.9860 -0.1108 0.1245
vn -0.9950 0.0454 0.0891
vn 0.9870 -0.1011 0.1249
vn -0.9985 0.0320 0.0440
vn 0.9847 -0.0537 0.1657
vn -0.9958 0.0650 0.0650
vn 0.9870 -0.0575 0.1501
vn -0.9985 0.0440 0.0320
vn 0.9840 0.0073 0.1778
vn -0.9961 0.0790 0.0402
vn 0.9870 -0.0084 0.1605
vn -0.9985 0.0518 0.0168
vn 0.9847 0.0539 0.1656
vn -0.9958 0.0908 0.0144
vn 0.9870 0.0416 0.1552
vn -0.9985 0.0544 -0.0000
vn 0.9860 0.0842 0.1438
vn -0.9950 0.0988 -0.0157
vn 0.9870 0.0876 0.1348
vn -0.9985 0.0518 -0.0168
vn 0.9847 0.1410 0.1023
vn -0.9958 0.0819 -0.0417
vn 0.9870 0.1248 0.1010
vn -0.9985 0.0440 -0.0320
vn 0.9840 0.1714 0.0480
vn -0.9982 0.0429 -0.0429
vn 0.9870 0.1503 0.0577
vn -0.9985 0.0320 -0.0440
vn 0.9847 0.1742 -0.0001
vn -0.9958 0.0417 -0.0819
vn 0.9870 0.1605 0.0084
vn -0.9985 0.0168 -0.0518
vn 0.9849 0.1655 -0.0506
vn -0.9950 0.0156 -0.0988
vn 0.9870 0.1552 -0.0416
vn -0.9985 -0.0000 -0.0544
vn 0.9847 0.1408 -0.1025
vn -0.9958 -0.0144 -0.0908
vn 0.9870 0.1348 -0.0876
vn -0.9985 -0.0168 -0.0518
vn 0.9840 0.0986 -0.1482
vn -0.9961 -0.0402 -0.0789
vn 0.9870 0.1011 -0.1249
vn -0.9985 -0.0320 -0.0440
vn 0.9847 0.0536 -0.1656
vn -0.9958 -0.0650 -0.0650
vn 0.9870 0.0575 -0.1501
vn -0.9985 -0.0440 -0.0320
vn 0.9867 0.0278 -0.1601
vn -0.9968 -0.0714 -0.0363
vn 0.9977 -0.0641 -0.0208
vn -0.9951 -0.0943 -0.0306
vn -0.9958 -0.0908 -0.0144
vn 0.9870 -0.0416 -0.1552
vn -0.9985 -0.0544 -0.0000
vn 0.9840 -0.1104 -0.1395
vn -0.9973 -0.0725 0.0115
vn 0.9870 -0.0876 -0.1348
vn -0.9996 -0.0262 0.0085
vn 0.9996 -0.0246 0.0123
vn -0.9920 -0.1124 0.0573
vn -0.9985 -0.0440 0.0320
vn 0.9850 -0.1633 -0.0561
vn -0.9950 -0.0707 0.0707
vn 0.9869 -0.1504 -0.0578
vn -0.9985 -0.0320 0.0440
vn 0.9847 -0.1742 0.0001
vn -0.9958 -0.0417 0.0819
vn 0.9870 -0.1605 -0.0084
vn -0.9985 -0.0168 0.0518
vn 0.9840 -0.1668 0.0619
vn -0.9973 -0.0115 0.0725
vn 0.3700 -0.7545 0.5420
vn 0.9951 -0.0884 -0.0449
vn 0.9920 -0.1199 0.0390
vt 1.000000 1.000000
vt 0.975000 0.500000
vt 1.000000 0.500000
vt 0.975000 1.000000
vt 0.950000 0.500000
vt 0.950000 1.000000
vt 0.925000 0.500000
vt 0.925000 1.000000
vt 0.900000 0.500000
vt 0.900000 1.000000
vt 0.875000 0.500000
vt 0.875000 1.000000
vt 0.850000 0.500000
vt 0.850000 1.000000
vt 0.825000 0.500000
vt 0.825000 1.000000
vt 0.800000 0.500000
vt 0.800000 1.000000
vt 0.775000 0.500000
vt 0.775000 1.000000
vt 0.750000 0.500000
vt 0.750000 1.000000
vt 0.725000 0.500000
vt 0.725000 1.000000
vt 0.700000 0.500000
vt 0.700000 1.000000
vt 0.675000 0.500000
vt 0.675000 1.000000
vt 0.650000 0.500000
vt 0.650000 1.000000
vt 0.625000 0.500000
vt 0.625000 1.000000
vt 0.600000 0.500000
vt 0.600000 1.000000
vt 0.575000 0.500000
vt 0.575000 1.000000
vt 0.550000 0.500000
vt 0.550000 1.000000
vt 0.525000 0.500000
vt 0.525000 1.000000
vt 0.500000 0.500000
vt 0.500000 1.000000
vt 0.475000 0.500000
vt 0.475000 1.000000
vt 0.450000 0.500000
vt 0.450000 1.000000
vt 0.425000 0.500000
vt 0.425000 1.000000
vt 0.400000 0.500000
vt 0.400000 1.000000
vt 0.375000 0.500000
vt 0.375000 1.000000
vt 0.350000 0.500000
vt 0.350000 1.000000
vt 0.325000 0.500000
vt 0.300000 1.000000
vt 0.300000 0.500000
vt 0.275000 0.500000
vt 0.275000 1.000000
vt 0.250000 0.500000
vt 0.250000 1.000000
vt 0.225000 0.500000
vt 0.225000 1.000000
vt 0.200000 0.500000
vt 0.175000 1.000000
vt 0.175000 0.500000
vt 0.150000 0.500000
vt 0.150000 1.000000
vt 0.125000 0.500000
vt 0.125000 1.000000
vt 0.100000 0.500000
vt 0.100000 1.000000
vt 0.075000 0.500000
vt 0.075000 1.000000
vt 0.050000 0.500000
vt 0.055836 0.108932
vt 0.490000 0.250000
vt 0.324164 0.478254
vt 0.050000 1.000000
vt 0.025000 0.500000
vt 0.025000 1.000000
vt 0.000000 0.500000
vt 0.919706 0.080294
vt 0.512955 0.287544
vt 0.712456 0.487045
vt 0.325000 1.000000
vt 0.200000 1.000000
vt 0.287544 0.487045
vt 0.250000 0.490000
vt 0.212456 0.487045
vt 0.175836 0.478254
vt 0.141042 0.463842
vt 0.108932 0.444164
vt 0.080294 0.419706
vt 0.055836 0.391068
vt 0.036158 0.358958
vt 0.021746 0.324164
vt 0.012955 0.287544
vt 0.010000 0.250000
vt 0.012955 0.212456
vt 0.021746 0.175836
vt 0.036158 0.141042
vt 0.080294 0.080294
vt 0.108932 0.055836
vt 0.141042 0.036158
vt 0.175836 0.021746
vt 0.212456 0.012955
vt 0.250000 0.010000
vt 0.287544 0.012955
vt 0.324164 0.021746
vt 0.358958 0.036158
vt 0.391068 0.055836
vt 0.419706 0.080294
vt 0.444164 0.108932
vt 0.463842 0.141042
vt 0.478254 0.175836
vt 0.487045 0.212456
vt 0.487045 0.287544
vt 0.478254 0.324164
vt 0.463842 0.358958
vt 0.444164 0.391068
vt 0.419706 0.419706
vt 0.391068 0.444164
vt 0.358958 0.463842
vt 0.000000 1.000000
vt 0.750000 0.490000
vt 0.787544 0.487045
vt 0.824164 0.478254
vt 0.858958 0.463842
vt 0.891068 0.444164
vt 0.919706 0.419706
vt 0.944164 0.391068
vt 0.963842 0.358958
vt 0.978254 0.324164
vt 0.987045 0.287544
vt 0.990000 0.250000
vt 0.987045 0.212456
vt 0.978254 0.175836
vt 0.963842 0.141042
vt 0.944164 0.108932
vt 0.891068 0.055836
vt 0.858958 0.036158
vt 0.824164 0.021746
vt 0.787544 0.012955
vt 0.750000 0.010000
vt 0.712456 0.012955
vt 0.675836 0.021746
vt 0.641042 0.036158
vt 0.608932 0.055836
vt 0.580294 0.080294
vt 0.555836 0.108932
vt 0.536158 0.141042
vt 0.521746 0.175836
vt 0.512955 0.212456
vt 0.510000 0.250000
vt 0.521746 0.324164
vt 0.536158 0.358958
vt 0.555836 0.391068
vt 0.580294 0.419706
vt 0.608932 0.444164
vt 0.641042 0.463842
vt 0.675836 0.478254
s 1
usemtl dark_wheel_rubber
f 2/1/1 3/2/2 1/3/3
f 4/4/4 5/5/5 3/2/2
f 6/6/6 7/7/7 5/5/5
f 8/8/8 9/9/9 7/7/7
f 10/10/10 11/11/11 9/9/9
f 12/12/12 13/13/13 11/11/11
f 14/14/14 15/15/15 13/13/13
f 16/16/16 17/17/17 15/15/15
f 18/18/18 19/19/19 17/17/17
f 20/20/20 21/21/21 19/19/19
f 22/22/22 23/23/23 21/21/21
f 24/24/24 25/25/25 23/23/23
f 26/26/26 27/27/27 25/25/25
f 28/28/28 29/29/29 27/27/27
f 30/30/30 31/31/31 29/29/29
f 32/32/32 33/33/33 31/31/31
f 34/34/34 35/35/35 33/33/33
f 36/36/36 37/37/37 35/35/35
f 38/38/38 39/39/39 37/37/37
f 40/40/40 41/41/41 39/39/39
f 42/42/42 43/43/43 41/41/41
f 44/44/44 45/45/45 43/43/43
f 46/46/46 47/47/47 45/45/45
f 48/48/48 49/49/49 47/47/47
f 50/50/50 51/51/51 49/49/49
f 52/52/52 53/53/53 51/51/51
f 54/54/54 55/55/55 53/53/53
f 55/55/55 58/56/56 57/57/57
f 58/56/56 59/58/58 57/57/57
f 60/59/59 61/60/60 59/58/58
f 62/61/61 63/62/62 61/60/60
f 64/63/63 65/64/64 63/62/62
f 65/64/64 68/65/65 67/66/66
f 68/65/65 69/67/67 67/66/66
f 70/68/68 71/69/69 69/67/67
f 72/70/70 73/71/71 71/69/69
f 74/72/72 75/73/73 73/71/71
f 76/74/74 77/75/75 75/73/73
f 54/76/54 22/77/22 6/78/6
f 78/79/76 79/80/77 77/75/75
f 80/81/78 1/82/3 79/80/77
f 31/83/31 63/84/62 79/85/77
f 2/1/1 4/4/4 3/2/2
f 4/4/4 6/6/6 5/5/5
f 6/6/6 8/8/8 7/7/7
f 8/8/8 10/10/10 9/9/9
f 10/10/10 12/12/12 11/11/11
f 12/12/12 14/14/14 13/13/13
f 14/14/14 16/16/16 15/15/15
f 16/16/16 18/18/18 17/17/17
f 18/18/18 20/20/20 19/19/19
f 20/20/20 22/22/22 21/21/21
f 22/22/22 24/24/24 23/23/23
f 24/24/24 26/26/26 25/25/25
f 26/26/26 28/28/28 27/27/27
f 28/28/28 30/30/30 29/29/29
f 30/30/30 32/32/32 31/31/31
f 32/32/32 34/34/34 33/33/33
f 34/34/34 36/36/36 35/35/35
f 36/36/36 38/38/38 37/37/37
f 38/38/38 40/40/40 39/39/39
f 40/40/40 42/42/42 41/41/41
f 42/42/42 44/44/44 43/43/43
f 44/44/44 46/46/46 45/45/45
f 46/46/46 48/48/48 47/47/47
f 48/48/48 50/50/50 49/49/49
f 50/50/50 52/52/52 51/51/51
f 52/52/52 54/54/54 53/53/53
f 54/54/54 56/86/79 55/55/55
f 55/55/55 56/86/79 58/56/56
f 58/56/56 60/59/59 59/58/58
f 60/59/59 62/61/61 61/60/60
f 62/61/61 64/63/63 63/62/62
f 64/63/63 66/87/80 65/64/64
f 65/64/64 66/87/80 68/65/65
f 68/65/65 70/68/68 69/67/67
f 70/68/68 72/70/70 71/69/69
f 72/70/70 74/72/72 73/71/71
f 74/72/72 76/74/74 75/73/73
f 76/74/74 78/79/76 77/75/75
f 6/78/6 4/88/4 2/89/1
f 2/89/1 80/90/78 78/91/76
f 78/91/76 76/92/74 74/93/72
f 74/93/72 72/94/70 70/95/68
f 70/95/68 68/96/65 66/97/80
f 66/97/80 64/98/63 62/99/61
f 62/99/61 60/100/59 58/101/56
f 58/101/56 56/102/79 54/76/54
f 54/76/54 52/103/52 50/104/50
f 50/104/50 48/105/48 46/106/46
f 46/106/46 44/107/44 42/108/42
f 42/108/42 40/109/40 38/110/38
f 38/110/38 36/111/36 34/112/34
f 34/112/34 32/113/32 30/114/30
f 30/114/30 28/115/28 26/116/26
f 26/116/26 24/117/24 22/77/22
f 22/77/22 20/118/20 18/119/18
f 18/119/18 16/120/16 14/121/14
f 14/121/14 12/122/12 10/123/10
f 10/123/10 8/124/8 6/78/6
f 6/78/6 2/89/1 78/91/76
f 78/91/76 74/93/72 70/95/68
f 70/95/68 66/97/80 62/99/61
f 62/99/61 58/101/56 54/76/54
f 54/76/54 50/104/50 46/106/46
f 46/106/46 42/108/42 38/110/38
f 38/110/38 34/112/34 30/114/30
f 30/114/30 26/116/26 22/77/22
f 22/77/22 18/119/18 14/121/14
f 14/121/14 10/123/10 6/78/6
f 6/78/6 78/91/76 70/95/68
f 70/95/68 62/99/61 54/76/54
f 54/76/54 46/106/46 38/110/38
f 38/110/38 30/114/30 22/77/22
f 22/77/22 14/121/14 6/78/6
f 6/78/6 70/95/68 54/76/54
f 54/76/54 38/110/38 22/77/22
f 78/79/76 80/81/78 79/80/77
f 80/81/78 2/125/1 1/82/3
f 79/85/77 1/126/3 3/127/2
f 3/127/2 5/128/5 7/129/7
f 7/129/7 9/130/9 11/131/11
f 11/131/11 13/132/13 15/133/15
f 15/133/15 17/134/17 19/135/19
f 19/135/19 21/136/21 23/137/23
f 23/137/23 25/138/25 27/139/27
f 27/139/27 29/140/29 31/83/31
f 31/83/31 33/141/33 35/142/35
f 35/142/35 37/143/37 39/144/39
f 39/144/39 41/145/41 43/146/43
f 43/146/43 45/147/45 47/148/47
f 47/148/47 49/149/49 51/150/51
f 51/150/51 53/151/53 55/152/55
f 55/152/55 57/153/57 59/154/58
f 59/154/58 61/155/60 63/84/62
f 63/84/62 65/156/64 67/157/66
f 67/157/66 69/158/67 71/159/69
f 71/159/69 73/160/71 75/161/73
f 75/161/73 77/162/75 79/85/77
f 79/85/77 3/127/2 7/129/7
f 7/129/7 11/131/11 15/133/15
f 15/133/15 19/135/19 23/137/23
f 23/137/23 27/139/27 31/83/31
f 31/83/31 35/142/35 39/144/39
f 39/144/39 43/146/43 47/148/47
f 47/148/47 51/150/51 55/152/55
f 55/152/55 59/154/58 63/84/62
f 63/84/62 67/157/66 71/159/69
f 71/159/69 75/161/73 79/85/77
f 79/85/77 7/129/7 15/133/15
f 15/133/15 23/137/23 31/83/31
f 31/83/31 39/144/39 47/148/47
f 47/148/47 55/152/55 63/84/62
f 63/84/62 71/159/69 79/85/77
f 79/85/77 15/133/15 31/83/31
f 31/83/31 47/148/47 63/84/62
o rear_right_wheel_hub_-1
v -0.113703 -0.058650 -0.013920
v -0.111550 -0.058650 -0.013920
v -0.113703 -0.056041 -0.014263
v -0.111550 -0.056041 -0.014263
v -0.113703 -0.053610 -0.015270
v -0.111550 -0.053610 -0.015270
v -0.113703 -0.051522 -0.016872
v -0.111550 -0.051522 -0.016872
v -0.113703 -0.049920 -0.018960
v -0.111550 -0.049920 -0.018960
v -0.113703 -0.048913 -0.021391
v -0.111550 -0.048913 -0.021391
v -0.113703 -0.048570 -0.024000
v -0.111550 -0.048570 -0.024000
v -0.113703 -0.048913 -0.026609
v -0.111550 -0.048913 -0.026609
v -0.113703 -0.049920 -0.029040
v -0.111550 -0.049920 -0.029040
v -0.113703 -0.051522 -0.031128
v -0.111550 -0.051522 -0.031128
v -0.113703 -0.053610 -0.032730
v -0.111550 -0.053610 -0.032730
v -0.113703 -0.056041 -0.033737
v -0.111550 -0.056041 -0.033737
v -0.113703 -0.058650 -0.034080
v -0.111550 -0.058650 -0.034080
v -0.113703 -0.061259 -0.033737
v -0.111550 -0.061259 -0.033737
v -0.113703 -0.063690 -0.032730
v -0.111550 -0.063690 -0.032730
v -0.113703 -0.065778 -0.031128
v -0.111550 -0.065778 -0.031128
v -0.113703 -0.067380 -0.029040
v -0.111550 -0.067380 -0.029040
v -0.113703 -0.068387 -0.026609
v -0.111550 -0.068387 -0.026609
v -0.113703 -0.068730 -0.024000
v -0.111550 -0.068730 -0.024000
v -0.113703 -0.068387 -0.021391
v -0.111550 -0.068387 -0.021391
v -0.113703 -0.067380 -0.018960
v -0.111550 -0.067380 -0.018960
v -0.113703 -0.065778 -0.016872
v -0.111550 -0.065778 -0.016872
v -0.113703 -0.063690 -0.015270
v -0.111550 -0.063690 -0.015270
v -0.113703 -0.061259 -0.014263
v -0.111550 -0.061259 -0.014263
vn 0.9182 0.3798 0.1124
vn -0.9993 0.0097 0.0362
vn -0.9999 -0.0001 0.0129
vn 0.7118 -0.5502 0.4367
vn -0.9999 0.0065 0.0112
vn 0.7083 -0.4302 0.5597
vn -0.9995 0.0215 0.0215
vn 0.7118 -0.2582 0.6533
vn -0.9999 0.0112 0.0065
vn 0.7179 -0.0569 0.6938
vn -0.9993 0.0362 0.0097
vn 0.7118 0.1030 0.6948
vn -0.9999 0.0129 -0.0000
vn 0.7162 0.2923 0.6337
vn -1.0000 -0.0001 -0.0000
vn 0.7116 0.4368 0.5503
vn -0.9999 0.0112 -0.0065
vn 0.7179 0.5724 0.3962
vn -0.9993 0.0265 -0.0265
vn 0.7118 0.6533 0.2582
vn -1.0000 -0.0003 0.0005
vn 1.0000 -0.0002 0.0006
vn -0.9991 0.0110 -0.0411
vn -0.9999 -0.0000 -0.0129
vn 0.7179 0.6293 -0.2976
vn -0.9997 -0.0063 -0.0235
vn 0.9995 -0.0152 -0.0263
vn -0.9999 -0.0065 -0.0112
vn 1.0000 0.0004 0.0005
vn -1.0000 -0.0042 -0.0042
vn -1.0000 0.0005 0.0003
vn 1.0000 0.0006 0.0002
vn -0.9984 -0.0540 -0.0144
vn -0.9999 -0.0129 -0.0000
vn 0.7083 -0.2696 -0.6524
vn -0.9998 -0.0202 0.0054
vn 0.9997 -0.0210 0.0122
vn -0.9994 -0.0307 0.0178
vn -0.9993 -0.0265 0.0265
vn 0.7118 -0.6533 -0.2582
vn -0.9999 -0.0065 0.0112
vn 0.0553 0.0300 -0.9980
vn 0.7162 -0.6950 -0.0637
vn -1.0000 -0.0000 -0.0001
vn -0.0258 -0.5137 0.8576
vn 0.9994 -0.0093 -0.0343
vn 0.9984 -0.0484 -0.0279
vn 0.9994 -0.0343 0.0093
vt 1.000000 1.000000
vt 0.958333 0.500000
vt 1.000000 0.500000
vt 0.958333 1.000000
vt 0.916667 0.500000
vt 0.916667 1.000000
vt 0.875000 0.500000
vt 0.875000 1.000000
vt 0.833333 0.500000
vt 0.833333 1.000000
vt 0.791667 0.500000
vt 0.791667 1.000000
vt 0.750000 0.500000
vt 0.750000 1.000000
vt 0.708333 0.500000
vt 0.708333 1.000000
vt 0.666667 0.500000
vt 0.666667 1.000000
vt 0.625000 0.500000
vt 0.625000 1.000000
vt 0.583333 0.500000
vt 0.541666 1.000000
vt 0.541666 0.500000
vt 0.500000 0.500000
vt 0.500000 1.000000
vt 0.458333 0.500000
vt 0.416666 1.000000
vt 0.416666 0.500000
vt 0.375000 1.000000
vt 0.375000 0.500000
vt 0.333333 0.500000
vt 0.291667 1.000000
vt 0.291667 0.500000
vt 0.250000 0.500000
vt 0.250000 1.000000
vt 0.208333 0.500000
vt 0.166666 1.000000
vt 0.166666 0.500000
vt 0.125000 0.500000
vt 0.125000 1.000000
vt 0.083333 0.500000
vt 0.010000 0.250000
vt 0.370000 0.042154
vt 0.370000 0.457846
vt 0.083333 1.000000
vt 0.041666 0.500000
vt 0.041666 1.000000
vt -0.000000 0.500000
vt 0.981822 0.187883
vt 0.580294 0.080294
vt 0.687883 0.481822
vt 0.583333 1.000000
vt 0.458333 1.000000
vt 0.333333 1.000000
vt 0.208333 1.000000
vt 0.312117 0.481822
vt 0.250000 0.490000
vt 0.187883 0.481822
vt 0.130000 0.457846
vt 0.080294 0.419706
vt 0.042154 0.370000
vt 0.018178 0.312117
vt 0.018178 0.187883
vt 0.042154 0.130000
vt 0.080294 0.080294
vt 0.130000 0.042154
vt 0.187883 0.018178
vt 0.250000 0.010000
vt 0.312117 0.018178
vt 0.419706 0.080294
vt 0.457846 0.130000
vt 0.481822 0.187883
vt 0.490000 0.250000
vt 0.481822 0.312117
vt 0.457846 0.370000
vt 0.419706 0.419706
vt -0.000000 1.000000
vt 0.750000 0.490000
vt 0.812117 0.481822
vt 0.870000 0.457846
vt 0.919706 0.419706
vt 0.957846 0.370000
vt 0.981822 0.312117
vt 0.990000 0.250000
vt 0.957846 0.130000
vt 0.919706 0.080294
vt 0.870000 0.042154
vt 0.812117 0.018178
vt 0.750000 0.010000
vt 0.687883 0.018178
vt 0.630000 0.042154
vt 0.542154 0.130000
vt 0.518178 0.187883
vt 0.510000 0.250000
vt 0.518178 0.312117
vt 0.542154 0.370000
vt 0.580294 0.419706
vt 0.630000 0.457846
s 1
usemtl wheel_mounts
f 82/163/81 83/164/82 81/165/83
f 84/166/84 85/167/85 83/164/82
f 86/168/86 87/169/87 85/167/85
f 88/170/88 89/171/89 87/169/87
f 90/172/90 91/173/91 89/171/89
f 92/174/92 93/175/93 91/173/91
f 94/176/94 95/177/95 93/175/93
f 96/178/96 97/179/97 95/177/95
f 98/180/98 99/181/99 97/179/97
f 100/182/100 101/183/101 99/181/99
f 101/183/101 104/184/102 103/185/103
f 104/184/102 105/186/104 103/185/103
f 106/187/105 107/188/106 105/186/104
f 107/188/106 110/189/107 109/190/108
f 109/190/108 112/191/109 111/192/110
f 112/191/109 113/193/111 111/192/110
f 113/193/111 116/194/112 115/195/113
f 116/194/112 117/196/114 115/195/113
f 118/197/115 119/198/116 117/196/114
f 119/198/116 122/199/117 121/200/118
f 122/199/117 123/201/119 121/200/118
f 124/202/120 125/203/121 123/201/119
f 118/204/115 102/205/122 86/206/86
f 126/207/123 127/208/124 125/203/121
f 128/209/125 81/210/83 127/208/124
f 95/211/95 111/212/110 127/213/124
f 82/163/81 84/166/84 83/164/82
f 84/166/84 86/168/86 85/167/85
f 86/168/86 88/170/88 87/169/87
f 88/170/88 90/172/90 89/171/89
f 90/172/90 92/174/92 91/173/91
f 92/174/92 94/176/94 93/175/93
f 94/176/94 96/178/96 95/177/95
f 96/178/96 98/180/98 97/179/97
f 98/180/98 100/182/100 99/181/99
f 100/182/100 102/214/122 101/183/101
f 101/183/101 102/214/122 104/184/102
f 104/184/102 106/187/105 105/186/104
f 106/187/105 108/215/126 107/188/106
f 107/188/106 108/215/126 110/189/107
f 109/190/108 110/189/107 112/191/109
f 112/191/109 114/216/127 113/193/111
f 113/193/111 114/216/127 116/194/112
f 116/194/112 118/197/115 117/196/114
f 118/197/115 120/217/128 119/198/116
f 119/198/116 120/217/128 122/199/117
f 122/199/117 124/202/120 123/201/119
f 124/202/120 126/207/123 125/203/121
f 86/206/86 84/218/84 82/219/81
f 82/219/81 128/220/125 126/221/123
f 126/221/123 124/222/120 122/223/117
f 122/223/117 120/224/128 118/204/115
f 118/204/115 116/225/112 114/226/127
f 114/226/127 112/227/109 110/228/107
f 110/228/107 108/229/126 106/230/105
f 106/230/105 104/231/102 102/205/122
f 102/205/122 100/232/100 98/233/98
f 98/233/98 96/234/96 94/235/94
f 94/235/94 92/236/92 90/237/90
f 90/237/90 88/238/88 86/206/86
f 86/206/86 82/219/81 126/221/123
f 126/221/123 122/223/117 118/204/115
f 118/204/115 114/226/127 110/228/107
f 110/228/107 106/230/105 102/205/122
f 102/205/122 98/233/98 94/235/94
f 94/235/94 90/237/90 86/206/86
f 86/206/86 126/221/123 118/204/115
f 118/204/115 110/228/107 102/205/122
f 102/205/122 94/235/94 86/206/86
f 126/207/123 128/209/125 127/208/124
f 128/209/125 82/239/81 81/210/83
f 127/213/124 81/240/83 83/241/82
f 83/241/82 85/242/85 87/243/87
f 87/243/87 89/244/89 91/245/91
f 91/245/91 93/246/93 95/211/95
f 95/211/95 97/247/97 99/248/99
f 99/248/99 101/249/101 103/250/103
f 103/250/103 105/251/104 107/252/106
f 107/252/106 109/253/108 111/212/110
f 111/212/110 113/254/111 115/255/113
f 115/255/113 117/256/114 119/257/116
f 119/257/116 121/258/118 123/259/119
f 123/259/119 125/260/121 127/213/124
f 127/213/124 83/241/82 87/243/87
f 87/243/87 91/245/91 95/211/95
f 95/211/95 99/248/99 103/250/103
f 103/250/103 107/252/106 111/212/110
f 111/212/110 115/255/113 119/257/116
f 119/257/116 123/259/119 127/213/124
f 127/213/124 87/243/87 95/211/95
f 95/211/95 103/250/103 111/212/110
f 111/212/110 119/257/116 127/213/124
o rear_right_wheel_hub_1
v -0.087630 -0.058650 -0.013920
v -0.085477 -0.058650 -0.013920
v -0.087630 -0.056041 -0.014263
v -0.085477 -0.056041 -0.014263
v -0.087630 -0.053610 -0.015270
v -0.085477 -0.053610 -0.015270
v -0.087630 -0.051522 -0.016872
v -0.085477 -0.051522 -0.016872
v -0.087630 -0.049920 -0.018960
v -0.085477 -0.049920 -0.018960
v -0.087630 -0.048913 -0.021391
v -0.085477 -0.048913 -0.021391
v -0.087630 -0.048570 -0.024000
v -0.085477 -0.048570 -0.024000
v -0.087630 -0.048913 -0.026609
v -0.085477 -0.048913 -0.026609
v -0.087630 -0.049920 -0.029040
v -0.085477 -0.049920 -0.029040
v -0.087630 -0.051522 -0.031128
v -0.085477 -0.051522 -0.031128
v -0.087630 -0.053610 -0.032730
v -0.085477 -0.053610 -0.032730
v -0.087630 -0.056041 -0.033737
v -0.085477 -0.056041 -0.033737
v -0.087630 -0.058650 -0.034080
v -0.085477 -0.058650 -0.034080
v -0.087630 -0.061259 -0.033737
v -0.085477 -0.061259 -0.033737
v -0.087630 -0.063690 -0.032730
v -0.085477 -0.063690 -0.032730
v -0.087630 -0.065778 -0.031128
v -0.085477 -0.065778 -0.031128
v -0.087630 -0.067380 -0.029040
v -0.085477 -0.067380 -0.029040
v -0.087630 -0.068387 -0.026609
v -0.085477 -0.068387 -0.026609
v -0.087630 -0.068730 -0.024000
v -0.085477 -0.068730 -0.024000
v -0.087630 -0.068387 -0.021391
v -0.085477 -0.068387 -0.021391
v -0.087630 -0.067380 -0.018960
v -0.085477 -0.067380 -0.018960
v -0.087630 -0.065778 -0.016872
v -0.085477 -0.065778 -0.016872
v -0.087630 -0.063690 -0.015270
v -0.085477 -0.063690 -0.015270
v -0.087630 -0.061259 -0.014263
v -0.085477 -0.061259 -0.014263
vn 0.9182 0.3798 0.1124
vn -0.9993 0.0097 0.0362
vn -0.9999 -0.0001 0.0129
vn 0.7118 -0.5502 0.4367
vn -0.9999 0.0065 0.0112
vn 0.7083 -0.4302 0.5597
vn -0.9995 0.0215 0.0215
vn 0.7118 -0.2582 0.6533
vn -0.9999 0.0112 0.0065
vn 0.7179 -0.0569 0.6938
vn -0.9993 0.0362 0.0097
vn 0.7118 0.1030 0.6948
vn -0.9999 0.0129 -0.0000
vn 0.7162 0.2923 0.6337
vn -1.0000 -0.0001 -0.0000
vn 0.7116 0.4368 0.5503
vn -0.9999 0.0112 -0.0065
vn 0.7179 0.5724 0.3962
vn -0.9993 0.0265 -0.0265
vn 0.7118 0.6533 0.2582
vn -1.0000 -0.0003 0.0005
vn 1.0000 -0.0002 0.0006
vn -0.9991 0.0110 -0.0411
vn -0.9999 -0.0000 -0.0129
vn 0.7179 0.6293 -0.2976
vn -0.9997 -0.0063 -0.0235
vn 0.9995 -0.0152 -0.0263
vn -0.9999 -0.0065 -0.0112
vn 1.0000 0.0004 0.0005
vn -1.0000 -0.0042 -0.0042
vn -1.0000 0.0005 0.0003
vn 1.0000 0.0006 0.0002
vn -0.9984 -0.0540 -0.0144
vn -0.9999 -0.0129 -0.0000
vn 0.7083 -0.2696 -0.6524
vn -0.9998 -0.0202 0.0054
vn 0.9997 -0.0210 0.0122
vn -0.9994 -0.0307 0.0178
vn -0.9993 -0.0265 0.0265
vn 0.7118 -0.6533 -0.2582
vn -0.9999 -0.0065 0.0112
vn 0.0553 0.0300 -0.9980
vn 0.7162 -0.6950 -0.0637
vn -1.0000 -0.0000 -0.0001
vn -0.0258 -0.5137 0.8576
vn 0.9994 -0.0093 -0.0343
vn 0.9984 -0.0484 -0.0279
vn 0.9994 -0.0343 0.0093
vt 1.000000 1.000000
vt 0.958333 0.500000
vt 1.000000 0.500000
vt 0.958333 1.000000
vt 0.916667 0.500000
vt 0.916667 1.000000
vt 0.875000 0.500000
vt 0.875000 1.000000
vt 0.833333 0.500000
vt 0.833333 1.000000
vt 0.791667 0.500000
vt 0.791667 1.000000
vt 0.750000 0.500000
vt 0.750000 1.000000
vt 0.708333 0.500000
vt 0.708333 1.000000
vt 0.666667 0.500000
vt 0.666667 1.000000
vt 0.625000 0.500000
vt 0.625000 1.000000
vt 0.583333 0.500000
vt 0.541666 1.000000
vt 0.541666 0.500000
vt 0.500000 0.500000
vt 0.500000 1.000000
vt 0.458333 0.500000
vt 0.416666 1.000000
vt 0.416666 0.500000
vt 0.375000 1.000000
vt 0.375000 0.500000
vt 0.333333 0.500000
vt 0.291667 1.000000
vt 0.291667 0.500000
vt 0.250000 0.500000
vt 0.250000 1.000000
vt 0.208333 0.500000
vt 0.166666 1.000000
vt 0.166666 0.500000
vt 0.125000 0.500000
vt 0.125000 1.000000
vt 0.083333 0.500000
vt 0.010000 0.250000
vt 0.370000 0.042154
vt 0.370000 0.457846
vt 0.083333 1.000000
vt 0.041666 0.500000
vt 0.041666 1.000000
vt -0.000000 0.500000
vt 0.981822 0.187883
vt 0.580294 0.080294
vt 0.687883 0.481822
vt 0.583333 1.000000
vt 0.458333 1.000000
vt 0.333333 1.000000
vt 0.208333 1.000000
vt 0.312117 0.481822
vt 0.250000 0.490000
vt 0.187883 0.481822
vt 0.130000 0.457846
vt 0.080294 0.419706
vt 0.042154 0.370000
vt 0.018178 0.312117
vt 0.018178 0.187883
vt 0.042154 0.130000
vt 0.080294 0.080294
vt 0.130000 0.042154
vt 0.187883 0.018178
vt 0.250000 0.010000
vt 0.312117 0.018178
vt 0.419706 0.080294
vt 0.457846 0.130000
vt 0.481822 0.187883
vt 0.490000 0.250000
vt 0.481822 0.312117
vt 0.457846 0.370000
vt 0.419706 0.419706
vt -0.000000 1.000000
vt 0.750000 0.490000
vt 0.812117 0.481822
vt 0.870000 0.457846
vt 0.919706 0.419706
vt 0.957846 0.370000
vt 0.981822 0.312117
vt 0.990000 0.250000
vt 0.957846 0.130000
vt 0.919706 0.080294
vt 0.870000 0.042154
vt 0.812117 0.018178
vt 0.750000 0.010000
vt 0.687883 0.018178
vt 0.630000 0.042154
vt 0.542154 0.130000
vt 0.518178 0.187883
vt 0.510000 0.250000
vt 0.518178 0.312117
vt 0.542154 0.370000
vt 0.580294 0.419706
vt 0.630000 0.457846
s 1
usemtl wheel_mounts
f 130/261/129 131/262/130 129/263/131
f 132/264/132 133/265/133 131/262/130
f 134/266/134 135/267/135 133/265/133
f 136/268/136 137/269/137 135/267/135
f 138/270/138 139/271/139 137/269/137
f 140/272/140 141/273/141 139/271/139
f 142/274/142 143/275/143 141/273/141
f 144/276/144 145/277/145 143/275/143
f 146/278/146 147/279/147 145/277/145
f 148/280/148 149/281/149 147/279/147
f 149/281/149 152/282/150 151/283/151
f 152/282/150 153/284/152 151/283/151
f 154/285/153 155/286/154 153/284/152
f 155/286/154 158/287/155 157/288/156
f 157/288/156 160/289/157 159/290/158
f 160/289/157 161/291/159 159/290/158
f 161/291/159 164/292/160 163/293/161
f 164/292/160 165/294/162 163/293/161
f 166/295/163 167/296/164 165/294/162
f 167/296/164 170/297/165 169/298/166
f 170/297/165 171/299/167 169/298/166
f 172/300/168 173/301/169 171/299/167
f 166/302/163 150/303/170 134/304/134
f 174/305/171 175/306/172 173/301/169
f 176/307/173 129/308/131 175/306/172
f 143/309/143 159/310/158 175/311/172
f 130/261/129 132/264/132 131/262/130
f 132/264/132 134/266/134 133/265/133
f 134/266/134 136/268/136 135/267/135
f 136/268/136 138/270/138 137/269/137
f 138/270/138 140/272/140 139/271/139
f 140/272/140 142/274/142 141/273/141
f 142/274/142 144/276/144 143/275/143
f 144/276/144 146/278/146 145/277/145
f 146/278/146 148/280/148 147/279/147
f 148/280/148 150/312/170 149/281/149
f 149/281/149 150/312/170 152/282/150
f 152/282/150 154/285/153 153/284/152
f 154/285/153 156/313/174 155/286/154
f 155/286/154 156/313/174 158/287/155
f 157/288/156 158/287/155 160/289/157
f 160/289/157 162/314/175 161/291/159
f 161/291/159 162/314/175 164/292/160
f 164/292/160 166/295/163 165/294/162
f 166/295/163 168/315/176 167/296/164
f 167/296/164 168/315/176 170/297/165
f 170/297/165 172/300/168 171/299/167
f 172/300/168 174/305/171 173/301/169
f 134/304/134 132/316/132 130/317/129
f 130/317/129 176/318/173 174/319/171
f 174/319/171 172/320/168 170/321/165
f 170/321/165 168/322/176 166/302/163
f 166/302/163 164/323/160 162/324/175
f 162/324/175 160/325/157 158/326/155
f 158/326/155 156/327/174 154/328/153
f 154/328/153 152/329/150 150/303/170
f 150/303/170 148/330/148 146/331/146
f 146/331/146 144/332/144 142/333/142
f 142/333/142 140/334/140 138/335/138
f 138/335/138 136/336/136 134/304/134
f 134/304/134 130/317/129 174/319/171
f 174/319/171 170/321/165 166/302/163
f 166/302/163 162/324/175 158/326/155
f 158/326/155 154/328/153 150/303/170
f 150/303/170 146/331/146 142/333/142
f 142/333/142 138/335/138 134/304/134
f 134/304/134 174/319/171 166/302/163
f 166/302/163 158/326/155 150/303/170
f 150/303/170 142/333/142 134/304/134
f 174/305/171 176/307/173 175/306/172
f 176/307/173 130/337/129 129/308/131
f 175/311/172 129/338/131 131/339/130
f 131/339/130 133/340/133 135/341/135
f 135/341/135 137/342/137 139/343/139
f 139/343/139 141/344/141 143/309/143
f 143/309/143 145/345/145 147/346/147
f 147/346/147 149/347/149 151/348/151
f 151/348/151 153/349/152 155/350/154
f 155/350/154 157/351/156 159/310/158
f 159/310/158 161/352/159 163/353/161
f 163/353/161 165/354/162 167/355/164
f 167/355/164 169/356/166 171/357/167
f 171/357/167 173/358/169 175/311/172
f 175/311/172 131/339/130 135/341/135
f 135/341/135 139/343/139 143/309/143
f 143/309/143 147/346/147 151/348/151
f 151/348/151 155/350/154 159/310/158
f 159/310/158 163/353/161 167/355/164
f 167/355/164 171/357/167 175/311/172
f 175/311/172 135/341/135 143/309/143
f 143/309/143 151/348/151 159/310/158
f 159/310/158 167/355/164 175/311/172
