# Blender 4.5.0
# www.blender.org
mtllib link_rear_frame_fold.mtl
o rear_frame
v -0.276947 0.326227 -0.606201
v -0.276947 0.011472 0.005899
v -0.274430 0.326006 -0.606314
v -0.274430 0.011252 0.005786
v -0.272010 0.325354 -0.606650
v -0.272010 0.010599 0.005450
v -0.269780 0.324293 -0.607195
v -0.269780 0.009539 0.004905
v -0.267825 0.322867 -0.607929
v -0.267825 0.008112 0.004171
v -0.266221 0.321128 -0.608823
v -0.266221 0.006374 0.003277
v -0.265029 0.319145 -0.609842
v -0.265029 0.004390 0.002258
v -0.264294 0.316993 -0.610949
v -0.264294 0.002238 0.001151
v -0.264047 0.314755 -0.612100
v -0.264047 -0.000000 0.000000
v -0.264294 0.312517 -0.613251
v -0.264294 -0.002238 -0.001151
v -0.265029 0.310365 -0.614358
v -0.265029 -0.004390 -0.002258
v -0.266221 0.308381 -0.615377
v -0.266221 -0.006374 -0.003277
v -0.267825 0.306643 -0.616271
v -0.267825 -0.008112 -0.004171
v -0.269780 0.305216 -0.617005
v -0.269780 -0.009539 -0.004905
v -0.272010 0.304156 -0.617550
v -0.272010 -0.010599 -0.005450
v -0.274430 0.303503 -0.617886
v -0.274430 -0.011252 -0.005786
v -0.276947 0.303283 -0.617999
v -0.276947 -0.011472 -0.005899
v -0.279463 0.303503 -0.617886
v -0.279463 -0.011252 -0.005786
v -0.281883 0.304156 -0.617550
v -0.281883 -0.010599 -0.005450
v -0.284113 0.305216 -0.617005
v -0.284113 -0.009539 -0.004905
v -0.286068 0.306643 -0.616271
v -0.286068 -0.008112 -0.004171
v -0.287673 0.308381 -0.615377
v -0.287673 -0.006374 -0.003277
v -0.288865 0.310365 -0.614358
v -0.288865 -0.004390 -0.002258
v -0.289599 0.312517 -0.613251
v -0.289599 -0.002238 -0.001151
v -0.289847 0.314755 -0.612100
v -0.289847 -0.000000 0.000000
v -0.289599 0.316993 -0.610949
v -0.289599 0.002238 0.001151
v -0.288865 0.319145 -0.609842
v -0.288865 0.004390 0.002258
v -0.287673 0.321128 -0.608823
v -0.287673 0.006374 0.003277
v -0.286068 0.322867 -0.607929
v -0.286068 0.008112 0.004171
v -0.284113 0.324293 -0.607195
v -0.284113 0.009539 0.004905
v -0.281883 0.325354 -0.606650
v -0.281883 0.010599 0.005450
v -0.279463 0.326006 -0.606314
v -0.279463 0.011252 0.005786
v 0.276947 0.326227 -0.606201
v 0.276947 0.011472 0.005899
v 0.279463 0.326006 -0.606314
v 0.279463 0.011252 0.005786
v 0.281883 0.325354 -0.606650
v 0.281883 0.010599 0.005450
v 0.284113 0.324293 -0.607195
v 0.284113 0.009539 0.004905
v 0.286068 0.322867 -0.607929
v 0.286068 0.008112 0.004171
v 0.287673 0.321128 -0.608823
v 0.287673 0.006374 0.003277
v 0.288865 0.319145 -0.609842
v 0.288865 0.004390 0.002258
v 0.289599 0.316993 -0.610949
v 0.289599 0.002238 0.001151
v 0.289847 0.314755 -0.612100
v 0.289847 -0.000000 0.000000
v 0.289599 0.312517 -0.613251
v 0.289599 -0.002238 -0.001151
v 0.288865 0.310365 -0.614358
v 0.288865 -0.004390 -0.002258
v 0.287673 0.308381 -0.615377
v 0.287673 -0.006374 -0.003277
v 0.286068 0.306643 -0.616271
v 0.286068 -0.008112 -0.004171
v 0.284113 0.305216 -0.617005
v 0.284113 -0.009539 -0.004905
v 0.281883 0.304156 -0.617550
v 0.281883 -0.010599 -0.005450
v 0.279463 0.303503 -0.617886
v 0.279463 -0.011252 -0.005786
v 0.276947 0.303283 -0.617999
v 0.276947 -0.011472 -0.005899
v 0.274430 0.303503 -0.617886
v 0.274430 -0.011252 -0.005786
v 0.272010 0.304156 -0.617550
v 0.272010 -0.010599 -0.005450
v 0.269780 0.305216 -0.617005
v 0.269780 -0.009539 -0.004905
v 0.267825 0.306643 -0.616271
v 0.267825 -0.008112 -0.004171
v 0.266221 0.308381 -0.615377
v 0.266221 -0.006374 -0.003277
v 0.265029 0.310365 -0.614358
v 0.265029 -0.004390 -0.002258
v 0.264294 0.312517 -0.613251
v 0.264294 -0.002238 -0.001151
v 0.264047 0.314755 -0.612100
v 0.264047 -0.000000 0.000000
v 0.264294 0.316993 -0.610949
v 0.264294 0.002238 0.001151
v 0.265029 0.319145 -0.609842
v 0.265029 0.004390 0.002258
v 0.266221 0.321128 -0.608823
v 0.266221 0.006374 0.003277
v 0.267825 0.322867 -0.607929
v 0.267825 0.008112 0.004171
v 0.269780 0.324293 -0.607195
v 0.269780 0.009539 0.004905
v 0.272010 0.325354 -0.606650
v 0.272010 0.010599 0.005450
v 0.274430 0.326006 -0.606314
v 0.274430 0.011252 0.005786
v -0.276947 0.203117 -0.384938
v 0.276947 0.203117 -0.384938
v -0.276947 0.205080 -0.385131
v 0.276947 0.205080 -0.385131
v -0.276947 0.206968 -0.385704
v 0.276947 0.206968 -0.385704
v -0.276947 0.208707 -0.386634
v 0.276947 0.208707 -0.386634
v -0.276947 0.210232 -0.387885
v 0.276947 0.210232 -0.387885
v -0.276947 0.211484 -0.389410
v 0.276947 0.211484 -0.389410
v -0.276947 0.212413 -0.391149
v 0.276947 0.212413 -0.391149
v -0.276947 0.212986 -0.393037
v 0.276947 0.212986 -0.393037
v -0.276947 0.213179 -0.395000
v 0.276947 0.213179 -0.395000
v -0.276947 0.212986 -0.396963
v 0.276947 0.212986 -0.396963
v -0.276947 0.212413 -0.398851
v 0.276947 0.212413 -0.398851
v -0.276947 0.211484 -0.400590
v 0.276947 0.211484 -0.400590
v -0.276947 0.210232 -0.402115
v 0.276947 0.210232 -0.402115
v -0.276947 0.208707 -0.403366
v 0.276947 0.208707 -0.403366
v -0.276947 0.206968 -0.404296
v 0.276947 0.206968 -0.404296
v -0.276947 0.205080 -0.404869
v 0.276947 0.205080 -0.404869
v -0.276947 0.203117 -0.405062
v 0.276947 0.203117 -0.405062
v -0.276947 0.201154 -0.404869
v 0.276947 0.201154 -0.404869
v -0.276947 0.199267 -0.404296
v 0.276947 0.199267 -0.404296
v -0.276947 0.197527 -0.403366
v 0.276947 0.197527 -0.403366
v -0.276947 0.196002 -0.402115
v 0.276947 0.196002 -0.402115
v -0.276947 0.194751 -0.400590
v 0.276947 0.194751 -0.400590
v -0.276947 0.193821 -0.398851
v 0.276947 0.193821 -0.398851
v -0.276947 0.193249 -0.396963
v 0.276947 0.193249 -0.396963
v -0.276947 0.193055 -0.395000
v 0.276947 0.193055 -0.395000
v -0.276947 0.193249 -0.393037
v 0.276947 0.193249 -0.393037
v -0.276947 0.193821 -0.391149
v 0.276947 0.193821 -0.391149
v -0.276947 0.194751 -0.389410
v 0.276947 0.194751 -0.389410
v -0.276947 0.196002 -0.387885
v 0.276947 0.196002 -0.387885
v -0.276947 0.197527 -0.386634
v 0.276947 0.197527 -0.386634
v -0.276947 0.199267 -0.385704
v 0.276947 0.199267 -0.385704
v -0.276947 0.201154 -0.385131
v 0.276947 0.201154 -0.385131
vn -0.5754 0.2389 0.7822
vn 0.1931 0.9279 0.3190
vn -0.0000 0.9348 0.3552
vn 0.1968 0.8152 0.5447
vn 0.3811 0.8593 0.3413
vn 0.5533 0.6956 0.4583
vn 0.5480 0.8045 0.2291
vn 0.7043 0.6672 0.2426
vn 0.8281 0.4512 0.3326
vn 0.8196 0.5640 0.1007
vn 0.9202 0.3799 0.0948
vn 0.9768 0.1319 0.1684
vn 0.9706 0.2373 -0.0392
vn 0.9938 0.0511 -0.0992
vn 0.9901 -0.0669 0.1237
vn 0.9736 -0.1170 -0.1959
vn 0.9175 -0.3917 -0.0692
vn 0.9137 -0.2687 -0.3050
vn 0.8246 -0.4314 -0.3658
vn 0.7019 -0.6795 -0.2136
vn 0.6993 -0.5541 -0.4517
vn 0.5515 -0.6788 -0.4848
vn 0.3795 -0.8734 -0.3051
vn 0.3785 -0.7448 -0.5496
vn 0.1938 -0.8134 -0.5485
vn 0.1909 -0.9183 -0.3468
vn 0.0001 -0.8328 -0.5536
vn -0.0029 -0.9448 -0.3277
vn -0.1936 -0.8106 -0.5526
vn -0.3801 -0.8691 -0.3166
vn -0.3802 -0.7655 -0.5190
vn -0.5533 -0.7774 -0.2992
vn -0.5480 -0.6544 -0.5211
vn -0.7026 -0.5740 -0.4206
vn -0.7021 -0.6851 -0.1942
vn -0.8254 -0.4353 -0.3596
vn -0.9143 -0.4026 -0.0452
vn -0.9181 -0.2873 -0.2732
vn -0.9747 -0.2234 0.0105
vn -0.9726 -0.1130 -0.2034
vn -0.9901 -0.0643 0.1250
vn -0.9938 0.0510 -0.0992
vn -0.9747 0.1214 0.1879
vn -0.9711 0.2360 -0.0367
vn -0.9161 0.2784 0.2885
vn -0.9181 0.3891 0.0747
vn -0.8263 0.4400 0.3517
vn -0.8228 0.5547 0.1235
vn -0.7019 0.5690 0.4283
vn -0.6993 0.6896 0.1879
vn -0.5501 0.7964 0.2514
vn -0.5495 0.6853 0.4779
vn -0.3812 0.8592 0.3412
vn 0.0713 -0.2962 0.9524
vn 0.4985 0.3209 0.8053
vn -0.1935 0.9233 0.3316
vn 0.0030 0.9348 0.3552
vn 0.1939 0.8158 0.5449
vn 0.3801 0.7631 0.5227
vn 0.3802 0.8675 0.3207
vn 0.5521 0.6838 0.4771
vn 0.5498 0.7975 0.2484
vn 0.7020 0.5690 0.4283
vn 0.6993 0.6897 0.1880
vn 0.8254 0.5457 0.1449
vn 0.9163 0.2790 0.2874
vn 0.9137 0.4044 0.0413
vn 0.9726 0.2312 -0.0264
vn 0.9752 0.1188 0.1865
vn 0.9711 -0.1074 -0.2133
vn 0.9741 -0.2260 0.0092
vn 0.9202 -0.2980 -0.2539
vn 0.8282 -0.5330 -0.1735
vn 0.8202 -0.4123 -0.3966
vn 0.7027 -0.5739 -0.4206
vn 0.6980 -0.6887 -0.1960
vn 0.5501 -0.6678 -0.5015
vn 0.5496 -0.7873 -0.2795
vn 0.3812 -0.7774 -0.5003
vn 0.1943 -0.9096 -0.3672
vn 0.1935 -0.8069 -0.5581
vn -0.0000 -0.8328 -0.5536
vn -0.1931 -0.7993 -0.5691
vn -0.1969 -0.9172 -0.3463
vn -0.3802 -0.7655 -0.5191
vn -0.3829 -0.8680 -0.3161
vn -0.5498 -0.6660 -0.5042
vn -0.5546 -0.7843 -0.2779
vn -0.7026 -0.5739 -0.4206
vn -0.8232 -0.4249 -0.3766
vn -0.8279 -0.5398 -0.1522
vn -0.9201 -0.2981 -0.2539
vn -0.9938 0.0510 -0.0993
vn -0.9175 0.2842 0.2784
vn -0.9137 0.4043 0.0412
vn -0.8246 0.4421 0.3528
vn -0.7027 0.6759 0.2221
vn -0.6980 0.5601 0.4461
vn -0.5496 0.6853 0.4779
vn -0.3803 0.8675 0.3207
vn 0.5261 -0.1028 0.8442
vn -0.3760 0.7483 0.5465
vn -0.1940 0.9159 0.3514
vn -0.5752 0.2361 0.7832
vn 0.5848 -0.5791 0.5680
vn -0.1361 0.1932 0.9717
vn -0.1068 -0.0000 0.9943
vn 0.1068 0.1969 0.9746
vn -0.1068 0.3804 0.9186
vn 0.1111 0.3830 0.9170
vn -0.1394 0.5501 0.8234
vn 0.1068 0.5547 0.8251
vn -0.1068 0.7030 0.7031
vn 0.1361 0.7025 0.6985
vn -0.1361 0.8237 0.5504
vn 0.1068 0.8283 0.5499
vn -0.1068 0.9186 0.3805
vn 0.1394 0.9159 0.3763
vn -0.1246 0.9731 0.1936
vn 0.1067 0.9758 0.1910
vn -0.1068 0.9943 -0.0000
vn 0.1361 0.9907 -0.0028
vn -0.1361 0.9717 -0.1932
vn 0.1069 0.9746 -0.1969
vn -0.1068 0.9186 -0.3804
vn 0.1246 0.9156 -0.3824
vn -0.1394 0.8234 -0.5501
vn 0.1068 0.8250 -0.5549
vn -0.1068 0.7031 -0.7030
vn 0.1361 0.6985 -0.7025
vn -0.1361 0.5504 -0.8237
vn 0.1068 0.5498 -0.8284
vn -0.1068 0.3805 -0.9186
vn 0.1394 0.3763 -0.9159
vn -0.1111 0.1939 -0.9747
vn 0.1068 0.1911 -0.9757
vn -0.1068 -0.0000 -0.9943
vn 0.1361 -0.0028 -0.9907
vn -0.1160 -0.1937 -0.9742
vn 0.1015 -0.3807 -0.9191
vn -0.1438 -0.3787 -0.9143
vn -0.1234 -0.5513 -0.8251
vn 0.1160 -0.7023 -0.7023
vn -0.1438 -0.6997 -0.6998
vn -0.1361 -0.8237 -0.5504
vn 0.1068 -0.8283 -0.5500
vn -0.0845 -0.9206 -0.3814
vn 0.0846 -0.9773 -0.1944
vn -0.1389 -0.9713 -0.1932
vn -0.1068 -0.9943 -0.0000
vn 0.1361 -0.9907 0.0028
vn -0.1361 -0.9717 0.1932
vn 0.1067 -0.9746 0.1968
vn -0.1068 -0.9186 0.3804
vn 0.1246 -0.9156 0.3823
vn -0.1394 -0.8234 0.5501
vn 0.1068 -0.8251 0.5548
vn -0.1068 -0.7031 0.7030
vn 0.1361 -0.6985 0.7025
vn -0.1361 -0.5504 0.8237
vn 0.1068 -0.5498 0.8284
vn -0.1068 -0.3805 0.9186
vn 0.1394 -0.3763 0.9159
vn -0.1111 -0.1939 0.9747
vn 0.5782 0.4836 0.6572
vn 0.6970 0.5429 0.4684
vn 0.9114 0.2606 0.3186
vn 0.9700 -0.2393 0.0436
vn 0.8223 -0.5564 -0.1194
vn 0.5494 -0.7991 -0.2442
vn -0.1930 -0.9304 -0.3117
vn -0.8223 -0.5564 -0.1194
vn -0.3775 0.7354 0.5627
vn 0.8223 0.4209 0.3831
vn 0.3775 -0.8855 -0.2708
vn -0.9113 -0.4108 -0.0267
vn -0.1930 0.7948 0.5754
vn 0.1438 -0.1931 -0.9706
vn 0.1438 -0.5497 -0.8229
vn 0.1598 -0.9120 -0.3778
vt 1.000000 1.000000
vt 0.968750 0.500000
vt 1.000000 0.500000
vt 0.968750 1.000000
vt 0.937500 0.500000
vt 0.906250 1.000000
vt 0.906250 0.500000
vt 0.875000 0.500000
vt 0.843750 1.000000
vt 0.843750 0.500000
vt 0.812500 0.500000
vt 0.781250 1.000000
vt 0.781250 0.500000
vt 0.750000 0.500000
vt 0.750000 1.000000
vt 0.718750 0.500000
vt 0.687500 1.000000
vt 0.687500 0.500000
vt 0.656250 0.500000
vt 0.625000 1.000000
vt 0.625000 0.500000
vt 0.593750 0.500000
vt 0.562500 1.000000
vt 0.562500 0.500000
vt 0.531250 0.500000
vt 0.531250 1.000000
vt 0.500000 0.500000
vt 0.500000 1.000000
vt 0.468750 0.500000
vt 0.437500 1.000000
vt 0.437500 0.500000
vt 0.406250 1.000000
vt 0.406250 0.500000
vt 0.375000 0.500000
vt 0.375000 1.000000
vt 0.343750 0.500000
vt 0.312500 1.000000
vt 0.312500 0.500000
vt 0.281250 1.000000
vt 0.281250 0.500000
vt 0.250000 1.000000
vt 0.250000 0.500000
vt 0.218750 1.000000
vt 0.218750 0.500000
vt 0.187500 1.000000
vt 0.187500 0.500000
vt 0.156250 1.000000
vt 0.156250 0.500000
vt 0.125000 1.000000
vt 0.125000 0.500000
vt 0.093750 0.500000
vt 0.093750 1.000000
vt 0.062500 0.500000
vt 0.158156 0.028269
vt 0.471731 0.158156
vt 0.341844 0.471731
vt 0.031250 1.000000
vt 0.031250 0.500000
vt 0.000000 0.500000
vt 0.796822 0.014612
vt 0.514612 0.203178
vt 0.703178 0.485388
vt 0.937500 1.000000
vt 0.875000 1.000000
vt 0.812500 1.000000
vt 0.718750 1.000000
vt 0.656250 1.000000
vt 0.593750 1.000000
vt 0.468750 1.000000
vt 0.343750 1.000000
vt 0.062500 1.000000
vt 0.000000 1.000000
vt 0.158156 0.028269
vt 0.296822 0.485388
vt 0.250000 0.490000
vt 0.203178 0.485388
vt 0.158156 0.471731
vt 0.116663 0.449553
vt 0.080294 0.419706
vt 0.050447 0.383337
vt 0.028269 0.341844
vt 0.014612 0.296822
vt 0.010000 0.250000
vt 0.014612 0.203178
vt 0.028269 0.158156
vt 0.050447 0.116663
vt 0.080294 0.080294
vt 0.116663 0.050447
vt 0.203178 0.014612
vt 0.250000 0.010000
vt 0.296822 0.014612
vt 0.341844 0.028269
vt 0.383337 0.050447
vt 0.419706 0.080294
vt 0.449553 0.116663
vt 0.485388 0.203178
vt 0.490000 0.250000
vt 0.485388 0.296822
vt 0.471731 0.341844
vt 0.449553 0.383337
vt 0.419706 0.419706
vt 0.383337 0.449553
vt 0.750000 0.490000
vt 0.796822 0.485388
vt 0.841844 0.471731
vt 0.883337 0.449553
vt 0.919706 0.419706
vt 0.949553 0.383337
vt 0.971731 0.341844
vt 0.985388 0.296822
vt 0.990000 0.250000
vt 0.985388 0.203178
vt 0.971731 0.158156
vt 0.949553 0.116663
vt 0.919706 0.080294
vt 0.883337 0.050447
vt 0.841844 0.028269
vt 0.750000 0.010000
vt 0.703178 0.014612
vt 0.658156 0.028269
vt 0.616663 0.050447
vt 0.580294 0.080294
vt 0.550447 0.116663
vt 0.528269 0.158156
vt 0.510000 0.250000
vt 0.514612 0.296822
vt 0.528269 0.341844
vt 0.550447 0.383337
vt 0.580294 0.419706
vt 0.616663 0.449553
vt 0.658156 0.471731
vt 0.028269 0.341844
vt 0.028269 0.158156
vt 0.341844 0.028269
vt 0.841844 0.028269
vt 0.658156 0.028269
s 1
usemtl charcoal_powder_coat
f 2/1/1 3/2/2 1/3/3
f 4/4/4 5/5/5 3/2/2
f 5/5/5 8/6/6 7/7/7
f 8/6/6 9/8/8 7/7/7
f 9/8/8 12/9/9 11/10/10
f 12/9/9 13/11/11 11/10/10
f 13/11/11 16/12/12 15/13/13
f 16/12/12 17/14/14 15/13/13
f 18/15/15 19/16/16 17/14/14
f 19/16/16 22/17/17 21/18/18
f 22/17/17 23/19/19 21/18/18
f 23/19/19 26/20/20 25/21/21
f 26/20/20 27/22/22 25/21/21
f 27/22/22 30/23/23 29/24/24
f 30/23/23 31/25/25 29/24/24
f 32/26/26 33/27/27 31/25/25
f 34/28/28 35/29/29 33/27/27
f 35/29/29 38/30/30 37/31/31
f 37/31/31 40/32/32 39/33/33
f 40/32/32 41/34/34 39/33/33
f 42/35/35 43/36/36 41/34/34
f 43/36/36 46/37/37 45/38/38
f 45/38/38 48/39/39 47/40/40
f 47/40/40 50/41/41 49/42/42
f 49/42/42 52/43/43 51/44/44
f 51/44/44 54/45/45 53/46/46
f 53/46/46 56/47/47 55/48/48
f 55/48/48 58/49/49 57/50/50
f 58/49/49 59/51/51 57/50/50
f 60/52/52 61/53/53 59/51/51
f 38/54/30 22/55/17 6/56/54
f 61/53/53 64/57/55 63/58/56
f 64/57/55 1/59/3 63/58/56
f 31/60/25 47/61/40 63/62/56
f 65/3/57 68/4/58 67/2/2
f 67/2/2 70/63/59 69/5/60
f 69/5/60 72/6/61 71/7/62
f 71/7/62 74/64/63 73/8/64
f 74/64/63 75/10/65 73/8/64
f 75/10/65 78/65/66 77/11/67
f 78/65/66 79/13/68 77/11/67
f 80/12/69 81/14/14 79/13/68
f 82/15/15 83/16/70 81/14/14
f 84/66/71 85/18/72 83/16/70
f 85/18/72 88/67/73 87/19/74
f 88/67/73 89/21/75 87/19/74
f 90/20/76 91/22/77 89/21/75
f 92/68/78 93/24/79 91/22/77
f 93/24/79 96/26/80 95/25/81
f 96/26/80 97/27/82 95/25/81
f 98/28/28 99/29/83 97/27/82
f 100/69/84 101/31/85 99/29/83
f 102/30/86 103/33/87 101/31/85
f 104/32/88 105/34/89 103/33/87
f 106/35/35 107/36/90 105/34/89
f 108/70/91 109/38/92 107/36/90
f 109/38/92 112/39/39 111/40/40
f 111/40/40 114/41/41 113/42/93
f 113/42/93 116/43/43 115/44/44
f 115/44/44 118/45/94 117/46/95
f 118/45/94 119/48/48 117/46/95
f 120/47/96 121/50/97 119/48/48
f 122/49/98 123/51/51 121/50/97
f 124/52/99 125/53/100 123/51/51
f 102/54/86 86/55/101 70/56/59
f 126/71/102 127/58/103 125/53/100
f 127/58/103 66/72/104 65/59/57
f 95/60/81 111/61/40 127/62/103
f 130/1/105 131/2/106 129/3/107
f 132/4/108 133/5/109 131/2/106
f 134/63/110 135/7/111 133/5/109
f 136/6/112 137/8/113 135/7/111
f 138/64/114 139/10/115 137/8/113
f 140/9/116 141/11/117 139/10/115
f 142/65/118 143/13/119 141/11/117
f 144/12/120 145/14/121 143/13/119
f 146/15/122 147/16/123 145/14/121
f 148/66/124 149/18/125 147/16/123
f 150/17/126 151/19/127 149/18/125
f 152/67/128 153/21/129 151/19/127
f 154/20/130 155/22/131 153/21/129
f 156/68/132 157/24/133 155/22/131
f 158/23/134 159/25/135 157/24/133
f 160/26/136 161/27/137 159/25/135
f 162/28/138 163/29/139 161/27/137
f 163/29/139 166/30/140 165/31/141
f 166/30/140 167/33/142 165/31/141
f 167/33/142 170/35/143 169/34/144
f 170/35/143 171/36/145 169/34/144
f 172/70/146 173/38/147 171/36/145
f 173/38/147 176/39/148 175/40/149
f 176/39/148 177/42/150 175/40/149
f 178/41/151 179/44/152 177/42/150
f 180/43/153 181/46/154 179/44/152
f 182/45/155 183/48/156 181/46/154
f 184/47/157 185/50/158 183/48/156
f 186/49/159 187/51/160 185/50/158
f 188/52/161 189/53/162 187/51/160
f 166/73/140 150/55/126 134/56/110
f 190/71/163 191/58/164 189/53/162
f 192/57/165 129/59/107 191/58/164
f 159/60/135 175/61/149 191/62/164
f 2/1/1 4/4/4 3/2/2
f 4/4/4 6/63/54 5/5/5
f 5/5/5 6/63/54 8/6/6
f 8/6/6 10/64/166 9/8/8
f 9/8/8 10/64/166 12/9/9
f 12/9/9 14/65/167 13/11/11
f 13/11/11 14/65/167 16/12/12
f 16/12/12 18/15/15 17/14/14
f 18/15/15 20/66/168 19/16/16
f 19/16/16 20/66/168 22/17/17
f 22/17/17 24/67/169 23/19/19
f 23/19/19 24/67/169 26/20/20
f 26/20/20 28/68/170 27/22/22
f 27/22/22 28/68/170 30/23/23
f 30/23/23 32/26/26 31/25/25
f 32/26/26 34/28/28 33/27/27
f 34/28/28 36/69/171 35/29/29
f 35/29/29 36/69/171 38/30/30
f 37/31/31 38/30/30 40/32/32
f 40/32/32 42/35/35 41/34/34
f 42/35/35 44/70/172 43/36/36
f 43/36/36 44/70/172 46/37/37
f 45/38/38 46/37/37 48/39/39
f 47/40/40 48/39/39 50/41/41
f 49/42/42 50/41/41 52/43/43
f 51/44/44 52/43/43 54/45/45
f 53/46/46 54/45/45 56/47/47
f 55/48/48 56/47/47 58/49/49
f 58/49/49 60/52/52 59/51/51
f 60/52/52 62/71/173 61/53/53
f 6/56/54 4/74/4 2/75/1
f 2/75/1 64/76/55 62/77/173
f 62/77/173 60/78/52 58/79/49
f 58/79/49 56/80/47 54/81/45
f 54/81/45 52/82/43 50/83/41
f 50/83/41 48/84/39 46/85/37
f 46/85/37 44/86/172 42/87/35
f 42/87/35 40/88/32 38/54/30
f 38/54/30 36/89/171 34/90/28
f 34/90/28 32/91/26 30/92/23
f 30/92/23 28/93/170 26/94/20
f 26/94/20 24/95/169 22/55/17
f 22/55/17 20/96/168 18/97/15
f 18/97/15 16/98/12 14/99/167
f 14/99/167 12/100/9 10/101/166
f 10/101/166 8/102/6 6/56/54
f 6/56/54 2/75/1 62/77/173
f 62/77/173 58/79/49 54/81/45
f 54/81/45 50/83/41 46/85/37
f 46/85/37 42/87/35 38/54/30
f 38/54/30 34/90/28 30/92/23
f 30/92/23 26/94/20 22/55/17
f 22/55/17 18/97/15 14/99/167
f 14/99/167 10/101/166 6/56/54
f 6/56/54 62/77/173 54/81/45
f 54/81/45 46/85/37 38/54/30
f 38/54/30 30/92/23 22/55/17
f 22/55/17 14/99/167 6/56/54
f 6/56/54 54/81/45 38/54/30
f 61/53/53 62/71/173 64/57/55
f 64/57/55 2/72/1 1/59/3
f 63/62/56 1/103/3 3/104/2
f 3/104/2 5/105/5 7/106/7
f 7/106/7 9/107/8 11/108/10
f 11/108/10 13/109/11 15/110/13
f 15/110/13 17/111/14 19/112/16
f 19/112/16 21/113/18 23/114/19
f 23/114/19 25/115/21 27/116/22
f 27/116/22 29/117/24 31/60/25
f 31/60/25 33/118/27 35/119/29
f 35/119/29 37/120/31 39/121/33
f 39/121/33 41/122/34 43/123/36
f 43/123/36 45/124/38 47/61/40
f 47/61/40 49/125/42 51/126/44
f 51/126/44 53/127/46 55/128/48
f 55/128/48 57/129/50 59/130/51
f 59/130/51 61/131/53 63/62/56
f 63/62/56 3/104/2 7/106/7
f 7/106/7 11/108/10 15/110/13
f 15/110/13 19/112/16 23/114/19
f 23/114/19 27/116/22 31/60/25
f 31/60/25 35/119/29 39/121/33
f 39/121/33 43/123/36 47/61/40
f 47/61/40 51/126/44 55/128/48
f 55/128/48 59/130/51 63/62/56
f 63/62/56 7/106/7 15/110/13
f 15/110/13 23/114/19 31/60/25
f 31/60/25 39/121/33 47/61/40
f 47/61/40 55/128/48 63/62/56
f 63/62/56 15/110/13 31/60/25
f 65/3/57 66/1/104 68/4/58
f 67/2/2 68/4/58 70/63/59
f 69/5/60 70/63/59 72/6/61
f 71/7/62 72/6/61 74/64/63
f 74/64/63 76/9/174 75/10/65
f 75/10/65 76/9/174 78/65/66
f 78/65/66 80/12/69 79/13/68
f 80/12/69 82/15/15 81/14/14
f 82/15/15 84/66/71 83/16/70
f 84/66/71 86/17/101 85/18/72
f 85/18/72 86/17/101 88/67/73
f 88/67/73 90/20/76 89/21/75
f 90/20/76 92/68/78 91/22/77
f 92/68/78 94/23/175 93/24/79
f 93/24/79 94/23/175 96/26/80
f 96/26/80 98/28/28 97/27/82
f 98/28/28 100/69/84 99/29/83
f 100/69/84 102/30/86 101/31/85
f 102/30/86 104/32/88 103/33/87
f 104/32/88 106/35/35 105/34/89
f 106/35/35 108/70/91 107/36/90
f 108/70/91 110/37/176 109/38/92
f 109/38/92 110/37/176 112/39/39
f 111/40/40 112/39/39 114/41/41
f 113/42/93 114/41/41 116/43/43
f 115/44/44 116/43/43 118/45/94
f 118/45/94 120/47/96 119/48/48
f 120/47/96 122/49/98 121/50/97
f 122/49/98 124/52/99 123/51/51
f 124/52/99 126/71/102 125/53/100
f 70/56/59 68/74/58 66/75/104
f 66/75/104 128/76/177 126/77/102
f 126/77/102 124/78/99 122/79/98
f 122/79/98 120/80/96 118/81/94
f 118/81/94 116/82/43 114/83/41
f 114/83/41 112/84/39 110/85/176
f 110/85/176 108/86/91 106/87/35
f 106/87/35 104/88/88 102/54/86
f 102/54/86 100/89/84 98/90/28
f 98/90/28 96/91/80 94/92/175
f 94/92/175 92/93/78 90/94/76
f 90/94/76 88/95/73 86/55/101
f 86/55/101 84/96/71 82/97/15
f 82/97/15 80/98/69 78/99/66
f 78/99/66 76/100/174 74/101/63
f 74/101/63 72/102/61 70/56/59
f 70/56/59 66/75/104 126/77/102
f 126/77/102 122/79/98 118/81/94
f 118/81/94 114/83/41 110/85/176
f 110/85/176 106/87/35 102/54/86
f 102/54/86 98/90/28 94/92/175
f 94/92/175 90/94/76 86/55/101
f 86/55/101 82/97/15 78/99/66
f 78/99/66 74/101/63 70/56/59
f 70/56/59 126/77/102 118/81/94
f 118/81/94 110/85/176 102/54/86
f 102/54/86 94/92/175 86/55/101
f 86/55/101 78/99/66 70/56/59
f 70/56/59 118/81/94 102/54/86
f 126/71/102 128/57/177 127/58/103
f 127/58/103 128/57/177 66/72/104
f 127/62/103 65/103/57 67/104/2
f 67/104/2 69/105/60 71/106/62
f 71/106/62 73/107/64 75/108/65
f 75/108/65 77/109/67 79/110/68
f 79/110/68 81/111/14 83/112/70
f 83/112/70 85/113/72 87/114/74
f 87/114/74 89/115/75 91/116/77
f 91/116/77 93/117/79 95/60/81
f 95/60/81 97/118/82 99/119/83
f 99/119/83 101/120/85 103/121/87
f 103/121/87 105/122/89 107/123/90
f 107/123/90 109/124/92 111/61/40
f 111/61/40 113/125/93 115/126/44
f 115/126/44 117/127/95 119/128/48
f 119/128/48 121/129/97 123/130/51
f 123/130/51 125/131/100 127/62/103
f 127/62/103 67/104/2 71/106/62
f 71/106/62 75/108/65 79/110/68
f 79/110/68 83/112/70 87/114/74
f 87/114/74 91/116/77 95/60/81
f 95/60/81 99/119/83 103/121/87
f 103/121/87 107/123/90 111/61/40
f 111/61/40 115/126/44 119/128/48
f 119/128/48 123/130/51 127/62/103
f 127/62/103 71/106/62 79/110/68
f 79/110/68 87/114/74 95/60/81
f 95/60/81 103/121/87 111/61/40
f 111/61/40 119/128/48 127/62/103
f 127/62/103 79/110/68 95/60/81
f 130/1/105 132/4/108 131/2/106
f 132/4/108 134/63/110 133/5/109
f 134/63/110 136/6/112 135/7/111
f 136/6/112 138/64/114 137/8/113
f 138/64/114 140/9/116 139/10/115
f 140/9/116 142/65/118 141/11/117
f 142/65/118 144/12/120 143/13/119
f 144/12/120 146/15/122 145/14/121
f 146/15/122 148/66/124 147/16/123
f 148/66/124 150/17/126 149/18/125
f 150/17/126 152/67/128 151/19/127
f 152/67/128 154/20/130 153/21/129
f 154/20/130 156/68/132 155/22/131
f 156/68/132 158/23/134 157/24/133
f 158/23/134 160/26/136 159/25/135
f 160/26/136 162/28/138 161/27/137
f 162/28/138 164/69/178 163/29/139
f 163/29/139 164/69/178 166/30/140
f 166/30/140 168/32/179 167/33/142
f 167/33/142 168/32/179 170/35/143
f 170/35/143 172/70/146 171/36/145
f 172/70/146 174/37/180 173/38/147
f 173/38/147 174/37/180 176/39/148
f 176/39/148 178/41/151 177/42/150
f 178/41/151 180/43/153 179/44/152
f 180/43/153 182/45/155 181/46/154
f 182/45/155 184/47/157 183/48/156
f 184/47/157 186/49/159 185/50/158
f 186/49/159 188/52/161 187/51/160
f 188/52/161 190/71/163 189/53/162
f 134/56/110 132/74/108 130/75/105
f 130/75/105 192/76/165 190/77/163
f 190/77/163 188/78/161 186/79/159
f 186/79/159 184/80/157 182/132/155
f 182/132/155 180/82/153 178/83/151
f 178/83/151 176/84/148 174/133/180
f 174/133/180 172/86/146 170/87/143
f 170/87/143 168/88/179 166/73/140
f 166/73/140 164/89/178 162/90/138
f 162/90/138 160/91/136 158/134/134
f 158/134/134 156/93/132 154/94/130
f 154/94/130 152/95/128 150/55/126
f 150/55/126 148/96/124 146/97/122
f 146/97/122 144/98/120 142/99/118
f 142/99/118 140/100/116 138/101/114
f 138/101/114 136/102/112 134/56/110
f 134/56/110 130/75/105 190/77/163
f 190/77/163 186/79/159 182/132/155
f 182/132/155 178/83/151 174/133/180
f 174/133/180 170/87/143 166/73/140
f 166/73/140 162/90/138 158/134/134
f 158/134/134 154/94/130 150/55/126
f 150/55/126 146/97/122 142/99/118
f 142/99/118 138/101/114 134/56/110
f 134/56/110 190/77/163 182/132/155
f 182/132/155 174/133/180 166/73/140
f 166/73/140 158/134/134 150/55/126
f 150/55/126 142/99/118 134/56/110
f 134/56/110 182/132/155 166/73/140
f 190/71/163 192/57/165 191/58/164
f 192/57/165 130/72/105 129/59/107
f 191/62/164 129/103/107 131/104/106
f 131/104/106 133/105/109 135/106/111
f 135/106/111 137/107/113 139/108/115
f 139/108/115 141/109/117 143/110/119
f 143/110/119 145/111/121 147/112/123
f 147/112/123 149/113/125 151/114/127
f 151/114/127 153/115/129 155/116/131
f 155/116/131 157/135/133 159/60/135
f 159/60/135 161/118/137 163/119/139
f 163/119/139 165/136/141 167/121/142
f 167/121/142 169/122/144 171/123/145
f 171/123/145 173/124/147 175/61/149
f 175/61/149 177/125/150 179/126/152
f 179/126/152 181/127/154 183/128/156
f 183/128/156 185/129/158 187/130/160
f 187/130/160 189/131/162 191/62/164
f 191/62/164 131/104/106 135/106/111
f 135/106/111 139/108/115 143/110/119
f 143/110/119 147/112/123 151/114/127
f 151/114/127 155/116/131 159/60/135
f 159/60/135 163/119/139 167/121/142
f 167/121/142 171/123/145 175/61/149
f 175/61/149 179/126/152 183/128/156
f 183/128/156 187/130/160 191/62/164
f 191/62/164 135/106/111 143/110/119
f 143/110/119 151/114/127 159/60/135
f 159/60/135 167/121/142 175/61/149
f 175/61/149 183/128/156 191/62/164
f 191/62/164 143/110/119 159/60/135
o rear_foot_plug_-1
v -0.276947 0.245138 -1.237939
v -0.276947 0.240336 -1.228601
v -0.274317 0.244908 -1.238057
v -0.274317 0.240106 -1.228719
v -0.271788 0.244226 -1.238408
v -0.271788 0.239424 -1.229070
v -0.269457 0.243118 -1.238978
v -0.269457 0.238316 -1.229640
v -0.267414 0.241627 -1.239744
v -0.267414 0.236825 -1.230407
v -0.265738 0.239810 -1.240678
v -0.265738 0.235008 -1.231341
v -0.264492 0.237738 -1.241744
v -0.264492 0.232936 -1.232406
v -0.263725 0.235489 -1.242901
v -0.263725 0.230687 -1.233563
v -0.263466 0.233150 -1.244103
v -0.263466 0.228348 -1.234766
v -0.263725 0.230811 -1.245306
v -0.263725 0.226009 -1.235968
v -0.264492 0.228562 -1.246462
v -0.264492 0.223760 -1.237125
v -0.265738 0.226489 -1.247528
v -0.265738 0.221688 -1.238191
v -0.267414 0.224673 -1.248462
v -0.267414 0.219871 -1.239125
v -0.269457 0.223182 -1.249229
v -0.269457 0.218380 -1.239891
v -0.271788 0.222074 -1.249799
v -0.271788 0.217272 -1.240461
v -0.274317 0.221392 -1.250150
v -0.274317 0.216590 -1.240812
v -0.276947 0.221161 -1.250268
v -0.276947 0.216360 -1.240930
v -0.279576 0.221392 -1.250150
v -0.279576 0.216590 -1.240812
v -0.282105 0.222074 -1.249799
v -0.282105 0.217272 -1.240461
v -0.284436 0.223182 -1.249229
v -0.284436 0.218380 -1.239891
v -0.286479 0.224673 -1.248462
v -0.286479 0.219871 -1.239125
v -0.288155 0.226489 -1.247528
v -0.288155 0.221688 -1.238191
v -0.289401 0.228562 -1.246462
v -0.289401 0.223760 -1.237125
v -0.290168 0.230811 -1.245306
v -0.290168 0.226009 -1.235968
v -0.290427 0.233150 -1.244103
v -0.290427 0.228348 -1.234766
v -0.290168 0.235489 -1.242901
v -0.290168 0.230687 -1.233563
v -0.289401 0.237738 -1.241744
v -0.289401 0.232936 -1.232406
v -0.288155 0.239810 -1.240678
v -0.288155 0.235008 -1.231341
v -0.286479 0.241627 -1.239744
v -0.286479 0.236825 -1.230407
v -0.284436 0.243118 -1.238978
v -0.284436 0.238316 -1.229640
v -0.282105 0.244226 -1.238408
v -0.282105 0.239424 -1.229070
v -0.279576 0.244908 -1.238057
v -0.279576 0.240106 -1.228719
vn 0.6571 0.0718 0.7504
vn 0.0126 0.5127 -0.8584
vn -0.0001 0.5413 -0.8408
vn 0.0184 -0.4180 0.9083
vn 0.0371 0.5348 -0.8442
vn 0.0511 0.5234 -0.8506
vn -0.1459 -0.2708 0.9515
vn 0.0195 0.4745 -0.8800
vn 0.0448 -0.4304 0.9015
vn 0.0733 0.4991 -0.8635
vn 0.0678 -0.4312 0.8997
vn 0.0895 0.4881 -0.8682
vn 0.0731 0.4690 -0.8802
vn 0.0343 -0.2297 0.9727
vn 0.0537 0.4567 -0.8880
vn 0.1139 -0.2469 0.9623
vn 0.0864 0.4402 -0.8937
vn 0.1237 -0.2576 0.9583
vn 0.0496 0.4384 -0.8974
vn 0.1789 -0.2934 0.9391
vn 0.0765 0.4099 -0.9089
vn 0.1943 -0.3139 0.9294
vn 0.0379 0.4229 -0.9054
vn 0.2365 -0.3760 0.8959
vn 0.0490 0.3904 -0.9194
vn 0.2353 -0.3899 0.8903
vn 0.0106 0.4344 -0.9007
vn 0.0053 -0.4813 0.8766
vn 0.0141 0.3933 -0.9193
vn -0.0000 0.4325 -0.9016
vn -0.0055 -0.4812 0.8766
vn -0.0236 0.3485 -0.9370
vn -0.0205 0.4126 -0.9107
vn 0.1780 -0.5912 0.7866
vn -0.0407 0.4019 -0.9148
vn -0.0456 -0.4971 0.8665
vn -0.0685 0.3942 -0.9165
vn -0.0733 0.4120 -0.9082
vn 0.0604 -0.6529 0.7551
vn -0.0255 0.4477 -0.8938
vn -0.0271 -0.4619 0.8865
vn -0.0895 0.4396 -0.8937
vn -0.0537 0.4566 -0.8880
vn -0.1140 -0.6393 0.7605
vn -0.0864 0.4708 -0.8780
vn -0.1237 -0.6296 0.7670
vn -0.0496 0.4749 -0.8786
vn -0.1789 -0.5931 0.7850
vn -0.0610 0.4923 -0.8683
vn -0.0625 -0.4003 0.9142
vn -0.0379 0.4904 -0.8707
vn -0.0298 -0.4169 0.9084
vn -0.0490 0.5207 -0.8523
vn -0.0278 -0.3957 0.9179
vn -0.0371 0.5348 -0.8442
vn -0.0092 0.4981 -0.8671
vn 0.0191 -0.3707 0.9286
vn 0.0855 -0.3780 0.9219
vn 0.0443 -0.5495 0.8343
vn -0.0001 -0.5614 0.8275
vn -0.0536 -0.5269 0.8482
vn -0.1071 -0.4936 0.8631
vn -0.0804 -0.4070 0.9099
vn -0.0189 -0.3706 0.9286
vt 1.000000 1.000000
vt 0.968750 0.500000
vt 1.000000 0.500000
vt 0.937500 1.000000
vt 0.937500 0.500000
vt 0.906250 0.500000
vt 0.906250 1.000000
vt 0.875000 0.500000
vt 0.843750 1.000000
vt 0.843750 0.500000
vt 0.812500 1.000000
vt 0.812500 0.500000
vt 0.781250 0.500000
vt 0.781250 1.000000
vt 0.750000 0.500000
vt 0.750000 1.000000
vt 0.718750 0.500000
vt 0.718750 1.000000
vt 0.687500 0.500000
vt 0.687500 1.000000
vt 0.656250 0.500000
vt 0.656250 1.000000
vt 0.625000 0.500000
vt 0.625000 1.000000
vt 0.593750 0.500000
vt 0.593750 1.000000
vt 0.562500 0.500000
vt 0.531250 1.000000
vt 0.531250 0.500000
vt 0.500000 0.500000
vt 0.468750 1.000000
vt 0.468750 0.500000
vt 0.437500 0.500000
vt 0.437500 1.000000
vt 0.406250 0.500000
vt 0.375000 1.000000
vt 0.375000 0.500000
vt 0.343750 0.500000
vt 0.343750 1.000000
vt 0.312500 0.500000
vt 0.281250 1.000000
vt 0.281250 0.500000
vt 0.250000 0.500000
vt 0.250000 1.000000
vt 0.218750 0.500000
vt 0.218750 1.000000
vt 0.187500 0.500000
vt 0.187500 1.000000
vt 0.156250 0.500000
vt 0.125000 1.000000
vt 0.125000 0.500000
vt 0.093750 1.000000
vt 0.093750 0.500000
vt 0.062500 1.000000
vt 0.062500 0.500000
vt 0.158156 0.028269
vt 0.471731 0.158156
vt 0.341844 0.471731
vt 0.031250 0.500000
vt 0.000000 1.000000
vt 0.000000 0.500000
vt 0.796822 0.014612
vt 0.514612 0.203178
vt 0.703178 0.485388
vt 0.968750 1.000000
vt 0.875000 1.000000
vt 0.562500 1.000000
vt 0.500000 1.000000
vt 0.406250 1.000000
vt 0.312500 1.000000
vt 0.156250 1.000000
vt 0.296822 0.485388
vt 0.250000 0.490000
vt 0.203178 0.485388
vt 0.158156 0.471731
vt 0.116663 0.449553
vt 0.080294 0.419706
vt 0.050447 0.383337
vt 0.028269 0.341844
vt 0.014612 0.296822
vt 0.010000 0.250000
vt 0.014612 0.203178
vt 0.028269 0.158156
vt 0.050447 0.116663
vt 0.080294 0.080294
vt 0.116663 0.050447
vt 0.203178 0.014612
vt 0.250000 0.010000
vt 0.296822 0.014612
vt 0.341844 0.028269
vt 0.383337 0.050447
vt 0.419706 0.080294
vt 0.449553 0.116663
vt 0.485388 0.203178
vt 0.490000 0.250000
vt 0.485388 0.296822
vt 0.471731 0.341844
vt 0.449553 0.383337
vt 0.419706 0.419706
vt 0.383337 0.449553
vt 0.031250 1.000000
vt 0.750000 0.490000
vt 0.796822 0.485388
vt 0.841844 0.471731
vt 0.883337 0.449553
vt 0.919706 0.419706
vt 0.949553 0.383337
vt 0.971731 0.341844
vt 0.985388 0.296822
vt 0.990000 0.250000
vt 0.985388 0.203178
vt 0.971731 0.158156
vt 0.949553 0.116663
vt 0.919706 0.080294
vt 0.883337 0.050447
vt 0.841844 0.028269
vt 0.750000 0.010000
vt 0.703178 0.014612
vt 0.658156 0.028269
vt 0.616663 0.050447
vt 0.580294 0.080294
vt 0.550447 0.116663
vt 0.528269 0.158156
vt 0.510000 0.250000
vt 0.514612 0.296822
vt 0.528269 0.341844
vt 0.550447 0.383337
vt 0.580294 0.419706
vt 0.616663 0.449553
vt 0.658156 0.471731
s 1
usemtl black_foot_plugs
f 194/137/181 195/138/182 193/139/183
f 195/138/182 198/140/184 197/141/185
f 198/140/184 199/142/186 197/141/185
f 200/143/187 201/144/188 199/142/186
f 201/144/188 204/145/189 203/146/190
f 203/146/190 206/147/191 205/148/192
f 206/147/191 207/149/193 205/148/192
f 208/150/194 209/151/195 207/149/193
f 210/152/196 211/153/197 209/151/195
f 212/154/198 213/155/199 211/153/197
f 214/156/200 215/157/201 213/155/199
f 216/158/202 217/159/203 215/157/201
f 218/160/204 219/161/205 217/159/203
f 220/162/206 221/163/207 219/161/205
f 221/163/207 224/164/208 223/165/209
f 224/164/208 225/166/210 223/165/209
f 225/166/210 228/167/211 227/168/212
f 228/167/211 229/169/213 227/168/212
f 230/170/214 231/171/215 229/169/213
f 231/171/215 234/172/216 233/173/217
f 234/172/216 235/174/218 233/173/217
f 236/175/219 237/176/220 235/174/218
f 237/176/220 240/177/221 239/178/222
f 240/177/221 241/179/223 239/178/222
f 242/180/224 243/181/225 241/179/223
f 244/182/226 245/183/227 243/181/225
f 246/184/228 247/185/229 245/183/227
f 247/185/229 250/186/230 249/187/231
f 249/187/231 252/188/232 251/189/233
f 251/189/233 254/190/234 253/191/235
f 230/192/214 214/193/200 198/194/184
f 254/190/234 255/195/236 253/191/235
f 255/195/236 194/196/181 193/197/183
f 223/198/209 239/199/222 255/200/236
f 194/137/181 196/201/237 195/138/182
f 195/138/182 196/201/237 198/140/184
f 198/140/184 200/143/187 199/142/186
f 200/143/187 202/202/238 201/144/188
f 201/144/188 202/202/238 204/145/189
f 203/146/190 204/145/189 206/147/191
f 206/147/191 208/150/194 207/149/193
f 208/150/194 210/152/196 209/151/195
f 210/152/196 212/154/198 211/153/197
f 212/154/198 214/156/200 213/155/199
f 214/156/200 216/158/202 215/157/201
f 216/158/202 218/160/204 217/159/203
f 218/160/204 220/162/206 219/161/205
f 220/162/206 222/203/239 221/163/207
f 221/163/207 222/203/239 224/164/208
f 224/164/208 226/204/240 225/166/210
f 225/166/210 226/204/240 228/167/211
f 228/167/211 230/170/214 229/169/213
f 230/170/214 232/205/241 231/171/215
f 231/171/215 232/205/241 234/172/216
f 234/172/216 236/175/219 235/174/218
f 236/175/219 238/206/242 237/176/220
f 237/176/220 238/206/242 240/177/221
f 240/177/221 242/180/224 241/179/223
f 242/180/224 244/182/226 243/181/225
f 244/182/226 246/184/228 245/183/227
f 246/184/228 248/207/243 247/185/229
f 247/185/229 248/207/243 250/186/230
f 249/187/231 250/186/230 252/188/232
f 251/189/233 252/188/232 254/190/234
f 198/194/184 196/208/237 194/209/181
f 194/209/181 256/210/244 254/211/234
f 254/211/234 252/212/232 250/213/230
f 250/213/230 248/214/243 246/215/228
f 246/215/228 244/216/226 242/217/224
f 242/217/224 240/218/221 238/219/242
f 238/219/242 236/220/219 234/221/216
f 234/221/216 232/222/241 230/192/214
f 230/192/214 228/223/211 226/224/240
f 226/224/240 224/225/208 222/226/239
f 222/226/239 220/227/206 218/228/204
f 218/228/204 216/229/202 214/193/200
f 214/193/200 212/230/198 210/231/196
f 210/231/196 208/232/194 206/233/191
f 206/233/191 204/234/189 202/235/238
f 202/235/238 200/236/187 198/194/184
f 198/194/184 194/209/181 254/211/234
f 254/211/234 250/213/230 246/215/228
f 246/215/228 242/217/224 238/219/242
f 238/219/242 234/221/216 230/192/214
f 230/192/214 226/224/240 222/226/239
f 222/226/239 218/228/204 214/193/200
f 214/193/200 210/231/196 206/233/191
f 206/233/191 202/235/238 198/194/184
f 198/194/184 254/211/234 246/215/228
f 246/215/228 238/219/242 230/192/214
f 230/192/214 222/226/239 214/193/200
f 214/193/200 206/233/191 198/194/184
f 198/194/184 246/215/228 230/192/214
f 254/190/234 256/237/244 255/195/236
f 255/195/236 256/237/244 194/196/181
f 255/200/236 193/238/183 195/239/182
f 195/239/182 197/240/185 199/241/186
f 199/241/186 201/242/188 203/243/190
f 203/243/190 205/244/192 207/245/193
f 207/245/193 209/246/195 211/247/197
f 211/247/197 213/248/199 215/249/201
f 215/249/201 217/250/203 219/251/205
f 219/251/205 221/252/207 223/198/209
f 223/198/209 225/253/210 227/254/212
f 227/254/212 229/255/213 231/256/215
f 231/256/215 233/257/217 235/258/218
f 235/258/218 237/259/220 239/199/222
f 239/199/222 241/260/223 243/261/225
f 243/261/225 245/262/227 247/263/229
f 247/263/229 249/264/231 251/265/233
f 251/265/233 253/266/235 255/200/236
f 255/200/236 195/239/182 199/241/186
f 199/241/186 203/243/190 207/245/193
f 207/245/193 211/247/197 215/249/201
f 215/249/201 219/251/205 223/198/209
f 223/198/209 227/254/212 231/256/215
f 231/256/215 235/258/218 239/199/222
f 239/199/222 243/261/225 247/263/229
f 247/263/229 251/265/233 255/200/236
f 255/200/236 199/241/186 207/245/193
f 207/245/193 215/249/201 223/198/209
f 223/198/209 231/256/215 239/199/222
f 239/199/222 247/263/229 255/200/236
f 255/200/236 207/245/193 223/198/209
o rear_foot_plug_1
v 0.276947 0.245138 -1.237939
v 0.276947 0.240336 -1.228601
v 0.279576 0.244908 -1.238057
v 0.279576 0.240106 -1.228719
v 0.282105 0.244226 -1.238408
v 0.282105 0.239424 -1.229070
v 0.284436 0.243118 -1.238978
v 0.284436 0.238316 -1.229640
v 0.286479 0.241627 -1.239744
v 0.286479 0.236825 -1.230407
v 0.288155 0.239810 -1.240678
v 0.288155 0.235008 -1.231341
v 0.289401 0.237738 -1.241744
v 0.289401 0.232936 -1.232406
v 0.290168 0.235489 -1.242901
v 0.290168 0.230687 -1.233563
v 0.290427 0.233150 -1.244103
v 0.290427 0.228348 -1.234766
v 0.290168 0.230811 -1.245306
v 0.290168 0.226009 -1.235968
v 0.289401 0.228562 -1.246462
v 0.289401 0.223760 -1.237125
v 0.288155 0.226489 -1.247528
v 0.288155 0.221688 -1.238191
v 0.286479 0.224673 -1.248462
v 0.286479 0.219871 -1.239125
v 0.284436 0.223182 -1.249229
v 0.284436 0.218380 -1.239891
v 0.282105 0.222074 -1.249799
v 0.282105 0.217272 -1.240461
v 0.279576 0.221392 -1.250150
v 0.279576 0.216590 -1.240812
v 0.276947 0.221161 -1.250268
v 0.276947 0.216360 -1.240930
v 0.274317 0.221392 -1.250150
v 0.274317 0.216590 -1.240812
v 0.271788 0.222074 -1.249799
v 0.271788 0.217272 -1.240461
v 0.269457 0.223182 -1.249229
v 0.269457 0.218380 -1.239891
v 0.267414 0.224673 -1.248462
v 0.267414 0.219871 -1.239125
v 0.265738 0.226489 -1.247528
v 0.265738 0.221688 -1.238191
v 0.264492 0.228562 -1.246462
v 0.264492 0.223760 -1.237125
v 0.263725 0.230811 -1.245306
v 0.263725 0.226009 -1.235968
v 0.263466 0.233150 -1.244103
v 0.263466 0.228348 -1.234766
v 0.263725 0.235489 -1.242901
v 0.263725 0.230687 -1.233563
v 0.264492 0.237738 -1.241744
v 0.264492 0.232936 -1.232406
v 0.265738 0.239810 -1.240678
v 0.265738 0.235008 -1.231341
v 0.267414 0.241627 -1.239744
v 0.267414 0.236825 -1.230407
v 0.269457 0.243118 -1.238978
v 0.269457 0.238316 -1.229640
v 0.271788 0.244226 -1.238408
v 0.271788 0.239424 -1.229070
v 0.274317 0.244908 -1.238057
v 0.274317 0.240106 -1.228719
vn 0.6571 0.0718 0.7504
vn 0.0126 0.5127 -0.8584
vn -0.0001 0.5413 -0.8408
vn 0.0184 -0.4180 0.9083
vn 0.0371 0.5348 -0.8442
vn 0.0511 0.5234 -0.8506
vn -0.1459 -0.2708 0.9515
vn 0.0195 0.4745 -0.8800
vn 0.0448 -0.4304 0.9015
vn 0.0733 0.4991 -0.8635
vn 0.0678 -0.4312 0.8997
vn 0.0895 0.4881 -0.8682
vn 0.0731 0.4690 -0.8802
vn 0.0343 -0.2297 0.9727
vn 0.0537 0.4567 -0.8880
vn 0.1139 -0.2469 0.9623
vn 0.0864 0.4402 -0.8937
vn 0.1237 -0.2576 0.9583
vn 0.0496 0.4384 -0.8974
vn 0.1789 -0.2934 0.9391
vn 0.0765 0.4099 -0.9089
vn 0.1943 -0.3139 0.9294
vn 0.0379 0.4229 -0.9054
vn 0.2365 -0.3760 0.8959
vn 0.0490 0.3904 -0.9194
vn 0.2353 -0.3899 0.8903
vn 0.0106 0.4344 -0.9007
vn 0.0053 -0.4813 0.8766
vn 0.0141 0.3933 -0.9193
vn -0.0000 0.4325 -0.9016
vn -0.0055 -0.4812 0.8766
vn -0.0236 0.3485 -0.9370
vn -0.0205 0.4126 -0.9107
vn 0.1780 -0.5912 0.7866
vn -0.0407 0.4019 -0.9148
vn -0.0456 -0.4971 0.8665
vn -0.0685 0.3942 -0.9165
vn -0.0733 0.4120 -0.9082
vn 0.0604 -0.6529 0.7551
vn -0.0255 0.4477 -0.8938
vn -0.0271 -0.4619 0.8865
vn -0.0895 0.4396 -0.8937
vn -0.0537 0.4566 -0.8880
vn -0.1140 -0.6393 0.7605
vn -0.0864 0.4708 -0.8780
vn -0.1237 -0.6296 0.7670
vn -0.0496 0.4749 -0.8786
vn -0.1789 -0.5931 0.7850
vn -0.0610 0.4923 -0.8683
vn -0.0625 -0.4003 0.9142
vn -0.0379 0.4904 -0.8707
vn -0.0298 -0.4169 0.9084
vn -0.0490 0.5207 -0.8523
vn -0.0278 -0.3957 0.9179
vn -0.0371 0.5348 -0.8442
vn -0.0092 0.4981 -0.8671
vn 0.0191 -0.3707 0.9286
vn 0.0855 -0.3780 0.9219
vn 0.0443 -0.5495 0.8343
vn -0.0001 -0.5614 0.8275
vn -0.0536 -0.5269 0.8482
vn -0.1071 -0.4936 0.8631
vn -0.0804 -0.4070 0.9099
vn -0.0189 -0.3706 0.9286
vt 1.000000 1.000000
vt 0.968750 0.500000
vt 1.000000 0.500000
vt 0.937500 1.000000
vt 0.937500 0.500000
vt 0.906250 0.500000
vt 0.906250 1.000000
vt 0.875000 0.500000
vt 0.843750 1.000000
vt 0.843750 0.500000
vt 0.812500 1.000000
vt 0.812500 0.500000
vt 0.781250 0.500000
vt 0.781250 1.000000
vt 0.750000 0.500000
vt 0.750000 1.000000
vt 0.718750 0.500000
vt 0.718750 1.000000
vt 0.687500 0.500000
vt 0.687500 1.000000
vt 0.656250 0.500000
vt 0.656250 1.000000
vt 0.625000 0.500000
vt 0.625000 1.000000
vt 0.593750 0.500000
vt 0.593750 1.000000
vt 0.562500 0.500000
vt 0.531250 1.000000
vt 0.531250 0.500000
vt 0.500000 0.500000
vt 0.468750 1.000000
vt 0.468750 0.500000
vt 0.437500 0.500000
vt 0.437500 1.000000
vt 0.406250 0.500000
vt 0.375000 1.000000
vt 0.375000 0.500000
vt 0.343750 0.500000
vt 0.343750 1.000000
vt 0.312500 0.500000
vt 0.281250 1.000000
vt 0.281250 0.500000
vt 0.250000 0.500000
vt 0.250000 1.000000
vt 0.218750 0.500000
vt 0.218750 1.000000
vt 0.187500 0.500000
vt 0.187500 1.000000
vt 0.156250 0.500000
vt 0.125000 1.000000
vt 0.125000 0.500000
vt 0.093750 1.000000
vt 0.093750 0.500000
vt 0.062500 1.000000
vt 0.062500 0.500000
vt 0.158156 0.028269
vt 0.471731 0.158156
vt 0.341844 0.471731
vt 0.031250 0.500000
vt 0.000000 1.000000
vt 0.000000 0.500000
vt 0.796822 0.014612
vt 0.514612 0.203178
vt 0.703178 0.485388
vt 0.968750 1.000000
vt 0.875000 1.000000
vt 0.562500 1.000000
vt 0.500000 1.000000
vt 0.406250 1.000000
vt 0.312500 1.000000
vt 0.156250 1.000000
vt 0.296822 0.485388
vt 0.250000 0.490000
vt 0.203178 0.485388
vt 0.158156 0.471731
vt 0.116663 0.449553
vt 0.080294 0.419706
vt 0.050447 0.383337
vt 0.028269 0.341844
vt 0.014612 0.296822
vt 0.010000 0.250000
vt 0.014612 0.203178
vt 0.028269 0.158156
vt 0.050447 0.116663
vt 0.080294 0.080294
vt 0.116663 0.050447
vt 0.203178 0.014612
vt 0.250000 0.010000
vt 0.296822 0.014612
vt 0.341844 0.028269
vt 0.383337 0.050447
vt 0.419706 0.080294
vt 0.449553 0.116663
vt 0.485388 0.203178
vt 0.490000 0.250000
vt 0.485388 0.296822
vt 0.471731 0.341844
vt 0.449553 0.383337
vt 0.419706 0.419706
vt 0.383337 0.449553
vt 0.031250 1.000000
vt 0.750000 0.490000
vt 0.796822 0.485388
vt 0.841844 0.471731
vt 0.883337 0.449553
vt 0.919706 0.419706
vt 0.949553 0.383337
vt 0.971731 0.341844
vt 0.985388 0.296822
vt 0.990000 0.250000
vt 0.985388 0.203178
vt 0.971731 0.158156
vt 0.949553 0.116663
vt 0.919706 0.080294
vt 0.883337 0.050447
vt 0.841844 0.028269
vt 0.750000 0.010000
vt 0.703178 0.014612
vt 0.658156 0.028269
vt 0.616663 0.050447
vt 0.580294 0.080294
vt 0.550447 0.116663
vt 0.528269 0.158156
vt 0.510000 0.250000
vt 0.514612 0.296822
vt 0.528269 0.341844
vt 0.550447 0.383337
vt 0.580294 0.419706
vt 0.616663 0.449553
vt 0.658156 0.471731
s 1
usemtl black_foot_plugs
f 258/267/245 259/268/246 257/269/247
f 259/268/246 262/270/248 261/271/249
f 262/270/248 263/272/250 261/271/249
f 264/273/251 265/274/252 263/272/250
f 265/274/252 268/275/253 267/276/254
f 267/276/254 270/277/255 269/278/256
f 270/277/255 271/279/257 269/278/256
f 272/280/258 273/281/259 271/279/257
f 274/282/260 275/283/261 273/281/259
f 276/284/262 277/285/263 275/283/261
f 278/286/264 279/287/265 277/285/263
f 280/288/266 281/289/267 279/287/265
f 282/290/268 283/291/269 281/289/267
f 284/292/270 285/293/271 283/291/269
f 285/293/271 288/294/272 287/295/273
f 288/294/272 289/296/274 287/295/273
f 289/296/274 292/297/275 291/298/276
f 292/297/275 293/299/277 291/298/276
f 294/300/278 295/301/279 293/299/277
f 295/301/279 298/302/280 297/303/281
f 298/302/280 299/304/282 297/303/281
f 300/305/283 301/306/284 299/304/282
f 301/306/284 304/307/285 303/308/286
f 304/307/285 305/309/287 303/308/286
f 306/310/288 307/311/289 305/309/287
f 308/312/290 309/313/291 307/311/289
f 310/314/292 311/315/293 309/313/291
f 311/315/293 314/316/294 313/317/295
f 313/317/295 316/318/296 315/319/297
f 315/319/297 318/320/298 317/321/299
f 294/322/278 278/323/264 262/324/248
f 318/320/298 319/325/300 317/321/299
f 319/325/300 258/326/245 257/327/247
f 287/328/273 303/329/286 319/330/300
f 258/267/245 260/331/301 259/268/246
f 259/268/246 260/331/301 262/270/248
f 262/270/248 264/273/251 263/272/250
f 264/273/251 266/332/302 265/274/252
f 265/274/252 266/332/302 268/275/253
f 267/276/254 268/275/253 270/277/255
f 270/277/255 272/280/258 271/279/257
f 272/280/258 274/282/260 273/281/259
f 274/282/260 276/284/262 275/283/261
f 276/284/262 278/286/264 277/285/263
f 278/286/264 280/288/266 279/287/265
f 280/288/266 282/290/268 281/289/267
f 282/290/268 284/292/270 283/291/269
f 284/292/270 286/333/303 285/293/271
f 285/293/271 286/333/303 288/294/272
f 288/294/272 290/334/304 289/296/274
f 289/296/274 290/334/304 292/297/275
f 292/297/275 294/300/278 293/299/277
f 294/300/278 296/335/305 295/301/279
f 295/301/279 296/335/305 298/302/280
f 298/302/280 300/305/283 299/304/282
f 300/305/283 302/336/306 301/306/284
f 301/306/284 302/336/306 304/307/285
f 304/307/285 306/310/288 305/309/287
f 306/310/288 308/312/290 307/311/289
f 308/312/290 310/314/292 309/313/291
f 310/314/292 312/337/307 311/315/293
f 311/315/293 312/337/307 314/316/294
f 313/317/295 314/316/294 316/318/296
f 315/319/297 316/318/296 318/320/298
f 262/324/248 260/338/301 258/339/245
f 258/339/245 320/340/308 318/341/298
f 318/341/298 316/342/296 314/343/294
f 314/343/294 312/344/307 310/345/292
f 310/345/292 308/346/290 306/347/288
f 306/347/288 304/348/285 302/349/306
f 302/349/306 300/350/283 298/351/280
f 298/351/280 296/352/305 294/322/278
f 294/322/278 292/353/275 290/354/304
f 290/354/304 288/355/272 286/356/303
f 286/356/303 284/357/270 282/358/268
f 282/358/268 280/359/266 278/323/264
f 278/323/264 276/360/262 274/361/260
f 274/361/260 272/362/258 270/363/255
f 270/363/255 268/364/253 266/365/302
f 266/365/302 264/366/251 262/324/248
f 262/324/248 258/339/245 318/341/298
f 318/341/298 314/343/294 310/345/292
f 310/345/292 306/347/288 302/349/306
f 302/349/306 298/351/280 294/322/278
f 294/322/278 290/354/304 286/356/303
f 286/356/303 282/358/268 278/323/264
f 278/323/264 274/361/260 270/363/255
f 270/363/255 266/365/302 262/324/248
f 262/324/248 318/341/298 310/345/292
f 310/345/292 302/349/306 294/322/278
f 294/322/278 286/356/303 278/323/264
f 278/323/264 270/363/255 262/324/248
f 262/324/248 310/345/292 294/322/278
f 318/320/298 320/367/308 319/325/300
f 319/325/300 320/367/308 258/326/245
f 319/330/300 257/368/247 259/369/246
f 259/369/246 261/370/249 263/371/250
f 263/371/250 265/372/252 267/373/254
f 267/373/254 269/374/256 271/375/257
f 271/375/257 273/376/259 275/377/261
f 275/377/261 277/378/263 279/379/265
f 279/379/265 281/380/267 283/381/269
f 283/381/269 285/382/271 287/328/273
f 287/328/273 289/383/274 291/384/276
f 291/384/276 293/385/277 295/386/279
f 295/386/279 297/387/281 299/388/282
f 299/388/282 301/389/284 303/329/286
f 303/329/286 305/390/287 307/391/289
f 307/391/289 309/392/291 311/393/293
f 311/393/293 313/394/295 315/395/297
f 315/395/297 317/396/299 319/330/300
f 319/330/300 259/369/246 263/371/250
f 263/371/250 267/373/254 271/375/257
f 271/375/257 275/377/261 279/379/265
f 279/379/265 283/381/269 287/328/273
f 287/328/273 291/384/276 295/386/279
f 295/386/279 299/388/282 303/329/286
f 303/329/286 307/391/289 311/393/293
f 311/393/293 315/395/297 319/330/300
f 319/330/300 263/371/250 271/375/257
f 271/375/257 279/379/265 287/328/273
f 287/328/273 295/386/279 303/329/286
f 303/329/286 311/393/293 319/330/300
f 319/330/300 271/375/257 287/328/273
