# Blender 4.5.0
# www.blender.org
mtllib link_right_link_pivot.mtl
o right_link
v -0.003375 0.110136 0.044380
v -0.003375 0.112694 0.046188
v -0.003375 0.114698 0.048596
v -0.003375 0.116009 0.051441
v -0.003375 0.116540 0.054528
v -0.003375 0.116253 0.057648
v -0.003375 0.115169 0.060587
v -0.003375 0.113361 0.063145
v -0.003375 0.110953 0.065148
v -0.003375 0.108108 0.066460
v -0.003375 0.105021 0.066991
v -0.003375 0.101901 0.066704
v -0.003375 0.098962 0.065620
v -0.003375 -0.005587 0.010620
v -0.003375 -0.008145 0.008812
v -0.003375 -0.010148 0.006404
v -0.003375 -0.011460 0.003559
v -0.003375 -0.011991 0.000472
v -0.003375 -0.011704 -0.002648
v -0.003375 -0.010620 -0.005587
v -0.003375 -0.008812 -0.008145
v -0.003375 -0.006404 -0.010148
v -0.003375 -0.003559 -0.011460
v -0.003375 -0.000472 -0.011991
v -0.003375 0.002648 -0.011704
v -0.003375 0.005587 -0.010620
v 0.003375 0.110136 0.044380
v 0.003375 0.112694 0.046188
v 0.003375 0.114698 0.048596
v 0.003375 0.116009 0.051441
v 0.003375 0.116540 0.054528
v 0.003375 0.116253 0.057648
v 0.003375 0.115169 0.060587
v 0.003375 0.113361 0.063145
v 0.003375 0.110953 0.065148
v 0.003375 0.108108 0.066460
v 0.003375 0.105021 0.066991
v 0.003375 0.101901 0.066704
v 0.003375 0.098962 0.065620
v 0.003375 -0.005587 0.010620
v 0.003375 -0.008145 0.008812
v 0.003375 -0.010148 0.006404
v 0.003375 -0.011460 0.003559
v 0.003375 -0.011991 0.000472
v 0.003375 -0.011704 -0.002648
v 0.003375 -0.010620 -0.005587
v 0.003375 -0.008812 -0.008145
v 0.003375 -0.006404 -0.010148
v 0.003375 -0.003559 -0.011460
v 0.003375 -0.000472 -0.011991
v 0.003375 0.002648 -0.011704
v 0.003375 0.005587 -0.010620
vn -1.0000 -0.0000 -0.0000
vn -1.0000 0.0001 -0.0000
vn 1.0000 -0.0000 -0.0000
vn -0.0000 0.5771 -0.8167
vn -0.0000 0.7688 -0.6395
vn -0.0000 0.9081 -0.4187
vn -0.0000 0.9855 -0.1694
vn -0.0000 0.9958 0.0915
vn -0.0000 0.9382 0.3461
vn -0.0000 0.8167 0.5771
vn -0.0000 0.6395 0.7688
vn -0.0000 0.4187 0.9081
vn -0.0000 0.1694 0.9855
vn -0.0000 -0.0915 0.9958
vn -0.0000 -0.3461 0.9382
vn -0.0000 -0.4656 0.8850
vn -0.0000 -0.5771 0.8167
vn -0.0000 -0.7688 0.6395
vn -0.0000 -0.9081 0.4187
vn -0.0000 -0.9855 0.1694
vn -0.0000 -0.9958 -0.0915
vn -0.0000 -0.9382 -0.3461
vn -0.0000 -0.8167 -0.5771
vn -0.0000 -0.6395 -0.7688
vn -0.0000 -0.4187 -0.9081
vn -0.0000 -0.1694 -0.9855
vn -0.0000 0.0914 -0.9958
vn -0.0000 0.3461 -0.9382
vn -0.0000 0.4656 -0.8850
s 0
usemtl charcoal_powder_coat
f 26//1 25//1 24//1
f 26//1 24//1 23//1
f 26//1 23//1 22//1
f 26//1 22//1 21//1
f 26//1 21//1 20//1
f 26//1 20//1 19//1
f 26//1 19//1 18//1
f 26//1 18//1 17//1
f 26//1 17//1 16//1
f 26//1 16//1 15//1
f 26//1 15//1 14//1
f 26//1 14//1 13//1
f 26//1 13//1 12//1
f 26//1 12//1 11//1
f 26//1 11//1 10//1
f 26//1 10//1 9//1
f 26//1 9//1 8//1
f 26//1 8//1 7//1
f 26//1 7//1 6//1
f 26//1 6//1 5//1
f 26//1 5//1 4//1
f 26//1 4//1 3//1
f 26//1 3//1 2//1
f 26//2 2//2 1//2
f 27//3 28//3 29//3
f 27//3 29//3 30//3
f 27//3 30//3 31//3
f 27//3 31//3 32//3
f 27//3 32//3 33//3
f 27//3 33//3 34//3
f 27//3 34//3 35//3
f 27//3 35//3 36//3
f 27//3 36//3 37//3
f 27//3 37//3 38//3
f 27//3 38//3 39//3
f 27//3 39//3 40//3
f 27//3 40//3 41//3
f 27//3 41//3 42//3
f 27//3 42//3 43//3
f 27//3 43//3 44//3
f 27//3 44//3 45//3
f 27//3 45//3 46//3
f 27//3 46//3 47//3
f 27//3 47//3 48//3
f 27//3 48//3 49//3
f 27//3 49//3 50//3
f 27//3 50//3 51//3
f 27//3 51//3 52//3
f 1//4 2//4 28//4
f 1//4 28//4 27//4
f 2//5 3//5 29//5
f 2//5 29//5 28//5
f 3//6 4//6 30//6
f 3//6 30//6 29//6
f 4//7 5//7 31//7
f 4//7 31//7 30//7
f 5//8 6//8 32//8
f 5//8 32//8 31//8
f 6//9 7//9 33//9
f 6//9 33//9 32//9
f 7//10 8//10 34//10
f 7//10 34//10 33//10
f 8//11 9//11 35//11
f 8//11 35//11 34//11
f 9//12 10//12 36//12
f 9//12 36//12 35//12
f 10//13 11//13 37//13
f 10//13 37//13 36//13
f 11//14 12//14 38//14
f 11//14 38//14 37//14
f 12//15 13//15 39//15
f 12//15 39//15 38//15
f 13//16 14//16 40//16
f 13//16 40//16 39//16
f 14//17 15//17 41//17
f 14//17 41//17 40//17
f 15//18 16//18 42//18
f 15//18 42//18 41//18
f 16//19 17//19 43//19
f 16//19 43//19 42//19
f 17//20 18//20 44//20
f 17//20 44//20 43//20
f 18//21 19//21 45//21
f 18//21 45//21 44//21
f 19//22 20//22 46//22
f 19//22 46//22 45//22
f 20//23 21//23 47//23
f 20//23 47//23 46//23
f 21//24 22//24 48//24
f 21//24 48//24 47//24
f 22//25 23//25 49//25
f 22//25 49//25 48//25
f 23//26 24//26 50//26
f 23//26 50//26 49//26
f 24//27 25//27 51//27
f 24//27 51//27 50//27
f 25//28 26//28 52//28
f 25//28 52//28 51//28
f 26//29 1//29 27//29
f 26//29 27//29 52//29
o right_link_rivet_0
v 0.003375 0.000000 0.006426
v 0.008100 -0.000000 0.006426
v 0.003375 0.001663 0.006207
v 0.008100 0.001663 0.006207
v 0.003375 0.003213 0.005565
v 0.008100 0.003213 0.005565
v 0.003375 0.004544 0.004544
v 0.008100 0.004544 0.004544
v 0.003375 0.005565 0.003213
v 0.008100 0.005565 0.003213
v 0.003375 0.006207 0.001663
v 0.008100 0.006207 0.001663
v 0.003375 0.006426 -0.000000
v 0.008100 0.006426 0.000000
v 0.003375 0.006207 -0.001663
v 0.008100 0.006207 -0.001663
v 0.003375 0.005565 -0.003213
v 0.008100 0.005565 -0.003213
v 0.003375 0.004544 -0.004544
v 0.008100 0.004544 -0.004544
v 0.003375 0.003213 -0.005565
v 0.008100 0.003213 -0.005565
v 0.003375 0.001663 -0.006207
v 0.008100 0.001663 -0.006207
v 0.003375 0.000000 -0.006426
v 0.008100 -0.000000 -0.006426
v 0.003375 -0.001663 -0.006207
v 0.008100 -0.001663 -0.006207
v 0.003375 -0.003213 -0.005565
v 0.008100 -0.003213 -0.005565
v 0.003375 -0.004544 -0.004544
v 0.008100 -0.004544 -0.004544
v 0.003375 -0.005565 -0.003213
v 0.008100 -0.005565 -0.003213
v 0.003375 -0.006207 -0.001663
v 0.008100 -0.006207 -0.001663
v 0.003375 -0.006426 -0.000000
v 0.008100 -0.006426 0.000000
v 0.003375 -0.006207 0.001663
v 0.008100 -0.006207 0.001663
v 0.003375 -0.005565 0.003213
v 0.008100 -0.005565 0.003213
v 0.003375 -0.004544 0.004544
v 0.008100 -0.004544 0.004544
v 0.003375 -0.003213 0.005565
v 0.008100 -0.003213 0.005565
v 0.003375 -0.001663 0.006207
v 0.008100 -0.001663 0.006207
vn 0.6893 0.6092 0.3921
vn -0.9939 0.0286 0.1067
vn -0.9966 -0.0001 0.0823
vn 0.9441 -0.2585 0.2047
vn -0.9966 0.0411 0.0712
vn 0.9440 -0.1968 0.2648
vn -0.9942 0.0759 0.0759
vn 0.9440 -0.1216 0.3068
vn -0.9966 0.0713 0.0411
vn 0.9429 -0.0102 0.3329
vn -0.9939 0.1067 0.0286
vn 0.9441 0.0480 0.3262
vn -0.9983 0.0586 -0.0000
vn 0.9983 0.0566 -0.0152
vn -0.9954 0.0922 -0.0247
vn -0.9966 0.0712 -0.0411
vn 0.9430 0.2829 0.1751
vn -0.9939 0.0781 -0.0781
vn 0.9441 0.3065 0.1215
vn -0.9966 0.0411 -0.0713
vn 0.9440 0.3277 0.0380
vn -0.9942 0.0278 -0.1037
vn 0.9441 0.3262 -0.0480
vn -0.9966 -0.0000 -0.0823
vn 0.9430 0.2932 -0.1575
vn -0.9939 -0.0286 -0.1067
vn 0.9441 0.2585 -0.2047
vn -0.9966 -0.0411 -0.0712
vn 0.9432 0.1775 -0.2810
vn -0.9966 -0.0582 -0.0582
vn 0.9442 0.1214 -0.3063
vn -0.9966 -0.0712 -0.0411
vn 0.9430 0.0102 -0.3326
vn -0.9939 -0.1067 -0.0286
vn 0.9441 -0.0480 -0.3262
vn -0.9966 -0.0823 -0.0000
vn 0.9441 -0.1308 -0.3026
vn -0.9942 -0.1037 0.0278
vn 0.9441 -0.2047 -0.2585
vn -0.9966 -0.0712 0.0411
vn 0.9430 -0.2830 -0.1752
vn -0.9939 -0.0781 0.0781
vn 0.9441 -0.3065 -0.1215
vn -0.9966 -0.0411 0.0713
vn 0.9432 -0.3321 -0.0132
vn -0.9966 -0.0213 0.0795
vn 0.2395 -0.7579 0.6068
vn 0.9918 0.1278 -0.0001
vt 1.000000 1.000000
vt 0.958333 0.500000
vt 1.000000 0.500000
vt 0.958333 1.000000
vt 0.916667 0.500000
vt 0.916667 1.000000
vt 0.875000 0.500000
vt 0.875000 1.000000
vt 0.833333 0.500000
vt 0.833333 1.000000
vt 0.791667 0.500000
vt 0.791667 1.000000
vt 0.750000 0.500000
vt 0.708333 1.000000
vt 0.708333 0.500000
vt 0.666667 0.500000
vt 0.666667 1.000000
vt 0.625000 0.500000
vt 0.625000 1.000000
vt 0.583333 0.500000
vt 0.583333 1.000000
vt 0.541666 0.500000
vt 0.541666 1.000000
vt 0.500000 0.500000
vt 0.500000 1.000000
vt 0.458333 0.500000
vt 0.458333 1.000000
vt 0.416666 0.500000
vt 0.416666 1.000000
vt 0.375000 0.500000
vt 0.375000 1.000000
vt 0.333333 0.500000
vt 0.333333 1.000000
vt 0.291667 0.500000
vt 0.291667 1.000000
vt 0.250000 0.500000
vt 0.250000 1.000000
vt 0.208333 0.500000
vt 0.208333 1.000000
vt 0.166666 0.500000
vt 0.166666 1.000000
vt 0.125000 0.500000
vt 0.125000 1.000000
vt 0.083333 0.500000
vt 0.010000 0.250000
vt 0.370000 0.042154
vt 0.370000 0.457846
vt 0.083333 1.000000
vt 0.041666 0.500000
vt 0.041666 1.000000
vt -0.000000 0.500000
vt 0.981822 0.187883
vt 0.580294 0.080294
vt 0.687883 0.481822
vt 0.750000 1.000000
vt 0.312117 0.481822
vt 0.250000 0.490000
vt 0.187883 0.481822
vt 0.130000 0.457846
vt 0.080294 0.419706
vt 0.042154 0.370000
vt 0.018178 0.312117
vt 0.018178 0.187883
vt 0.042154 0.130000
vt 0.080294 0.080294
vt 0.130000 0.042154
vt 0.187883 0.018178
vt 0.250000 0.010000
vt 0.312117 0.018178
vt 0.419706 0.080294
vt 0.457846 0.130000
vt 0.481822 0.187883
vt 0.490000 0.250000
vt 0.481822 0.312117
vt 0.457846 0.370000
vt 0.419706 0.419706
vt -0.000000 1.000000
vt 0.750000 0.490000
vt 0.812117 0.481822
vt 0.870000 0.457846
vt 0.919706 0.419706
vt 0.957846 0.370000
vt 0.981822 0.312117
vt 0.990000 0.250000
vt 0.957846 0.130000
vt 0.919706 0.080294
vt 0.870000 0.042154
vt 0.812117 0.018178
vt 0.750000 0.010000
vt 0.687883 0.018178
vt 0.630000 0.042154
vt 0.542154 0.130000
vt 0.518178 0.187883
vt 0.510000 0.250000
vt 0.518178 0.312117
vt 0.542154 0.370000
vt 0.580294 0.419706
vt 0.630000 0.457846
s 1
usemtl dark_steel_rivets
f 54/1/30 55/2/31 53/3/32
f 56/4/33 57/5/34 55/2/31
f 58/6/35 59/7/36 57/5/34
f 60/8/37 61/9/38 59/7/36
f 62/10/39 63/11/40 61/9/38
f 64/12/41 65/13/42 63/11/40
f 65/13/42 68/14/43 67/15/44
f 68/14/43 69/16/45 67/15/44
f 70/17/46 71/18/47 69/16/45
f 72/19/48 73/20/49 71/18/47
f 74/21/50 75/22/51 73/20/49
f 76/23/52 77/24/53 75/22/51
f 78/25/54 79/26/55 77/24/53
f 80/27/56 81/28/57 79/26/55
f 82/29/58 83/30/59 81/28/57
f 84/31/60 85/32/61 83/30/59
f 86/33/62 87/34/63 85/32/61
f 88/35/64 89/36/65 87/34/63
f 90/37/66 91/38/67 89/36/65
f 92/39/68 93/40/69 91/38/67
f 94/41/70 95/42/71 93/40/69
f 96/43/72 97/44/73 95/42/71
f 90/45/66 74/46/50 58/47/35
f 98/48/74 99/49/75 97/44/73
f 100/50/76 53/51/32 99/49/75
f 67/52/44 83/53/59 99/54/75
f 54/1/30 56/4/33 55/2/31
f 56/4/33 58/6/35 57/5/34
f 58/6/35 60/8/37 59/7/36
f 60/8/37 62/10/39 61/9/38
f 62/10/39 64/12/41 63/11/40
f 64/12/41 66/55/77 65/13/42
f 65/13/42 66/55/77 68/14/43
f 68/14/43 70/17/46 69/16/45
f 70/17/46 72/19/48 71/18/47
f 72/19/48 74/21/50 73/20/49
f 74/21/50 76/23/52 75/22/51
f 76/23/52 78/25/54 77/24/53
f 78/25/54 80/27/56 79/26/55
f 80/27/56 82/29/58 81/28/57
f 82/29/58 84/31/60 83/30/59
f 84/31/60 86/33/62 85/32/61
f 86/33/62 88/35/64 87/34/63
f 88/35/64 90/37/66 89/36/65
f 90/37/66 92/39/68 91/38/67
f 92/39/68 94/41/70 93/40/69
f 94/41/70 96/43/72 95/42/71
f 96/43/72 98/48/74 97/44/73
f 58/47/35 56/56/33 54/57/30
f 54/57/30 100/58/76 98/59/74
f 98/59/74 96/60/72 94/61/70
f 94/61/70 92/62/68 90/45/66
f 90/45/66 88/63/64 86/64/62
f 86/64/62 84/65/60 82/66/58
f 82/66/58 80/67/56 78/68/54
f 78/68/54 76/69/52 74/46/50
f 74/46/50 72/70/48 70/71/46
f 70/71/46 68/72/43 66/73/77
f 66/73/77 64/74/41 62/75/39
f 62/75/39 60/76/37 58/47/35
f 58/47/35 54/57/30 98/59/74
f 98/59/74 94/61/70 90/45/66
f 90/45/66 86/64/62 82/66/58
f 82/66/58 78/68/54 74/46/50
f 74/46/50 70/71/46 66/73/77
f 66/73/77 62/75/39 58/47/35
f 58/47/35 98/59/74 90/45/66
f 90/45/66 82/66/58 74/46/50
f 74/46/50 66/73/77 58/47/35
f 98/48/74 100/50/76 99/49/75
f 100/50/76 54/77/30 53/51/32
f 99/54/75 53/78/32 55/79/31
f 55/79/31 57/80/34 59/81/36
f 59/81/36 61/82/38 63/83/40
f 63/83/40 65/84/42 67/52/44
f 67/52/44 69/85/45 71/86/47
f 71/86/47 73/87/49 75/88/51
f 75/88/51 77/89/53 79/90/55
f 79/90/55 81/91/57 83/53/59
f 83/53/59 85/92/61 87/93/63
f 87/93/63 89/94/65 91/95/67
f 91/95/67 93/96/69 95/97/71
f 95/97/71 97/98/73 99/54/75
f 99/54/75 55/79/31 59/81/36
f 59/81/36 63/83/40 67/52/44
f 67/52/44 71/86/47 75/88/51
f 75/88/51 79/90/55 83/53/59
f 83/53/59 87/93/63 91/95/67
f 91/95/67 95/97/71 99/54/75
f 99/54/75 59/81/36 67/52/44
f 67/52/44 75/88/51 83/53/59
f 83/53/59 91/95/67 99/54/75
o right_link_rivet_1
v 0.003375 0.104549 0.061426
v 0.008100 0.104549 0.061426
v 0.003375 0.106212 0.061207
v 0.008100 0.106212 0.061207
v 0.003375 0.107762 0.060565
v 0.008100 0.107762 0.060565
v 0.003375 0.109093 0.059544
v 0.008100 0.109093 0.059544
v 0.003375 0.110114 0.058213
v 0.008100 0.110114 0.058213
v 0.003375 0.110756 0.056663
v 0.008100 0.110756 0.056663
v 0.003375 0.110975 0.055000
v 0.008100 0.110975 0.055000
v 0.003375 0.110756 0.053337
v 0.008100 0.110756 0.053337
v 0.003375 0.110114 0.051787
v 0.008100 0.110114 0.051787
v 0.003375 0.109093 0.050456
v 0.008100 0.109093 0.050456
v 0.003375 0.107762 0.049435
v 0.008100 0.107762 0.049435
v 0.003375 0.106212 0.048793
v 0.008100 0.106212 0.048793
v 0.003375 0.104549 0.048574
v 0.008100 0.104549 0.048574
v 0.003375 0.102886 0.048793
v 0.008100 0.102886 0.048793
v 0.003375 0.101336 0.049435
v 0.008100 0.101336 0.049435
v 0.003375 0.100005 0.050456
v 0.008100 0.100005 0.050456
v 0.003375 0.098984 0.051787
v 0.008100 0.098984 0.051787
v 0.003375 0.098342 0.053337
v 0.008100 0.098342 0.053337
v 0.003375 0.098123 0.055000
v 0.008100 0.098123 0.055000
v 0.003375 0.098342 0.056663
v 0.008100 0.098342 0.056663
v 0.003375 0.098984 0.058213
v 0.008100 0.098984 0.058213
v 0.003375 0.100005 0.059544
v 0.008100 0.100005 0.059544
v 0.003375 0.101336 0.060565
v 0.008100 0.101336 0.060565
v 0.003375 0.102886 0.061207
v 0.008100 0.102886 0.061207
vn 0.6893 0.6092 0.3921
vn -0.9939 0.0286 0.1067
vn -0.9966 -0.0001 0.0823
vn 0.9441 -0.2585 0.2047
vn -0.9966 0.0411 0.0712
vn 0.9440 -0.1968 0.2648
vn -0.9942 0.0759 0.0759
vn 0.9440 -0.1216 0.3068
vn -0.9966 0.0713 0.0411
vn 0.9429 -0.0102 0.3329
vn -0.9939 0.1067 0.0286
vn 0.9441 0.0480 0.3262
vn -0.9983 0.0586 -0.0000
vn 0.9983 0.0566 -0.0152
vn -0.9954 0.0922 -0.0247
vn -0.9966 0.0712 -0.0411
vn 0.9430 0.2829 0.1751
vn -0.9939 0.0781 -0.0781
vn 0.9441 0.3065 0.1215
vn -0.9966 0.0411 -0.0713
vn 0.9440 0.3277 0.0380
vn -0.9942 0.0278 -0.1037
vn 0.9441 0.3262 -0.0480
vn -0.9966 -0.0000 -0.0823
vn 0.9430 0.2932 -0.1575
vn -0.9939 -0.0286 -0.1067
vn 0.9441 0.2585 -0.2047
vn -0.9966 -0.0411 -0.0712
vn 0.9432 0.1775 -0.2810
vn -0.9966 -0.0582 -0.0582
vn 0.9442 0.1214 -0.3063
vn -0.9966 -0.0712 -0.0411
vn 0.9430 0.0102 -0.3326
vn -0.9939 -0.1067 -0.0286
vn 0.9441 -0.0480 -0.3262
vn -0.9966 -0.0823 -0.0000
vn 0.9441 -0.1308 -0.3026
vn -0.9942 -0.1037 0.0278
vn 0.9441 -0.2047 -0.2585
vn -0.9966 -0.0712 0.0411
vn 0.9430 -0.2830 -0.1752
vn -0.9939 -0.0781 0.0781
vn 0.9441 -0.3065 -0.1215
vn -0.9966 -0.0411 0.0713
vn 0.9432 -0.3321 -0.0132
vn -0.9966 -0.0213 0.0795
vn 0.2395 -0.7579 0.6068
vn 0.9918 0.1278 -0.0001
vt 1.000000 1.000000
vt 0.958333 0.500000
vt 1.000000 0.500000
vt 0.958333 1.000000
vt 0.916667 0.500000
vt 0.916667 1.000000
vt 0.875000 0.500000
vt 0.875000 1.000000
vt 0.833333 0.500000
vt 0.833333 1.000000
vt 0.791667 0.500000
vt 0.791667 1.000000
vt 0.750000 0.500000
vt 0.708333 1.000000
vt 0.708333 0.500000
vt 0.666667 0.500000
vt 0.666667 1.000000
vt 0.625000 0.500000
vt 0.625000 1.000000
vt 0.583333 0.500000
vt 0.583333 1.000000
vt 0.541666 0.500000
vt 0.541666 1.000000
vt 0.500000 0.500000
vt 0.500000 1.000000
vt 0.458333 0.500000
vt 0.458333 1.000000
vt 0.416666 0.500000
vt 0.416666 1.000000
vt 0.375000 0.500000
vt 0.375000 1.000000
vt 0.333333 0.500000
vt 0.333333 1.000000
vt 0.291667 0.500000
vt 0.291667 1.000000
vt 0.250000 0.500000
vt 0.250000 1.000000
vt 0.208333 0.500000
vt 0.208333 1.000000
vt 0.166666 0.500000
vt 0.166666 1.000000
vt 0.125000 0.500000
vt 0.125000 1.000000
vt 0.083333 0.500000
vt 0.010000 0.250000
vt 0.370000 0.042154
vt 0.370000 0.457846
vt 0.083333 1.000000
vt 0.041666 0.500000
vt 0.041666 1.000000
vt -0.000000 0.500000
vt 0.981822 0.187883
vt 0.580294 0.080294
vt 0.687883 0.481822
vt 0.750000 1.000000
vt 0.312117 0.481822
vt 0.250000 0.490000
vt 0.187883 0.481822
vt 0.130000 0.457846
vt 0.080294 0.419706
vt 0.042154 0.370000
vt 0.018178 0.312117
vt 0.018178 0.187883
vt 0.042154 0.130000
vt 0.080294 0.080294
vt 0.130000 0.042154
vt 0.187883 0.018178
vt 0.250000 0.010000
vt 0.312117 0.018178
vt 0.419706 0.080294
vt 0.457846 0.130000
vt 0.481822 0.187883
vt 0.490000 0.250000
vt 0.481822 0.312117
vt 0.457846 0.370000
vt 0.419706 0.419706
vt -0.000000 1.000000
vt 0.750000 0.490000
vt 0.812117 0.481822
vt 0.870000 0.457846
vt 0.919706 0.419706
vt 0.957846 0.370000
vt 0.981822 0.312117
vt 0.990000 0.250000
vt 0.957846 0.130000
vt 0.919706 0.080294
vt 0.870000 0.042154
vt 0.812117 0.018178
vt 0.750000 0.010000
vt 0.687883 0.018178
vt 0.630000 0.042154
vt 0.542154 0.130000
vt 0.518178 0.187883
vt 0.510000 0.250000
vt 0.518178 0.312117
vt 0.542154 0.370000
vt 0.580294 0.419706
vt 0.630000 0.457846
s 1
usemtl dark_steel_rivets
f 102/99/78 103/100/79 101/101/80
f 104/102/81 105/103/82 103/100/79
f 106/104/83 107/105/84 105/103/82
f 108/106/85 109/107/86 107/105/84
f 110/108/87 111/109/88 109/107/86
f 112/110/89 113/111/90 111/109/88
f 113/111/90 116/112/91 115/113/92
f 116/112/91 117/114/93 115/113/92
f 118/115/94 119/116/95 117/114/93
f 120/117/96 121/118/97 119/116/95
f 122/119/98 123/120/99 121/118/97
f 124/121/100 125/122/101 123/120/99
f 126/123/102 127/124/103 125/122/101
f 128/125/104 129/126/105 127/124/103
f 130/127/106 131/128/107 129/126/105
f 132/129/108 133/130/109 131/128/107
f 134/131/110 135/132/111 133/130/109
f 136/133/112 137/134/113 135/132/111
f 138/135/114 139/136/115 137/134/113
f 140/137/116 141/138/117 139/136/115
f 142/139/118 143/140/119 141/138/117
f 144/141/120 145/142/121 143/140/119
f 138/143/114 122/144/98 106/145/83
f 146/146/122 147/147/123 145/142/121
f 148/148/124 101/149/80 147/147/123
f 115/150/92 131/151/107 147/152/123
f 102/99/78 104/102/81 103/100/79
f 104/102/81 106/104/83 105/103/82
f 106/104/83 108/106/85 107/105/84
f 108/106/85 110/108/87 109/107/86
f 110/108/87 112/110/89 111/109/88
f 112/110/89 114/153/125 113/111/90
f 113/111/90 114/153/125 116/112/91
f 116/112/91 118/115/94 117/114/93
f 118/115/94 120/117/96 119/116/95
f 120/117/96 122/119/98 121/118/97
f 122/119/98 124/121/100 123/120/99
f 124/121/100 126/123/102 125/122/101
f 126/123/102 128/125/104 127/124/103
f 128/125/104 130/127/106 129/126/105
f 130/127/106 132/129/108 131/128/107
f 132/129/108 134/131/110 133/130/109
f 134/131/110 136/133/112 135/132/111
f 136/133/112 138/135/114 137/134/113
f 138/135/114 140/137/116 139/136/115
f 140/137/116 142/139/118 141/138/117
f 142/139/118 144/141/120 143/140/119
f 144/141/120 146/146/122 145/142/121
f 106/145/83 104/154/81 102/155/78
f 102/155/78 148/156/124 146/157/122
f 146/157/122 144/158/120 142/159/118
f 142/159/118 140/160/116 138/143/114
f 138/143/114 136/161/112 134/162/110
f 134/162/110 132/163/108 130/164/106
f 130/164/106 128/165/104 126/166/102
f 126/166/102 124/167/100 122/144/98
f 122/144/98 120/168/96 118/169/94
f 118/169/94 116/170/91 114/171/125
f 114/171/125 112/172/89 110/173/87
f 110/173/87 108/174/85 106/145/83
f 106/145/83 102/155/78 146/157/122
f 146/157/122 142/159/118 138/143/114
f 138/143/114 134/162/110 130/164/106
f 130/164/106 126/166/102 122/144/98
f 122/144/98 118/169/94 114/171/125
f 114/171/125 110/173/87 106/145/83
f 106/145/83 146/157/122 138/143/114
f 138/143/114 130/164/106 122/144/98
f 122/144/98 114/171/125 106/145/83
f 146/146/122 148/148/124 147/147/123
f 148/148/124 102/175/78 101/149/80
f 147/152/123 101/176/80 103/177/79
f 103/177/79 105/178/82 107/179/84
f 107/179/84 109/180/86 111/181/88
f 111/181/88 113/182/90 115/150/92
f 115/150/92 117/183/93 119/184/95
f 119/184/95 121/185/97 123/186/99
f 123/186/99 125/187/101 127/188/103
f 127/188/103 129/189/105 131/151/107
f 131/151/107 133/190/109 135/191/111
f 135/191/111 137/192/113 139/193/115
f 139/193/115 141/194/117 143/195/119
f 143/195/119 145/196/121 147/152/123
f 147/152/123 103/177/79 107/179/84
f 107/179/84 111/181/88 115/150/92
f 115/150/92 119/184/95 123/186/99
f 123/186/99 127/188/103 131/151/107
f 131/151/107 135/191/111 139/193/115
f 139/193/115 143/195/119 147/152/123
f 147/152/123 107/179/84 115/150/92
f 115/150/92 123/186/99 131/151/107
f 131/151/107 139/193/115 147/152/123
