# Blender 4.5.0
# www.blender.org
mtllib link_left_link_pivot.mtl
o left_link
v -0.003375 0.110136 0.044380
v -0.003375 0.112694 0.046188
v -0.003375 0.114698 0.048596
v -0.003375 0.116009 0.051441
v -0.003375 0.116540 0.054528
v -0.003375 0.116253 0.057648
v -0.003375 0.115169 0.060587
v -0.003375 0.113361 0.063145
v -0.003375 0.110953 0.065148
v -0.003375 0.108108 0.066460
v -0.003375 0.105021 0.066991
v -0.003375 0.101901 0.066704
v -0.003375 0.098962 0.065620
v -0.003375 -0.005587 0.010620
v -0.003375 -0.008145 0.008812
v -0.003375 -0.010148 0.006404
v -0.003375 -0.011460 0.003559
v -0.003375 -0.011991 0.000472
v -0.003375 -0.011704 -0.002648
v -0.003375 -0.010620 -0.005587
v -0.003375 -0.008812 -0.008145
v -0.003375 -0.006404 -0.010148
v -0.003375 -0.003559 -0.011460
v -0.003375 -0.000472 -0.011991
v -0.003375 0.002648 -0.011704
v -0.003375 0.005587 -0.010620
v 0.003375 0.110136 0.044380
v 0.003375 0.112694 0.046188
v 0.003375 0.114698 0.048596
v 0.003375 0.116009 0.051441
v 0.003375 0.116540 0.054528
v 0.003375 0.116253 0.057648
v 0.003375 0.115169 0.060587
v 0.003375 0.113361 0.063145
v 0.003375 0.110953 0.065148
v 0.003375 0.108108 0.066460
v 0.003375 0.105021 0.066991
v 0.003375 0.101901 0.066704
v 0.003375 0.098962 0.065620
v 0.003375 -0.005587 0.010620
v 0.003375 -0.008145 0.008812
v 0.003375 -0.010148 0.006404
v 0.003375 -0.011460 0.003559
v 0.003375 -0.011991 0.000472
v 0.003375 -0.011704 -0.002648
v 0.003375 -0.010620 -0.005587
v 0.003375 -0.008812 -0.008145
v 0.003375 -0.006404 -0.010148
v 0.003375 -0.003559 -0.011460
v 0.003375 -0.000472 -0.011991
v 0.003375 0.002648 -0.011704
v 0.003375 0.005587 -0.010620
vn -1.0000 -0.0000 -0.0000
vn 1.0000 -0.0000 -0.0000
vn -0.0000 0.5771 -0.8167
vn -0.0000 0.7688 -0.6395
vn -0.0000 0.9081 -0.4187
vn -0.0000 0.9855 -0.1694
vn -0.0000 0.9958 0.0915
vn -0.0000 0.9382 0.3461
vn -0.0000 0.8167 0.5771
vn -0.0000 0.6395 0.7688
vn -0.0000 0.4187 0.9081
vn -0.0000 0.1694 0.9855
vn -0.0000 -0.0915 0.9958
vn -0.0000 -0.3461 0.9382
vn -0.0000 -0.4656 0.8850
vn -0.0000 -0.5771 0.8167
vn -0.0000 -0.7688 0.6395
vn -0.0000 -0.9081 0.4187
vn -0.0000 -0.9855 0.1694
vn -0.0000 -0.9958 -0.0915
vn -0.0000 -0.9382 -0.3461
vn -0.0000 -0.8167 -0.5771
vn -0.0000 -0.6395 -0.7688
vn -0.0000 -0.4187 -0.9081
vn -0.0000 -0.1694 -0.9855
vn -0.0000 0.0914 -0.9958
vn -0.0000 0.3461 -0.9382
vn -0.0000 0.4656 -0.8850
s 0
usemtl charcoal_powder_coat
f 26//1 25//1 24//1
f 26//1 24//1 23//1
f 26//1 23//1 22//1
f 26//1 22//1 21//1
f 26//1 21//1 20//1
f 26//1 20//1 19//1
f 26//1 19//1 18//1
f 26//1 18//1 17//1
f 26//1 17//1 16//1
f 26//1 16//1 15//1
f 26//1 15//1 14//1
f 26//1 14//1 13//1
f 26//1 13//1 12//1
f 26//1 12//1 11//1
f 26//1 11//1 10//1
f 26//1 10//1 9//1
f 26//1 9//1 8//1
f 26//1 8//1 7//1
f 26//1 7//1 6//1
f 26//1 6//1 5//1
f 26//1 5//1 4//1
f 26//1 4//1 3//1
f 26//1 3//1 2//1
f 26//1 2//1 1//1
f 27//2 28//2 29//2
f 27//2 29//2 30//2
f 27//2 30//2 31//2
f 27//2 31//2 32//2
f 27//2 32//2 33//2
f 27//2 33//2 34//2
f 27//2 34//2 35//2
f 27//2 35//2 36//2
f 27//2 36//2 37//2
f 27//2 37//2 38//2
f 27//2 38//2 39//2
f 27//2 39//2 40//2
f 27//2 40//2 41//2
f 27//2 41//2 42//2
f 27//2 42//2 43//2
f 27//2 43//2 44//2
f 27//2 44//2 45//2
f 27//2 45//2 46//2
f 27//2 46//2 47//2
f 27//2 47//2 48//2
f 27//2 48//2 49//2
f 27//2 49//2 50//2
f 27//2 50//2 51//2
f 27//2 51//2 52//2
f 1//3 2//3 28//3
f 1//3 28//3 27//3
f 2//4 3//4 29//4
f 2//4 29//4 28//4
f 3//5 4//5 30//5
f 3//5 30//5 29//5
f 4//6 5//6 31//6
f 4//6 31//6 30//6
f 5//7 6//7 32//7
f 5//7 32//7 31//7
f 6//8 7//8 33//8
f 6//8 33//8 32//8
f 7//9 8//9 34//9
f 7//9 34//9 33//9
f 8//10 9//10 35//10
f 8//10 35//10 34//10
f 9//11 10//11 36//11
f 9//11 36//11 35//11
f 10//12 11//12 37//12
f 10//12 37//12 36//12
f 11//13 12//13 38//13
f 11//13 38//13 37//13
f 12//14 13//14 39//14
f 12//14 39//14 38//14
f 13//15 14//15 40//15
f 13//15 40//15 39//15
f 14//16 15//16 41//16
f 14//16 41//16 40//16
f 15//17 16//17 42//17
f 15//17 42//17 41//17
f 16//18 17//18 43//18
f 16//18 43//18 42//18
f 17//19 18//19 44//19
f 17//19 44//19 43//19
f 18//20 19//20 45//20
f 18//20 45//20 44//20
f 19//21 20//21 46//21
f 19//21 46//21 45//21
f 20//22 21//22 47//22
f 20//22 47//22 46//22
f 21//23 22//23 48//23
f 21//23 48//23 47//23
f 22//24 23//24 49//24
f 22//24 49//24 48//24
f 23//25 24//25 50//25
f 23//25 50//25 49//25
f 24//26 25//26 51//26
f 24//26 51//26 50//26
f 25//27 26//27 52//27
f 25//27 52//27 51//27
f 26//28 1//28 27//28
f 26//28 27//28 52//28
o left_link_rivet_0
v -0.008100 0.000000 0.006426
v -0.003375 -0.000000 0.006426
v -0.008100 0.001663 0.006207
v -0.003375 0.001663 0.006207
v -0.008100 0.003213 0.005565
v -0.003375 0.003213 0.005565
v -0.008100 0.004544 0.004544
v -0.003375 0.004544 0.004544
v -0.008100 0.005565 0.003213
v -0.003375 0.005565 0.003213
v -0.008100 0.006207 0.001663
v -0.003375 0.006207 0.001663
v -0.008100 0.006426 -0.000000
v -0.003375 0.006426 0.000000
v -0.008100 0.006207 -0.001663
v -0.003375 0.006207 -0.001663
v -0.008100 0.005565 -0.003213
v -0.003375 0.005565 -0.003213
v -0.008100 0.004544 -0.004544
v -0.003375 0.004544 -0.004544
v -0.008100 0.003213 -0.005565
v -0.003375 0.003213 -0.005565
v -0.008100 0.001663 -0.006207
v -0.003375 0.001663 -0.006207
v -0.008100 0.000000 -0.006426
v -0.003375 -0.000000 -0.006426
v -0.008100 -0.001663 -0.006207
v -0.003375 -0.001663 -0.006207
v -0.008100 -0.003213 -0.005565
v -0.003375 -0.003213 -0.005565
v -0.008100 -0.004544 -0.004544
v -0.003375 -0.004544 -0.004544
v -0.008100 -0.005565 -0.003213
v -0.003375 -0.005565 -0.003213
v -0.008100 -0.006207 -0.001663
v -0.003375 -0.006207 -0.001663
v -0.008100 -0.006426 -0.000000
v -0.003375 -0.006426 0.000000
v -0.008100 -0.006207 0.001663
v -0.003375 -0.006207 0.001663
v -0.008100 -0.005565 0.003213
v -0.003375 -0.005565 0.003213
v -0.008100 -0.004544 0.004544
v -0.003375 -0.004544 0.004544
v -0.008100 -0.003213 0.005565
v -0.003375 -0.003213 0.005565
v -0.008100 -0.001663 0.006207
v -0.003375 -0.001663 0.006207
vn 0.6893 0.6092 0.3921
vn -0.9939 0.0286 0.1067
vn -0.9966 -0.0001 0.0823
vn 0.9441 -0.2585 0.2047
vn -0.9966 0.0411 0.0712
vn 0.9440 -0.1968 0.2648
vn -0.9942 0.0759 0.0759
vn 0.9440 -0.1216 0.3068
vn -0.9966 0.0713 0.0411
vn 0.9429 -0.0102 0.3329
vn -0.9939 0.1067 0.0286
vn 0.9441 0.0480 0.3262
vn -0.9983 0.0586 -0.0000
vn 0.9983 0.0566 -0.0152
vn -0.9954 0.0922 -0.0247
vn -0.9966 0.0712 -0.0411
vn 0.9430 0.2829 0.1751
vn -0.9939 0.0781 -0.0781
vn 0.9441 0.3065 0.1215
vn -0.9966 0.0411 -0.0713
vn 0.9440 0.3277 0.0380
vn -0.9942 0.0278 -0.1037
vn 0.9441 0.3262 -0.0480
vn -0.9966 -0.0000 -0.0823
vn 0.9430 0.2932 -0.1575
vn -0.9939 -0.0286 -0.1067
vn 0.9441 0.2585 -0.2047
vn -0.9966 -0.0411 -0.0712
vn 0.9432 0.1775 -0.2810
vn -0.9966 -0.0582 -0.0582
vn 0.9442 0.1214 -0.3063
vn -0.9966 -0.0712 -0.0411
vn 0.9430 0.0102 -0.3326
vn -0.9939 -0.1067 -0.0286
vn 0.9441 -0.0480 -0.3262
vn -0.9966 -0.0823 -0.0000
vn 0.9441 -0.1308 -0.3026
vn -0.9942 -0.1037 0.0278
vn 0.9441 -0.2047 -0.2585
vn -0.9966 -0.0712 0.0411
vn 0.9430 -0.2830 -0.1752
vn -0.9939 -0.0781 0.0781
vn 0.9441 -0.3065 -0.1215
vn -0.9966 -0.0411 0.0713
vn 0.9432 -0.3321 -0.0132
vn -0.9966 -0.0213 0.0795
vn 0.2395 -0.7579 0.6068
vn 0.9918 0.1278 -0.0001
vt 1.000000 1.000000
vt 0.958333 0.500000
vt 1.000000 0.500000
vt 0.958333 1.000000
vt 0.916667 0.500000
vt 0.916667 1.000000
vt 0.875000 0.500000
vt 0.875000 1.000000
vt 0.833333 0.500000
vt 0.833333 1.000000
vt 0.791667 0.500000
vt 0.791667 1.000000
vt 0.750000 0.500000
vt 0.708333 1.000000
vt 0.708333 0.500000
vt 0.666667 0.500000
vt 0.666667 1.000000
vt 0.625000 0.500000
vt 0.625000 1.000000
vt 0.583333 0.500000
vt 0.583333 1.000000
vt 0.541666 0.500000
vt 0.541666 1.000000
vt 0.500000 0.500000
vt 0.500000 1.000000
vt 0.458333 0.500000
vt 0.458333 1.000000
vt 0.416666 0.500000
vt 0.416666 1.000000
vt 0.375000 0.500000
vt 0.375000 1.000000
vt 0.333333 0.500000
vt 0.333333 1.000000
vt 0.291667 0.500000
vt 0.291667 1.000000
vt 0.250000 0.500000
vt 0.250000 1.000000
vt 0.208333 0.500000
vt 0.208333 1.000000
vt 0.166666 0.500000
vt 0.166666 1.000000
vt 0.125000 0.500000
vt 0.125000 1.000000
vt 0.083333 0.500000
vt 0.010000 0.250000
vt 0.370000 0.042154
vt 0.370000 0.457846
vt 0.083333 1.000000
vt 0.041666 0.500000
vt 0.041666 1.000000
vt -0.000000 0.500000
vt 0.981822 0.187883
vt 0.580294 0.080294
vt 0.687883 0.481822
vt 0.750000 1.000000
vt 0.312117 0.481822
vt 0.250000 0.490000
vt 0.187883 0.481822
vt 0.130000 0.457846
vt 0.080294 0.419706
vt 0.042154 0.370000
vt 0.018178 0.312117
vt 0.018178 0.187883
vt 0.042154 0.130000
vt 0.080294 0.080294
vt 0.130000 0.042154
vt 0.187883 0.018178
vt 0.250000 0.010000
vt 0.312117 0.018178
vt 0.419706 0.080294
vt 0.457846 0.130000
vt 0.481822 0.187883
vt 0.490000 0.250000
vt 0.481822 0.312117
vt 0.457846 0.370000
vt 0.419706 0.419706
vt -0.000000 1.000000
vt 0.750000 0.490000
vt 0.812117 0.481822
vt 0.870000 0.457846
vt 0.919706 0.419706
vt 0.957846 0.370000
vt 0.981822 0.312117
vt 0.990000 0.250000
vt 0.957846 0.130000
vt 0.919706 0.080294
vt 0.870000 0.042154
vt 0.812117 0.018178
vt 0.750000 0.010000
vt 0.687883 0.018178
vt 0.630000 0.042154
vt 0.542154 0.130000
vt 0.518178 0.187883
vt 0.510000 0.250000
vt 0.518178 0.312117
vt 0.542154 0.370000
vt 0.580294 0.419706
vt 0.630000 0.457846
s 1
usemtl dark_steel_rivets
f 54/1/29 55/2/30 53/3/31
f 56/4/32 57/5/33 55/2/30
f 58/6/34 59/7/35 57/5/33
f 60/8/36 61/9/37 59/7/35
f 62/10/38 63/11/39 61/9/37
f 64/12/40 65/13/41 63/11/39
f 65/13/41 68/14/42 67/15/43
f 68/14/42 69/16/44 67/15/43
f 70/17/45 71/18/46 69/16/44
f 72/19/47 73/20/48 71/18/46
f 74/21/49 75/22/50 73/20/48
f 76/23/51 77/24/52 75/22/50
f 78/25/53 79/26/54 77/24/52
f 80/27/55 81/28/56 79/26/54
f 82/29/57 83/30/58 81/28/56
f 84/31/59 85/32/60 83/30/58
f 86/33/61 87/34/62 85/32/60
f 88/35/63 89/36/64 87/34/62
f 90/37/65 91/38/66 89/36/64
f 92/39/67 93/40/68 91/38/66
f 94/41/69 95/42/70 93/40/68
f 96/43/71 97/44/72 95/42/70
f 90/45/65 74/46/49 58/47/34
f 98/48/73 99/49/74 97/44/72
f 100/50/75 53/51/31 99/49/74
f 67/52/43 83/53/58 99/54/74
f 54/1/29 56/4/32 55/2/30
f 56/4/32 58/6/34 57/5/33
f 58/6/34 60/8/36 59/7/35
f 60/8/36 62/10/38 61/9/37
f 62/10/38 64/12/40 63/11/39
f 64/12/40 66/55/76 65/13/41
f 65/13/41 66/55/76 68/14/42
f 68/14/42 70/17/45 69/16/44
f 70/17/45 72/19/47 71/18/46
f 72/19/47 74/21/49 73/20/48
f 74/21/49 76/23/51 75/22/50
f 76/23/51 78/25/53 77/24/52
f 78/25/53 80/27/55 79/26/54
f 80/27/55 82/29/57 81/28/56
f 82/29/57 84/31/59 83/30/58
f 84/31/59 86/33/61 85/32/60
f 86/33/61 88/35/63 87/34/62
f 88/35/63 90/37/65 89/36/64
f 90/37/65 92/39/67 91/38/66
f 92/39/67 94/41/69 93/40/68
f 94/41/69 96/43/71 95/42/70
f 96/43/71 98/48/73 97/44/72
f 58/47/34 56/56/32 54/57/29
f 54/57/29 100/58/75 98/59/73
f 98/59/73 96/60/71 94/61/69
f 94/61/69 92/62/67 90/45/65
f 90/45/65 88/63/63 86/64/61
f 86/64/61 84/65/59 82/66/57
f 82/66/57 80/67/55 78/68/53
f 78/68/53 76/69/51 74/46/49
f 74/46/49 72/70/47 70/71/45
f 70/71/45 68/72/42 66/73/76
f 66/73/76 64/74/40 62/75/38
f 62/75/38 60/76/36 58/47/34
f 58/47/34 54/57/29 98/59/73
f 98/59/73 94/61/69 90/45/65
f 90/45/65 86/64/61 82/66/57
f 82/66/57 78/68/53 74/46/49
f 74/46/49 70/71/45 66/73/76
f 66/73/76 62/75/38 58/47/34
f 58/47/34 98/59/73 90/45/65
f 90/45/65 82/66/57 74/46/49
f 74/46/49 66/73/76 58/47/34
f 98/48/73 100/50/75 99/49/74
f 100/50/75 54/77/29 53/51/31
f 99/54/74 53/78/31 55/79/30
f 55/79/30 57/80/33 59/81/35
f 59/81/35 61/82/37 63/83/39
f 63/83/39 65/84/41 67/52/43
f 67/52/43 69/85/44 71/86/46
f 71/86/46 73/87/48 75/88/50
f 75/88/50 77/89/52 79/90/54
f 79/90/54 81/91/56 83/53/58
f 83/53/58 85/92/60 87/93/62
f 87/93/62 89/94/64 91/95/66
f 91/95/66 93/96/68 95/97/70
f 95/97/70 97/98/72 99/54/74
f 99/54/74 55/79/30 59/81/35
f 59/81/35 63/83/39 67/52/43
f 67/52/43 71/86/46 75/88/50
f 75/88/50 79/90/54 83/53/58
f 83/53/58 87/93/62 91/95/66
f 91/95/66 95/97/70 99/54/74
f 99/54/74 59/81/35 67/52/43
f 67/52/43 75/88/50 83/53/58
f 83/53/58 91/95/66 99/54/74
o left_link_rivet_1
v -0.008100 0.104549 0.061426
v -0.003375 0.104549 0.061426
v -0.008100 0.106212 0.061207
v -0.003375 0.106212 0.061207
v -0.008100 0.107762 0.060565
v -0.003375 0.107762 0.060565
v -0.008100 0.109093 0.059544
v -0.003375 0.109093 0.059544
v -0.008100 0.110114 0.058213
v -0.003375 0.110114 0.058213
v -0.008100 0.110756 0.056663
v -0.003375 0.110756 0.056663
v -0.008100 0.110975 0.055000
v -0.003375 0.110975 0.055000
v -0.008100 0.110756 0.053337
v -0.003375 0.110756 0.053337
v -0.008100 0.110114 0.051787
v -0.003375 0.110114 0.051787
v -0.008100 0.109093 0.050456
v -0.003375 0.109093 0.050456
v -0.008100 0.107762 0.049435
v -0.003375 0.107762 0.049435
v -0.008100 0.106212 0.048793
v -0.003375 0.106212 0.048793
v -0.008100 0.104549 0.048574
v -0.003375 0.104549 0.048574
v -0.008100 0.102886 0.048793
v -0.003375 0.102886 0.048793
v -0.008100 0.101336 0.049435
v -0.003375 0.101336 0.049435
v -0.008100 0.100005 0.050456
v -0.003375 0.100005 0.050456
v -0.008100 0.098984 0.051787
v -0.003375 0.098984 0.051787
v -0.008100 0.098342 0.053337
v -0.003375 0.098342 0.053337
v -0.008100 0.098123 0.055000
v -0.003375 0.098123 0.055000
v -0.008100 0.098342 0.056663
v -0.003375 0.098342 0.056663
v -0.008100 0.098984 0.058213
v -0.003375 0.098984 0.058213
v -0.008100 0.100005 0.059544
v -0.003375 0.100005 0.059544
v -0.008100 0.101336 0.060565
v -0.003375 0.101336 0.060565
v -0.008100 0.102886 0.061207
v -0.003375 0.102886 0.061207
vn 0.6893 0.6092 0.3921
vn -0.9939 0.0286 0.1067
vn -0.9966 -0.0001 0.0823
vn 0.9441 -0.2585 0.2047
vn -0.9966 0.0411 0.0712
vn 0.9440 -0.1968 0.2648
vn -0.9942 0.0759 0.0759
vn 0.9440 -0.1216 0.3068
vn -0.9966 0.0713 0.0411
vn 0.9429 -0.0102 0.3329
vn -0.9939 0.1067 0.0286
vn 0.9441 0.0480 0.3262
vn -0.9983 0.0586 -0.0000
vn 0.9983 0.0566 -0.0152
vn -0.9954 0.0922 -0.0247
vn -0.9966 0.0712 -0.0411
vn 0.9430 0.2829 0.1751
vn -0.9939 0.0781 -0.0781
vn 0.9441 0.3065 0.1215
vn -0.9966 0.0411 -0.0713
vn 0.9440 0.3277 0.0380
vn -0.9942 0.0278 -0.1037
vn 0.9441 0.3262 -0.0480
vn -0.9966 -0.0000 -0.0823
vn 0.9430 0.2932 -0.1575
vn -0.9939 -0.0286 -0.1067
vn 0.9441 0.2585 -0.2047
vn -0.9966 -0.0411 -0.0712
vn 0.9432 0.1775 -0.2810
vn -0.9966 -0.0582 -0.0582
vn 0.9442 0.1214 -0.3063
vn -0.9966 -0.0712 -0.0411
vn 0.9430 0.0102 -0.3326
vn -0.9939 -0.1067 -0.0286
vn 0.9441 -0.0480 -0.3262
vn -0.9966 -0.0823 -0.0000
vn 0.9441 -0.1308 -0.3026
vn -0.9942 -0.1037 0.0278
vn 0.9441 -0.2047 -0.2585
vn -0.9966 -0.0712 0.0411
vn 0.9430 -0.2830 -0.1752
vn -0.9939 -0.0781 0.0781
vn 0.9441 -0.3065 -0.1215
vn -0.9966 -0.0411 0.0713
vn 0.9432 -0.3321 -0.0132
vn -0.9966 -0.0213 0.0795
vn 0.2395 -0.7579 0.6068
vn 0.9918 0.1278 -0.0001
vt 1.000000 1.000000
vt 0.958333 0.500000
vt 1.000000 0.500000
vt 0.958333 1.000000
vt 0.916667 0.500000
vt 0.916667 1.000000
vt 0.875000 0.500000
vt 0.875000 1.000000
vt 0.833333 0.500000
vt 0.833333 1.000000
vt 0.791667 0.500000
vt 0.791667 1.000000
vt 0.750000 0.500000
vt 0.708333 1.000000
vt 0.708333 0.500000
vt 0.666667 0.500000
vt 0.666667 1.000000
vt 0.625000 0.500000
vt 0.625000 1.000000
vt 0.583333 0.500000
vt 0.583333 1.000000
vt 0.541666 0.500000
vt 0.541666 1.000000
vt 0.500000 0.500000
vt 0.500000 1.000000
vt 0.458333 0.500000
vt 0.458333 1.000000
vt 0.416666 0.500000
vt 0.416666 1.000000
vt 0.375000 0.500000
vt 0.375000 1.000000
vt 0.333333 0.500000
vt 0.333333 1.000000
vt 0.291667 0.500000
vt 0.291667 1.000000
vt 0.250000 0.500000
vt 0.250000 1.000000
vt 0.208333 0.500000
vt 0.208333 1.000000
vt 0.166666 0.500000
vt 0.166666 1.000000
vt 0.125000 0.500000
vt 0.125000 1.000000
vt 0.083333 0.500000
vt 0.010000 0.250000
vt 0.370000 0.042154
vt 0.370000 0.457846
vt 0.083333 1.000000
vt 0.041666 0.500000
vt 0.041666 1.000000
vt -0.000000 0.500000
vt 0.981822 0.187883
vt 0.580294 0.080294
vt 0.687883 0.481822
vt 0.750000 1.000000
vt 0.312117 0.481822
vt 0.250000 0.490000
vt 0.187883 0.481822
vt 0.130000 0.457846
vt 0.080294 0.419706
vt 0.042154 0.370000
vt 0.018178 0.312117
vt 0.018178 0.187883
vt 0.042154 0.130000
vt 0.080294 0.080294
vt 0.130000 0.042154
vt 0.187883 0.018178
vt 0.250000 0.010000
vt 0.312117 0.018178
vt 0.419706 0.080294
vt 0.457846 0.130000
vt 0.481822 0.187883
vt 0.490000 0.250000
vt 0.481822 0.312117
vt 0.457846 0.370000
vt 0.419706 0.419706
vt -0.000000 1.000000
vt 0.750000 0.490000
vt 0.812117 0.481822
vt 0.870000 0.457846
vt 0.919706 0.419706
vt 0.957846 0.370000
vt 0.981822 0.312117
vt 0.990000 0.250000
vt 0.957846 0.130000
vt 0.919706 0.080294
vt 0.870000 0.042154
vt 0.812117 0.018178
vt 0.750000 0.010000
vt 0.687883 0.018178
vt 0.630000 0.042154
vt 0.542154 0.130000
vt 0.518178 0.187883
vt 0.510000 0.250000
vt 0.518178 0.312117
vt 0.542154 0.370000
vt 0.580294 0.419706
vt 0.630000 0.457846
s 1
usemtl dark_steel_rivets
f 102/99/77 103/100/78 101/101/79
f 104/102/80 105/103/81 103/100/78
f 106/104/82 107/105/83 105/103/81
f 108/106/84 109/107/85 107/105/83
f 110/108/86 111/109/87 109/107/85
f 112/110/88 113/111/89 111/109/87
f 113/111/89 116/112/90 115/113/91
f 116/112/90 117/114/92 115/113/91
f 118/115/93 119/116/94 117/114/92
f 120/117/95 121/118/96 119/116/94
f 122/119/97 123/120/98 121/118/96
f 124/121/99 125/122/100 123/120/98
f 126/123/101 127/124/102 125/122/100
f 128/125/103 129/126/104 127/124/102
f 130/127/105 131/128/106 129/126/104
f 132/129/107 133/130/108 131/128/106
f 134/131/109 135/132/110 133/130/108
f 136/133/111 137/134/112 135/132/110
f 138/135/113 139/136/114 137/134/112
f 140/137/115 141/138/116 139/136/114
f 142/139/117 143/140/118 141/138/116
f 144/141/119 145/142/120 143/140/118
f 138/143/113 122/144/97 106/145/82
f 146/146/121 147/147/122 145/142/120
f 148/148/123 101/149/79 147/147/122
f 115/150/91 131/151/106 147/152/122
f 102/99/77 104/102/80 103/100/78
f 104/102/80 106/104/82 105/103/81
f 106/104/82 108/106/84 107/105/83
f 108/106/84 110/108/86 109/107/85
f 110/108/86 112/110/88 111/109/87
f 112/110/88 114/153/124 113/111/89
f 113/111/89 114/153/124 116/112/90
f 116/112/90 118/115/93 117/114/92
f 118/115/93 120/117/95 119/116/94
f 120/117/95 122/119/97 121/118/96
f 122/119/97 124/121/99 123/120/98
f 124/121/99 126/123/101 125/122/100
f 126/123/101 128/125/103 127/124/102
f 128/125/103 130/127/105 129/126/104
f 130/127/105 132/129/107 131/128/106
f 132/129/107 134/131/109 133/130/108
f 134/131/109 136/133/111 135/132/110
f 136/133/111 138/135/113 137/134/112
f 138/135/113 140/137/115 139/136/114
f 140/137/115 142/139/117 141/138/116
f 142/139/117 144/141/119 143/140/118
f 144/141/119 146/146/121 145/142/120
f 106/145/82 104/154/80 102/155/77
f 102/155/77 148/156/123 146/157/121
f 146/157/121 144/158/119 142/159/117
f 142/159/117 140/160/115 138/143/113
f 138/143/113 136/161/111 134/162/109
f 134/162/109 132/163/107 130/164/105
f 130/164/105 128/165/103 126/166/101
f 126/166/101 124/167/99 122/144/97
f 122/144/97 120/168/95 118/169/93
f 118/169/93 116/170/90 114/171/124
f 114/171/124 112/172/88 110/173/86
f 110/173/86 108/174/84 106/145/82
f 106/145/82 102/155/77 146/157/121
f 146/157/121 142/159/117 138/143/113
f 138/143/113 134/162/109 130/164/105
f 130/164/105 126/166/101 122/144/97
f 122/144/97 118/169/93 114/171/124
f 114/171/124 110/173/86 106/145/82
f 106/145/82 146/157/121 138/143/113
f 138/143/113 130/164/105 122/144/97
f 122/144/97 114/171/124 106/145/82
f 146/146/121 148/148/123 147/147/122
f 148/148/123 102/175/77 101/149/79
f 147/152/122 101/176/79 103/177/78
f 103/177/78 105/178/81 107/179/83
f 107/179/83 109/180/85 111/181/87
f 111/181/87 113/182/89 115/150/91
f 115/150/91 117/183/92 119/184/94
f 119/184/94 121/185/96 123/186/98
f 123/186/98 125/187/100 127/188/102
f 127/188/102 129/189/104 131/151/106
f 131/151/106 133/190/108 135/191/110
f 135/191/110 137/192/112 139/193/114
f 139/193/114 141/194/116 143/195/118
f 143/195/118 145/196/120 147/152/122
f 147/152/122 103/177/78 107/179/83
f 107/179/83 111/181/87 115/150/91
f 115/150/91 119/184/94 123/186/98
f 123/186/98 127/188/102 131/151/106
f 131/151/106 135/191/110 139/193/114
f 139/193/114 143/195/118 147/152/122
f 147/152/122 107/179/83 115/150/91
f 115/150/91 123/186/98 131/151/106
f 131/151/106 139/193/114 147/152/122
