# Blender 4.5.0
# www.blender.org
mtllib link_seat_fold.mtl
o seat
v 0.195092 -0.269111 -0.039520
v 0.203408 -0.268566 -0.039520
v 0.211581 -0.266940 -0.039520
v 0.219472 -0.264261 -0.039520
v 0.226946 -0.260576 -0.039520
v 0.233875 -0.255946 -0.039520
v 0.240141 -0.250451 -0.039520
v 0.245635 -0.244186 -0.039520
v 0.250265 -0.237257 -0.039520
v 0.253951 -0.229783 -0.039520
v 0.256629 -0.221892 -0.039520
v 0.258255 -0.213719 -0.039520
v 0.258800 -0.205403 -0.039520
v 0.258800 0.160282 -0.039520
v 0.258255 0.168597 -0.039520
v 0.256629 0.176770 -0.039520
v 0.253951 0.184661 -0.039520
v 0.250265 0.192135 -0.039520
v 0.245635 0.199064 -0.039520
v 0.240141 0.205330 -0.039520
v 0.233875 0.210824 -0.039520
v 0.226946 0.215454 -0.039520
v 0.219472 0.219140 -0.039520
v 0.211581 0.221818 -0.039520
v 0.203408 0.223444 -0.039520
v 0.195092 0.223989 -0.039520
v -0.195092 0.223989 -0.039520
v -0.203408 0.223444 -0.039520
v -0.211581 0.221818 -0.039520
v -0.219472 0.219140 -0.039520
v -0.226946 0.215454 -0.039520
v -0.233875 0.210824 -0.039520
v -0.240141 0.205330 -0.039520
v -0.245635 0.199064 -0.039520
v -0.250265 0.192135 -0.039520
v -0.253951 0.184661 -0.039520
v -0.256629 0.176770 -0.039520
v -0.258255 0.168597 -0.039520
v -0.258800 0.160282 -0.039520
v -0.258800 -0.205403 -0.039520
v -0.258255 -0.213719 -0.039520
v -0.256629 -0.221892 -0.039520
v -0.253951 -0.229783 -0.039520
v -0.250265 -0.237257 -0.039520
v -0.245635 -0.244186 -0.039520
v -0.240141 -0.250451 -0.039520
v -0.233875 -0.255946 -0.039520
v -0.226946 -0.260576 -0.039520
v -0.219472 -0.264261 -0.039520
v -0.211581 -0.266940 -0.039520
v -0.203408 -0.268566 -0.039520
v -0.195092 -0.269111 -0.039520
v 0.195092 -0.277561 -0.031070
v 0.204511 -0.276944 -0.031070
v 0.213768 -0.275102 -0.031070
v 0.222706 -0.272068 -0.031070
v 0.231171 -0.267894 -0.031070
v 0.239019 -0.262650 -0.031070
v 0.246116 -0.256426 -0.031070
v 0.252339 -0.249330 -0.031070
v 0.257583 -0.241482 -0.031070
v 0.261757 -0.233017 -0.031070
v 0.264791 -0.224079 -0.031070
v 0.266633 -0.214822 -0.031070
v 0.267250 -0.205403 -0.031070
v 0.267250 0.160282 -0.031070
v 0.266633 0.169700 -0.031070
v 0.264791 0.178957 -0.031070
v 0.261757 0.187895 -0.031070
v 0.257583 0.196360 -0.031070
v 0.252339 0.204208 -0.031070
v 0.246116 0.211305 -0.031070
v 0.239019 0.217528 -0.031070
v 0.231171 0.222772 -0.031070
v 0.222706 0.226947 -0.031070
v 0.213768 0.229980 -0.031070
v 0.204511 0.231822 -0.031070
v 0.195092 0.232439 -0.031070
v -0.195092 0.232439 -0.031070
v -0.204511 0.231822 -0.031070
v -0.213768 0.229980 -0.031070
v -0.222706 0.226947 -0.031070
v -0.231171 0.222772 -0.031070
v -0.239019 0.217528 -0.031070
v -0.246116 0.211305 -0.031070
v -0.252339 0.204208 -0.031070
v -0.257583 0.196360 -0.031070
v -0.261757 0.187895 -0.031070
v -0.264791 0.178957 -0.031070
v -0.266633 0.169700 -0.031070
v -0.267250 0.160282 -0.031070
v -0.267250 -0.205403 -0.031070
v -0.266633 -0.214822 -0.031070
v -0.264791 -0.224079 -0.031070
v -0.261757 -0.233017 -0.031070
v -0.257583 -0.241482 -0.031070
v -0.252339 -0.249330 -0.031070
v -0.246116 -0.256426 -0.031070
v -0.239019 -0.262650 -0.031070
v -0.231171 -0.267894 -0.031070
v -0.222706 -0.272068 -0.031070
v -0.213768 -0.275102 -0.031070
v -0.204511 -0.276944 -0.031070
v -0.195092 -0.277561 -0.031070
v 0.195092 -0.277561 0.017030
v 0.204511 -0.276944 0.017030
v 0.213768 -0.275102 0.017030
v 0.222706 -0.272068 0.017030
v 0.231171 -0.267894 0.017030
v 0.239019 -0.262650 0.017030
v 0.246116 -0.256426 0.017030
v 0.252339 -0.249330 0.017030
v 0.257583 -0.241482 0.017030
v 0.261757 -0.233017 0.017030
v 0.264791 -0.224079 0.017030
v 0.266633 -0.214822 0.017030
v 0.267250 -0.205403 0.017030
v 0.267250 0.160282 0.017030
v 0.266633 0.169700 0.017030
v 0.264791 0.178957 0.017030
v 0.261757 0.187895 0.017030
v 0.257583 0.196360 0.017030
v 0.252339 0.204208 0.017030
v 0.246116 0.211305 0.017030
v 0.239019 0.217528 0.017030
v 0.231171 0.222772 0.017030
v 0.222706 0.226947 0.017030
v 0.213768 0.229980 0.017030
v 0.204511 0.231822 0.017030
v 0.195092 0.232439 0.017030
v -0.195092 0.232439 0.017030
v -0.204511 0.231822 0.017030
v -0.213768 0.229980 0.017030
v -0.222706 0.226947 0.017030
v -0.231171 0.222772 0.017030
v -0.239019 0.217528 0.017030
v -0.246116 0.211305 0.017030
v -0.252339 0.204208 0.017030
v -0.257583 0.196360 0.017030
v -0.261757 0.187895 0.017030
v -0.264791 0.178957 0.017030
v -0.266633 0.169700 0.017030
v -0.267250 0.160282 0.017030
v -0.267250 -0.205403 0.017030
v -0.266633 -0.214822 0.017030
v -0.264791 -0.224079 0.017030
v -0.261757 -0.233017 0.017030
v -0.257583 -0.241482 0.017030
v -0.252339 -0.249330 0.017030
v -0.246116 -0.256426 0.017030
v -0.239019 -0.262650 0.017030
v -0.231171 -0.267894 0.017030
v -0.222706 -0.272068 0.017030
v -0.213768 -0.275102 0.017030
v -0.204511 -0.276944 0.017030
v -0.195092 -0.277561 0.017030
v 0.195092 -0.269111 0.025480
v 0.203408 -0.268566 0.025480
v 0.211581 -0.266940 0.025480
v 0.219472 -0.264261 0.025480
v 0.226946 -0.260576 0.025480
v 0.233875 -0.255946 0.025480
v 0.240141 -0.250451 0.025480
v 0.245635 -0.244186 0.025480
v 0.250265 -0.237257 0.025480
v 0.253951 -0.229783 0.025480
v 0.256629 -0.221892 0.025480
v 0.258255 -0.213719 0.025480
v 0.258800 -0.205403 0.025480
v 0.258800 0.160282 0.025480
v 0.258255 0.168597 0.025480
v 0.256629 0.176770 0.025480
v 0.253951 0.184661 0.025480
v 0.250265 0.192135 0.025480
v 0.245635 0.199064 0.025480
v 0.240141 0.205330 0.025480
v 0.233875 0.210824 0.025480
v 0.226946 0.215454 0.025480
v 0.219472 0.219140 0.025480
v 0.211581 0.221818 0.025480
v 0.203408 0.223444 0.025480
v 0.195092 0.223989 0.025480
v -0.195092 0.223989 0.025480
v -0.203408 0.223444 0.025480
v -0.211581 0.221818 0.025480
v -0.219472 0.219140 0.025480
v -0.226946 0.215454 0.025480
v -0.233875 0.210824 0.025480
v -0.240141 0.205330 0.025480
v -0.245635 0.199064 0.025480
v -0.250265 0.192135 0.025480
v -0.253951 0.184661 0.025480
v -0.256629 0.176770 0.025480
v -0.258255 0.168597 0.025480
v -0.258800 0.160282 0.025480
v -0.258800 -0.205403 0.025480
v -0.258255 -0.213719 0.025480
v -0.256629 -0.221892 0.025480
v -0.253951 -0.229783 0.025480
v -0.250265 -0.237257 0.025480
v -0.245635 -0.244186 0.025480
v -0.240141 -0.250451 0.025480
v -0.233875 -0.255946 0.025480
v -0.226946 -0.260576 0.025480
v -0.219472 -0.264261 0.025480
v -0.211581 -0.266940 0.025480
v -0.203408 -0.268566 0.025480
v -0.195092 -0.269111 0.025480
vn -0.0000 -0.0000 -1.0000
vn 0.0463 -0.7064 -0.7063
vn 0.1381 -0.6943 -0.7063
vn 0.2275 -0.6703 -0.7063
vn 0.3131 -0.6349 -0.7063
vn 0.3933 -0.5886 -0.7063
vn 0.4667 -0.5322 -0.7063
vn 0.5322 -0.4667 -0.7064
vn 0.5886 -0.3933 -0.7063
vn 0.6349 -0.3131 -0.7063
vn 0.6703 -0.2275 -0.7063
vn 0.6943 -0.1381 -0.7063
vn 0.7063 -0.0463 -0.7063
vn 0.7071 -0.0000 -0.7071
vn 0.7064 0.0463 -0.7063
vn 0.6943 0.1381 -0.7063
vn 0.6703 0.2275 -0.7063
vn 0.6349 0.3131 -0.7064
vn 0.5886 0.3933 -0.7063
vn 0.5322 0.4667 -0.7063
vn 0.4667 0.5322 -0.7063
vn 0.3933 0.5886 -0.7063
vn 0.3131 0.6349 -0.7063
vn 0.2275 0.6703 -0.7063
vn 0.1381 0.6943 -0.7063
vn 0.0463 0.7063 -0.7063
vn -0.0000 0.7071 -0.7071
vn -0.0463 0.7063 -0.7063
vn -0.1381 0.6943 -0.7063
vn -0.2275 0.6703 -0.7063
vn -0.3131 0.6349 -0.7063
vn -0.3933 0.5886 -0.7063
vn -0.4667 0.5322 -0.7063
vn -0.5322 0.4667 -0.7063
vn -0.5886 0.3933 -0.7063
vn -0.6349 0.3131 -0.7063
vn -0.6703 0.2275 -0.7063
vn -0.6943 0.1381 -0.7063
vn -0.7063 0.0463 -0.7063
vn -0.7071 -0.0000 -0.7071
vn -0.7064 -0.0463 -0.7063
vn -0.6943 -0.1381 -0.7063
vn -0.6703 -0.2275 -0.7063
vn -0.6349 -0.3131 -0.7063
vn -0.5886 -0.3933 -0.7064
vn -0.5322 -0.4667 -0.7063
vn -0.4667 -0.5322 -0.7063
vn -0.3933 -0.5886 -0.7063
vn -0.3131 -0.6349 -0.7063
vn -0.2275 -0.6703 -0.7063
vn -0.1381 -0.6943 -0.7063
vn -0.0463 -0.7063 -0.7063
vn -0.0000 -0.7071 -0.7071
vn 0.0654 -0.9979 -0.0000
vn 0.1951 -0.9808 -0.0000
vn 0.3214 -0.9469 -0.0000
vn 0.4423 -0.8969 -0.0000
vn 0.5556 -0.8315 -0.0000
vn 0.6593 -0.7518 -0.0000
vn 0.7518 -0.6593 -0.0000
vn 0.8315 -0.5556 -0.0000
vn 0.8969 -0.4423 -0.0000
vn 0.9469 -0.3214 -0.0000
vn 0.9808 -0.1951 -0.0000
vn 0.9979 -0.0654 -0.0000
vn 1.0000 -0.0000 -0.0000
vn 0.9979 0.0654 -0.0000
vn 0.9808 0.1951 -0.0000
vn 0.9469 0.3214 -0.0000
vn 0.8969 0.4423 -0.0000
vn 0.8315 0.5556 -0.0000
vn 0.7518 0.6593 -0.0000
vn 0.6593 0.7518 -0.0000
vn 0.5556 0.8315 -0.0000
vn 0.4423 0.8969 -0.0000
vn 0.3214 0.9469 -0.0000
vn 0.1951 0.9808 -0.0000
vn 0.0654 0.9979 -0.0000
vn -0.0000 1.0000 -0.0000
vn -0.0654 0.9979 -0.0000
vn -0.1951 0.9808 -0.0000
vn -0.3214 0.9469 -0.0000
vn -0.4423 0.8969 -0.0000
vn -0.5556 0.8315 -0.0000
vn -0.6593 0.7518 -0.0000
vn -0.7518 0.6593 -0.0000
vn -0.8315 0.5556 -0.0000
vn -0.8969 0.4423 -0.0000
vn -0.9469 0.3214 -0.0000
vn -0.9808 0.1951 -0.0000
vn -0.9979 0.0654 -0.0000
vn -1.0000 -0.0000 -0.0000
vn -0.9979 -0.0654 -0.0000
vn -0.9808 -0.1951 -0.0000
vn -0.9469 -0.3214 -0.0000
vn -0.8969 -0.4423 -0.0000
vn -0.8315 -0.5556 -0.0000
vn -0.7518 -0.6593 -0.0000
vn -0.6593 -0.7518 -0.0000
vn -0.5556 -0.8315 -0.0000
vn -0.4423 -0.8969 -0.0000
vn -0.3214 -0.9469 -0.0000
vn -0.1951 -0.9808 -0.0000
vn -0.0654 -0.9979 -0.0000
vn -0.0000 -1.0000 -0.0000
vn 0.0463 -0.7064 0.7063
vn 0.1381 -0.6943 0.7063
vn 0.2275 -0.6703 0.7063
vn 0.3131 -0.6349 0.7063
vn 0.3933 -0.5886 0.7063
vn 0.4667 -0.5322 0.7063
vn 0.5322 -0.4667 0.7064
vn 0.5886 -0.3933 0.7064
vn 0.6349 -0.3131 0.7063
vn 0.6703 -0.2275 0.7063
vn 0.6943 -0.1381 0.7063
vn 0.7063 -0.0463 0.7064
vn 0.7071 -0.0000 0.7071
vn 0.7064 0.0463 0.7063
vn 0.6943 0.1381 0.7063
vn 0.6703 0.2275 0.7064
vn 0.6349 0.3131 0.7063
vn 0.5886 0.3933 0.7063
vn 0.5322 0.4667 0.7063
vn 0.4667 0.5322 0.7063
vn 0.3933 0.5886 0.7063
vn 0.3131 0.6349 0.7063
vn 0.2275 0.6703 0.7063
vn 0.1381 0.6943 0.7063
vn 0.0463 0.7063 0.7063
vn -0.0000 0.7071 0.7071
vn -0.0463 0.7063 0.7063
vn -0.1381 0.6943 0.7063
vn -0.2275 0.6703 0.7063
vn -0.3131 0.6349 0.7063
vn -0.3933 0.5886 0.7064
vn -0.4667 0.5322 0.7063
vn -0.5322 0.4667 0.7063
vn -0.5886 0.3933 0.7063
vn -0.6349 0.3131 0.7063
vn -0.6703 0.2275 0.7063
vn -0.6943 0.1381 0.7063
vn -0.7063 0.0463 0.7064
vn -0.7071 -0.0000 0.7071
vn -0.7064 -0.0463 0.7063
vn -0.6943 -0.1381 0.7063
vn -0.6703 -0.2275 0.7063
vn -0.6349 -0.3131 0.7063
vn -0.5886 -0.3933 0.7063
vn -0.5322 -0.4667 0.7063
vn -0.4667 -0.5322 0.7063
vn -0.3933 -0.5886 0.7063
vn -0.3131 -0.6349 0.7063
vn -0.2275 -0.6703 0.7063
vn -0.1381 -0.6943 0.7063
vn -0.0463 -0.7063 0.7063
vn -0.0000 -0.7071 0.7071
vn -0.0000 -0.0000 1.0000
vn -0.0001 -0.0000 -1.0000
vn 0.0001 -0.0000 -1.0000
vn 0.0463 -0.7063 -0.7063
vn 0.5322 -0.4667 -0.7063
vn 0.5886 -0.3933 -0.7064
vn 0.7064 -0.0463 -0.7063
vn 0.7063 0.0463 -0.7063
vn 0.6349 0.3131 -0.7063
vn -0.6349 0.3131 -0.7064
vn -0.7064 0.0463 -0.7063
vn -0.7063 -0.0463 -0.7063
vn -0.5886 -0.3933 -0.7063
vn -0.5322 -0.4667 -0.7064
vn -0.0463 -0.7064 -0.7063
vn 0.0463 -0.7063 0.7063
vn 0.5322 -0.4667 0.7063
vn 0.5886 -0.3933 0.7063
vn 0.7064 -0.0463 0.7063
vn 0.7063 0.0463 0.7064
vn 0.6703 0.2275 0.7063
vn 0.3933 0.5886 0.7064
vn -0.3933 0.5886 0.7063
vn -0.6703 0.2275 0.7064
vn -0.7064 0.0463 0.7063
vn -0.7063 -0.0463 0.7064
vn -0.5886 -0.3933 0.7064
vn -0.5322 -0.4667 0.7064
vn -0.0463 -0.7064 0.7063
vn 0.0001 -0.0000 1.0000
vn -0.0001 -0.0000 1.0000
vt 0.025435 0.050547
vt 0.091226 0.995598
vt 1.000000 0.129198
vt 0.876917 0.000000
vt 0.895114 -0.015885
vt 0.876917 -0.017136
vt 0.908774 0.004402
vt 0.892983 0.001105
vt 0.930267 -0.005997
vt 0.912999 -0.012150
vt 0.924019 0.009835
vt 0.946621 0.002469
vt 0.938459 0.017309
vt 0.961784 0.013103
vt 0.963950 0.037841
vt 0.951845 0.026698
vt 0.974565 0.050547
vt 0.975494 0.025724
vt 0.997648 0.056031
vt 0.987517 0.040115
vt 0.983510 0.064599
vt 1.005714 0.073198
vt 0.990631 0.079756
vt 1.011575 0.091324
vt 0.995806 0.095759
vt 1.015133 0.110097
vt 0.998947 0.112334
vt 1.000000 0.870802
vt 1.016325 0.129198
vt 1.015133 0.889903
vt 1.016325 0.870802
vt 0.995806 0.904241
vt 0.998947 0.887666
vt 0.990631 0.920244
vt 1.011575 0.908676
vt 0.983510 0.935401
vt 1.005714 0.926802
vt 0.974565 0.949453
vt 0.997648 0.943969
vt 0.963950 0.962159
vt 0.987517 0.959885
vt 0.951845 0.973302
vt 0.975494 0.974276
vt 0.938459 0.982691
vt 0.961784 0.986897
vt 0.930267 1.005997
vt 0.946621 0.997531
vt 0.908774 0.995598
vt 0.924019 0.990165
vt 0.895114 1.015885
vt 0.912999 1.012150
vt 0.876917 1.000000
vt 0.892983 0.998895
vt 0.123082 1.000000
vt 0.876917 1.017136
vt 0.107017 0.998895
vt 0.123082 1.017136
vt 0.104886 1.015885
vt 0.075981 0.990165
vt 0.087001 1.012150
vt 0.061541 0.982691
vt 0.069733 1.005997
vt 0.038216 0.986897
vt 0.053379 0.997531
vt 0.048155 0.973302
vt 0.024506 0.974276
vt 0.036050 0.962159
vt 0.012483 0.959885
vt 0.025435 0.949453
vt 0.002352 0.943969
vt 0.016490 0.935401
vt -0.005714 0.926802
vt 0.009369 0.920244
vt -0.011575 0.908676
vt 0.001053 0.887666
vt 0.004194 0.904241
vt 0.000000 0.870802
vt -0.015133 0.889903
vt 0.000000 0.129198
vt -0.016325 0.870802
vt -0.015133 0.110097
vt -0.016325 0.129198
vt 0.004194 0.095759
vt 0.001053 0.112334
vt 0.009369 0.079756
vt -0.011575 0.091324
vt 0.016490 0.064599
vt -0.005714 0.073198
vt 0.002352 0.056031
vt 0.024506 0.025724
vt 0.012483 0.040115
vt 0.048155 0.026698
vt 0.036050 0.037841
vt 0.061541 0.017309
vt 0.038216 0.013103
vt 0.075981 0.009835
vt 0.053379 0.002469
vt 0.091226 0.004402
vt 0.069733 -0.005997
vt 0.104886 -0.015885
vt 0.087001 -0.012150
vt 0.123082 0.000000
vt 0.107017 0.001105
vt 0.123082 -0.017136
s 0
usemtl seat_dark_rolled_edge
f 45/1/1 29/2/1 13/3/1
f 1/4/2 54/5/2 53/6/2
f 3/7/3 54/5/3 2/8/3
f 3/7/4 56/9/4 55/10/4
f 4/11/5 57/12/5 56/9/5
f 5/13/6 58/14/6 57/12/6
f 7/15/7 58/14/7 6/16/7
f 8/17/8 59/18/8 7/15/8
f 8/17/9 61/19/9 60/20/9
f 9/21/10 62/22/10 61/19/10
f 10/23/11 63/24/11 62/22/11
f 11/25/12 64/26/12 63/24/12
f 13/3/13 64/26/13 12/27/13
f 14/28/14 65/29/14 13/3/14
f 14/28/15 67/30/15 66/31/15
f 16/32/16 67/30/16 15/33/16
f 17/34/17 68/35/17 16/32/17
f 18/36/18 69/37/18 17/34/18
f 19/38/19 70/39/19 18/36/19
f 20/40/20 71/41/20 19/38/20
f 21/42/21 72/43/21 20/40/21
f 22/44/22 73/45/22 21/42/22
f 22/44/23 75/46/23 74/47/23
f 24/48/24 75/46/24 23/49/24
f 24/48/25 77/50/25 76/51/25
f 26/52/26 77/50/26 25/53/26
f 27/54/27 78/55/27 26/52/27
f 28/56/28 79/57/28 27/54/28
f 29/2/29 80/58/29 28/56/29
f 30/59/30 81/60/30 29/2/30
f 31/61/31 82/62/31 30/59/31
f 31/61/32 84/63/32 83/64/32
f 32/65/33 85/66/33 84/63/33
f 33/67/34 86/68/34 85/66/34
f 34/69/35 87/70/35 86/68/35
f 35/71/36 88/72/36 87/70/36
f 36/73/37 89/74/37 88/72/37
f 38/75/38 89/74/38 37/76/38
f 39/77/39 90/78/39 38/75/39
f 40/79/40 91/80/40 39/77/40
f 40/79/41 93/81/41 92/82/41
f 42/83/42 93/81/42 41/84/42
f 43/85/43 94/86/43 42/83/43
f 44/87/44 95/88/44 43/85/44
f 45/1/45 96/89/45 44/87/45
f 45/1/46 98/90/46 97/91/46
f 47/92/47 98/90/47 46/93/47
f 48/94/48 99/95/48 47/92/48
f 49/96/49 100/97/49 48/94/49
f 50/98/50 101/99/50 49/96/50
f 50/98/51 103/100/51 102/101/51
f 52/102/52 103/100/52 51/103/52
f 1/4/53 104/104/53 52/102/53
f 54/5/54 105/6/54 53/6/54
f 55/10/55 106/5/55 54/5/55
f 56/9/56 107/10/56 55/10/56
f 57/12/57 108/9/57 56/9/57
f 58/14/58 109/12/58 57/12/58
f 59/18/59 110/14/59 58/14/59
f 60/20/60 111/18/60 59/18/60
f 61/19/61 112/20/61 60/20/61
f 62/22/62 113/19/62 61/19/62
f 63/24/63 114/22/63 62/22/63
f 64/26/64 115/24/64 63/24/64
f 65/29/65 116/26/65 64/26/65
f 66/31/66 117/29/66 65/29/66
f 67/30/67 118/31/67 66/31/67
f 68/35/68 119/30/68 67/30/68
f 69/37/69 120/35/69 68/35/69
f 70/39/70 121/37/70 69/37/70
f 71/41/71 122/39/71 70/39/71
f 72/43/72 123/41/72 71/41/72
f 73/45/73 124/43/73 72/43/73
f 74/47/74 125/45/74 73/45/74
f 75/46/75 126/47/75 74/47/75
f 76/51/76 127/46/76 75/46/76
f 77/50/77 128/51/77 76/51/77
f 78/55/78 129/50/78 77/50/78
f 79/57/79 130/55/79 78/55/79
f 80/58/80 131/57/80 79/57/80
f 81/60/81 132/58/81 80/58/81
f 82/62/82 133/60/82 81/60/82
f 83/64/83 134/62/83 82/62/83
f 84/63/84 135/64/84 83/64/84
f 85/66/85 136/63/85 84/63/85
f 86/68/86 137/66/86 85/66/86
f 87/70/87 138/68/87 86/68/87
f 88/72/88 139/70/88 87/70/88
f 89/74/89 140/72/89 88/72/89
f 90/78/90 141/74/90 89/74/90
f 91/80/91 142/78/91 90/78/91
f 92/82/92 143/80/92 91/80/92
f 93/81/93 144/82/93 92/82/93
f 94/86/94 145/81/94 93/81/94
f 95/88/95 146/86/95 94/86/95
f 96/89/96 147/88/96 95/88/96
f 97/91/97 148/89/97 96/89/97
f 98/90/98 149/91/98 97/91/98
f 99/95/99 150/90/99 98/90/99
f 100/97/100 151/95/100 99/95/100
f 101/99/101 152/97/101 100/97/101
f 102/101/102 153/99/102 101/99/102
f 103/100/103 154/101/103 102/101/103
f 104/104/104 155/100/104 103/100/104
f 53/6/105 156/104/105 104/104/105
f 105/6/106 158/8/106 157/4/106
f 107/10/107 158/8/107 106/5/107
f 108/9/108 159/7/108 107/10/108
f 109/12/109 160/11/109 108/9/109
f 110/14/110 161/13/110 109/12/110
f 110/14/111 163/15/111 162/16/111
f 111/18/112 164/17/112 163/15/112
f 113/19/113 164/17/113 112/20/113
f 114/22/114 165/21/114 113/19/114
f 115/24/115 166/23/115 114/22/115
f 116/26/116 167/25/116 115/24/116
f 116/26/117 169/3/117 168/27/117
f 118/31/118 169/3/118 117/29/118
f 119/30/119 170/28/119 118/31/119
f 120/35/120 171/33/120 119/30/120
f 120/35/121 173/34/121 172/32/121
f 121/37/122 174/36/122 173/34/122
f 122/39/123 175/38/123 174/36/123
f 123/41/124 176/40/124 175/38/124
f 125/45/125 176/40/125 124/43/125
f 126/47/126 177/42/126 125/45/126
f 127/46/127 178/44/127 126/47/127
f 127/46/128 180/48/128 179/49/128
f 129/50/129 180/48/129 128/51/129
f 130/55/130 181/53/130 129/50/130
f 131/57/131 182/52/131 130/55/131
f 132/58/132 183/54/132 131/57/132
f 132/58/133 185/2/133 184/56/133
f 133/60/134 186/59/134 185/2/134
f 134/62/135 187/61/135 186/59/135
f 135/64/136 188/65/136 187/61/136
f 136/63/137 189/67/137 188/65/137
f 138/68/138 189/67/138 137/66/138
f 139/70/139 190/69/139 138/68/139
f 140/72/140 191/71/140 139/70/140
f 141/74/141 192/73/141 140/72/141
f 141/74/142 194/75/142 193/76/142
f 142/78/143 195/77/143 194/75/143
f 144/82/144 195/77/144 143/80/144
f 145/81/145 196/79/145 144/82/145
f 145/81/146 198/83/146 197/84/146
f 146/86/147 199/85/147 198/83/147
f 147/88/148 200/87/148 199/85/148
f 148/89/149 201/1/149 200/87/149
f 150/90/150 201/1/150 149/91/150
f 151/95/151 202/93/151 150/90/151
f 151/95/152 204/94/152 203/92/152
f 152/97/153 205/96/153 204/94/153
f 153/99/154 206/98/154 205/96/154
f 155/100/155 206/98/155 154/101/155
f 156/104/156 207/103/156 155/100/156
f 105/6/157 208/102/157 156/104/157
f 1/4/1 52/102/1 51/103/1
f 51/103/1 50/98/1 49/96/1
f 49/96/1 48/94/1 47/92/1
f 47/92/1 46/93/1 45/1/1
f 45/1/1 44/87/1 43/85/1
f 43/85/159 42/83/159 41/84/159
f 41/84/160 40/79/160 39/77/160
f 39/77/1 38/75/1 37/76/1
f 37/76/160 36/73/160 35/71/160
f 35/71/160 34/69/160 33/67/160
f 33/67/1 32/65/1 31/61/1
f 31/61/1 30/59/1 29/2/1
f 29/2/1 28/56/1 27/54/1
f 27/54/1 26/52/1 25/53/1
f 25/53/1 24/48/1 23/49/1
f 23/49/1 22/44/1 21/42/1
f 21/42/1 20/40/1 19/38/1
f 19/38/1 18/36/1 17/34/1
f 17/34/159 16/32/159 15/33/159
f 15/33/1 14/28/1 13/3/1
f 13/3/160 12/27/160 11/25/160
f 11/25/159 10/23/159 9/21/159
f 9/21/160 8/17/160 7/15/160
f 7/15/1 6/16/1 5/13/1
f 5/13/1 4/11/1 3/7/1
f 3/7/1 2/8/1 1/4/1
f 1/4/1 51/103/1 49/96/1
f 49/96/1 47/92/1 45/1/1
f 45/1/1 43/85/1 41/84/1
f 41/84/1 39/77/1 37/76/1
f 37/76/1 35/71/1 33/67/1
f 33/67/1 31/61/1 29/2/1
f 29/2/1 27/54/1 25/53/1
f 25/53/1 23/49/1 21/42/1
f 21/42/1 19/38/1 17/34/1
f 17/34/1 15/33/1 13/3/1
f 13/3/1 11/25/1 9/21/1
f 9/21/1 7/15/1 5/13/1
f 5/13/1 3/7/1 1/4/1
f 1/4/1 49/96/1 45/1/1
f 45/1/1 41/84/1 37/76/1
f 37/76/1 33/67/1 29/2/1
f 29/2/1 25/53/1 21/42/1
f 21/42/1 17/34/1 13/3/1
f 13/3/1 9/21/1 5/13/1
f 5/13/1 1/4/1 45/1/1
f 45/1/1 37/76/1 29/2/1
f 29/2/1 21/42/1 13/3/1
f 13/3/1 5/13/1 45/1/1
f 1/4/161 2/8/161 54/5/161
f 3/7/3 55/10/3 54/5/3
f 3/7/4 4/11/4 56/9/4
f 4/11/5 5/13/5 57/12/5
f 5/13/6 6/16/6 58/14/6
f 7/15/7 59/18/7 58/14/7
f 8/17/162 60/20/162 59/18/162
f 8/17/163 9/21/163 61/19/163
f 9/21/10 10/23/10 62/22/10
f 10/23/11 11/25/11 63/24/11
f 11/25/12 12/27/12 64/26/12
f 13/3/164 65/29/164 64/26/164
f 14/28/14 66/31/14 65/29/14
f 14/28/165 15/33/165 67/30/165
f 16/32/16 68/35/16 67/30/16
f 17/34/17 69/37/17 68/35/17
f 18/36/166 70/39/166 69/37/166
f 19/38/19 71/41/19 70/39/19
f 20/40/20 72/43/20 71/41/20
f 21/42/21 73/45/21 72/43/21
f 22/44/22 74/47/22 73/45/22
f 22/44/23 23/49/23 75/46/23
f 24/48/24 76/51/24 75/46/24
f 24/48/25 25/53/25 77/50/25
f 26/52/26 78/55/26 77/50/26
f 27/54/27 79/57/27 78/55/27
f 28/56/28 80/58/28 79/57/28
f 29/2/29 81/60/29 80/58/29
f 30/59/30 82/62/30 81/60/30
f 31/61/31 83/64/31 82/62/31
f 31/61/32 32/65/32 84/63/32
f 32/65/33 33/67/33 85/66/33
f 33/67/34 34/69/34 86/68/34
f 34/69/35 35/71/35 87/70/35
f 35/71/167 36/73/167 88/72/167
f 36/73/37 37/76/37 89/74/37
f 38/75/38 90/78/38 89/74/38
f 39/77/168 91/80/168 90/78/168
f 40/79/40 92/82/40 91/80/40
f 40/79/169 41/84/169 93/81/169
f 42/83/42 94/86/42 93/81/42
f 43/85/43 95/88/43 94/86/43
f 44/87/44 96/89/44 95/88/44
f 45/1/170 97/91/170 96/89/170
f 45/1/171 46/93/171 98/90/171
f 47/92/47 99/95/47 98/90/47
f 48/94/48 100/97/48 99/95/48
f 49/96/49 101/99/49 100/97/49
f 50/98/50 102/101/50 101/99/50
f 50/98/51 51/103/51 103/100/51
f 52/102/172 104/104/172 103/100/172
f 1/4/53 53/6/53 104/104/53
f 54/5/54 106/5/54 105/6/54
f 55/10/55 107/10/55 106/5/55
f 56/9/56 108/9/56 107/10/56
f 57/12/57 109/12/57 108/9/57
f 58/14/58 110/14/58 109/12/58
f 59/18/59 111/18/59 110/14/59
f 60/20/60 112/20/60 111/18/60
f 61/19/61 113/19/61 112/20/61
f 62/22/62 114/22/62 113/19/62
f 63/24/63 115/24/63 114/22/63
f 64/26/64 116/26/64 115/24/64
f 65/29/65 117/29/65 116/26/65
f 66/31/66 118/31/66 117/29/66
f 67/30/67 119/30/67 118/31/67
f 68/35/68 120/35/68 119/30/68
f 69/37/69 121/37/69 120/35/69
f 70/39/70 122/39/70 121/37/70
f 71/41/71 123/41/71 122/39/71
f 72/43/72 124/43/72 123/41/72
f 73/45/73 125/45/73 124/43/73
f 74/47/74 126/47/74 125/45/74
f 75/46/75 127/46/75 126/47/75
f 76/51/76 128/51/76 127/46/76
f 77/50/77 129/50/77 128/51/77
f 78/55/78 130/55/78 129/50/78
f 79/57/79 131/57/79 130/55/79
f 80/58/80 132/58/80 131/57/80
f 81/60/81 133/60/81 132/58/81
f 82/62/82 134/62/82 133/60/82
f 83/64/83 135/64/83 134/62/83
f 84/63/84 136/63/84 135/64/84
f 85/66/85 137/66/85 136/63/85
f 86/68/86 138/68/86 137/66/86
f 87/70/87 139/70/87 138/68/87
f 88/72/88 140/72/88 139/70/88
f 89/74/89 141/74/89 140/72/89
f 90/78/90 142/78/90 141/74/90
f 91/80/91 143/80/91 142/78/91
f 92/82/92 144/82/92 143/80/92
f 93/81/93 145/81/93 144/82/93
f 94/86/94 146/86/94 145/81/94
f 95/88/95 147/88/95 146/86/95
f 96/89/96 148/89/96 147/88/96
f 97/91/97 149/91/97 148/89/97
f 98/90/98 150/90/98 149/91/98
f 99/95/99 151/95/99 150/90/99
f 100/97/100 152/97/100 151/95/100
f 101/99/101 153/99/101 152/97/101
f 102/101/102 154/101/102 153/99/102
f 103/100/103 155/100/103 154/101/103
f 104/104/104 156/104/104 155/100/104
f 53/6/105 105/6/105 156/104/105
f 105/6/173 106/5/173 158/8/173
f 107/10/107 159/7/107 158/8/107
f 108/9/108 160/11/108 159/7/108
f 109/12/109 161/13/109 160/11/109
f 110/14/110 162/16/110 161/13/110
f 110/14/111 111/18/111 163/15/111
f 111/18/174 112/20/174 164/17/174
f 113/19/175 165/21/175 164/17/175
f 114/22/114 166/23/114 165/21/114
f 115/24/115 167/25/115 166/23/115
f 116/26/116 168/27/116 167/25/116
f 116/26/176 117/29/176 169/3/176
f 118/31/118 170/28/118 169/3/118
f 119/30/177 171/33/177 170/28/177
f 120/35/120 172/32/120 171/33/120
f 120/35/178 121/37/178 173/34/178
f 121/37/122 122/39/122 174/36/122
f 122/39/123 123/41/123 175/38/123
f 123/41/124 124/43/124 176/40/124
f 125/45/125 177/42/125 176/40/125
f 126/47/179 178/44/179 177/42/179
f 127/46/127 179/49/127 178/44/127
f 127/46/128 128/51/128 180/48/128
f 129/50/129 181/53/129 180/48/129
f 130/55/130 182/52/130 181/53/130
f 131/57/131 183/54/131 182/52/131
f 132/58/132 184/56/132 183/54/132
f 132/58/133 133/60/133 185/2/133
f 133/60/134 134/62/134 186/59/134
f 134/62/135 135/64/135 187/61/135
f 135/64/180 136/63/180 188/65/180
f 136/63/137 137/66/137 189/67/137
f 138/68/138 190/69/138 189/67/138
f 139/70/139 191/71/139 190/69/139
f 140/72/140 192/73/140 191/71/140
f 141/74/181 193/76/181 192/73/181
f 141/74/142 142/78/142 194/75/142
f 142/78/182 143/80/182 195/77/182
f 144/82/144 196/79/144 195/77/144
f 145/81/183 197/84/183 196/79/183
f 145/81/146 146/86/146 198/83/146
f 146/86/147 147/88/147 199/85/147
f 147/88/148 148/89/148 200/87/148
f 148/89/184 149/91/184 201/1/184
f 150/90/185 202/93/185 201/1/185
f 151/95/151 203/92/151 202/93/151
f 151/95/152 152/97/152 204/94/152
f 152/97/153 153/99/153 205/96/153
f 153/99/154 154/101/154 206/98/154
f 155/100/155 207/103/155 206/98/155
f 156/104/186 208/102/186 207/103/186
f 105/6/157 157/4/157 208/102/157
usemtl sepia_event_poster_seat
f 164/17/158 180/48/158 196/79/158
f 208/102/158 157/4/158 158/8/158
f 158/8/158 159/7/158 160/11/158
f 160/11/158 161/13/158 162/16/158
f 162/16/158 163/15/158 164/17/158
f 164/17/158 165/21/158 166/23/158
f 166/23/187 167/25/187 168/27/187
f 168/27/187 169/3/187 170/28/187
f 170/28/187 171/33/187 172/32/187
f 172/32/158 173/34/158 174/36/158
f 174/36/158 175/38/158 176/40/158
f 176/40/188 177/42/188 178/44/188
f 178/44/158 179/49/158 180/48/158
f 180/48/158 181/53/158 182/52/158
f 182/52/158 183/54/158 184/56/158
f 184/56/158 185/2/158 186/59/158
f 186/59/158 187/61/158 188/65/158
f 188/65/158 189/67/158 190/69/158
f 190/69/158 191/71/158 192/73/158
f 192/73/188 193/76/188 194/75/188
f 194/75/158 195/77/158 196/79/158
f 196/79/188 197/84/188 198/83/188
f 198/83/158 199/85/158 200/87/158
f 200/87/187 201/1/187 202/93/187
f 202/93/158 203/92/158 204/94/158
f 204/94/158 205/96/158 206/98/158
f 206/98/158 207/103/158 208/102/158
f 208/102/158 158/8/158 160/11/158
f 160/11/158 162/16/158 164/17/158
f 164/17/158 166/23/158 168/27/158
f 168/27/158 170/28/158 172/32/158
f 172/32/158 174/36/158 176/40/158
f 176/40/158 178/44/158 180/48/158
f 180/48/158 182/52/158 184/56/158
f 184/56/158 186/59/158 188/65/158
f 188/65/158 190/69/158 192/73/158
f 192/73/158 194/75/158 196/79/158
f 196/79/158 198/83/158 200/87/158
f 200/87/158 202/93/158 204/94/158
f 204/94/158 206/98/158 208/102/158
f 208/102/158 160/11/158 164/17/158
f 164/17/158 168/27/158 172/32/158
f 172/32/158 176/40/158 180/48/158
f 180/48/158 184/56/158 188/65/158
f 188/65/158 192/73/158 196/79/158
f 196/79/158 200/87/158 204/94/158
f 204/94/158 208/102/158 164/17/158
f 164/17/158 172/32/158 180/48/158
f 180/48/158 188/65/158 196/79/158
f 196/79/158 204/94/158 164/17/158
