# Blender 4.5.0
# www.blender.org
mtllib mesh_001.mtl
o mesh_001
v 0.097500 0.168875 0.000000
v 0.050470 0.188356 0.000000
v -0.000000 0.195000 0.000000
v -0.050470 0.188356 0.000000
v -0.097500 0.168875 0.000000
v -0.137886 0.137886 0.000000
v -0.168875 0.097500 0.000000
v -0.188356 0.050470 0.000000
v -0.195000 -0.000000 0.000000
v -0.188356 -0.050470 0.000000
v -0.168875 -0.097500 0.000000
v -0.137886 -0.137886 0.000000
v -0.097500 -0.168875 0.000000
v -0.050470 -0.188356 0.000000
v -0.000000 -0.195000 0.000000
v 0.050470 -0.188356 0.000000
v 0.097500 -0.168875 0.000000
v 0.137886 -0.137886 0.000000
v 0.168875 -0.097500 0.000000
v 0.188356 -0.050470 0.000000
v 0.195000 0.000000 0.000000
v 0.188356 0.050470 0.000000
v 0.168875 0.097500 0.000000
v 0.137886 0.137886 0.000000
v 0.123420 0.213769 0.029736
v 0.063887 0.238429 0.029736
v -0.000000 0.246840 0.029736
v -0.063887 0.238429 0.029736
v -0.123420 0.213769 0.029736
v -0.174542 0.174542 0.029736
v -0.213769 0.123420 0.029736
v -0.238429 0.063887 0.029736
v -0.246840 -0.000000 0.029736
v -0.238429 -0.063887 0.029736
v -0.213769 -0.123420 0.029736
v -0.174542 -0.174542 0.029736
v -0.123420 -0.213769 0.029736
v -0.063887 -0.238429 0.029736
v -0.000000 -0.246840 0.029736
v 0.063887 -0.238429 0.029736
v 0.123420 -0.213769 0.029736
v 0.174542 -0.174542 0.029736
v 0.213769 -0.123420 0.029736
v 0.238429 -0.063887 0.029736
v 0.246840 0.000000 0.029736
v 0.238429 0.063887 0.029736
v 0.213769 0.123420 0.029736
v 0.174542 0.174542 0.029736
v 0.147114 0.254808 0.066151
v 0.076152 0.284202 0.066151
v -0.000000 0.294227 0.066151
v -0.076152 0.284202 0.066151
v -0.147114 0.254808 0.066151
v -0.208050 0.208050 0.066151
v -0.254808 0.147114 0.066151
v -0.284202 0.076152 0.066151
v -0.294227 -0.000000 0.066151
v -0.284202 -0.076152 0.066151
v -0.254808 -0.147114 0.066151
v -0.208050 -0.208050 0.066151
v -0.147114 -0.254808 0.066151
v -0.076152 -0.284202 0.066151
v -0.000000 -0.294227 0.066151
v 0.076152 -0.284202 0.066151
v 0.147114 -0.254808 0.066151
v 0.208050 -0.208050 0.066151
v 0.254808 -0.147114 0.066151
v 0.284202 -0.076152 0.066151
v 0.294227 0.000000 0.066151
v 0.284202 0.076152 0.066151
v 0.254808 0.147114 0.066151
v 0.208050 0.208050 0.066151
v 0.168154 0.291251 0.108587
v 0.087043 0.324849 0.108587
v -0.000000 0.336308 0.108587
v -0.087043 0.324849 0.108587
v -0.168154 0.291251 0.108587
v -0.237806 0.237806 0.108587
v -0.291251 0.168154 0.108587
v -0.324849 0.087043 0.108587
v -0.336308 -0.000000 0.108587
v -0.324849 -0.087043 0.108587
v -0.291251 -0.168154 0.108587
v -0.237806 -0.237806 0.108587
v -0.168154 -0.291251 0.108587
v -0.087043 -0.324849 0.108587
v -0.000000 -0.336308 0.108587
v 0.087043 -0.324849 0.108587
v 0.168154 -0.291251 0.108587
v 0.237806 -0.237806 0.108587
v 0.291251 -0.168154 0.108587
v 0.324849 -0.087043 0.108587
v 0.336308 0.000000 0.108587
v 0.324849 0.087043 0.108587
v 0.291251 0.168154 0.108587
v 0.237806 0.237806 0.108587
v 0.186162 0.322442 0.156278
v 0.096364 0.359637 0.156278
v -0.000000 0.372323 0.156278
v -0.096364 0.359637 0.156278
v -0.186162 0.322442 0.156278
v -0.263272 0.263272 0.156278
v -0.322442 0.186162 0.156278
v -0.359637 0.096364 0.156278
v -0.372323 -0.000000 0.156278
v -0.359637 -0.096364 0.156278
v -0.322442 -0.186162 0.156278
v -0.263272 -0.263272 0.156278
v -0.186162 -0.322442 0.156278
v -0.096364 -0.359637 0.156278
v -0.000000 -0.372323 0.156278
v 0.096364 -0.359637 0.156278
v 0.186162 -0.322442 0.156278
v 0.263272 -0.263272 0.156278
v 0.322442 -0.186162 0.156278
v 0.359637 -0.096364 0.156278
v 0.372323 0.000000 0.156278
v 0.359637 0.096364 0.156278
v 0.322442 0.186162 0.156278
v 0.263272 0.263272 0.156278
v 0.200812 0.347816 0.208366
v 0.103948 0.387938 0.208366
v -0.000000 0.401623 0.208366
v -0.103948 0.387938 0.208366
v -0.200812 0.347816 0.208366
v -0.283991 0.283991 0.208366
v -0.347816 0.200812 0.208366
v -0.387938 0.103948 0.208366
v -0.401623 -0.000000 0.208366
v -0.387938 -0.103948 0.208366
v -0.347816 -0.200812 0.208366
v -0.283991 -0.283991 0.208366
v -0.200812 -0.347816 0.208366
v -0.103948 -0.387938 0.208366
v -0.000000 -0.401623 0.208366
v 0.103948 -0.387938 0.208366
v 0.200812 -0.347816 0.208366
v 0.283991 -0.283991 0.208366
v 0.347816 -0.200812 0.208366
v 0.387938 -0.103948 0.208366
v 0.401623 0.000000 0.208366
v 0.387938 0.103948 0.208366
v 0.347816 0.200812 0.208366
v 0.283991 0.283991 0.208366
v 0.211840 0.366917 0.263910
v 0.109656 0.409243 0.263910
v -0.000000 0.423680 0.263910
v -0.109656 0.409243 0.263910
v -0.211840 0.366917 0.263910
v -0.299587 0.299587 0.263910
v -0.366917 0.211840 0.263910
v -0.409243 0.109656 0.263910
v -0.423680 -0.000000 0.263910
v -0.409243 -0.109656 0.263910
v -0.366917 -0.211840 0.263910
v -0.299587 -0.299587 0.263910
v -0.211840 -0.366917 0.263910
v -0.109656 -0.409243 0.263910
v -0.000000 -0.423680 0.263910
v 0.109656 -0.409243 0.263910
v 0.211840 -0.366917 0.263910
v 0.299587 -0.299587 0.263910
v 0.366917 -0.211840 0.263910
v 0.409243 -0.109656 0.263910
v 0.423680 0.000000 0.263910
v 0.409243 0.109656 0.263910
v 0.366917 0.211840 0.263910
v 0.299587 0.299587 0.263910
v 0.219047 0.379401 0.321908
v 0.113387 0.423167 0.321908
v -0.000000 0.438094 0.321908
v -0.113387 0.423167 0.321908
v -0.219047 0.379401 0.321908
v -0.309779 0.309779 0.321908
v -0.379401 0.219047 0.321908
v -0.423167 0.113387 0.321908
v -0.438094 -0.000000 0.321908
v -0.423167 -0.113387 0.321908
v -0.379401 -0.219047 0.321908
v -0.309779 -0.309779 0.321908
v -0.219047 -0.379401 0.321908
v -0.113387 -0.423167 0.321908
v -0.000000 -0.438094 0.321908
v 0.113387 -0.423167 0.321908
v 0.219047 -0.379401 0.321908
v 0.309779 -0.309779 0.321908
v 0.379401 -0.219047 0.321908
v 0.423167 -0.113387 0.321908
v 0.438094 0.000000 0.321908
v 0.423167 0.113387 0.321908
v 0.379401 0.219047 0.321908
v 0.309779 0.309779 0.321908
v 0.222304 0.385041 0.381315
v 0.115073 0.429458 0.381315
v -0.000000 0.444608 0.381315
v -0.115073 0.429458 0.381315
v -0.222304 0.385041 0.381315
v -0.314385 0.314385 0.381315
v -0.385041 0.222304 0.381315
v -0.429458 0.115073 0.381315
v -0.444608 -0.000000 0.381315
v -0.429458 -0.115073 0.381315
v -0.385041 -0.222304 0.381315
v -0.314385 -0.314385 0.381315
v -0.222304 -0.385041 0.381315
v -0.115073 -0.429458 0.381315
v -0.000000 -0.444608 0.381315
v 0.115073 -0.429458 0.381315
v 0.222304 -0.385041 0.381315
v 0.314385 -0.314385 0.381315
v 0.385041 -0.222304 0.381315
v 0.429458 -0.115073 0.381315
v 0.444608 0.000000 0.381315
v 0.429458 0.115073 0.381315
v 0.385041 0.222304 0.381315
v 0.314385 0.314385 0.381315
v 0.221551 0.383737 0.441059
v 0.114683 0.428003 0.441059
v -0.000000 0.443102 0.441059
v -0.114683 0.428003 0.441059
v -0.221551 0.383737 0.441059
v -0.313320 0.313320 0.441059
v -0.383737 0.221551 0.441059
v -0.428003 0.114683 0.441059
v -0.443102 -0.000000 0.441059
v -0.428003 -0.114683 0.441059
v -0.383737 -0.221551 0.441059
v -0.313320 -0.313320 0.441059
v -0.221551 -0.383737 0.441059
v -0.114683 -0.428003 0.441059
v -0.000000 -0.443102 0.441059
v 0.114683 -0.428003 0.441059
v 0.221551 -0.383737 0.441059
v 0.313320 -0.313320 0.441059
v 0.383737 -0.221551 0.441059
v 0.428003 -0.114683 0.441059
v 0.443102 0.000000 0.441059
v 0.428003 0.114683 0.441059
v 0.383737 0.221551 0.441059
v 0.313320 0.313320 0.441059
v 0.216802 0.375512 0.500062
v 0.112225 0.418829 0.500062
v -0.000000 0.433604 0.500062
v -0.112225 0.418829 0.500062
v -0.216802 0.375512 0.500062
v -0.306604 0.306604 0.500062
v -0.375512 0.216802 0.500062
v -0.418829 0.112225 0.500062
v -0.433604 -0.000000 0.500062
v -0.418829 -0.112225 0.500062
v -0.375512 -0.216802 0.500062
v -0.306604 -0.306604 0.500062
v -0.216802 -0.375512 0.500062
v -0.112225 -0.418829 0.500062
v -0.000000 -0.433604 0.500062
v 0.112225 -0.418829 0.500062
v 0.216802 -0.375512 0.500062
v 0.306604 -0.306604 0.500062
v 0.375512 -0.216802 0.500062
v 0.418829 -0.112225 0.500062
v 0.433604 0.000000 0.500062
v 0.418829 0.112225 0.500062
v 0.375512 0.216802 0.500062
v 0.306604 0.306604 0.500062
v 0.208143 0.360514 0.557261
v 0.107743 0.402101 0.557261
v -0.000000 0.416286 0.557261
v -0.107743 0.402101 0.557261
v -0.208143 0.360514 0.557261
v -0.294359 0.294359 0.557261
v -0.360514 0.208143 0.557261
v -0.402101 0.107743 0.557261
v -0.416286 -0.000000 0.557261
v -0.402101 -0.107743 0.557261
v -0.360514 -0.208143 0.557261
v -0.294359 -0.294359 0.557261
v -0.208143 -0.360514 0.557261
v -0.107743 -0.402101 0.557261
v -0.000000 -0.416286 0.557261
v 0.107743 -0.402101 0.557261
v 0.208143 -0.360514 0.557261
v 0.294359 -0.294359 0.557261
v 0.360514 -0.208143 0.557261
v 0.402101 -0.107743 0.557261
v 0.416286 0.000000 0.557261
v 0.402101 0.107743 0.557261
v 0.360514 0.208143 0.557261
v 0.294359 0.294359 0.557261
v 0.195730 0.339014 0.611623
v 0.101317 0.378121 0.611623
v -0.000000 0.391460 0.611623
v -0.101317 0.378121 0.611623
v -0.195730 0.339014 0.611623
v -0.276804 0.276804 0.611623
v -0.339014 0.195730 0.611623
v -0.378121 0.101317 0.611623
v -0.391460 -0.000000 0.611623
v -0.378121 -0.101317 0.611623
v -0.339014 -0.195730 0.611623
v -0.276804 -0.276804 0.611623
v -0.195730 -0.339014 0.611623
v -0.101317 -0.378121 0.611623
v -0.000000 -0.391460 0.611623
v 0.101317 -0.378121 0.611623
v 0.195730 -0.339014 0.611623
v 0.276804 -0.276804 0.611623
v 0.339014 -0.195730 0.611623
v 0.378121 -0.101317 0.611623
v 0.391460 0.000000 0.611623
v 0.378121 0.101317 0.611623
v 0.339014 0.195730 0.611623
v 0.276804 0.276804 0.611623
v 0.179786 0.311399 0.662169
v 0.093064 0.347321 0.662169
v -0.000000 0.359573 0.662169
v -0.093064 0.347321 0.662169
v -0.179786 0.311399 0.662169
v -0.254256 0.254256 0.662169
v -0.311399 0.179786 0.662169
v -0.347321 0.093064 0.662169
v -0.359573 -0.000000 0.662169
v -0.347321 -0.093064 0.662169
v -0.311399 -0.179786 0.662169
v -0.254256 -0.254256 0.662169
v -0.179786 -0.311399 0.662169
v -0.093064 -0.347321 0.662169
v -0.000000 -0.359573 0.662169
v 0.093064 -0.347321 0.662169
v 0.179786 -0.311399 0.662169
v 0.254256 -0.254256 0.662169
v 0.311399 -0.179786 0.662169
v 0.347321 -0.093064 0.662169
v 0.359573 0.000000 0.662169
v 0.347321 0.093064 0.662169
v 0.311399 0.179786 0.662169
v 0.254256 0.254256 0.662169
v 0.160600 0.278168 0.707986
v 0.083133 0.310256 0.707986
v -0.000000 0.321201 0.707986
v -0.083133 0.310256 0.707986
v -0.160600 0.278168 0.707986
v -0.227123 0.227123 0.707986
v -0.278168 0.160600 0.707986
v -0.310256 0.083133 0.707986
v -0.321201 -0.000000 0.707986
v -0.310256 -0.083133 0.707986
v -0.278168 -0.160600 0.707986
v -0.227123 -0.227123 0.707986
v -0.160600 -0.278168 0.707986
v -0.083133 -0.310256 0.707986
v -0.000000 -0.321201 0.707986
v 0.083133 -0.310256 0.707986
v 0.160600 -0.278168 0.707986
v 0.227123 -0.227123 0.707986
v 0.278168 -0.160600 0.707986
v 0.310256 -0.083133 0.707986
v 0.321201 0.000000 0.707986
v 0.310256 0.083133 0.707986
v 0.278168 0.160600 0.707986
v 0.227123 0.227123 0.707986
v 0.138518 0.239920 0.748248
v 0.071702 0.267596 0.748248
v -0.000000 0.277035 0.748248
v -0.071702 0.267596 0.748248
v -0.138518 0.239920 0.748248
v -0.195894 0.195894 0.748248
v -0.239920 0.138518 0.748248
v -0.267596 0.071702 0.748248
v -0.277035 -0.000000 0.748248
v -0.267596 -0.071702 0.748248
v -0.239920 -0.138518 0.748248
v -0.195894 -0.195894 0.748248
v -0.138518 -0.239920 0.748248
v -0.071702 -0.267596 0.748248
v -0.000000 -0.277035 0.748248
v 0.071702 -0.267596 0.748248
v 0.138518 -0.239920 0.748248
v 0.195894 -0.195894 0.748248
v 0.239920 -0.138518 0.748248
v 0.267596 -0.071702 0.748248
v 0.277035 0.000000 0.748248
v 0.267596 0.071702 0.748248
v 0.239920 0.138518 0.748248
v 0.195894 0.195894 0.748248
v 0.113937 0.197344 0.782229
v 0.058978 0.220109 0.782229
v -0.000000 0.227873 0.782229
v -0.058978 0.220109 0.782229
v -0.113937 0.197344 0.782229
v -0.161131 0.161131 0.782229
v -0.197344 0.113937 0.782229
v -0.220109 0.058978 0.782229
v -0.227873 -0.000000 0.782229
v -0.220109 -0.058978 0.782229
v -0.197344 -0.113937 0.782229
v -0.161131 -0.161131 0.782229
v -0.113937 -0.197344 0.782229
v -0.058978 -0.220109 0.782229
v -0.000000 -0.227873 0.782229
v 0.058978 -0.220109 0.782229
v 0.113937 -0.197344 0.782229
v 0.161131 -0.161131 0.782229
v 0.197344 -0.113937 0.782229
v 0.220109 -0.058978 0.782229
v 0.227873 0.000000 0.782229
v 0.220109 0.058978 0.782229
v 0.197344 0.113937 0.782229
v 0.161131 0.161131 0.782229
v 0.087301 0.151209 0.809316
v 0.045190 0.168652 0.809316
v -0.000000 0.174602 0.809316
v -0.045190 0.168652 0.809316
v -0.087301 0.151209 0.809316
v -0.123462 0.123462 0.809316
v -0.151209 0.087301 0.809316
v -0.168652 0.045190 0.809316
v -0.174602 -0.000000 0.809316
v -0.168652 -0.045190 0.809316
v -0.151209 -0.087301 0.809316
v -0.123462 -0.123462 0.809316
v -0.087301 -0.151209 0.809316
v -0.045190 -0.168652 0.809316
v -0.000000 -0.174602 0.809316
v 0.045190 -0.168652 0.809316
v 0.087301 -0.151209 0.809316
v 0.123462 -0.123462 0.809316
v 0.151209 -0.087301 0.809316
v 0.168652 -0.045190 0.809316
v 0.174602 0.000000 0.809316
v 0.168652 0.045190 0.809316
v 0.151209 0.087301 0.809316
v 0.123462 0.123462 0.809316
v 0.059090 0.102347 0.829020
v 0.030587 0.114154 0.829020
v -0.000000 0.118181 0.829020
v -0.030587 0.114154 0.829020
v -0.059090 0.102347 0.829020
v -0.083566 0.083566 0.829020
v -0.102347 0.059090 0.829020
v -0.114154 0.030587 0.829020
v -0.118181 -0.000000 0.829020
v -0.114154 -0.030587 0.829020
v -0.102347 -0.059090 0.829020
v -0.083566 -0.083566 0.829020
v -0.059090 -0.102347 0.829020
v -0.030587 -0.114154 0.829020
v -0.000000 -0.118181 0.829020
v 0.030587 -0.114154 0.829020
v 0.059090 -0.102347 0.829020
v 0.083566 -0.083566 0.829020
v 0.102347 -0.059090 0.829020
v 0.114154 -0.030587 0.829020
v 0.118181 0.000000 0.829020
v 0.114154 0.030587 0.829020
v 0.102347 0.059090 0.829020
v 0.083566 0.083566 0.829020
v 0.029814 0.051639 0.840987
v 0.015433 0.057596 0.840987
v -0.000000 0.059628 0.840987
v -0.015433 0.057596 0.840987
v -0.029814 0.051639 0.840987
v -0.042163 0.042163 0.840987
v -0.051639 0.029814 0.840987
v -0.057596 0.015433 0.840987
v -0.059628 -0.000000 0.840987
v -0.057596 -0.015433 0.840987
v -0.051639 -0.029814 0.840987
v -0.042163 -0.042163 0.840987
v -0.029814 -0.051639 0.840987
v -0.015433 -0.057596 0.840987
v -0.000000 -0.059628 0.840987
v 0.015433 -0.057596 0.840987
v 0.029814 -0.051639 0.840987
v 0.042163 -0.042163 0.840987
v 0.051639 -0.029814 0.840987
v 0.057596 -0.015433 0.840987
v 0.059628 0.000000 0.840987
v 0.057596 0.015433 0.840987
v 0.051639 0.029814 0.840987
v 0.042163 0.042163 0.840987
v 0.000000 -0.000000 0.845000
vn 0.1288 0.4806 -0.8674
vn 0.2793 0.4837 -0.8295
vn 0.2488 0.4309 -0.8674
vn -0.0000 0.4976 -0.8674
vn 0.1446 0.5395 -0.8295
vn -0.1288 0.4806 -0.8674
vn -0.0000 0.5585 -0.8295
vn -0.2488 0.4309 -0.8674
vn -0.1446 0.5395 -0.8295
vn -0.3518 0.3518 -0.8674
vn -0.2793 0.4837 -0.8295
vn -0.4309 0.2488 -0.8674
vn -0.3949 0.3949 -0.8295
vn -0.4806 0.1288 -0.8674
vn -0.4837 0.2793 -0.8295
vn -0.4976 -0.0000 -0.8674
vn -0.5395 0.1446 -0.8295
vn -0.4806 -0.1288 -0.8674
vn -0.5585 -0.0000 -0.8295
vn -0.4309 -0.2488 -0.8674
vn -0.5395 -0.1446 -0.8295
vn -0.3518 -0.3518 -0.8674
vn -0.4837 -0.2793 -0.8295
vn -0.2488 -0.4309 -0.8674
vn -0.3949 -0.3949 -0.8295
vn -0.1288 -0.4806 -0.8674
vn -0.2793 -0.4837 -0.8295
vn -0.0000 -0.4976 -0.8674
vn -0.1446 -0.5395 -0.8295
vn 0.1288 -0.4806 -0.8674
vn -0.0000 -0.5585 -0.8295
vn 0.2488 -0.4309 -0.8674
vn 0.1446 -0.5395 -0.8295
vn 0.3518 -0.3518 -0.8674
vn 0.2793 -0.4837 -0.8295
vn 0.4309 -0.2488 -0.8674
vn 0.3949 -0.3949 -0.8295
vn 0.4806 -0.1288 -0.8674
vn 0.4837 -0.2793 -0.8295
vn 0.4976 -0.0000 -0.8674
vn 0.5395 -0.1446 -0.8295
vn 0.4806 0.1288 -0.8674
vn 0.5585 -0.0000 -0.8295
vn 0.4309 0.2488 -0.8674
vn 0.5395 0.1446 -0.8295
vn 0.3518 0.3518 -0.8674
vn 0.4837 0.2793 -0.8295
vn 0.3949 0.3949 -0.8295
vn 0.1719 0.6417 -0.7475
vn 0.3322 0.5753 -0.7475
vn -0.1719 0.6417 -0.7475
vn -0.0000 0.6643 -0.7475
vn -0.3322 0.5753 -0.7475
vn -0.5753 0.3322 -0.7475
vn -0.4697 0.4697 -0.7475
vn -0.6417 0.1719 -0.7475
vn -0.6417 -0.1719 -0.7475
vn -0.6643 -0.0000 -0.7475
vn -0.5753 -0.3322 -0.7475
vn -0.3322 -0.5753 -0.7475
vn -0.4697 -0.4697 -0.7475
vn -0.1719 -0.6417 -0.7475
vn 0.1719 -0.6417 -0.7475
vn -0.0000 -0.6643 -0.7475
vn 0.3322 -0.5753 -0.7475
vn 0.5753 -0.3322 -0.7475
vn 0.4697 -0.4697 -0.7475
vn 0.6417 -0.1719 -0.7475
vn 0.6417 0.1719 -0.7475
vn 0.6643 -0.0000 -0.7475
vn 0.5753 0.3322 -0.7475
vn 0.4697 0.4697 -0.7475
vn 0.3791 0.6566 -0.6521
vn -0.0000 0.7581 -0.6521
vn 0.1962 0.7323 -0.6521
vn -0.1962 0.7323 -0.6521
vn -0.5361 0.5361 -0.6521
vn -0.3791 0.6566 -0.6521
vn -0.6566 0.3791 -0.6521
vn -0.7581 -0.0000 -0.6521
vn -0.7323 0.1962 -0.6521
vn -0.7323 -0.1962 -0.6521
vn -0.5361 -0.5361 -0.6521
vn -0.6566 -0.3791 -0.6521
vn -0.3791 -0.6566 -0.6521
vn -0.0000 -0.7581 -0.6521
vn -0.1962 -0.7323 -0.6521
vn 0.1962 -0.7323 -0.6521
vn 0.5361 -0.5361 -0.6521
vn 0.3791 -0.6566 -0.6521
vn 0.6566 -0.3791 -0.6521
vn 0.7581 -0.0000 -0.6521
vn 0.7323 -0.1962 -0.6521
vn 0.7323 0.1962 -0.6521
vn 0.5361 0.5361 -0.6521
vn 0.6566 0.3791 -0.6521
vn 0.4192 0.7260 -0.5451
vn 0.2170 0.8098 -0.5451
vn -0.0000 0.8383 -0.5451
vn -0.2170 0.8098 -0.5451
vn -0.4192 0.7260 -0.5451
vn -0.5928 0.5928 -0.5451
vn -0.7260 0.4192 -0.5451
vn -0.8098 0.2170 -0.5451
vn -0.8383 -0.0000 -0.5451
vn -0.8098 -0.2170 -0.5451
vn -0.7260 -0.4192 -0.5451
vn -0.5928 -0.5928 -0.5451
vn -0.4192 -0.7260 -0.5451
vn -0.2170 -0.8098 -0.5451
vn -0.0000 -0.8383 -0.5451
vn 0.2170 -0.8098 -0.5451
vn 0.4192 -0.7260 -0.5451
vn 0.5928 -0.5928 -0.5451
vn 0.7260 -0.4192 -0.5451
vn 0.8098 -0.2170 -0.5451
vn 0.8383 -0.0000 -0.5451
vn 0.8098 0.2170 -0.5451
vn 0.7260 0.4192 -0.5451
vn 0.5928 0.5928 -0.5451
vn 0.4518 0.7825 -0.4285
vn 0.2339 0.8728 -0.4285
vn -0.0000 0.9035 -0.4285
vn -0.2339 0.8728 -0.4285
vn -0.6389 0.6389 -0.4285
vn -0.4518 0.7825 -0.4285
vn -0.7825 0.4518 -0.4285
vn -0.8728 0.2339 -0.4285
vn -0.9035 -0.0000 -0.4285
vn -0.8728 -0.2339 -0.4285
vn -0.6389 -0.6389 -0.4285
vn -0.7825 -0.4518 -0.4285
vn -0.4518 -0.7825 -0.4285
vn -0.2339 -0.8728 -0.4285
vn -0.0000 -0.9035 -0.4285
vn 0.2339 -0.8728 -0.4285
vn 0.6389 -0.6389 -0.4285
vn 0.4518 -0.7825 -0.4285
vn 0.7825 -0.4518 -0.4285
vn 0.8728 -0.2339 -0.4285
vn 0.9035 -0.0000 -0.4285
vn 0.8728 0.2339 -0.4285
vn 0.6389 0.6389 -0.4285
vn 0.7825 0.4518 -0.4285
vn 0.4763 0.8250 -0.3042
vn 0.2466 0.9201 -0.3042
vn -0.0000 0.9526 -0.3042
vn -0.2466 0.9201 -0.3042
vn -0.4763 0.8250 -0.3042
vn -0.6736 0.6736 -0.3042
vn -0.8250 0.4763 -0.3042
vn -0.9201 0.2466 -0.3042
vn -0.9526 -0.0000 -0.3042
vn -0.9201 -0.2466 -0.3042
vn -0.8250 -0.4763 -0.3042
vn -0.6736 -0.6736 -0.3042
vn -0.4763 -0.8250 -0.3042
vn -0.2466 -0.9201 -0.3042
vn -0.0000 -0.9526 -0.3042
vn 0.2466 -0.9201 -0.3042
vn 0.4763 -0.8250 -0.3042
vn 0.6736 -0.6736 -0.3042
vn 0.8250 -0.4763 -0.3042
vn 0.9201 -0.2466 -0.3042
vn 0.9526 -0.0000 -0.3042
vn 0.9201 0.2466 -0.3042
vn 0.8250 0.4763 -0.3042
vn 0.6736 0.6736 -0.3042
vn 0.4923 0.8527 -0.1745
vn 0.2548 0.9511 -0.1745
vn -0.0000 0.9847 -0.1745
vn -0.2548 0.9511 -0.1745
vn -0.4923 0.8527 -0.1745
vn -0.6963 0.6963 -0.1745
vn -0.8527 0.4923 -0.1745
vn -0.9511 0.2548 -0.1745
vn -0.9847 -0.0000 -0.1745
vn -0.9511 -0.2548 -0.1745
vn -0.8527 -0.4923 -0.1745
vn -0.6963 -0.6963 -0.1745
vn -0.4923 -0.8527 -0.1745
vn -0.2548 -0.9511 -0.1745
vn -0.0000 -0.9847 -0.1745
vn 0.2548 -0.9511 -0.1745
vn 0.4923 -0.8527 -0.1745
vn 0.6963 -0.6963 -0.1745
vn 0.8527 -0.4923 -0.1745
vn 0.9511 -0.2548 -0.1745
vn 0.9847 -0.0000 -0.1745
vn 0.9511 0.2548 -0.1745
vn 0.8527 0.4923 -0.1745
vn 0.6963 0.6963 -0.1745
vn 0.4996 0.8653 -0.0418
vn 0.2586 0.9651 -0.0418
vn -0.0000 0.9991 -0.0418
vn -0.2586 0.9651 -0.0418
vn -0.4996 0.8653 -0.0418
vn -0.7065 0.7065 -0.0418
vn -0.8653 0.4996 -0.0418
vn -0.9651 0.2586 -0.0418
vn -0.9991 -0.0000 -0.0418
vn -0.9651 -0.2586 -0.0418
vn -0.8653 -0.4996 -0.0418
vn -0.7065 -0.7065 -0.0418
vn -0.4996 -0.8653 -0.0418
vn -0.2586 -0.9651 -0.0418
vn -0.0000 -0.9991 -0.0418
vn 0.2586 -0.9651 -0.0418
vn 0.4996 -0.8653 -0.0418
vn 0.7065 -0.7065 -0.0418
vn 0.8653 -0.4996 -0.0418
vn 0.9651 -0.2586 -0.0418
vn 0.9991 -0.0000 -0.0418
vn 0.9651 0.2586 -0.0418
vn 0.8653 0.4996 -0.0418
vn 0.7065 0.7065 -0.0418
vn 0.4979 0.8624 0.0918
vn 0.2577 0.9619 0.0918
vn -0.0000 0.9958 0.0918
vn -0.2577 0.9619 0.0918
vn -0.4979 0.8624 0.0918
vn -0.7041 0.7041 0.0918
vn -0.8624 0.4979 0.0918
vn -0.9619 0.2577 0.0918
vn -0.9958 -0.0000 0.0918
vn -0.9619 -0.2577 0.0918
vn -0.8624 -0.4979 0.0918
vn -0.7041 -0.7041 0.0918
vn -0.4979 -0.8624 0.0918
vn -0.2577 -0.9619 0.0918
vn -0.0000 -0.9958 0.0918
vn 0.2577 -0.9619 0.0918
vn 0.4979 -0.8624 0.0918
vn 0.7041 -0.7041 0.0918
vn 0.8624 -0.4979 0.0918
vn 0.9619 -0.2577 0.0918
vn 0.9958 -0.0000 0.0918
vn 0.9619 0.2577 0.0918
vn 0.8624 0.4979 0.0918
vn 0.7041 0.7041 0.0918
vn 0.4873 0.8441 0.2236
vn 0.2523 0.9415 0.2236
vn -0.0000 0.9747 0.2236
vn -0.2523 0.9415 0.2236
vn -0.4873 0.8441 0.2236
vn -0.6892 0.6892 0.2236
vn -0.8441 0.4873 0.2236
vn -0.9415 0.2523 0.2236
vn -0.9747 -0.0000 0.2236
vn -0.9415 -0.2523 0.2236
vn -0.8441 -0.4873 0.2236
vn -0.6892 -0.6892 0.2236
vn -0.4873 -0.8441 0.2236
vn -0.2523 -0.9415 0.2236
vn -0.0000 -0.9747 0.2236
vn 0.2523 -0.9415 0.2236
vn 0.4873 -0.8441 0.2236
vn 0.6892 -0.6892 0.2236
vn 0.8441 -0.4873 0.2236
vn 0.9415 -0.2523 0.2236
vn 0.9747 -0.0000 0.2236
vn 0.9415 0.2523 0.2236
vn 0.8441 0.4873 0.2236
vn 0.6892 0.6892 0.2236
vn 0.4681 0.8107 0.3516
vn 0.2423 0.9043 0.3516
vn -0.0000 0.9362 0.3516
vn -0.2423 0.9043 0.3516
vn -0.4681 0.8107 0.3516
vn -0.6620 0.6620 0.3516
vn -0.8107 0.4681 0.3516
vn -0.9043 0.2423 0.3516
vn -0.9362 -0.0000 0.3516
vn -0.9043 -0.2423 0.3516
vn -0.8107 -0.4681 0.3516
vn -0.6620 -0.6620 0.3516
vn -0.4681 -0.8107 0.3516
vn -0.2423 -0.9043 0.3516
vn -0.0000 -0.9362 0.3516
vn 0.2423 -0.9043 0.3516
vn 0.4681 -0.8107 0.3516
vn 0.6620 -0.6620 0.3516
vn 0.8107 -0.4681 0.3516
vn 0.9043 -0.2423 0.3516
vn 0.9362 -0.0000 0.3516
vn 0.9043 0.2423 0.3516
vn 0.8107 0.4681 0.3516
vn 0.6620 0.6620 0.3516
vn 0.4405 0.7629 0.4732
vn 0.2280 0.8509 0.4732
vn -0.0000 0.8809 0.4732
vn -0.2280 0.8509 0.4732
vn -0.4405 0.7629 0.4732
vn -0.6229 0.6229 0.4732
vn -0.7629 0.4405 0.4732
vn -0.8509 0.2280 0.4732
vn -0.8809 -0.0000 0.4732
vn -0.8509 -0.2280 0.4732
vn -0.7629 -0.4405 0.4732
vn -0.6229 -0.6229 0.4732
vn -0.4405 -0.7629 0.4732
vn -0.2280 -0.8509 0.4732
vn -0.0000 -0.8809 0.4732
vn 0.2280 -0.8509 0.4732
vn 0.4405 -0.7629 0.4732
vn 0.6229 -0.6229 0.4732
vn 0.7629 -0.4405 0.4732
vn 0.8509 -0.2280 0.4732
vn 0.8809 -0.0000 0.4732
vn 0.8509 0.2280 0.4732
vn 0.7629 0.4405 0.4732
vn 0.6229 0.6229 0.4732
vn 0.2096 0.7824 0.5865
vn 0.4050 0.7014 0.5865
vn -0.0000 0.8099 0.5865
vn -0.2096 0.7824 0.5865
vn -0.5727 0.5727 0.5865
vn -0.4050 0.7014 0.5865
vn -0.7824 0.2096 0.5865
vn -0.7014 0.4050 0.5865
vn -0.8099 -0.0000 0.5865
vn -0.7824 -0.2096 0.5865
vn -0.5727 -0.5727 0.5865
vn -0.7014 -0.4050 0.5865
vn -0.2096 -0.7824 0.5865
vn -0.4050 -0.7014 0.5865
vn -0.0000 -0.8099 0.5865
vn 0.2096 -0.7824 0.5865
vn 0.5727 -0.5727 0.5865
vn 0.4050 -0.7014 0.5865
vn 0.7824 -0.2096 0.5865
vn 0.7014 -0.4050 0.5865
vn 0.8099 -0.0000 0.5865
vn 0.7824 0.2096 0.5865
vn 0.5727 0.5727 0.5865
vn 0.7014 0.4050 0.5865
vn 0.3622 0.6274 0.6893
vn 0.1875 0.6998 0.6893
vn -0.0000 0.7245 0.6893
vn -0.1875 0.6998 0.6893
vn -0.3622 0.6274 0.6893
vn -0.5123 0.5123 0.6893
vn -0.6274 0.3622 0.6893
vn -0.6998 0.1875 0.6893
vn -0.7245 -0.0000 0.6893
vn -0.6998 -0.1875 0.6893
vn -0.6274 -0.3622 0.6893
vn -0.5123 -0.5123 0.6893
vn -0.3622 -0.6274 0.6893
vn -0.1875 -0.6998 0.6893
vn -0.0000 -0.7245 0.6893
vn 0.1875 -0.6998 0.6893
vn 0.3622 -0.6274 0.6893
vn 0.5123 -0.5123 0.6893
vn 0.6274 -0.3622 0.6893
vn 0.6998 -0.1875 0.6893
vn 0.7245 -0.0000 0.6893
vn 0.6998 0.1875 0.6893
vn 0.6274 0.3622 0.6893
vn 0.5123 0.5123 0.6893
vn 0.3130 0.5421 0.7799
vn -0.0000 0.6260 0.7799
vn 0.1620 0.6046 0.7799
vn -0.3130 0.5421 0.7799
vn -0.1620 0.6046 0.7799
vn -0.4426 0.4426 0.7799
vn -0.5421 0.3130 0.7799
vn -0.6260 -0.0000 0.7799
vn -0.6046 0.1620 0.7799
vn -0.5421 -0.3130 0.7799
vn -0.6046 -0.1620 0.7799
vn -0.4426 -0.4426 0.7799
vn -0.3130 -0.5421 0.7799
vn -0.0000 -0.6260 0.7799
vn -0.1620 -0.6046 0.7799
vn 0.3130 -0.5421 0.7799
vn 0.1620 -0.6046 0.7799
vn 0.4426 -0.4426 0.7799
vn 0.5421 -0.3130 0.7799
vn 0.6260 -0.0000 0.7799
vn 0.6046 -0.1620 0.7799
vn 0.5421 0.3130 0.7799
vn 0.6046 0.1620 0.7799
vn 0.4426 0.4426 0.7799
vn 0.2581 0.4470 0.8565
vn -0.0000 0.5162 0.8565
vn 0.1336 0.4986 0.8565
vn -0.1336 0.4986 0.8565
vn -0.2581 0.4470 0.8565
vn -0.4470 0.2581 0.8565
vn -0.3650 0.3650 0.8565
vn -0.5162 -0.0000 0.8565
vn -0.4986 0.1336 0.8565
vn -0.4986 -0.1336 0.8565
vn -0.4470 -0.2581 0.8565
vn -0.2581 -0.4470 0.8565
vn -0.3650 -0.3650 0.8565
vn -0.0000 -0.5162 0.8565
vn -0.1336 -0.4986 0.8565
vn 0.1336 -0.4986 0.8565
vn 0.2581 -0.4470 0.8565
vn 0.4470 -0.2581 0.8565
vn 0.3650 -0.3650 0.8565
vn 0.5162 -0.0000 0.8565
vn 0.4986 -0.1336 0.8565
vn 0.4986 0.1336 0.8565
vn 0.4470 0.2581 0.8565
vn 0.3650 0.3650 0.8565
vn 0.1985 0.3439 0.9178
vn -0.0000 0.3971 0.9178
vn 0.1028 0.3835 0.9178
vn -0.1028 0.3835 0.9178
vn -0.1985 0.3439 0.9178
vn -0.2808 0.2808 0.9178
vn -0.3439 0.1985 0.9178
vn -0.3971 -0.0000 0.9178
vn -0.3835 0.1028 0.9178
vn -0.3835 -0.1028 0.9178
vn -0.3439 -0.1985 0.9178
vn -0.2808 -0.2808 0.9178
vn -0.1985 -0.3439 0.9178
vn -0.0000 -0.3971 0.9178
vn -0.1028 -0.3835 0.9178
vn 0.1028 -0.3835 0.9178
vn 0.1985 -0.3439 0.9178
vn 0.2808 -0.2808 0.9178
vn 0.3439 -0.1985 0.9178
vn 0.3971 -0.0000 0.9178
vn 0.3835 -0.1028 0.9178
vn 0.3835 0.1028 0.9178
vn 0.3439 0.1985 0.9178
vn 0.2808 0.2808 0.9178
vn 0.1354 0.2345 0.9626
vn 0.0701 0.2615 0.9626
vn -0.0000 0.2708 0.9626
vn -0.1354 0.2345 0.9626
vn -0.0701 0.2615 0.9626
vn -0.1915 0.1915 0.9626
vn -0.2345 0.1354 0.9626
vn -0.2615 0.0701 0.9626
vn -0.2708 -0.0000 0.9626
vn -0.2345 -0.1354 0.9626
vn -0.2615 -0.0701 0.9626
vn -0.1915 -0.1915 0.9626
vn -0.1354 -0.2345 0.9626
vn -0.0701 -0.2615 0.9626
vn -0.0000 -0.2708 0.9626
vn 0.1354 -0.2345 0.9626
vn 0.0701 -0.2615 0.9626
vn 0.1915 -0.1915 0.9626
vn 0.2345 -0.1354 0.9626
vn 0.2615 -0.0701 0.9626
vn 0.2708 -0.0000 0.9626
vn 0.2345 0.1354 0.9626
vn 0.2615 0.0701 0.9626
vn 0.1915 0.1915 0.9626
vn 0.0697 0.1208 0.9902
vn -0.0000 0.1395 0.9902
vn 0.0361 0.1347 0.9902
vn -0.0361 0.1347 0.9902
vn -0.0697 0.1208 0.9902
vn -0.0986 0.0986 0.9902
vn -0.1208 0.0697 0.9902
vn -0.1395 -0.0000 0.9902
vn -0.1347 0.0361 0.9902
vn -0.1347 -0.0361 0.9902
vn -0.1208 -0.0697 0.9902
vn -0.0986 -0.0986 0.9902
vn -0.0697 -0.1208 0.9902
vn -0.0000 -0.1395 0.9902
vn -0.0361 -0.1347 0.9902
vn 0.0361 -0.1347 0.9902
vn 0.0697 -0.1208 0.9902
vn 0.0986 -0.0986 0.9902
vn 0.1208 -0.0697 0.9902
vn 0.1395 -0.0000 0.9902
vn 0.1347 -0.0361 0.9902
vn 0.1347 0.0361 0.9902
vn 0.1208 0.0697 0.9902
vn 0.0986 0.0986 0.9902
vn -0.0000 -0.0000 1.0000
vn -0.0000 -0.0000 -1.0000
vt 0.041667 0.144385
vt 0.000000 0.187165
vt 0.000000 0.144385
vt 0.083333 0.144385
vt 0.041667 0.187165
vt 0.125000 0.144385
vt 0.083333 0.187165
vt 0.166667 0.144385
vt 0.125000 0.187165
vt 0.208333 0.144385
vt 0.166667 0.187165
vt 0.250000 0.144385
vt 0.208333 0.187165
vt 0.291667 0.144385
vt 0.250000 0.187165
vt 0.333333 0.144385
vt 0.291667 0.187165
vt 0.375000 0.144385
vt 0.333333 0.187165
vt 0.416667 0.144385
vt 0.375000 0.187165
vt 0.458333 0.144385
vt 0.416667 0.187165
vt 0.500000 0.144385
vt 0.458333 0.187165
vt 0.541667 0.144385
vt 0.500000 0.187165
vt 0.583333 0.144385
vt 0.541667 0.187165
vt 0.625000 0.144385
vt 0.583333 0.187165
vt 0.666667 0.144385
vt 0.625000 0.187165
vt 0.708333 0.144385
vt 0.666667 0.187165
vt 0.750000 0.144385
vt 0.708333 0.187165
vt 0.791667 0.144385
vt 0.750000 0.187165
vt 0.833333 0.144385
vt 0.791667 0.187165
vt 0.875000 0.144385
vt 0.833333 0.187165
vt 0.916667 0.144385
vt 0.875000 0.187165
vt 0.958333 0.144385
vt 0.916667 0.187165
vt 1.000000 0.144385
vt 0.958333 0.187165
vt 0.041667 0.229946
vt 0.000000 0.229946
vt 0.125000 0.229946
vt 0.083333 0.229946
vt 0.166667 0.229946
vt 0.250000 0.229946
vt 0.208333 0.229946
vt 0.291667 0.229946
vt 0.375000 0.229946
vt 0.333333 0.229946
vt 0.416667 0.229946
vt 0.500000 0.229946
vt 0.458333 0.229946
vt 0.541667 0.229946
vt 0.625000 0.229946
vt 0.583333 0.229946
vt 0.666667 0.229946
vt 0.750000 0.229946
vt 0.708333 0.229946
vt 0.791667 0.229946
vt 0.875000 0.229946
vt 0.833333 0.229946
vt 0.916667 0.229946
vt 1.000000 0.229946
vt 0.958333 0.229946
vt 0.000000 0.272727
vt 0.083333 0.272727
vt 0.041667 0.272727
vt 0.125000 0.272727
vt 0.208333 0.272727
vt 0.166667 0.272727
vt 0.250000 0.272727
vt 0.333333 0.272727
vt 0.291667 0.272727
vt 0.375000 0.272727
vt 0.458333 0.272727
vt 0.416667 0.272727
vt 0.500000 0.272727
vt 0.583333 0.272727
vt 0.541667 0.272727
vt 0.625000 0.272727
vt 0.708333 0.272727
vt 0.666667 0.272727
vt 0.750000 0.272727
vt 0.833333 0.272727
vt 0.791667 0.272727
vt 0.875000 0.272727
vt 0.958333 0.272727
vt 0.916667 0.272727
vt 0.000000 0.315508
vt 0.041667 0.315508
vt 0.083333 0.315508
vt 0.125000 0.315508
vt 0.166667 0.315508
vt 0.208333 0.315508
vt 0.250000 0.315508
vt 0.291667 0.315508
vt 0.333333 0.315508
vt 0.375000 0.315508
vt 0.416667 0.315508
vt 0.458333 0.315508
vt 0.500000 0.315508
vt 0.541667 0.315508
vt 0.583333 0.315508
vt 0.625000 0.315508
vt 0.666667 0.315508
vt 0.708333 0.315508
vt 0.750000 0.315508
vt 0.791667 0.315508
vt 0.833333 0.315508
vt 0.875000 0.315508
vt 0.916667 0.315508
vt 1.000000 0.272727
vt 0.958333 0.315508
vt 0.000000 0.358288
vt 0.041667 0.358288
vt 0.083333 0.358288
vt 0.125000 0.358288
vt 0.208333 0.358288
vt 0.166667 0.358288
vt 0.250000 0.358288
vt 0.291667 0.358288
vt 0.333333 0.358288
vt 0.375000 0.358288
vt 0.458333 0.358288
vt 0.416667 0.358288
vt 0.500000 0.358288
vt 0.541667 0.358288
vt 0.583333 0.358288
vt 0.625000 0.358288
vt 0.708333 0.358288
vt 0.666667 0.358288
vt 0.750000 0.358288
vt 0.791667 0.358288
vt 0.833333 0.358288
vt 0.875000 0.358288
vt 0.958333 0.358288
vt 0.916667 0.358288
vt 1.000000 0.315508
vt 0.000000 0.401069
vt 0.041667 0.401069
vt 0.083333 0.401069
vt 0.125000 0.401069
vt 0.166667 0.401069
vt 0.208333 0.401069
vt 0.250000 0.401069
vt 0.291667 0.401069
vt 0.333333 0.401069
vt 0.375000 0.401069
vt 0.416667 0.401069
vt 0.458333 0.401069
vt 0.500000 0.401069
vt 0.541667 0.401069
vt 0.583333 0.401069
vt 0.625000 0.401069
vt 0.666667 0.401069
vt 0.708333 0.401069
vt 0.750000 0.401069
vt 0.791667 0.401069
vt 0.833333 0.401069
vt 0.875000 0.401069
vt 0.916667 0.401069
vt 1.000000 0.358288
vt 0.958333 0.401069
vt 0.000000 0.443850
vt 0.041667 0.443850
vt 0.083333 0.443850
vt 0.125000 0.443850
vt 0.166667 0.443850
vt 0.208333 0.443850
vt 0.250000 0.443850
vt 0.291667 0.443850
vt 0.333333 0.443850
vt 0.375000 0.443850
vt 0.416667 0.443850
vt 0.458333 0.443850
vt 0.500000 0.443850
vt 0.541667 0.443850
vt 0.583333 0.443850
vt 0.625000 0.443850
vt 0.666667 0.443850
vt 0.708333 0.443850
vt 0.750000 0.443850
vt 0.791667 0.443850
vt 0.833333 0.443850
vt 0.875000 0.443850
vt 0.916667 0.443850
vt 1.000000 0.401069
vt 0.958333 0.443850
vt 0.000000 0.486631
vt 0.041667 0.486631
vt 0.083333 0.486631
vt 0.125000 0.486631
vt 0.166667 0.486631
vt 0.208333 0.486631
vt 0.250000 0.486631
vt 0.291667 0.486631
vt 0.333333 0.486631
vt 0.375000 0.486631
vt 0.416667 0.486631
vt 0.458333 0.486631
vt 0.500000 0.486631
vt 0.541667 0.486631
vt 0.583333 0.486631
vt 0.625000 0.486631
vt 0.666667 0.486631
vt 0.708333 0.486631
vt 0.750000 0.486631
vt 0.791667 0.486631
vt 0.833333 0.486631
vt 0.875000 0.486631
vt 0.916667 0.486631
vt 1.000000 0.443850
vt 0.958333 0.486631
vt 0.000000 0.529412
vt 0.041667 0.529412
vt 0.083333 0.529412
vt 0.125000 0.529412
vt 0.166667 0.529412
vt 0.208333 0.529412
vt 0.250000 0.529412
vt 0.291667 0.529412
vt 0.333333 0.529412
vt 0.375000 0.529412
vt 0.416667 0.529412
vt 0.458333 0.529412
vt 0.500000 0.529412
vt 0.541667 0.529412
vt 0.583333 0.529412
vt 0.625000 0.529412
vt 0.666667 0.529412
vt 0.708333 0.529412
vt 0.750000 0.529412
vt 0.791667 0.529412
vt 0.833333 0.529412
vt 0.875000 0.529412
vt 0.916667 0.529412
vt 1.000000 0.486631
vt 0.958333 0.529412
vt 0.000000 0.572192
vt 0.041667 0.572192
vt 0.083333 0.572192
vt 0.125000 0.572192
vt 0.166667 0.572192
vt 0.208333 0.572192
vt 0.250000 0.572192
vt 0.291667 0.572192
vt 0.333333 0.572192
vt 0.375000 0.572192
vt 0.416667 0.572192
vt 0.458333 0.572192
vt 0.500000 0.572192
vt 0.541667 0.572192
vt 0.583333 0.572192
vt 0.625000 0.572192
vt 0.666667 0.572192
vt 0.708333 0.572192
vt 0.750000 0.572192
vt 0.791667 0.572192
vt 0.833333 0.572192
vt 0.875000 0.572192
vt 0.916667 0.572192
vt 1.000000 0.529412
vt 0.958333 0.572192
vt 0.000000 0.614973
vt 0.041667 0.614973
vt 0.083333 0.614973
vt 0.125000 0.614973
vt 0.166667 0.614973
vt 0.208333 0.614973
vt 0.250000 0.614973
vt 0.291667 0.614973
vt 0.333333 0.614973
vt 0.375000 0.614973
vt 0.416667 0.614973
vt 0.458333 0.614973
vt 0.500000 0.614973
vt 0.541667 0.614973
vt 0.583333 0.614973
vt 0.625000 0.614973
vt 0.666667 0.614973
vt 0.708333 0.614973
vt 0.750000 0.614973
vt 0.791667 0.614973
vt 0.833333 0.614973
vt 0.875000 0.614973
vt 0.916667 0.614973
vt 1.000000 0.572192
vt 0.958333 0.614973
vt 0.000000 0.657754
vt 0.041667 0.657754
vt 0.083333 0.657754
vt 0.125000 0.657754
vt 0.166667 0.657754
vt 0.208333 0.657754
vt 0.250000 0.657754
vt 0.291667 0.657754
vt 0.333333 0.657754
vt 0.375000 0.657754
vt 0.416667 0.657754
vt 0.458333 0.657754
vt 0.500000 0.657754
vt 0.541667 0.657754
vt 0.583333 0.657754
vt 0.625000 0.657754
vt 0.666667 0.657754
vt 0.708333 0.657754
vt 0.750000 0.657754
vt 0.791667 0.657754
vt 0.833333 0.657754
vt 0.875000 0.657754
vt 0.916667 0.657754
vt 1.000000 0.614973
vt 0.958333 0.657754
vt 0.041667 0.700535
vt 0.000000 0.700535
vt 0.083333 0.700535
vt 0.125000 0.700535
vt 0.208333 0.700535
vt 0.166667 0.700535
vt 0.291667 0.700535
vt 0.250000 0.700535
vt 0.333333 0.700535
vt 0.375000 0.700535
vt 0.458333 0.700535
vt 0.416667 0.700535
vt 0.541667 0.700535
vt 0.500000 0.700535
vt 0.583333 0.700535
vt 0.625000 0.700535
vt 0.708333 0.700535
vt 0.666667 0.700535
vt 0.791667 0.700535
vt 0.750000 0.700535
vt 0.833333 0.700535
vt 0.875000 0.700535
vt 0.958333 0.700535
vt 0.916667 0.700535
vt 1.000000 0.657754
vt 0.000000 0.743315
vt 0.041667 0.743315
vt 0.083333 0.743315
vt 0.125000 0.743315
vt 0.166667 0.743315
vt 0.208333 0.743315
vt 0.250000 0.743315
vt 0.291667 0.743315
vt 0.333333 0.743315
vt 0.375000 0.743315
vt 0.416667 0.743315
vt 0.458333 0.743315
vt 0.500000 0.743315
vt 0.541667 0.743315
vt 0.583333 0.743315
vt 0.625000 0.743315
vt 0.666667 0.743315
vt 0.708333 0.743315
vt 0.750000 0.743315
vt 0.791667 0.743315
vt 0.833333 0.743315
vt 0.875000 0.743315
vt 0.916667 0.743315
vt 1.000000 0.700535
vt 0.958333 0.743315
vt 0.000000 0.786096
vt 0.083333 0.786096
vt 0.041667 0.786096
vt 0.166667 0.786096
vt 0.125000 0.786096
vt 0.208333 0.786096
vt 0.250000 0.786096
vt 0.333333 0.786096
vt 0.291667 0.786096
vt 0.416667 0.786096
vt 0.375000 0.786096
vt 0.458333 0.786096
vt 0.500000 0.786096
vt 0.583333 0.786096
vt 0.541667 0.786096
vt 0.666667 0.786096
vt 0.625000 0.786096
vt 0.708333 0.786096
vt 0.750000 0.786096
vt 0.833333 0.786096
vt 0.791667 0.786096
vt 0.916667 0.786096
vt 0.875000 0.786096
vt 1.000000 0.743315
vt 0.958333 0.786096
vt 0.000000 0.828877
vt 0.083333 0.828877
vt 0.041667 0.828877
vt 0.125000 0.828877
vt 0.166667 0.828877
vt 0.250000 0.828877
vt 0.208333 0.828877
vt 0.333333 0.828877
vt 0.291667 0.828877
vt 0.375000 0.828877
vt 0.416667 0.828877
vt 0.500000 0.828877
vt 0.458333 0.828877
vt 0.583333 0.828877
vt 0.541667 0.828877
vt 0.625000 0.828877
vt 0.666667 0.828877
vt 0.750000 0.828877
vt 0.708333 0.828877
vt 0.833333 0.828877
vt 0.791667 0.828877
vt 0.875000 0.828877
vt 0.916667 0.828877
vt 1.000000 0.828877
vt 0.958333 0.828877
vt 0.000000 0.871658
vt 0.083333 0.871658
vt 0.041667 0.871658
vt 0.125000 0.871658
vt 0.166667 0.871658
vt 0.208333 0.871658
vt 0.250000 0.871658
vt 0.333333 0.871658
vt 0.291667 0.871658
vt 0.375000 0.871658
vt 0.416667 0.871658
vt 0.458333 0.871658
vt 0.500000 0.871658
vt 0.583333 0.871658
vt 0.541667 0.871658
vt 0.625000 0.871658
vt 0.666667 0.871658
vt 0.708333 0.871658
vt 0.750000 0.871658
vt 0.833333 0.871658
vt 0.791667 0.871658
vt 0.875000 0.871658
vt 0.916667 0.871658
vt 0.958333 0.871658
vt 0.000000 0.914438
vt 0.041667 0.914438
vt 0.083333 0.914438
vt 0.166667 0.914438
vt 0.125000 0.914438
vt 0.208333 0.914438
vt 0.250000 0.914438
vt 0.291667 0.914438
vt 0.333333 0.914438
vt 0.416667 0.914438
vt 0.375000 0.914438
vt 0.458333 0.914438
vt 0.500000 0.914438
vt 0.541667 0.914438
vt 0.583333 0.914438
vt 0.666667 0.914438
vt 0.625000 0.914438
vt 0.708333 0.914438
vt 0.750000 0.914438
vt 0.791667 0.914438
vt 0.833333 0.914438
vt 0.916667 0.914438
vt 0.875000 0.914438
vt 0.958333 0.914438
vt 1.000000 0.871658
vt 0.000000 0.957219
vt 0.083333 0.957219
vt 0.041667 0.957219
vt 0.125000 0.957219
vt 0.166667 0.957219
vt 0.208333 0.957219
vt 0.250000 0.957219
vt 0.333333 0.957219
vt 0.291667 0.957219
vt 0.375000 0.957219
vt 0.416667 0.957219
vt 0.458333 0.957219
vt 0.500000 0.957219
vt 0.583333 0.957219
vt 0.541667 0.957219
vt 0.625000 0.957219
vt 0.666667 0.957219
vt 0.708333 0.957219
vt 0.750000 0.957219
vt 0.833333 0.957219
vt 0.791667 0.957219
vt 0.875000 0.957219
vt 0.916667 0.957219
vt 1.000000 0.914438
vt 0.958333 0.957219
vt 0.020833 1.000000
vt 0.062500 1.000000
vt 0.104167 1.000000
vt 0.145833 1.000000
vt 0.187500 1.000000
vt 0.229167 1.000000
vt 0.270833 1.000000
vt 0.312500 1.000000
vt 0.354167 1.000000
vt 0.395833 1.000000
vt 0.437500 1.000000
vt 0.479167 1.000000
vt 0.520833 1.000000
vt 0.562500 1.000000
vt 0.604167 1.000000
vt 0.645833 1.000000
vt 0.687500 1.000000
vt 0.729167 1.000000
vt 0.770833 1.000000
vt 0.812500 1.000000
vt 0.854167 1.000000
vt 0.895833 1.000000
vt 0.937500 1.000000
vt 1.000000 0.957219
vt 0.979167 1.000000
vt 0.500000 0.015000
vt 1.000000 0.187165
vt 1.000000 0.786096
s 1
usemtl globe_matte_printed_paper
f 2/1/1 25/2/2 1/3/3
f 3/4/4 26/5/5 2/1/1
f 4/6/6 27/7/7 3/4/4
f 5/8/8 28/9/9 4/6/6
f 6/10/10 29/11/11 5/8/8
f 7/12/12 30/13/13 6/10/10
f 8/14/14 31/15/15 7/12/12
f 9/16/16 32/17/17 8/14/14
f 10/18/18 33/19/19 9/16/16
f 11/20/20 34/21/21 10/18/18
f 12/22/22 35/23/23 11/20/20
f 13/24/24 36/25/25 12/22/22
f 14/26/26 37/27/27 13/24/24
f 15/28/28 38/29/29 14/26/26
f 16/30/30 39/31/31 15/28/28
f 17/32/32 40/33/33 16/30/30
f 18/34/34 41/35/35 17/32/32
f 19/36/36 42/37/37 18/34/34
f 20/38/38 43/39/39 19/36/36
f 21/40/40 44/41/41 20/38/38
f 22/42/42 45/43/43 21/40/40
f 23/44/44 46/45/45 22/42/42
f 24/46/46 47/47/47 23/44/44
f 1/48/3 48/49/48 24/46/46
f 25/2/2 50/50/49 49/51/50
f 27/7/7 50/50/49 26/5/5
f 27/7/7 52/52/51 51/53/52
f 29/11/11 52/52/51 28/9/9
f 30/13/13 53/54/53 29/11/11
f 30/13/13 55/55/54 54/56/55
f 31/15/15 56/57/56 55/55/54
f 33/19/19 56/57/56 32/17/17
f 33/19/19 58/58/57 57/59/58
f 35/23/23 58/58/57 34/21/21
f 36/25/25 59/60/59 35/23/23
f 36/25/25 61/61/60 60/62/61
f 37/27/27 62/63/62 61/61/60
f 39/31/31 62/63/62 38/29/29
f 39/31/31 64/64/63 63/65/64
f 41/35/35 64/64/63 40/33/33
f 42/37/37 65/66/65 41/35/35
f 42/37/37 67/67/66 66/68/67
f 43/39/39 68/69/68 67/67/66
f 45/43/43 68/69/68 44/41/41
f 45/43/43 70/70/69 69/71/70
f 47/47/47 70/70/69 46/45/45
f 48/49/48 71/72/71 47/47/47
f 48/49/48 49/73/50 72/74/72
f 50/50/49 73/75/73 49/51/50
f 50/50/49 75/76/74 74/77/75
f 52/52/51 75/76/74 51/53/52
f 53/54/53 76/78/76 52/52/51
f 53/54/53 78/79/77 77/80/78
f 55/55/54 78/79/77 54/56/55
f 56/57/56 79/81/79 55/55/54
f 56/57/56 81/82/80 80/83/81
f 58/58/57 81/82/80 57/59/58
f 59/60/59 82/84/82 58/58/57
f 59/60/59 84/85/83 83/86/84
f 61/61/60 84/85/83 60/62/61
f 62/63/62 85/87/85 61/61/60
f 62/63/62 87/88/86 86/89/87
f 64/64/63 87/88/86 63/65/64
f 65/66/65 88/90/88 64/64/63
f 65/66/65 90/91/89 89/92/90
f 67/67/66 90/91/89 66/68/67
f 68/69/68 91/93/91 67/67/66
f 68/69/68 93/94/92 92/95/93
f 70/70/69 93/94/92 69/71/70
f 71/72/71 94/96/94 70/70/69
f 71/72/71 96/97/95 95/98/96
f 49/73/50 96/97/95 72/74/72
f 74/77/75 97/99/97 73/75/73
f 75/76/74 98/100/98 74/77/75
f 76/78/76 99/101/99 75/76/74
f 77/80/78 100/102/100 76/78/76
f 78/79/77 101/103/101 77/80/78
f 79/81/79 102/104/102 78/79/77
f 80/83/81 103/105/103 79/81/79
f 81/82/80 104/106/104 80/83/81
f 82/84/82 105/107/105 81/82/80
f 83/86/84 106/108/106 82/84/82
f 84/85/83 107/109/107 83/86/84
f 85/87/85 108/110/108 84/85/83
f 86/89/87 109/111/109 85/87/85
f 87/88/86 110/112/110 86/89/87
f 88/90/88 111/113/111 87/88/86
f 89/92/90 112/114/112 88/90/88
f 90/91/89 113/115/113 89/92/90
f 91/93/91 114/116/114 90/91/89
f 92/95/93 115/117/115 91/93/91
f 93/94/92 116/118/116 92/95/93
f 94/96/94 117/119/117 93/94/92
f 95/98/96 118/120/118 94/96/94
f 96/97/95 119/121/119 95/98/96
f 73/122/73 120/123/120 96/97/95
f 98/100/98 121/124/121 97/99/97
f 99/101/99 122/125/122 98/100/98
f 100/102/100 123/126/123 99/101/99
f 101/103/101 124/127/124 100/102/100
f 101/103/101 126/128/125 125/129/126
f 103/105/103 126/128/125 102/104/102
f 104/106/104 127/130/127 103/105/103
f 105/107/105 128/131/128 104/106/104
f 106/108/106 129/132/129 105/107/105
f 107/109/107 130/133/130 106/108/106
f 107/109/107 132/134/131 131/135/132
f 109/111/109 132/134/131 108/110/108
f 110/112/110 133/136/133 109/111/109
f 111/113/111 134/137/134 110/112/110
f 112/114/112 135/138/135 111/113/111
f 113/115/113 136/139/136 112/114/112
f 113/115/113 138/140/137 137/141/138
f 115/117/115 138/140/137 114/116/114
f 116/118/116 139/142/139 115/117/115
f 117/119/117 140/143/140 116/118/116
f 118/120/118 141/144/141 117/119/117
f 119/121/119 142/145/142 118/120/118
f 119/121/119 144/146/143 143/147/144
f 97/148/97 144/146/143 120/123/120
f 122/125/122 145/149/145 121/124/121
f 123/126/123 146/150/146 122/125/122
f 124/127/124 147/151/147 123/126/123
f 125/129/126 148/152/148 124/127/124
f 126/128/125 149/153/149 125/129/126
f 127/130/127 150/154/150 126/128/125
f 128/131/128 151/155/151 127/130/127
f 129/132/129 152/156/152 128/131/128
f 130/133/130 153/157/153 129/132/129
f 131/135/132 154/158/154 130/133/130
f 132/134/131 155/159/155 131/135/132
f 133/136/133 156/160/156 132/134/131
f 134/137/134 157/161/157 133/136/133
f 135/138/135 158/162/158 134/137/134
f 136/139/136 159/163/159 135/138/135
f 137/141/138 160/164/160 136/139/136
f 138/140/137 161/165/161 137/141/138
f 139/142/139 162/166/162 138/140/137
f 140/143/140 163/167/163 139/142/139
f 141/144/141 164/168/164 140/143/140
f 142/145/142 165/169/165 141/144/141
f 143/147/144 166/170/166 142/145/142
f 144/146/143 167/171/167 143/147/144
f 121/172/121 168/173/168 144/146/143
f 146/150/146 169/174/169 145/149/145
f 147/151/147 170/175/170 146/150/146
f 148/152/148 171/176/171 147/151/147
f 149/153/149 172/177/172 148/152/148
f 150/154/150 173/178/173 149/153/149
f 151/155/151 174/179/174 150/154/150
f 152/156/152 175/180/175 151/155/151
f 153/157/153 176/181/176 152/156/152
f 154/158/154 177/182/177 153/157/153
f 155/159/155 178/183/178 154/158/154
f 156/160/156 179/184/179 155/159/155
f 157/161/157 180/185/180 156/160/156
f 158/162/158 181/186/181 157/161/157
f 159/163/159 182/187/182 158/162/158
f 160/164/160 183/188/183 159/163/159
f 161/165/161 184/189/184 160/164/160
f 162/166/162 185/190/185 161/165/161
f 163/167/163 186/191/186 162/166/162
f 164/168/164 187/192/187 163/167/163
f 165/169/165 188/193/188 164/168/164
f 166/170/166 189/194/189 165/169/165
f 167/171/167 190/195/190 166/170/166
f 168/173/168 191/196/191 167/171/167
f 145/197/145 192/198/192 168/173/168
f 170/175/170 193/199/193 169/174/169
f 171/176/171 194/200/194 170/175/170
f 172/177/172 195/201/195 171/176/171
f 173/178/173 196/202/196 172/177/172
f 174/179/174 197/203/197 173/178/173
f 175/180/175 198/204/198 174/179/174
f 176/181/176 199/205/199 175/180/175
f 177/182/177 200/206/200 176/181/176
f 178/183/178 201/207/201 177/182/177
f 179/184/179 202/208/202 178/183/178
f 180/185/180 203/209/203 179/184/179
f 181/186/181 204/210/204 180/185/180
f 182/187/182 205/211/205 181/186/181
f 183/188/183 206/212/206 182/187/182
f 184/189/184 207/213/207 183/188/183
f 185/190/185 208/214/208 184/189/184
f 186/191/186 209/215/209 185/190/185
f 187/192/187 210/216/210 186/191/186
f 188/193/188 211/217/211 187/192/187
f 189/194/189 212/218/212 188/193/188
f 190/195/190 213/219/213 189/194/189
f 191/196/191 214/220/214 190/195/190
f 192/198/192 215/221/215 191/196/191
f 169/222/169 216/223/216 192/198/192
f 194/200/194 217/224/217 193/199/193
f 195/201/195 218/225/218 194/200/194
f 196/202/196 219/226/219 195/201/195
f 197/203/197 220/227/220 196/202/196
f 198/204/198 221/228/221 197/203/197
f 199/205/199 222/229/222 198/204/198
f 200/206/200 223/230/223 199/205/199
f 201/207/201 224/231/224 200/206/200
f 202/208/202 225/232/225 201/207/201
f 203/209/203 226/233/226 202/208/202
f 204/210/204 227/234/227 203/209/203
f 205/211/205 228/235/228 204/210/204
f 206/212/206 229/236/229 205/211/205
f 207/213/207 230/237/230 206/212/206
f 208/214/208 231/238/231 207/213/207
f 209/215/209 232/239/232 208/214/208
f 210/216/210 233/240/233 209/215/209
f 211/217/211 234/241/234 210/216/210
f 212/218/212 235/242/235 211/217/211
f 213/219/213 236/243/236 212/218/212
f 214/220/214 237/244/237 213/219/213
f 215/221/215 238/245/238 214/220/214
f 216/223/216 239/246/239 215/221/215
f 193/247/193 240/248/240 216/223/216
f 218/225/218 241/249/241 217/224/217
f 219/226/219 242/250/242 218/225/218
f 220/227/220 243/251/243 219/226/219
f 221/228/221 244/252/244 220/227/220
f 222/229/222 245/253/245 221/228/221
f 223/230/223 246/254/246 222/229/222
f 224/231/224 247/255/247 223/230/223
f 225/232/225 248/256/248 224/231/224
f 226/233/226 249/257/249 225/232/225
f 227/234/227 250/258/250 226/233/226
f 228/235/228 251/259/251 227/234/227
f 229/236/229 252/260/252 228/235/228
f 230/237/230 253/261/253 229/236/229
f 231/238/231 254/262/254 230/237/230
f 232/239/232 255/263/255 231/238/231
f 233/240/233 256/264/256 232/239/232
f 234/241/234 257/265/257 233/240/233
f 235/242/235 258/266/258 234/241/234
f 236/243/236 259/267/259 235/242/235
f 237/244/237 260/268/260 236/243/236
f 238/245/238 261/269/261 237/244/237
f 239/246/239 262/270/262 238/245/238
f 240/248/240 263/271/263 239/246/239
f 217/272/217 264/273/264 240/248/240
f 242/250/242 265/274/265 241/249/241
f 243/251/243 266/275/266 242/250/242
f 244/252/244 267/276/267 243/251/243
f 245/253/245 268/277/268 244/252/244
f 246/254/246 269/278/269 245/253/245
f 247/255/247 270/279/270 246/254/246
f 248/256/248 271/280/271 247/255/247
f 249/257/249 272/281/272 248/256/248
f 250/258/250 273/282/273 249/257/249
f 251/259/251 274/283/274 250/258/250
f 252/260/252 275/284/275 251/259/251
f 253/261/253 276/285/276 252/260/252
f 254/262/254 277/286/277 253/261/253
f 255/263/255 278/287/278 254/262/254
f 256/264/256 279/288/279 255/263/255
f 257/265/257 280/289/280 256/264/256
f 258/266/258 281/290/281 257/265/257
f 259/267/259 282/291/282 258/266/258
f 260/268/260 283/292/283 259/267/259
f 261/269/261 284/293/284 260/268/260
f 262/270/262 285/294/285 261/269/261
f 263/271/263 286/295/286 262/270/262
f 264/273/264 287/296/287 263/271/263
f 241/297/241 288/298/288 264/273/264
f 266/275/266 289/299/289 265/274/265
f 267/276/267 290/300/290 266/275/266
f 268/277/268 291/301/291 267/276/267
f 269/278/269 292/302/292 268/277/268
f 270/279/270 293/303/293 269/278/269
f 271/280/271 294/304/294 270/279/270
f 272/281/272 295/305/295 271/280/271
f 273/282/273 296/306/296 272/281/272
f 274/283/274 297/307/297 273/282/273
f 275/284/275 298/308/298 274/283/274
f 276/285/276 299/309/299 275/284/275
f 277/286/277 300/310/300 276/285/276
f 278/287/278 301/311/301 277/286/277
f 279/288/279 302/312/302 278/287/278
f 280/289/280 303/313/303 279/288/279
f 281/290/281 304/314/304 280/289/280
f 282/291/282 305/315/305 281/290/281
f 283/292/283 306/316/306 282/291/282
f 284/293/284 307/317/307 283/292/283
f 285/294/285 308/318/308 284/293/284
f 286/295/286 309/319/309 285/294/285
f 287/296/287 310/320/310 286/295/286
f 288/298/288 311/321/311 287/296/287
f 265/322/265 312/323/312 288/298/288
f 289/299/289 314/324/313 313/325/314
f 291/301/291 314/324/313 290/300/290
f 292/302/292 315/326/315 291/301/291
f 293/303/293 316/327/316 292/302/292
f 293/303/293 318/328/317 317/329/318
f 295/305/295 318/328/317 294/304/294
f 295/305/295 320/330/319 319/331/320
f 297/307/297 320/330/319 296/306/296
f 298/308/298 321/332/321 297/307/297
f 299/309/299 322/333/322 298/308/298
f 299/309/299 324/334/323 323/335/324
f 301/311/301 324/334/323 300/310/300
f 301/311/301 326/336/325 325/337/326
f 303/313/303 326/336/325 302/312/302
f 304/314/304 327/338/327 303/313/303
f 305/315/305 328/339/328 304/314/304
f 305/315/305 330/340/329 329/341/330
f 307/317/307 330/340/329 306/316/306
f 307/317/307 332/342/331 331/343/332
f 309/319/309 332/342/331 308/318/308
f 310/320/310 333/344/333 309/319/309
f 311/321/311 334/345/334 310/320/310
f 311/321/311 336/346/335 335/347/336
f 289/348/289 336/346/335 312/323/312
f 314/324/313 337/349/337 313/325/314
f 315/326/315 338/350/338 314/324/313
f 316/327/316 339/351/339 315/326/315
f 317/329/318 340/352/340 316/327/316
f 318/328/317 341/353/341 317/329/318
f 319/331/320 342/354/342 318/328/317
f 320/330/319 343/355/343 319/331/320
f 321/332/321 344/356/344 320/330/319
f 322/333/322 345/357/345 321/332/321
f 323/335/324 346/358/346 322/333/322
f 324/334/323 347/359/347 323/335/324
f 325/337/326 348/360/348 324/334/323
f 326/336/325 349/361/349 325/337/326
f 327/338/327 350/362/350 326/336/325
f 328/339/328 351/363/351 327/338/327
f 329/341/330 352/364/352 328/339/328
f 330/340/329 353/365/353 329/341/330
f 331/343/332 354/366/354 330/340/329
f 332/342/331 355/367/355 331/343/332
f 333/344/333 356/368/356 332/342/331
f 334/345/334 357/369/357 333/344/333
f 335/347/336 358/370/358 334/345/334
f 336/346/335 359/371/359 335/347/336
f 313/372/314 360/373/360 336/346/335
f 338/350/338 361/374/361 337/349/337
f 338/350/338 363/375/362 362/376/363
f 340/352/340 363/375/362 339/351/339
f 340/352/340 365/377/364 364/378/365
f 342/354/342 365/377/364 341/353/341
f 343/355/343 366/379/366 342/354/342
f 344/356/344 367/380/367 343/355/343
f 344/356/344 369/381/368 368/382/369
f 346/358/346 369/381/368 345/357/345
f 346/358/346 371/383/370 370/384/371
f 348/360/348 371/383/370 347/359/347
f 349/361/349 372/385/372 348/360/348
f 350/362/350 373/386/373 349/361/349
f 350/362/350 375/387/374 374/388/375
f 352/364/352 375/387/374 351/363/351
f 352/364/352 377/389/376 376/390/377
f 354/366/354 377/389/376 353/365/353
f 355/367/355 378/391/378 354/366/354
f 356/368/356 379/392/379 355/367/355
f 356/368/356 381/393/380 380/394/381
f 358/370/358 381/393/380 357/369/357
f 358/370/358 383/395/382 382/396/383
f 360/373/360 383/395/382 359/371/359
f 337/397/337 384/398/384 360/373/360
f 362/376/363 385/399/385 361/374/361
f 362/376/363 387/400/386 386/401/387
f 364/378/365 387/400/386 363/375/362
f 365/377/364 388/402/388 364/378/365
f 366/379/366 389/403/389 365/377/364
f 366/379/366 391/404/390 390/405/391
f 368/382/369 391/404/390 367/380/367
f 368/382/369 393/406/392 392/407/393
f 370/384/371 393/406/392 369/381/368
f 371/383/370 394/408/394 370/384/371
f 372/385/372 395/409/395 371/383/370
f 372/385/372 397/410/396 396/411/397
f 374/388/375 397/410/396 373/386/373
f 374/388/375 399/412/398 398/413/399
f 376/390/377 399/412/398 375/387/374
f 377/389/376 400/414/400 376/390/377
f 378/391/378 401/415/401 377/389/376
f 378/391/378 403/416/402 402/417/403
f 380/394/381 403/416/402 379/392/379
f 380/394/381 405/418/404 404/419/405
f 382/396/383 405/418/404 381/393/380
f 383/395/382 406/420/406 382/396/383
f 384/398/384 407/421/407 383/395/382
f 384/398/384 385/422/385 408/423/408
f 386/401/387 409/424/409 385/399/385
f 386/401/387 411/425/410 410/426/411
f 388/402/388 411/425/410 387/400/386
f 389/403/389 412/427/412 388/402/388
f 390/405/391 413/428/413 389/403/389
f 391/404/390 414/429/414 390/405/391
f 392/407/393 415/430/415 391/404/390
f 392/407/393 417/431/416 416/432/417
f 394/408/394 417/431/416 393/406/392
f 395/409/395 418/433/418 394/408/394
f 396/411/397 419/434/419 395/409/395
f 397/410/396 420/435/420 396/411/397
f 398/413/399 421/436/421 397/410/396
f 398/413/399 423/437/422 422/438/423
f 400/414/400 423/437/422 399/412/398
f 401/415/401 424/439/424 400/414/400
f 402/417/403 425/440/425 401/415/401
f 403/416/402 426/441/426 402/417/403
f 404/419/405 427/442/427 403/416/402
f 404/419/405 429/443/428 428/444/429
f 406/420/406 429/443/428 405/418/404
f 407/421/407 430/445/430 406/420/406
f 408/423/408 431/446/431 407/421/407
f 385/422/385 432/447/432 408/423/408
f 410/426/411 433/448/433 409/424/409
f 411/425/410 434/449/434 410/426/411
f 412/427/412 435/450/435 411/425/410
f 412/427/412 437/451/436 436/452/437
f 413/428/413 438/453/438 437/451/436
f 415/430/415 438/453/438 414/429/414
f 416/432/417 439/454/439 415/430/415
f 417/431/416 440/455/440 416/432/417
f 418/433/418 441/456/441 417/431/416
f 418/433/418 443/457/442 442/458/443
f 419/434/419 444/459/444 443/457/442
f 421/436/421 444/459/444 420/435/420
f 422/438/423 445/460/445 421/436/421
f 423/437/422 446/461/446 422/438/423
f 424/439/424 447/462/447 423/437/422
f 424/439/424 449/463/448 448/464/449
f 425/440/425 450/465/450 449/463/448
f 427/442/427 450/465/450 426/441/426
f 428/444/429 451/466/451 427/442/427
f 429/443/428 452/467/452 428/444/429
f 430/445/430 453/468/453 429/443/428
f 430/445/430 455/469/454 454/470/455
f 431/446/431 456/471/456 455/469/454
f 409/472/409 456/471/456 432/447/432
f 434/449/434 457/473/457 433/448/433
f 434/449/434 459/474/458 458/475/459
f 436/452/437 459/474/458 435/450/435
f 437/451/436 460/476/460 436/452/437
f 438/453/438 461/477/461 437/451/436
f 439/454/439 462/478/462 438/453/438
f 440/455/440 463/479/463 439/454/439
f 440/455/440 465/480/464 464/481/465
f 442/458/443 465/480/464 441/456/441
f 443/457/442 466/482/466 442/458/443
f 444/459/444 467/483/467 443/457/442
f 445/460/445 468/484/468 444/459/444
f 446/461/446 469/485/469 445/460/445
f 446/461/446 471/486/470 470/487/471
f 448/464/449 471/486/470 447/462/447
f 449/463/448 472/488/472 448/464/449
f 450/465/450 473/489/473 449/463/448
f 451/466/451 474/490/474 450/465/450
f 452/467/452 475/491/475 451/466/451
f 452/467/452 477/492/476 476/493/477
f 454/470/455 477/492/476 453/468/453
f 455/469/454 478/494/478 454/470/455
f 456/471/456 479/495/479 455/469/454
f 433/496/433 480/497/480 456/471/456
f 457/473/457 458/475/459 481/498/481
f 458/475/459 459/474/458 481/499/481
f 459/474/458 460/476/460 481/500/481
f 460/476/460 461/477/461 481/501/481
f 461/477/461 462/478/462 481/502/481
f 462/478/462 463/479/463 481/503/481
f 463/479/463 464/481/465 481/504/481
f 464/481/465 465/480/464 481/505/481
f 465/480/464 466/482/466 481/506/481
f 466/482/466 467/483/467 481/507/481
f 467/483/467 468/484/468 481/508/481
f 468/484/468 469/485/469 481/509/481
f 469/485/469 470/487/471 481/510/481
f 470/487/471 471/486/470 481/511/481
f 471/486/470 472/488/472 481/512/481
f 472/488/472 473/489/473 481/513/481
f 473/489/473 474/490/474 481/514/481
f 474/490/474 475/491/475 481/515/481
f 475/491/475 476/493/477 481/516/481
f 476/493/477 477/492/476 481/517/481
f 477/492/476 478/494/478 481/518/481
f 478/494/478 479/495/479 481/519/481
f 479/495/479 480/497/480 481/520/481
f 480/497/480 457/521/457 481/522/481
s 0
f 17/523/482 9/523/482 1/523/482
s 1
f 2/1/1 26/5/5 25/2/2
f 3/4/4 27/7/7 26/5/5
f 4/6/6 28/9/9 27/7/7
f 5/8/8 29/11/11 28/9/9
f 6/10/10 30/13/13 29/11/11
f 7/12/12 31/15/15 30/13/13
f 8/14/14 32/17/17 31/15/15
f 9/16/16 33/19/19 32/17/17
f 10/18/18 34/21/21 33/19/19
f 11/20/20 35/23/23 34/21/21
f 12/22/22 36/25/25 35/23/23
f 13/24/24 37/27/27 36/25/25
f 14/26/26 38/29/29 37/27/27
f 15/28/28 39/31/31 38/29/29
f 16/30/30 40/33/33 39/31/31
f 17/32/32 41/35/35 40/33/33
f 18/34/34 42/37/37 41/35/35
f 19/36/36 43/39/39 42/37/37
f 20/38/38 44/41/41 43/39/39
f 21/40/40 45/43/43 44/41/41
f 22/42/42 46/45/45 45/43/43
f 23/44/44 47/47/47 46/45/45
f 24/46/46 48/49/48 47/47/47
f 1/48/3 25/524/2 48/49/48
f 25/2/2 26/5/5 50/50/49
f 27/7/7 51/53/52 50/50/49
f 27/7/7 28/9/9 52/52/51
f 29/11/11 53/54/53 52/52/51
f 30/13/13 54/56/55 53/54/53
f 30/13/13 31/15/15 55/55/54
f 31/15/15 32/17/17 56/57/56
f 33/19/19 57/59/58 56/57/56
f 33/19/19 34/21/21 58/58/57
f 35/23/23 59/60/59 58/58/57
f 36/25/25 60/62/61 59/60/59
f 36/25/25 37/27/27 61/61/60
f 37/27/27 38/29/29 62/63/62
f 39/31/31 63/65/64 62/63/62
f 39/31/31 40/33/33 64/64/63
f 41/35/35 65/66/65 64/64/63
f 42/37/37 66/68/67 65/66/65
f 42/37/37 43/39/39 67/67/66
f 43/39/39 44/41/41 68/69/68
f 45/43/43 69/71/70 68/69/68
f 45/43/43 46/45/45 70/70/69
f 47/47/47 71/72/71 70/70/69
f 48/49/48 72/74/72 71/72/71
f 48/49/48 25/524/2 49/73/50
f 50/50/49 74/77/75 73/75/73
f 50/50/49 51/53/52 75/76/74
f 52/52/51 76/78/76 75/76/74
f 53/54/53 77/80/78 76/78/76
f 53/54/53 54/56/55 78/79/77
f 55/55/54 79/81/79 78/79/77
f 56/57/56 80/83/81 79/81/79
f 56/57/56 57/59/58 81/82/80
f 58/58/57 82/84/82 81/82/80
f 59/60/59 83/86/84 82/84/82
f 59/60/59 60/62/61 84/85/83
f 61/61/60 85/87/85 84/85/83
f 62/63/62 86/89/87 85/87/85
f 62/63/62 63/65/64 87/88/86
f 64/64/63 88/90/88 87/88/86
f 65/66/65 89/92/90 88/90/88
f 65/66/65 66/68/67 90/91/89
f 67/67/66 91/93/91 90/91/89
f 68/69/68 92/95/93 91/93/91
f 68/69/68 69/71/70 93/94/92
f 70/70/69 94/96/94 93/94/92
f 71/72/71 95/98/96 94/96/94
f 71/72/71 72/74/72 96/97/95
f 49/73/50 73/122/73 96/97/95
f 74/77/75 98/100/98 97/99/97
f 75/76/74 99/101/99 98/100/98
f 76/78/76 100/102/100 99/101/99
f 77/80/78 101/103/101 100/102/100
f 78/79/77 102/104/102 101/103/101
f 79/81/79 103/105/103 102/104/102
f 80/83/81 104/106/104 103/105/103
f 81/82/80 105/107/105 104/106/104
f 82/84/82 106/108/106 105/107/105
f 83/86/84 107/109/107 106/108/106
f 84/85/83 108/110/108 107/109/107
f 85/87/85 109/111/109 108/110/108
f 86/89/87 110/112/110 109/111/109
f 87/88/86 111/113/111 110/112/110
f 88/90/88 112/114/112 111/113/111
f 89/92/90 113/115/113 112/114/112
f 90/91/89 114/116/114 113/115/113
f 91/93/91 115/117/115 114/116/114
f 92/95/93 116/118/116 115/117/115
f 93/94/92 117/119/117 116/118/116
f 94/96/94 118/120/118 117/119/117
f 95/98/96 119/121/119 118/120/118
f 96/97/95 120/123/120 119/121/119
f 73/122/73 97/148/97 120/123/120
f 98/100/98 122/125/122 121/124/121
f 99/101/99 123/126/123 122/125/122
f 100/102/100 124/127/124 123/126/123
f 101/103/101 125/129/126 124/127/124
f 101/103/101 102/104/102 126/128/125
f 103/105/103 127/130/127 126/128/125
f 104/106/104 128/131/128 127/130/127
f 105/107/105 129/132/129 128/131/128
f 106/108/106 130/133/130 129/132/129
f 107/109/107 131/135/132 130/133/130
f 107/109/107 108/110/108 132/134/131
f 109/111/109 133/136/133 132/134/131
f 110/112/110 134/137/134 133/136/133
f 111/113/111 135/138/135 134/137/134
f 112/114/112 136/139/136 135/138/135
f 113/115/113 137/141/138 136/139/136
f 113/115/113 114/116/114 138/140/137
f 115/117/115 139/142/139 138/140/137
f 116/118/116 140/143/140 139/142/139
f 117/119/117 141/144/141 140/143/140
f 118/120/118 142/145/142 141/144/141
f 119/121/119 143/147/144 142/145/142
f 119/121/119 120/123/120 144/146/143
f 97/148/97 121/172/121 144/146/143
f 122/125/122 146/150/146 145/149/145
f 123/126/123 147/151/147 146/150/146
f 124/127/124 148/152/148 147/151/147
f 125/129/126 149/153/149 148/152/148
f 126/128/125 150/154/150 149/153/149
f 127/130/127 151/155/151 150/154/150
f 128/131/128 152/156/152 151/155/151
f 129/132/129 153/157/153 152/156/152
f 130/133/130 154/158/154 153/157/153
f 131/135/132 155/159/155 154/158/154
f 132/134/131 156/160/156 155/159/155
f 133/136/133 157/161/157 156/160/156
f 134/137/134 158/162/158 157/161/157
f 135/138/135 159/163/159 158/162/158
f 136/139/136 160/164/160 159/163/159
f 137/141/138 161/165/161 160/164/160
f 138/140/137 162/166/162 161/165/161
f 139/142/139 163/167/163 162/166/162
f 140/143/140 164/168/164 163/167/163
f 141/144/141 165/169/165 164/168/164
f 142/145/142 166/170/166 165/169/165
f 143/147/144 167/171/167 166/170/166
f 144/146/143 168/173/168 167/171/167
f 121/172/121 145/197/145 168/173/168
f 146/150/146 170/175/170 169/174/169
f 147/151/147 171/176/171 170/175/170
f 148/152/148 172/177/172 171/176/171
f 149/153/149 173/178/173 172/177/172
f 150/154/150 174/179/174 173/178/173
f 151/155/151 175/180/175 174/179/174
f 152/156/152 176/181/176 175/180/175
f 153/157/153 177/182/177 176/181/176
f 154/158/154 178/183/178 177/182/177
f 155/159/155 179/184/179 178/183/178
f 156/160/156 180/185/180 179/184/179
f 157/161/157 181/186/181 180/185/180
f 158/162/158 182/187/182 181/186/181
f 159/163/159 183/188/183 182/187/182
f 160/164/160 184/189/184 183/188/183
f 161/165/161 185/190/185 184/189/184
f 162/166/162 186/191/186 185/190/185
f 163/167/163 187/192/187 186/191/186
f 164/168/164 188/193/188 187/192/187
f 165/169/165 189/194/189 188/193/188
f 166/170/166 190/195/190 189/194/189
f 167/171/167 191/196/191 190/195/190
f 168/173/168 192/198/192 191/196/191
f 145/197/145 169/222/169 192/198/192
f 170/175/170 194/200/194 193/199/193
f 171/176/171 195/201/195 194/200/194
f 172/177/172 196/202/196 195/201/195
f 173/178/173 197/203/197 196/202/196
f 174/179/174 198/204/198 197/203/197
f 175/180/175 199/205/199 198/204/198
f 176/181/176 200/206/200 199/205/199
f 177/182/177 201/207/201 200/206/200
f 178/183/178 202/208/202 201/207/201
f 179/184/179 203/209/203 202/208/202
f 180/185/180 204/210/204 203/209/203
f 181/186/181 205/211/205 204/210/204
f 182/187/182 206/212/206 205/211/205
f 183/188/183 207/213/207 206/212/206
f 184/189/184 208/214/208 207/213/207
f 185/190/185 209/215/209 208/214/208
f 186/191/186 210/216/210 209/215/209
f 187/192/187 211/217/211 210/216/210
f 188/193/188 212/218/212 211/217/211
f 189/194/189 213/219/213 212/218/212
f 190/195/190 214/220/214 213/219/213
f 191/196/191 215/221/215 214/220/214
f 192/198/192 216/223/216 215/221/215
f 169/222/169 193/247/193 216/223/216
f 194/200/194 218/225/218 217/224/217
f 195/201/195 219/226/219 218/225/218
f 196/202/196 220/227/220 219/226/219
f 197/203/197 221/228/221 220/227/220
f 198/204/198 222/229/222 221/228/221
f 199/205/199 223/230/223 222/229/222
f 200/206/200 224/231/224 223/230/223
f 201/207/201 225/232/225 224/231/224
f 202/208/202 226/233/226 225/232/225
f 203/209/203 227/234/227 226/233/226
f 204/210/204 228/235/228 227/234/227
f 205/211/205 229/236/229 228/235/228
f 206/212/206 230/237/230 229/236/229
f 207/213/207 231/238/231 230/237/230
f 208/214/208 232/239/232 231/238/231
f 209/215/209 233/240/233 232/239/232
f 210/216/210 234/241/234 233/240/233
f 211/217/211 235/242/235 234/241/234
f 212/218/212 236/243/236 235/242/235
f 213/219/213 237/244/237 236/243/236
f 214/220/214 238/245/238 237/244/237
f 215/221/215 239/246/239 238/245/238
f 216/223/216 240/248/240 239/246/239
f 193/247/193 217/272/217 240/248/240
f 218/225/218 242/250/242 241/249/241
f 219/226/219 243/251/243 242/250/242
f 220/227/220 244/252/244 243/251/243
f 221/228/221 245/253/245 244/252/244
f 222/229/222 246/254/246 245/253/245
f 223/230/223 247/255/247 246/254/246
f 224/231/224 248/256/248 247/255/247
f 225/232/225 249/257/249 248/256/248
f 226/233/226 250/258/250 249/257/249
f 227/234/227 251/259/251 250/258/250
f 228/235/228 252/260/252 251/259/251
f 229/236/229 253/261/253 252/260/252
f 230/237/230 254/262/254 253/261/253
f 231/238/231 255/263/255 254/262/254
f 232/239/232 256/264/256 255/263/255
f 233/240/233 257/265/257 256/264/256
f 234/241/234 258/266/258 257/265/257
f 235/242/235 259/267/259 258/266/258
f 236/243/236 260/268/260 259/267/259
f 237/244/237 261/269/261 260/268/260
f 238/245/238 262/270/262 261/269/261
f 239/246/239 263/271/263 262/270/262
f 240/248/240 264/273/264 263/271/263
f 217/272/217 241/297/241 264/273/264
f 242/250/242 266/275/266 265/274/265
f 243/251/243 267/276/267 266/275/266
f 244/252/244 268/277/268 267/276/267
f 245/253/245 269/278/269 268/277/268
f 246/254/246 270/279/270 269/278/269
f 247/255/247 271/280/271 270/279/270
f 248/256/248 272/281/272 271/280/271
f 249/257/249 273/282/273 272/281/272
f 250/258/250 274/283/274 273/282/273
f 251/259/251 275/284/275 274/283/274
f 252/260/252 276/285/276 275/284/275
f 253/261/253 277/286/277 276/285/276
f 254/262/254 278/287/278 277/286/277
f 255/263/255 279/288/279 278/287/278
f 256/264/256 280/289/280 279/288/279
f 257/265/257 281/290/281 280/289/280
f 258/266/258 282/291/282 281/290/281
f 259/267/259 283/292/283 282/291/282
f 260/268/260 284/293/284 283/292/283
f 261/269/261 285/294/285 284/293/284
f 262/270/262 286/295/286 285/294/285
f 263/271/263 287/296/287 286/295/286
f 264/273/264 288/298/288 287/296/287
f 241/297/241 265/322/265 288/298/288
f 266/275/266 290/300/290 289/299/289
f 267/276/267 291/301/291 290/300/290
f 268/277/268 292/302/292 291/301/291
f 269/278/269 293/303/293 292/302/292
f 270/279/270 294/304/294 293/303/293
f 271/280/271 295/305/295 294/304/294
f 272/281/272 296/306/296 295/305/295
f 273/282/273 297/307/297 296/306/296
f 274/283/274 298/308/298 297/307/297
f 275/284/275 299/309/299 298/308/298
f 276/285/276 300/310/300 299/309/299
f 277/286/277 301/311/301 300/310/300
f 278/287/278 302/312/302 301/311/301
f 279/288/279 303/313/303 302/312/302
f 280/289/280 304/314/304 303/313/303
f 281/290/281 305/315/305 304/314/304
f 282/291/282 306/316/306 305/315/305
f 283/292/283 307/317/307 306/316/306
f 284/293/284 308/318/308 307/317/307
f 285/294/285 309/319/309 308/318/308
f 286/295/286 310/320/310 309/319/309
f 287/296/287 311/321/311 310/320/310
f 288/298/288 312/323/312 311/321/311
f 265/322/265 289/348/289 312/323/312
f 289/299/289 290/300/290 314/324/313
f 291/301/291 315/326/315 314/324/313
f 292/302/292 316/327/316 315/326/315
f 293/303/293 317/329/318 316/327/316
f 293/303/293 294/304/294 318/328/317
f 295/305/295 319/331/320 318/328/317
f 295/305/295 296/306/296 320/330/319
f 297/307/297 321/332/321 320/330/319
f 298/308/298 322/333/322 321/332/321
f 299/309/299 323/335/324 322/333/322
f 299/309/299 300/310/300 324/334/323
f 301/311/301 325/337/326 324/334/323
f 301/311/301 302/312/302 326/336/325
f 303/313/303 327/338/327 326/336/325
f 304/314/304 328/339/328 327/338/327
f 305/315/305 329/341/330 328/339/328
f 305/315/305 306/316/306 330/340/329
f 307/317/307 331/343/332 330/340/329
f 307/317/307 308/318/308 332/342/331
f 309/319/309 333/344/333 332/342/331
f 310/320/310 334/345/334 333/344/333
f 311/321/311 335/347/336 334/345/334
f 311/321/311 312/323/312 336/346/335
f 289/348/289 313/372/314 336/346/335
f 314/324/313 338/350/338 337/349/337
f 315/326/315 339/351/339 338/350/338
f 316/327/316 340/352/340 339/351/339
f 317/329/318 341/353/341 340/352/340
f 318/328/317 342/354/342 341/353/341
f 319/331/320 343/355/343 342/354/342
f 320/330/319 344/356/344 343/355/343
f 321/332/321 345/357/345 344/356/344
f 322/333/322 346/358/346 345/357/345
f 323/335/324 347/359/347 346/358/346
f 324/334/323 348/360/348 347/359/347
f 325/337/326 349/361/349 348/360/348
f 326/336/325 350/362/350 349/361/349
f 327/338/327 351/363/351 350/362/350
f 328/339/328 352/364/352 351/363/351
f 329/341/330 353/365/353 352/364/352
f 330/340/329 354/366/354 353/365/353
f 331/343/332 355/367/355 354/366/354
f 332/342/331 356/368/356 355/367/355
f 333/344/333 357/369/357 356/368/356
f 334/345/334 358/370/358 357/369/357
f 335/347/336 359/371/359 358/370/358
f 336/346/335 360/373/360 359/371/359
f 313/372/314 337/397/337 360/373/360
f 338/350/338 362/376/363 361/374/361
f 338/350/338 339/351/339 363/375/362
f 340/352/340 364/378/365 363/375/362
f 340/352/340 341/353/341 365/377/364
f 342/354/342 366/379/366 365/377/364
f 343/355/343 367/380/367 366/379/366
f 344/356/344 368/382/369 367/380/367
f 344/356/344 345/357/345 369/381/368
f 346/358/346 370/384/371 369/381/368
f 346/358/346 347/359/347 371/383/370
f 348/360/348 372/385/372 371/383/370
f 349/361/349 373/386/373 372/385/372
f 350/362/350 374/388/375 373/386/373
f 350/362/350 351/363/351 375/387/374
f 352/364/352 376/390/377 375/387/374
f 352/364/352 353/365/353 377/389/376
f 354/366/354 378/391/378 377/389/376
f 355/367/355 379/392/379 378/391/378
f 356/368/356 380/394/381 379/392/379
f 356/368/356 357/369/357 381/393/380
f 358/370/358 382/396/383 381/393/380
f 358/370/358 359/371/359 383/395/382
f 360/373/360 384/398/384 383/395/382
f 337/397/337 361/525/361 384/398/384
f 362/376/363 386/401/387 385/399/385
f 362/376/363 363/375/362 387/400/386
f 364/378/365 388/402/388 387/400/386
f 365/377/364 389/403/389 388/402/388
f 366/379/366 390/405/391 389/403/389
f 366/379/366 367/380/367 391/404/390
f 368/382/369 392/407/393 391/404/390
f 368/382/369 369/381/368 393/406/392
f 370/384/371 394/408/394 393/406/392
f 371/383/370 395/409/395 394/408/394
f 372/385/372 396/411/397 395/409/395
f 372/385/372 373/386/373 397/410/396
f 374/388/375 398/413/399 397/410/396
f 374/388/375 375/387/374 399/412/398
f 376/390/377 400/414/400 399/412/398
f 377/389/376 401/415/401 400/414/400
f 378/391/378 402/417/403 401/415/401
f 378/391/378 379/392/379 403/416/402
f 380/394/381 404/419/405 403/416/402
f 380/394/381 381/393/380 405/418/404
f 382/396/383 406/420/406 405/418/404
f 383/395/382 407/421/407 406/420/406
f 384/398/384 408/423/408 407/421/407
f 384/398/384 361/525/361 385/422/385
f 386/401/387 410/426/411 409/424/409
f 386/401/387 387/400/386 411/425/410
f 388/402/388 412/427/412 411/425/410
f 389/403/389 413/428/413 412/427/412
f 390/405/391 414/429/414 413/428/413
f 391/404/390 415/430/415 414/429/414
f 392/407/393 416/432/417 415/430/415
f 392/407/393 393/406/392 417/431/416
f 394/408/394 418/433/418 417/431/416
f 395/409/395 419/434/419 418/433/418
f 396/411/397 420/435/420 419/434/419
f 397/410/396 421/436/421 420/435/420
f 398/413/399 422/438/423 421/436/421
f 398/413/399 399/412/398 423/437/422
f 400/414/400 424/439/424 423/437/422
f 401/415/401 425/440/425 424/439/424
f 402/417/403 426/441/426 425/440/425
f 403/416/402 427/442/427 426/441/426
f 404/419/405 428/444/429 427/442/427
f 404/419/405 405/418/404 429/443/428
f 406/420/406 430/445/430 429/443/428
f 407/421/407 431/446/431 430/445/430
f 408/423/408 432/447/432 431/446/431
f 385/422/385 409/472/409 432/447/432
f 410/426/411 434/449/434 433/448/433
f 411/425/410 435/450/435 434/449/434
f 412/427/412 436/452/437 435/450/435
f 412/427/412 413/428/413 437/451/436
f 413/428/413 414/429/414 438/453/438
f 415/430/415 439/454/439 438/453/438
f 416/432/417 440/455/440 439/454/439
f 417/431/416 441/456/441 440/455/440
f 418/433/418 442/458/443 441/456/441
f 418/433/418 419/434/419 443/457/442
f 419/434/419 420/435/420 444/459/444
f 421/436/421 445/460/445 444/459/444
f 422/438/423 446/461/446 445/460/445
f 423/437/422 447/462/447 446/461/446
f 424/439/424 448/464/449 447/462/447
f 424/439/424 425/440/425 449/463/448
f 425/440/425 426/441/426 450/465/450
f 427/442/427 451/466/451 450/465/450
f 428/444/429 452/467/452 451/466/451
f 429/443/428 453/468/453 452/467/452
f 430/445/430 454/470/455 453/468/453
f 430/445/430 431/446/431 455/469/454
f 431/446/431 432/447/432 456/471/456
f 409/472/409 433/496/433 456/471/456
f 434/449/434 458/475/459 457/473/457
f 434/449/434 435/450/435 459/474/458
f 436/452/437 460/476/460 459/474/458
f 437/451/436 461/477/461 460/476/460
f 438/453/438 462/478/462 461/477/461
f 439/454/439 463/479/463 462/478/462
f 440/455/440 464/481/465 463/479/463
f 440/455/440 441/456/441 465/480/464
f 442/458/443 466/482/466 465/480/464
f 443/457/442 467/483/467 466/482/466
f 444/459/444 468/484/468 467/483/467
f 445/460/445 469/485/469 468/484/468
f 446/461/446 470/487/471 469/485/469
f 446/461/446 447/462/447 471/486/470
f 448/464/449 472/488/472 471/486/470
f 449/463/448 473/489/473 472/488/472
f 450/465/450 474/490/474 473/489/473
f 451/466/451 475/491/475 474/490/474
f 452/467/452 476/493/477 475/491/475
f 452/467/452 453/468/453 477/492/476
f 454/470/455 478/494/478 477/492/476
f 455/469/454 479/495/479 478/494/478
f 456/471/456 480/497/480 479/495/479
f 433/496/433 457/521/457 480/497/480
s 0
f 1/523/482 24/523/482 23/523/482
f 23/523/482 22/523/482 21/523/482
f 21/523/482 20/523/482 19/523/482
f 19/523/482 18/523/482 17/523/482
f 17/523/482 16/523/482 15/523/482
f 15/523/482 14/523/482 13/523/482
f 13/523/482 12/523/482 11/523/482
f 11/523/482 10/523/482 9/523/482
f 9/523/482 8/523/482 7/523/482
f 7/523/482 6/523/482 5/523/482
f 5/523/482 4/523/482 3/523/482
f 3/523/482 2/523/482 1/523/482
f 1/523/482 23/523/482 21/523/482
f 21/523/482 19/523/482 17/523/482
f 17/523/482 15/523/482 13/523/482
f 13/523/482 11/523/482 9/523/482
f 9/523/482 7/523/482 5/523/482
f 5/523/482 3/523/482 1/523/482
f 1/523/482 21/523/482 17/523/482
f 17/523/482 13/523/482 9/523/482
f 9/523/482 5/523/482 1/523/482
