# Blender 4.5.0
# www.blender.org
mtllib mesh_000.mtl
o mesh_000
v 0.000000 -0.349325 0.000000
v 0.045596 -0.346336 0.000000
v 0.090412 -0.337422 0.000000
v 0.133681 -0.322734 0.000000
v 0.174663 -0.302524 0.000000
v 0.212656 -0.277138 0.000000
v 0.247010 -0.247010 0.000000
v 0.277138 -0.212656 0.000000
v 0.302524 -0.174663 0.000000
v 0.322734 -0.133681 0.000000
v 0.337422 -0.090412 0.000000
v 0.346336 -0.045596 0.000000
v 0.349325 -0.000000 0.000000
v 0.346336 0.045596 0.000000
v 0.337422 0.090412 0.000000
v 0.322734 0.133681 0.000000
v 0.302524 0.174663 0.000000
v 0.277138 0.212656 0.000000
v 0.247010 0.247010 0.000000
v 0.212656 0.277138 0.000000
v 0.174663 0.302524 0.000000
v 0.133681 0.322734 0.000000
v 0.090412 0.337422 0.000000
v 0.045596 0.346336 0.000000
v 0.000000 0.349325 0.000000
v -0.045596 0.346336 0.000000
v -0.090412 0.337422 0.000000
v -0.133681 0.322734 0.000000
v -0.174663 0.302524 0.000000
v -0.212656 0.277138 0.000000
v -0.247010 0.247010 0.000000
v -0.277138 0.212656 0.000000
v -0.302524 0.174663 0.000000
v -0.322734 0.133681 0.000000
v -0.337422 0.090412 0.000000
v -0.346336 0.045596 0.000000
v -0.349325 0.000000 0.000000
v -0.346336 -0.045596 0.000000
v -0.337422 -0.090412 0.000000
v -0.322734 -0.133681 0.000000
v -0.302524 -0.174663 0.000000
v -0.277138 -0.212656 0.000000
v -0.247010 -0.247010 0.000000
v -0.212656 -0.277138 0.000000
v -0.174663 -0.302524 0.000000
v -0.133681 -0.322734 0.000000
v -0.090412 -0.337422 0.000000
v -0.045596 -0.346336 0.000000
v 0.000000 -0.195000 0.155000
v 0.025453 -0.193332 0.155000
v 0.050470 -0.188356 0.155000
v 0.074623 -0.180157 0.155000
v 0.097500 -0.168875 0.155000
v 0.118708 -0.154704 0.155000
v 0.137886 -0.137886 0.155000
v 0.154704 -0.118708 0.155000
v 0.168875 -0.097500 0.155000
v 0.180157 -0.074623 0.155000
v 0.188356 -0.050470 0.155000
v 0.193332 -0.025453 0.155000
v 0.195000 -0.000000 0.155000
v 0.193332 0.025453 0.155000
v 0.188356 0.050470 0.155000
v 0.180157 0.074623 0.155000
v 0.168875 0.097500 0.155000
v 0.154704 0.118708 0.155000
v 0.137886 0.137886 0.155000
v 0.118708 0.154704 0.155000
v 0.097500 0.168875 0.155000
v 0.074623 0.180157 0.155000
v 0.050470 0.188356 0.155000
v 0.025453 0.193332 0.155000
v 0.000000 0.195000 0.155000
v -0.025453 0.193332 0.155000
v -0.050470 0.188356 0.155000
v -0.074623 0.180157 0.155000
v -0.097500 0.168875 0.155000
v -0.118708 0.154704 0.155000
v -0.137886 0.137886 0.155000
v -0.154704 0.118708 0.155000
v -0.168875 0.097500 0.155000
v -0.180157 0.074623 0.155000
v -0.188356 0.050470 0.155000
v -0.193332 0.025453 0.155000
v -0.195000 0.000000 0.155000
v -0.193332 -0.025453 0.155000
v -0.188356 -0.050470 0.155000
v -0.180157 -0.074623 0.155000
v -0.168875 -0.097500 0.155000
v -0.154704 -0.118708 0.155000
v -0.137886 -0.137886 0.155000
v -0.118708 -0.154704 0.155000
v -0.097500 -0.168875 0.155000
v -0.074623 -0.180157 0.155000
v -0.050470 -0.188356 0.155000
v -0.025453 -0.193332 0.155000
vn 0.0464 -0.7079 0.7048
vn 0.1384 -0.6958 0.7048
vn 0.2280 -0.6718 0.7048
vn 0.3138 -0.6362 0.7048
vn 0.3941 -0.5898 0.7048
vn 0.4677 -0.5334 0.7048
vn 0.5334 -0.4677 0.7048
vn 0.5898 -0.3941 0.7048
vn 0.6362 -0.3138 0.7048
vn 0.6718 -0.2280 0.7048
vn 0.6958 -0.1384 0.7048
vn 0.7079 -0.0464 0.7048
vn 0.7079 0.0464 0.7048
vn 0.6958 0.1384 0.7048
vn 0.6718 0.2280 0.7048
vn 0.6362 0.3138 0.7048
vn 0.5898 0.3941 0.7048
vn 0.5334 0.4677 0.7048
vn 0.4677 0.5334 0.7048
vn 0.3941 0.5898 0.7048
vn 0.3138 0.6362 0.7048
vn 0.2280 0.6718 0.7048
vn 0.1384 0.6958 0.7048
vn 0.0464 0.7079 0.7048
vn -0.0464 0.7079 0.7048
vn -0.1384 0.6958 0.7048
vn -0.2280 0.6718 0.7048
vn -0.3138 0.6362 0.7048
vn -0.3941 0.5898 0.7048
vn -0.4677 0.5334 0.7048
vn -0.5334 0.4677 0.7048
vn -0.5898 0.3941 0.7048
vn -0.6362 0.3138 0.7048
vn -0.6718 0.2280 0.7048
vn -0.6958 0.1384 0.7048
vn -0.7079 0.0464 0.7048
vn -0.7079 -0.0464 0.7048
vn -0.6958 -0.1384 0.7048
vn -0.6718 -0.2280 0.7048
vn -0.6362 -0.3138 0.7048
vn -0.5898 -0.3941 0.7048
vn -0.5334 -0.4677 0.7048
vn -0.4677 -0.5334 0.7048
vn -0.3941 -0.5898 0.7048
vn -0.3138 -0.6362 0.7048
vn -0.2280 -0.6718 0.7048
vn -0.1384 -0.6958 0.7048
vn -0.0464 -0.7079 0.7048
vn -0.0000 -0.0000 -1.0000
vn -0.0000 -0.0000 1.0000
vt 0.166667 0.000000
vt 0.187500 1.000000
vt 0.166667 1.000000
vt 0.208333 0.000000
vt 0.187500 0.000000
vt 0.229167 1.000000
vt 0.208333 1.000000
vt 0.250000 0.000000
vt 0.229167 0.000000
vt 0.270833 0.000000
vt 0.250000 1.000000
vt 0.291667 0.000000
vt 0.270833 1.000000
vt 0.312500 0.000000
vt 0.291667 1.000000
vt 0.333333 0.000000
vt 0.312500 1.000000
vt 0.354167 0.000000
vt 0.333333 1.000000
vt 0.375000 0.000000
vt 0.354167 1.000000
vt 0.395833 0.000000
vt 0.375000 1.000000
vt 0.416667 0.000000
vt 0.395833 1.000000
vt 0.437500 1.000000
vt 0.416667 1.000000
vt 0.458333 0.000000
vt 0.437500 0.000000
vt 0.479167 1.000000
vt 0.458333 1.000000
vt 0.500000 0.000000
vt 0.479167 0.000000
vt 0.520833 0.000000
vt 0.500000 1.000000
vt 0.541667 0.000000
vt 0.520833 1.000000
vt 0.562500 0.000000
vt 0.541667 1.000000
vt 0.583333 0.000000
vt 0.562500 1.000000
vt 0.604167 0.000000
vt 0.583333 1.000000
vt 0.625000 0.000000
vt 0.604167 1.000000
vt 0.645833 0.000000
vt 0.625000 1.000000
vt 0.666667 0.000000
vt 0.645833 1.000000
vt 0.687500 1.000000
vt 0.666667 1.000000
vt 0.708333 0.000000
vt 0.687500 0.000000
vt 0.729167 1.000000
vt 0.708333 1.000000
vt 0.750000 0.000000
vt 0.729167 0.000000
vt 0.770833 0.000000
vt 0.750000 1.000000
vt 0.791667 0.000000
vt 0.770833 1.000000
vt 0.812500 0.000000
vt 0.791667 1.000000
vt 0.833333 0.000000
vt 0.812500 1.000000
vt 0.854167 0.000000
vt 0.833333 1.000000
vt 0.875000 0.000000
vt 0.854167 1.000000
vt 0.895833 0.000000
vt 0.875000 1.000000
vt 0.916667 0.000000
vt 0.895833 1.000000
vt 0.937500 1.000000
vt 0.916667 1.000000
vt 0.958333 0.000000
vt 0.937500 0.000000
vt 0.979167 1.000000
vt 0.958333 1.000000
vt 1.000000 0.000000
vt 0.979167 0.000000
vt 1.020833 0.000000
vt 1.000000 1.000000
vt 1.041667 0.000000
vt 1.020833 1.000000
vt 1.062500 0.000000
vt 1.041667 1.000000
vt 1.083333 0.000000
vt 1.062500 1.000000
vt 1.104167 0.000000
vt 1.083333 1.000000
vt 1.125000 0.000000
vt 1.104167 1.000000
vt 1.145833 0.000000
vt 1.125000 1.000000
vt 1.166667 0.000000
vt 1.145833 1.000000
vt 0.005000 0.970000
vt 1.166667 1.000000
s 0
usemtl stand_cream_educational_print
f 1/1/1 50/2/1 49/3/1
f 3/4/2 50/2/2 2/5/2
f 3/4/3 52/6/3 51/7/3
f 5/8/4 52/6/4 4/9/4
f 6/10/5 53/11/5 5/8/5
f 7/12/6 54/13/6 6/10/6
f 8/14/7 55/15/7 7/12/7
f 9/16/8 56/17/8 8/14/8
f 10/18/9 57/19/9 9/16/9
f 11/20/10 58/21/10 10/18/10
f 12/22/11 59/23/11 11/20/11
f 13/24/12 60/25/12 12/22/12
f 13/24/13 62/26/13 61/27/13
f 15/28/14 62/26/14 14/29/14
f 15/28/15 64/30/15 63/31/15
f 17/32/16 64/30/16 16/33/16
f 18/34/17 65/35/17 17/32/17
f 19/36/18 66/37/18 18/34/18
f 20/38/19 67/39/19 19/36/19
f 21/40/20 68/41/20 20/38/20
f 22/42/21 69/43/21 21/40/21
f 23/44/22 70/45/22 22/42/22
f 24/46/23 71/47/23 23/44/23
f 25/48/24 72/49/24 24/46/24
f 25/48/25 74/50/25 73/51/25
f 27/52/26 74/50/26 26/53/26
f 27/52/27 76/54/27 75/55/27
f 29/56/28 76/54/28 28/57/28
f 30/58/29 77/59/29 29/56/29
f 31/60/30 78/61/30 30/58/30
f 32/62/31 79/63/31 31/60/31
f 33/64/32 80/65/32 32/62/32
f 34/66/33 81/67/33 33/64/33
f 35/68/34 82/69/34 34/66/34
f 36/70/35 83/71/35 35/68/35
f 37/72/36 84/73/36 36/70/36
f 37/72/37 86/74/37 85/75/37
f 39/76/38 86/74/38 38/77/38
f 39/76/39 88/78/39 87/79/39
f 41/80/40 88/78/40 40/81/40
f 42/82/41 89/83/41 41/80/41
f 43/84/42 90/85/42 42/82/42
f 44/86/43 91/87/43 43/84/43
f 45/88/44 92/89/44 44/86/44
f 46/90/45 93/91/45 45/88/45
f 47/92/46 94/93/46 46/90/46
f 48/94/47 95/95/47 47/92/47
f 1/96/48 96/97/48 48/94/48
f 33/98/49 17/98/49 1/98/49
f 64/98/50 80/98/50 96/98/50
f 1/1/1 2/5/1 50/2/1
f 3/4/2 51/7/2 50/2/2
f 3/4/3 4/9/3 52/6/3
f 5/8/4 53/11/4 52/6/4
f 6/10/5 54/13/5 53/11/5
f 7/12/6 55/15/6 54/13/6
f 8/14/7 56/17/7 55/15/7
f 9/16/8 57/19/8 56/17/8
f 10/18/9 58/21/9 57/19/9
f 11/20/10 59/23/10 58/21/10
f 12/22/11 60/25/11 59/23/11
f 13/24/12 61/27/12 60/25/12
f 13/24/13 14/29/13 62/26/13
f 15/28/14 63/31/14 62/26/14
f 15/28/15 16/33/15 64/30/15
f 17/32/16 65/35/16 64/30/16
f 18/34/17 66/37/17 65/35/17
f 19/36/18 67/39/18 66/37/18
f 20/38/19 68/41/19 67/39/19
f 21/40/20 69/43/20 68/41/20
f 22/42/21 70/45/21 69/43/21
f 23/44/22 71/47/22 70/45/22
f 24/46/23 72/49/23 71/47/23
f 25/48/24 73/51/24 72/49/24
f 25/48/25 26/53/25 74/50/25
f 27/52/26 75/55/26 74/50/26
f 27/52/27 28/57/27 76/54/27
f 29/56/28 77/59/28 76/54/28
f 30/58/29 78/61/29 77/59/29
f 31/60/30 79/63/30 78/61/30
f 32/62/31 80/65/31 79/63/31
f 33/64/32 81/67/32 80/65/32
f 34/66/33 82/69/33 81/67/33
f 35/68/34 83/71/34 82/69/34
f 36/70/35 84/73/35 83/71/35
f 37/72/36 85/75/36 84/73/36
f 37/72/37 38/77/37 86/74/37
f 39/76/38 87/79/38 86/74/38
f 39/76/39 40/81/39 88/78/39
f 41/80/40 89/83/40 88/78/40
f 42/82/41 90/85/41 89/83/41
f 43/84/42 91/87/42 90/85/42
f 44/86/43 92/89/43 91/87/43
f 45/88/44 93/91/44 92/89/44
f 46/90/45 94/93/45 93/91/45
f 47/92/46 95/95/46 94/93/46
f 48/94/47 96/97/47 95/95/47
f 1/96/48 49/99/48 96/97/48
f 1/98/49 48/98/49 47/98/49
f 47/98/49 46/98/49 45/98/49
f 45/98/49 44/98/49 43/98/49
f 43/98/49 42/98/49 41/98/49
f 41/98/49 40/98/49 39/98/49
f 39/98/49 38/98/49 37/98/49
f 37/98/49 36/98/49 35/98/49
f 35/98/49 34/98/49 33/98/49
f 33/98/49 32/98/49 31/98/49
f 31/98/49 30/98/49 29/98/49
f 29/98/49 28/98/49 27/98/49
f 27/98/49 26/98/49 25/98/49
f 25/98/49 24/98/49 23/98/49
f 23/98/49 22/98/49 21/98/49
f 21/98/49 20/98/49 19/98/49
f 19/98/49 18/98/49 17/98/49
f 17/98/49 16/98/49 15/98/49
f 15/98/49 14/98/49 13/98/49
f 13/98/49 12/98/49 11/98/49
f 11/98/49 10/98/49 9/98/49
f 9/98/49 8/98/49 7/98/49
f 7/98/49 6/98/49 5/98/49
f 5/98/49 4/98/49 3/98/49
f 3/98/49 2/98/49 1/98/49
f 1/98/49 47/98/49 45/98/49
f 45/98/49 43/98/49 41/98/49
f 41/98/49 39/98/49 37/98/49
f 37/98/49 35/98/49 33/98/49
f 33/98/49 31/98/49 29/98/49
f 29/98/49 27/98/49 25/98/49
f 25/98/49 23/98/49 21/98/49
f 21/98/49 19/98/49 17/98/49
f 17/98/49 15/98/49 13/98/49
f 13/98/49 11/98/49 9/98/49
f 9/98/49 7/98/49 5/98/49
f 5/98/49 3/98/49 1/98/49
f 1/98/49 45/98/49 41/98/49
f 41/98/49 37/98/49 33/98/49
f 33/98/49 29/98/49 25/98/49
f 25/98/49 21/98/49 17/98/49
f 17/98/49 13/98/49 9/98/49
f 9/98/49 5/98/49 1/98/49
f 1/98/49 41/98/49 33/98/49
f 33/98/49 25/98/49 17/98/49
f 17/98/49 9/98/49 1/98/49
f 96/98/50 49/98/50 50/98/50
f 50/98/50 51/98/50 52/98/50
f 52/98/50 53/98/50 54/98/50
f 54/98/50 55/98/50 56/98/50
f 56/98/50 57/98/50 58/98/50
f 58/98/50 59/98/50 60/98/50
f 60/98/50 61/98/50 62/98/50
f 62/98/50 63/98/50 64/98/50
f 64/98/50 65/98/50 66/98/50
f 66/98/50 67/98/50 68/98/50
f 68/98/50 69/98/50 70/98/50
f 70/98/50 71/98/50 72/98/50
f 72/98/50 73/98/50 74/98/50
f 74/98/50 75/98/50 76/98/50
f 76/98/50 77/98/50 78/98/50
f 78/98/50 79/98/50 80/98/50
f 80/98/50 81/98/50 82/98/50
f 82/98/50 83/98/50 84/98/50
f 84/98/50 85/98/50 86/98/50
f 86/98/50 87/98/50 88/98/50
f 88/98/50 89/98/50 90/98/50
f 90/98/50 91/98/50 92/98/50
f 92/98/50 93/98/50 94/98/50
f 94/98/50 95/98/50 96/98/50
f 96/98/50 50/98/50 52/98/50
f 52/98/50 54/98/50 56/98/50
f 56/98/50 58/98/50 60/98/50
f 60/98/50 62/98/50 64/98/50
f 64/98/50 66/98/50 68/98/50
f 68/98/50 70/98/50 72/98/50
f 72/98/50 74/98/50 76/98/50
f 76/98/50 78/98/50 80/98/50
f 80/98/50 82/98/50 84/98/50
f 84/98/50 86/98/50 88/98/50
f 88/98/50 90/98/50 92/98/50
f 92/98/50 94/98/50 96/98/50
f 96/98/50 52/98/50 56/98/50
f 56/98/50 60/98/50 64/98/50
f 64/98/50 68/98/50 72/98/50
f 72/98/50 76/98/50 80/98/50
f 80/98/50 84/98/50 88/98/50
f 88/98/50 92/98/50 96/98/50
f 96/98/50 56/98/50 64/98/50
f 64/98/50 72/98/50 80/98/50
f 80/98/50 88/98/50 96/98/50
