# Blender 4.5.0
# www.blender.org
mtllib mesh_001.mtl
o mesh_001
v -0.453544 -0.359844 0.087000
v -0.453544 -0.361300 0.088456
v -0.455000 -0.359844 0.088456
v -0.453544 -0.360874 0.087426
v -0.454385 -0.360685 0.087615
v -0.454574 -0.360874 0.088456
v -0.454574 -0.359844 0.087426
v -0.453544 -0.361300 0.205544
v -0.453544 -0.359844 0.207000
v -0.455000 -0.359844 0.205544
v -0.453544 -0.360874 0.206574
v -0.454385 -0.360685 0.206385
v -0.454574 -0.359844 0.206574
v -0.454574 -0.360874 0.205544
v -0.453544 -0.321806 0.087000
v -0.455000 -0.321806 0.088456
v -0.453544 -0.320350 0.088456
v -0.454574 -0.321806 0.087426
v -0.454385 -0.320965 0.087615
v -0.454574 -0.320776 0.088456
v -0.453544 -0.320776 0.087426
v -0.453544 -0.321806 0.207000
v -0.453544 -0.320350 0.205544
v -0.455000 -0.321806 0.205544
v -0.453544 -0.320776 0.206574
v -0.454385 -0.320965 0.206385
v -0.454574 -0.320776 0.205544
v -0.454574 -0.321806 0.206574
v 0.453544 -0.359844 0.087000
v 0.455000 -0.359844 0.088456
v 0.453544 -0.361300 0.088456
v 0.454574 -0.359844 0.087426
v 0.454385 -0.360685 0.087615
v 0.454574 -0.360874 0.088456
v 0.453544 -0.360874 0.087426
v 0.453544 -0.359844 0.207000
v 0.453544 -0.361300 0.205544
v 0.455000 -0.359844 0.205544
v 0.453544 -0.360874 0.206574
v 0.454385 -0.360685 0.206385
v 0.454574 -0.360874 0.205544
v 0.454574 -0.359844 0.206574
v 0.453544 -0.321806 0.087000
v 0.453544 -0.320350 0.088456
v 0.455000 -0.321806 0.088456
v 0.453544 -0.320776 0.087426
v 0.454385 -0.320965 0.087615
v 0.454574 -0.320776 0.088456
v 0.454574 -0.321806 0.087426
v 0.453544 -0.321806 0.207000
v 0.455000 -0.321806 0.205544
v 0.453544 -0.320350 0.205544
v 0.454574 -0.321806 0.206574
v 0.454385 -0.320965 0.206385
v 0.454574 -0.320776 0.205544
v 0.453544 -0.320776 0.206574
vn 0.0682 -0.1719 -0.9827
vn -0.5773 -0.5773 -0.5774
vn -0.7082 0.0151 -0.7059
vn -0.1620 -0.9841 0.0728
vn -0.1355 -0.5702 -0.8102
vn -0.9850 0.0652 -0.1597
vn -0.5720 -0.8089 -0.1357
vn 0.0731 -0.9834 0.1664
vn -0.5774 -0.5773 0.5774
vn -0.7082 -0.7058 -0.0202
vn -0.1574 0.0672 0.9852
vn -0.1355 -0.8102 0.5702
vn -0.9832 -0.1699 -0.0666
vn -0.5761 -0.1362 0.8059
vn -0.1574 -0.0672 -0.9852
vn -0.5773 0.5773 -0.5774
vn 0.0224 0.7082 -0.7057
vn -0.9832 0.1699 0.0666
vn -0.5761 0.1362 -0.8059
vn 0.0731 0.9833 -0.1664
vn -0.8090 0.5720 -0.1356
vn 0.0682 0.1719 0.9827
vn -0.5774 0.5773 0.5774
vn -0.7082 -0.0151 0.7058
vn -0.1620 0.9841 -0.0728
vn -0.1355 0.5703 0.8102
vn -0.9850 -0.0652 0.1597
vn -0.5720 0.8089 0.1357
vn 0.1574 0.0672 -0.9852
vn 0.5773 -0.5773 -0.5774
vn -0.0224 -0.7082 -0.7057
vn 0.9832 -0.1699 0.0666
vn 0.5761 -0.1362 -0.8059
vn -0.0731 -0.9834 -0.1664
vn 0.8090 -0.5720 -0.1356
vn -0.0682 -0.1719 0.9827
vn 0.5774 -0.5773 0.5774
vn 0.7082 0.0151 0.7058
vn 0.1620 -0.9841 -0.0728
vn 0.1355 -0.5702 0.8102
vn 0.9850 0.0652 0.1597
vn 0.5720 -0.8089 0.1357
vn -0.0682 0.1719 -0.9827
vn 0.5773 0.5773 -0.5774
vn 0.7082 -0.0151 -0.7058
vn 0.1620 0.9841 0.0728
vn 0.1355 0.5703 -0.8102
vn 0.9850 -0.0652 -0.1597
vn 0.5720 0.8089 -0.1357
vn 0.1574 -0.0672 0.9852
vn 0.5774 0.5773 0.5774
vn -0.0224 0.7082 0.7057
vn 0.9832 0.1699 -0.0666
vn 0.5761 0.1362 0.8059
vn -0.0731 0.9833 0.1664
vn 0.8090 0.5720 0.1356
vt 0.125400 0.741111
vt 0.125169 0.750000
vt 0.125000 0.741111
vt 0.378033 0.999600
vt 0.376282 1.000000
vt 0.375000 0.999600
vt 0.378033 0.008889
vt 0.375000 0.003757
vt 0.378033 0.000000
vt 0.621967 0.999600
vt 0.625000 0.999831
vt 0.621967 1.000000
vt 0.874600 0.741111
vt 0.875000 0.746243
vt 0.874600 0.750000
vt 0.621967 0.008889
vt 0.623718 0.000000
vt 0.625000 0.008889
vt 0.125400 0.508889
vt 0.125000 0.503757
vt 0.125400 0.500000
vt 0.378033 0.241111
vt 0.375641 0.250085
vt 0.375000 0.241111
vt 0.378033 0.250400
vt 0.378033 0.250000
vt 0.874600 0.508889
vt 0.874831 0.500000
vt 0.875000 0.508889
vt 0.621967 0.250400
vt 0.624359 0.248122
vt 0.625000 0.250400
vt 0.621967 0.241111
vt 0.621967 0.250000
vt 0.374600 0.741111
vt 0.375427 0.748804
vt 0.374800 0.750200
vt 0.378033 0.741111
vt 0.375000 0.741111
vt 0.378033 0.750400
vt 0.378033 0.750000
vt 0.625400 0.741111
vt 0.624629 0.748748
vt 0.625000 0.741111
vt 0.621967 0.750400
vt 0.625200 0.750200
vt 0.621967 0.741111
vt 0.621967 0.750000
vt 0.374600 0.508889
vt 0.375371 0.501252
vt 0.375000 0.508889
vt 0.378033 0.499600
vt 0.374800 0.499800
vt 0.378033 0.508889
vt 0.378033 0.500000
vt 0.625400 0.508889
vt 0.624573 0.501196
vt 0.625200 0.499800
vt 0.621967 0.508889
vt 0.625000 0.508889
vt 0.621967 0.499600
vt 0.621967 0.500000
vt 0.125000 0.508889
vt 0.375000 0.008889
vt 0.378033 1.000000
vt 0.621967 0.000000
vt 0.875000 0.741111
vt 0.625000 0.241111
vt 0.375000 0.250400
vt 0.874600 0.500000
vt 0.125400 0.750000
vt 0.625000 0.999600
s 1
usemtl lower_panel_enamel
f 1/1/1 5/2/2 7/3/3
f 2/4/4 5/5/2 4/6/5
f 3/7/6 5/8/2 6/9/7
f 8/10/8 12/11/9 14/12/10
f 9/13/11 12/14/9 11/15/12
f 10/16/13 12/17/9 13/18/14
f 15/19/15 19/20/16 21/21/17
f 16/22/18 19/23/16 18/24/19
f 17/25/20 19/23/16 20/26/21
f 22/27/22 26/28/23 28/29/24
f 23/30/25 26/31/23 25/32/26
f 24/33/27 26/31/23 27/34/28
f 29/35/29 33/36/30 35/37/31
f 30/38/32 33/36/30 32/39/33
f 31/40/34 33/36/30 34/41/35
f 36/42/36 40/43/37 42/44/38
f 37/45/39 40/43/37 39/46/40
f 38/47/41 40/43/37 41/48/42
f 43/49/43 47/50/44 49/51/45
f 44/52/46 47/50/44 46/53/47
f 45/54/48 47/50/44 48/55/49
f 50/56/50 54/57/51 56/58/52
f 51/59/53 54/57/51 53/60/54
f 52/61/55 54/57/51 55/62/56
f 1/1/1 18/63/19 15/19/15
f 7/64/3 16/22/18 18/24/19
f 8/10/8 6/65/7 2/4/4
f 14/66/10 3/7/6 6/9/7
f 22/27/22 13/67/14 9/13/11
f 28/68/24 10/16/13 13/18/14
f 17/25/20 27/34/28 23/30/25
f 20/26/21 24/33/27 27/34/28
f 15/19/15 46/53/47 43/49/43
f 21/69/17 44/52/46 46/53/47
f 50/56/50 25/70/26 22/27/22
f 56/58/52 23/30/25 25/32/26
f 45/54/48 55/62/56 51/59/53
f 48/55/49 52/61/55 55/62/56
f 43/49/43 32/39/33 29/35/29
f 49/51/45 30/38/32 32/39/33
f 36/42/36 53/60/54 50/56/50
f 42/44/38 51/59/53 53/60/54
f 31/40/34 41/48/42 37/45/39
f 34/41/35 38/47/41 41/48/42
f 29/35/29 4/71/5 1/1/1
f 35/37/31 2/4/4 4/6/5
f 9/13/11 39/46/40 36/42/36
f 11/72/12 37/45/39 39/46/40
f 43/49/43 1/1/1 15/19/15
f 10/16/13 16/22/18 3/7/6
f 37/45/39 2/4/4 31/40/34
f 22/27/22 36/42/36 50/56/50
f 23/30/25 44/52/46 17/25/20
f 51/59/53 30/38/32 45/54/48
f 1/1/1 4/71/5 5/2/2
f 2/4/4 6/65/7 5/5/2
f 3/7/6 7/64/3 5/8/2
f 8/10/8 11/72/12 12/11/9
f 9/13/11 13/67/14 12/14/9
f 10/16/13 14/66/10 12/17/9
f 15/19/15 18/63/19 19/20/16
f 16/22/18 20/26/21 19/23/16
f 17/25/20 21/69/17 19/23/16
f 22/27/22 25/70/26 26/28/23
f 23/30/25 27/34/28 26/31/23
f 24/33/27 28/68/24 26/31/23
f 29/35/29 32/39/33 33/36/30
f 30/38/32 34/41/35 33/36/30
f 31/40/34 35/37/31 33/36/30
f 36/42/36 39/46/40 40/43/37
f 37/45/39 41/48/42 40/43/37
f 38/47/41 42/44/38 40/43/37
f 43/49/43 46/53/47 47/50/44
f 44/52/46 48/55/49 47/50/44
f 45/54/48 49/51/45 47/50/44
f 50/56/50 53/60/54 54/57/51
f 51/59/53 55/62/56 54/57/51
f 52/61/55 56/58/52 54/57/51
f 1/1/1 7/3/3 18/63/19
f 7/64/3 3/7/6 16/22/18
f 8/10/8 14/12/10 6/65/7
f 14/66/10 10/16/13 3/7/6
f 22/27/22 28/29/24 13/67/14
f 28/68/24 24/33/27 10/16/13
f 17/25/20 20/26/21 27/34/28
f 20/26/21 16/22/18 24/33/27
f 15/19/15 21/21/17 46/53/47
f 21/69/17 17/25/20 44/52/46
f 50/56/50 56/58/52 25/70/26
f 56/58/52 52/61/55 23/30/25
f 45/54/48 48/55/49 55/62/56
f 48/55/49 44/52/46 52/61/55
f 43/49/43 49/51/45 32/39/33
f 49/51/45 45/54/48 30/38/32
f 36/42/36 42/44/38 53/60/54
f 42/44/38 38/47/41 51/59/53
f 31/40/34 34/41/35 41/48/42
f 34/41/35 30/38/32 38/47/41
f 29/35/29 35/37/31 4/71/5
f 35/37/31 31/40/34 2/4/4
f 9/13/11 11/15/12 39/46/40
f 11/72/12 8/10/8 37/45/39
f 43/49/43 29/35/29 1/1/1
f 10/16/13 24/33/27 16/22/18
f 37/45/39 8/10/8 2/4/4
f 22/27/22 9/13/11 36/42/36
f 23/30/25 52/61/55 44/52/46
f 51/59/53 38/47/41 30/38/32
