# Blender 4.5.0
# www.blender.org
mtllib mesh_030.mtl
o mesh_030
v 0.000000 -0.008190 0.042770
v 0.000000 -0.000000 0.042770
v -0.006691 -0.008190 0.042243
v -0.006691 -0.000000 0.042243
v -0.013217 -0.008190 0.040677
v -0.013217 -0.000000 0.040677
v -0.019417 -0.008190 0.038108
v -0.019417 -0.000000 0.038108
v -0.025140 -0.008190 0.034602
v -0.025140 -0.000000 0.034602
v -0.030243 -0.008190 0.030243
v -0.030243 -0.000000 0.030243
v -0.034602 -0.008190 0.025140
v -0.034602 -0.000000 0.025140
v -0.038108 -0.008190 0.019417
v -0.038108 -0.000000 0.019417
v -0.040677 -0.008190 0.013217
v -0.040677 -0.000000 0.013217
v -0.042243 -0.008190 0.006691
v -0.042243 -0.000000 0.006691
v -0.042770 -0.008190 0.000000
v -0.042770 -0.000000 0.000000
v -0.042243 -0.008190 -0.006691
v -0.042243 -0.000000 -0.006691
v -0.040677 -0.008190 -0.013217
v -0.040677 -0.000000 -0.013217
v -0.038108 -0.008190 -0.019417
v -0.038108 -0.000000 -0.019417
v -0.034602 -0.008190 -0.025140
v -0.034602 -0.000000 -0.025140
v -0.030243 -0.008190 -0.030243
v -0.030243 -0.000000 -0.030243
v -0.025140 -0.008190 -0.034602
v -0.025140 -0.000000 -0.034602
v -0.019417 -0.008190 -0.038108
v -0.019417 -0.000000 -0.038108
v -0.013217 -0.008190 -0.040677
v -0.013217 -0.000000 -0.040677
v -0.006691 -0.008190 -0.042243
v -0.006691 -0.000000 -0.042243
v -0.000000 -0.008190 -0.042770
v -0.000000 -0.000000 -0.042770
v 0.006691 -0.008190 -0.042243
v 0.006691 -0.000000 -0.042243
v 0.013217 -0.008190 -0.040677
v 0.013217 -0.000000 -0.040677
v 0.019417 -0.008190 -0.038108
v 0.019417 -0.000000 -0.038108
v 0.025140 -0.008190 -0.034602
v 0.025140 -0.000000 -0.034602
v 0.030243 -0.008190 -0.030243
v 0.030243 -0.000000 -0.030243
v 0.034602 -0.008190 -0.025140
v 0.034602 -0.000000 -0.025140
v 0.038108 -0.008190 -0.019417
v 0.038108 -0.000000 -0.019417
v 0.040677 -0.008190 -0.013217
v 0.040677 -0.000000 -0.013217
v 0.042243 -0.008190 -0.006691
v 0.042243 -0.000000 -0.006691
v 0.042770 -0.008190 -0.000000
v 0.042770 -0.000000 -0.000000
v 0.042243 -0.008190 0.006691
v 0.042243 -0.000000 0.006691
v 0.040677 -0.008190 0.013217
v 0.040677 -0.000000 0.013217
v 0.038108 -0.008190 0.019417
v 0.038108 -0.000000 0.019417
v 0.034602 -0.008190 0.025140
v 0.034602 -0.000000 0.025140
v 0.030243 -0.008190 0.030243
v 0.030243 -0.000000 0.030243
v 0.025140 -0.008190 0.034602
v 0.025140 -0.000000 0.034602
v 0.019417 -0.008190 0.038108
v 0.019417 -0.000000 0.038108
v 0.013217 -0.008190 0.040677
v 0.013217 -0.000000 0.040677
v 0.006691 -0.008190 0.042243
v 0.006691 -0.000000 0.042243
v -0.037638 -0.008190 0.000000
v -0.036914 -0.008190 -0.007343
v -0.034773 -0.008190 -0.014403
v -0.031295 -0.008190 -0.020910
v -0.026614 -0.008190 -0.026614
v -0.020910 -0.008190 -0.031295
v -0.014403 -0.008190 -0.034773
v -0.007343 -0.008190 -0.036914
v 0.000000 -0.008190 -0.037638
v 0.007343 -0.008190 -0.036914
v 0.014403 -0.008190 -0.034773
v 0.020910 -0.008190 -0.031295
v 0.026614 -0.008190 -0.026614
v 0.031295 -0.008190 -0.020910
v 0.034773 -0.008190 -0.014403
v 0.036914 -0.008190 -0.007343
v 0.037638 -0.008190 0.000000
v 0.036914 -0.008190 0.007343
v 0.034773 -0.008190 0.014403
v 0.031295 -0.008190 0.020910
v 0.026614 -0.008190 0.026614
v 0.020910 -0.008190 0.031295
v 0.014403 -0.008190 0.034773
v 0.007343 -0.008190 0.036914
v 0.000000 -0.008190 0.037638
v -0.007343 -0.008190 0.036914
v -0.014403 -0.008190 0.034773
v -0.020910 -0.008190 0.031295
v -0.026614 -0.008190 0.026614
v -0.031295 -0.008190 0.020910
v -0.034773 -0.008190 0.014403
v -0.036914 -0.008190 0.007343
v -0.032078 -0.037310 0.000000
v -0.031461 -0.037310 -0.006258
v -0.029636 -0.037310 -0.012276
v -0.026671 -0.037310 -0.017821
v -0.022682 -0.037310 -0.022682
v -0.017821 -0.037310 -0.026671
v -0.012276 -0.037310 -0.029636
v -0.006258 -0.037310 -0.031461
v 0.000000 -0.037310 -0.032077
v 0.006258 -0.037310 -0.031461
v 0.012276 -0.037310 -0.029636
v 0.017821 -0.037310 -0.026671
v 0.022682 -0.037310 -0.022682
v 0.026671 -0.037310 -0.017821
v 0.029636 -0.037310 -0.012276
v 0.031461 -0.037310 -0.006258
v 0.032077 -0.037310 0.000000
v 0.031461 -0.037310 0.006258
v 0.029636 -0.037310 0.012276
v 0.026671 -0.037310 0.017821
v 0.022682 -0.037310 0.022682
v 0.017821 -0.037310 0.026671
v 0.012276 -0.037310 0.029636
v 0.006258 -0.037310 0.031461
v 0.000000 -0.037310 0.032077
v -0.006258 -0.037310 0.031461
v -0.012276 -0.037310 0.029636
v -0.017821 -0.037310 0.026671
v -0.022682 -0.037310 0.022682
v -0.026671 -0.037310 0.017821
v -0.029636 -0.037310 0.012276
v -0.031461 -0.037310 0.006258
v 0.000000 -0.008190 0.000000
v 0.000000 -0.037310 0.000000
v 0.002006 -0.046774 -0.029704
v -0.000108 -0.053617 -0.023195
v -0.006617 -0.046774 -0.025310
v 0.001845 -0.049393 -0.029208
v 0.001387 -0.051613 -0.027797
v -0.000645 -0.046774 -0.030017
v -0.000902 -0.049458 -0.029440
v -0.001144 -0.051265 -0.028254
v -0.002645 -0.050725 -0.028174
v -0.002599 -0.053096 -0.024005
v -0.004710 -0.051613 -0.024691
v 0.000701 -0.053096 -0.025686
v -0.001832 -0.052468 -0.026578
v -0.003592 -0.051265 -0.027007
v -0.005312 -0.046774 -0.027640
v -0.003215 -0.046774 -0.029293
v -0.006121 -0.049393 -0.025149
v -0.004694 -0.049458 -0.027508
v -0.002992 -0.049322 -0.028854
v -0.013722 -0.053617 0.018702
v -0.015836 -0.046774 0.025210
v -0.020230 -0.046774 0.016587
v -0.014531 -0.053096 0.021192
v -0.015217 -0.051613 0.023304
v -0.016212 -0.053096 0.017892
v -0.017104 -0.052468 0.020425
v -0.017533 -0.051265 0.022185
v -0.018700 -0.050725 0.021238
v -0.018166 -0.046774 0.023905
v -0.019819 -0.046774 0.021808
v -0.015675 -0.049393 0.024715
v -0.018034 -0.049458 0.023287
v -0.019380 -0.049322 0.021585
v -0.019734 -0.049393 0.016748
v -0.018324 -0.051613 0.017206
v -0.020544 -0.046774 0.019239
v -0.019966 -0.049458 0.019495
v -0.018780 -0.051265 0.019737
v 0.002006 -0.044153 -0.029704
v -0.006617 -0.044153 -0.025310
v -0.000108 -0.037310 -0.023195
v -0.000645 -0.044153 -0.030017
v -0.003215 -0.044153 -0.029293
v 0.001845 -0.041534 -0.029208
v -0.000902 -0.041469 -0.029440
v -0.002992 -0.041605 -0.028854
v -0.002645 -0.040202 -0.028174
v -0.006121 -0.041534 -0.025149
v -0.004710 -0.039314 -0.024691
v -0.005312 -0.044153 -0.027640
v -0.004694 -0.041469 -0.027508
v -0.003592 -0.039662 -0.027007
v 0.000701 -0.037831 -0.025686
v 0.001387 -0.039314 -0.027797
v -0.002599 -0.037831 -0.024005
v -0.001832 -0.038460 -0.026578
v -0.001144 -0.039662 -0.028254
v -0.015836 -0.044153 0.025210
v -0.013722 -0.037310 0.018702
v -0.020230 -0.044153 0.016587
v -0.015675 -0.041534 0.024715
v -0.015217 -0.039314 0.023304
v -0.018166 -0.044153 0.023905
v -0.018034 -0.041469 0.023287
v -0.017533 -0.039662 0.022185
v -0.018700 -0.040202 0.021238
v -0.016212 -0.037831 0.017892
v -0.018324 -0.039314 0.017206
v -0.014531 -0.037831 0.021192
v -0.017104 -0.038460 0.020425
v -0.018780 -0.039662 0.019737
v -0.020544 -0.044153 0.019239
v -0.019819 -0.044153 0.021808
v -0.019734 -0.041534 0.016748
v -0.019966 -0.041469 0.019495
v -0.019380 -0.041605 0.021585
v 0.015836 -0.046774 -0.025210
v 0.020230 -0.046774 -0.016587
v 0.013722 -0.053617 -0.018702
v 0.018166 -0.046774 -0.023905
v 0.019819 -0.046774 -0.021808
v 0.015675 -0.049393 -0.024715
v 0.018034 -0.049458 -0.023287
v 0.019380 -0.049322 -0.021585
v 0.018700 -0.050725 -0.021238
v 0.019734 -0.049393 -0.016748
v 0.018324 -0.051613 -0.017206
v 0.020544 -0.046774 -0.019239
v 0.019966 -0.049458 -0.019495
v 0.018780 -0.051265 -0.019737
v 0.014531 -0.053096 -0.021192
v 0.015217 -0.051613 -0.023304
v 0.016212 -0.053096 -0.017892
v 0.017104 -0.052468 -0.020425
v 0.017533 -0.051265 -0.022185
v -0.002006 -0.046774 0.029704
v 0.000108 -0.053617 0.023195
v 0.006617 -0.046774 0.025310
v -0.001845 -0.049393 0.029208
v -0.001387 -0.051613 0.027797
v 0.000645 -0.046774 0.030017
v 0.000902 -0.049458 0.029440
v 0.001144 -0.051265 0.028254
v 0.002645 -0.050725 0.028174
v 0.002599 -0.053096 0.024005
v 0.004710 -0.051613 0.024691
v -0.000701 -0.053096 0.025686
v 0.001832 -0.052468 0.026578
v 0.003592 -0.051265 0.027007
v 0.005312 -0.046774 0.027640
v 0.003215 -0.046774 0.029293
v 0.006121 -0.049393 0.025149
v 0.004694 -0.049458 0.027508
v 0.002992 -0.049322 0.028854
v 0.015836 -0.044153 -0.025210
v 0.013722 -0.037310 -0.018702
v 0.020230 -0.044153 -0.016587
v 0.015675 -0.041534 -0.024715
v 0.015217 -0.039314 -0.023304
v 0.018166 -0.044153 -0.023905
v 0.018034 -0.041469 -0.023287
v 0.017533 -0.039662 -0.022185
v 0.018700 -0.040202 -0.021238
v 0.016212 -0.037831 -0.017892
v 0.018324 -0.039314 -0.017206
v 0.014531 -0.037831 -0.021192
v 0.017104 -0.038460 -0.020425
v 0.018780 -0.039662 -0.019737
v 0.020544 -0.044153 -0.019239
v 0.019819 -0.044153 -0.021808
v 0.019734 -0.041534 -0.016748
v 0.019966 -0.041469 -0.019495
v 0.019380 -0.041605 -0.021585
v -0.002006 -0.044153 0.029704
v 0.006617 -0.044153 0.025310
v 0.000108 -0.037310 0.023195
v 0.000645 -0.044153 0.030017
v 0.003215 -0.044153 0.029293
v -0.001845 -0.041534 0.029208
v 0.000902 -0.041469 0.029440
v 0.002992 -0.041605 0.028854
v 0.002645 -0.040202 0.028174
v 0.006121 -0.041534 0.025149
v 0.004710 -0.039314 0.024691
v 0.005312 -0.044153 0.027640
v 0.004694 -0.041469 0.027508
v 0.003592 -0.039662 0.027007
v -0.000701 -0.037831 0.025686
v -0.001387 -0.039314 0.027797
v 0.002599 -0.037831 0.024005
v 0.001832 -0.038460 0.026578
v 0.001144 -0.039662 0.028254
vn -0.4820 0.8628 0.1526
vn -0.0035 -0.9998 0.0218
vn 0.0001 -0.9999 -0.0142
vn 0.5307 0.8085 0.2543
vn 0.0106 -0.9994 -0.0326
vn 0.0152 0.9994 -0.0307
vn -0.0221 -0.9988 0.0434
vn 0.0084 -0.9999 -0.0115
vn 0.3241 0.8149 0.4805
vn -0.0019 -1.0000 0.0018
vn -0.0102 0.9999 0.0073
vn -0.0155 -0.9998 0.0112
vn -0.0124 -0.9999 0.0063
vn 0.1062 0.8085 0.5789
vn 0.0135 -0.9999 -0.0044
vn -0.0202 0.8149 0.5793
vn -0.0218 -0.9998 0.0034
vn -0.0779 0.8085 0.5834
vn 0.0142 -0.9999 -0.0000
vn -0.1770 0.8105 0.5584
vn -0.0280 -0.9996 -0.0044
vn -0.2543 0.8085 0.5307
vn 0.0136 -0.9999 0.0044
vn -0.3568 0.8149 0.4567
vn -0.0197 -0.9998 -0.0100
vn -0.4058 0.8085 0.4261
vn 0.0115 -0.9999 0.0084
vn -0.4829 0.8157 0.3184
vn 0.0129 -0.9998 0.0129
vn -0.5177 0.8085 0.2799
vn 0.0084 -0.9999 0.0115
vn -0.5572 0.8149 0.1598
vn -0.0100 -0.9998 -0.0197
vn -0.5789 0.8085 0.1062
vn 0.0106 -0.9994 0.0326
vn 0.0054 0.9994 0.0338
vn -0.0076 -0.9988 -0.0481
vn -0.0000 -0.9999 0.0142
vn -0.5447 0.8149 -0.1982
vn 0.0004 -1.0000 -0.0026
vn 0.0039 0.9999 -0.0119
vn 0.0059 -0.9998 -0.0182
vn 0.0064 -0.9999 -0.0124
vn -0.4263 0.8082 -0.4062
vn -0.0084 -0.9999 0.0115
vn -0.3241 0.8149 -0.4805
vn 0.0156 -0.9998 -0.0156
vn -0.2799 0.8085 -0.5177
vn -0.0115 -0.9999 0.0084
vn -0.1994 0.8075 -0.5552
vn 0.0253 -0.9996 -0.0129
vn -0.1062 0.8085 -0.5789
vn -0.0135 -0.9999 0.0044
vn 0.0202 0.8149 -0.5793
vn 0.0026 -1.0000 -0.0004
vn 0.0125 0.9999 0.0001
vn 0.0191 -0.9998 -0.0000
vn -0.0036 -1.0000 -0.0006
vn 0.2543 0.8085 -0.5307
vn -0.0136 -0.9999 -0.0044
vn 0.3568 0.8149 -0.4567
vn 0.0197 -0.9998 0.0100
vn 0.4059 0.8085 -0.4262
vn -0.0115 -0.9999 -0.0084
vn 0.4777 0.8135 -0.3316
vn 0.0088 -0.9999 0.0089
vn 0.0015 1.0000 0.0022
vn 0.0112 -0.9998 0.0155
vn 0.0100 -0.9998 0.0197
vn 0.5789 0.8085 -0.1062
vn -0.0044 -0.9999 -0.0135
vn -0.5854 0.0088 0.8107
vn 0.5776 0.8159 0.0262
vn -0.0006 -1.0000 -0.0036
vn 0.5730 0.0426 0.8184
vn -0.8131 0.5817 -0.0239
vn -0.7928 0.5817 -0.1821
vn -0.7394 -0.6626 -0.1193
vn -0.7485 -0.6626 0.0272
vn -0.7420 0.5817 -0.3332
vn -0.7020 -0.6626 -0.2613
vn -0.6628 0.5817 -0.4716
vn -0.6375 -0.6626 -0.3932
vn -0.5580 0.5817 -0.5918
vn -0.5485 -0.6626 -0.5100
vn -0.4318 0.5817 -0.6893
vn -0.4385 -0.6626 -0.6072
vn -0.2891 0.5817 -0.7603
vn -0.3116 -0.6626 -0.6811
vn -0.1352 0.5817 -0.8021
vn -0.1728 -0.6626 -0.7288
vn 0.0239 0.5817 -0.8131
vn -0.0273 -0.6626 -0.7485
vn 0.1821 0.5817 -0.7928
vn 0.1193 -0.6626 -0.7394
vn 0.3332 0.5817 -0.7420
vn 0.2613 -0.6626 -0.7020
vn 0.4716 0.5817 -0.6628
vn 0.3932 -0.6626 -0.6375
vn 0.5918 0.5817 -0.5580
vn 0.5100 -0.6626 -0.5485
vn 0.6893 0.5817 -0.4318
vn 0.6072 -0.6626 -0.4385
vn 0.7603 0.5817 -0.2891
vn 0.6811 -0.6626 -0.3116
vn 0.8021 0.5817 -0.1352
vn 0.7288 -0.6626 -0.1728
vn 0.8131 0.5817 0.0239
vn 0.7485 -0.6626 -0.0273
vn 0.7928 0.5817 0.1821
vn 0.7394 -0.6626 0.1193
vn 0.7420 0.5817 0.3332
vn 0.7020 -0.6626 0.2613
vn 0.6628 0.5817 0.4716
vn 0.6375 -0.6626 0.3932
vn 0.5580 0.5817 0.5918
vn 0.5485 -0.6626 0.5100
vn 0.4318 0.5817 0.6893
vn 0.4385 -0.6626 0.6072
vn 0.2891 0.5817 0.7603
vn 0.3116 -0.6626 0.6811
vn 0.1352 0.5817 0.8021
vn 0.1728 -0.6626 0.7288
vn -0.0239 0.5817 0.8131
vn 0.0273 -0.6626 0.7485
vn -0.1821 0.5817 0.7928
vn -0.1193 -0.6626 0.7394
vn -0.3332 0.5817 0.7420
vn -0.2613 -0.6626 0.7020
vn -0.4716 0.5817 0.6628
vn -0.3932 -0.6626 0.6375
vn -0.5918 0.5817 0.5580
vn -0.5100 -0.6626 0.5485
vn -0.6893 0.5817 0.4318
vn -0.6072 -0.6626 0.4385
vn -0.7603 0.5817 0.2891
vn -0.6811 -0.6626 0.3116
vn -0.8021 0.5817 0.1352
vn -0.7288 -0.6626 0.1728
vn -0.0000 1.0000 -0.0000
vn -0.0000 -1.0000 -0.0000
vn 0.2291 -0.4273 -0.8746
vn -0.0759 -0.0978 -0.9923
vn 0.2809 -0.0968 -0.9548
vn 0.1716 -0.7344 -0.6566
vn -0.0624 -0.3943 -0.9169
vn -0.4522 -0.0892 -0.8875
vn -0.3707 -0.5774 -0.7275
vn -0.3943 -0.3309 -0.8574
vn -0.4065 -0.8969 -0.1740
vn 0.0903 -0.9240 -0.3715
vn -0.0233 -0.9996 -0.0158
vn -0.6970 -0.6704 -0.2545
vn -0.2691 -0.8527 -0.4478
vn -0.1378 -0.6526 -0.7451
vn -0.7586 -0.0981 -0.6441
vn -0.8761 -0.3816 -0.2947
vn -0.9441 -0.0960 -0.3154
vn -0.6891 -0.3427 -0.6385
vn -0.5090 -0.6660 -0.5453
vn -0.1819 -0.9026 0.3902
vn -0.3661 -0.9243 -0.1081
vn -0.0278 -0.9996 -0.0011
vn -0.2648 -0.6775 0.6862
vn -0.4478 -0.8527 0.2691
vn -0.6752 -0.7071 -0.2100
vn -0.7275 -0.5774 0.3707
vn -0.7108 -0.6936 0.1169
vn -0.6442 -0.0979 0.7586
vn -0.3131 -0.3812 0.8699
vn -0.3340 -0.0968 0.9376
vn -0.8882 -0.0898 0.4507
vn -0.6385 -0.3427 0.6891
vn -0.5453 -0.6660 0.5090
vn -0.8657 -0.4399 -0.2389
vn -0.9923 -0.0977 0.0758
vn -0.9491 -0.0960 -0.3001
vn -0.9169 -0.3943 0.0624
vn -0.8264 -0.3613 0.4318
vn -0.0752 0.0980 -0.9923
vn 0.2582 0.3812 -0.8877
vn 0.2807 0.0968 -0.9549
vn -0.4537 0.0897 -0.8866
vn -0.1115 0.3427 -0.9328
vn 0.1936 0.7069 -0.6803
vn -0.3707 0.5774 -0.7275
vn -0.1003 0.6399 -0.7619
vn -0.8408 0.4401 -0.3153
vn -0.7583 0.0977 -0.6446
vn -0.9442 0.0960 -0.3151
vn -0.6293 0.7416 -0.2323
vn -0.7051 0.3943 -0.5894
vn -0.4148 0.3613 -0.8351
vn 0.0820 0.9027 -0.4225
vn -0.3597 0.9243 -0.1277
vn -0.0232 0.9996 -0.0156
vn -0.2041 0.8527 -0.4809
vn -0.5218 0.6526 -0.5495
vn -0.3289 0.4271 0.8423
vn -0.6446 0.0978 0.7582
vn -0.3342 0.0968 0.9375
vn -0.2472 0.7344 0.6321
vn -0.5894 0.3943 0.7051
vn -0.8875 0.0892 0.4522
vn -0.7275 0.5773 0.3707
vn -0.8229 0.3309 0.4619
vn -0.4311 0.8969 -0.0982
vn -0.1452 0.9240 0.3537
vn -0.0280 0.9996 -0.0010
vn -0.7135 0.6703 -0.2040
vn -0.4809 0.8527 0.2041
vn -0.5495 0.6526 0.5218
vn -0.9923 0.0980 0.0752
vn -0.8821 0.3816 -0.2761
vn -0.9492 0.0960 -0.2997
vn -0.9328 0.3427 0.1115
vn -0.7323 0.6660 0.1420
vn 0.6442 -0.0979 -0.7586
vn 0.3131 -0.3812 -0.8699
vn 0.3340 -0.0968 -0.9376
vn 0.8882 -0.0898 -0.4507
vn 0.6385 -0.3427 -0.6891
vn 0.2432 -0.7069 -0.6642
vn 0.7275 -0.5774 -0.3707
vn 0.5290 -0.6399 -0.5574
vn 0.8657 -0.4399 0.2389
vn 0.9923 -0.0977 -0.0758
vn 0.9491 -0.0960 0.3001
vn 0.6454 -0.7418 0.1822
vn 0.9169 -0.3943 -0.0624
vn 0.8264 -0.3613 -0.4318
vn 0.1819 -0.9026 -0.3902
vn 0.3661 -0.9243 0.1081
vn 0.0278 -0.9996 0.0011
vn 0.4478 -0.8527 -0.2691
vn 0.7451 -0.6526 -0.1378
vn -0.2291 -0.4273 0.8746
vn 0.0759 -0.0978 0.9923
vn -0.2809 -0.0968 0.9548
vn -0.1716 -0.7344 0.6566
vn 0.0624 -0.3943 0.9169
vn 0.4522 -0.0892 0.8875
vn 0.3707 -0.5774 0.7275
vn 0.3943 -0.3309 0.8574
vn 0.4065 -0.8969 0.1740
vn -0.0903 -0.9240 0.3715
vn 0.0233 -0.9996 0.0158
vn 0.6970 -0.6704 0.2545
vn 0.2691 -0.8527 0.4478
vn 0.1378 -0.6526 0.7451
vn 0.7586 -0.0981 0.6441
vn 0.8761 -0.3816 0.2947
vn 0.9441 -0.0960 0.3154
vn 0.6891 -0.3427 0.6385
vn 0.5090 -0.6660 0.5453
vn 0.3289 0.4271 -0.8423
vn 0.6446 0.0978 -0.7582
vn 0.3342 0.0968 -0.9375
vn 0.2472 0.7344 -0.6321
vn 0.5894 0.3943 -0.7051
vn 0.8875 0.0892 -0.4522
vn 0.7275 0.5773 -0.3707
vn 0.8229 0.3309 -0.4619
vn 0.4311 0.8969 0.0982
vn 0.1452 0.9240 -0.3537
vn 0.0280 0.9996 0.0010
vn 0.7135 0.6703 0.2040
vn 0.4809 0.8527 -0.2041
vn 0.5495 0.6526 -0.5218
vn 0.9923 0.0980 -0.0752
vn 0.8821 0.3816 0.2761
vn 0.9492 0.0960 0.2997
vn 0.9328 0.3427 -0.1115
vn 0.7323 0.6660 -0.1420
vn 0.0752 0.0980 0.9923
vn -0.2582 0.3812 0.8877
vn -0.2807 0.0968 0.9549
vn 0.4537 0.0897 0.8866
vn 0.1115 0.3427 0.9328
vn -0.1936 0.7069 0.6803
vn 0.3707 0.5774 0.7275
vn 0.1003 0.6399 0.7619
vn 0.8408 0.4401 0.3153
vn 0.7583 0.0977 0.6446
vn 0.9442 0.0960 0.3151
vn 0.6293 0.7417 0.2323
vn 0.7051 0.3943 0.5894
vn 0.4148 0.3613 0.8351
vn -0.0820 0.9027 0.4225
vn 0.3597 0.9243 0.1277
vn 0.0232 0.9996 0.0156
vn 0.2041 0.8527 0.4809
vn 0.5218 0.6526 0.5495
vn -0.0136 0.9998 0.0135
vn -0.0086 0.9996 -0.0268
vn 0.0032 0.9998 -0.0188
vn 0.0189 0.9998 -0.0029
vn 0.0135 0.9998 0.0136
vt 1.000000 1.000000
vt 0.975000 0.500000
vt 1.000000 0.500000
vt 0.975000 1.000000
vt 0.950000 0.500000
vt 0.925000 1.000000
vt 0.925000 0.500000
vt 0.900000 0.500000
vt 0.900000 1.000000
vt 0.875000 0.500000
vt 0.850000 1.000000
vt 0.850000 0.500000
vt 0.825000 0.500000
vt 0.825000 1.000000
vt 0.800000 0.500000
vt 0.800000 1.000000
vt 0.775000 0.500000
vt 0.775000 1.000000
vt 0.750000 0.500000
vt 0.750000 1.000000
vt 0.725000 0.500000
vt 0.725000 1.000000
vt 0.700000 0.500000
vt 0.700000 1.000000
vt 0.675000 0.500000
vt 0.675000 1.000000
vt 0.650000 0.500000
vt 0.650000 1.000000
vt 0.625000 0.500000
vt 0.625000 1.000000
vt 0.600000 0.500000
vt 0.600000 1.000000
vt 0.575000 0.500000
vt 0.575000 1.000000
vt 0.550000 0.500000
vt 0.525000 1.000000
vt 0.525000 0.500000
vt 0.500000 0.500000
vt 0.500000 1.000000
vt 0.475000 0.500000
vt 0.450000 1.000000
vt 0.450000 0.500000
vt 0.425000 0.500000
vt 0.425000 1.000000
vt 0.400000 0.500000
vt 0.400000 1.000000
vt 0.375000 0.500000
vt 0.375000 1.000000
vt 0.350000 0.500000
vt 0.350000 1.000000
vt 0.325000 0.500000
vt 0.325000 1.000000
vt 0.300000 0.500000
vt 0.300000 1.000000
vt 0.275000 0.500000
vt 0.250000 1.000000
vt 0.250000 0.500000
vt 0.225000 0.500000
vt 0.225000 1.000000
vt 0.200000 0.500000
vt 0.200000 1.000000
vt 0.175000 0.500000
vt 0.175000 1.000000
vt 0.150000 0.500000
vt 0.150000 1.000000
vt 0.125000 0.500000
vt 0.100000 1.000000
vt 0.100000 0.500000
vt 0.075000 0.500000
vt 0.075000 1.000000
vt 0.050000 0.500000
vt 0.055836 0.108932
vt 0.490000 0.250000
vt 0.324164 0.478254
vt 0.050000 1.000000
vt 0.025000 0.500000
vt 0.025000 1.000000
vt 0.000000 0.500000
vt 0.919706 0.080294
vt 0.512955 0.287544
vt 0.712456 0.487045
vt 0.000000 0.000000
vt 0.185606 0.685237
vt 0.162413 0.645089
vt 0.185606 0.645089
vt 0.185606 0.750000
vt 0.161832 0.686243
vt 0.125000 0.645089
vt 0.150615 0.750000
vt 0.125000 0.684155
vt 0.404630 0.962587
vt 0.393291 0.939394
vt 0.404630 0.939394
vt 0.404630 1.000000
vt 0.393007 0.963168
vt 0.375000 0.939394
vt 0.387523 1.000000
vt 0.375000 0.961962
vt 0.393291 0.104911
vt 0.404630 0.064763
vt 0.404630 0.104911
vt 0.375000 0.104911
vt 0.393007 0.063757
vt 0.404630 0.000000
vt 0.375000 0.044340
vt 0.393596 0.000000
vt 0.606709 0.939394
vt 0.595370 0.962587
vt 0.595370 0.939394
vt 0.625000 0.939394
vt 0.606993 0.963168
vt 0.595370 1.000000
vt 0.625000 0.974385
vt 0.606404 1.000000
vt 0.837587 0.645089
vt 0.814394 0.685237
vt 0.814394 0.645089
vt 0.875000 0.645089
vt 0.838168 0.686243
vt 0.814394 0.750000
vt 0.875000 0.705660
vt 0.836962 0.750000
vt 0.595370 0.064763
vt 0.606709 0.104911
vt 0.595370 0.104911
vt 0.595370 0.000000
vt 0.606993 0.063757
vt 0.625000 0.104911
vt 0.612477 0.000000
vt 0.625000 0.065845
vt 0.162413 0.604911
vt 0.185606 0.564763
vt 0.185606 0.604911
vt 0.125000 0.604911
vt 0.161832 0.563757
vt 0.185606 0.500000
vt 0.125000 0.544340
vt 0.163038 0.500000
vt 0.404630 0.185237
vt 0.393291 0.145089
vt 0.404630 0.145089
vt 0.404630 0.250000
vt 0.393007 0.186243
vt 0.375000 0.145089
vt 0.381261 0.262808
vt 0.375000 0.184155
vt 0.393291 0.310606
vt 0.404630 0.287413
vt 0.404630 0.310606
vt 0.375000 0.310606
vt 0.393007 0.286832
vt 0.393596 0.250000
vt 0.814394 0.564763
vt 0.837587 0.604911
vt 0.814394 0.604911
vt 0.814394 0.500000
vt 0.838168 0.563757
vt 0.875000 0.604911
vt 0.849385 0.500000
vt 0.875000 0.565845
vt 0.595370 0.287413
vt 0.606709 0.310606
vt 0.595370 0.310606
vt 0.595370 0.250000
vt 0.606993 0.286832
vt 0.625000 0.310606
vt 0.618739 0.227830
vt 0.625000 0.288038
vt 0.606709 0.145089
vt 0.595370 0.185237
vt 0.595370 0.145089
vt 0.625000 0.145089
vt 0.606993 0.186243
vt 0.606404 0.250000
vt 0.337587 0.645089
vt 0.314394 0.685237
vt 0.314394 0.645089
vt 0.375000 0.645089
vt 0.338168 0.686243
vt 0.344697 0.780303
vt 0.379174 0.743758
vt 0.355981 0.769019
vt 0.404630 0.685237
vt 0.393291 0.645089
vt 0.404630 0.645089
vt 0.404630 0.750000
vt 0.393007 0.686243
vt 0.375000 0.684155
vt 0.393291 0.810606
vt 0.404630 0.787413
vt 0.404630 0.810606
vt 0.393007 0.786832
vt 0.393596 0.750000
vt 0.685606 0.685237
vt 0.662413 0.645089
vt 0.685606 0.645089
vt 0.655303 0.780303
vt 0.661832 0.686243
vt 0.625000 0.645089
vt 0.629364 0.735220
vt 0.625000 0.684155
vt 0.595370 0.787413
vt 0.606709 0.810606
vt 0.595370 0.810606
vt 0.595370 0.750000
vt 0.606993 0.786832
vt 0.644019 0.769019
vt 0.606709 0.645089
vt 0.595370 0.685237
vt 0.595370 0.645089
vt 0.606993 0.686243
vt 0.606404 0.750000
vt 0.314394 0.564763
vt 0.337587 0.604911
vt 0.314394 0.604911
vt 0.344697 0.469697
vt 0.338168 0.563757
vt 0.375000 0.604911
vt 0.370636 0.514780
vt 0.375000 0.565845
vt 0.404630 0.462587
vt 0.393291 0.439394
vt 0.404630 0.439394
vt 0.404630 0.500000
vt 0.393007 0.463168
vt 0.355981 0.480981
vt 0.393291 0.604911
vt 0.404630 0.564763
vt 0.404630 0.604911
vt 0.393007 0.563757
vt 0.393596 0.500000
vt 0.662413 0.604911
vt 0.685606 0.564763
vt 0.685606 0.604911
vt 0.625000 0.604911
vt 0.661832 0.563757
vt 0.655303 0.469697
vt 0.620826 0.506242
vt 0.644019 0.480981
vt 0.595370 0.564763
vt 0.606709 0.604911
vt 0.595370 0.604911
vt 0.595370 0.500000
vt 0.606993 0.563757
vt 0.625000 0.565845
vt 0.606709 0.439394
vt 0.595370 0.462587
vt 0.595370 0.439394
vt 0.606993 0.463168
vt 0.606404 0.500000
vt 0.950000 1.000000
vt 0.875000 1.000000
vt 0.550000 1.000000
vt 0.475000 1.000000
vt 0.275000 1.000000
vt 0.125000 1.000000
vt 0.287544 0.487045
vt 0.250000 0.490000
vt 0.212456 0.487045
vt 0.175836 0.478254
vt 0.141042 0.463842
vt 0.108932 0.444164
vt 0.080294 0.419706
vt 0.055836 0.391068
vt 0.036158 0.358958
vt 0.021746 0.324164
vt 0.012955 0.287544
vt 0.010000 0.250000
vt 0.012955 0.212456
vt 0.021746 0.175836
vt 0.036158 0.141042
vt 0.080294 0.080294
vt 0.108932 0.055836
vt 0.141042 0.036158
vt 0.175836 0.021746
vt 0.212456 0.012955
vt 0.250000 0.010000
vt 0.287544 0.012955
vt 0.324164 0.021746
vt 0.358958 0.036158
vt 0.391068 0.055836
vt 0.419706 0.080294
vt 0.444164 0.108932
vt 0.463842 0.141042
vt 0.478254 0.175836
vt 0.487045 0.212456
vt 0.487045 0.287544
vt 0.478254 0.324164
vt 0.463842 0.358958
vt 0.444164 0.391068
vt 0.419706 0.419706
vt 0.391068 0.444164
vt 0.358958 0.463842
vt 0.000000 1.000000
vt 0.750000 0.490000
vt 0.787544 0.487045
vt 0.824164 0.478254
vt 0.858958 0.463842
vt 0.891068 0.444164
vt 0.919706 0.419706
vt 0.944164 0.391068
vt 0.963842 0.358958
vt 0.978254 0.324164
vt 0.987045 0.287544
vt 0.990000 0.250000
vt 0.987045 0.212456
vt 0.978254 0.175836
vt 0.963842 0.141042
vt 0.944164 0.108932
vt 0.891068 0.055836
vt 0.858958 0.036158
vt 0.824164 0.021746
vt 0.787544 0.012955
vt 0.750000 0.010000
vt 0.712456 0.012955
vt 0.675836 0.021746
vt 0.641042 0.036158
vt 0.608932 0.055836
vt 0.580294 0.080294
vt 0.555836 0.108932
vt 0.536158 0.141042
vt 0.521746 0.175836
vt 0.512955 0.212456
vt 0.510000 0.250000
vt 0.521746 0.324164
vt 0.536158 0.358958
vt 0.555836 0.391068
vt 0.580294 0.419706
vt 0.608932 0.444164
vt 0.641042 0.463842
vt 0.675836 0.478254
vt 0.163038 0.750000
vt 0.393596 1.000000
vt 0.375000 0.065845
vt 0.625000 0.961962
vt 0.875000 0.684155
vt 0.606403 0.000000
vt 0.125000 0.565845
vt 0.375000 0.288038
vt 0.836962 0.500000
vt 0.625000 0.184155
s 1
usemtl knob_3_black
f 2/1/1 3/2/2 1/3/3
f 4/4/4 5/5/5 3/2/2
f 5/5/5 8/6/6 7/7/7
f 8/6/6 9/8/8 7/7/7
f 10/9/9 11/10/10 9/8/8
f 11/10/10 14/11/11 13/12/12
f 14/11/11 15/13/13 13/12/12
f 16/14/14 17/15/15 15/13/13
f 18/16/16 19/17/17 17/15/15
f 20/18/18 21/19/19 19/17/17
f 22/20/20 23/21/21 21/19/19
f 24/22/22 25/23/23 23/21/21
f 26/24/24 27/25/25 25/23/23
f 28/26/26 29/27/27 27/25/25
f 30/28/28 31/29/29 29/27/27
f 32/30/30 33/31/31 31/29/29
f 34/32/32 35/33/33 33/31/31
f 36/34/34 37/35/35 35/33/33
f 37/35/35 40/36/36 39/37/37
f 40/36/36 41/38/38 39/37/37
f 42/39/39 43/40/40 41/38/38
f 43/40/40 46/41/41 45/42/42
f 46/41/41 47/43/43 45/42/42
f 48/44/44 49/45/45 47/43/43
f 50/46/46 51/47/47 49/45/45
f 52/48/48 53/49/49 51/47/47
f 54/50/50 55/51/51 53/49/49
f 56/52/52 57/53/53 55/51/51
f 58/54/54 59/55/55 57/53/53
f 59/55/55 62/56/56 61/57/57
f 62/56/56 63/58/58 61/57/57
f 64/59/59 65/60/60 63/58/58
f 66/61/61 67/62/62 65/60/60
f 68/63/63 69/64/64 67/62/62
f 70/65/65 71/66/66 69/64/64
f 71/66/66 74/67/67 73/68/68
f 74/67/67 75/69/69 73/68/68
f 76/70/70 77/71/71 75/69/69
f 54/72/50 22/73/20 6/74/72
f 78/75/73 79/76/74 77/71/71
f 80/77/75 1/78/3 79/76/74
f 31/79/29 63/80/58 79/81/74
f 81/82/76 82/82/77 114/82/78
f 81/82/76 114/82/78 113/82/79
f 82/82/77 83/82/80 115/82/81
f 82/82/77 115/82/81 114/82/78
f 83/82/80 84/82/82 116/82/83
f 83/82/80 116/82/83 115/82/81
f 84/82/82 85/82/84 117/82/85
f 84/82/82 117/82/85 116/82/83
f 85/82/84 86/82/86 118/82/87
f 85/82/84 118/82/87 117/82/85
f 86/82/86 87/82/88 119/82/89
f 86/82/86 119/82/89 118/82/87
f 87/82/88 88/82/90 120/82/91
f 87/82/88 120/82/91 119/82/89
f 88/82/90 89/82/92 121/82/93
f 88/82/90 121/82/93 120/82/91
f 89/82/92 90/82/94 122/82/95
f 89/82/92 122/82/95 121/82/93
f 90/82/94 91/82/96 123/82/97
f 90/82/94 123/82/97 122/82/95
f 91/82/96 92/82/98 124/82/99
f 91/82/96 124/82/99 123/82/97
f 92/82/98 93/82/100 125/82/101
f 92/82/98 125/82/101 124/82/99
f 93/82/100 94/82/102 126/82/103
f 93/82/100 126/82/103 125/82/101
f 94/82/102 95/82/104 127/82/105
f 94/82/102 127/82/105 126/82/103
f 95/82/104 96/82/106 128/82/107
f 95/82/104 128/82/107 127/82/105
f 96/82/106 97/82/108 129/82/109
f 96/82/106 129/82/109 128/82/107
f 97/82/108 98/82/110 130/82/111
f 97/82/108 130/82/111 129/82/109
f 98/82/110 99/82/112 131/82/113
f 98/82/110 131/82/113 130/82/111
f 99/82/112 100/82/114 132/82/115
f 99/82/112 132/82/115 131/82/113
f 100/82/114 101/82/116 133/82/117
f 100/82/114 133/82/117 132/82/115
f 101/82/116 102/82/118 134/82/119
f 101/82/116 134/82/119 133/82/117
f 102/82/118 103/82/120 135/82/121
f 102/82/118 135/82/121 134/82/119
f 103/82/120 104/82/122 136/82/123
f 103/82/120 136/82/123 135/82/121
f 104/82/122 105/82/124 137/82/125
f 104/82/122 137/82/125 136/82/123
f 105/82/124 106/82/126 138/82/127
f 105/82/124 138/82/127 137/82/125
f 106/82/126 107/82/128 139/82/129
f 106/82/126 139/82/129 138/82/127
f 107/82/128 108/82/130 140/82/131
f 107/82/128 140/82/131 139/82/129
f 108/82/130 109/82/132 141/82/133
f 108/82/130 141/82/133 140/82/131
f 109/82/132 110/82/134 142/82/135
f 109/82/132 142/82/135 141/82/133
f 110/82/134 111/82/136 143/82/137
f 110/82/134 143/82/137 142/82/135
f 111/82/136 112/82/138 144/82/139
f 111/82/136 144/82/139 143/82/137
f 112/82/138 81/82/76 113/82/79
f 112/82/138 113/82/79 144/82/139
f 145/82/140 82/82/77 81/82/76
f 113/82/79 114/82/78 146/82/141
f 145/82/140 83/82/80 82/82/77
f 114/82/78 115/82/81 146/82/141
f 145/82/140 84/82/82 83/82/80
f 115/82/81 116/82/83 146/82/141
f 145/82/140 85/82/84 84/82/82
f 116/82/83 117/82/85 146/82/141
f 145/82/140 86/82/86 85/82/84
f 117/82/85 118/82/87 146/82/141
f 145/82/140 87/82/88 86/82/86
f 118/82/87 119/82/89 146/82/141
f 145/82/140 88/82/90 87/82/88
f 119/82/89 120/82/91 146/82/141
f 145/82/140 89/82/92 88/82/90
f 120/82/91 121/82/93 146/82/141
f 145/82/140 90/82/94 89/82/92
f 121/82/93 122/82/95 146/82/141
f 145/82/140 91/82/96 90/82/94
f 122/82/95 123/82/97 146/82/141
f 145/82/140 92/82/98 91/82/96
f 123/82/97 124/82/99 146/82/141
f 145/82/140 93/82/100 92/82/98
f 124/82/99 125/82/101 146/82/141
f 145/82/140 94/82/102 93/82/100
f 125/82/101 126/82/103 146/82/141
f 145/82/140 95/82/104 94/82/102
f 126/82/103 127/82/105 146/82/141
f 145/82/140 96/82/106 95/82/104
f 127/82/105 128/82/107 146/82/141
f 145/82/140 97/82/108 96/82/106
f 128/82/107 129/82/109 146/82/141
f 145/82/140 98/82/110 97/82/108
f 129/82/109 130/82/111 146/82/141
f 145/82/140 99/82/112 98/82/110
f 130/82/111 131/82/113 146/82/141
f 145/82/140 100/82/114 99/82/112
f 131/82/113 132/82/115 146/82/141
f 145/82/140 101/82/116 100/82/114
f 132/82/115 133/82/117 146/82/141
f 145/82/140 102/82/118 101/82/116
f 133/82/117 134/82/119 146/82/141
f 145/82/140 103/82/120 102/82/118
f 134/82/119 135/82/121 146/82/141
f 145/82/140 104/82/122 103/82/120
f 135/82/121 136/82/123 146/82/141
f 145/82/140 105/82/124 104/82/122
f 136/82/123 137/82/125 146/82/141
f 145/82/140 106/82/126 105/82/124
f 137/82/125 138/82/127 146/82/141
f 145/82/140 107/82/128 106/82/126
f 138/82/127 139/82/129 146/82/141
f 145/82/140 108/82/130 107/82/128
f 139/82/129 140/82/131 146/82/141
f 145/82/140 109/82/132 108/82/130
f 140/82/131 141/82/133 146/82/141
f 145/82/140 110/82/134 109/82/132
f 141/82/133 142/82/135 146/82/141
f 145/82/140 111/82/136 110/82/134
f 142/82/135 143/82/137 146/82/141
f 145/82/140 112/82/138 111/82/136
f 143/82/137 144/82/139 146/82/141
f 145/82/140 81/82/76 112/82/138
f 144/82/139 113/82/79 146/82/141
f 150/83/142 152/84/143 147/85/144
f 151/86/145 153/87/146 150/83/142
f 153/87/146 162/88/147 152/84/143
f 153/87/146 155/89/148 165/90/149
f 156/91/150 158/92/151 148/93/152
f 157/94/153 159/95/154 156/91/150
f 159/95/154 151/96/145 158/92/151
f 159/95/154 155/97/148 154/98/155
f 161/99/156 163/100/157 149/101/158
f 162/102/147 164/103/159 161/99/156
f 164/103/159 157/104/153 163/100/157
f 164/103/159 155/105/148 160/106/160
f 169/107/161 171/108/162 166/109/163
f 170/110/164 172/111/165 169/107/161
f 172/111/165 181/112/166 171/108/162
f 172/111/165 174/113/167 184/114/168
f 175/115/169 177/116/170 167/117/171
f 176/118/172 178/119/173 175/115/169
f 178/119/173 170/120/164 177/116/170
f 178/119/173 174/121/167 173/122/174
f 180/123/175 182/124/176 168/125/177
f 181/126/166 183/127/178 180/123/175
f 183/127/178 176/128/172 182/124/176
f 183/127/178 174/129/167 179/130/179
f 188/131/180 190/132/181 185/133/182
f 189/134/183 191/135/184 188/131/180
f 191/135/184 200/136/185 190/132/181
f 191/135/184 193/137/186 203/138/187
f 194/139/188 196/140/189 186/141/190
f 195/142/191 197/143/192 194/139/188
f 197/143/192 189/144/183 196/140/189
f 197/143/192 193/145/186 192/146/193
f 199/147/194 201/148/195 187/149/196
f 200/150/185 202/151/197 199/147/194
f 202/151/197 195/142/191 201/148/195
f 202/151/197 193/145/186 198/152/198
f 207/153/199 209/154/200 204/155/201
f 208/156/202 210/157/203 207/153/199
f 210/157/203 219/158/204 209/154/200
f 210/157/203 212/159/205 222/160/206
f 213/161/207 215/162/208 205/163/209
f 214/164/210 216/165/211 213/161/207
f 216/165/211 208/166/202 215/162/208
f 216/165/211 212/167/205 211/168/212
f 218/169/213 220/170/214 206/171/215
f 219/172/204 221/173/216 218/169/213
f 221/173/216 214/164/210 220/170/214
f 221/173/216 212/167/205 217/174/217
f 226/175/218 228/176/219 223/177/220
f 227/178/221 229/179/222 226/175/218
f 229/179/222 238/180/223 228/176/219
f 229/179/222 231/181/224 241/182/225
f 232/183/226 234/184/227 224/185/228
f 233/186/229 235/187/230 232/183/226
f 235/187/230 227/178/221 234/184/227
f 235/187/230 231/181/224 230/188/231
f 237/189/232 239/190/233 225/191/234
f 238/180/223 240/192/235 237/189/232
f 240/192/235 233/186/229 239/190/233
f 240/192/235 231/181/224 236/193/236
f 245/194/237 247/195/238 242/196/239
f 246/197/240 248/198/241 245/194/237
f 248/198/241 257/199/242 247/195/238
f 248/198/241 250/200/243 260/201/244
f 251/202/245 253/203/246 243/204/247
f 252/205/248 254/206/249 251/202/245
f 254/206/249 246/197/240 253/203/246
f 254/206/249 250/200/243 249/207/250
f 256/208/251 258/209/252 244/210/253
f 257/199/242 259/211/254 256/208/251
f 259/211/254 252/205/248 258/209/252
f 259/211/254 250/200/243 255/212/255
f 264/213/256 266/214/257 261/215/258
f 265/216/259 267/217/260 264/213/256
f 267/217/260 276/218/261 266/214/257
f 267/217/260 269/219/262 279/220/263
f 270/221/264 272/222/265 262/223/266
f 271/224/267 273/225/268 270/221/264
f 273/225/268 265/216/259 272/222/265
f 273/225/268 269/219/262 268/226/269
f 275/227/270 277/228/271 263/229/272
f 276/218/261 278/230/273 275/227/270
f 278/230/273 271/224/267 277/228/271
f 278/230/273 269/219/262 274/231/274
f 283/232/275 285/233/276 280/234/277
f 284/235/278 286/236/279 283/232/275
f 286/236/279 295/237/280 285/233/276
f 286/236/279 288/238/281 298/239/282
f 289/240/283 291/241/284 281/242/285
f 290/243/286 292/244/287 289/240/283
f 292/244/287 284/235/278 291/241/284
f 292/244/287 288/238/281 287/245/288
f 294/246/289 296/247/290 282/248/291
f 295/237/280 297/249/292 294/246/289
f 297/249/292 290/243/286 296/247/290
f 297/249/292 288/238/281 293/250/293
f 147/85/144 188/131/180 185/133/182
f 152/84/143 189/134/183 188/131/180
f 189/144/183 161/99/156 196/140/189
f 161/99/156 186/141/190 196/140/189
f 148/93/152 171/108/162 156/91/150
f 171/108/162 157/94/153 156/91/150
f 157/104/153 180/123/175 163/100/157
f 180/123/175 149/101/158 163/100/157
f 167/117/171 209/154/200 175/115/169
f 209/154/200 176/118/172 175/115/169
f 219/172/204 182/124/176 176/128/172
f 218/169/213 168/125/177 182/124/176
f 205/163/209 201/148/195 213/161/207
f 201/148/195 214/164/210 213/161/207
f 195/142/191 220/170/214 214/164/210
f 194/139/188 206/171/215 220/170/214
f 185/133/182 264/213/256 261/215/258
f 190/132/181 265/216/259 264/213/256
f 200/150/185 272/222/265 265/216/259
f 199/147/194 262/223/266 272/222/265
f 280/234/277 207/153/199 204/155/201
f 285/233/276 208/156/202 207/153/199
f 295/237/280 215/162/208 208/166/202
f 294/246/289 205/163/209 215/162/208
f 263/229/272 289/240/283 281/242/285
f 277/228/271 290/243/286 289/240/283
f 271/224/267 296/247/290 290/243/286
f 296/247/290 262/223/266 282/248/291
f 223/177/220 266/214/257 226/175/218
f 266/214/257 227/178/221 226/175/218
f 276/218/261 234/184/227 227/178/221
f 275/227/270 224/185/228 234/184/227
f 242/196/239 283/232/275 280/234/277
f 247/195/238 284/235/278 283/232/275
f 284/235/278 256/208/251 291/241/284
f 256/208/251 281/242/285 291/241/284
f 243/204/247 239/190/233 251/202/245
f 239/190/233 252/205/248 251/202/245
f 252/205/248 232/183/226 258/209/252
f 232/183/226 244/210/253 258/209/252
f 147/85/144 228/176/219 150/83/142
f 228/176/219 151/86/145 150/83/142
f 238/180/223 158/92/151 151/96/145
f 158/92/151 225/191/234 148/93/152
f 242/196/239 177/116/170 245/194/237
f 177/116/170 246/197/240 245/194/237
f 170/110/164 253/203/246 246/197/240
f 253/203/246 166/109/163 243/204/247
f 261/215/258 147/85/144 185/133/182
f 168/125/177 186/141/190 149/101/158
f 225/191/234 166/109/163 148/93/152
f 204/155/201 242/196/239 280/234/277
f 187/149/196 282/248/291 262/223/266
f 281/242/285 224/185/228 263/229/272
f 2/1/1 4/4/4 3/2/2
f 4/4/4 6/251/72 5/5/5
f 5/5/5 6/251/72 8/6/6
f 8/6/6 10/9/9 9/8/8
f 10/9/9 12/252/294 11/10/10
f 11/10/10 12/252/294 14/11/11
f 14/11/11 16/14/14 15/13/13
f 16/14/14 18/16/16 17/15/15
f 18/16/16 20/18/18 19/17/17
f 20/18/18 22/20/20 21/19/19
f 22/20/20 24/22/22 23/21/21
f 24/22/22 26/24/24 25/23/23
f 26/24/24 28/26/26 27/25/25
f 28/26/26 30/28/28 29/27/27
f 30/28/28 32/30/30 31/29/29
f 32/30/30 34/32/32 33/31/31
f 34/32/32 36/34/34 35/33/33
f 36/34/34 38/253/295 37/35/35
f 37/35/35 38/253/295 40/36/36
f 40/36/36 42/39/39 41/38/38
f 42/39/39 44/254/296 43/40/40
f 43/40/40 44/254/296 46/41/41
f 46/41/41 48/44/44 47/43/43
f 48/44/44 50/46/46 49/45/45
f 50/46/46 52/48/48 51/47/47
f 52/48/48 54/50/50 53/49/49
f 54/50/50 56/52/52 55/51/51
f 56/52/52 58/54/54 57/53/53
f 58/54/54 60/255/297 59/55/55
f 59/55/55 60/255/297 62/56/56
f 62/56/56 64/59/59 63/58/58
f 64/59/59 66/61/61 65/60/60
f 66/61/61 68/63/63 67/62/62
f 68/63/63 70/65/65 69/64/64
f 70/65/65 72/256/298 71/66/66
f 71/66/66 72/256/298 74/67/67
f 74/67/67 76/70/70 75/69/69
f 76/70/70 78/75/73 77/71/71
f 6/74/72 4/257/4 2/258/1
f 2/258/1 80/259/75 78/260/73
f 78/260/73 76/261/70 74/262/67
f 74/262/67 72/263/298 70/264/65
f 70/264/65 68/265/63 66/266/61
f 66/266/61 64/267/59 62/268/56
f 62/268/56 60/269/297 58/270/54
f 58/270/54 56/271/52 54/72/50
f 54/72/50 52/272/48 50/273/46
f 50/273/46 48/274/44 46/275/41
f 46/275/41 44/276/296 42/277/39
f 42/277/39 40/278/36 38/279/295
f 38/279/295 36/280/34 34/281/32
f 34/281/32 32/282/30 30/283/28
f 30/283/28 28/284/26 26/285/24
f 26/285/24 24/286/22 22/73/20
f 22/73/20 20/287/18 18/288/16
f 18/288/16 16/289/14 14/290/11
f 14/290/11 12/291/294 10/292/9
f 10/292/9 8/293/6 6/74/72
f 6/74/72 2/258/1 78/260/73
f 78/260/73 74/262/67 70/264/65
f 70/264/65 66/266/61 62/268/56
f 62/268/56 58/270/54 54/72/50
f 54/72/50 50/273/46 46/275/41
f 46/275/41 42/277/39 38/279/295
f 38/279/295 34/281/32 30/283/28
f 30/283/28 26/285/24 22/73/20
f 22/73/20 18/288/16 14/290/11
f 14/290/11 10/292/9 6/74/72
f 6/74/72 78/260/73 70/264/65
f 70/264/65 62/268/56 54/72/50
f 54/72/50 46/275/41 38/279/295
f 38/279/295 30/283/28 22/73/20
f 22/73/20 14/290/11 6/74/72
f 6/74/72 70/264/65 54/72/50
f 54/72/50 38/279/295 22/73/20
f 78/75/73 80/77/75 79/76/74
f 80/77/75 2/294/1 1/78/3
f 79/81/74 1/295/3 3/296/2
f 3/296/2 5/297/5 7/298/7
f 7/298/7 9/299/8 11/300/10
f 11/300/10 13/301/12 15/302/13
f 15/302/13 17/303/15 19/304/17
f 19/304/17 21/305/19 23/306/21
f 23/306/21 25/307/23 27/308/25
f 27/308/25 29/309/27 31/79/29
f 31/79/29 33/310/31 35/311/33
f 35/311/33 37/312/35 39/313/37
f 39/313/37 41/314/38 43/315/40
f 43/315/40 45/316/42 47/317/43
f 47/317/43 49/318/45 51/319/47
f 51/319/47 53/320/49 55/321/51
f 55/321/51 57/322/53 59/323/55
f 59/323/55 61/324/57 63/80/58
f 63/80/58 65/325/60 67/326/62
f 67/326/62 69/327/64 71/328/66
f 71/328/66 73/329/68 75/330/69
f 75/330/69 77/331/71 79/81/74
f 79/81/74 3/296/2 7/298/7
f 7/298/7 11/300/10 15/302/13
f 15/302/13 19/304/17 23/306/21
f 23/306/21 27/308/25 31/79/29
f 31/79/29 35/311/33 39/313/37
f 39/313/37 43/315/40 47/317/43
f 47/317/43 51/319/47 55/321/51
f 55/321/51 59/323/55 63/80/58
f 63/80/58 67/326/62 71/328/66
f 71/328/66 75/330/69 79/81/74
f 79/81/74 7/298/7 15/302/13
f 15/302/13 23/306/21 31/79/29
f 31/79/29 39/313/37 47/317/43
f 47/317/43 55/321/51 63/80/58
f 63/80/58 71/328/66 79/81/74
f 79/81/74 15/302/13 31/79/29
f 31/79/29 47/317/43 63/80/58
f 150/83/142 153/87/146 152/84/143
f 151/86/145 154/332/155 153/87/146
f 153/87/146 165/90/149 162/88/147
f 153/87/146 154/332/155 155/89/148
f 156/91/150 159/95/154 158/92/151
f 157/94/153 160/333/160 159/95/154
f 159/95/154 154/98/155 151/96/145
f 159/95/154 160/333/160 155/97/148
f 161/99/156 164/103/159 163/100/157
f 162/102/147 165/334/149 164/103/159
f 164/103/159 160/106/160 157/104/153
f 164/103/159 165/334/149 155/105/148
f 169/107/161 172/111/165 171/108/162
f 170/110/164 173/335/174 172/111/165
f 172/111/165 184/114/168 181/112/166
f 172/111/165 173/335/174 174/113/167
f 175/115/169 178/119/173 177/116/170
f 176/118/172 179/336/179 178/119/173
f 178/119/173 173/122/174 170/120/164
f 178/119/173 179/336/179 174/121/167
f 180/123/175 183/127/178 182/124/176
f 181/126/166 184/337/168 183/127/178
f 183/127/178 179/130/179 176/128/172
f 183/127/178 184/337/168 174/129/167
f 188/131/180 191/135/184 190/132/181
f 189/134/183 192/338/193 191/135/184
f 191/135/184 203/138/187 200/136/185
f 191/135/184 192/338/193 193/137/186
f 194/139/188 197/143/192 196/140/189
f 195/142/191 198/152/198 197/143/192
f 197/143/192 192/146/193 189/144/183
f 197/143/192 198/152/198 193/145/186
f 199/147/194 202/151/197 201/148/195
f 200/150/185 203/339/187 202/151/197
f 202/151/197 198/152/198 195/142/191
f 202/151/197 203/339/187 193/145/186
f 207/153/199 210/157/203 209/154/200
f 208/156/202 211/340/212 210/157/203
f 210/157/203 222/160/206 219/158/204
f 210/157/203 211/340/212 212/159/205
f 213/161/207 216/165/211 215/162/208
f 214/164/210 217/174/217 216/165/211
f 216/165/211 211/168/212 208/166/202
f 216/165/211 217/174/217 212/167/205
f 218/169/213 221/173/216 220/170/214
f 219/172/204 222/341/206 221/173/216
f 221/173/216 217/174/217 214/164/210
f 221/173/216 222/341/206 212/167/205
f 226/175/218 229/179/222 228/176/219
f 227/178/221 230/188/231 229/179/222
f 229/179/222 241/182/225 238/180/223
f 229/179/222 230/188/231 231/181/224
f 232/183/226 235/187/230 234/184/227
f 233/186/229 236/193/236 235/187/230
f 235/187/230 230/188/231 227/178/221
f 235/187/230 236/193/236 231/181/224
f 237/189/232 240/192/235 239/190/233
f 238/180/223 241/182/225 240/192/235
f 240/192/235 236/193/236 233/186/229
f 240/192/235 241/182/225 231/181/224
f 245/194/237 248/198/241 247/195/238
f 246/197/240 249/207/250 248/198/241
f 248/198/241 260/201/244 257/199/242
f 248/198/241 249/207/250 250/200/243
f 251/202/245 254/206/249 253/203/246
f 252/205/248 255/212/255 254/206/249
f 254/206/249 249/207/250 246/197/240
f 254/206/249 255/212/255 250/200/243
f 256/208/251 259/211/254 258/209/252
f 257/199/242 260/201/244 259/211/254
f 259/211/254 255/212/255 252/205/248
f 259/211/254 260/201/244 250/200/243
f 264/213/256 267/217/260 266/214/257
f 265/216/259 268/226/269 267/217/260
f 267/217/260 279/220/263 276/218/261
f 267/217/260 268/226/269 269/219/262
f 270/221/264 273/225/268 272/222/265
f 271/224/267 274/231/274 273/225/268
f 273/225/268 268/226/269 265/216/259
f 273/225/268 274/231/274 269/219/262
f 275/227/270 278/230/273 277/228/271
f 276/218/261 279/220/263 278/230/273
f 278/230/273 274/231/274 271/224/267
f 278/230/273 279/220/263 269/219/262
f 283/232/275 286/236/279 285/233/276
f 284/235/278 287/245/288 286/236/279
f 286/236/279 298/239/282 295/237/280
f 286/236/279 287/245/288 288/238/281
f 289/240/283 292/244/287 291/241/284
f 290/243/286 293/250/293 292/244/287
f 292/244/287 287/245/288 284/235/278
f 292/244/287 293/250/293 288/238/281
f 294/246/289 297/249/292 296/247/290
f 295/237/280 298/239/282 297/249/292
f 297/249/292 293/250/293 290/243/286
f 297/249/292 298/239/282 288/238/281
f 147/85/144 152/84/143 188/131/180
f 152/84/143 162/88/147 189/134/183
f 189/144/183 162/102/147 161/99/156
f 161/99/156 149/101/158 186/141/190
f 148/93/152 166/109/163 171/108/162
f 171/108/162 181/112/166 157/94/153
f 157/104/153 181/126/166 180/123/175
f 180/123/175 168/125/177 149/101/158
f 167/117/171 204/155/201 209/154/200
f 209/154/200 219/158/204 176/118/172
f 219/172/204 218/169/213 182/124/176
f 218/169/213 206/171/215 168/125/177
f 205/163/209 187/149/196 201/148/195
f 201/148/195 195/142/191 214/164/210
f 195/142/191 194/139/188 220/170/214
f 194/139/188 186/141/190 206/171/215
f 185/133/182 190/132/181 264/213/256
f 190/132/181 200/136/185 265/216/259
f 200/150/185 199/147/194 272/222/265
f 199/147/194 187/149/196 262/223/266
f 280/234/277 285/233/276 207/153/199
f 285/233/276 295/237/280 208/156/202
f 295/237/280 294/246/289 215/162/208
f 294/246/289 282/248/291 205/163/209
f 263/229/272 277/228/271 289/240/283
f 277/228/271 271/224/267 290/243/286
f 271/224/267 270/221/264 296/247/290
f 296/247/290 270/221/264 262/223/266
f 223/177/220 261/215/258 266/214/257
f 266/214/257 276/218/261 227/178/221
f 276/218/261 275/227/270 234/184/227
f 275/227/270 263/229/272 224/185/228
f 242/196/239 247/195/238 283/232/275
f 247/195/238 257/199/242 284/235/278
f 284/235/278 257/199/242 256/208/251
f 256/208/251 244/210/253 281/242/285
f 243/204/247 225/191/234 239/190/233
f 239/190/233 233/186/229 252/205/248
f 252/205/248 233/186/229 232/183/226
f 232/183/226 224/185/228 244/210/253
f 147/85/144 223/177/220 228/176/219
f 228/176/219 238/180/223 151/86/145
f 238/180/223 237/189/232 158/92/151
f 158/92/151 237/189/232 225/191/234
f 242/196/239 167/117/171 177/116/170
f 177/116/170 170/120/164 246/197/240
f 170/110/164 169/107/161 253/203/246
f 253/203/246 169/107/161 166/109/163
f 261/215/258 223/177/220 147/85/144
f 168/125/177 206/171/215 186/141/190
f 225/191/234 243/204/247 166/109/163
f 204/155/201 167/117/171 242/196/239
f 187/149/196 205/163/209 282/248/291
f 281/242/285 244/210/253 224/185/228
