# Blender 4.5.0
# www.blender.org
mtllib mesh_009.mtl
o mesh_009
v -0.020930 -0.366760 0.839940
v -0.020930 -0.361300 0.839940
v -0.022814 -0.366760 0.839692
v -0.022814 -0.361300 0.839692
v -0.024570 -0.366760 0.838965
v -0.024570 -0.361300 0.838965
v -0.026078 -0.366760 0.837808
v -0.026078 -0.361300 0.837808
v -0.027235 -0.366760 0.836300
v -0.027235 -0.361300 0.836300
v -0.027962 -0.366760 0.834544
v -0.027962 -0.361300 0.834544
v -0.028210 -0.366760 0.832660
v -0.028210 -0.361300 0.832660
v -0.027962 -0.366760 0.830776
v -0.027962 -0.361300 0.830776
v -0.027235 -0.366760 0.829020
v -0.027235 -0.361300 0.829020
v -0.026078 -0.366760 0.827512
v -0.026078 -0.361300 0.827512
v -0.024570 -0.366760 0.826355
v -0.024570 -0.361300 0.826355
v -0.022814 -0.366760 0.825628
v -0.022814 -0.361300 0.825628
v -0.020930 -0.366760 0.825380
v -0.020930 -0.361300 0.825380
v -0.019046 -0.366760 0.825628
v -0.019046 -0.361300 0.825628
v -0.017290 -0.366760 0.826355
v -0.017290 -0.361300 0.826355
v -0.015782 -0.366760 0.827512
v -0.015782 -0.361300 0.827512
v -0.014625 -0.366760 0.829020
v -0.014625 -0.361300 0.829020
v -0.013898 -0.366760 0.830776
v -0.013898 -0.361300 0.830776
v -0.013650 -0.366760 0.832660
v -0.013650 -0.361300 0.832660
v -0.013898 -0.366760 0.834544
v -0.013898 -0.361300 0.834544
v -0.014625 -0.366760 0.836300
v -0.014625 -0.361300 0.836300
v -0.015782 -0.366760 0.837808
v -0.015782 -0.361300 0.837808
v -0.017290 -0.366760 0.838965
v -0.017290 -0.361300 0.838965
v -0.019046 -0.366760 0.839692
v -0.019046 -0.361300 0.839692
vn -0.6095 0.6862 0.3971
vn -0.0292 -0.9936 0.1089
vn -0.0002 -0.9964 0.0847
vn 0.2527 0.9458 0.2038
vn -0.0424 -0.9964 0.0733
vn 0.1911 0.9459 0.2621
vn -0.0776 -0.9940 0.0776
vn 0.1170 0.9458 0.3029
vn -0.0734 -0.9964 0.0424
vn 0.0069 0.9446 0.3281
vn -0.1090 -0.9936 0.0292
vn -0.0501 0.9458 0.3208
vn -0.0847 -0.9964 -0.0000
vn -0.1552 0.9448 0.2886
vn -0.0819 -0.9964 -0.0220
vn -0.2038 0.9458 0.2527
vn -0.0733 -0.9964 -0.0424
vn -0.2807 0.9446 0.1700
vn -0.0797 -0.9936 -0.0798
vn -0.3029 0.9458 0.1169
vn -0.0423 -0.9964 -0.0734
vn -0.3228 0.9458 0.0345
vn -0.0284 -0.9940 -0.1060
vn -0.3208 0.9458 -0.0501
vn -0.0000 -0.9964 -0.0847
vn -0.2876 0.9446 -0.1581
vn 0.0292 -0.9936 -0.1089
vn -0.2529 0.9457 -0.2039
vn 0.0424 -0.9964 -0.0733
vn -0.1723 0.9448 -0.2787
vn 0.0600 -0.9964 -0.0599
vn -0.1170 0.9458 -0.3029
vn 0.0734 -0.9964 -0.0424
vn -0.0069 0.9446 -0.3281
vn 0.1090 -0.9936 -0.0292
vn 0.0502 0.9457 -0.3210
vn 0.0847 -0.9964 -0.0000
vn 0.1315 0.9458 -0.2968
vn 0.1060 -0.9940 0.0284
vn 0.2038 0.9458 -0.2527
vn 0.0733 -0.9964 0.0424
vn 0.2807 0.9446 -0.1700
vn 0.0797 -0.9936 0.0798
vn 0.3029 0.9458 -0.1169
vn 0.0423 -0.9964 0.0734
vn 0.3275 0.9448 -0.0099
vn 0.0219 -0.9964 0.0819
vn 0.7585 0.2448 0.6039
vt 1.000000 1.000000
vt 0.958333 0.500000
vt 1.000000 0.500000
vt 0.958333 1.000000
vt 0.916667 0.500000
vt 0.916667 1.000000
vt 0.875000 0.500000
vt 0.875000 1.000000
vt 0.833333 0.500000
vt 0.833333 1.000000
vt 0.791667 0.500000
vt 0.791667 1.000000
vt 0.750000 0.500000
vt 0.750000 1.000000
vt 0.708333 0.500000
vt 0.708333 1.000000
vt 0.666667 0.500000
vt 0.666667 1.000000
vt 0.625000 0.500000
vt 0.625000 1.000000
vt 0.583333 0.500000
vt 0.583333 1.000000
vt 0.541666 0.500000
vt 0.541666 1.000000
vt 0.500000 0.500000
vt 0.500000 1.000000
vt 0.458333 0.500000
vt 0.458333 1.000000
vt 0.416666 0.500000
vt 0.416666 1.000000
vt 0.375000 0.500000
vt 0.375000 1.000000
vt 0.333333 0.500000
vt 0.333333 1.000000
vt 0.291667 0.500000
vt 0.291667 1.000000
vt 0.250000 0.500000
vt 0.250000 1.000000
vt 0.208333 0.500000
vt 0.208333 1.000000
vt 0.166666 0.500000
vt 0.166666 1.000000
vt 0.125000 0.500000
vt 0.125000 1.000000
vt 0.083333 0.500000
vt 0.010000 0.250000
vt 0.370000 0.042154
vt 0.370000 0.457846
vt 0.083333 1.000000
vt 0.041666 0.500000
vt 0.041666 1.000000
vt -0.000000 0.500000
vt 0.981822 0.187883
vt 0.580294 0.080294
vt 0.687883 0.481822
vt 0.312117 0.481822
vt 0.250000 0.490000
vt 0.187883 0.481822
vt 0.130000 0.457846
vt 0.080294 0.419706
vt 0.042154 0.370000
vt 0.018178 0.312117
vt 0.018178 0.187883
vt 0.042154 0.130000
vt 0.080294 0.080294
vt 0.130000 0.042154
vt 0.187883 0.018178
vt 0.250000 0.010000
vt 0.312117 0.018178
vt 0.419706 0.080294
vt 0.457846 0.130000
vt 0.481822 0.187883
vt 0.490000 0.250000
vt 0.481822 0.312117
vt 0.457846 0.370000
vt 0.419706 0.419706
vt -0.000000 1.000000
vt 0.750000 0.490000
vt 0.812117 0.481822
vt 0.870000 0.457846
vt 0.919706 0.419706
vt 0.957846 0.370000
vt 0.981822 0.312117
vt 0.990000 0.250000
vt 0.957846 0.130000
vt 0.919706 0.080294
vt 0.870000 0.042154
vt 0.812117 0.018178
vt 0.750000 0.010000
vt 0.687883 0.018178
vt 0.630000 0.042154
vt 0.542154 0.130000
vt 0.518178 0.187883
vt 0.510000 0.250000
vt 0.518178 0.312117
vt 0.542154 0.370000
vt 0.580294 0.419706
vt 0.630000 0.457846
s 1
usemtl button_8_ivory
f 2/1/1 3/2/2 1/3/3
f 4/4/4 5/5/5 3/2/2
f 6/6/6 7/7/7 5/5/5
f 8/8/8 9/9/9 7/7/7
f 10/10/10 11/11/11 9/9/9
f 12/12/12 13/13/13 11/11/11
f 14/14/14 15/15/15 13/13/13
f 16/16/16 17/17/17 15/15/15
f 18/18/18 19/19/19 17/17/17
f 20/20/20 21/21/21 19/19/19
f 22/22/22 23/23/23 21/21/21
f 24/24/24 25/25/25 23/23/23
f 26/26/26 27/27/27 25/25/25
f 28/28/28 29/29/29 27/27/27
f 30/30/30 31/31/31 29/29/29
f 32/32/32 33/33/33 31/31/31
f 34/34/34 35/35/35 33/33/33
f 36/36/36 37/37/37 35/35/35
f 38/38/38 39/39/39 37/37/37
f 40/40/40 41/41/41 39/39/39
f 42/42/42 43/43/43 41/41/41
f 44/44/44 45/45/45 43/43/43
f 38/46/38 22/47/22 6/48/6
f 46/49/46 47/50/47 45/45/45
f 48/51/48 1/52/3 47/50/47
f 15/53/15 31/54/31 47/55/47
f 2/1/1 4/4/4 3/2/2
f 4/4/4 6/6/6 5/5/5
f 6/6/6 8/8/8 7/7/7
f 8/8/8 10/10/10 9/9/9
f 10/10/10 12/12/12 11/11/11
f 12/12/12 14/14/14 13/13/13
f 14/14/14 16/16/16 15/15/15
f 16/16/16 18/18/18 17/17/17
f 18/18/18 20/20/20 19/19/19
f 20/20/20 22/22/22 21/21/21
f 22/22/22 24/24/24 23/23/23
f 24/24/24 26/26/26 25/25/25
f 26/26/26 28/28/28 27/27/27
f 28/28/28 30/30/30 29/29/29
f 30/30/30 32/32/32 31/31/31
f 32/32/32 34/34/34 33/33/33
f 34/34/34 36/36/36 35/35/35
f 36/36/36 38/38/38 37/37/37
f 38/38/38 40/40/40 39/39/39
f 40/40/40 42/42/42 41/41/41
f 42/42/42 44/44/44 43/43/43
f 44/44/44 46/49/46 45/45/45
f 6/48/6 4/56/4 2/57/1
f 2/57/1 48/58/48 46/59/46
f 46/59/46 44/60/44 42/61/42
f 42/61/42 40/62/40 38/46/38
f 38/46/38 36/63/36 34/64/34
f 34/64/34 32/65/32 30/66/30
f 30/66/30 28/67/28 26/68/26
f 26/68/26 24/69/24 22/47/22
f 22/47/22 20/70/20 18/71/18
f 18/71/18 16/72/16 14/73/14
f 14/73/14 12/74/12 10/75/10
f 10/75/10 8/76/8 6/48/6
f 6/48/6 2/57/1 46/59/46
f 46/59/46 42/61/42 38/46/38
f 38/46/38 34/64/34 30/66/30
f 30/66/30 26/68/26 22/47/22
f 22/47/22 18/71/18 14/73/14
f 14/73/14 10/75/10 6/48/6
f 6/48/6 46/59/46 38/46/38
f 38/46/38 30/66/30 22/47/22
f 22/47/22 14/73/14 6/48/6
f 46/49/46 48/51/48 47/50/47
f 48/51/48 2/77/1 1/52/3
f 47/55/47 1/78/3 3/79/2
f 3/79/2 5/80/5 7/81/7
f 7/81/7 9/82/9 11/83/11
f 11/83/11 13/84/13 15/53/15
f 15/53/15 17/85/17 19/86/19
f 19/86/19 21/87/21 23/88/23
f 23/88/23 25/89/25 27/90/27
f 27/90/27 29/91/29 31/54/31
f 31/54/31 33/92/33 35/93/35
f 35/93/35 37/94/37 39/95/39
f 39/95/39 41/96/41 43/97/43
f 43/97/43 45/98/45 47/55/47
f 47/55/47 3/79/2 7/81/7
f 7/81/7 11/83/11 15/53/15
f 15/53/15 19/86/19 23/88/23
f 23/88/23 27/90/27 31/54/31
f 31/54/31 35/93/35 39/95/39
f 39/95/39 43/97/43 47/55/47
f 47/55/47 7/81/7 15/53/15
f 15/53/15 23/88/23 31/54/31
f 31/54/31 39/95/39 47/55/47
