# Blender 4.5.0
# www.blender.org
mtllib mesh_001.mtl
o mesh_001
v -0.363316 0.000650 0.000000
v -0.363316 0.000000 0.000650
v -0.363966 0.000650 0.000650
v -0.363316 0.000325 0.000087
v -0.363641 0.000650 0.000087
v -0.363627 0.000339 0.000171
v -0.363641 0.000087 0.000650
v -0.363316 0.000087 0.000325
v -0.363627 0.000171 0.000339
v -0.363879 0.000650 0.000325
v -0.363879 0.000325 0.000650
v -0.363795 0.000339 0.000339
v -0.363316 0.000000 0.963833
v -0.363316 0.000650 0.964483
v -0.363966 0.000650 0.963833
v -0.363316 0.000087 0.964158
v -0.363641 0.000087 0.963833
v -0.363627 0.000171 0.964144
v -0.363641 0.000650 0.964396
v -0.363316 0.000325 0.964396
v -0.363627 0.000339 0.964312
v -0.363879 0.000325 0.963833
v -0.363879 0.000650 0.964158
v -0.363795 0.000339 0.964144
v -0.363316 0.030400 0.000000
v -0.363966 0.030400 0.000650
v -0.363316 0.031050 0.000650
v -0.363641 0.030400 0.000087
v -0.363316 0.030725 0.000087
v -0.363627 0.030711 0.000171
v -0.363879 0.030725 0.000650
v -0.363879 0.030400 0.000325
v -0.363795 0.030711 0.000339
v -0.363316 0.030963 0.000325
v -0.363641 0.030963 0.000650
v -0.363627 0.030879 0.000339
v -0.363316 0.030400 0.964483
v -0.363316 0.031050 0.963833
v -0.363966 0.030400 0.963833
v -0.363316 0.030725 0.964396
v -0.363641 0.030400 0.964396
v -0.363627 0.030711 0.964312
v -0.363641 0.030963 0.963833
v -0.363316 0.030963 0.964158
v -0.363627 0.030879 0.964144
v -0.363879 0.030400 0.964158
v -0.363879 0.030725 0.963833
v -0.363795 0.030711 0.964144
v -0.000650 0.000650 0.000000
v 0.000000 0.000650 0.000650
v -0.000650 0.000000 0.000650
v -0.000325 0.000650 0.000087
v -0.000650 0.000325 0.000087
v -0.000339 0.000339 0.000171
v -0.000087 0.000325 0.000650
v -0.000087 0.000650 0.000325
v -0.000171 0.000339 0.000339
v -0.000650 0.000087 0.000325
v -0.000325 0.000087 0.000650
v -0.000339 0.000171 0.000339
v -0.000650 0.000650 0.964483
v -0.000650 0.000000 0.963833
v 0.000000 0.000650 0.963833
v -0.000650 0.000325 0.964396
v -0.000325 0.000650 0.964396
v -0.000339 0.000339 0.964312
v -0.000325 0.000087 0.963833
v -0.000650 0.000087 0.964158
v -0.000339 0.000171 0.964144
v -0.000087 0.000650 0.964158
v -0.000087 0.000325 0.963833
v -0.000171 0.000339 0.964144
v -0.000650 0.030400 0.000000
v -0.000650 0.031050 0.000650
v 0.000000 0.030400 0.000650
v -0.000650 0.030725 0.000087
v -0.000325 0.030400 0.000087
v -0.000339 0.030711 0.000171
v -0.000325 0.030963 0.000650
v -0.000650 0.030963 0.000325
v -0.000339 0.030879 0.000339
v -0.000087 0.030400 0.000325
v -0.000087 0.030725 0.000650
v -0.000171 0.030711 0.000339
v -0.000650 0.030400 0.964483
v 0.000000 0.030400 0.963833
v -0.000650 0.031050 0.963833
v -0.000325 0.030400 0.964396
v -0.000650 0.030725 0.964396
v -0.000339 0.030711 0.964312
v -0.000087 0.030725 0.963833
v -0.000087 0.030400 0.964158
v -0.000171 0.030711 0.964144
v -0.000650 0.030963 0.964158
v -0.000325 0.030963 0.963833
v -0.000339 0.030879 0.964144
vn -0.0391 -0.5712 -0.8199
vn -0.5002 -0.0019 -0.8659
vn 0.0015 -0.0011 -1.0000
vn -0.4489 -0.7727 -0.4489
vn -0.4488 -0.4488 -0.7727
vn -0.5710 -0.8200 -0.0394
vn -0.1339 -0.7947 -0.5921
vn 0.0018 -1.0000 0.0019
vn -0.8976 -0.4406 -0.0161
vn -0.8206 -0.0403 -0.5701
vn -1.0000 -0.0013 0.0016
vn -0.7727 -0.4488 -0.4488
vn -0.0395 -0.8201 0.5709
vn -0.5004 -0.8658 -0.0004
vn 0.0013 -1.0000 -0.0015
vn -0.0168 -0.4410 0.8974
vn -0.4489 -0.7727 0.4489
vn -0.5695 -0.0409 0.8209
vn 0.0013 -0.0013 1.0000
vn -0.8970 -0.0181 0.4416
vn -0.4488 -0.4489 0.7727
vn -0.8200 -0.5710 0.0394
vn -1.0000 -0.0012 -0.0016
vn -0.7727 -0.4488 0.4488
vn -0.5695 0.0409 -0.8210
vn 0.0003 0.5003 -0.8658
vn 0.0014 0.0013 -1.0000
vn -0.8968 0.0187 -0.4420
vn -0.4488 0.4488 -0.7727
vn -0.8198 0.5713 -0.0390
vn -1.0000 0.0012 0.0016
vn -0.4489 0.7727 -0.4489
vn -0.7727 0.4489 -0.4488
vn -0.0395 0.8201 -0.5709
vn -0.5922 0.7946 -0.1339
vn 0.0013 1.0000 0.0015
vn -0.0391 0.5712 0.8199
vn -0.5003 0.0024 0.8659
vn 0.0015 0.0011 1.0000
vn -0.4489 0.7727 0.4488
vn -0.4489 0.4488 0.7727
vn -0.5710 0.8200 0.0394
vn -0.1339 0.7947 0.5921
vn 0.0018 1.0000 -0.0019
vn -0.8975 0.4406 0.0161
vn -0.8208 0.0406 0.5697
vn -1.0000 0.0013 -0.0016
vn -0.7727 0.4488 0.4488
vn 0.5703 -0.0400 -0.8205
vn -0.0003 -0.5003 -0.8658
vn -0.0014 -0.0013 -1.0000
vn 0.7727 -0.4488 -0.4489
vn 0.4488 -0.4488 -0.7727
vn 0.8199 -0.5712 -0.0390
vn 0.7960 -0.1337 -0.5903
vn 1.0000 -0.0012 0.0016
vn 0.4488 -0.7727 -0.4489
vn 0.0395 -0.8201 -0.5709
vn 0.5921 -0.7946 -0.1339
vn -0.0013 -1.0000 0.0015
vn 0.0385 -0.5718 0.8195
vn 0.5003 -0.0019 0.8658
vn -0.0013 -0.0011 1.0000
vn 0.4489 -0.7727 0.4488
vn 0.4489 -0.4488 0.7727
vn 0.5710 -0.8200 0.0394
vn 0.1340 -0.7947 0.5920
vn -0.0018 -1.0000 -0.0019
vn 0.8976 -0.4406 0.0161
vn 0.8206 -0.0403 0.5700
vn 1.0000 -0.0013 -0.0016
vn 0.7728 -0.4488 0.4488
vn 0.0391 0.5712 -0.8199
vn 0.5002 0.0026 -0.8659
vn -0.0015 0.0011 -1.0000
vn 0.4488 0.7727 -0.4489
vn 0.4488 0.4488 -0.7727
vn 0.5710 0.8200 -0.0394
vn 0.1339 0.7947 -0.5921
vn -0.0018 1.0000 0.0019
vn 0.8976 0.4406 -0.0161
vn 0.8210 0.0409 -0.5695
vn 1.0000 0.0013 0.0016
vn 0.7727 0.4488 -0.4489
vn 0.5698 0.0406 0.8208
vn 0.0003 0.5003 0.8658
vn -0.0013 0.0013 1.0000
vn 0.7728 0.4488 0.4488
vn 0.4489 0.4488 0.7727
vn 0.8198 0.5713 0.0390
vn 0.7964 0.1336 0.5898
vn 1.0000 0.0012 -0.0016
vn 0.4488 0.7727 0.4489
vn 0.0391 0.8199 0.5712
vn 0.5921 0.7946 0.1340
vn -0.0013 1.0000 -0.0015
vt 0.125446 0.747380
vt 0.125224 0.744767
vt 0.125446 0.744767
vt 0.125233 0.750000
vt 0.125233 0.747269
vt 0.375169 1.000000
vt 0.375000 0.999554
vt 0.375168 0.999554
vt 0.375168 0.002620
vt 0.375000 0.000000
vt 0.375168 0.000000
vt 0.375000 0.005233
vt 0.375168 0.005233
vt 0.125000 0.747269
vt 0.125000 0.744767
vt 0.624916 0.999554
vt 0.624832 1.000000
vt 0.624831 0.999554
vt 0.625000 0.999554
vt 0.624912 0.999767
vt 0.875000 0.744767
vt 0.874553 0.750000
vt 0.874554 0.744767
vt 0.624916 0.005233
vt 0.625000 0.000000
vt 0.625000 0.005233
vt 0.624832 0.002620
vt 0.624831 0.005233
vt 0.624831 0.000000
vt 0.624912 0.002731
vt 0.625000 0.999767
vt 0.624912 0.999882
vt 0.125224 0.505233
vt 0.125446 0.502620
vt 0.125446 0.505233
vt 0.125000 0.505233
vt 0.125233 0.502731
vt 0.375168 0.247380
vt 0.375000 0.244767
vt 0.375168 0.244767
vt 0.375000 0.250233
vt 0.375000 0.247269
vt 0.375000 0.250446
vt 0.375168 0.250223
vt 0.375168 0.250446
vt 0.125233 0.500000
vt 0.125446 0.500000
vt 0.125000 0.502731
vt 0.874554 0.500000
vt 0.875000 0.505233
vt 0.874554 0.505233
vt 0.625000 0.250446
vt 0.624912 0.250233
vt 0.625000 0.250130
vt 0.624831 0.250224
vt 0.624916 0.250446
vt 0.624832 0.250447
vt 0.624831 0.247380
vt 0.624916 0.244767
vt 0.624831 0.244767
vt 0.624912 0.247490
vt 0.374776 0.744767
vt 0.374554 0.747380
vt 0.374554 0.744767
vt 0.375072 0.747269
vt 0.374767 0.747269
vt 0.375168 0.747380
vt 0.375084 0.744766
vt 0.375168 0.744767
vt 0.374914 0.750147
vt 0.374776 0.750223
vt 0.375168 0.750224
vt 0.375168 0.750446
vt 0.625223 0.750224
vt 0.625223 0.744767
vt 0.625446 0.744767
vt 0.624912 0.750233
vt 0.625147 0.750086
vt 0.624831 0.750224
vt 0.624916 0.750446
vt 0.624831 0.750447
vt 0.624831 0.747380
vt 0.624916 0.744766
vt 0.624831 0.744767
vt 0.624912 0.747490
vt 0.374553 0.502620
vt 0.374777 0.505233
vt 0.374553 0.505233
vt 0.374914 0.499853
vt 0.374767 0.502731
vt 0.375168 0.499776
vt 0.374776 0.499777
vt 0.375168 0.499554
vt 0.375168 0.502620
vt 0.375084 0.505233
vt 0.375168 0.505233
vt 0.375072 0.502731
vt 0.625224 0.505233
vt 0.625223 0.499776
vt 0.625446 0.505233
vt 0.624912 0.502731
vt 0.625131 0.501872
vt 0.624832 0.502620
vt 0.624916 0.505233
vt 0.624831 0.505233
vt 0.624912 0.499892
vt 0.624916 0.499554
vt 0.624831 0.499776
vt 0.624831 0.499554
vt 0.625000 0.244767
vt 0.125446 0.750000
vt 0.375000 0.999767
vt 0.375000 0.002731
vt 0.874767 0.750000
vt 0.624912 0.001378
vt 0.874767 0.500000
s 1
usemtl muted_olive_door_finish
f 4/1/1 5/2/2 1/3/3
f 4/1/1 9/4/4 6/5/5
f 7/6/6 8/7/7 2/8/8
f 11/9/9 9/10/4 7/11/6
f 10/12/10 11/9/9 3/13/11
f 5/2/2 12/14/12 10/15/10
f 6/5/5 9/4/4 12/14/12
f 16/16/13 17/17/14 13/18/15
f 20/19/16 18/20/17 16/16/13
f 19/21/18 20/22/16 14/23/19
f 23/24/20 21/25/21 19/26/18
f 22/27/22 23/24/20 15/28/23
f 17/29/14 24/30/24 22/27/22
f 18/20/17 21/31/21 24/32/24
f 28/33/25 29/34/26 25/35/27
f 32/36/28 30/37/29 28/33/25
f 31/38/30 32/39/28 26/40/31
f 31/38/30 36/41/32 33/42/33
f 34/43/34 35/44/35 27/45/36
f 29/34/26 36/46/32 34/47/34
f 30/37/29 33/48/33 36/46/32
f 40/49/37 41/50/38 37/51/39
f 40/52/37 45/53/40 42/54/41
f 43/55/42 44/56/43 38/57/44
f 47/58/45 45/53/40 43/55/42
f 46/59/46 47/58/45 39/60/47
f 46/59/46 42/54/41 48/61/48
f 42/54/41 45/53/40 48/61/48
f 52/62/49 53/63/50 49/64/51
f 52/62/49 57/65/52 54/66/53
f 55/67/54 56/68/55 50/69/56
f 55/67/54 60/70/57 57/65/52
f 58/71/58 59/72/59 51/73/60
f 53/63/50 60/70/57 58/71/58
f 54/66/53 57/65/52 60/70/57
f 64/74/61 65/75/62 61/76/63
f 64/74/61 69/77/64 66/78/65
f 67/79/66 68/80/67 62/81/68
f 71/82/69 69/77/64 67/79/66
f 70/83/70 71/82/69 63/84/71
f 65/75/62 72/85/72 70/83/70
f 66/78/65 69/77/64 72/85/72
f 76/86/73 77/87/74 73/88/75
f 76/86/73 81/89/76 78/90/77
f 79/91/78 80/92/79 74/93/80
f 83/94/81 81/89/76 79/91/78
f 82/95/82 83/94/81 75/96/83
f 77/87/74 84/97/84 82/95/82
f 78/90/77 81/89/76 84/97/84
f 88/98/85 89/99/86 85/100/87
f 88/98/85 93/101/88 90/102/89
f 91/103/90 92/104/91 86/105/92
f 91/103/90 96/106/93 93/101/88
f 94/107/94 95/108/95 87/109/96
f 94/107/94 90/102/89 96/106/93
f 90/102/89 93/101/88 96/106/93
f 1/3/3 28/33/25 25/35/27
f 5/2/2 32/36/28 28/33/25
f 32/39/28 3/13/11 26/40/31
f 13/18/15 7/6/6 2/8/8
f 17/29/14 11/9/9 7/11/6
f 22/27/22 3/13/11 11/9/9
f 37/51/39 19/21/18 14/23/19
f 41/110/38 23/24/20 19/26/18
f 46/59/46 15/28/23 23/24/20
f 27/45/36 43/55/42 38/57/44
f 35/44/35 47/58/45 43/55/42
f 31/38/30 39/60/47 47/58/45
f 25/35/27 76/86/73 73/88/75
f 29/34/26 80/92/79 76/86/73
f 34/43/34 74/93/80 80/92/79
f 85/100/87 40/49/37 37/51/39
f 89/99/86 44/56/43 40/52/37
f 94/107/94 38/57/44 44/56/43
f 75/96/83 91/103/90 86/105/92
f 83/94/81 95/108/95 91/103/90
f 79/91/78 87/109/96 95/108/95
f 49/64/51 77/87/74 52/62/49
f 77/87/74 56/68/55 52/62/49
f 82/95/82 50/69/56 56/68/55
f 61/76/63 88/98/85 85/100/87
f 65/75/62 92/104/91 88/98/85
f 92/104/91 63/84/71 86/105/92
f 51/73/60 67/79/66 62/81/68
f 59/72/59 71/82/69 67/79/66
f 55/67/54 63/84/71 71/82/69
f 49/64/51 4/1/1 1/3/3
f 53/63/50 8/111/7 4/1/1
f 58/71/58 2/8/8 8/7/7
f 61/76/63 20/22/16 64/74/61
f 20/19/16 68/80/67 64/74/61
f 16/16/13 62/81/68 68/80/67
f 73/88/75 1/3/3 25/35/27
f 15/28/23 26/40/31 3/13/11
f 62/81/68 2/8/8 51/73/60
f 37/51/39 61/76/63 85/100/87
f 38/57/44 74/93/80 27/45/36
f 86/105/92 50/69/56 75/96/83
f 4/1/1 6/5/5 5/2/2
f 4/1/1 8/111/7 9/4/4
f 7/6/6 9/112/4 8/7/7
f 11/9/9 12/113/12 9/10/4
f 10/12/10 12/113/12 11/9/9
f 5/2/2 6/5/5 12/14/12
f 16/16/13 18/20/17 17/17/14
f 20/19/16 21/31/21 18/20/17
f 19/21/18 21/114/21 20/22/16
f 23/24/20 24/30/24 21/25/21
f 22/27/22 24/30/24 23/24/20
f 17/29/14 18/115/17 24/30/24
f 28/33/25 30/37/29 29/34/26
f 32/36/28 33/48/33 30/37/29
f 31/38/30 33/42/33 32/39/28
f 31/38/30 35/44/35 36/41/32
f 34/43/34 36/41/32 35/44/35
f 29/34/26 30/37/29 36/46/32
f 40/49/37 42/116/41 41/50/38
f 40/52/37 44/56/43 45/53/40
f 43/55/42 45/53/40 44/56/43
f 47/58/45 48/61/48 45/53/40
f 46/59/46 48/61/48 47/58/45
f 46/59/46 41/110/38 42/54/41
f 52/62/49 54/66/53 53/63/50
f 52/62/49 56/68/55 57/65/52
f 55/67/54 57/65/52 56/68/55
f 55/67/54 59/72/59 60/70/57
f 58/71/58 60/70/57 59/72/59
f 53/63/50 54/66/53 60/70/57
f 64/74/61 66/78/65 65/75/62
f 64/74/61 68/80/67 69/77/64
f 67/79/66 69/77/64 68/80/67
f 71/82/69 72/85/72 69/77/64
f 70/83/70 72/85/72 71/82/69
f 65/75/62 66/78/65 72/85/72
f 76/86/73 78/90/77 77/87/74
f 76/86/73 80/92/79 81/89/76
f 79/91/78 81/89/76 80/92/79
f 83/94/81 84/97/84 81/89/76
f 82/95/82 84/97/84 83/94/81
f 77/87/74 78/90/77 84/97/84
f 88/98/85 90/102/89 89/99/86
f 88/98/85 92/104/91 93/101/88
f 91/103/90 93/101/88 92/104/91
f 91/103/90 95/108/95 96/106/93
f 94/107/94 96/106/93 95/108/95
f 94/107/94 89/99/86 90/102/89
f 1/3/3 5/2/2 28/33/25
f 5/2/2 10/15/10 32/36/28
f 32/39/28 10/12/10 3/13/11
f 13/18/15 17/17/14 7/6/6
f 17/29/14 22/27/22 11/9/9
f 22/27/22 15/28/23 3/13/11
f 37/51/39 41/50/38 19/21/18
f 41/110/38 46/59/46 23/24/20
f 46/59/46 39/60/47 15/28/23
f 27/45/36 35/44/35 43/55/42
f 35/44/35 31/38/30 47/58/45
f 31/38/30 26/40/31 39/60/47
f 25/35/27 29/34/26 76/86/73
f 29/34/26 34/47/34 80/92/79
f 34/43/34 27/45/36 74/93/80
f 85/100/87 89/99/86 40/49/37
f 89/99/86 94/107/94 44/56/43
f 94/107/94 87/109/96 38/57/44
f 75/96/83 83/94/81 91/103/90
f 83/94/81 79/91/78 95/108/95
f 79/91/78 74/93/80 87/109/96
f 49/64/51 73/88/75 77/87/74
f 77/87/74 82/95/82 56/68/55
f 82/95/82 75/96/83 50/69/56
f 61/76/63 65/75/62 88/98/85
f 65/75/62 70/83/70 92/104/91
f 92/104/91 70/83/70 63/84/71
f 51/73/60 59/72/59 67/79/66
f 59/72/59 55/67/54 71/82/69
f 55/67/54 50/69/56 63/84/71
f 49/64/51 53/63/50 4/1/1
f 53/63/50 58/71/58 8/111/7
f 58/71/58 51/73/60 2/8/8
f 61/76/63 14/23/19 20/22/16
f 20/19/16 16/16/13 68/80/67
f 16/16/13 13/18/15 62/81/68
f 73/88/75 49/64/51 1/3/3
f 15/28/23 39/60/47 26/40/31
f 62/81/68 13/18/15 2/8/8
f 37/51/39 14/23/19 61/76/63
f 38/57/44 87/109/96 74/93/80
f 86/105/92 63/84/71 50/69/56
