# Blender 4.5.0
# www.blender.org
mtllib mesh_000.mtl
o mesh_000
v -0.212498 -0.026718 0.000000
v -0.212498 -0.026718 0.965983
v -0.212498 0.036105 0.000000
v -0.212498 0.036105 0.965983
v -0.183483 -0.026718 0.000000
v -0.183483 -0.026718 0.965983
v -0.183483 0.036105 0.000000
v -0.183483 0.036105 0.965983
v 0.183483 -0.026718 0.000000
v 0.183483 -0.026718 0.965983
v 0.183483 0.036105 0.000000
v 0.183483 0.036105 0.965983
v 0.212498 -0.026718 0.000000
v 0.212498 -0.026718 0.965983
v 0.212498 0.036105 0.000000
v 0.212498 0.036105 0.965983
v -0.212498 -0.026718 0.965983
v -0.212498 -0.026718 1.000000
v -0.212498 0.036105 0.965983
v -0.212498 0.036105 1.000000
v 0.212498 -0.026718 0.965983
v 0.212498 -0.026718 1.000000
v 0.212498 0.036105 0.965983
v 0.212498 0.036105 1.000000
v -0.217500 -0.036105 0.000000
v -0.183483 -0.036105 0.000000
v -0.183483 -0.036105 0.965983
v -0.217500 -0.036105 1.000000
v -0.217500 -0.026718 0.000000
v -0.183483 -0.026718 0.000000
v -0.183483 -0.026718 0.965983
v -0.217500 -0.026718 1.000000
v 0.183483 -0.036105 0.000000
v 0.217500 -0.036105 0.000000
v 0.217500 -0.036105 1.000000
v 0.183483 -0.036105 0.965983
v 0.183483 -0.026718 0.000000
v 0.217500 -0.026718 0.000000
v 0.217500 -0.026718 1.000000
v 0.183483 -0.026718 0.965983
v -0.183483 -0.036105 0.965983
v 0.183483 -0.036105 0.965983
v 0.217500 -0.036105 1.000000
v -0.217500 -0.036105 1.000000
v -0.183483 -0.026718 0.965983
v 0.183483 -0.026718 0.965983
v 0.217500 -0.026718 1.000000
v -0.217500 -0.026718 1.000000
vn -0.0413 -0.9207 0.3881
vn -0.9083 0.4177 -0.0241
vn -0.9110 -0.4122 -0.0119
vn -0.9047 0.4259 0.0044
vn 0.9110 0.4121 -0.0119
vn 0.9207 0.3881 0.0413
vn 0.9083 -0.4177 -0.0241
vn 0.9047 -0.4259 0.0044
vn -0.2474 -0.2092 0.9461
vn -0.0522 0.4684 -0.8820
vn -0.0623 -0.4722 -0.8793
vn -0.8612 0.0465 0.5061
vn 0.0623 0.4721 -0.8793
vn 0.2092 0.9461 0.2473
vn 0.0522 -0.4684 -0.8820
vn 0.8612 -0.0465 0.5061
vn -0.2661 -0.9639 0.0046
vn 0.2616 -0.9652 -0.0046
vn 0.2832 -0.9589 0.0186
vn -0.2659 -0.9638 -0.0181
vn -0.2702 0.9628 -0.0046
vn 0.2660 0.9640 0.0046
vn 0.2660 0.9638 -0.0187
vn -0.2490 0.9683 0.0181
vn -0.2660 -0.9640 0.0046
vn 0.2703 -0.9628 -0.0045
vn 0.2490 -0.9683 0.0181
vn -0.2660 -0.9638 -0.0187
vn -0.2617 0.9651 -0.0045
vn 0.2659 0.9638 -0.0181
vn -0.2832 0.9589 0.0186
vn -0.0232 -0.9919 0.1253
vn 0.0231 -0.9887 -0.1480
vn 0.0190 -0.8833 0.4685
vn -0.0222 -0.8657 -0.5000
vn -0.0231 0.9887 -0.1480
vn 0.0232 0.9919 0.1252
vn 0.0222 0.8657 -0.5000
vn -0.0190 0.8833 0.4685
vt 0.005999 0.005999
vt 0.068068 0.960392
vt 0.005999 0.960392
vt 0.566032 0.005999
vt 0.594699 0.960392
vt 0.566032 0.960392
vt 0.080067 0.005999
vt 0.142136 0.960392
vt 0.080067 0.960392
vt 0.606697 0.005999
vt 0.635364 0.960392
vt 0.606697 0.960392
vt 0.926200 0.142136
vt 0.954867 0.080067
vt 0.954867 0.142136
vt 0.926200 0.216204
vt 0.954867 0.154135
vt 0.954867 0.216204
vt 0.154135 0.005999
vt 0.216204 0.960392
vt 0.154135 0.960392
vt 0.484702 0.005999
vt 0.513368 0.960392
vt 0.484702 0.960392
vt 0.228203 0.005999
vt 0.290272 0.960392
vt 0.228203 0.960392
vt 0.525367 0.005999
vt 0.554033 0.960392
vt 0.525367 0.960392
vt 0.647363 0.941742
vt 0.676029 0.879673
vt 0.676029 0.941742
vt 0.926200 0.068068
vt 0.954867 0.005999
vt 0.954867 0.068068
vt 0.880593 0.931857
vt 0.914201 0.869788
vt 0.914201 0.931857
vt 0.880593 0.857790
vt 0.914202 0.437894
vt 0.914201 0.857790
vt 0.721431 0.941742
vt 0.755039 0.879673
vt 0.755039 0.941742
vt 0.880593 0.425895
vt 0.914201 0.005999
vt 0.914201 0.425895
vt 0.709432 0.425895
vt 0.647363 0.005999
vt 0.709432 0.005999
vt 0.783499 0.425895
vt 0.721431 0.005999
vt 0.783499 0.005999
vt 0.427095 0.005999
vt 0.393486 0.994001
vt 0.393486 0.039608
vt 0.427095 0.994001
vt 0.439094 0.994001
vt 0.472703 0.039608
vt 0.472703 0.994001
vt 0.439094 0.005999
vt 0.926200 0.228203
vt 0.935475 0.261812
vt 0.926200 0.261812
vt 0.935475 0.228203
vt 0.804773 0.994001
vt 0.795498 0.039608
vt 0.804773 0.039608
vt 0.795498 0.994001
vt 0.795498 0.005999
vt 0.804773 0.005999
vt 0.816772 0.005999
vt 0.826047 0.994001
vt 0.816772 0.994001
vt 0.826047 0.005999
vt 0.335880 0.039608
vt 0.302271 0.994001
vt 0.302271 0.005999
vt 0.335880 0.994001
vt 0.347878 0.994001
vt 0.381487 0.005999
vt 0.381487 0.994001
vt 0.347878 0.039608
vt 0.692971 0.879673
vt 0.702245 0.913282
vt 0.692971 0.913282
vt 0.702245 0.879673
vt 0.847320 0.994001
vt 0.838045 0.005999
vt 0.847320 0.005999
vt 0.838045 0.994001
vt 0.859319 0.005999
vt 0.868594 0.039608
vt 0.859319 0.039608
vt 0.868594 0.005999
vt 0.868594 0.994001
vt 0.859319 0.994001
vt 0.647363 0.437894
vt 0.680972 0.834066
vt 0.647363 0.867674
vt 0.680972 0.471503
vt 0.755039 0.834066
vt 0.721431 0.437894
vt 0.755039 0.471503
vt 0.721431 0.867674
vt 0.767038 0.437894
vt 0.776313 0.800457
vt 0.767038 0.800457
vt 0.776313 0.437894
vt 0.776313 0.846065
vt 0.767038 0.812456
vt 0.776313 0.812456
vt 0.767038 0.846065
vt 0.692971 0.437894
vt 0.702245 0.867675
vt 0.692970 0.867675
vt 0.702245 0.437894
vt 0.767038 0.858063
vt 0.776313 0.891672
vt 0.767038 0.891672
vt 0.776313 0.858063
vt 0.068068 0.005999
vt 0.594699 0.005999
vt 0.142136 0.005999
vt 0.635364 0.005999
vt 0.926200 0.080067
vt 0.926200 0.154135
vt 0.216204 0.005999
vt 0.513368 0.005999
vt 0.290272 0.005999
vt 0.554033 0.005999
vt 0.647363 0.879673
vt 0.926200 0.005999
vt 0.880593 0.869788
vt 0.880593 0.437894
vt 0.721431 0.879673
vt 0.880593 0.005999
vt 0.647363 0.425895
vt 0.721431 0.425895
s 1
usemtl reddish_brown_timber.001
f 2/1/1 3/2/2 1/3/3
f 4/4/4 7/5/5 3/6/2
f 8/7/6 5/8/7 7/9/5
f 6/10/8 1/11/3 5/12/7
f 7/13/5 1/14/3 3/15/2
f 4/16/4 6/17/8 8/18/6
f 10/19/1 11/20/2 9/21/3
f 12/22/4 15/23/5 11/24/2
f 16/25/6 13/26/7 15/27/5
f 14/28/8 9/29/3 13/30/7
f 15/31/5 9/32/3 11/33/2
f 12/34/4 14/35/8 16/36/6
f 18/37/9 19/38/10 17/39/11
f 20/40/12 23/41/13 19/42/10
f 24/43/14 21/44/15 23/45/13
f 22/46/16 17/47/11 21/48/15
f 23/49/13 17/50/11 19/51/10
f 20/52/12 22/53/16 24/54/14
f 28/55/17 26/56/18 27/57/19
f 28/55/17 25/58/20 26/56/18
f 29/59/21 31/60/22 30/61/23
f 29/59/21 32/62/24 31/60/22
f 25/63/20 30/64/23 26/65/18
f 25/63/20 29/66/21 30/64/23
f 26/67/18 31/68/22 27/69/19
f 26/67/18 30/70/23 31/68/22
f 27/69/19 32/71/24 28/72/17
f 27/69/19 31/68/22 32/71/24
f 28/73/17 29/74/21 25/75/20
f 28/73/17 32/76/24 29/74/21
f 36/77/25 34/78/26 35/79/27
f 36/77/25 33/80/28 34/78/26
f 37/81/29 39/82/22 38/83/30
f 37/81/29 40/84/31 39/82/22
f 33/85/28 38/86/30 34/87/26
f 33/85/28 37/88/29 38/86/30
f 34/89/26 39/90/22 35/91/27
f 34/89/26 38/92/30 39/90/22
f 35/93/27 40/94/31 36/95/25
f 35/93/27 39/96/22 40/94/31
f 36/95/25 37/97/29 33/98/28
f 36/95/25 40/94/31 37/97/29
f 44/99/32 42/100/33 43/101/34
f 44/99/32 41/102/35 42/100/33
f 45/103/36 47/104/37 46/105/38
f 45/103/36 48/106/39 47/104/37
f 41/107/35 46/108/38 42/109/33
f 41/107/35 45/110/36 46/108/38
f 42/111/33 47/112/37 43/113/34
f 42/111/33 46/114/38 47/112/37
f 43/115/34 48/116/39 44/117/32
f 43/115/34 47/118/37 48/116/39
f 44/119/32 45/120/36 41/121/35
f 44/119/32 48/122/39 45/120/36
f 2/1/1 4/123/4 3/2/2
f 4/4/4 8/124/6 7/5/5
f 8/7/6 6/125/8 5/8/7
f 6/10/8 2/126/1 1/11/3
f 7/13/5 5/127/7 1/14/3
f 4/16/4 2/128/1 6/17/8
f 10/19/1 12/129/4 11/20/2
f 12/22/4 16/130/6 15/23/5
f 16/25/6 14/131/8 13/26/7
f 14/28/8 10/132/1 9/29/3
f 15/31/5 13/133/7 9/32/3
f 12/34/4 10/134/1 14/35/8
f 18/37/9 20/135/12 19/38/10
f 20/40/12 24/136/14 23/41/13
f 24/43/14 22/137/16 21/44/15
f 22/46/16 18/138/9 17/47/11
f 23/49/13 21/139/15 17/50/11
f 20/52/12 18/140/9 22/53/16
