# Blender 4.5.0
# www.blender.org
mtllib link_blade_slider_translation.mtl
o extended_snapoff_blade
v -0.052360 -0.570000 -0.002210
v 0.052360 -0.509000 -0.002210
v 0.052360 0.172000 -0.002210
v -0.052360 0.172000 -0.002210
v -0.052360 -0.570000 0.000000
v 0.052360 -0.509000 0.000000
v 0.052360 0.172000 0.000000
v -0.052360 0.172000 0.000000
vn -0.0000 -0.0000 -1.0000
vn -0.0000 -0.0000 1.0000
vn 0.5033 -0.8641 -0.0000
vn 1.0000 -0.0000 -0.0000
vn -0.0000 1.0000 -0.0000
vn -1.0000 -0.0000 -0.0000
s 0
usemtl scored_blade_steel
f 4//1 2//1 1//1
f 6//2 8//2 5//2
f 2//3 5//3 1//3
f 3//4 6//4 2//4
f 4//5 7//5 3//5
f 1//6 8//6 4//6
f 4//1 3//1 2//1
f 6//2 7//2 8//2
f 2//3 6//3 5//3
f 3//4 7//4 6//4
f 4//5 8//5 7//5
f 1//6 5//6 8//6
o slider_carriage
v -0.030201 -0.072151 0.000000
v -0.030201 -0.078500 0.006350
v -0.036550 -0.072151 0.006350
v -0.030201 -0.073389 0.000122
v -0.030201 -0.074580 0.000483
v -0.030201 -0.075678 0.001070
v -0.030201 -0.076640 0.001860
v -0.031439 -0.072150 0.000122
v -0.031477 -0.073443 0.000265
v -0.031479 -0.074644 0.000652
v -0.031468 -0.075682 0.001227
v -0.031462 -0.076548 0.001946
v -0.032630 -0.072150 0.000483
v -0.032690 -0.073443 0.000653
v -0.032659 -0.074614 0.001039
v -0.032584 -0.075566 0.001557
v -0.032542 -0.076323 0.002175
v -0.033728 -0.072150 0.001070
v -0.033738 -0.073426 0.001234
v -0.033617 -0.074538 0.001560
v -0.033445 -0.075395 0.001960
v -0.033353 -0.076048 0.002452
v -0.033866 -0.075816 0.002684
v -0.031439 -0.078378 0.006350
v -0.032630 -0.078017 0.006350
v -0.033728 -0.077430 0.006350
v -0.034690 -0.076640 0.006350
v -0.030201 -0.078378 0.005111
v -0.031493 -0.078235 0.005073
v -0.032694 -0.077848 0.005071
v -0.033732 -0.077273 0.005082
v -0.034598 -0.076554 0.005088
v -0.030201 -0.078017 0.003920
v -0.031493 -0.077847 0.003860
v -0.032664 -0.077461 0.003891
v -0.033616 -0.076943 0.003966
v -0.034373 -0.076325 0.004008
v -0.030201 -0.077430 0.002822
v -0.031476 -0.077266 0.002812
v -0.032588 -0.076940 0.002933
v -0.033445 -0.076540 0.003105
v -0.034098 -0.076048 0.003197
v -0.036428 -0.072150 0.005111
v -0.036067 -0.072150 0.003920
v -0.035480 -0.072150 0.002822
v -0.034690 -0.072150 0.001860
v -0.036428 -0.073389 0.006350
v -0.036285 -0.073427 0.005057
v -0.035898 -0.073429 0.003856
v -0.035323 -0.073418 0.002818
v -0.034604 -0.073412 0.001952
v -0.036067 -0.074580 0.006350
v -0.035897 -0.074640 0.005057
v -0.035511 -0.074609 0.003886
v -0.034993 -0.074534 0.002934
v -0.034375 -0.074492 0.002177
v -0.035480 -0.075678 0.006350
v -0.035316 -0.075688 0.005074
v -0.034990 -0.075567 0.003962
v -0.034590 -0.075395 0.003105
v -0.034098 -0.075303 0.002452
v -0.030201 -0.078500 0.007761
v -0.030201 -0.072151 0.014110
v -0.036550 -0.072151 0.007761
v -0.030201 -0.078378 0.008999
v -0.030201 -0.078017 0.010190
v -0.030201 -0.077430 0.011288
v -0.030201 -0.076640 0.012250
v -0.031439 -0.078378 0.007761
v -0.031477 -0.078235 0.009053
v -0.031479 -0.077848 0.010254
v -0.031468 -0.077273 0.011292
v -0.031462 -0.076554 0.012158
v -0.032630 -0.078017 0.007761
v -0.032690 -0.077847 0.009053
v -0.032659 -0.077461 0.010224
v -0.032584 -0.076943 0.011176
v -0.032542 -0.076325 0.011933
v -0.033728 -0.077430 0.007761
v -0.033738 -0.077266 0.009036
v -0.033617 -0.076940 0.010148
v -0.033445 -0.076540 0.011005
v -0.033353 -0.076048 0.011658
v -0.033866 -0.075816 0.011426
v -0.031439 -0.072150 0.013988
v -0.032630 -0.072150 0.013627
v -0.033728 -0.072150 0.013040
v -0.034690 -0.072150 0.012250
v -0.030201 -0.073389 0.013988
v -0.031493 -0.073427 0.013845
v -0.032694 -0.073429 0.013458
v -0.033732 -0.073418 0.012883
v -0.034598 -0.073412 0.012164
v -0.030201 -0.074580 0.013627
v -0.031493 -0.074640 0.013457
v -0.032664 -0.074609 0.013071
v -0.033616 -0.074534 0.012553
v -0.034373 -0.074492 0.011935
v -0.030201 -0.075678 0.013040
v -0.031476 -0.075688 0.012876
v -0.032588 -0.075567 0.012550
v -0.033445 -0.075395 0.012150
v -0.034098 -0.075303 0.011658
v -0.036428 -0.073389 0.007761
v -0.036067 -0.074580 0.007761
v -0.035480 -0.075678 0.007761
v -0.034690 -0.076640 0.007761
v -0.036428 -0.072150 0.008999
v -0.036285 -0.073443 0.009037
v -0.035898 -0.074644 0.009039
v -0.035323 -0.075682 0.009028
v -0.034604 -0.076548 0.009022
v -0.036067 -0.072150 0.010190
v -0.035897 -0.073443 0.010250
v -0.035511 -0.074614 0.010219
v -0.034993 -0.075566 0.010144
v -0.034375 -0.076323 0.010102
v -0.035480 -0.072150 0.011288
v -0.035316 -0.073426 0.011298
v -0.034990 -0.074538 0.011177
v -0.034590 -0.075395 0.011005
v -0.034098 -0.076048 0.010913
v -0.030201 0.072151 0.000000
v -0.036550 0.072151 0.006350
v -0.030201 0.078500 0.006350
v -0.031439 0.072151 0.000122
v -0.032630 0.072151 0.000483
v -0.033728 0.072151 0.001070
v -0.034690 0.072151 0.001860
v -0.030200 0.073389 0.000122
v -0.031493 0.073427 0.000265
v -0.032694 0.073429 0.000652
v -0.033732 0.073418 0.001227
v -0.034598 0.073412 0.001946
v -0.030200 0.074580 0.000483
v -0.031493 0.074640 0.000653
v -0.032664 0.074609 0.001039
v -0.033616 0.074534 0.001557
v -0.034373 0.074492 0.002175
v -0.030200 0.075678 0.001070
v -0.031476 0.075688 0.001234
v -0.032588 0.075567 0.001560
v -0.033445 0.075395 0.001960
v -0.034098 0.075303 0.002452
v -0.033866 0.075816 0.002684
v -0.036428 0.073389 0.006350
v -0.036067 0.074580 0.006350
v -0.035480 0.075678 0.006350
v -0.034690 0.076640 0.006350
v -0.036428 0.072151 0.005111
v -0.036285 0.073443 0.005073
v -0.035898 0.074644 0.005071
v -0.035323 0.075682 0.005082
v -0.034604 0.076548 0.005088
v -0.036067 0.072151 0.003920
v -0.035897 0.073443 0.003860
v -0.035511 0.074614 0.003891
v -0.034993 0.075566 0.003966
v -0.034375 0.076323 0.004008
v -0.035480 0.072151 0.002822
v -0.035316 0.073426 0.002812
v -0.034990 0.074538 0.002933
v -0.034590 0.075395 0.003105
v -0.034098 0.076048 0.003197
v -0.030200 0.078378 0.005111
v -0.030200 0.078017 0.003920
v -0.030200 0.077430 0.002822
v -0.030200 0.076640 0.001860
v -0.031439 0.078378 0.006350
v -0.031477 0.078235 0.005057
v -0.031479 0.077848 0.003856
v -0.031468 0.077273 0.002818
v -0.031462 0.076554 0.001952
v -0.032630 0.078017 0.006350
v -0.032690 0.077847 0.005057
v -0.032659 0.077461 0.003886
v -0.032584 0.076943 0.002934
v -0.032542 0.076325 0.002177
v -0.033728 0.077430 0.006350
v -0.033738 0.077266 0.005074
v -0.033617 0.076940 0.003962
v -0.033445 0.076540 0.003105
v -0.033353 0.076048 0.002452
v -0.030201 0.072151 0.014110
v -0.030201 0.078500 0.007761
v -0.036550 0.072151 0.007761
v -0.030201 0.073389 0.013988
v -0.030201 0.074580 0.013627
v -0.030201 0.075678 0.013040
v -0.030201 0.076640 0.012250
v -0.031439 0.072150 0.013988
v -0.031477 0.073443 0.013845
v -0.031479 0.074644 0.013458
v -0.031468 0.075682 0.012883
v -0.031462 0.076548 0.012164
v -0.032630 0.072150 0.013627
v -0.032690 0.073443 0.013457
v -0.032659 0.074614 0.013071
v -0.032584 0.075566 0.012553
v -0.032542 0.076323 0.011935
v -0.033728 0.072150 0.013040
v -0.033738 0.073426 0.012876
v -0.033617 0.074538 0.012550
v -0.033445 0.075395 0.012150
v -0.033353 0.076048 0.011658
v -0.033866 0.075816 0.011426
v -0.031439 0.078378 0.007761
v -0.032630 0.078017 0.007761
v -0.033728 0.077430 0.007761
v -0.034690 0.076640 0.007761
v -0.030201 0.078378 0.008999
v -0.031493 0.078235 0.009037
v -0.032694 0.077848 0.009039
v -0.033732 0.077273 0.009028
v -0.034598 0.076554 0.009022
v -0.030201 0.078017 0.010190
v -0.031493 0.077847 0.010250
v -0.032664 0.077461 0.010219
v -0.033616 0.076943 0.010144
v -0.034373 0.076325 0.010102
v -0.030201 0.077430 0.011288
v -0.031476 0.077266 0.011298
v -0.032588 0.076940 0.011177
v -0.033445 0.076540 0.011005
v -0.034098 0.076048 0.010913
v -0.036428 0.072150 0.008999
v -0.036067 0.072150 0.010190
v -0.035480 0.072150 0.011288
v -0.034690 0.072150 0.012250
v -0.036428 0.073389 0.007761
v -0.036285 0.073427 0.009053
v -0.035898 0.073429 0.010254
v -0.035323 0.073418 0.011292
v -0.034604 0.073412 0.012158
v -0.036067 0.074580 0.007761
v -0.035897 0.074640 0.009053
v -0.035511 0.074609 0.010224
v -0.034993 0.074534 0.011176
v -0.034375 0.074492 0.011933
v -0.035480 0.075678 0.007761
v -0.035316 0.075688 0.009036
v -0.034990 0.075567 0.010148
v -0.034590 0.075395 0.011005
v -0.034098 0.075303 0.011658
v 0.030201 -0.072151 0.000000
v 0.036550 -0.072151 0.006350
v 0.030201 -0.078500 0.006350
v 0.031439 -0.072151 0.000122
v 0.032630 -0.072151 0.000483
v 0.033728 -0.072151 0.001070
v 0.034690 -0.072151 0.001860
v 0.030200 -0.073389 0.000122
v 0.031493 -0.073427 0.000265
v 0.032694 -0.073429 0.000652
v 0.033732 -0.073418 0.001227
v 0.034598 -0.073412 0.001946
v 0.030200 -0.074580 0.000483
v 0.031493 -0.074640 0.000653
v 0.032664 -0.074609 0.001039
v 0.033616 -0.074534 0.001557
v 0.034373 -0.074492 0.002175
v 0.030200 -0.075678 0.001070
v 0.031476 -0.075688 0.001234
v 0.032588 -0.075567 0.001560
v 0.033445 -0.075395 0.001960
v 0.034098 -0.075303 0.002452
v 0.033866 -0.075816 0.002684
v 0.036428 -0.073389 0.006350
v 0.036067 -0.074580 0.006350
v 0.035480 -0.075678 0.006350
v 0.034690 -0.076640 0.006350
v 0.036428 -0.072151 0.005111
v 0.036285 -0.073443 0.005073
v 0.035898 -0.074644 0.005071
v 0.035323 -0.075682 0.005082
v 0.034604 -0.076548 0.005088
v 0.036067 -0.072151 0.003920
v 0.035897 -0.073443 0.003860
v 0.035511 -0.074614 0.003891
v 0.034993 -0.075566 0.003966
v 0.034375 -0.076323 0.004008
v 0.035480 -0.072151 0.002822
v 0.035316 -0.073426 0.002812
v 0.034990 -0.074538 0.002933
v 0.034590 -0.075395 0.003105
v 0.034098 -0.076048 0.003197
v 0.030200 -0.078378 0.005111
v 0.030200 -0.078017 0.003920
v 0.030200 -0.077430 0.002822
v 0.030200 -0.076640 0.001860
v 0.031439 -0.078378 0.006350
v 0.031477 -0.078235 0.005057
v 0.031479 -0.077848 0.003856
v 0.031468 -0.077273 0.002818
v 0.031462 -0.076554 0.001952
v 0.032630 -0.078017 0.006350
v 0.032690 -0.077847 0.005057
v 0.032659 -0.077461 0.003886
v 0.032584 -0.076943 0.002934
v 0.032542 -0.076325 0.002177
v 0.033728 -0.077430 0.006350
v 0.033738 -0.077266 0.005074
v 0.033617 -0.076940 0.003962
v 0.033445 -0.076540 0.003105
v 0.033353 -0.076048 0.002452
v 0.030201 -0.072151 0.014110
v 0.030201 -0.078500 0.007761
v 0.036550 -0.072151 0.007761
v 0.030201 -0.073389 0.013988
v 0.030201 -0.074580 0.013627
v 0.030201 -0.075678 0.013040
v 0.030201 -0.076640 0.012250
v 0.031439 -0.072150 0.013988
v 0.031477 -0.073443 0.013845
v 0.031479 -0.074644 0.013458
v 0.031468 -0.075682 0.012883
v 0.031462 -0.076548 0.012164
v 0.032630 -0.072150 0.013627
v 0.032690 -0.073443 0.013457
v 0.032659 -0.074614 0.013071
v 0.032584 -0.075566 0.012553
v 0.032542 -0.076323 0.011935
v 0.033728 -0.072150 0.013040
v 0.033738 -0.073426 0.012876
v 0.033617 -0.074538 0.012550
v 0.033445 -0.075395 0.012150
v 0.033353 -0.076048 0.011658
v 0.033866 -0.075816 0.011426
v 0.031439 -0.078378 0.007761
v 0.032630 -0.078017 0.007761
v 0.033728 -0.077430 0.007761
v 0.034690 -0.076640 0.007761
v 0.030201 -0.078378 0.008999
v 0.031493 -0.078235 0.009037
v 0.032694 -0.077848 0.009039
v 0.033732 -0.077273 0.009028
v 0.034598 -0.076554 0.009022
v 0.030201 -0.078017 0.010190
v 0.031493 -0.077847 0.010250
v 0.032664 -0.077461 0.010219
v 0.033616 -0.076943 0.010144
v 0.034373 -0.076325 0.010102
v 0.030201 -0.077430 0.011288
v 0.031476 -0.077266 0.011298
v 0.032588 -0.076940 0.011177
v 0.033445 -0.076540 0.011005
v 0.034098 -0.076048 0.010913
v 0.036428 -0.072150 0.008999
v 0.036067 -0.072150 0.010190
v 0.035480 -0.072150 0.011288
v 0.034690 -0.072150 0.012250
v 0.036428 -0.073389 0.007761
v 0.036285 -0.073427 0.009053
v 0.035898 -0.073429 0.010254
v 0.035323 -0.073418 0.011292
v 0.034604 -0.073412 0.012158
v 0.036067 -0.074580 0.007761
v 0.035897 -0.074640 0.009053
v 0.035511 -0.074609 0.010224
v 0.034993 -0.074534 0.011176
v 0.034375 -0.074492 0.011933
v 0.035480 -0.075678 0.007761
v 0.035316 -0.075688 0.009036
v 0.034990 -0.075567 0.010148
v 0.034590 -0.075395 0.011005
v 0.034098 -0.075303 0.011658
v 0.030201 0.072151 0.000000
v 0.030201 0.078500 0.006350
v 0.036550 0.072151 0.006350
v 0.030201 0.073389 0.000122
v 0.030201 0.074580 0.000483
v 0.030201 0.075678 0.001070
v 0.030201 0.076640 0.001860
v 0.031439 0.072150 0.000122
v 0.031477 0.073443 0.000265
v 0.031479 0.074644 0.000652
v 0.031468 0.075682 0.001227
v 0.031462 0.076548 0.001946
v 0.032630 0.072150 0.000483
v 0.032690 0.073443 0.000653
v 0.032659 0.074614 0.001039
v 0.032584 0.075566 0.001557
v 0.032542 0.076323 0.002175
v 0.033728 0.072150 0.001070
v 0.033738 0.073426 0.001234
v 0.033617 0.074538 0.001560
v 0.033445 0.075395 0.001960
v 0.033353 0.076048 0.002452
v 0.033866 0.075816 0.002684
v 0.031439 0.078378 0.006350
v 0.032630 0.078017 0.006350
v 0.033728 0.077430 0.006350
v 0.034690 0.076640 0.006350
v 0.030201 0.078378 0.005111
v 0.031493 0.078235 0.005073
v 0.032694 0.077848 0.005071
v 0.033732 0.077273 0.005082
v 0.034598 0.076554 0.005088
v 0.030201 0.078017 0.003920
v 0.031493 0.077847 0.003860
v 0.032664 0.077461 0.003891
v 0.033616 0.076943 0.003966
v 0.034373 0.076325 0.004008
v 0.030201 0.077430 0.002822
v 0.031476 0.077266 0.002812
v 0.032588 0.076940 0.002933
v 0.033445 0.076540 0.003105
v 0.034098 0.076048 0.003197
v 0.036428 0.072150 0.005111
v 0.036067 0.072150 0.003920
v 0.035480 0.072150 0.002822
v 0.034690 0.072150 0.001860
v 0.036428 0.073389 0.006350
v 0.036285 0.073427 0.005057
v 0.035898 0.073429 0.003856
v 0.035323 0.073418 0.002818
v 0.034604 0.073412 0.001952
v 0.036067 0.074580 0.006350
v 0.035897 0.074640 0.005057
v 0.035511 0.074609 0.003886
v 0.034993 0.074534 0.002934
v 0.034375 0.074492 0.002177
v 0.035480 0.075678 0.006350
v 0.035316 0.075688 0.005074
v 0.034990 0.075567 0.003962
v 0.034590 0.075395 0.003105
v 0.034098 0.075303 0.002452
v 0.030201 0.072151 0.014110
v 0.036550 0.072151 0.007761
v 0.030201 0.078500 0.007761
v 0.031439 0.072151 0.013988
v 0.032630 0.072151 0.013627
v 0.033728 0.072151 0.013040
v 0.034690 0.072151 0.012250
v 0.030200 0.073389 0.013988
v 0.031493 0.073427 0.013845
v 0.032694 0.073429 0.013458
v 0.033732 0.073418 0.012883
v 0.034598 0.073412 0.012164
v 0.030200 0.074580 0.013627
v 0.031493 0.074640 0.013457
v 0.032664 0.074609 0.013071
v 0.033616 0.074534 0.012553
v 0.034373 0.074492 0.011935
v 0.030200 0.075678 0.013040
v 0.031476 0.075688 0.012876
v 0.032588 0.075567 0.012550
v 0.033445 0.075395 0.012150
v 0.034098 0.075303 0.011658
v 0.033866 0.075816 0.011426
v 0.036428 0.073389 0.007761
v 0.036067 0.074580 0.007761
v 0.035480 0.075678 0.007761
v 0.034690 0.076640 0.007761
v 0.036428 0.072151 0.008999
v 0.036285 0.073443 0.009037
v 0.035898 0.074644 0.009039
v 0.035323 0.075682 0.009028
v 0.034604 0.076548 0.009022
v 0.036067 0.072151 0.010190
v 0.035897 0.073443 0.010250
v 0.035511 0.074614 0.010219
v 0.034993 0.075566 0.010144
v 0.034375 0.076323 0.010102
v 0.035480 0.072151 0.011288
v 0.035316 0.073426 0.011298
v 0.034990 0.074538 0.011177
v 0.034590 0.075395 0.011005
v 0.034098 0.076048 0.010913
v 0.030200 0.078378 0.008999
v 0.030200 0.078017 0.010190
v 0.030200 0.077430 0.011288
v 0.030200 0.076640 0.012250
v 0.031439 0.078378 0.007761
v 0.031477 0.078235 0.009053
v 0.031479 0.077848 0.010254
v 0.031468 0.077273 0.011292
v 0.031462 0.076554 0.012158
v 0.032630 0.078017 0.007761
v 0.032690 0.077847 0.009053
v 0.032659 0.077461 0.010224
v 0.032584 0.076943 0.011176
v 0.032542 0.076325 0.011933
v 0.033728 0.077430 0.007761
v 0.033738 0.077266 0.009036
v 0.033617 0.076940 0.010148
v 0.033445 0.076540 0.011005
v 0.033353 0.076048 0.011658
vn -0.0156 -0.2292 -0.9732
vn -0.1934 0.0007 -0.9811
vn -0.0007 0.0004 -1.0000
vn -0.0151 -0.4137 -0.9103
vn -0.1994 -0.2017 -0.9589
vn -0.0143 -0.5821 -0.8130
vn -0.1949 -0.3927 -0.8988
vn -0.0132 -0.7284 -0.6851
vn -0.1899 -0.5614 -0.8055
vn -0.3810 0.0007 -0.9246
vn -0.3854 -0.2044 -0.8998
vn -0.3731 -0.3901 -0.8418
vn -0.1851 -0.6896 -0.7001
vn -0.3592 -0.5451 -0.7575
vn -0.5549 -0.0001 -0.8319
vn -0.5489 -0.1991 -0.8118
vn -0.4981 -0.4983 -0.7096
vn -0.5254 -0.3735 -0.7645
vn -0.4739 -0.6225 -0.6228
vn -0.7071 -0.0007 -0.7071
vn -0.6879 -0.1916 -0.7001
vn -0.6227 -0.4739 -0.6226
vn -0.6529 -0.3574 -0.6678
vn -0.5774 -0.5774 -0.5773
vn -0.1969 -0.9792 -0.0495
vn -0.0005 -0.9811 -0.1935
vn -0.0008 -0.9990 -0.0449
vn -0.3844 -0.9219 -0.0486
vn -0.2018 -0.9589 -0.1996
vn -0.5574 -0.8289 -0.0468
vn -0.3927 -0.8988 -0.1949
vn -0.7080 -0.7047 -0.0455
vn -0.5614 -0.8055 -0.1899
vn -0.0005 -0.9245 -0.3811
vn -0.2044 -0.8998 -0.3854
vn -0.3901 -0.8418 -0.3731
vn -0.6896 -0.7001 -0.1851
vn -0.5451 -0.7575 -0.3592
vn -0.0012 -0.8319 -0.5549
vn -0.1991 -0.8118 -0.5489
vn -0.4983 -0.7096 -0.4981
vn -0.3735 -0.7645 -0.5254
vn -0.6225 -0.6228 -0.4739
vn -0.3665 -0.6568 -0.6590
vn -0.9731 -0.0147 -0.2301
vn -0.9793 -0.1964 -0.0482
vn -0.9990 0.0004 -0.0448
vn -0.9099 -0.0142 -0.4145
vn -0.9589 -0.1995 -0.2017
vn -0.8126 -0.0135 -0.5827
vn -0.8988 -0.1949 -0.3927
vn -0.8055 -0.1899 -0.5614
vn -0.9225 -0.3831 -0.0475
vn -0.8998 -0.3854 -0.2044
vn -0.8418 -0.3731 -0.3901
vn -0.7575 -0.3592 -0.5451
vn -0.8301 -0.5557 -0.0456
vn -0.8118 -0.5489 -0.1991
vn -0.7096 -0.4981 -0.4983
vn -0.7645 -0.5254 -0.3735
vn -0.6568 -0.6590 -0.3665
vn -0.0156 -0.9732 0.2292
vn -0.1964 -0.9793 0.0481
vn -0.0009 -0.9990 0.0449
vn -0.0151 -0.9103 0.4137
vn -0.1994 -0.9589 0.2017
vn -0.0143 -0.8130 0.5821
vn -0.1949 -0.8988 0.3927
vn -0.0132 -0.6851 0.7284
vn -0.1899 -0.8055 0.5614
vn -0.3832 -0.9225 0.0474
vn -0.3854 -0.8998 0.2044
vn -0.3731 -0.8418 0.3901
vn -0.1851 -0.7001 0.6896
vn -0.3592 -0.7575 0.5451
vn -0.5557 -0.8302 0.0456
vn -0.5489 -0.8118 0.1991
vn -0.4981 -0.7096 0.4983
vn -0.5254 -0.7645 0.3735
vn -0.4739 -0.6228 0.6225
vn -0.7064 -0.7064 0.0447
vn -0.6879 -0.7001 0.1916
vn -0.6227 -0.6226 0.4739
vn -0.6529 -0.6678 0.3574
vn -0.5774 -0.5774 0.5773
vn -0.2301 -0.0147 0.9731
vn -0.0005 -0.1935 0.9811
vn -0.0008 0.0003 1.0000
vn -0.4145 -0.0142 0.9099
vn -0.2017 -0.1995 0.9589
vn -0.5827 -0.0135 0.8126
vn -0.3927 -0.1949 0.8988
vn -0.7289 -0.0124 0.6845
vn -0.5614 -0.1899 0.8055
vn -0.0005 -0.3811 0.9245
vn -0.2044 -0.3854 0.8998
vn -0.3901 -0.3731 0.8418
vn -0.6896 -0.1851 0.7001
vn -0.5451 -0.3592 0.7575
vn -0.0012 -0.5549 0.8319
vn -0.1991 -0.5489 0.8118
vn -0.4983 -0.4981 0.7096
vn -0.3735 -0.5254 0.7645
vn -0.6225 -0.4739 0.6228
vn -0.3665 -0.6590 0.6568
vn -0.9792 -0.1969 0.0495
vn -0.9811 0.0007 0.1934
vn -0.9990 0.0003 0.0448
vn -0.9219 -0.3845 0.0486
vn -0.9589 -0.2018 0.1995
vn -0.8289 -0.5575 0.0468
vn -0.8988 -0.3927 0.1949
vn -0.8055 -0.5614 0.1899
vn -0.9246 0.0007 0.3810
vn -0.8998 -0.2043 0.3855
vn -0.8418 -0.3901 0.3731
vn -0.7575 -0.5451 0.3592
vn -0.8319 -0.0001 0.5549
vn -0.8118 -0.1991 0.5489
vn -0.7096 -0.4983 0.4981
vn -0.7645 -0.3735 0.5254
vn -0.6568 -0.3665 0.6590
vn -0.2301 0.0147 -0.9731
vn -0.0005 0.1935 -0.9811
vn -0.0008 -0.0003 -1.0000
vn -0.4145 0.0142 -0.9099
vn -0.2018 0.1995 -0.9589
vn -0.5827 0.0135 -0.8126
vn -0.3927 0.1949 -0.8988
vn -0.7289 0.0124 -0.6845
vn -0.5614 0.1899 -0.8055
vn -0.0005 0.3811 -0.9245
vn -0.2044 0.3854 -0.8998
vn -0.3901 0.3731 -0.8418
vn -0.6896 0.1851 -0.7001
vn -0.5451 0.3592 -0.7575
vn -0.0012 0.5549 -0.8319
vn -0.1991 0.5489 -0.8118
vn -0.4983 0.4981 -0.7096
vn -0.3735 0.5254 -0.7645
vn -0.6225 0.4739 -0.6228
vn -0.0018 0.7071 -0.7071
vn -0.1916 0.6879 -0.7001
vn -0.4739 0.6227 -0.6226
vn -0.3574 0.6529 -0.6678
vn -0.5774 0.5773 -0.5774
vn -0.9792 0.1969 -0.0495
vn -0.9811 -0.0007 -0.1934
vn -0.9990 -0.0004 -0.0448
vn -0.9219 0.3845 -0.0486
vn -0.9589 0.2018 -0.1996
vn -0.8289 0.5574 -0.0468
vn -0.8988 0.3927 -0.1949
vn -0.7047 0.7080 -0.0455
vn -0.8055 0.5614 -0.1899
vn -0.9246 -0.0007 -0.3810
vn -0.8998 0.2044 -0.3854
vn -0.8418 0.3901 -0.3731
vn -0.7001 0.6896 -0.1851
vn -0.7575 0.5451 -0.3592
vn -0.8319 0.0001 -0.5549
vn -0.8118 0.1991 -0.5489
vn -0.7096 0.4983 -0.4981
vn -0.7645 0.3735 -0.5254
vn -0.6228 0.6225 -0.4739
vn -0.6568 0.3665 -0.6590
vn -0.0156 0.9732 -0.2292
vn -0.1964 0.9793 -0.0481
vn -0.0009 0.9990 -0.0449
vn -0.0151 0.9103 -0.4137
vn -0.1995 0.9589 -0.2017
vn -0.0143 0.8130 -0.5821
vn -0.1949 0.8988 -0.3927
vn -0.1899 0.8055 -0.5614
vn -0.3831 0.9225 -0.0475
vn -0.3854 0.8998 -0.2044
vn -0.3731 0.8418 -0.3901
vn -0.3592 0.7575 -0.5451
vn -0.5557 0.8302 -0.0456
vn -0.5489 0.8118 -0.1991
vn -0.4981 0.7096 -0.4983
vn -0.5254 0.7645 -0.3735
vn -0.6590 0.6568 -0.3665
vn -0.0156 0.2292 0.9732
vn -0.1934 -0.0007 0.9811
vn -0.0007 -0.0004 1.0000
vn -0.0151 0.4137 0.9103
vn -0.1994 0.2017 0.9589
vn -0.0143 0.5821 0.8130
vn -0.1949 0.3927 0.8988
vn -0.0132 0.7284 0.6851
vn -0.1899 0.5614 0.8055
vn -0.3810 -0.0007 0.9246
vn -0.3854 0.2044 0.8998
vn -0.3731 0.3901 0.8418
vn -0.1851 0.6896 0.7001
vn -0.3592 0.5451 0.7575
vn -0.5549 0.0001 0.8319
vn -0.5489 0.1991 0.8118
vn -0.4981 0.4983 0.7096
vn -0.5254 0.3735 0.7645
vn -0.4739 0.6225 0.6228
vn -0.7071 0.0007 0.7071
vn -0.6879 0.1916 0.7001
vn -0.6227 0.4739 0.6226
vn -0.6529 0.3574 0.6678
vn -0.5774 0.5774 0.5773
vn -0.1969 0.9792 0.0495
vn -0.0005 0.9811 0.1935
vn -0.0008 0.9990 0.0449
vn -0.3845 0.9219 0.0486
vn -0.2018 0.9589 0.1996
vn -0.5574 0.8289 0.0468
vn -0.3927 0.8988 0.1949
vn -0.7080 0.7047 0.0456
vn -0.5614 0.8055 0.1899
vn -0.0005 0.9245 0.3811
vn -0.2044 0.8998 0.3854
vn -0.3901 0.8418 0.3731
vn -0.6896 0.7001 0.1851
vn -0.5451 0.7575 0.3592
vn -0.0012 0.8319 0.5549
vn -0.1991 0.8118 0.5489
vn -0.4983 0.7096 0.4981
vn -0.3735 0.7645 0.5254
vn -0.6225 0.6228 0.4739
vn -0.3665 0.6568 0.6590
vn -0.9731 0.0147 0.2301
vn -0.9793 0.1964 0.0481
vn -0.9990 -0.0003 0.0448
vn -0.9099 0.0142 0.4145
vn -0.9589 0.1995 0.2017
vn -0.8126 0.0135 0.5827
vn -0.8988 0.1949 0.3927
vn -0.8055 0.1899 0.5614
vn -0.9225 0.3831 0.0475
vn -0.8998 0.3854 0.2044
vn -0.8418 0.3731 0.3901
vn -0.7575 0.3592 0.5451
vn -0.8302 0.5557 0.0456
vn -0.8118 0.5489 0.1991
vn -0.7096 0.4981 0.4983
vn -0.7645 0.5254 0.3735
vn -0.6568 0.6590 0.3665
vn 0.2301 -0.0147 -0.9731
vn 0.0005 -0.1935 -0.9811
vn 0.0008 0.0003 -1.0000
vn 0.4145 -0.0142 -0.9099
vn 0.2018 -0.1995 -0.9589
vn 0.5827 -0.0135 -0.8126
vn 0.3927 -0.1949 -0.8988
vn 0.7289 -0.0124 -0.6845
vn 0.5614 -0.1899 -0.8055
vn 0.0005 -0.3811 -0.9245
vn 0.2044 -0.3854 -0.8998
vn 0.3901 -0.3731 -0.8418
vn 0.6896 -0.1851 -0.7001
vn 0.5451 -0.3592 -0.7575
vn 0.0012 -0.5549 -0.8319
vn 0.1991 -0.5489 -0.8118
vn 0.4983 -0.4981 -0.7096
vn 0.3735 -0.5254 -0.7645
vn 0.6225 -0.4739 -0.6228
vn 0.0018 -0.7071 -0.7071
vn 0.1916 -0.6879 -0.7001
vn 0.4739 -0.6227 -0.6226
vn 0.3574 -0.6529 -0.6678
vn 0.5773 -0.5773 -0.5774
vn 0.9792 -0.1969 -0.0495
vn 0.9811 0.0007 -0.1934
vn 0.9990 0.0004 -0.0448
vn 0.9219 -0.3845 -0.0486
vn 0.9589 -0.2018 -0.1996
vn 0.8289 -0.5574 -0.0468
vn 0.8988 -0.3927 -0.1949
vn 0.7047 -0.7080 -0.0455
vn 0.8055 -0.5614 -0.1899
vn 0.9246 0.0007 -0.3810
vn 0.8998 -0.2044 -0.3854
vn 0.8418 -0.3901 -0.3731
vn 0.7001 -0.6896 -0.1851
vn 0.7575 -0.5451 -0.3592
vn 0.8319 -0.0001 -0.5549
vn 0.8118 -0.1991 -0.5489
vn 0.7096 -0.4983 -0.4981
vn 0.7645 -0.3735 -0.5254
vn 0.6228 -0.6225 -0.4739
vn 0.6568 -0.3665 -0.6590
vn 0.0156 -0.9732 -0.2292
vn 0.1964 -0.9793 -0.0481
vn 0.0009 -0.9990 -0.0449
vn 0.0151 -0.9103 -0.4137
vn 0.1995 -0.9589 -0.2017
vn 0.0143 -0.8130 -0.5821
vn 0.1949 -0.8988 -0.3927
vn 0.1899 -0.8055 -0.5614
vn 0.3831 -0.9225 -0.0475
vn 0.3854 -0.8998 -0.2044
vn 0.3731 -0.8418 -0.3901
vn 0.3592 -0.7575 -0.5451
vn 0.5557 -0.8302 -0.0456
vn 0.5489 -0.8118 -0.1991
vn 0.4981 -0.7096 -0.4983
vn 0.5254 -0.7645 -0.3735
vn 0.6590 -0.6568 -0.3665
vn 0.0156 -0.2292 0.9732
vn 0.1934 0.0007 0.9811
vn 0.0007 0.0004 1.0000
vn 0.0151 -0.4137 0.9103
vn 0.1994 -0.2017 0.9589
vn 0.0143 -0.5821 0.8130
vn 0.1949 -0.3927 0.8988
vn 0.0132 -0.7284 0.6851
vn 0.1899 -0.5614 0.8055
vn 0.3810 0.0007 0.9246
vn 0.3854 -0.2044 0.8998
vn 0.3731 -0.3901 0.8418
vn 0.1851 -0.6896 0.7001
vn 0.3592 -0.5451 0.7575
vn 0.5549 -0.0001 0.8319
vn 0.5489 -0.1991 0.8118
vn 0.4981 -0.4983 0.7096
vn 0.5254 -0.3735 0.7645
vn 0.4739 -0.6225 0.6228
vn 0.7071 -0.0007 0.7071
vn 0.6879 -0.1916 0.7001
vn 0.6227 -0.4739 0.6226
vn 0.6529 -0.3574 0.6678
vn 0.5774 -0.5774 0.5773
vn 0.1969 -0.9792 0.0495
vn 0.0005 -0.9811 0.1935
vn 0.0008 -0.9990 0.0449
vn 0.3845 -0.9219 0.0486
vn 0.2018 -0.9589 0.1996
vn 0.5574 -0.8289 0.0468
vn 0.3927 -0.8988 0.1949
vn 0.7080 -0.7047 0.0456
vn 0.5614 -0.8055 0.1899
vn 0.0005 -0.9245 0.3811
vn 0.2044 -0.8998 0.3854
vn 0.3901 -0.8418 0.3731
vn 0.6896 -0.7001 0.1851
vn 0.5451 -0.7575 0.3592
vn 0.0012 -0.8319 0.5549
vn 0.1991 -0.8118 0.5489
vn 0.4983 -0.7096 0.4981
vn 0.3735 -0.7645 0.5254
vn 0.6225 -0.6228 0.4739
vn 0.3665 -0.6568 0.6590
vn 0.9731 -0.0147 0.2301
vn 0.9793 -0.1964 0.0481
vn 0.9990 0.0003 0.0448
vn 0.9099 -0.0142 0.4145
vn 0.9589 -0.1995 0.2017
vn 0.8126 -0.0135 0.5827
vn 0.8988 -0.1949 0.3927
vn 0.8055 -0.1899 0.5614
vn 0.9225 -0.3831 0.0475
vn 0.8998 -0.3854 0.2044
vn 0.8418 -0.3731 0.3901
vn 0.7575 -0.3592 0.5451
vn 0.8302 -0.5557 0.0456
vn 0.8118 -0.5489 0.1991
vn 0.7096 -0.4981 0.4983
vn 0.7645 -0.5254 0.3735
vn 0.6568 -0.6590 0.3665
vn 0.0156 0.2292 -0.9732
vn 0.1934 -0.0007 -0.9811
vn 0.0007 -0.0004 -1.0000
vn 0.0151 0.4137 -0.9103
vn 0.1994 0.2017 -0.9589
vn 0.0143 0.5821 -0.8130
vn 0.1949 0.3927 -0.8988
vn 0.0132 0.7284 -0.6851
vn 0.1899 0.5614 -0.8055
vn 0.3810 -0.0007 -0.9246
vn 0.3854 0.2044 -0.8998
vn 0.3731 0.3901 -0.8418
vn 0.1851 0.6896 -0.7001
vn 0.3592 0.5451 -0.7575
vn 0.5549 0.0001 -0.8319
vn 0.5489 0.1991 -0.8118
vn 0.4981 0.4983 -0.7096
vn 0.5254 0.3735 -0.7645
vn 0.4739 0.6225 -0.6228
vn 0.7071 0.0007 -0.7071
vn 0.6879 0.1916 -0.7001
vn 0.6227 0.4739 -0.6226
vn 0.6529 0.3574 -0.6678
vn 0.5774 0.5774 -0.5773
vn 0.1969 0.9792 -0.0495
vn 0.0005 0.9811 -0.1935
vn 0.0008 0.9990 -0.0449
vn 0.3845 0.9219 -0.0486
vn 0.2018 0.9589 -0.1996
vn 0.5574 0.8289 -0.0468
vn 0.3927 0.8988 -0.1949
vn 0.7080 0.7047 -0.0456
vn 0.5614 0.8055 -0.1899
vn 0.0005 0.9245 -0.3811
vn 0.2044 0.8998 -0.3854
vn 0.3901 0.8418 -0.3731
vn 0.6896 0.7001 -0.1851
vn 0.5451 0.7575 -0.3592
vn 0.0012 0.8319 -0.5549
vn 0.1991 0.8118 -0.5489
vn 0.4983 0.7096 -0.4981
vn 0.3735 0.7645 -0.5254
vn 0.6225 0.6228 -0.4739
vn 0.3665 0.6568 -0.6590
vn 0.9731 0.0147 -0.2301
vn 0.9793 0.1964 -0.0481
vn 0.9990 -0.0003 -0.0448
vn 0.9099 0.0142 -0.4145
vn 0.9589 0.1995 -0.2017
vn 0.8126 0.0135 -0.5827
vn 0.8988 0.1949 -0.3927
vn 0.8055 0.1899 -0.5614
vn 0.9225 0.3831 -0.0475
vn 0.8998 0.3854 -0.2044
vn 0.8418 0.3731 -0.3901
vn 0.7575 0.3592 -0.5451
vn 0.8302 0.5557 -0.0456
vn 0.8118 0.5489 -0.1991
vn 0.7096 0.4981 -0.4983
vn 0.7645 0.5254 -0.3735
vn 0.6568 0.6590 -0.3665
vn 0.2301 0.0147 0.9731
vn 0.0005 0.1935 0.9811
vn 0.0008 -0.0003 1.0000
vn 0.4145 0.0142 0.9099
vn 0.2018 0.1995 0.9589
vn 0.5827 0.0135 0.8126
vn 0.3927 0.1949 0.8988
vn 0.7289 0.0124 0.6845
vn 0.5614 0.1899 0.8055
vn 0.0005 0.3811 0.9245
vn 0.2044 0.3854 0.8998
vn 0.3901 0.3731 0.8418
vn 0.6896 0.1851 0.7001
vn 0.5451 0.3592 0.7575
vn 0.0012 0.5549 0.8319
vn 0.1991 0.5489 0.8118
vn 0.4983 0.4981 0.7096
vn 0.3735 0.5254 0.7645
vn 0.6225 0.4739 0.6228
vn 0.0018 0.7071 0.7071
vn 0.1916 0.6879 0.7001
vn 0.4739 0.6227 0.6226
vn 0.3574 0.6529 0.6678
vn 0.5773 0.5773 0.5774
vn 0.9792 0.1969 0.0495
vn 0.9811 -0.0007 0.1934
vn 0.9990 -0.0004 0.0448
vn 0.9218 0.3845 0.0486
vn 0.9589 0.2018 0.1996
vn 0.8289 0.5574 0.0468
vn 0.8988 0.3927 0.1949
vn 0.7047 0.7080 0.0455
vn 0.8055 0.5614 0.1899
vn 0.9246 -0.0007 0.3810
vn 0.8998 0.2044 0.3854
vn 0.8418 0.3901 0.3731
vn 0.7001 0.6896 0.1851
vn 0.7575 0.5451 0.3592
vn 0.8319 0.0001 0.5549
vn 0.8118 0.1991 0.5489
vn 0.7096 0.4983 0.4981
vn 0.7645 0.3735 0.5254
vn 0.6228 0.6225 0.4739
vn 0.6568 0.3665 0.6590
vn 0.0156 0.9732 0.2292
vn 0.1964 0.9793 0.0481
vn 0.0009 0.9990 0.0449
vn 0.0151 0.9103 0.4137
vn 0.1995 0.9589 0.2017
vn 0.0143 0.8130 0.5821
vn 0.1949 0.8988 0.3927
vn 0.1899 0.8055 0.5614
vn 0.3832 0.9225 0.0474
vn 0.3854 0.8998 0.2044
vn 0.3731 0.8418 0.3901
vn 0.3592 0.7575 0.5451
vn 0.5557 0.8302 0.0456
vn 0.5489 0.8118 0.1991
vn 0.4981 0.7096 0.4983
vn 0.5254 0.7645 0.3735
vn 0.6590 0.6568 0.3665
vt 0.146715 0.741862
vt 0.142479 0.739889
vt 0.146715 0.739889
vt 0.146715 0.743758
vt 0.142349 0.741948
vt 0.146715 0.745507
vt 0.142342 0.743860
vt 0.146715 0.750000
vt 0.142380 0.745513
vt 0.138405 0.739889
vt 0.138200 0.741948
vt 0.138309 0.743813
vt 0.142402 0.750000
vt 0.138563 0.745329
vt 0.134651 0.739890
vt 0.134615 0.741920
vt 0.135620 0.745055
vt 0.135029 0.743690
vt 0.135935 0.750000
vt 0.125000 0.739889
vt 0.125000 0.741898
vt 0.125000 0.744909
vt 0.125000 0.743617
vt 0.134178 0.750000
vt 0.487500 0.982521
vt 0.465552 0.978285
vt 0.487500 0.978285
vt 0.487500 0.986595
vt 0.464880 0.982706
vt 0.487500 0.990349
vt 0.464845 0.986812
vt 0.487500 1.000000
vt 0.465043 0.990364
vt 0.444448 0.978285
vt 0.443385 0.982707
vt 0.443948 0.986712
vt 0.465155 1.000000
vt 0.445265 0.989967
vt 0.424998 0.978285
vt 0.424815 0.982646
vt 0.430019 0.989380
vt 0.426960 0.986449
vt 0.431652 1.000000
vt 0.375000 0.978285
vt 0.375000 0.982598
vt 0.375000 0.989065
vt 0.375000 0.986291
vt 0.422548 1.000000
vt 0.465552 0.010111
vt 0.487500 0.008138
vt 0.487500 0.010111
vt 0.444448 0.010111
vt 0.464598 0.008078
vt 0.424998 0.010111
vt 0.443321 0.008075
vt 0.375000 0.010111
vt 0.424923 0.008092
vt 0.487500 0.006241
vt 0.464592 0.006146
vt 0.443845 0.006197
vt 0.375000 0.008102
vt 0.426978 0.006315
vt 0.487500 0.004493
vt 0.464905 0.004477
vt 0.430019 0.004945
vt 0.445206 0.004670
vt 0.375000 0.005091
vt 0.487500 0.000000
vt 0.465155 0.000000
vt 0.431652 0.000000
vt 0.446021 0.000000
vt 0.375000 0.004273
vt 0.534448 0.978285
vt 0.512500 0.982521
vt 0.512500 0.978285
vt 0.555552 0.978285
vt 0.535402 0.982651
vt 0.575002 0.978285
vt 0.556679 0.982658
vt 0.625000 0.978285
vt 0.575077 0.982620
vt 0.512500 0.986595
vt 0.535408 0.986800
vt 0.556155 0.986691
vt 0.625000 0.982598
vt 0.573022 0.986437
vt 0.512500 0.990349
vt 0.535095 0.990385
vt 0.569981 0.989380
vt 0.554794 0.989970
vt 0.625000 0.989065
vt 0.512500 1.000000
vt 0.534845 1.000000
vt 0.568348 1.000000
vt 0.553979 1.000000
vt 0.625000 0.990822
vt 0.857521 0.739889
vt 0.853285 0.741862
vt 0.853285 0.739889
vt 0.861595 0.739889
vt 0.857706 0.741922
vt 0.865349 0.739889
vt 0.861812 0.741925
vt 0.875000 0.739889
vt 0.865364 0.741908
vt 0.853285 0.743758
vt 0.857707 0.743854
vt 0.861711 0.743803
vt 0.875000 0.741897
vt 0.864967 0.743685
vt 0.853285 0.745507
vt 0.857646 0.745523
vt 0.864380 0.745055
vt 0.861449 0.745330
vt 0.875000 0.744909
vt 0.853285 0.750000
vt 0.857598 0.750000
vt 0.864065 0.750000
vt 0.861291 0.750000
vt 0.875000 0.745727
vt 0.512500 0.008138
vt 0.534448 0.010111
vt 0.512500 0.010111
vt 0.512500 0.006241
vt 0.535120 0.008052
vt 0.512500 0.004493
vt 0.535155 0.006140
vt 0.512500 0.000000
vt 0.534957 0.004487
vt 0.555552 0.010111
vt 0.556615 0.008052
vt 0.556052 0.006187
vt 0.534845 0.000000
vt 0.554735 0.004671
vt 0.575002 0.010111
vt 0.575185 0.008080
vt 0.569981 0.004945
vt 0.573040 0.006310
vt 0.568348 0.000000
vt 0.625000 0.010111
vt 0.625000 0.008102
vt 0.625000 0.005091
vt 0.625000 0.006383
vt 0.577452 0.000000
vt 0.142479 0.510111
vt 0.146715 0.508138
vt 0.146715 0.510111
vt 0.138405 0.510111
vt 0.142294 0.508078
vt 0.134651 0.510111
vt 0.138188 0.508075
vt 0.125000 0.510111
vt 0.134636 0.508092
vt 0.146715 0.506242
vt 0.142293 0.506146
vt 0.138289 0.506197
vt 0.125000 0.508103
vt 0.135033 0.506315
vt 0.146715 0.504494
vt 0.142354 0.504477
vt 0.135620 0.504945
vt 0.138551 0.504670
vt 0.125000 0.505091
vt 0.146715 0.500000
vt 0.142402 0.500000
vt 0.135935 0.500000
vt 0.138709 0.500000
vt 0.125000 0.504273
vt 0.487500 0.241862
vt 0.465552 0.239889
vt 0.487500 0.239889
vt 0.487500 0.243759
vt 0.464880 0.241948
vt 0.487500 0.245507
vt 0.464845 0.243860
vt 0.487500 0.250000
vt 0.465043 0.245513
vt 0.444448 0.239889
vt 0.443385 0.241948
vt 0.443948 0.243813
vt 0.465155 0.250000
vt 0.445265 0.245329
vt 0.424998 0.239889
vt 0.424815 0.241920
vt 0.430019 0.245055
vt 0.426960 0.243690
vt 0.431652 0.250000
vt 0.375000 0.239889
vt 0.375000 0.241898
vt 0.375000 0.244909
vt 0.375000 0.243617
vt 0.398774 0.254589
vt 0.465552 0.271715
vt 0.487500 0.267479
vt 0.487500 0.271715
vt 0.444448 0.271715
vt 0.464598 0.267349
vt 0.424998 0.271715
vt 0.443321 0.267342
vt 0.375000 0.271715
vt 0.424923 0.267380
vt 0.487500 0.263405
vt 0.464592 0.263200
vt 0.443845 0.263309
vt 0.375000 0.267402
vt 0.426978 0.263563
vt 0.487500 0.259651
vt 0.464905 0.259615
vt 0.430019 0.260620
vt 0.445206 0.260029
vt 0.375000 0.260935
vt 0.446021 0.250000
vt 0.853285 0.508138
vt 0.857521 0.510111
vt 0.853285 0.510110
vt 0.853285 0.506242
vt 0.857651 0.508052
vt 0.853285 0.504494
vt 0.857658 0.506140
vt 0.853285 0.500000
vt 0.857620 0.504487
vt 0.861595 0.510111
vt 0.861800 0.508052
vt 0.861691 0.506187
vt 0.857598 0.500000
vt 0.861437 0.504671
vt 0.865349 0.510111
vt 0.865385 0.508080
vt 0.864380 0.504945
vt 0.864971 0.506310
vt 0.864065 0.500000
vt 0.875000 0.510111
vt 0.875000 0.508102
vt 0.875000 0.505091
vt 0.875000 0.506383
vt 0.865822 0.500000
vt 0.512500 0.267479
vt 0.534448 0.271715
vt 0.512500 0.271715
vt 0.512500 0.263405
vt 0.535120 0.267294
vt 0.512500 0.259651
vt 0.535155 0.263188
vt 0.512500 0.250000
vt 0.534957 0.259636
vt 0.555552 0.271715
vt 0.556615 0.267293
vt 0.556052 0.263289
vt 0.534845 0.250000
vt 0.554735 0.260033
vt 0.575002 0.271715
vt 0.575185 0.267354
vt 0.569981 0.260620
vt 0.573040 0.263551
vt 0.568348 0.250000
vt 0.625000 0.271715
vt 0.625000 0.267402
vt 0.625000 0.260935
vt 0.625000 0.263709
vt 0.601226 0.247863
vt 0.534448 0.239889
vt 0.512500 0.241862
vt 0.512500 0.239889
vt 0.555552 0.239889
vt 0.535402 0.241922
vt 0.575002 0.239889
vt 0.556679 0.241925
vt 0.625000 0.239889
vt 0.575077 0.241908
vt 0.512500 0.243759
vt 0.535408 0.243854
vt 0.556155 0.243803
vt 0.625000 0.241898
vt 0.573022 0.243685
vt 0.512500 0.245506
vt 0.535095 0.245523
vt 0.569981 0.245055
vt 0.554794 0.245330
vt 0.625000 0.244909
vt 0.553979 0.250000
vt 0.357521 0.739889
vt 0.353285 0.741862
vt 0.353285 0.739889
vt 0.361595 0.739889
vt 0.357706 0.741922
vt 0.365349 0.739889
vt 0.361812 0.741925
vt 0.375000 0.739889
vt 0.365364 0.741908
vt 0.353285 0.743758
vt 0.357707 0.743854
vt 0.361711 0.743803
vt 0.375000 0.741898
vt 0.364967 0.743685
vt 0.353285 0.745506
vt 0.357646 0.745523
vt 0.364380 0.745055
vt 0.361449 0.745330
vt 0.375000 0.744909
vt 0.364142 0.760857
vt 0.366297 0.758699
vt 0.369536 0.755471
vt 0.368154 0.756862
vt 0.390849 0.751635
vt 0.487500 0.741862
vt 0.465552 0.739889
vt 0.487500 0.739889
vt 0.487500 0.743759
vt 0.464880 0.741948
vt 0.487500 0.745507
vt 0.464845 0.743860
vt 0.487500 0.750000
vt 0.465043 0.745513
vt 0.444448 0.739889
vt 0.443385 0.741948
vt 0.443948 0.743813
vt 0.465155 0.750000
vt 0.445265 0.745329
vt 0.424998 0.739889
vt 0.424815 0.741920
vt 0.430019 0.745055
vt 0.426960 0.743690
vt 0.431652 0.750000
vt 0.375000 0.743617
vt 0.465552 0.771715
vt 0.487500 0.767479
vt 0.487500 0.771715
vt 0.444448 0.771715
vt 0.464598 0.767349
vt 0.424998 0.771715
vt 0.443321 0.767342
vt 0.424923 0.767380
vt 0.487500 0.763405
vt 0.464592 0.763200
vt 0.443845 0.763309
vt 0.426978 0.763563
vt 0.487500 0.759651
vt 0.464905 0.759615
vt 0.430019 0.760620
vt 0.445206 0.760030
vt 0.446021 0.750000
vt 0.646715 0.741862
vt 0.642479 0.739889
vt 0.646715 0.739889
vt 0.646715 0.743758
vt 0.642349 0.741948
vt 0.646715 0.745506
vt 0.642342 0.743860
vt 0.635857 0.760858
vt 0.642380 0.745513
vt 0.638405 0.739889
vt 0.638200 0.741948
vt 0.638309 0.743813
vt 0.633699 0.758703
vt 0.638563 0.745329
vt 0.634651 0.739890
vt 0.634615 0.741920
vt 0.635620 0.745055
vt 0.635029 0.743690
vt 0.630472 0.755464
vt 0.625000 0.739889
vt 0.625000 0.741898
vt 0.625000 0.744909
vt 0.625000 0.743617
vt 0.612210 0.748576
vt 0.512500 0.767479
vt 0.534448 0.771715
vt 0.512500 0.771715
vt 0.512500 0.763405
vt 0.535120 0.767294
vt 0.512500 0.759651
vt 0.535155 0.763188
vt 0.512500 0.750000
vt 0.534957 0.759636
vt 0.555552 0.771715
vt 0.556615 0.767293
vt 0.556052 0.763289
vt 0.534845 0.750000
vt 0.554735 0.760033
vt 0.575002 0.771715
vt 0.575185 0.767354
vt 0.569981 0.760620
vt 0.573040 0.763551
vt 0.568348 0.750000
vt 0.631863 0.756846
vt 0.534448 0.739889
vt 0.512500 0.741862
vt 0.512500 0.739889
vt 0.555552 0.739889
vt 0.535402 0.741922
vt 0.575002 0.739889
vt 0.556679 0.741925
vt 0.575077 0.741908
vt 0.512500 0.743758
vt 0.535408 0.743854
vt 0.556155 0.743804
vt 0.573022 0.743685
vt 0.512500 0.745507
vt 0.535095 0.745523
vt 0.569981 0.745055
vt 0.554794 0.745330
vt 0.553979 0.750000
vt 0.353285 0.508138
vt 0.357521 0.510111
vt 0.353285 0.510111
vt 0.353285 0.506242
vt 0.357651 0.508052
vt 0.353285 0.504494
vt 0.357658 0.506140
vt 0.364143 0.489142
vt 0.357620 0.504487
vt 0.361595 0.510111
vt 0.361800 0.508052
vt 0.361691 0.506187
vt 0.366301 0.491297
vt 0.361437 0.504671
vt 0.365349 0.510111
vt 0.365385 0.508080
vt 0.364380 0.504945
vt 0.364971 0.506310
vt 0.369529 0.494536
vt 0.375000 0.510111
vt 0.375000 0.508103
vt 0.375000 0.505091
vt 0.375000 0.506383
vt 0.387790 0.501424
vt 0.487500 0.482521
vt 0.465552 0.478285
vt 0.487500 0.478285
vt 0.487500 0.486595
vt 0.464880 0.482706
vt 0.487500 0.490349
vt 0.464845 0.486812
vt 0.487500 0.500000
vt 0.465043 0.490364
vt 0.444448 0.478285
vt 0.443385 0.482707
vt 0.443948 0.486711
vt 0.465155 0.500000
vt 0.445265 0.489967
vt 0.424998 0.478285
vt 0.424815 0.482646
vt 0.430019 0.489380
vt 0.426960 0.486449
vt 0.431652 0.500000
vt 0.368137 0.493154
vt 0.465552 0.510111
vt 0.487500 0.508138
vt 0.487500 0.510111
vt 0.444448 0.510111
vt 0.464598 0.508078
vt 0.424998 0.510111
vt 0.443321 0.508075
vt 0.424923 0.508092
vt 0.487500 0.506242
vt 0.464592 0.506146
vt 0.443845 0.506197
vt 0.426978 0.506315
vt 0.487500 0.504494
vt 0.464905 0.504477
vt 0.430019 0.504945
vt 0.445206 0.504670
vt 0.446021 0.500000
vt 0.642479 0.510111
vt 0.646715 0.508138
vt 0.646715 0.510111
vt 0.638405 0.510111
vt 0.642295 0.508078
vt 0.634651 0.510111
vt 0.638188 0.508075
vt 0.625000 0.510111
vt 0.634636 0.508092
vt 0.646715 0.506242
vt 0.642293 0.506146
vt 0.638289 0.506197
vt 0.625000 0.508102
vt 0.635033 0.506315
vt 0.646715 0.504494
vt 0.642354 0.504477
vt 0.635620 0.504945
vt 0.638551 0.504670
vt 0.625000 0.505091
vt 0.635858 0.489143
vt 0.633703 0.491301
vt 0.630464 0.494529
vt 0.631846 0.493137
vt 0.609151 0.498365
vt 0.512500 0.508138
vt 0.534448 0.510111
vt 0.512500 0.510111
vt 0.512500 0.506241
vt 0.535120 0.508052
vt 0.512500 0.504493
vt 0.535155 0.506140
vt 0.512500 0.500000
vt 0.534957 0.504487
vt 0.555552 0.510111
vt 0.556615 0.508052
vt 0.556052 0.506187
vt 0.534845 0.500000
vt 0.554735 0.504671
vt 0.575002 0.510111
vt 0.575185 0.508080
vt 0.569980 0.504945
vt 0.573040 0.506310
vt 0.568348 0.500000
vt 0.625000 0.506383
vt 0.534448 0.478285
vt 0.512500 0.482521
vt 0.512500 0.478285
vt 0.555552 0.478285
vt 0.535402 0.482651
vt 0.575002 0.478285
vt 0.556679 0.482658
vt 0.575077 0.482620
vt 0.512500 0.486595
vt 0.535408 0.486800
vt 0.556155 0.486691
vt 0.573022 0.486437
vt 0.512500 0.490349
vt 0.535095 0.490385
vt 0.569981 0.489380
vt 0.554794 0.489971
vt 0.553979 0.500000
vt 0.138709 0.750000
vt 0.446021 1.000000
vt 0.375000 0.006383
vt 0.625000 0.986291
vt 0.875000 0.743617
vt 0.553979 0.000000
vt 0.125000 0.506383
vt 0.375000 0.263709
vt 0.861291 0.500000
vt 0.625000 0.243617
s 1
usemtl slider_black_plastic
f 12/1/7 16/2/8 9/3/9
f 13/4/10 17/5/11 12/1/7
f 14/6/12 18/7/13 13/4/10
f 15/8/14 19/9/15 14/6/12
f 17/5/11 21/10/16 16/2/8
f 18/7/13 22/11/17 17/5/11
f 19/9/15 23/12/18 18/7/13
f 20/13/19 24/14/20 19/9/15
f 22/11/17 26/15/21 21/10/16
f 23/12/18 27/16/22 22/11/17
f 23/12/18 29/17/23 28/18/24
f 24/14/20 30/19/25 29/17/23
f 27/16/22 54/20/26 26/15/21
f 28/18/24 59/21/27 27/16/22
f 28/18/24 69/22/28 64/23/29
f 29/17/23 31/24/30 69/22/28
f 32/25/31 36/26/32 10/27/33
f 33/28/34 37/29/35 32/25/31
f 34/30/36 38/31/37 33/28/34
f 35/32/38 39/33/39 34/30/36
f 37/29/35 41/34/40 36/26/32
f 38/31/37 42/35/41 37/29/35
f 39/33/39 43/36/42 38/31/37
f 40/37/43 44/38/44 39/33/39
f 42/35/41 46/39/45 41/34/40
f 43/36/42 47/40/46 42/35/41
f 43/36/42 49/41/47 48/42/48
f 44/38/44 50/43/49 49/41/47
f 47/40/46 15/44/14 46/39/45
f 48/42/48 20/45/19 47/40/46
f 48/42/48 30/46/25 25/47/50
f 49/41/47 31/48/30 30/46/25
f 51/49/51 55/50/52 11/51/53
f 52/52/54 56/53/55 51/49/51
f 53/54/56 57/55/57 52/52/54
f 54/56/26 58/57/58 53/54/56
f 56/53/55 60/58/59 55/50/52
f 57/55/57 61/59/60 56/53/55
f 58/57/58 62/60/61 57/55/57
f 59/61/27 63/62/62 58/57/58
f 61/59/60 65/63/63 60/58/59
f 62/60/61 66/64/64 61/59/60
f 62/60/61 68/65/65 67/66/66
f 63/62/62 69/67/28 68/65/65
f 66/64/64 35/68/38 65/63/63
f 67/66/66 40/69/43 66/64/64
f 67/66/66 50/70/49 45/71/67
f 68/65/65 31/72/30 50/70/49
f 73/73/68 77/74/69 70/75/70
f 74/76/71 78/77/72 73/73/68
f 75/78/73 79/79/74 74/76/71
f 76/80/75 80/81/76 75/78/73
f 78/77/72 82/82/77 77/74/69
f 79/79/74 83/83/78 78/77/72
f 80/81/76 84/84/79 79/79/74
f 81/85/80 85/86/81 80/81/76
f 83/83/78 87/87/82 82/82/77
f 84/84/79 88/88/83 83/83/78
f 84/84/79 90/89/84 89/90/85
f 85/86/81 91/91/86 90/89/84
f 88/88/83 115/92/87 87/87/82
f 89/90/85 120/93/88 88/88/83
f 89/90/85 130/94/89 125/95/90
f 90/89/84 92/96/91 130/94/89
f 93/97/92 97/98/93 71/99/94
f 94/100/95 98/101/96 93/97/92
f 95/102/97 99/103/98 94/100/95
f 96/104/99 100/105/100 95/102/97
f 98/101/96 102/106/101 97/98/93
f 99/103/98 103/107/102 98/101/96
f 100/105/100 104/108/103 99/103/98
f 101/109/104 105/110/105 100/105/100
f 103/107/102 107/111/106 102/106/101
f 104/108/103 108/112/107 103/107/102
f 104/108/103 110/113/108 109/114/109
f 105/110/105 111/115/110 110/113/108
f 108/112/107 76/116/75 107/111/106
f 109/114/109 81/117/80 108/112/107
f 109/114/109 91/118/86 86/119/111
f 110/113/108 92/120/91 91/118/86
f 112/121/112 116/122/113 72/123/114
f 113/124/115 117/125/116 112/121/112
f 114/126/117 118/127/118 113/124/115
f 115/128/87 119/129/119 114/126/117
f 117/125/116 121/130/120 116/122/113
f 118/127/118 122/131/121 117/125/116
f 119/129/119 123/132/122 118/127/118
f 120/133/88 124/134/123 119/129/119
f 122/131/121 126/135/124 121/130/120
f 123/132/122 127/136/125 122/131/121
f 123/132/122 129/137/126 128/138/127
f 124/134/123 130/139/89 129/137/126
f 127/136/125 96/140/99 126/135/124
f 128/138/127 101/141/104 127/136/125
f 128/138/127 111/142/110 106/143/128
f 129/137/126 92/144/91 111/142/110
f 134/145/129 138/146/130 131/147/131
f 135/148/132 139/149/133 134/145/129
f 136/150/134 140/151/135 135/148/132
f 137/152/136 141/153/137 136/150/134
f 139/149/133 143/154/138 138/146/130
f 140/151/135 144/155/139 139/149/133
f 141/153/137 145/156/140 140/151/135
f 142/157/141 146/158/142 141/153/137
f 144/155/139 148/159/143 143/154/138
f 145/156/140 149/160/144 144/155/139
f 145/156/140 151/161/145 150/162/146
f 146/158/142 152/163/147 151/161/145
f 149/160/144 176/164/148 148/159/143
f 150/162/146 181/165/149 149/160/144
f 150/162/146 191/166/150 186/167/151
f 151/161/145 153/168/152 191/166/150
f 154/169/153 158/170/154 132/171/155
f 155/172/156 159/173/157 154/169/153
f 156/174/158 160/175/159 155/172/156
f 157/176/160 161/177/161 156/174/158
f 159/173/157 163/178/162 158/170/154
f 160/175/159 164/179/163 159/173/157
f 161/177/161 165/180/164 160/175/159
f 162/181/165 166/182/166 161/177/161
f 164/179/163 168/183/167 163/178/162
f 165/180/164 169/184/168 164/179/163
f 165/180/164 171/185/169 170/186/170
f 166/182/166 172/187/171 171/185/169
f 169/184/168 137/188/136 168/183/167
f 170/186/170 142/189/141 169/184/168
f 170/186/170 152/190/147 147/191/172
f 171/185/169 153/192/152 152/190/147
f 173/193/173 177/194/174 133/195/175
f 174/196/176 178/197/177 173/193/173
f 175/198/178 179/199/179 174/196/176
f 176/200/148 180/201/180 175/198/178
f 178/197/177 182/202/181 177/194/174
f 179/199/179 183/203/182 178/197/177
f 180/201/180 184/204/183 179/199/179
f 181/205/149 185/206/184 180/201/180
f 183/203/182 187/207/185 182/202/181
f 184/204/183 188/208/186 183/203/182
f 184/204/183 190/209/187 189/210/188
f 185/206/184 191/211/150 190/209/187
f 188/208/186 157/176/160 187/207/185
f 189/210/188 162/181/165 188/208/186
f 189/210/188 172/187/171 167/212/189
f 190/209/187 153/192/152 172/187/171
f 195/213/190 199/214/191 192/215/192
f 196/216/193 200/217/194 195/213/190
f 197/218/195 201/219/196 196/216/193
f 198/220/197 202/221/198 197/218/195
f 200/217/194 204/222/199 199/214/191
f 201/219/196 205/223/200 200/217/194
f 202/221/198 206/224/201 201/219/196
f 203/225/202 207/226/203 202/221/198
f 205/223/200 209/227/204 204/222/199
f 206/224/201 210/228/205 205/223/200
f 206/224/201 212/229/206 211/230/207
f 207/226/203 213/231/208 212/229/206
f 210/228/205 237/232/209 209/227/204
f 211/230/207 242/233/210 210/228/205
f 211/230/207 252/234/211 247/235/212
f 212/229/206 214/236/213 252/234/211
f 215/237/214 219/238/215 193/239/216
f 216/240/217 220/241/218 215/237/214
f 217/242/219 221/243/220 216/240/217
f 218/244/221 222/245/222 217/242/219
f 220/241/218 224/246/223 219/238/215
f 221/243/220 225/247/224 220/241/218
f 222/245/222 226/248/225 221/243/220
f 223/249/226 227/250/227 222/245/222
f 225/247/224 229/251/228 224/246/223
f 226/248/225 230/252/229 225/247/224
f 226/248/225 232/253/230 231/254/231
f 227/250/227 233/255/232 232/253/230
f 230/252/229 198/256/197 229/251/228
f 231/254/231 203/257/202 230/252/229
f 231/254/231 213/258/208 208/259/233
f 232/253/230 214/260/213 213/258/208
f 234/261/234 238/262/235 194/263/236
f 235/264/237 239/265/238 234/261/234
f 236/266/239 240/267/240 235/264/237
f 237/268/209 241/269/241 236/266/239
f 239/265/238 243/270/242 238/262/235
f 240/267/240 244/271/243 239/265/238
f 241/269/241 245/272/244 240/267/240
f 242/273/210 246/274/245 241/269/241
f 244/271/243 248/275/246 243/270/242
f 245/272/244 249/276/247 244/271/243
f 245/272/244 251/277/248 250/278/249
f 246/274/245 252/279/211 251/277/248
f 249/276/247 218/244/221 248/275/246
f 250/278/249 223/249/226 249/276/247
f 250/278/249 233/255/232 228/280/250
f 251/277/248 214/260/213 233/255/232
f 256/281/251 260/282/252 253/283/253
f 257/284/254 261/285/255 256/281/251
f 258/286/256 262/287/257 257/284/254
f 259/288/258 263/289/259 258/286/256
f 261/285/255 265/290/260 260/282/252
f 262/287/257 266/291/261 261/285/255
f 263/289/259 267/292/262 262/287/257
f 264/293/263 268/294/264 263/289/259
f 266/291/261 270/295/265 265/290/260
f 267/292/262 271/296/266 266/291/261
f 267/292/262 273/297/267 272/298/268
f 268/294/264 274/299/269 273/297/267
f 271/296/266 298/300/270 270/295/265
f 272/298/268 303/301/271 271/296/266
f 272/298/268 313/302/272 308/303/273
f 273/297/267 275/304/274 313/302/272
f 276/305/275 280/306/276 254/307/277
f 277/308/278 281/309/279 276/305/275
f 278/310/280 282/311/281 277/308/278
f 279/312/282 283/313/283 278/310/280
f 281/309/279 285/314/284 280/306/276
f 282/311/281 286/315/285 281/309/279
f 283/313/283 287/316/286 282/311/281
f 284/317/287 288/318/288 283/313/283
f 286/315/285 290/319/289 285/314/284
f 287/316/286 291/320/290 286/315/285
f 287/316/286 293/321/291 292/322/292
f 288/318/288 294/323/293 293/321/291
f 291/320/290 259/288/258 290/319/289
f 292/322/292 264/293/263 291/320/290
f 292/322/292 274/299/269 269/324/294
f 293/321/291 275/304/274 274/299/269
f 295/325/295 299/326/296 255/327/297
f 296/328/298 300/329/299 295/325/295
f 297/330/300 301/331/301 296/328/298
f 298/300/270 302/332/302 297/330/300
f 300/329/299 304/333/303 299/326/296
f 301/331/301 305/334/304 300/329/299
f 302/332/302 306/335/305 301/331/301
f 303/301/271 307/336/306 302/332/302
f 305/334/304 309/337/307 304/333/303
f 306/335/305 310/338/308 305/334/304
f 306/335/305 312/339/309 311/340/310
f 307/336/306 313/302/272 312/339/309
f 310/338/308 279/312/282 309/337/307
f 311/340/310 284/317/287 310/338/308
f 311/340/310 294/323/293 289/341/311
f 312/339/309 275/304/274 294/323/293
f 317/342/312 321/343/313 314/344/314
f 318/345/315 322/346/316 317/342/312
f 319/347/317 323/348/318 318/345/315
f 320/349/319 324/350/320 319/347/317
f 322/346/316 326/351/321 321/343/313
f 323/348/318 327/352/322 322/346/316
f 324/350/320 328/353/323 323/348/318
f 325/354/324 329/355/325 324/350/320
f 327/352/322 331/356/326 326/351/321
f 328/353/323 332/357/327 327/352/322
f 328/353/323 334/358/328 333/359/329
f 329/355/325 335/360/330 334/358/328
f 332/357/327 359/361/331 331/356/326
f 333/359/329 364/362/332 332/357/327
f 333/359/329 374/363/333 369/364/334
f 334/358/328 336/365/335 374/363/333
f 337/366/336 341/367/337 315/368/338
f 338/369/339 342/370/340 337/366/336
f 339/371/341 343/372/342 338/369/339
f 340/373/343 344/374/344 339/371/341
f 342/370/340 346/375/345 341/367/337
f 343/372/342 347/376/346 342/370/340
f 344/374/344 348/377/347 343/372/342
f 345/378/348 349/379/349 344/374/344
f 347/376/346 351/380/350 346/375/345
f 348/377/347 352/381/351 347/376/346
f 348/377/347 354/382/352 353/383/353
f 349/379/349 355/384/354 354/382/352
f 352/381/351 320/349/319 351/380/350
f 353/383/353 325/354/324 352/381/351
f 353/383/353 335/360/330 330/385/355
f 354/382/352 336/365/335 335/360/330
f 356/386/356 360/387/357 316/388/358
f 357/389/359 361/390/360 356/386/356
f 358/391/361 362/392/362 357/389/359
f 359/361/331 363/393/363 358/391/361
f 361/390/360 365/394/364 360/387/357
f 362/392/362 366/395/365 361/390/360
f 363/393/363 367/396/366 362/392/362
f 364/362/332 368/397/367 363/393/363
f 366/395/365 370/398/368 365/394/364
f 367/396/366 371/399/369 366/395/365
f 367/396/366 373/400/370 372/401/371
f 368/397/367 374/363/333 373/400/370
f 371/399/369 340/373/343 370/398/368
f 372/401/371 345/378/348 371/399/369
f 372/401/371 355/384/354 350/402/372
f 373/400/370 336/365/335 355/384/354
f 378/403/373 382/404/374 375/405/375
f 379/406/376 383/407/377 378/403/373
f 380/408/378 384/409/379 379/406/376
f 381/410/380 385/411/381 380/408/378
f 383/407/377 387/412/382 382/404/374
f 384/409/379 388/413/383 383/407/377
f 385/411/381 389/414/384 384/409/379
f 386/415/385 390/416/386 385/411/381
f 388/413/383 392/417/387 387/412/382
f 389/414/384 393/418/388 388/413/383
f 389/414/384 395/419/389 394/420/390
f 390/416/386 396/421/391 395/419/389
f 393/418/388 420/422/392 392/417/387
f 394/420/390 425/423/393 393/418/388
f 394/420/390 435/424/394 430/425/395
f 395/419/389 397/426/396 435/424/394
f 398/427/397 402/428/398 376/429/399
f 399/430/400 403/431/401 398/427/397
f 400/432/402 404/433/403 399/430/400
f 401/434/404 405/435/405 400/432/402
f 403/431/401 407/436/406 402/428/398
f 404/433/403 408/437/407 403/431/401
f 405/435/405 409/438/408 404/433/403
f 406/439/409 410/440/410 405/435/405
f 408/437/407 412/441/411 407/436/406
f 409/438/408 413/442/412 408/437/407
f 409/438/408 415/443/413 414/444/414
f 410/440/410 416/445/415 415/443/413
f 413/442/412 381/410/380 412/441/411
f 414/444/414 386/415/385 413/442/412
f 414/444/414 396/421/391 391/446/416
f 415/443/413 397/426/396 396/421/391
f 417/447/417 421/448/418 377/449/419
f 418/450/420 422/451/421 417/447/417
f 419/452/422 423/453/423 418/450/420
f 420/422/392 424/454/424 419/452/422
f 422/451/421 426/455/425 421/448/418
f 423/453/423 427/456/426 422/451/421
f 424/454/424 428/457/427 423/453/423
f 425/423/393 429/458/428 424/454/424
f 427/456/426 431/459/429 426/455/425
f 428/457/427 432/460/430 427/456/426
f 428/457/427 434/461/431 433/462/432
f 429/458/428 435/424/394 434/461/431
f 432/460/430 401/434/404 431/459/429
f 433/462/432 406/439/409 432/460/430
f 433/462/432 416/445/415 411/463/433
f 434/461/431 397/426/396 416/445/415
f 439/464/434 443/465/435 436/466/436
f 440/467/437 444/468/438 439/464/434
f 441/469/439 445/470/440 440/467/437
f 442/471/441 446/472/442 441/469/439
f 444/468/438 448/473/443 443/465/435
f 445/470/440 449/474/444 444/468/438
f 446/472/442 450/475/445 445/470/440
f 447/476/446 451/477/447 446/472/442
f 449/474/444 453/478/448 448/473/443
f 450/475/445 454/479/449 449/474/444
f 450/475/445 456/480/450 455/481/451
f 451/477/447 457/482/452 456/480/450
f 454/479/449 481/483/453 453/478/448
f 455/481/451 486/484/454 454/479/449
f 455/481/451 496/485/455 491/486/456
f 456/480/450 458/487/457 496/485/455
f 459/488/458 463/489/459 437/490/460
f 460/491/461 464/492/462 459/488/458
f 461/493/463 465/494/464 460/491/461
f 462/495/465 466/496/466 461/493/463
f 464/492/462 468/497/467 463/489/459
f 465/494/464 469/498/468 464/492/462
f 466/496/466 470/499/469 465/494/464
f 467/500/470 471/501/471 466/496/466
f 469/498/468 473/502/472 468/497/467
f 470/499/469 474/503/473 469/498/468
f 470/499/469 476/504/474 475/505/475
f 471/501/471 477/506/476 476/504/474
f 474/503/473 442/471/441 473/502/472
f 475/505/475 447/476/446 474/503/473
f 475/505/475 457/482/452 452/507/477
f 476/504/474 458/487/457 457/482/452
f 478/508/478 482/509/479 438/510/480
f 479/511/481 483/512/482 478/508/478
f 480/513/483 484/514/484 479/511/481
f 481/483/453 485/515/485 480/513/483
f 483/512/482 487/516/486 482/509/479
f 484/514/484 488/517/487 483/512/482
f 485/515/485 489/518/488 484/514/484
f 486/484/454 490/519/489 485/515/485
f 488/517/487 492/520/490 487/516/486
f 489/518/488 493/521/491 488/517/487
f 489/518/488 495/522/492 494/523/493
f 490/519/489 496/485/455 495/522/492
f 493/521/491 462/495/465 492/520/490
f 494/523/493 467/500/470 493/521/491
f 494/523/493 477/506/476 472/524/494
f 495/522/492 458/487/457 477/506/476
f 9/3/9 134/145/129 131/147/131
f 16/2/8 135/148/132 134/145/129
f 21/10/16 136/150/134 135/148/132
f 26/15/21 137/152/136 136/150/134
f 54/56/26 168/183/167 137/188/136
f 53/54/56 163/178/162 168/183/167
f 52/52/54 158/170/154 163/178/162
f 51/49/51 132/171/155 158/170/154
f 10/27/33 77/74/69 32/25/31
f 32/25/31 82/82/77 33/28/34
f 82/82/77 34/30/36 33/28/34
f 87/87/82 35/32/38 34/30/36
f 115/128/87 65/63/63 35/68/38
f 114/126/117 60/58/59 65/63/63
f 113/124/115 55/50/52 60/58/59
f 112/121/112 11/51/53 55/50/52
f 192/215/192 93/97/92 71/99/94
f 199/214/191 94/100/95 93/97/92
f 204/222/199 95/102/97 94/100/95
f 209/227/204 96/104/99 95/102/97
f 237/268/209 126/135/124 96/140/99
f 236/266/239 121/130/120 126/135/124
f 235/264/237 116/122/113 121/130/120
f 234/261/234 72/123/114 116/122/113
f 193/239/216 177/194/174 215/237/214
f 215/237/214 182/202/181 216/240/217
f 216/240/217 187/207/185 217/242/219
f 217/242/219 157/176/160 218/244/221
f 218/244/221 156/174/158 248/275/246
f 248/275/246 155/172/156 243/270/242
f 243/270/242 154/169/153 238/262/235
f 238/262/235 132/171/155 194/263/236
f 131/147/131 378/403/373 375/405/375
f 138/146/130 379/406/376 378/403/373
f 143/154/138 380/408/378 379/406/376
f 148/159/143 381/410/380 380/408/378
f 176/200/148 412/441/411 381/410/380
f 175/198/178 407/436/406 412/441/411
f 174/196/176 402/428/398 407/436/406
f 173/193/173 376/429/399 402/428/398
f 436/466/436 195/213/190 192/215/192
f 443/465/435 196/216/193 195/213/190
f 448/473/443 197/218/195 196/216/193
f 453/478/448 198/220/197 197/218/195
f 481/483/453 229/251/228 198/256/197
f 480/513/483 224/246/223 229/251/228
f 479/511/481 219/238/215 224/246/223
f 478/508/478 193/239/216 219/238/215
f 437/490/460 421/448/418 459/488/458
f 459/488/458 426/455/425 460/491/461
f 460/491/461 431/459/429 461/493/463
f 461/493/463 401/434/404 462/495/465
f 462/495/465 400/432/402 492/520/490
f 492/520/490 399/430/400 487/516/486
f 487/516/486 398/427/397 482/509/479
f 482/509/479 376/429/399 438/510/480
f 375/405/375 256/281/251 253/283/253
f 382/404/374 257/284/254 256/281/251
f 387/412/382 258/286/256 257/284/254
f 392/417/387 259/288/258 258/286/256
f 420/422/392 290/319/289 259/288/258
f 419/452/422 285/314/284 290/319/289
f 418/450/420 280/306/276 285/314/284
f 417/447/417 254/307/277 280/306/276
f 314/344/314 439/464/434 436/466/436
f 321/343/313 440/467/437 439/464/434
f 326/351/321 441/469/439 440/467/437
f 331/356/326 442/471/441 441/469/439
f 359/361/331 473/502/472 442/471/441
f 358/391/361 468/497/467 473/502/472
f 357/389/359 463/489/459 468/497/467
f 356/386/356 437/490/460 463/489/459
f 315/368/338 299/326/296 337/366/336
f 337/366/336 304/333/303 338/369/339
f 338/369/339 309/337/307 339/371/341
f 339/371/341 279/312/282 340/373/343
f 340/373/343 278/310/280 370/398/368
f 370/398/368 277/308/278 365/394/364
f 365/394/364 276/305/275 360/387/357
f 360/387/357 254/307/277 316/388/358
f 253/283/253 12/1/7 9/3/9
f 260/282/252 13/4/10 12/1/7
f 265/290/260 14/6/12 13/4/10
f 270/295/265 15/8/14 14/6/12
f 298/300/270 46/39/45 15/44/14
f 297/330/300 41/34/40 46/39/45
f 296/328/298 36/26/32 41/34/40
f 295/325/295 10/27/33 36/26/32
f 71/99/94 317/342/312 314/344/314
f 97/98/93 318/345/315 317/342/312
f 102/106/101 319/347/317 318/345/315
f 107/111/106 320/349/319 319/347/317
f 76/80/75 351/380/350 320/349/319
f 75/78/73 346/375/345 351/380/350
f 74/76/71 341/367/337 346/375/345
f 73/73/68 315/368/338 341/367/337
f 375/405/375 9/3/9 131/147/131
f 72/123/114 132/171/155 11/51/53
f 315/368/338 10/27/33 255/327/297
f 192/215/192 314/344/314 436/466/436
f 193/239/216 376/429/399 133/195/175
f 437/490/460 254/307/277 377/449/419
f 12/1/7 17/5/11 16/2/8
f 13/4/10 18/7/13 17/5/11
f 14/6/12 19/9/15 18/7/13
f 15/8/14 20/13/19 19/9/15
f 17/5/11 22/11/17 21/10/16
f 18/7/13 23/12/18 22/11/17
f 19/9/15 24/14/20 23/12/18
f 20/13/19 25/525/50 24/14/20
f 22/11/17 27/16/22 26/15/21
f 23/12/18 28/18/24 27/16/22
f 23/12/18 24/14/20 29/17/23
f 24/14/20 25/525/50 30/19/25
f 27/16/22 59/21/27 54/20/26
f 28/18/24 64/23/29 59/21/27
f 28/18/24 29/17/23 69/22/28
f 29/17/23 30/19/25 31/24/30
f 32/25/31 37/29/35 36/26/32
f 33/28/34 38/31/37 37/29/35
f 34/30/36 39/33/39 38/31/37
f 35/32/38 40/37/43 39/33/39
f 37/29/35 42/35/41 41/34/40
f 38/31/37 43/36/42 42/35/41
f 39/33/39 44/38/44 43/36/42
f 40/37/43 45/526/67 44/38/44
f 42/35/41 47/40/46 46/39/45
f 43/36/42 48/42/48 47/40/46
f 43/36/42 44/38/44 49/41/47
f 44/38/44 45/526/67 50/43/49
f 47/40/46 20/45/19 15/44/14
f 48/42/48 25/47/50 20/45/19
f 48/42/48 49/41/47 30/46/25
f 49/41/47 50/43/49 31/48/30
f 51/49/51 56/53/55 55/50/52
f 52/52/54 57/55/57 56/53/55
f 53/54/56 58/57/58 57/55/57
f 54/56/26 59/61/27 58/57/58
f 56/53/55 61/59/60 60/58/59
f 57/55/57 62/60/61 61/59/60
f 58/57/58 63/62/62 62/60/61
f 59/61/27 64/527/29 63/62/62
f 61/59/60 66/64/64 65/63/63
f 62/60/61 67/66/66 66/64/64
f 62/60/61 63/62/62 68/65/65
f 63/62/62 64/527/29 69/67/28
f 66/64/64 40/69/43 35/68/38
f 67/66/66 45/71/67 40/69/43
f 67/66/66 68/65/65 50/70/49
f 68/65/65 69/67/28 31/72/30
f 73/73/68 78/77/72 77/74/69
f 74/76/71 79/79/74 78/77/72
f 75/78/73 80/81/76 79/79/74
f 76/80/75 81/85/80 80/81/76
f 78/77/72 83/83/78 82/82/77
f 79/79/74 84/84/79 83/83/78
f 80/81/76 85/86/81 84/84/79
f 81/85/80 86/528/111 85/86/81
f 83/83/78 88/88/83 87/87/82
f 84/84/79 89/90/85 88/88/83
f 84/84/79 85/86/81 90/89/84
f 85/86/81 86/528/111 91/91/86
f 88/88/83 120/93/88 115/92/87
f 89/90/85 125/95/90 120/93/88
f 89/90/85 90/89/84 130/94/89
f 90/89/84 91/91/86 92/96/91
f 93/97/92 98/101/96 97/98/93
f 94/100/95 99/103/98 98/101/96
f 95/102/97 100/105/100 99/103/98
f 96/104/99 101/109/104 100/105/100
f 98/101/96 103/107/102 102/106/101
f 99/103/98 104/108/103 103/107/102
f 100/105/100 105/110/105 104/108/103
f 101/109/104 106/529/128 105/110/105
f 103/107/102 108/112/107 107/111/106
f 104/108/103 109/114/109 108/112/107
f 104/108/103 105/110/105 110/113/108
f 105/110/105 106/529/128 111/115/110
f 108/112/107 81/117/80 76/116/75
f 109/114/109 86/119/111 81/117/80
f 109/114/109 110/113/108 91/118/86
f 110/113/108 111/115/110 92/120/91
f 112/121/112 117/125/116 116/122/113
f 113/124/115 118/127/118 117/125/116
f 114/126/117 119/129/119 118/127/118
f 115/128/87 120/133/88 119/129/119
f 117/125/116 122/131/121 121/130/120
f 118/127/118 123/132/122 122/131/121
f 119/129/119 124/134/123 123/132/122
f 120/133/88 125/530/90 124/134/123
f 122/131/121 127/136/125 126/135/124
f 123/132/122 128/138/127 127/136/125
f 123/132/122 124/134/123 129/137/126
f 124/134/123 125/530/90 130/139/89
f 127/136/125 101/141/104 96/140/99
f 128/138/127 106/143/128 101/141/104
f 128/138/127 129/137/126 111/142/110
f 129/137/126 130/139/89 92/144/91
f 134/145/129 139/149/133 138/146/130
f 135/148/132 140/151/135 139/149/133
f 136/150/134 141/153/137 140/151/135
f 137/152/136 142/157/141 141/153/137
f 139/149/133 144/155/139 143/154/138
f 140/151/135 145/156/140 144/155/139
f 141/153/137 146/158/142 145/156/140
f 142/157/141 147/531/172 146/158/142
f 144/155/139 149/160/144 148/159/143
f 145/156/140 150/162/146 149/160/144
f 145/156/140 146/158/142 151/161/145
f 146/158/142 147/531/172 152/163/147
f 149/160/144 181/165/149 176/164/148
f 150/162/146 186/167/151 181/165/149
f 150/162/146 151/161/145 191/166/150
f 151/161/145 152/163/147 153/168/152
f 154/169/153 159/173/157 158/170/154
f 155/172/156 160/175/159 159/173/157
f 156/174/158 161/177/161 160/175/159
f 157/176/160 162/181/165 161/177/161
f 159/173/157 164/179/163 163/178/162
f 160/175/159 165/180/164 164/179/163
f 161/177/161 166/182/166 165/180/164
f 162/181/165 167/212/189 166/182/166
f 164/179/163 169/184/168 168/183/167
f 165/180/164 170/186/170 169/184/168
f 165/180/164 166/182/166 171/185/169
f 166/182/166 167/212/189 172/187/171
f 169/184/168 142/189/141 137/188/136
f 170/186/170 147/191/172 142/189/141
f 170/186/170 171/185/169 152/190/147
f 171/185/169 172/187/171 153/192/152
f 173/193/173 178/197/177 177/194/174
f 174/196/176 179/199/179 178/197/177
f 175/198/178 180/201/180 179/199/179
f 176/200/148 181/205/149 180/201/180
f 178/197/177 183/203/182 182/202/181
f 179/199/179 184/204/183 183/203/182
f 180/201/180 185/206/184 184/204/183
f 181/205/149 186/532/151 185/206/184
f 183/203/182 188/208/186 187/207/185
f 184/204/183 189/210/188 188/208/186
f 184/204/183 185/206/184 190/209/187
f 185/206/184 186/532/151 191/211/150
f 188/208/186 162/181/165 157/176/160
f 189/210/188 167/212/189 162/181/165
f 189/210/188 190/209/187 172/187/171
f 190/209/187 191/211/150 153/192/152
f 195/213/190 200/217/194 199/214/191
f 196/216/193 201/219/196 200/217/194
f 197/218/195 202/221/198 201/219/196
f 198/220/197 203/225/202 202/221/198
f 200/217/194 205/223/200 204/222/199
f 201/219/196 206/224/201 205/223/200
f 202/221/198 207/226/203 206/224/201
f 203/225/202 208/533/233 207/226/203
f 205/223/200 210/228/205 209/227/204
f 206/224/201 211/230/207 210/228/205
f 206/224/201 207/226/203 212/229/206
f 207/226/203 208/533/233 213/231/208
f 210/228/205 242/233/210 237/232/209
f 211/230/207 247/235/212 242/233/210
f 211/230/207 212/229/206 252/234/211
f 212/229/206 213/231/208 214/236/213
f 215/237/214 220/241/218 219/238/215
f 216/240/217 221/243/220 220/241/218
f 217/242/219 222/245/222 221/243/220
f 218/244/221 223/249/226 222/245/222
f 220/241/218 225/247/224 224/246/223
f 221/243/220 226/248/225 225/247/224
f 222/245/222 227/250/227 226/248/225
f 223/249/226 228/280/250 227/250/227
f 225/247/224 230/252/229 229/251/228
f 226/248/225 231/254/231 230/252/229
f 226/248/225 227/250/227 232/253/230
f 227/250/227 228/280/250 233/255/232
f 230/252/229 203/257/202 198/256/197
f 231/254/231 208/259/233 203/257/202
f 231/254/231 232/253/230 213/258/208
f 232/253/230 233/255/232 214/260/213
f 234/261/234 239/265/238 238/262/235
f 235/264/237 240/267/240 239/265/238
f 236/266/239 241/269/241 240/267/240
f 237/268/209 242/273/210 241/269/241
f 239/265/238 244/271/243 243/270/242
f 240/267/240 245/272/244 244/271/243
f 241/269/241 246/274/245 245/272/244
f 242/273/210 247/534/212 246/274/245
f 244/271/243 249/276/247 248/275/246
f 245/272/244 250/278/249 249/276/247
f 245/272/244 246/274/245 251/277/248
f 246/274/245 247/534/212 252/279/211
f 249/276/247 223/249/226 218/244/221
f 250/278/249 228/280/250 223/249/226
f 250/278/249 251/277/248 233/255/232
f 251/277/248 252/279/211 214/260/213
f 256/281/251 261/285/255 260/282/252
f 257/284/254 262/287/257 261/285/255
f 258/286/256 263/289/259 262/287/257
f 259/288/258 264/293/263 263/289/259
f 261/285/255 266/291/261 265/290/260
f 262/287/257 267/292/262 266/291/261
f 263/289/259 268/294/264 267/292/262
f 264/293/263 269/324/294 268/294/264
f 266/291/261 271/296/266 270/295/265
f 267/292/262 272/298/268 271/296/266
f 267/292/262 268/294/264 273/297/267
f 268/294/264 269/324/294 274/299/269
f 271/296/266 303/301/271 298/300/270
f 272/298/268 308/303/273 303/301/271
f 272/298/268 273/297/267 313/302/272
f 273/297/267 274/299/269 275/304/274
f 276/305/275 281/309/279 280/306/276
f 277/308/278 282/311/281 281/309/279
f 278/310/280 283/313/283 282/311/281
f 279/312/282 284/317/287 283/313/283
f 281/309/279 286/315/285 285/314/284
f 282/311/281 287/316/286 286/315/285
f 283/313/283 288/318/288 287/316/286
f 284/317/287 289/341/311 288/318/288
f 286/315/285 291/320/290 290/319/289
f 287/316/286 292/322/292 291/320/290
f 287/316/286 288/318/288 293/321/291
f 288/318/288 289/341/311 294/323/293
f 291/320/290 264/293/263 259/288/258
f 292/322/292 269/324/294 264/293/263
f 292/322/292 293/321/291 274/299/269
f 293/321/291 294/323/293 275/304/274
f 295/325/295 300/329/299 299/326/296
f 296/328/298 301/331/301 300/329/299
f 297/330/300 302/332/302 301/331/301
f 298/300/270 303/301/271 302/332/302
f 300/329/299 305/334/304 304/333/303
f 301/331/301 306/335/305 305/334/304
f 302/332/302 307/336/306 306/335/305
f 303/301/271 308/303/273 307/336/306
f 305/334/304 310/338/308 309/337/307
f 306/335/305 311/340/310 310/338/308
f 306/335/305 307/336/306 312/339/309
f 307/336/306 308/303/273 313/302/272
f 310/338/308 284/317/287 279/312/282
f 311/340/310 289/341/311 284/317/287
f 311/340/310 312/339/309 294/323/293
f 312/339/309 313/302/272 275/304/274
f 317/342/312 322/346/316 321/343/313
f 318/345/315 323/348/318 322/346/316
f 319/347/317 324/350/320 323/348/318
f 320/349/319 325/354/324 324/350/320
f 322/346/316 327/352/322 326/351/321
f 323/348/318 328/353/323 327/352/322
f 324/350/320 329/355/325 328/353/323
f 325/354/324 330/385/355 329/355/325
f 327/352/322 332/357/327 331/356/326
f 328/353/323 333/359/329 332/357/327
f 328/353/323 329/355/325 334/358/328
f 329/355/325 330/385/355 335/360/330
f 332/357/327 364/362/332 359/361/331
f 333/359/329 369/364/334 364/362/332
f 333/359/329 334/358/328 374/363/333
f 334/358/328 335/360/330 336/365/335
f 337/366/336 342/370/340 341/367/337
f 338/369/339 343/372/342 342/370/340
f 339/371/341 344/374/344 343/372/342
f 340/373/343 345/378/348 344/374/344
f 342/370/340 347/376/346 346/375/345
f 343/372/342 348/377/347 347/376/346
f 344/374/344 349/379/349 348/377/347
f 345/378/348 350/402/372 349/379/349
f 347/376/346 352/381/351 351/380/350
f 348/377/347 353/383/353 352/381/351
f 348/377/347 349/379/349 354/382/352
f 349/379/349 350/402/372 355/384/354
f 352/381/351 325/354/324 320/349/319
f 353/383/353 330/385/355 325/354/324
f 353/383/353 354/382/352 335/360/330
f 354/382/352 355/384/354 336/365/335
f 356/386/356 361/390/360 360/387/357
f 357/389/359 362/392/362 361/390/360
f 358/391/361 363/393/363 362/392/362
f 359/361/331 364/362/332 363/393/363
f 361/390/360 366/395/365 365/394/364
f 362/392/362 367/396/366 366/395/365
f 363/393/363 368/397/367 367/396/366
f 364/362/332 369/364/334 368/397/367
f 366/395/365 371/399/369 370/398/368
f 367/396/366 372/401/371 371/399/369
f 367/396/366 368/397/367 373/400/370
f 368/397/367 369/364/334 374/363/333
f 371/399/369 345/378/348 340/373/343
f 372/401/371 350/402/372 345/378/348
f 372/401/371 373/400/370 355/384/354
f 373/400/370 374/363/333 336/365/335
f 378/403/373 383/407/377 382/404/374
f 379/406/376 384/409/379 383/407/377
f 380/408/378 385/411/381 384/409/379
f 381/410/380 386/415/385 385/411/381
f 383/407/377 388/413/383 387/412/382
f 384/409/379 389/414/384 388/413/383
f 385/411/381 390/416/386 389/414/384
f 386/415/385 391/446/416 390/416/386
f 388/413/383 393/418/388 392/417/387
f 389/414/384 394/420/390 393/418/388
f 389/414/384 390/416/386 395/419/389
f 390/416/386 391/446/416 396/421/391
f 393/418/388 425/423/393 420/422/392
f 394/420/390 430/425/395 425/423/393
f 394/420/390 395/419/389 435/424/394
f 395/419/389 396/421/391 397/426/396
f 398/427/397 403/431/401 402/428/398
f 399/430/400 404/433/403 403/431/401
f 400/432/402 405/435/405 404/433/403
f 401/434/404 406/439/409 405/435/405
f 403/431/401 408/437/407 407/436/406
f 404/433/403 409/438/408 408/437/407
f 405/435/405 410/440/410 409/438/408
f 406/439/409 411/463/433 410/440/410
f 408/437/407 413/442/412 412/441/411
f 409/438/408 414/444/414 413/442/412
f 409/438/408 410/440/410 415/443/413
f 410/440/410 411/463/433 416/445/415
f 413/442/412 386/415/385 381/410/380
f 414/444/414 391/446/416 386/415/385
f 414/444/414 415/443/413 396/421/391
f 415/443/413 416/445/415 397/426/396
f 417/447/417 422/451/421 421/448/418
f 418/450/420 423/453/423 422/451/421
f 419/452/422 424/454/424 423/453/423
f 420/422/392 425/423/393 424/454/424
f 422/451/421 427/456/426 426/455/425
f 423/453/423 428/457/427 427/456/426
f 424/454/424 429/458/428 428/457/427
f 425/423/393 430/425/395 429/458/428
f 427/456/426 432/460/430 431/459/429
f 428/457/427 433/462/432 432/460/430
f 428/457/427 429/458/428 434/461/431
f 429/458/428 430/425/395 435/424/394
f 432/460/430 406/439/409 401/434/404
f 433/462/432 411/463/433 406/439/409
f 433/462/432 434/461/431 416/445/415
f 434/461/431 435/424/394 397/426/396
f 439/464/434 444/468/438 443/465/435
f 440/467/437 445/470/440 444/468/438
f 441/469/439 446/472/442 445/470/440
f 442/471/441 447/476/446 446/472/442
f 444/468/438 449/474/444 448/473/443
f 445/470/440 450/475/445 449/474/444
f 446/472/442 451/477/447 450/475/445
f 447/476/446 452/507/477 451/477/447
f 449/474/444 454/479/449 453/478/448
f 450/475/445 455/481/451 454/479/449
f 450/475/445 451/477/447 456/480/450
f 451/477/447 452/507/477 457/482/452
f 454/479/449 486/484/454 481/483/453
f 455/481/451 491/486/456 486/484/454
f 455/481/451 456/480/450 496/485/455
f 456/480/450 457/482/452 458/487/457
f 459/488/458 464/492/462 463/489/459
f 460/491/461 465/494/464 464/492/462
f 461/493/463 466/496/466 465/494/464
f 462/495/465 467/500/470 466/496/466
f 464/492/462 469/498/468 468/497/467
f 465/494/464 470/499/469 469/498/468
f 466/496/466 471/501/471 470/499/469
f 467/500/470 472/524/494 471/501/471
f 469/498/468 474/503/473 473/502/472
f 470/499/469 475/505/475 474/503/473
f 470/499/469 471/501/471 476/504/474
f 471/501/471 472/524/494 477/506/476
f 474/503/473 447/476/446 442/471/441
f 475/505/475 452/507/477 447/476/446
f 475/505/475 476/504/474 457/482/452
f 476/504/474 477/506/476 458/487/457
f 478/508/478 483/512/482 482/509/479
f 479/511/481 484/514/484 483/512/482
f 480/513/483 485/515/485 484/514/484
f 481/483/453 486/484/454 485/515/485
f 483/512/482 488/517/487 487/516/486
f 484/514/484 489/518/488 488/517/487
f 485/515/485 490/519/489 489/518/488
f 486/484/454 491/486/456 490/519/489
f 488/517/487 493/521/491 492/520/490
f 489/518/488 494/523/493 493/521/491
f 489/518/488 490/519/489 495/522/492
f 490/519/489 491/486/456 496/485/455
f 493/521/491 467/500/470 462/495/465
f 494/523/493 472/524/494 467/500/470
f 494/523/493 495/522/492 477/506/476
f 495/522/492 496/485/455 458/487/457
f 9/3/9 16/2/8 134/145/129
f 16/2/8 21/10/16 135/148/132
f 21/10/16 26/15/21 136/150/134
f 26/15/21 54/20/26 137/152/136
f 54/56/26 53/54/56 168/183/167
f 53/54/56 52/52/54 163/178/162
f 52/52/54 51/49/51 158/170/154
f 51/49/51 11/51/53 132/171/155
f 10/27/33 70/75/70 77/74/69
f 32/25/31 77/74/69 82/82/77
f 82/82/77 87/87/82 34/30/36
f 87/87/82 115/92/87 35/32/38
f 115/128/87 114/126/117 65/63/63
f 114/126/117 113/124/115 60/58/59
f 113/124/115 112/121/112 55/50/52
f 112/121/112 72/123/114 11/51/53
f 192/215/192 199/214/191 93/97/92
f 199/214/191 204/222/199 94/100/95
f 204/222/199 209/227/204 95/102/97
f 209/227/204 237/232/209 96/104/99
f 237/268/209 236/266/239 126/135/124
f 236/266/239 235/264/237 121/130/120
f 235/264/237 234/261/234 116/122/113
f 234/261/234 194/263/236 72/123/114
f 193/239/216 133/195/175 177/194/174
f 215/237/214 177/194/174 182/202/181
f 216/240/217 182/202/181 187/207/185
f 217/242/219 187/207/185 157/176/160
f 218/244/221 157/176/160 156/174/158
f 248/275/246 156/174/158 155/172/156
f 243/270/242 155/172/156 154/169/153
f 238/262/235 154/169/153 132/171/155
f 131/147/131 138/146/130 378/403/373
f 138/146/130 143/154/138 379/406/376
f 143/154/138 148/159/143 380/408/378
f 148/159/143 176/164/148 381/410/380
f 176/200/148 175/198/178 412/441/411
f 175/198/178 174/196/176 407/436/406
f 174/196/176 173/193/173 402/428/398
f 173/193/173 133/195/175 376/429/399
f 436/466/436 443/465/435 195/213/190
f 443/465/435 448/473/443 196/216/193
f 448/473/443 453/478/448 197/218/195
f 453/478/448 481/483/453 198/220/197
f 481/483/453 480/513/483 229/251/228
f 480/513/483 479/511/481 224/246/223
f 479/511/481 478/508/478 219/238/215
f 478/508/478 438/510/480 193/239/216
f 437/490/460 377/449/419 421/448/418
f 459/488/458 421/448/418 426/455/425
f 460/491/461 426/455/425 431/459/429
f 461/493/463 431/459/429 401/434/404
f 462/495/465 401/434/404 400/432/402
f 492/520/490 400/432/402 399/430/400
f 487/516/486 399/430/400 398/427/397
f 482/509/479 398/427/397 376/429/399
f 375/405/375 382/404/374 256/281/251
f 382/404/374 387/412/382 257/284/254
f 387/412/382 392/417/387 258/286/256
f 392/417/387 420/422/392 259/288/258
f 420/422/392 419/452/422 290/319/289
f 419/452/422 418/450/420 285/314/284
f 418/450/420 417/447/417 280/306/276
f 417/447/417 377/449/419 254/307/277
f 314/344/314 321/343/313 439/464/434
f 321/343/313 326/351/321 440/467/437
f 326/351/321 331/356/326 441/469/439
f 331/356/326 359/361/331 442/471/441
f 359/361/331 358/391/361 473/502/472
f 358/391/361 357/389/359 468/497/467
f 357/389/359 356/386/356 463/489/459
f 356/386/356 316/388/358 437/490/460
f 315/368/338 255/327/297 299/326/296
f 337/366/336 299/326/296 304/333/303
f 338/369/339 304/333/303 309/337/307
f 339/371/341 309/337/307 279/312/282
f 340/373/343 279/312/282 278/310/280
f 370/398/368 278/310/280 277/308/278
f 365/394/364 277/308/278 276/305/275
f 360/387/357 276/305/275 254/307/277
f 253/283/253 260/282/252 12/1/7
f 260/282/252 265/290/260 13/4/10
f 265/290/260 270/295/265 14/6/12
f 270/295/265 298/300/270 15/8/14
f 298/300/270 297/330/300 46/39/45
f 297/330/300 296/328/298 41/34/40
f 296/328/298 295/325/295 36/26/32
f 295/325/295 255/327/297 10/27/33
f 71/99/94 97/98/93 317/342/312
f 97/98/93 102/106/101 318/345/315
f 102/106/101 107/111/106 319/347/317
f 107/111/106 76/116/75 320/349/319
f 76/80/75 75/78/73 351/380/350
f 75/78/73 74/76/71 346/375/345
f 74/76/71 73/73/68 341/367/337
f 73/73/68 70/75/70 315/368/338
f 375/405/375 253/283/253 9/3/9
f 72/123/114 194/263/236 132/171/155
f 315/368/338 70/75/70 10/27/33
f 192/215/192 71/99/94 314/344/314
f 193/239/216 438/510/480 376/429/399
f 437/490/460 316/388/358 254/307/277
o printed_thumb_pad
v 0.025146 -0.065940 0.014110
v 0.027202 -0.065614 0.014110
v 0.029056 -0.064670 0.014110
v 0.030528 -0.063198 0.014110
v 0.031473 -0.061344 0.014110
v 0.031799 -0.059288 0.014110
v 0.031799 0.059288 0.014110
v 0.031473 0.061344 0.014110
v 0.030528 0.063198 0.014110
v 0.029056 0.064670 0.014110
v 0.027202 0.065614 0.014110
v 0.025146 0.065940 0.014110
v -0.025146 0.065940 0.014110
v -0.027202 0.065614 0.014110
v -0.029056 0.064670 0.014110
v -0.030528 0.063198 0.014110
v -0.031473 0.061344 0.014110
v -0.031799 0.059288 0.014110
v -0.031799 -0.059288 0.014110
v -0.031473 -0.061344 0.014110
v -0.030528 -0.063198 0.014110
v -0.029056 -0.064670 0.014110
v -0.027202 -0.065614 0.014110
v -0.025146 -0.065940 0.014110
v 0.025146 -0.065940 0.016150
v 0.027202 -0.065614 0.016150
v 0.029056 -0.064670 0.016150
v 0.030528 -0.063198 0.016150
v 0.031473 -0.061344 0.016150
v 0.031799 -0.059288 0.016150
v 0.031799 0.059288 0.016150
v 0.031473 0.061344 0.016150
v 0.030528 0.063198 0.016150
v 0.029056 0.064670 0.016150
v 0.027202 0.065614 0.016150
v 0.025146 0.065940 0.016150
v -0.025146 0.065940 0.016150
v -0.027202 0.065614 0.016150
v -0.029056 0.064670 0.016150
v -0.030528 0.063198 0.016150
v -0.031473 0.061344 0.016150
v -0.031799 0.059288 0.016150
v -0.031799 -0.059288 0.016150
v -0.031473 -0.061344 0.016150
v -0.030528 -0.063198 0.016150
v -0.029056 -0.064670 0.016150
v -0.027202 -0.065614 0.016150
v -0.025146 -0.065940 0.016150
vn -0.0000 -0.0000 -1.0000
vn -0.0000 -0.0000 1.0000
vn 0.1564 -0.9877 -0.0000
vn 0.4540 -0.8910 -0.0000
vn 0.7071 -0.7071 -0.0000
vn 0.8910 -0.4540 -0.0000
vn 0.9877 -0.1564 -0.0000
vn 1.0000 -0.0000 -0.0000
vn 0.9877 0.1564 -0.0000
vn 0.8910 0.4540 -0.0000
vn 0.7071 0.7071 -0.0000
vn 0.4540 0.8910 -0.0000
vn 0.1564 0.9877 -0.0000
vn -0.0000 1.0000 -0.0000
vn -0.1564 0.9877 -0.0000
vn -0.4540 0.8910 -0.0000
vn -0.7071 0.7071 -0.0000
vn -0.8910 0.4540 -0.0000
vn -0.9877 0.1564 -0.0000
vn -1.0000 -0.0000 -0.0000
vn -0.9877 -0.1564 -0.0000
vn -0.8910 -0.4540 -0.0000
vn -0.7071 -0.7071 -0.0000
vn -0.4540 -0.8910 -0.0000
vn -0.1564 -0.9877 -0.0000
vn -0.0000 -1.0000 -0.0000
vt 0.965146 0.994881
vt 0.979208 0.019976
vt 0.000000 0.104598
vt 0.965146 0.005119
vt 0.979208 0.980024
vt 0.000000 0.895402
vt 0.002469 0.072275
vt 0.009633 0.043117
vt 0.020792 0.019976
vt 0.034854 0.005119
vt 0.050441 -0.000000
vt 0.949560 -0.000000
vt 0.990367 0.043117
vt 0.997531 0.072275
vt 1.000000 0.104598
vt 1.000000 0.895402
vt 0.997531 0.927725
vt 0.990367 0.956883
vt 0.949560 1.000000
vt 0.050441 1.000000
vt 0.034854 0.994881
vt 0.020792 0.980024
vt 0.009633 0.956883
vt 0.002469 0.927725
s 0
usemtl slider_black_plastic
f 513/535/495 505/536/495 497/537/495
f 498/541/497 521/537/497 497/537/497
f 499/542/498 522/541/498 498/541/498
f 500/543/499 523/542/499 499/542/499
f 501/544/500 524/543/500 500/543/500
f 502/545/501 525/544/501 501/544/501
f 503/546/502 526/545/502 502/545/502
f 504/538/503 527/546/503 503/546/503
f 505/536/504 528/538/504 504/538/504
f 506/547/505 529/536/505 505/536/505
f 507/548/506 530/547/506 506/547/506
f 508/549/507 531/548/507 507/548/507
f 509/550/508 532/549/508 508/549/508
f 510/551/509 533/550/509 509/550/509
f 511/552/510 534/551/510 510/551/510
f 512/539/511 535/552/511 511/552/511
f 513/535/512 536/539/512 512/539/512
f 514/553/513 537/535/513 513/535/513
f 515/554/514 538/553/514 514/553/514
f 516/555/515 539/554/515 515/554/515
f 517/556/516 540/555/516 516/555/516
f 518/557/517 541/556/517 517/556/517
f 519/558/518 542/557/518 518/557/518
f 520/540/519 543/558/519 519/558/519
f 497/537/520 544/540/520 520/540/520
f 497/537/495 520/540/495 519/558/495
f 519/558/495 518/557/495 517/556/495
f 517/556/495 516/555/495 515/554/495
f 515/554/495 514/553/495 513/535/495
f 513/535/495 512/539/495 511/552/495
f 511/552/495 510/551/495 509/550/495
f 509/550/495 508/549/495 507/548/495
f 507/548/495 506/547/495 505/536/495
f 505/536/495 504/538/495 503/546/495
f 503/546/495 502/545/495 501/544/495
f 501/544/495 500/543/495 499/542/495
f 499/542/495 498/541/495 497/537/495
f 497/537/495 519/558/495 517/556/495
f 517/556/495 515/554/495 513/535/495
f 513/535/495 511/552/495 509/550/495
f 509/550/495 507/548/495 505/536/495
f 505/536/495 503/546/495 501/544/495
f 501/544/495 499/542/495 497/537/495
f 497/537/495 517/556/495 513/535/495
f 513/535/495 509/550/495 505/536/495
f 505/536/495 501/544/495 497/537/495
f 498/541/497 522/541/497 521/537/497
f 499/542/498 523/542/498 522/541/498
f 500/543/499 524/543/499 523/542/499
f 501/544/500 525/544/500 524/543/500
f 502/545/501 526/545/501 525/544/501
f 503/546/502 527/546/502 526/545/502
f 504/538/503 528/538/503 527/546/503
f 505/536/504 529/536/504 528/538/504
f 506/547/505 530/547/505 529/536/505
f 507/548/506 531/548/506 530/547/506
f 508/549/507 532/549/507 531/548/507
f 509/550/508 533/550/508 532/549/508
f 510/551/509 534/551/509 533/550/509
f 511/552/510 535/552/510 534/551/510
f 512/539/511 536/539/511 535/552/511
f 513/535/512 537/535/512 536/539/512
f 514/553/513 538/553/513 537/535/513
f 515/554/514 539/554/514 538/553/514
f 516/555/515 540/555/515 539/554/515
f 517/556/516 541/556/516 540/555/516
f 518/557/517 542/557/517 541/556/517
f 519/558/518 543/558/518 542/557/518
f 520/540/519 544/540/519 543/558/519
f 497/537/520 521/537/520 544/540/520
usemtl thumb_print
f 528/538/496 536/539/496 544/540/496
f 544/540/496 521/537/496 522/541/496
f 522/541/496 523/542/496 524/543/496
f 524/543/496 525/544/496 526/545/496
f 526/545/496 527/546/496 528/538/496
f 528/538/496 529/536/496 530/547/496
f 530/547/496 531/548/496 532/549/496
f 532/549/496 533/550/496 534/551/496
f 534/551/496 535/552/496 536/539/496
f 536/539/496 537/535/496 538/553/496
f 538/553/496 539/554/496 540/555/496
f 540/555/496 541/556/496 542/557/496
f 542/557/496 543/558/496 544/540/496
f 544/540/496 522/541/496 524/543/496
f 524/543/496 526/545/496 528/538/496
f 528/538/496 530/547/496 532/549/496
f 532/549/496 534/551/496 536/539/496
f 536/539/496 538/553/496 540/555/496
f 540/555/496 542/557/496 544/540/496
f 544/540/496 524/543/496 528/538/496
f 528/538/496 532/549/496 536/539/496
f 536/539/496 540/555/496 544/540/496
