# Blender 4.5.0
# www.blender.org
mtllib mesh_001.mtl
o mesh_001
v 0.000000 -0.030000 0.010300
v -0.006973 -0.021395 0.011692
v 0.000000 -0.030000 0.012700
v -0.006767 -0.021678 0.012042
v -0.001958 -0.029872 0.010300
v -0.007256 -0.021601 0.012042
v -0.001958 -0.029872 0.012700
v -0.006933 -0.021450 0.011699
v -0.006894 -0.021503 0.011719
v -0.003882 -0.029489 0.010300
v -0.006859 -0.021552 0.011751
v -0.003882 -0.029489 0.012700
v -0.005740 -0.028858 0.010300
v -0.006827 -0.021595 0.011795
v -0.005740 -0.028858 0.012700
v -0.007028 -0.021435 0.011699
v -0.006988 -0.021494 0.011707
v -0.007500 -0.027990 0.010300
v -0.007500 -0.027990 0.012700
v -0.006949 -0.021547 0.011728
v -0.006915 -0.021593 0.011760
v -0.009131 -0.026900 0.010300
v -0.009131 -0.026900 0.012700
v -0.006887 -0.021632 0.011799
v -0.007081 -0.021474 0.011719
v -0.010607 -0.025607 0.010300
v -0.007042 -0.021533 0.011728
v -0.010607 -0.025607 0.012700
v -0.011900 -0.024131 0.010300
v -0.007003 -0.021584 0.011749
v -0.011900 -0.024131 0.012700
v -0.006969 -0.021624 0.011778
v -0.006942 -0.021657 0.011812
v -0.012990 -0.022500 0.010300
v -0.007130 -0.021509 0.011751
v -0.012990 -0.022500 0.012700
v -0.013858 -0.020740 0.010300
v -0.007089 -0.021566 0.011760
v -0.007048 -0.021612 0.011778
v -0.013858 -0.020740 0.012700
v -0.014489 -0.018882 0.010300
v -0.007012 -0.021645 0.011800
v -0.014489 -0.018882 0.012700
v -0.006987 -0.021671 0.011827
v -0.014872 -0.016958 0.010300
v -0.007018 -0.021677 0.011840
v -0.014872 -0.016958 0.012700
v -0.006826 -0.021713 0.012042
v -0.015000 -0.015000 0.010300
v -0.006891 -0.021735 0.012042
v -0.015000 -0.015000 0.012700
v -0.006959 -0.021745 0.012042
v -0.014872 -0.013042 0.010300
v -0.007028 -0.021741 0.012042
v -0.014872 -0.013042 0.012700
v -0.006771 -0.021673 0.011974
v -0.006833 -0.021708 0.011972
v -0.014489 -0.011118 0.010300
v -0.006899 -0.021730 0.011972
v -0.014489 -0.011118 0.012700
v -0.006964 -0.021738 0.011972
v -0.013858 -0.009260 0.010300
v -0.007026 -0.021734 0.011972
v -0.013858 -0.009260 0.012700
v -0.012990 -0.007500 0.010300
v -0.006783 -0.021656 0.011908
v -0.012990 -0.007500 0.012700
v -0.006846 -0.021691 0.011905
v -0.011900 -0.005869 0.010300
v -0.006911 -0.021712 0.011907
v -0.011900 -0.005869 0.012700
v -0.006970 -0.021719 0.011911
v -0.010607 -0.004393 0.010300
v -0.007024 -0.021716 0.011913
v -0.006802 -0.021630 0.011848
v -0.010607 -0.004393 0.012700
v -0.006864 -0.021664 0.011847
v -0.009131 -0.003100 0.010300
v -0.009131 -0.003100 0.012700
v -0.006924 -0.021686 0.011854
v -0.006975 -0.021696 0.011863
v -0.007500 -0.002010 0.010300
v -0.007500 -0.002010 0.012700
v -0.007020 -0.021695 0.011868
v -0.005740 -0.001142 0.010300
v -0.007251 -0.021597 0.011974
v -0.007234 -0.021585 0.011908
v -0.005740 -0.001142 0.012700
v -0.007208 -0.021566 0.011848
v -0.003882 -0.000511 0.010300
v -0.007173 -0.021540 0.011795
v -0.003882 -0.000511 0.012700
v -0.007210 -0.021652 0.012042
v -0.001958 -0.000128 0.010300
v -0.007203 -0.021649 0.011971
v -0.001958 -0.000128 0.012700
v -0.000000 0.000000 0.010300
v -0.007186 -0.021637 0.011905
v -0.000000 0.000000 0.012700
v -0.007160 -0.021617 0.011847
v -0.007128 -0.021594 0.011800
v 0.001958 -0.000128 0.010300
v 0.001958 -0.000128 0.012700
v -0.007156 -0.021693 0.012042
v 0.003882 -0.000511 0.010300
v -0.007146 -0.021690 0.011971
v 0.003882 -0.000511 0.012700
v -0.007130 -0.021677 0.011906
v -0.007109 -0.021656 0.011854
v 0.005740 -0.001142 0.010300
v -0.007083 -0.021635 0.011812
v 0.005740 -0.001142 0.012700
v -0.007094 -0.021723 0.012042
v 0.007500 -0.002010 0.010300
v -0.007086 -0.021718 0.011972
v 0.007500 -0.002010 0.012700
v -0.007076 -0.021702 0.011910
v 0.009131 -0.003100 0.010300
v -0.007064 -0.021682 0.011863
v 0.009131 -0.003100 0.012700
v 0.010607 -0.004393 0.010300
v -0.007045 -0.021662 0.011827
v 0.010607 -0.004393 0.012700
v 0.011900 -0.005869 0.010300
v 0.011900 -0.005869 0.012700
v 0.012990 -0.007500 0.010300
v 0.012990 -0.007500 0.012700
v 0.013858 -0.009260 0.010300
v 0.013858 -0.009260 0.012700
v 0.014489 -0.011118 0.010300
v 0.014489 -0.011118 0.012700
v 0.014872 -0.013042 0.010300
v 0.014872 -0.013042 0.012700
v 0.015000 -0.015000 0.010300
v 0.015000 -0.015000 0.012700
v 0.014872 -0.016958 0.010300
v 0.014872 -0.016958 0.012700
v 0.014489 -0.018882 0.010300
v 0.014489 -0.018882 0.012700
v 0.013858 -0.020740 0.010300
v 0.013858 -0.020740 0.012700
v 0.012990 -0.022500 0.010300
v 0.012990 -0.022500 0.012700
v 0.011900 -0.024131 0.010300
v 0.011900 -0.024131 0.012700
v 0.010607 -0.025607 0.010300
v 0.010607 -0.025607 0.012700
v 0.009131 -0.026900 0.010300
v 0.009131 -0.026900 0.012700
v 0.007500 -0.027990 0.010300
v 0.007500 -0.027990 0.012700
v 0.005740 -0.028858 0.010300
v 0.005740 -0.028858 0.012700
v 0.003882 -0.029489 0.010300
v 0.003882 -0.029489 0.012700
v 0.001958 -0.029872 0.010300
v 0.001958 -0.029872 0.012700
v -0.008237 -0.019655 0.011692
v -0.008520 -0.019861 0.012042
v -0.008442 -0.019372 0.012042
v -0.008292 -0.019696 0.011699
v -0.008345 -0.019734 0.011719
v -0.008394 -0.019770 0.011751
v -0.008437 -0.019801 0.011795
v -0.008277 -0.019600 0.011699
v -0.008336 -0.019640 0.011707
v -0.008389 -0.019679 0.011728
v -0.008435 -0.019713 0.011760
v -0.008474 -0.019742 0.011799
v -0.008315 -0.019547 0.011719
v -0.008375 -0.019586 0.011728
v -0.008426 -0.019626 0.011749
v -0.008466 -0.019660 0.011778
v -0.008499 -0.019686 0.011812
v -0.008351 -0.019498 0.011751
v -0.008408 -0.019539 0.011760
v -0.008454 -0.019580 0.011778
v -0.008486 -0.019616 0.011800
v -0.008513 -0.019641 0.011827
v -0.008519 -0.019611 0.011840
v -0.008554 -0.019802 0.012042
v -0.008577 -0.019737 0.012042
v -0.008586 -0.019669 0.012042
v -0.008582 -0.019601 0.012042
v -0.008514 -0.019857 0.011974
v -0.008550 -0.019795 0.011972
v -0.008572 -0.019729 0.011972
v -0.008579 -0.019664 0.011972
v -0.008575 -0.019602 0.011972
v -0.008498 -0.019846 0.011908
v -0.008533 -0.019782 0.011905
v -0.008553 -0.019718 0.011907
v -0.008561 -0.019658 0.011911
v -0.008558 -0.019605 0.011913
v -0.008472 -0.019827 0.011848
v -0.008506 -0.019764 0.011847
v -0.008528 -0.019704 0.011854
v -0.008537 -0.019653 0.011863
v -0.008537 -0.019608 0.011868
v -0.008438 -0.019378 0.011974
v -0.008427 -0.019394 0.011908
v -0.008408 -0.019420 0.011848
v -0.008382 -0.019455 0.011795
v -0.008494 -0.019418 0.012042
v -0.008491 -0.019426 0.011971
v -0.008478 -0.019443 0.011905
v -0.008459 -0.019468 0.011847
v -0.008436 -0.019500 0.011800
v -0.008535 -0.019473 0.012042
v -0.008532 -0.019482 0.011971
v -0.008518 -0.019498 0.011906
v -0.008498 -0.019519 0.011854
v -0.008476 -0.019545 0.011812
v -0.008565 -0.019534 0.012042
v -0.008560 -0.019542 0.011972
v -0.008544 -0.019553 0.011910
v -0.008524 -0.019565 0.011863
v -0.008503 -0.019584 0.011827
v 0.008237 -0.010345 0.011692
v 0.008520 -0.010139 0.012042
v 0.008442 -0.010628 0.012042
v 0.008292 -0.010304 0.011699
v 0.008345 -0.010266 0.011719
v 0.008394 -0.010230 0.011751
v 0.008437 -0.010199 0.011795
v 0.008277 -0.010400 0.011699
v 0.008336 -0.010360 0.011707
v 0.008389 -0.010321 0.011728
v 0.008435 -0.010287 0.011760
v 0.008474 -0.010258 0.011799
v 0.008315 -0.010453 0.011719
v 0.008375 -0.010414 0.011728
v 0.008426 -0.010374 0.011749
v 0.008466 -0.010340 0.011778
v 0.008499 -0.010314 0.011812
v 0.008351 -0.010502 0.011751
v 0.008408 -0.010461 0.011760
v 0.008454 -0.010420 0.011778
v 0.008486 -0.010384 0.011800
v 0.008513 -0.010359 0.011827
v 0.008519 -0.010389 0.011840
v 0.008554 -0.010198 0.012042
v 0.008577 -0.010263 0.012042
v 0.008586 -0.010331 0.012042
v 0.008582 -0.010399 0.012042
v 0.008514 -0.010143 0.011974
v 0.008550 -0.010205 0.011972
v 0.008572 -0.010271 0.011972
v 0.008579 -0.010336 0.011972
v 0.008575 -0.010398 0.011972
v 0.008498 -0.010154 0.011908
v 0.008533 -0.010218 0.011905
v 0.008553 -0.010282 0.011907
v 0.008561 -0.010342 0.011911
v 0.008558 -0.010395 0.011913
v 0.008472 -0.010173 0.011848
v 0.008506 -0.010236 0.011847
v 0.008528 -0.010296 0.011854
v 0.008537 -0.010347 0.011863
v 0.008537 -0.010392 0.011868
v 0.008438 -0.010622 0.011974
v 0.008427 -0.010606 0.011908
v 0.008408 -0.010580 0.011848
v 0.008382 -0.010545 0.011795
v 0.008494 -0.010582 0.012042
v 0.008491 -0.010574 0.011971
v 0.008478 -0.010557 0.011905
v 0.008459 -0.010532 0.011847
v 0.008436 -0.010500 0.011800
v 0.008535 -0.010527 0.012042
v 0.008532 -0.010518 0.011971
v 0.008518 -0.010502 0.011906
v 0.008498 -0.010481 0.011854
v 0.008476 -0.010455 0.011812
v 0.008565 -0.010466 0.012042
v 0.008560 -0.010458 0.011972
v 0.008544 -0.010447 0.011910
v 0.008524 -0.010435 0.011863
v 0.008503 -0.010416 0.011827
v 0.006973 -0.008605 0.011692
v 0.006767 -0.008322 0.012042
v 0.007256 -0.008399 0.012042
v 0.006933 -0.008550 0.011699
v 0.006894 -0.008497 0.011719
v 0.006859 -0.008448 0.011751
v 0.006827 -0.008405 0.011795
v 0.007028 -0.008565 0.011699
v 0.006988 -0.008506 0.011707
v 0.006949 -0.008453 0.011728
v 0.006915 -0.008407 0.011760
v 0.006887 -0.008368 0.011799
v 0.007081 -0.008526 0.011719
v 0.007042 -0.008467 0.011728
v 0.007003 -0.008416 0.011749
v 0.006969 -0.008376 0.011778
v 0.006942 -0.008343 0.011812
v 0.007130 -0.008491 0.011751
v 0.007089 -0.008434 0.011760
v 0.007048 -0.008388 0.011778
v 0.007012 -0.008355 0.011800
v 0.006987 -0.008329 0.011827
v 0.007018 -0.008323 0.011840
v 0.006826 -0.008287 0.012042
v 0.006891 -0.008265 0.012042
v 0.006959 -0.008255 0.012042
v 0.007028 -0.008259 0.012042
v 0.006771 -0.008327 0.011974
v 0.006833 -0.008292 0.011972
v 0.006899 -0.008270 0.011972
v 0.006964 -0.008262 0.011972
v 0.007026 -0.008266 0.011972
v 0.006783 -0.008344 0.011908
v 0.006846 -0.008309 0.011905
v 0.006911 -0.008288 0.011907
v 0.006970 -0.008281 0.011911
v 0.007024 -0.008284 0.011913
v 0.006802 -0.008370 0.011848
v 0.006864 -0.008336 0.011847
v 0.006924 -0.008314 0.011854
v 0.006975 -0.008304 0.011863
v 0.007020 -0.008305 0.011868
v 0.007251 -0.008403 0.011974
v 0.007234 -0.008415 0.011908
v 0.007208 -0.008434 0.011848
v 0.007173 -0.008460 0.011795
v 0.007210 -0.008348 0.012042
v 0.007203 -0.008351 0.011971
v 0.007186 -0.008363 0.011905
v 0.007160 -0.008383 0.011847
v 0.007128 -0.008406 0.011800
v 0.007156 -0.008307 0.012042
v 0.007146 -0.008310 0.011971
v 0.007130 -0.008323 0.011906
v 0.007109 -0.008344 0.011854
v 0.007083 -0.008365 0.011812
v 0.007094 -0.008277 0.012042
v 0.007086 -0.008282 0.011972
v 0.007076 -0.008298 0.011910
v 0.007064 -0.008318 0.011863
v 0.007045 -0.008338 0.011827
v 0.006767 -0.008322 0.012700
v 0.006959 -0.008255 0.012700
v 0.006891 -0.008265 0.012700
v 0.006826 -0.008287 0.012700
v 0.007156 -0.008307 0.012700
v 0.007094 -0.008277 0.012700
v 0.007256 -0.008399 0.012700
v 0.007210 -0.008348 0.012700
v 0.007028 -0.008259 0.012700
v -0.008586 -0.019669 0.012700
v -0.008582 -0.019601 0.012700
v -0.008577 -0.019737 0.012700
v -0.008565 -0.019534 0.012700
v -0.008494 -0.019418 0.012700
v -0.008442 -0.019372 0.012700
v -0.008520 -0.019861 0.012700
v -0.008535 -0.019473 0.012700
v -0.008554 -0.019802 0.012700
v -0.007210 -0.021652 0.012700
v -0.007028 -0.021741 0.012700
v -0.007094 -0.021723 0.012700
v -0.007156 -0.021693 0.012700
v -0.006891 -0.021735 0.012700
v -0.006767 -0.021678 0.012700
v -0.006826 -0.021713 0.012700
v -0.006959 -0.021745 0.012700
v -0.007256 -0.021601 0.012700
v 0.008442 -0.010628 0.012700
v 0.008494 -0.010582 0.012700
v 0.008520 -0.010139 0.012700
v 0.008554 -0.010198 0.012700
v 0.008582 -0.010399 0.012700
v 0.008586 -0.010331 0.012700
v 0.008577 -0.010263 0.012700
v 0.008535 -0.010527 0.012700
v 0.008565 -0.010466 0.012700
v 0.000000 -0.022950 0.003500
v 0.000000 -0.022950 0.010300
v -0.001244 -0.022852 0.003500
v -0.001244 -0.022852 0.010300
v -0.002457 -0.022561 0.003500
v -0.002457 -0.022561 0.010300
v -0.003609 -0.022084 0.003500
v -0.003609 -0.022084 0.010300
v -0.004673 -0.021432 0.003500
v -0.004673 -0.021432 0.010300
v -0.005621 -0.020621 0.003500
v -0.005621 -0.020621 0.010300
v -0.006432 -0.019673 0.003500
v -0.006432 -0.019673 0.010300
v -0.007084 -0.018609 0.003500
v -0.007084 -0.018609 0.010300
v -0.007561 -0.017457 0.003500
v -0.007561 -0.017457 0.010300
v -0.007852 -0.016244 0.003500
v -0.007852 -0.016244 0.010300
v -0.007950 -0.015000 0.003500
v -0.007950 -0.015000 0.010300
v -0.007852 -0.013756 0.003500
v -0.007852 -0.013756 0.010300
v -0.007561 -0.012543 0.003500
v -0.007561 -0.012543 0.010300
v -0.007084 -0.011391 0.003500
v -0.007084 -0.011391 0.010300
v -0.006432 -0.010327 0.003500
v -0.006432 -0.010327 0.010300
v -0.005621 -0.009379 0.003500
v -0.005621 -0.009379 0.010300
v -0.004673 -0.008568 0.003500
v -0.004673 -0.008568 0.010300
v -0.003609 -0.007916 0.003500
v -0.003609 -0.007916 0.010300
v -0.002457 -0.007439 0.003500
v -0.002457 -0.007439 0.010300
v -0.001244 -0.007148 0.003500
v -0.001244 -0.007148 0.010300
v -0.000000 -0.007050 0.003500
v -0.000000 -0.007050 0.010300
v 0.001244 -0.007148 0.003500
v 0.001244 -0.007148 0.010300
v 0.002457 -0.007439 0.003500
v 0.002457 -0.007439 0.010300
v 0.003609 -0.007916 0.003500
v 0.003609 -0.007916 0.010300
v 0.004673 -0.008568 0.003500
v 0.004673 -0.008568 0.010300
v 0.005621 -0.009379 0.003500
v 0.005621 -0.009379 0.010300
v 0.006432 -0.010327 0.003500
v 0.006432 -0.010327 0.010300
v 0.007084 -0.011391 0.003500
v 0.007084 -0.011391 0.010300
v 0.007561 -0.012543 0.003500
v 0.007561 -0.012543 0.010300
v 0.007852 -0.013756 0.003500
v 0.007852 -0.013756 0.010300
v 0.007950 -0.015000 0.003500
v 0.007950 -0.015000 0.010300
v 0.007852 -0.016244 0.003500
v 0.007852 -0.016244 0.010300
v 0.007561 -0.017457 0.003500
v 0.007561 -0.017457 0.010300
v 0.007084 -0.018609 0.003500
v 0.007084 -0.018609 0.010300
v 0.006432 -0.019673 0.003500
v 0.006432 -0.019673 0.010300
v 0.005621 -0.020621 0.003500
v 0.005621 -0.020621 0.010300
v 0.004673 -0.021432 0.003500
v 0.004673 -0.021432 0.010300
v 0.003609 -0.022084 0.003500
v 0.003609 -0.022084 0.010300
v 0.002457 -0.022561 0.003500
v 0.002457 -0.022561 0.010300
v 0.001244 -0.022852 0.003500
v 0.001244 -0.022852 0.010300
vn -0.4900 -0.1282 0.8622
vn 0.0027 0.0201 -0.9998
vn 0.0002 -0.0182 -0.9998
vn 0.5549 -0.2120 0.8044
vn -0.0071 -0.0266 -0.9996
vn 0.4907 -0.3130 0.8132
vn 0.0078 0.0188 -0.9998
vn 0.4147 -0.3951 0.8197
vn -0.0091 -0.0158 -0.9998
vn 0.3928 -0.4290 0.8134
vn 0.0124 0.0161 -0.9998
vn 0.2898 -0.4919 0.8210
vn -0.0125 -0.0125 -0.9998
vn 0.2684 -0.5161 0.8134
vn 0.0161 0.0123 -0.9998
vn 0.1616 -0.5496 0.8197
vn -0.0158 -0.0091 -0.9998
vn 0.1257 -0.5677 0.8135
vn 0.0188 0.0078 -0.9998
vn 0.1113 -0.5891 0.8003
vn -0.0266 -0.0072 -0.9996
vn -0.0276 -0.5805 0.8138
vn 0.0201 0.0026 -0.9998
vn -0.0933 -0.5765 0.8117
vn -0.0182 -0.0000 -0.9998
vn -0.1753 -0.5549 0.8132
vn 0.0201 -0.0027 -0.9998
vn -0.2743 -0.5029 0.8197
vn 0.0103 -0.0028 -0.9999
vn -0.3127 -0.4905 0.8134
vn 0.0188 -0.0078 -0.9998
vn -0.3830 -0.4326 0.8162
vn -0.0158 0.0091 -0.9998
vn -0.4293 -0.3929 0.8132
vn 0.0161 -0.0124 -0.9998
vn -0.4889 -0.2983 0.8198
vn -0.0195 0.0195 -0.9996
vn -0.5161 -0.2684 0.8134
vn 0.0123 -0.0161 -0.9998
vn -0.5498 -0.1565 0.8205
vn -0.0091 0.0158 -0.9998
vn -0.5680 -0.1257 0.8134
vn 0.0078 -0.0188 -0.9998
vn -0.5718 -0.0097 0.8203
vn -0.0046 0.0171 -0.9998
vn -0.5812 0.0256 0.8134
vn 0.0026 -0.0201 -0.9998
vn -0.5567 0.1348 0.8197
vn -0.0000 0.0182 -0.9998
vn -0.5547 0.1751 0.8134
vn -0.0027 -0.0201 -0.9998
vn -0.5549 0.2120 0.8044
vn 0.0071 0.0266 -0.9996
vn -0.4907 0.3130 0.8132
vn -0.0078 -0.0188 -0.9998
vn -0.4147 0.3951 0.8197
vn 0.0091 0.0158 -0.9998
vn -0.3928 0.4290 0.8134
vn -0.0124 -0.0161 -0.9998
vn -0.2898 0.4919 0.8210
vn -0.0075 -0.0075 -0.9999
vn -0.2684 0.5161 0.8134
vn -0.0161 -0.0123 -0.9998
vn -0.1616 0.5496 0.8197
vn 0.0158 0.0091 -0.9998
vn -0.1257 0.5677 0.8135
vn -0.0188 -0.0078 -0.9998
vn -0.1113 0.5891 0.8003
vn 0.0266 0.0072 -0.9996
vn 0.0276 0.5805 0.8138
vn -0.0201 -0.0026 -0.9998
vn 0.0933 0.5765 0.8117
vn 0.0182 -0.0000 -0.9998
vn 0.1753 0.5549 0.8132
vn -0.0201 0.0027 -0.9998
vn 0.2743 0.5029 0.8197
vn 0.0171 -0.0046 -0.9998
vn 0.3127 0.4905 0.8134
vn -0.0188 0.0078 -0.9998
vn 0.3830 0.4326 0.8162
vn 0.0158 -0.0091 -0.9998
vn 0.4293 0.3929 0.8132
vn -0.0161 0.0124 -0.9998
vn 0.4889 0.2983 0.8198
vn 0.0195 -0.0195 -0.9996
vn 0.5161 0.2684 0.8134
vn -0.0123 0.0161 -0.9998
vn 0.5498 0.1565 0.8205
vn 0.0091 -0.0158 -0.9998
vn 0.5680 0.1257 0.8134
vn -0.0078 0.0188 -0.9998
vn 0.5718 0.0097 0.8203
vn -0.0027 0.0103 -0.9999
vn 0.0029 -0.1628 0.9866
vn 0.5982 0.8012 0.0147
vn -0.0029 0.1628 0.9866
vn -0.5982 -0.8012 0.0147
vn 0.5812 -0.0256 0.8134
vn -0.0026 0.0201 -0.9998
vn 0.5374 -0.8377 0.0967
vn 0.1280 0.1548 0.9796
vn -0.1148 0.1554 0.9812
vn -0.0018 0.0010 1.0000
vn 0.0435 0.2812 0.9586
vn -0.2248 0.3076 0.9246
vn -0.0681 0.4325 0.8990
vn -0.3265 0.4488 0.8319
vn -0.1694 0.5632 0.8088
vn -0.4153 0.5723 0.7071
vn 0.2793 0.2643 0.9231
vn 0.1971 0.3911 0.8990
vn 0.0840 0.5337 0.8415
vn -0.0185 0.6481 0.7613
vn -0.2531 0.6736 0.6944
vn 0.4201 0.3653 0.8307
vn 0.3350 0.4844 0.8081
vn 0.1113 0.7037 0.7018
vn 0.0262 0.7846 0.6194
vn -0.0997 0.7440 0.6606
vn 0.5430 0.4542 0.7063
vn 0.4495 0.5629 0.6937
vn 0.2177 0.6109 0.7612
vn 0.2176 0.7544 0.6194
vn 0.1277 0.8064 0.5774
vn -0.5605 0.7954 0.2304
vn -0.4188 0.9067 0.0495
vn -0.5884 0.8085 0.0081
vn -0.4001 0.8943 0.2006
vn -0.2339 0.9710 0.0489
vn -0.2129 0.9566 0.1991
vn -0.0394 0.9981 0.0483
vn -0.0263 0.9807 0.1940
vn 0.1563 0.9865 0.0482
vn -0.5233 0.7442 0.4152
vn -0.3661 0.8452 0.3894
vn -0.1853 0.9056 0.3816
vn -0.0145 0.9305 0.3659
vn 0.1530 0.9696 0.1912
vn -0.4666 0.6650 0.5832
vn -0.3173 0.7684 0.5558
vn -0.0048 0.8639 0.5037
vn 0.1370 0.8652 0.4824
vn 0.1461 0.9227 0.3567
vn -0.1511 0.8311 0.5352
vn 0.6782 0.7332 0.0500
vn 0.7635 0.6159 0.1941
vn 0.8078 0.5894 0.0082
vn 0.6577 0.7257 0.2020
vn 0.7181 0.5821 0.3815
vn 0.6103 0.6895 0.3900
vn 0.6436 0.5273 0.5548
vn 0.5403 0.6324 0.5552
vn 0.5226 0.8511 0.0497
vn 0.4984 0.8434 0.2006
vn 0.4565 0.8034 0.3824
vn 0.4008 0.7435 0.5352
vn 0.3461 0.9369 0.0486
vn 0.3271 0.9247 0.1950
vn 0.2717 0.8199 0.5039
vn 0.3248 0.6768 0.6606
vn 0.3012 0.8804 0.3663
vn 0.1468 -0.1783 0.9730
vn 0.1861 0.0741 0.9797
vn 0.0005 -0.0020 1.0000
vn 0.2813 -0.0435 0.9586
vn 0.3374 0.1847 0.9231
vn 0.4325 0.0681 0.8990
vn 0.4772 0.2870 0.8306
vn 0.5631 0.1694 0.8088
vn 0.5998 0.3761 0.7063
vn 0.2554 -0.3277 0.9096
vn 0.3912 -0.1971 0.8990
vn 0.5337 -0.0840 0.8415
vn 0.6481 0.0186 0.7613
vn 0.6736 0.2531 0.6945
vn 0.3536 -0.4640 0.8122
vn 0.4844 -0.3350 0.8081
vn 0.7037 -0.1113 0.7017
vn 0.7846 -0.0262 0.6194
vn 0.7441 0.0997 0.6606
vn 0.4382 -0.5825 0.6846
vn 0.5629 -0.4495 0.6937
vn 0.6109 -0.2177 0.7612
vn 0.7544 -0.2176 0.6193
vn 0.8064 -0.1277 0.5774
vn 0.8219 0.5353 0.1945
vn 0.9067 0.4188 0.0495
vn 0.8101 0.5862 0.0082
vn 0.8943 0.4001 0.2005
vn 0.9710 0.2339 0.0489
vn 0.9566 0.2129 0.1991
vn 0.9981 0.0394 0.0483
vn 0.9807 0.0263 0.1940
vn 0.9865 -0.1563 0.0482
vn 0.7760 0.5024 0.3814
vn 0.8452 0.3661 0.3894
vn 0.9056 0.1853 0.3816
vn 0.9305 0.0145 0.3659
vn 0.9696 -0.1530 0.1912
vn 0.7007 0.4489 0.5546
vn 0.7684 0.3173 0.5558
vn 0.8639 0.0048 0.5037
vn 0.8652 -0.1370 0.4824
vn 0.9227 -0.1461 0.3567
vn 0.8311 0.1511 0.5352
vn 0.7332 -0.6782 0.0500
vn 0.5756 -0.7946 0.1932
vn 0.5871 -0.8095 0.0081
vn 0.7257 -0.6577 0.2019
vn 0.5424 -0.7487 0.3810
vn 0.6895 -0.6103 0.3900
vn 0.4887 -0.6732 0.5549
vn 0.6324 -0.5403 0.5552
vn 0.8511 -0.5226 0.0497
vn 0.8434 -0.4984 0.2006
vn 0.8034 -0.4565 0.3824
vn 0.7435 -0.4009 0.5352
vn 0.9369 -0.3461 0.0487
vn 0.9247 -0.3271 0.1950
vn 0.8199 -0.2717 0.5039
vn 0.6769 -0.3248 0.6606
vn 0.8804 -0.3012 0.3663
vn -0.1469 0.1780 0.9730
vn -0.1861 -0.0741 0.9797
vn -0.0005 0.0020 1.0000
vn -0.2813 0.0435 0.9586
vn -0.3374 -0.1847 0.9231
vn -0.4325 -0.0681 0.8990
vn -0.4772 -0.2870 0.8306
vn -0.5631 -0.1694 0.8088
vn -0.5998 -0.3761 0.7063
vn -0.2554 0.3278 0.9096
vn -0.3912 0.1971 0.8990
vn -0.5337 0.0840 0.8415
vn -0.6481 -0.0186 0.7613
vn -0.6736 -0.2531 0.6945
vn -0.3536 0.4640 0.8122
vn -0.4844 0.3350 0.8081
vn -0.7037 0.1113 0.7017
vn -0.7846 0.0262 0.6194
vn -0.7440 -0.0997 0.6606
vn -0.4382 0.5825 0.6846
vn -0.5629 0.4495 0.6937
vn -0.6109 0.2177 0.7612
vn -0.7544 0.2176 0.6194
vn -0.8064 0.1277 0.5774
vn -0.8219 -0.5353 0.1945
vn -0.9067 -0.4188 0.0495
vn -0.8101 -0.5862 0.0082
vn -0.8943 -0.4001 0.2005
vn -0.9710 -0.2339 0.0489
vn -0.9566 -0.2129 0.1991
vn -0.9981 -0.0394 0.0483
vn -0.9807 -0.0263 0.1940
vn -0.9865 0.1563 0.0482
vn -0.7760 -0.5024 0.3814
vn -0.8452 -0.3661 0.3894
vn -0.9056 -0.1853 0.3816
vn -0.9305 -0.0145 0.3659
vn -0.9696 0.1530 0.1912
vn -0.7007 -0.4489 0.5546
vn -0.7684 -0.3173 0.5558
vn -0.8639 -0.0048 0.5037
vn -0.8652 0.1370 0.4824
vn -0.9227 0.1461 0.3567
vn -0.8311 -0.1511 0.5352
vn -0.7332 0.6782 0.0500
vn -0.5756 0.7946 0.1932
vn -0.5871 0.8094 0.0081
vn -0.7257 0.6577 0.2020
vn -0.5424 0.7488 0.3810
vn -0.6895 0.6103 0.3900
vn -0.4887 0.6732 0.5550
vn -0.6324 0.5403 0.5552
vn -0.8511 0.5226 0.0497
vn -0.8434 0.4984 0.2006
vn -0.8034 0.4565 0.3824
vn -0.7435 0.4009 0.5352
vn -0.9369 0.3461 0.0487
vn -0.9247 0.3271 0.1950
vn -0.8199 0.2717 0.5039
vn -0.6769 0.3248 0.6606
vn -0.8804 0.3012 0.3663
vn -0.1280 -0.1548 0.9796
vn 0.1145 -0.1556 0.9812
vn 0.0017 -0.0010 1.0000
vn -0.0435 -0.2813 0.9586
vn 0.2250 -0.3075 0.9246
vn 0.0681 -0.4325 0.8990
vn 0.3265 -0.4487 0.8319
vn 0.1694 -0.5632 0.8088
vn 0.4153 -0.5723 0.7071
vn -0.2793 -0.2643 0.9231
vn -0.1971 -0.3911 0.8990
vn -0.0840 -0.5337 0.8415
vn 0.0186 -0.6481 0.7613
vn 0.2531 -0.6736 0.6945
vn -0.4201 -0.3653 0.8307
vn -0.3350 -0.4844 0.8081
vn -0.1113 -0.7037 0.7017
vn -0.0262 -0.7846 0.6194
vn 0.0997 -0.7440 0.6606
vn -0.5430 -0.4542 0.7063
vn -0.4495 -0.5629 0.6937
vn -0.2177 -0.6109 0.7612
vn -0.2176 -0.7544 0.6194
vn -0.1277 -0.8064 0.5774
vn 0.5605 -0.7954 0.2304
vn 0.4188 -0.9067 0.0495
vn 0.5884 -0.8085 0.0081
vn 0.4001 -0.8943 0.2005
vn 0.2339 -0.9710 0.0489
vn 0.2129 -0.9566 0.1991
vn 0.0394 -0.9981 0.0483
vn 0.0263 -0.9807 0.1940
vn -0.1563 -0.9865 0.0482
vn 0.5233 -0.7442 0.4152
vn 0.3661 -0.8452 0.3894
vn 0.1853 -0.9056 0.3816
vn 0.0145 -0.9305 0.3659
vn -0.1530 -0.9696 0.1912
vn 0.4666 -0.6650 0.5832
vn 0.3173 -0.7684 0.5558
vn 0.0048 -0.8639 0.5037
vn -0.1370 -0.8652 0.4824
vn -0.1461 -0.9227 0.3567
vn 0.1511 -0.8311 0.5352
vn -0.6782 -0.7332 0.0500
vn -0.7635 -0.6159 0.1941
vn -0.8079 -0.5893 0.0081
vn -0.6577 -0.7257 0.2020
vn -0.7181 -0.5821 0.3815
vn -0.6103 -0.6895 0.3900
vn -0.6436 -0.5273 0.5547
vn -0.5403 -0.6324 0.5551
vn -0.5226 -0.8511 0.0497
vn -0.4984 -0.8434 0.2006
vn -0.4565 -0.8034 0.3824
vn -0.4008 -0.7435 0.5352
vn -0.3461 -0.9369 0.0487
vn -0.3271 -0.9247 0.1950
vn -0.2717 -0.8199 0.5039
vn -0.3248 -0.6769 0.6606
vn -0.3012 -0.8804 0.3663
vn -0.8724 -0.0472 0.4865
vn -0.8798 0.0034 0.4753
vn -0.8607 0.1775 0.4772
vn -0.5972 0.6340 0.4913
vn -0.4526 0.7400 0.4975
vn 0.7446 0.6659 -0.0452
vn -0.2432 0.8112 0.5317
vn 0.6668 -0.7451 -0.0132
vn 0.8139 0.2891 0.5040
vn 0.7401 0.4525 0.4975
vn 0.6223 0.6248 0.4716
vn 0.9814 -0.1918 0.0024
vn 0.3402 0.8112 0.4756
vn 0.1747 0.8624 0.4751
vn 0.0051 0.8791 0.4765
vn -0.0295 0.8657 0.4997
vn 0.3196 -0.8143 0.4845
vn 0.4526 -0.7401 0.4975
vn 0.5973 -0.6340 0.4913
vn 0.8607 -0.1775 0.4772
vn 0.8798 -0.0034 0.4753
vn 0.8535 -0.0076 0.5211
vn -0.8139 -0.2891 0.5040
vn -0.7401 -0.4525 0.4975
vn -0.6223 -0.6248 0.4716
vn -0.5385 -0.6505 0.5356
vn -0.3402 -0.8112 0.4756
vn -0.1747 -0.8624 0.4751
vn -0.0052 -0.8791 0.4765
vn 0.0734 -0.8790 0.4711
vn -0.8381 -0.0429 0.5439
vn 0.0878 -0.8519 0.5162
vn -0.6551 -0.4488 0.6078
vn -0.0122 -0.0770 -0.9970
vn 0.0001 -0.0397 -0.9992
vn 0.1619 -0.0811 0.9835
vn -0.0123 -0.0378 -0.9992
vn 0.1383 -0.1225 0.9828
vn -0.0391 -0.0768 -0.9963
vn 0.1289 -0.1271 0.9835
vn -0.0234 -0.0321 -0.9992
vn 0.0798 -0.1721 0.9818
vn -0.0551 -0.0551 -0.9970
vn 0.0834 -0.1608 0.9835
vn -0.0321 -0.0233 -0.9992
vn 0.0152 -0.1918 0.9813
vn -0.0664 -0.0338 -0.9972
vn 0.0296 -0.1787 0.9835
vn -0.0378 -0.0123 -0.9992
vn -0.0366 -0.1861 0.9818
vn -0.0770 -0.0122 -0.9970
vn -0.0271 -0.1791 0.9835
vn -0.0397 -0.0000 -0.9992
vn -0.0737 -0.1692 0.9828
vn -0.0851 0.0135 -0.9963
vn -0.0811 -0.1619 0.9835
vn -0.0378 0.0123 -0.9992
vn -0.1390 -0.1290 0.9818
vn -0.0694 0.0354 -0.9970
vn -0.1271 -0.1290 0.9835
vn -0.0321 0.0234 -0.9992
vn -0.1777 -0.0738 0.9813
vn -0.0325 0.0325 -0.9989
vn -0.1608 -0.0834 0.9835
vn -0.0233 0.0321 -0.9992
vn -0.1882 -0.0226 0.9819
vn -0.0354 0.0694 -0.9970
vn -0.1787 -0.0296 0.9835
vn -0.0123 0.0378 -0.9992
vn -0.1857 0.0332 0.9821
vn -0.0135 0.0851 -0.9963
vn -0.1791 0.0271 0.9835
vn -0.0000 0.0397 -0.9992
vn -0.1657 0.0923 0.9818
vn 0.0122 0.0770 -0.9970
vn -0.1619 0.0811 0.9835
vn 0.0123 0.0378 -0.9992
vn -0.1250 0.1462 0.9813
vn 0.0338 0.0664 -0.9972
vn -0.1289 0.1271 0.9835
vn 0.0234 0.0321 -0.9992
vn -0.0798 0.1721 0.9818
vn 0.0551 0.0551 -0.9970
vn -0.0834 0.1608 0.9835
vn 0.0321 0.0233 -0.9992
vn -0.0515 0.1746 0.9833
vn 0.0768 0.0391 -0.9963
vn -0.0296 0.1787 0.9835
vn 0.0378 0.0123 -0.9992
vn 0.0366 0.1861 0.9818
vn 0.0770 0.0122 -0.9970
vn 0.0271 0.1791 0.9835
vn 0.0397 -0.0000 -0.9992
vn 0.1004 0.1642 0.9813
vn 0.0582 -0.0092 -0.9983
vn 0.0811 0.1619 0.9835
vn 0.0378 -0.0123 -0.9992
vn 0.1391 0.1293 0.9818
vn 0.0694 -0.0354 -0.9970
vn 0.1271 0.1290 0.9835
vn 0.0321 -0.0234 -0.9992
vn 0.1697 0.0823 0.9821
vn 0.0609 -0.0609 -0.9963
vn 0.1608 0.0834 0.9835
vn 0.0233 -0.0321 -0.9992
vn 0.1883 0.0227 0.9818
vn 0.0354 -0.0694 -0.9970
vn 0.1787 0.0296 0.9835
vn 0.0123 -0.0378 -0.9992
vn 0.1872 -0.0448 0.9813
vn 0.0092 -0.0582 -0.9983
vn 0.7595 -0.5520 0.3441
vt 1.000000 1.000000
vt 0.979167 0.500000
vt 1.000000 0.500000
vt 0.979167 1.000000
vt 0.958333 0.500000
vt 0.958333 1.000000
vt 0.937500 0.500000
vt 0.937500 1.000000
vt 0.916667 0.500000
vt 0.916667 1.000000
vt 0.895833 0.500000
vt 0.895833 1.000000
vt 0.875000 0.500000
vt 0.875000 1.000000
vt 0.854167 0.500000
vt 0.854167 1.000000
vt 0.833333 0.500000
vt 0.833333 1.000000
vt 0.812500 0.500000
vt 0.812500 1.000000
vt 0.791667 0.500000
vt 0.791667 1.000000
vt 0.770834 0.500000
vt 0.770834 1.000000
vt 0.750000 0.500000
vt 0.750000 1.000000
vt 0.729167 0.500000
vt 0.729167 1.000000
vt 0.708334 0.500000
vt 0.708334 1.000000
vt 0.687500 0.500000
vt 0.687500 1.000000
vt 0.666667 0.500000
vt 0.666667 1.000000
vt 0.645834 0.500000
vt 0.645834 1.000000
vt 0.625000 0.500000
vt 0.625000 1.000000
vt 0.604167 0.500000
vt 0.604167 1.000000
vt 0.583334 0.500000
vt 0.583334 1.000000
vt 0.562500 0.500000
vt 0.562500 1.000000
vt 0.541667 0.500000
vt 0.541667 1.000000
vt 0.520834 0.500000
vt 0.520834 1.000000
vt 0.500000 0.500000
vt 0.500000 1.000000
vt 0.479167 0.500000
vt 0.479167 1.000000
vt 0.458334 0.500000
vt 0.458334 1.000000
vt 0.437500 0.500000
vt 0.437500 1.000000
vt 0.416667 0.500000
vt 0.416667 1.000000
vt 0.395834 0.500000
vt 0.395834 1.000000
vt 0.375000 0.500000
vt 0.375000 1.000000
vt 0.354167 0.500000
vt 0.354167 1.000000
vt 0.333334 0.500000
vt 0.333334 1.000000
vt 0.312500 0.500000
vt 0.312500 1.000000
vt 0.291667 0.500000
vt 0.291667 1.000000
vt 0.270834 0.500000
vt 0.270834 1.000000
vt 0.250000 0.500000
vt 0.250000 1.000000
vt 0.229167 0.500000
vt 0.229167 1.000000
vt 0.208334 0.500000
vt 0.208334 1.000000
vt 0.187500 0.500000
vt 0.187500 1.000000
vt 0.166667 0.500000
vt 0.166667 1.000000
vt 0.145834 0.500000
vt 0.145834 1.000000
vt 0.125000 0.500000
vt 0.125000 1.000000
vt 0.104167 0.500000
vt 0.104167 1.000000
vt 0.083334 0.500000
vt 0.083334 1.000000
vt 0.062500 0.500000
vt 0.062500 1.000000
vt 0.041667 0.500000
vt 0.361346 0.357914
vt 0.362442 0.357849
vt 0.281326 0.487947
vt 0.138654 0.142086
vt 0.137558 0.142151
vt 0.218674 0.012053
vt 0.041667 1.000000
vt 0.020834 0.500000
vt 0.020834 1.000000
vt 0.000000 0.500000
vt 0.981822 0.187883
vt 0.580294 0.080294
vt 0.687883 0.481822
vt 0.128612 0.719298
vt 0.129487 0.725288
vt 0.129487 0.719298
vt 0.128585 0.725548
vt 0.129487 0.731047
vt 0.128584 0.731355
vt 0.129487 0.736355
vt 0.128591 0.736376
vt 0.129487 0.750000
vt 0.127770 0.719298
vt 0.127728 0.725550
vt 0.127750 0.731212
vt 0.127803 0.735815
vt 0.128596 0.750000
vt 0.126994 0.719298
vt 0.126987 0.725465
vt 0.127195 0.734985
vt 0.127260 0.750000
vt 0.127833 0.750000
vt 0.125000 0.719298
vt 0.125000 0.725396
vt 0.127072 0.730841
vt 0.125000 0.734540
vt 0.126897 0.750000
vt 0.409935 0.995513
vt 0.418403 0.996388
vt 0.418403 0.995513
vt 0.409676 0.996426
vt 0.418403 0.997230
vt 0.409663 0.997275
vt 0.418403 0.998006
vt 0.409739 0.998009
vt 0.418403 1.000000
vt 0.401793 0.995513
vt 0.401383 0.996426
vt 0.401600 0.997254
vt 0.402108 0.997927
vt 0.409782 1.000000
vt 0.394289 0.995513
vt 0.394219 0.996414
vt 0.396227 0.997805
vt 0.396856 1.000000
vt 0.402400 1.000000
vt 0.375000 0.995513
vt 0.375000 0.996404
vt 0.395046 0.997200
vt 0.375000 0.997740
vt 0.393344 1.000000
vt 0.418403 0.024712
vt 0.409935 0.030702
vt 0.418403 0.030702
vt 0.409567 0.024529
vt 0.401793 0.030702
vt 0.401359 0.024519
vt 0.394290 0.030702
vt 0.394260 0.024573
vt 0.375000 0.030702
vt 0.418403 0.018953
vt 0.409565 0.018662
vt 0.401561 0.018816
vt 0.395053 0.019176
vt 0.375000 0.024604
vt 0.418403 0.013645
vt 0.409686 0.013595
vt 0.396227 0.015015
vt 0.375000 0.015460
vt 0.375000 0.019382
vt 0.418403 0.000000
vt 0.409782 0.000000
vt 0.402086 0.014180
vt 0.396856 0.000000
vt 0.375000 0.012976
vt 0.129487 0.524712
vt 0.128612 0.530702
vt 0.129487 0.530702
vt 0.128574 0.524529
vt 0.127770 0.530702
vt 0.127725 0.524519
vt 0.126994 0.530702
vt 0.126991 0.524573
vt 0.125000 0.530702
vt 0.129487 0.518953
vt 0.128573 0.518662
vt 0.127746 0.518816
vt 0.127073 0.519176
vt 0.125000 0.524604
vt 0.129487 0.513645
vt 0.128586 0.513595
vt 0.127195 0.515015
vt 0.125000 0.515460
vt 0.125000 0.519382
vt 0.129487 0.500000
vt 0.128596 0.500000
vt 0.127800 0.514180
vt 0.127260 0.500000
vt 0.125000 0.512976
vt 0.409935 0.219298
vt 0.418403 0.225288
vt 0.418403 0.219298
vt 0.409676 0.225548
vt 0.418403 0.231047
vt 0.409663 0.231355
vt 0.418403 0.236355
vt 0.409739 0.236376
vt 0.418403 0.250000
vt 0.401793 0.219298
vt 0.401383 0.225550
vt 0.401600 0.231212
vt 0.402109 0.235815
vt 0.409782 0.250000
vt 0.394289 0.219298
vt 0.394219 0.225464
vt 0.396227 0.234985
vt 0.396856 0.250000
vt 0.402400 0.250000
vt 0.375000 0.219298
vt 0.375000 0.225396
vt 0.395046 0.230841
vt 0.375000 0.234540
vt 0.384172 0.250948
vt 0.418403 0.253612
vt 0.409935 0.254487
vt 0.418403 0.254487
vt 0.409567 0.253585
vt 0.401793 0.254487
vt 0.401359 0.253584
vt 0.394290 0.254487
vt 0.394260 0.253591
vt 0.375000 0.254487
vt 0.418403 0.252770
vt 0.409565 0.252728
vt 0.401561 0.252750
vt 0.395053 0.252803
vt 0.375000 0.253596
vt 0.418403 0.251994
vt 0.409686 0.251987
vt 0.396227 0.252195
vt 0.375000 0.252260
vt 0.375000 0.252833
vt 0.402086 0.252072
vt 0.370513 0.725288
vt 0.371388 0.719298
vt 0.370513 0.719298
vt 0.371426 0.725471
vt 0.372230 0.719298
vt 0.372275 0.725481
vt 0.373006 0.719298
vt 0.373009 0.725427
vt 0.375000 0.719298
vt 0.370513 0.731047
vt 0.371427 0.731338
vt 0.372254 0.731184
vt 0.372927 0.730824
vt 0.375000 0.725396
vt 0.370513 0.736355
vt 0.371414 0.736405
vt 0.372806 0.734985
vt 0.375000 0.734540
vt 0.375000 0.730618
vt 0.372756 0.752244
vt 0.373202 0.751798
vt 0.372200 0.735820
vt 0.373871 0.751131
vt 0.381115 0.746307
vt 0.409935 0.719298
vt 0.418403 0.725288
vt 0.418403 0.719298
vt 0.409676 0.725548
vt 0.418403 0.731047
vt 0.409663 0.731355
vt 0.418403 0.736355
vt 0.409739 0.736376
vt 0.418403 0.750000
vt 0.401793 0.719298
vt 0.401383 0.725550
vt 0.401600 0.731212
vt 0.402109 0.735815
vt 0.409782 0.750000
vt 0.394289 0.719298
vt 0.394219 0.725464
vt 0.396227 0.734985
vt 0.396856 0.750000
vt 0.402400 0.750000
vt 0.395046 0.730841
vt 0.418403 0.753612
vt 0.409935 0.754487
vt 0.418403 0.754487
vt 0.409567 0.753585
vt 0.401793 0.754487
vt 0.401359 0.753584
vt 0.394290 0.754487
vt 0.394260 0.753591
vt 0.418403 0.752770
vt 0.409565 0.752728
vt 0.401561 0.752750
vt 0.395053 0.752803
vt 0.418403 0.751994
vt 0.409686 0.751987
vt 0.396227 0.752194
vt 0.373585 0.751418
vt 0.402086 0.752073
vt 0.371388 0.530702
vt 0.370513 0.524712
vt 0.370513 0.530702
vt 0.371415 0.524452
vt 0.370513 0.518953
vt 0.371416 0.518645
vt 0.370513 0.513645
vt 0.371409 0.513624
vt 0.372756 0.497756
vt 0.372230 0.530702
vt 0.372272 0.524450
vt 0.372250 0.518788
vt 0.372197 0.514185
vt 0.373203 0.498202
vt 0.373006 0.530702
vt 0.373013 0.524535
vt 0.372805 0.515015
vt 0.373869 0.498871
vt 0.373582 0.498585
vt 0.375000 0.530702
vt 0.375000 0.524604
vt 0.372928 0.519159
vt 0.375000 0.515460
vt 0.380483 0.504325
vt 0.409935 0.495513
vt 0.418403 0.496388
vt 0.418403 0.495513
vt 0.409676 0.496426
vt 0.418403 0.497230
vt 0.409663 0.497275
vt 0.418403 0.498006
vt 0.409739 0.498009
vt 0.418403 0.500000
vt 0.401793 0.495513
vt 0.401383 0.496426
vt 0.401600 0.497254
vt 0.402108 0.497927
vt 0.409782 0.500000
vt 0.394289 0.495513
vt 0.394219 0.496414
vt 0.396227 0.497805
vt 0.396856 0.500000
vt 0.402400 0.500000
vt 0.395046 0.497200
vt 0.418403 0.524712
vt 0.409935 0.530702
vt 0.418403 0.530702
vt 0.409567 0.524529
vt 0.401793 0.530702
vt 0.401359 0.524519
vt 0.394290 0.530702
vt 0.394260 0.524573
vt 0.418403 0.518953
vt 0.409565 0.518662
vt 0.401561 0.518816
vt 0.395053 0.519176
vt 0.418403 0.513645
vt 0.409686 0.513595
vt 0.396227 0.515015
vt 0.375000 0.519382
vt 0.402086 0.514180
vt 0.500000 0.995513
vt 0.500000 0.996388
vt 0.500000 0.997230
vt 0.500000 0.998006
vt 0.500000 0.000000
vt 0.500000 0.013645
vt 0.500000 0.018953
vt 0.500000 0.030702
vt 0.500000 0.024712
vt 0.500000 0.254487
vt 0.500000 0.253612
vt 0.500000 0.252770
vt 0.500000 0.251994
vt 0.500000 0.250000
vt 0.500000 0.236355
vt 0.500000 0.231047
vt 0.500000 0.225288
vt 0.500000 0.219298
vt 0.500000 0.524712
vt 0.500000 0.518953
vt 0.500000 0.513645
vt 0.500000 0.500000
vt 0.500000 0.498006
vt 0.500000 0.497230
vt 0.500000 0.496388
vt 0.500000 0.495513
vt 0.500000 0.753612
vt 0.500000 0.752770
vt 0.500000 0.751994
vt 0.500000 0.750000
vt 0.500000 0.736355
vt 0.500000 0.731047
vt 0.500000 0.725288
vt 0.500000 0.719298
vt 0.500000 0.754487
vt 0.500000 0.530702
vt 0.975000 0.500000
vt 0.975000 1.000000
vt 0.950000 0.500000
vt 0.950000 1.000000
vt 0.925000 0.500000
vt 0.925000 1.000000
vt 0.900000 0.500000
vt 0.900000 1.000000
vt 0.850000 0.500000
vt 0.850000 1.000000
vt 0.825000 0.500000
vt 0.825000 1.000000
vt 0.800000 0.500000
vt 0.800000 1.000000
vt 0.775000 0.500000
vt 0.775000 1.000000
vt 0.725000 0.500000
vt 0.725000 1.000000
vt 0.700000 0.500000
vt 0.700000 1.000000
vt 0.675000 0.500000
vt 0.675000 1.000000
vt 0.650000 0.500000
vt 0.650000 1.000000
vt 0.600000 0.500000
vt 0.600000 1.000000
vt 0.575000 0.500000
vt 0.575000 1.000000
vt 0.550000 0.500000
vt 0.550000 1.000000
vt 0.525000 0.500000
vt 0.525000 1.000000
vt 0.475000 0.500000
vt 0.475000 1.000000
vt 0.450000 0.500000
vt 0.450000 1.000000
vt 0.425000 0.500000
vt 0.425000 1.000000
vt 0.400000 0.500000
vt 0.400000 1.000000
vt 0.375000 0.500000
vt 0.375000 1.000000
vt 0.350000 0.500000
vt 0.350000 1.000000
vt 0.325000 0.500000
vt 0.325000 1.000000
vt 0.300000 0.500000
vt 0.300000 1.000000
vt 0.275000 0.500000
vt 0.275000 1.000000
vt 0.250000 0.500000
vt 0.250000 1.000000
vt 0.225000 0.500000
vt 0.225000 1.000000
vt 0.200000 0.500000
vt 0.200000 1.000000
vt 0.175000 0.500000
vt 0.175000 1.000000
vt 0.150000 0.500000
vt 0.150000 1.000000
vt 0.100000 0.500000
vt 0.100000 1.000000
vt 0.075000 0.500000
vt 0.075000 1.000000
vt 0.050000 0.500000
vt 0.055836 0.108932
vt 0.490000 0.250000
vt 0.324164 0.478254
vt 0.050000 1.000000
vt 0.025000 0.500000
vt 0.025000 1.000000
vt 0.000000 0.500000
vt 0.919706 0.080294
vt 0.512955 0.287544
vt 0.712456 0.487045
vt 0.103897 0.440405
vt 0.080294 0.419706
vt 0.059595 0.396103
vt 0.042154 0.370000
vt 0.028269 0.341844
vt 0.018178 0.312117
vt 0.012053 0.281326
vt 0.010000 0.250000
vt 0.012053 0.218674
vt 0.018178 0.187883
vt 0.112683 0.176388
vt 0.112960 0.177450
vt 0.158156 0.471731
vt 0.130000 0.457846
vt 0.218674 0.487947
vt 0.187883 0.481822
vt 0.250000 0.490000
vt 0.341844 0.471731
vt 0.312117 0.481822
vt 0.396103 0.440405
vt 0.370000 0.457846
vt 0.440405 0.396103
vt 0.419706 0.419706
vt 0.471731 0.341844
vt 0.457846 0.370000
vt 0.387317 0.323612
vt 0.481822 0.312117
vt 0.387382 0.324708
vt 0.113439 0.178438
vt 0.387231 0.325795
vt 0.386872 0.326832
vt 0.114102 0.179314
vt 0.386317 0.327779
vt 0.366097 0.355610
vt 0.114922 0.180043
vt 0.358275 0.356848
vt 0.365368 0.356430
vt 0.359222 0.357403
vt 0.360259 0.357763
vt 0.364492 0.357093
vt 0.363504 0.357572
vt 0.396103 0.059595
vt 0.419706 0.080294
vt 0.440405 0.103897
vt 0.457846 0.130000
vt 0.471731 0.158156
vt 0.481822 0.187883
vt 0.487947 0.218674
vt 0.487947 0.281326
vt 0.387040 0.322550
vt 0.341844 0.028269
vt 0.370000 0.042154
vt 0.281326 0.012053
vt 0.312117 0.018178
vt 0.250000 0.010000
vt 0.158156 0.028269
vt 0.187883 0.018178
vt 0.103897 0.059595
vt 0.130000 0.042154
vt 0.059595 0.103897
vt 0.080294 0.080294
vt 0.028269 0.158156
vt 0.042154 0.130000
vt 0.112618 0.175292
vt 0.386561 0.321562
vt 0.112769 0.174205
vt 0.113128 0.173168
vt 0.385898 0.320686
vt 0.113683 0.172221
vt 0.133903 0.144390
vt 0.385078 0.319957
vt 0.141725 0.143152
vt 0.134632 0.143570
vt 0.140778 0.142596
vt 0.139741 0.142237
vt 0.135508 0.142907
vt 0.136495 0.142428
vt 0.000000 1.000000
vt 0.718674 0.487947
vt 0.750000 0.490000
vt 0.781326 0.487947
vt 0.812117 0.481822
vt 0.841844 0.471731
vt 0.870000 0.457846
vt 0.896103 0.440405
vt 0.919706 0.419706
vt 0.940405 0.396103
vt 0.957846 0.370000
vt 0.971731 0.341844
vt 0.981822 0.312117
vt 0.987947 0.281326
vt 0.990000 0.250000
vt 0.987947 0.218674
vt 0.971731 0.158156
vt 0.957846 0.130000
vt 0.940405 0.103897
vt 0.896103 0.059595
vt 0.870000 0.042154
vt 0.841844 0.028269
vt 0.812117 0.018178
vt 0.781326 0.012053
vt 0.750000 0.010000
vt 0.718674 0.012053
vt 0.687883 0.018178
vt 0.658156 0.028269
vt 0.630000 0.042154
vt 0.603897 0.059595
vt 0.559595 0.103897
vt 0.542154 0.130000
vt 0.528269 0.158156
vt 0.518178 0.187883
vt 0.512053 0.218674
vt 0.510000 0.250000
vt 0.512053 0.281326
vt 0.518178 0.312117
vt 0.528269 0.341844
vt 0.542154 0.370000
vt 0.559595 0.396103
vt 0.580294 0.419706
vt 0.603897 0.440405
vt 0.630000 0.457846
vt 0.658156 0.471731
vt 0.125000 0.730618
vt 0.375000 0.997167
vt 0.402400 0.000000
vt 0.127833 0.500000
vt 0.375000 0.230618
vt 0.500000 1.000000
vt 0.287544 0.487045
vt 0.212456 0.487045
vt 0.175836 0.478254
vt 0.141042 0.463842
vt 0.108932 0.444164
vt 0.055836 0.391068
vt 0.036158 0.358958
vt 0.021746 0.324164
vt 0.012955 0.287544
vt 0.012955 0.212456
vt 0.021746 0.175836
vt 0.036158 0.141042
vt 0.108932 0.055836
vt 0.141042 0.036158
vt 0.175836 0.021746
vt 0.212456 0.012955
vt 0.287544 0.012955
vt 0.324164 0.021746
vt 0.358958 0.036158
vt 0.391068 0.055836
vt 0.444164 0.108932
vt 0.463842 0.141042
vt 0.478254 0.175836
vt 0.487045 0.212456
vt 0.487045 0.287544
vt 0.478254 0.324164
vt 0.463842 0.358958
vt 0.444164 0.391068
vt 0.391068 0.444164
vt 0.358958 0.463842
vt 0.000000 1.000000
vt 0.787544 0.487045
vt 0.824164 0.478254
vt 0.858958 0.463842
vt 0.891068 0.444164
vt 0.944164 0.391068
vt 0.963842 0.358958
vt 0.978254 0.324164
vt 0.987045 0.287544
vt 0.987045 0.212456
vt 0.978254 0.175836
vt 0.963842 0.141042
vt 0.944164 0.108932
vt 0.891068 0.055836
vt 0.858958 0.036158
vt 0.824164 0.021746
vt 0.787544 0.012955
vt 0.712456 0.012955
vt 0.675836 0.021746
vt 0.641042 0.036158
vt 0.608932 0.055836
vt 0.555836 0.108932
vt 0.536158 0.141042
vt 0.521746 0.175836
vt 0.512955 0.212456
vt 0.521746 0.324164
vt 0.536158 0.358958
vt 0.555836 0.391068
vt 0.608932 0.444164
vt 0.641042 0.463842
vt 0.675836 0.478254
s 1
usemtl pivot_satin_steel
f 3/1/1 5/2/2 1/3/3
f 7/4/4 10/5/5 5/2/2
f 12/6/6 13/7/7 10/5/5
f 15/8/8 18/9/9 13/7/7
f 19/10/10 22/11/11 18/9/9
f 23/12/12 26/13/13 22/11/11
f 28/14/14 29/15/15 26/13/13
f 31/16/16 34/17/17 29/15/15
f 36/18/18 37/19/19 34/17/17
f 40/20/20 41/21/21 37/19/19
f 43/22/22 45/23/23 41/21/21
f 47/24/24 49/25/25 45/23/23
f 51/26/26 53/27/27 49/25/25
f 55/28/28 58/29/29 53/27/27
f 60/30/30 62/31/31 58/29/29
f 64/32/32 65/33/33 62/31/31
f 67/34/34 69/35/35 65/33/33
f 71/36/36 73/37/37 69/35/35
f 76/38/38 78/39/39 73/37/37
f 79/40/40 82/41/41 78/39/39
f 83/42/42 85/43/43 82/41/41
f 88/44/44 90/45/45 85/43/43
f 92/46/46 94/47/47 90/45/45
f 96/48/48 97/49/49 94/47/47
f 99/50/50 102/51/51 97/49/49
f 103/52/52 105/53/53 102/51/51
f 107/54/54 110/55/55 105/53/53
f 112/56/56 114/57/57 110/55/55
f 116/58/58 118/59/59 114/57/57
f 120/60/60 121/61/61 118/59/59
f 123/62/62 124/63/63 121/61/61
f 125/64/64 126/65/65 124/63/63
f 127/66/66 128/67/67 126/65/65
f 129/68/68 130/69/69 128/67/67
f 131/70/70 132/71/71 130/69/69
f 133/72/72 134/73/73 132/71/71
f 135/74/74 136/75/75 134/73/73
f 137/76/76 138/77/77 136/75/75
f 139/78/78 140/79/79 138/77/77
f 141/80/80 142/81/81 140/79/79
f 143/82/82 144/83/83 142/81/81
f 145/84/84 146/85/85 144/83/83
f 147/86/86 148/87/87 146/85/85
f 149/88/88 150/89/89 148/87/87
f 151/90/90 152/91/91 150/89/89
f 153/92/92 154/93/93 152/91/91
f 366/94/94 360/95/95 7/96/4
f 342/97/96 349/98/97 103/99/52
f 155/100/98 156/101/99 154/93/93
f 157/102/100 1/103/3 156/101/99
f 58/104/29 121/105/61 154/106/93
f 16/107/101 8/108/102 2/109/103
f 17/110/104 9/111/105 8/108/102
f 20/112/106 11/113/107 9/111/105
f 21/114/108 14/115/109 11/113/107
f 25/116/110 17/110/104 16/107/101
f 27/117/111 20/112/106 17/110/104
f 30/118/112 21/114/108 20/112/106
f 32/119/113 24/120/114 21/114/108
f 35/121/115 27/117/111 25/116/110
f 38/122/116 30/118/112 27/117/111
f 30/118/112 42/123/117 32/119/113
f 32/119/113 44/124/118 33/125/119
f 91/126/120 38/122/116 35/121/115
f 101/127/121 39/128/122 38/122/116
f 39/128/122 122/129/123 42/123/117
f 42/123/117 46/130/124 44/124/118
f 56/131/125 48/132/126 4/133/127
f 57/134/128 50/135/129 48/132/126
f 59/136/130 52/137/131 50/135/129
f 61/138/132 54/139/133 52/137/131
f 66/140/134 57/134/128 56/131/125
f 68/141/135 59/136/130 57/134/128
f 70/142/136 61/138/132 59/136/130
f 72/143/137 63/144/138 61/138/132
f 75/145/139 68/141/135 66/140/134
f 77/146/140 70/142/136 68/141/135
f 70/142/136 81/147/141 72/143/137
f 72/143/137 84/148/142 74/149/143
f 14/150/109 77/146/140 75/145/139
f 24/151/114 80/152/144 77/146/140
f 80/152/144 44/153/118 81/147/141
f 81/147/141 46/154/124 84/148/142
f 93/155/145 86/156/146 6/157/147
f 95/158/148 87/159/149 86/156/146
f 98/160/150 89/161/151 87/159/149
f 100/162/152 91/163/120 89/161/151
f 104/164/153 95/158/148 93/155/145
f 106/165/154 98/160/150 95/158/148
f 108/166/155 100/162/152 98/160/150
f 109/167/156 101/168/121 100/162/152
f 113/169/157 106/165/154 104/164/153
f 115/170/158 108/166/155 106/165/154
f 108/166/155 119/171/159 109/167/156
f 109/167/156 122/172/123 111/173/160
f 54/174/133 115/170/158 113/169/157
f 63/175/138 117/176/161 115/170/158
f 117/176/161 84/177/142 119/171/159
f 119/171/159 46/178/124 122/172/123
f 165/179/162 161/180/163 158/181/164
f 166/182/165 162/183/166 161/180/163
f 167/184/167 163/185/168 162/183/166
f 168/186/169 164/187/170 163/185/168
f 170/188/171 166/182/165 165/179/162
f 171/189/172 167/184/167 166/182/165
f 172/190/173 168/186/169 167/184/167
f 173/191/174 169/192/175 168/186/169
f 175/193/176 171/189/172 170/188/171
f 176/194/177 172/190/173 171/189/172
f 172/190/173 178/195/178 173/191/174
f 173/191/174 179/196/179 174/197/180
f 203/198/181 176/194/177 175/193/176
f 208/199/182 177/200/183 176/194/177
f 177/200/183 218/201/184 178/195/178
f 178/195/178 180/202/185 179/196/179
f 185/203/186 181/204/187 159/205/188
f 186/206/189 182/207/190 181/204/187
f 187/208/191 183/209/192 182/207/190
f 188/210/193 184/211/194 183/209/192
f 190/212/195 186/206/189 185/203/186
f 191/213/196 187/208/191 186/206/189
f 192/214/197 188/210/193 187/208/191
f 193/215/198 189/216/199 188/210/193
f 195/217/200 191/213/196 190/212/195
f 196/218/201 192/214/197 191/213/196
f 192/214/197 198/219/202 193/215/198
f 193/215/198 199/220/203 194/221/204
f 164/222/170 196/218/201 195/217/200
f 169/223/175 197/224/205 196/218/201
f 197/224/205 179/225/179 198/219/202
f 198/219/202 180/226/185 199/220/203
f 204/227/206 200/228/207 160/229/208
f 205/230/209 201/231/210 200/228/207
f 206/232/211 202/233/212 201/231/210
f 207/234/213 203/235/181 202/233/212
f 209/236/214 205/230/209 204/227/206
f 210/237/215 206/232/211 205/230/209
f 211/238/216 207/234/213 206/232/211
f 212/239/217 208/240/182 207/234/213
f 214/241/218 210/237/215 209/236/214
f 215/242/219 211/238/216 210/237/215
f 211/238/216 217/243/220 212/239/217
f 212/239/217 218/244/184 213/245/221
f 184/211/194 215/242/219 214/241/218
f 189/216/199 216/246/222 215/242/219
f 216/246/222 199/220/203 217/243/220
f 217/243/220 180/226/185 218/244/184
f 226/247/223 222/248/224 219/249/225
f 227/250/226 223/251/227 222/248/224
f 228/252/228 224/253/229 223/251/227
f 229/254/230 225/255/231 224/253/229
f 231/256/232 227/250/226 226/247/223
f 232/257/233 228/252/228 227/250/226
f 233/258/234 229/254/230 228/252/228
f 234/259/235 230/260/236 229/254/230
f 236/261/237 232/257/233 231/256/232
f 237/262/238 233/258/234 232/257/233
f 233/258/234 239/263/239 234/259/235
f 234/259/235 240/264/240 235/265/241
f 264/266/242 237/262/238 236/261/237
f 269/267/243 238/268/244 237/262/238
f 238/268/244 279/269/245 239/263/239
f 239/263/239 241/270/246 240/264/240
f 246/271/247 242/272/248 220/273/249
f 247/274/250 243/275/251 242/272/248
f 248/276/252 244/277/253 243/275/251
f 249/278/254 245/279/255 244/277/253
f 251/280/256 247/274/250 246/271/247
f 252/281/257 248/276/252 247/274/250
f 253/282/258 249/278/254 248/276/252
f 254/283/259 250/284/260 249/278/254
f 256/285/261 252/281/257 251/280/256
f 257/286/262 253/282/258 252/281/257
f 253/282/258 259/287/263 254/283/259
f 254/283/259 260/288/264 255/289/265
f 225/255/231 257/286/262 256/285/261
f 230/260/236 258/290/266 257/286/262
f 258/290/266 240/264/240 259/287/263
f 259/287/263 241/270/246 260/288/264
f 265/291/267 261/292/268 221/293/269
f 266/294/270 262/295/271 261/292/268
f 267/296/272 263/297/273 262/295/271
f 268/298/274 264/266/242 263/297/273
f 270/299/275 266/294/270 265/291/267
f 271/300/276 267/296/272 266/294/270
f 272/301/277 268/298/274 267/296/272
f 273/302/278 269/267/243 268/298/274
f 275/303/279 271/300/276 270/299/275
f 276/304/280 272/301/277 271/300/276
f 272/301/277 278/305/281 273/302/278
f 273/302/278 279/269/245 274/306/282
f 245/279/255 276/304/280 275/303/279
f 250/284/260 277/307/283 276/304/280
f 277/307/283 260/288/264 278/305/281
f 278/305/281 241/270/246 279/269/245
f 287/308/284 283/309/285 280/310/286
f 288/311/287 284/312/288 283/309/285
f 289/313/289 285/314/290 284/312/288
f 290/315/291 286/316/292 285/314/290
f 292/317/293 288/311/287 287/308/284
f 293/318/294 289/313/289 288/311/287
f 294/319/295 290/315/291 289/313/289
f 295/320/296 291/321/297 290/315/291
f 297/322/298 293/318/294 292/317/293
f 298/323/299 294/319/295 293/318/294
f 294/319/295 300/324/300 295/320/296
f 295/320/296 301/325/301 296/326/302
f 325/327/303 298/323/299 297/322/298
f 330/328/304 299/329/305 298/323/299
f 299/329/305 340/330/306 300/324/300
f 300/324/300 302/331/307 301/325/301
f 307/332/308 303/333/309 281/334/310
f 308/335/311 304/336/312 303/333/309
f 309/337/313 305/338/314 304/336/312
f 310/339/315 306/340/316 305/338/314
f 312/341/317 308/335/311 307/332/308
f 313/342/318 309/337/313 308/335/311
f 314/343/319 310/339/315 309/337/313
f 315/344/320 311/345/321 310/339/315
f 317/346/322 313/342/318 312/341/317
f 318/347/323 314/343/319 313/342/318
f 314/343/319 320/348/324 315/344/320
f 315/344/320 321/349/325 316/350/326
f 286/316/292 318/347/323 317/346/322
f 291/321/297 319/351/327 318/347/323
f 319/351/327 301/325/301 320/348/324
f 320/348/324 302/331/307 321/349/325
f 326/352/328 322/353/329 282/354/330
f 327/355/331 323/356/332 322/353/329
f 328/357/333 324/358/334 323/356/332
f 329/359/335 325/327/303 324/358/334
f 331/360/336 327/355/331 326/352/328
f 332/361/337 328/357/333 327/355/331
f 333/362/338 329/359/335 328/357/333
f 334/363/339 330/328/304 329/359/335
f 336/364/340 332/361/337 331/360/336
f 337/365/341 333/362/338 332/361/337
f 333/362/338 339/366/342 334/363/339
f 334/363/339 340/330/306 335/367/343
f 306/340/316 337/365/341 336/364/340
f 311/345/321 338/368/344 337/365/341
f 338/368/344 321/349/325 339/366/342
f 339/366/342 302/331/307 340/330/306
f 158/181/164 16/107/101 2/109/103
f 162/183/166 16/107/101 161/180/163
f 162/183/166 35/121/115 25/116/110
f 164/187/170 35/121/115 163/185/168
f 195/217/200 91/163/120 164/222/170
f 195/217/200 87/159/149 89/161/151
f 185/203/186 87/159/149 190/212/195
f 185/203/186 6/157/147 86/156/146
f 48/132/126 364/369/345 4/133/127
f 50/135/129 365/370/346 48/132/126
f 52/137/131 363/371/347 50/135/129
f 54/139/133 366/372/94 52/137/131
f 113/169/157 360/373/95 54/174/133
f 104/164/153 361/374/348 113/169/157
f 93/155/145 362/375/349 104/164/153
f 93/155/145 367/376/350 359/377/351
f 204/227/206 355/378/352 354/379/353
f 209/236/214 354/379/353 357/380/354
f 214/241/218 357/380/354 353/381/355
f 184/211/194 353/381/355 351/382/356
f 183/209/192 351/382/356 350/383/357
f 182/207/190 350/383/357 352/384/358
f 181/204/187 352/384/358 358/385/359
f 159/205/188 358/385/359 356/386/360
f 280/310/286 165/179/162 158/181/164
f 284/312/288 165/179/162 283/309/285
f 285/314/290 170/188/171 284/312/288
f 286/316/292 175/193/176 285/314/290
f 317/346/322 203/235/181 286/316/292
f 312/341/317 202/233/212 317/346/322
f 307/332/308 201/231/210 312/341/317
f 281/334/310 200/228/207 307/332/308
f 282/354/330 348/387/361 326/352/328
f 331/360/336 348/387/361 345/388/362
f 336/364/340 345/388/362 346/389/363
f 306/340/316 346/389/363 349/390/97
f 305/338/314 349/390/97 342/391/96
f 304/336/312 342/391/96 343/392/364
f 303/333/309 343/392/364 344/393/365
f 281/334/310 344/393/365 341/394/366
f 219/249/225 287/308/284 280/310/286
f 223/251/227 287/308/284 222/248/224
f 223/251/227 297/322/298 292/317/293
f 225/255/231 297/322/298 224/253/229
f 256/285/261 325/327/303 225/255/231
f 251/280/256 324/358/334 256/285/261
f 251/280/256 322/353/329 323/356/332
f 220/273/249 322/353/329 246/271/247
f 221/293/269 369/395/367 265/291/267
f 265/291/267 375/396/368 270/299/275
f 270/299/275 376/397/369 275/303/279
f 275/303/279 372/398/370 245/279/255
f 245/279/255 373/399/371 244/277/253
f 244/277/253 374/400/372 243/275/251
f 243/275/251 371/401/373 242/272/248
f 242/272/248 370/402/374 220/273/249
f 8/108/102 219/249/225 2/109/103
f 8/108/102 231/256/232 226/247/223
f 11/113/107 231/256/232 9/111/105
f 14/115/109 236/261/237 11/113/107
f 75/145/139 264/266/242 14/150/109
f 66/140/134 263/297/273 75/145/139
f 56/131/125 262/295/271 66/140/134
f 4/133/127 261/292/268 56/131/125
f 158/181/164 219/249/225 280/310/286
f 6/157/147 356/386/360 367/376/350
f 4/133/127 368/403/375 221/293/269
f 160/229/208 341/394/366 355/378/352
f 220/273/249 347/404/376 282/354/330
f 378/1/377 379/405/378 377/3/379
f 380/406/380 381/407/381 379/405/378
f 382/408/382 383/409/383 381/407/381
f 384/410/384 385/411/385 383/409/383
f 386/412/386 387/13/387 385/411/385
f 388/14/388 389/413/389 387/13/387
f 390/414/390 391/415/391 389/413/389
f 392/416/392 393/417/393 391/415/391
f 394/418/394 395/419/395 393/417/393
f 396/420/396 397/25/397 395/419/395
f 398/26/398 399/421/399 397/25/397
f 400/422/400 401/423/401 399/421/399
f 402/424/402 403/425/403 401/423/401
f 404/426/404 405/427/405 403/425/403
f 406/428/406 407/37/407 405/427/405
f 408/38/408 409/429/409 407/37/407
f 410/430/410 411/431/411 409/429/409
f 412/432/412 413/433/413 411/431/411
f 414/434/414 415/435/415 413/433/413
f 416/436/416 417/49/417 415/435/415
f 418/50/418 419/437/419 417/49/417
f 420/438/420 421/439/421 419/437/419
f 422/440/422 423/441/423 421/439/421
f 424/442/424 425/443/425 423/441/423
f 426/444/426 427/445/427 425/443/425
f 428/446/428 429/447/429 427/445/427
f 430/448/430 431/449/431 429/447/429
f 432/450/432 433/451/433 431/449/431
f 434/452/434 435/453/435 433/451/433
f 436/454/436 437/455/437 435/453/435
f 438/456/438 439/457/439 437/455/437
f 440/458/440 441/459/441 439/457/439
f 442/460/442 443/461/443 441/459/441
f 444/462/444 445/463/445 443/461/443
f 446/464/446 447/85/447 445/463/445
f 448/86/448 449/465/449 447/85/447
f 450/466/450 451/467/451 449/465/449
f 452/468/452 453/469/453 451/467/451
f 430/470/430 398/471/398 382/472/382
f 454/473/454 455/474/455 453/469/453
f 456/475/456 377/476/379 455/474/455
f 407/477/407 439/478/439 455/479/455
f 3/1/1 7/4/4 5/2/2
f 7/4/4 12/6/6 10/5/5
f 12/6/6 15/8/8 13/7/7
f 15/8/8 19/10/10 18/9/9
f 19/10/10 23/12/12 22/11/11
f 23/12/12 28/14/14 26/13/13
f 28/14/14 31/16/16 29/15/15
f 31/16/16 36/18/18 34/17/17
f 36/18/18 40/20/20 37/19/19
f 40/20/20 43/22/22 41/21/21
f 43/22/22 47/24/24 45/23/23
f 47/24/24 51/26/26 49/25/25
f 51/26/26 55/28/28 53/27/27
f 55/28/28 60/30/30 58/29/29
f 60/30/30 64/32/32 62/31/31
f 64/32/32 67/34/34 65/33/33
f 67/34/34 71/36/36 69/35/35
f 71/36/36 76/38/38 73/37/37
f 76/38/38 79/40/40 78/39/39
f 79/40/40 83/42/42 82/41/41
f 83/42/42 88/44/44 85/43/43
f 88/44/44 92/46/46 90/45/45
f 92/46/46 96/48/48 94/47/47
f 96/48/48 99/50/50 97/49/49
f 99/50/50 103/52/52 102/51/51
f 103/52/52 107/54/54 105/53/53
f 107/54/54 112/56/56 110/55/55
f 112/56/56 116/58/58 114/57/57
f 116/58/58 120/60/60 118/59/59
f 120/60/60 123/62/62 121/61/61
f 123/62/62 125/64/64 124/63/63
f 125/64/64 127/66/66 126/65/65
f 127/66/66 129/68/68 128/67/67
f 129/68/68 131/70/70 130/69/69
f 131/70/70 133/72/72 132/71/71
f 133/72/72 135/74/74 134/73/73
f 135/74/74 137/76/76 136/75/75
f 137/76/76 139/78/78 138/77/77
f 139/78/78 141/80/80 140/79/79
f 141/80/80 143/82/82 142/81/81
f 143/82/82 145/84/84 144/83/83
f 145/84/84 147/86/86 146/85/85
f 147/86/86 149/88/88 148/87/87
f 149/88/88 151/90/90 150/89/89
f 151/90/90 153/92/92 152/91/91
f 153/92/92 155/100/98 154/93/93
f 149/480/88 147/481/86 145/482/84
f 145/482/84 143/483/82 141/484/80
f 141/484/80 139/485/78 137/486/76
f 137/486/76 135/487/74 133/488/72
f 133/488/72 131/489/70 372/490/370
f 133/488/72 372/490/370 376/491/369
f 141/484/80 137/486/76 133/488/72
f 149/480/88 145/482/84 141/484/80
f 153/492/92 151/493/90 149/480/88
f 157/494/100 155/495/98 153/492/92
f 7/96/4 3/496/1 157/494/100
f 15/497/8 12/498/6 7/96/4
f 23/499/12 19/500/10 15/497/8
f 31/501/16 28/502/14 23/499/12
f 40/503/20 36/504/18 31/501/16
f 351/505/356 43/506/22 40/503/20
f 350/507/357 351/505/356 40/503/20
f 40/503/20 31/501/16 23/499/12
f 23/499/12 15/497/8 7/96/4
f 7/96/4 157/494/100 153/492/92
f 153/492/92 149/480/88 141/484/80
f 141/484/80 133/488/72 376/491/369
f 141/484/80 376/491/369 375/508/368
f 7/96/4 153/492/92 141/484/80
f 40/503/20 23/499/12 7/96/4
f 352/509/358 350/507/357 40/503/20
f 358/510/359 352/509/358 40/503/20
f 7/96/4 141/484/80 375/508/368
f 7/96/4 375/508/368 369/511/367
f 356/512/360 358/510/359 40/503/20
f 367/513/350 356/512/360 40/503/20
f 7/96/4 369/511/367 368/514/375
f 7/96/4 368/514/375 364/515/345
f 367/513/350 40/503/20 7/96/4
f 359/516/351 367/513/350 7/96/4
f 7/96/4 364/515/345 365/517/346
f 7/96/4 365/517/346 363/518/347
f 362/519/349 359/516/351 7/96/4
f 361/520/348 362/519/349 7/96/4
f 7/96/4 363/518/347 366/94/94
f 360/95/95 361/520/348 7/96/4
f 79/521/40 76/522/38 71/523/36
f 71/523/36 67/524/34 64/525/32
f 64/525/32 60/526/30 55/527/28
f 55/527/28 51/471/26 47/528/24
f 47/528/24 43/506/22 351/505/356
f 47/528/24 351/505/356 353/529/355
f 64/525/32 55/527/28 47/528/24
f 79/521/40 71/523/36 64/525/32
f 88/530/44 83/531/42 79/521/40
f 96/532/48 92/533/46 88/530/44
f 103/99/52 99/534/50 96/532/48
f 112/535/56 107/536/54 103/99/52
f 120/537/60 116/538/58 112/535/56
f 125/539/64 123/540/62 120/537/60
f 129/541/68 127/542/66 125/539/64
f 372/490/370 131/489/70 129/541/68
f 373/543/371 372/490/370 129/541/68
f 129/541/68 125/539/64 120/537/60
f 120/537/60 112/535/56 103/99/52
f 103/99/52 96/532/48 88/530/44
f 88/530/44 79/521/40 64/525/32
f 64/525/32 47/528/24 353/529/355
f 64/525/32 353/529/355 357/544/354
f 103/99/52 88/530/44 64/525/32
f 129/541/68 120/537/60 103/99/52
f 374/545/372 373/543/371 129/541/68
f 371/546/373 374/545/372 129/541/68
f 103/99/52 64/525/32 357/544/354
f 103/99/52 357/544/354 354/547/353
f 370/548/374 371/546/373 129/541/68
f 347/549/376 370/548/374 129/541/68
f 103/99/52 354/547/353 355/550/352
f 103/99/52 355/550/352 341/551/366
f 347/549/376 129/541/68 103/99/52
f 348/552/361 347/549/376 103/99/52
f 103/99/52 341/551/366 344/553/365
f 103/99/52 344/553/365 343/554/364
f 345/555/362 348/552/361 103/99/52
f 346/556/363 345/555/362 103/99/52
f 103/99/52 343/554/364 342/97/96
f 349/98/97 346/556/363 103/99/52
f 155/100/98 157/102/100 156/101/99
f 157/102/100 3/557/1 1/103/3
f 154/106/93 156/558/99 1/559/3
f 1/559/3 5/560/2 10/561/5
f 10/561/5 13/562/7 18/563/9
f 18/563/9 22/564/11 26/565/13
f 26/565/13 29/566/15 34/567/17
f 34/567/17 37/568/19 41/569/21
f 41/569/21 45/570/23 49/571/25
f 49/571/25 53/572/27 58/104/29
f 58/104/29 62/573/31 65/574/33
f 65/574/33 69/575/35 73/477/37
f 73/477/37 78/576/39 82/577/41
f 82/577/41 85/578/43 90/579/45
f 90/579/45 94/580/47 97/581/49
f 97/581/49 102/582/51 105/583/53
f 105/583/53 110/584/55 114/585/57
f 114/585/57 118/586/59 121/105/61
f 121/105/61 124/587/63 126/588/65
f 126/588/65 128/589/67 130/590/69
f 130/590/69 132/591/71 134/592/73
f 134/592/73 136/593/75 138/594/77
f 138/594/77 140/595/79 142/596/81
f 142/596/81 144/597/83 146/598/85
f 146/598/85 148/599/87 150/600/89
f 150/600/89 152/601/91 154/106/93
f 154/106/93 1/559/3 10/561/5
f 10/561/5 18/563/9 26/565/13
f 26/565/13 34/567/17 41/569/21
f 41/569/21 49/571/25 58/104/29
f 58/104/29 65/574/33 73/477/37
f 73/477/37 82/577/41 90/579/45
f 90/579/45 97/581/49 105/583/53
f 105/583/53 114/585/57 121/105/61
f 121/105/61 126/588/65 130/590/69
f 130/590/69 134/592/73 138/594/77
f 138/594/77 142/596/81 146/598/85
f 146/598/85 150/600/89 154/106/93
f 154/106/93 10/561/5 26/565/13
f 26/565/13 41/569/21 58/104/29
f 58/104/29 73/477/37 90/579/45
f 90/579/45 105/583/53 121/105/61
f 121/105/61 130/590/69 138/594/77
f 138/594/77 146/598/85 154/106/93
f 154/106/93 26/565/13 58/104/29
f 58/104/29 90/579/45 121/105/61
f 121/105/61 138/594/77 154/106/93
f 16/107/101 17/110/104 8/108/102
f 17/110/104 20/112/106 9/111/105
f 20/112/106 21/114/108 11/113/107
f 21/114/108 24/120/114 14/115/109
f 25/116/110 27/117/111 17/110/104
f 27/117/111 30/118/112 20/112/106
f 30/118/112 32/119/113 21/114/108
f 32/119/113 33/125/119 24/120/114
f 35/121/115 38/122/116 27/117/111
f 38/122/116 39/128/122 30/118/112
f 30/118/112 39/128/122 42/123/117
f 32/119/113 42/123/117 44/124/118
f 91/126/120 101/127/121 38/122/116
f 101/127/121 111/602/160 39/128/122
f 39/128/122 111/602/160 122/129/123
f 42/123/117 122/129/123 46/130/124
f 56/131/125 57/134/128 48/132/126
f 57/134/128 59/136/130 50/135/129
f 59/136/130 61/138/132 52/137/131
f 61/138/132 63/144/138 54/139/133
f 66/140/134 68/141/135 57/134/128
f 68/141/135 70/142/136 59/136/130
f 70/142/136 72/143/137 61/138/132
f 72/143/137 74/149/143 63/144/138
f 75/145/139 77/146/140 68/141/135
f 77/146/140 80/152/144 70/142/136
f 70/142/136 80/152/144 81/147/141
f 72/143/137 81/147/141 84/148/142
f 14/150/109 24/151/114 77/146/140
f 24/151/114 33/603/119 80/152/144
f 80/152/144 33/603/119 44/153/118
f 81/147/141 44/153/118 46/154/124
f 93/155/145 95/158/148 86/156/146
f 95/158/148 98/160/150 87/159/149
f 98/160/150 100/162/152 89/161/151
f 100/162/152 101/168/121 91/163/120
f 104/164/153 106/165/154 95/158/148
f 106/165/154 108/166/155 98/160/150
f 108/166/155 109/167/156 100/162/152
f 109/167/156 111/173/160 101/168/121
f 113/169/157 115/170/158 106/165/154
f 115/170/158 117/176/161 108/166/155
f 108/166/155 117/176/161 119/171/159
f 109/167/156 119/171/159 122/172/123
f 54/174/133 63/175/138 115/170/158
f 63/175/138 74/604/143 117/176/161
f 117/176/161 74/604/143 84/177/142
f 119/171/159 84/177/142 46/178/124
f 165/179/162 166/182/165 161/180/163
f 166/182/165 167/184/167 162/183/166
f 167/184/167 168/186/169 163/185/168
f 168/186/169 169/192/175 164/187/170
f 170/188/171 171/189/172 166/182/165
f 171/189/172 172/190/173 167/184/167
f 172/190/173 173/191/174 168/186/169
f 173/191/174 174/197/180 169/192/175
f 175/193/176 176/194/177 171/189/172
f 176/194/177 177/200/183 172/190/173
f 172/190/173 177/200/183 178/195/178
f 173/191/174 178/195/178 179/196/179
f 203/198/181 208/199/182 176/194/177
f 208/199/182 213/605/221 177/200/183
f 177/200/183 213/605/221 218/201/184
f 178/195/178 218/201/184 180/202/185
f 185/203/186 186/206/189 181/204/187
f 186/206/189 187/208/191 182/207/190
f 187/208/191 188/210/193 183/209/192
f 188/210/193 189/216/199 184/211/194
f 190/212/195 191/213/196 186/206/189
f 191/213/196 192/214/197 187/208/191
f 192/214/197 193/215/198 188/210/193
f 193/215/198 194/221/204 189/216/199
f 195/217/200 196/218/201 191/213/196
f 196/218/201 197/224/205 192/214/197
f 192/214/197 197/224/205 198/219/202
f 193/215/198 198/219/202 199/220/203
f 164/222/170 169/223/175 196/218/201
f 169/223/175 174/606/180 197/224/205
f 197/224/205 174/606/180 179/225/179
f 198/219/202 179/225/179 180/226/185
f 204/227/206 205/230/209 200/228/207
f 205/230/209 206/232/211 201/231/210
f 206/232/211 207/234/213 202/233/212
f 207/234/213 208/240/182 203/235/181
f 209/236/214 210/237/215 205/230/209
f 210/237/215 211/238/216 206/232/211
f 211/238/216 212/239/217 207/234/213
f 212/239/217 213/245/221 208/240/182
f 214/241/218 215/242/219 210/237/215
f 215/242/219 216/246/222 211/238/216
f 211/238/216 216/246/222 217/243/220
f 212/239/217 217/243/220 218/244/184
f 184/211/194 189/216/199 215/242/219
f 189/216/199 194/221/204 216/246/222
f 216/246/222 194/221/204 199/220/203
f 217/243/220 199/220/203 180/226/185
f 226/247/223 227/250/226 222/248/224
f 227/250/226 228/252/228 223/251/227
f 228/252/228 229/254/230 224/253/229
f 229/254/230 230/260/236 225/255/231
f 231/256/232 232/257/233 227/250/226
f 232/257/233 233/258/234 228/252/228
f 233/258/234 234/259/235 229/254/230
f 234/259/235 235/265/241 230/260/236
f 236/261/237 237/262/238 232/257/233
f 237/262/238 238/268/244 233/258/234
f 233/258/234 238/268/244 239/263/239
f 234/259/235 239/263/239 240/264/240
f 264/266/242 269/267/243 237/262/238
f 269/267/243 274/306/282 238/268/244
f 238/268/244 274/306/282 279/269/245
f 239/263/239 279/269/245 241/270/246
f 246/271/247 247/274/250 242/272/248
f 247/274/250 248/276/252 243/275/251
f 248/276/252 249/278/254 244/277/253
f 249/278/254 250/284/260 245/279/255
f 251/280/256 252/281/257 247/274/250
f 252/281/257 253/282/258 248/276/252
f 253/282/258 254/283/259 249/278/254
f 254/283/259 255/289/265 250/284/260
f 256/285/261 257/286/262 252/281/257
f 257/286/262 258/290/266 253/282/258
f 253/282/258 258/290/266 259/287/263
f 254/283/259 259/287/263 260/288/264
f 225/255/231 230/260/236 257/286/262
f 230/260/236 235/265/241 258/290/266
f 258/290/266 235/265/241 240/264/240
f 259/287/263 240/264/240 241/270/246
f 265/291/267 266/294/270 261/292/268
f 266/294/270 267/296/272 262/295/271
f 267/296/272 268/298/274 263/297/273
f 268/298/274 269/267/243 264/266/242
f 270/299/275 271/300/276 266/294/270
f 271/300/276 272/301/277 267/296/272
f 272/301/277 273/302/278 268/298/274
f 273/302/278 274/306/282 269/267/243
f 275/303/279 276/304/280 271/300/276
f 276/304/280 277/307/283 272/301/277
f 272/301/277 277/307/283 278/305/281
f 273/302/278 278/305/281 279/269/245
f 245/279/255 250/284/260 276/304/280
f 250/284/260 255/289/265 277/307/283
f 277/307/283 255/289/265 260/288/264
f 278/305/281 260/288/264 241/270/246
f 287/308/284 288/311/287 283/309/285
f 288/311/287 289/313/289 284/312/288
f 289/313/289 290/315/291 285/314/290
f 290/315/291 291/321/297 286/316/292
f 292/317/293 293/318/294 288/311/287
f 293/318/294 294/319/295 289/313/289
f 294/319/295 295/320/296 290/315/291
f 295/320/296 296/326/302 291/321/297
f 297/322/298 298/323/299 293/318/294
f 298/323/299 299/329/305 294/319/295
f 294/319/295 299/329/305 300/324/300
f 295/320/296 300/324/300 301/325/301
f 325/327/303 330/328/304 298/323/299
f 330/328/304 335/367/343 299/329/305
f 299/329/305 335/367/343 340/330/306
f 300/324/300 340/330/306 302/331/307
f 307/332/308 308/335/311 303/333/309
f 308/335/311 309/337/313 304/336/312
f 309/337/313 310/339/315 305/338/314
f 310/339/315 311/345/321 306/340/316
f 312/341/317 313/342/318 308/335/311
f 313/342/318 314/343/319 309/337/313
f 314/343/319 315/344/320 310/339/315
f 315/344/320 316/350/326 311/345/321
f 317/346/322 318/347/323 313/342/318
f 318/347/323 319/351/327 314/343/319
f 314/343/319 319/351/327 320/348/324
f 315/344/320 320/348/324 321/349/325
f 286/316/292 291/321/297 318/347/323
f 291/321/297 296/326/302 319/351/327
f 319/351/327 296/326/302 301/325/301
f 320/348/324 301/325/301 302/331/307
f 326/352/328 327/355/331 322/353/329
f 327/355/331 328/357/333 323/356/332
f 328/357/333 329/359/335 324/358/334
f 329/359/335 330/328/304 325/327/303
f 331/360/336 332/361/337 327/355/331
f 332/361/337 333/362/338 328/357/333
f 333/362/338 334/363/339 329/359/335
f 334/363/339 335/367/343 330/328/304
f 336/364/340 337/365/341 332/361/337
f 337/365/341 338/368/344 333/362/338
f 333/362/338 338/368/344 339/366/342
f 334/363/339 339/366/342 340/330/306
f 306/340/316 311/345/321 337/365/341
f 311/345/321 316/350/326 338/368/344
f 338/368/344 316/350/326 321/349/325
f 339/366/342 321/349/325 302/331/307
f 158/181/164 161/180/163 16/107/101
f 162/183/166 25/116/110 16/107/101
f 162/183/166 163/185/168 35/121/115
f 164/187/170 91/126/120 35/121/115
f 195/217/200 89/161/151 91/163/120
f 195/217/200 190/212/195 87/159/149
f 185/203/186 86/156/146 87/159/149
f 185/203/186 159/205/188 6/157/147
f 48/132/126 365/370/346 364/369/345
f 50/135/129 363/371/347 365/370/346
f 52/137/131 366/372/94 363/371/347
f 54/139/133 360/607/95 366/372/94
f 113/169/157 361/374/348 360/373/95
f 104/164/153 362/375/349 361/374/348
f 93/155/145 359/377/351 362/375/349
f 93/155/145 6/157/147 367/376/350
f 204/227/206 160/229/208 355/378/352
f 209/236/214 204/227/206 354/379/353
f 214/241/218 209/236/214 357/380/354
f 184/211/194 214/241/218 353/381/355
f 183/209/192 184/211/194 351/382/356
f 182/207/190 183/209/192 350/383/357
f 181/204/187 182/207/190 352/384/358
f 159/205/188 181/204/187 358/385/359
f 280/310/286 283/309/285 165/179/162
f 284/312/288 170/188/171 165/179/162
f 285/314/290 175/193/176 170/188/171
f 286/316/292 203/198/181 175/193/176
f 317/346/322 202/233/212 203/235/181
f 312/341/317 201/231/210 202/233/212
f 307/332/308 200/228/207 201/231/210
f 281/334/310 160/229/208 200/228/207
f 282/354/330 347/404/376 348/387/361
f 331/360/336 326/352/328 348/387/361
f 336/364/340 331/360/336 345/388/362
f 306/340/316 336/364/340 346/389/363
f 305/338/314 306/340/316 349/390/97
f 304/336/312 305/338/314 342/391/96
f 303/333/309 304/336/312 343/392/364
f 281/334/310 303/333/309 344/393/365
f 219/249/225 222/248/224 287/308/284
f 223/251/227 292/317/293 287/308/284
f 223/251/227 224/253/229 297/322/298
f 225/255/231 325/327/303 297/322/298
f 256/285/261 324/358/334 325/327/303
f 251/280/256 323/356/332 324/358/334
f 251/280/256 246/271/247 322/353/329
f 220/273/249 282/354/330 322/353/329
f 221/293/269 368/403/375 369/395/367
f 265/291/267 369/395/367 375/396/368
f 270/299/275 375/396/368 376/397/369
f 275/303/279 376/397/369 372/398/370
f 245/279/255 372/398/370 373/399/371
f 244/277/253 373/399/371 374/400/372
f 243/275/251 374/400/372 371/401/373
f 242/272/248 371/401/373 370/402/374
f 8/108/102 226/247/223 219/249/225
f 8/108/102 9/111/105 231/256/232
f 11/113/107 236/261/237 231/256/232
f 14/115/109 264/266/242 236/261/237
f 75/145/139 263/297/273 264/266/242
f 66/140/134 262/295/271 263/297/273
f 56/131/125 261/292/268 262/295/271
f 4/133/127 221/293/269 261/292/268
f 158/181/164 2/109/103 219/249/225
f 6/157/147 159/205/188 356/386/360
f 4/133/127 364/369/345 368/403/375
f 160/229/208 281/334/310 341/394/366
f 220/273/249 370/402/374 347/404/376
f 378/1/377 380/406/380 379/405/378
f 380/406/380 382/408/382 381/407/381
f 382/408/382 384/410/384 383/409/383
f 384/410/384 386/412/386 385/411/385
f 386/412/386 388/14/388 387/13/387
f 388/14/388 390/414/390 389/413/389
f 390/414/390 392/416/392 391/415/391
f 392/416/392 394/418/394 393/417/393
f 394/418/394 396/420/396 395/419/395
f 396/420/396 398/26/398 397/25/397
f 398/26/398 400/422/400 399/421/399
f 400/422/400 402/424/402 401/423/401
f 402/424/402 404/426/404 403/425/403
f 404/426/404 406/428/406 405/427/405
f 406/428/406 408/38/408 407/37/407
f 408/38/408 410/430/410 409/429/409
f 410/430/410 412/432/412 411/431/411
f 412/432/412 414/434/414 413/433/413
f 414/434/414 416/436/416 415/435/415
f 416/436/416 418/50/418 417/49/417
f 418/50/418 420/438/420 419/437/419
f 420/438/420 422/440/422 421/439/421
f 422/440/422 424/442/424 423/441/423
f 424/442/424 426/444/426 425/443/425
f 426/444/426 428/446/428 427/445/427
f 428/446/428 430/448/430 429/447/429
f 430/448/430 432/450/432 431/449/431
f 432/450/432 434/452/434 433/451/433
f 434/452/434 436/454/436 435/453/435
f 436/454/436 438/456/438 437/455/437
f 438/456/438 440/458/440 439/457/439
f 440/458/440 442/460/442 441/459/441
f 442/460/442 444/462/444 443/461/443
f 444/462/444 446/464/446 445/463/445
f 446/464/446 448/86/448 447/85/447
f 448/86/448 450/466/450 449/465/449
f 450/466/450 452/468/452 451/467/451
f 452/468/452 454/473/454 453/469/453
f 382/472/382 380/608/380 378/496/377
f 378/496/377 456/609/456 454/610/454
f 454/610/454 452/611/452 450/612/450
f 450/612/450 448/481/448 446/613/446
f 446/613/446 444/614/444 442/615/442
f 442/615/442 440/616/440 438/487/438
f 438/487/438 436/617/436 434/618/434
f 434/618/434 432/619/432 430/470/430
f 430/470/430 428/540/428 426/620/426
f 426/620/426 424/621/424 422/622/422
f 422/622/422 420/623/420 418/534/418
f 418/534/418 416/624/416 414/625/414
f 414/625/414 412/626/412 410/627/410
f 410/627/410 408/522/408 406/628/406
f 406/628/406 404/629/404 402/630/402
f 402/630/402 400/631/400 398/471/398
f 398/471/398 396/632/396 394/633/394
f 394/633/394 392/634/392 390/635/390
f 390/635/390 388/502/388 386/636/386
f 386/636/386 384/637/384 382/472/382
f 382/472/382 378/496/377 454/610/454
f 454/610/454 450/612/450 446/613/446
f 446/613/446 442/615/442 438/487/438
f 438/487/438 434/618/434 430/470/430
f 430/470/430 426/620/426 422/622/422
f 422/622/422 418/534/418 414/625/414
f 414/625/414 410/627/410 406/628/406
f 406/628/406 402/630/402 398/471/398
f 398/471/398 394/633/394 390/635/390
f 390/635/390 386/636/386 382/472/382
f 382/472/382 454/610/454 446/613/446
f 446/613/446 438/487/438 430/470/430
f 430/470/430 422/622/422 414/625/414
f 414/625/414 406/628/406 398/471/398
f 398/471/398 390/635/390 382/472/382
f 382/472/382 446/613/446 430/470/430
f 430/470/430 414/625/414 398/471/398
f 454/473/454 456/475/456 455/474/455
f 456/475/456 378/638/377 377/476/379
f 455/479/455 377/559/379 379/639/378
f 379/639/378 381/640/381 383/641/383
f 383/641/383 385/642/385 387/565/387
f 387/565/387 389/643/389 391/644/391
f 391/644/391 393/645/393 395/646/395
f 395/646/395 397/571/397 399/647/399
f 399/647/399 401/648/401 403/649/403
f 403/649/403 405/650/405 407/477/407
f 407/477/407 409/651/409 411/652/411
f 411/652/411 413/653/413 415/654/415
f 415/654/415 417/581/417 419/655/419
f 419/655/419 421/656/421 423/657/423
f 423/657/423 425/658/425 427/105/427
f 427/105/427 429/659/429 431/660/431
f 431/660/431 433/661/433 435/662/435
f 435/662/435 437/592/437 439/478/439
f 439/478/439 441/663/441 443/664/443
f 443/664/443 445/665/445 447/598/447
f 447/598/447 449/666/449 451/667/451
f 451/667/451 453/668/453 455/479/455
f 455/479/455 379/639/378 383/641/383
f 383/641/383 387/565/387 391/644/391
f 391/644/391 395/646/395 399/647/399
f 399/647/399 403/649/403 407/477/407
f 407/477/407 411/652/411 415/654/415
f 415/654/415 419/655/419 423/657/423
f 423/657/423 427/105/427 431/660/431
f 431/660/431 435/662/435 439/478/439
f 439/478/439 443/664/443 447/598/447
f 447/598/447 451/667/451 455/479/455
f 455/479/455 383/641/383 391/644/391
f 391/644/391 399/647/399 407/477/407
f 407/477/407 415/654/415 423/657/423
f 423/657/423 431/660/431 439/478/439
f 439/478/439 447/598/447 455/479/455
f 455/479/455 391/644/391 407/477/407
f 407/477/407 423/657/423 439/478/439
