# Blender 4.5.0
# www.blender.org
mtllib mesh_008.mtl
o mesh_008
v -0.041974 -0.239279 0.343691
v -0.041772 -0.240401 0.339733
v -0.041167 -0.241514 0.335813
v -0.040166 -0.242604 0.331969
v -0.038779 -0.243663 0.328238
v -0.037018 -0.244679 0.324656
v -0.034900 -0.245644 0.321257
v -0.032446 -0.246547 0.318074
v -0.029680 -0.247380 0.315138
v -0.026628 -0.248135 0.312477
v -0.023319 -0.248805 0.310116
v -0.019786 -0.249383 0.308079
v -0.016063 -0.249863 0.306385
v -0.012184 -0.250242 0.305050
v -0.008189 -0.250515 0.304087
v -0.004114 -0.250680 0.303506
v -0.000000 -0.250735 0.303311
v 0.004114 -0.250680 0.303506
v 0.008189 -0.250515 0.304087
v 0.012184 -0.250242 0.305050
v 0.016063 -0.249863 0.306385
v 0.019786 -0.249383 0.308079
v 0.023319 -0.248805 0.310116
v 0.026628 -0.248135 0.312477
v 0.029680 -0.247380 0.315138
v 0.032446 -0.246547 0.318074
v 0.034900 -0.245644 0.321257
v 0.037018 -0.244679 0.324656
v 0.038779 -0.243663 0.328238
v 0.040166 -0.242604 0.331969
v 0.041167 -0.241514 0.335813
v 0.041772 -0.240401 0.339733
v 0.041974 -0.239279 0.343691
v 0.041772 -0.238156 0.347649
v 0.041167 -0.237043 0.351569
v 0.040166 -0.235953 0.355413
v 0.038779 -0.234894 0.359144
v 0.037018 -0.233878 0.362726
v 0.034900 -0.232913 0.366125
v 0.032446 -0.232010 0.369308
v 0.029680 -0.231177 0.372244
v 0.026628 -0.230422 0.374905
v 0.023319 -0.229753 0.377266
v 0.019786 -0.229175 0.379303
v 0.016063 -0.228694 0.380997
v 0.012184 -0.228315 0.382332
v 0.008189 -0.228042 0.383295
v 0.004114 -0.227877 0.383877
v 0.000000 -0.227822 0.384071
v -0.004114 -0.227877 0.383877
v -0.008189 -0.228042 0.383295
v -0.012184 -0.228315 0.382332
v -0.016063 -0.228694 0.380997
v -0.019786 -0.229175 0.379303
v -0.023319 -0.229753 0.377266
v -0.026628 -0.230422 0.374905
v -0.029680 -0.231177 0.372244
v -0.032446 -0.232010 0.369308
v -0.034900 -0.232913 0.366125
v -0.037018 -0.233878 0.362726
v -0.038779 -0.234894 0.359144
v -0.040166 -0.235953 0.355413
v -0.041167 -0.237043 0.351569
v -0.041772 -0.238156 0.347649
v -0.046125 -0.322013 0.367165
v -0.045903 -0.323247 0.362816
v -0.045239 -0.324469 0.358508
v -0.044139 -0.325668 0.354284
v -0.042614 -0.326831 0.350184
v -0.040679 -0.327948 0.346247
v -0.038352 -0.329007 0.342512
v -0.035655 -0.330000 0.339015
v -0.032615 -0.330915 0.335788
v -0.029261 -0.331745 0.332864
v -0.025626 -0.332481 0.330270
v -0.021743 -0.333116 0.328031
v -0.017651 -0.333644 0.326169
v -0.013389 -0.334061 0.324702
v -0.008999 -0.334361 0.323644
v -0.004521 -0.334542 0.323005
v -0.000000 -0.334603 0.322791
v 0.004521 -0.334542 0.323005
v 0.008999 -0.334361 0.323644
v 0.013389 -0.334061 0.324702
v 0.017651 -0.333644 0.326169
v 0.021743 -0.333116 0.328031
v 0.025626 -0.332481 0.330270
v 0.029261 -0.331745 0.332864
v 0.032615 -0.330915 0.335788
v 0.035655 -0.330000 0.339015
v 0.038352 -0.329007 0.342512
v 0.040679 -0.327948 0.346247
v 0.042614 -0.326831 0.350184
v 0.044139 -0.325668 0.354284
v 0.045239 -0.324469 0.358508
v 0.045903 -0.323247 0.362816
v 0.046125 -0.322013 0.367165
v 0.045903 -0.320779 0.371514
v 0.045239 -0.319557 0.375822
v 0.044139 -0.318358 0.380046
v 0.042614 -0.317195 0.384146
v 0.040679 -0.316078 0.388082
v 0.038352 -0.315018 0.391818
v 0.035655 -0.314026 0.395315
v 0.032615 -0.313111 0.398542
v 0.029261 -0.312281 0.401466
v 0.025626 -0.311545 0.404060
v 0.021743 -0.310910 0.406299
v 0.017651 -0.310381 0.408161
v 0.013389 -0.309965 0.409628
v 0.008999 -0.309665 0.410686
v 0.004521 -0.309484 0.411325
v 0.000000 -0.309423 0.411538
v -0.004521 -0.309484 0.411325
v -0.008999 -0.309665 0.410686
v -0.013389 -0.309965 0.409628
v -0.017651 -0.310381 0.408161
v -0.021743 -0.310910 0.406299
v -0.025626 -0.311545 0.404060
v -0.029261 -0.312281 0.401466
v -0.032615 -0.313111 0.398542
v -0.035655 -0.314026 0.395315
v -0.038352 -0.315018 0.391818
v -0.040679 -0.316078 0.388082
v -0.042614 -0.317195 0.384146
v -0.044139 -0.318358 0.380046
v -0.045239 -0.319557 0.375822
v -0.045903 -0.320779 0.371514
v 0.000000 -0.239279 0.343691
v 0.000000 -0.322013 0.367165
vn -0.9988 0.0464 -0.0132
vn -0.9940 0.0197 -0.1073
vn -0.9796 -0.0068 -0.2006
vn -0.9558 -0.0328 -0.2921
vn -0.9228 -0.0579 -0.3809
vn -0.8809 -0.0821 -0.4661
vn -0.8305 -0.1051 -0.5470
vn -0.7721 -0.1266 -0.6228
vn -0.7063 -0.1464 -0.6926
vn -0.6337 -0.1644 -0.7560
vn -0.5549 -0.1803 -0.8121
vn -0.4708 -0.1941 -0.8606
vn -0.3822 -0.2055 -0.9009
vn -0.2899 -0.2145 -0.9327
vn -0.1949 -0.2210 -0.9556
vn -0.0979 -0.2249 -0.9694
vn -0.0000 -0.2263 -0.9741
vn 0.0979 -0.2249 -0.9694
vn 0.1949 -0.2210 -0.9556
vn 0.2899 -0.2145 -0.9327
vn 0.3822 -0.2055 -0.9009
vn 0.4709 -0.1941 -0.8606
vn 0.4708 -0.1941 -0.8606
vn 0.5549 -0.1803 -0.8121
vn 0.6337 -0.1644 -0.7560
vn 0.7063 -0.1464 -0.6926
vn 0.7721 -0.1266 -0.6228
vn 0.8305 -0.1051 -0.5470
vn 0.8809 -0.0821 -0.4661
vn 0.9228 -0.0579 -0.3809
vn 0.9558 -0.0328 -0.2921
vn 0.9796 -0.0068 -0.2006
vn 0.9940 0.0197 -0.1073
vn 0.9988 0.0464 -0.0132
vn 0.9940 0.0731 0.0810
vn 0.9796 0.0996 0.1743
vn 0.9558 0.1255 0.2658
vn 0.9228 0.1507 0.3546
vn 0.8809 0.1749 0.4398
vn 0.8305 0.1979 0.5207
vn 0.7721 0.2193 0.5964
vn 0.7063 0.2392 0.6663
vn 0.6337 0.2571 0.7296
vn 0.5549 0.2731 0.7858
vn 0.4708 0.2868 0.8343
vn 0.3822 0.2983 0.8746
vn 0.2899 0.3073 0.9064
vn 0.1949 0.3138 0.9293
vn 0.0979 0.3177 0.9431
vn -0.0000 0.3190 0.9477
vn -0.0979 0.3177 0.9431
vn -0.1949 0.3138 0.9293
vn -0.2899 0.3073 0.9064
vn -0.3822 0.2983 0.8746
vn -0.4708 0.2868 0.8343
vn -0.5549 0.2731 0.7858
vn -0.6337 0.2571 0.7296
vn -0.7063 0.2392 0.6663
vn -0.7721 0.2193 0.5964
vn -0.8305 0.1979 0.5207
vn -0.8305 0.1978 0.5207
vn -0.8809 0.1749 0.4398
vn -0.9228 0.1507 0.3546
vn -0.9558 0.1255 0.2658
vn -0.9796 0.0996 0.1743
vn -0.9940 0.0731 0.0810
vn -0.0000 0.9620 -0.2729
vn -0.0000 -0.9620 0.2730
vn -0.0000 0.9620 -0.2730
vn -0.0000 -0.9620 0.2729
s 1
usemtl Nozzle_satin_plastic
f 1//1 2//2 66//2
f 1//1 66//2 65//1
f 2//2 3//3 67//3
f 2//2 67//3 66//2
f 3//3 4//4 68//4
f 3//3 68//4 67//3
f 4//4 5//5 69//5
f 4//4 69//5 68//4
f 5//5 6//6 70//6
f 5//5 70//6 69//5
f 6//6 7//7 71//7
f 6//6 71//7 70//6
f 7//7 8//8 72//8
f 7//7 72//8 71//7
f 8//8 9//9 73//9
f 8//8 73//9 72//8
f 9//9 10//10 74//10
f 9//9 74//10 73//9
f 10//10 11//11 75//11
f 10//10 75//11 74//10
f 11//11 12//12 76//12
f 11//11 76//12 75//11
f 12//12 13//13 77//13
f 12//12 77//13 76//12
f 13//13 14//14 78//14
f 13//13 78//14 77//13
f 14//14 15//15 79//15
f 14//14 79//15 78//14
f 15//15 16//16 80//16
f 15//15 80//16 79//15
f 16//16 17//17 81//17
f 16//16 81//17 80//16
f 17//17 18//18 82//18
f 17//17 82//18 81//17
f 18//18 19//19 83//19
f 18//18 83//19 82//18
f 19//19 20//20 84//20
f 19//19 84//20 83//19
f 20//20 21//21 85//21
f 20//20 85//21 84//20
f 21//21 22//22 86//23
f 21//21 86//23 85//21
f 22//22 23//24 87//24
f 22//22 87//24 86//23
f 23//24 24//25 88//25
f 23//24 88//25 87//24
f 24//25 25//26 89//26
f 24//25 89//26 88//25
f 25//26 26//27 90//27
f 25//26 90//27 89//26
f 26//27 27//28 91//28
f 26//27 91//28 90//27
f 27//28 28//29 92//29
f 27//28 92//29 91//28
f 28//29 29//30 93//30
f 28//29 93//30 92//29
f 29//30 30//31 94//31
f 29//30 94//31 93//30
f 30//31 31//32 95//32
f 30//31 95//32 94//31
f 31//32 32//33 96//33
f 31//32 96//33 95//32
f 32//33 33//34 97//34
f 32//33 97//34 96//33
f 33//34 34//35 98//35
f 33//34 98//35 97//34
f 34//35 35//36 99//36
f 34//35 99//36 98//35
f 35//36 36//37 100//37
f 35//36 100//37 99//36
f 36//37 37//38 101//38
f 36//37 101//38 100//37
f 37//38 38//39 102//39
f 37//38 102//39 101//38
f 38//39 39//40 103//40
f 38//39 103//40 102//39
f 39//40 40//41 104//41
f 39//40 104//41 103//40
f 40//41 41//42 105//42
f 40//41 105//42 104//41
f 41//42 42//43 106//43
f 41//42 106//43 105//42
f 42//43 43//44 107//44
f 42//43 107//44 106//43
f 43//44 44//45 108//45
f 43//44 108//45 107//44
f 44//45 45//46 109//46
f 44//45 109//46 108//45
f 45//46 46//47 110//47
f 45//46 110//47 109//46
f 46//47 47//48 111//48
f 46//47 111//48 110//47
f 47//48 48//49 112//49
f 47//48 112//49 111//48
f 48//49 49//50 113//50
f 48//49 113//50 112//49
f 49//50 50//51 114//51
f 49//50 114//51 113//50
f 50//51 51//52 115//52
f 50//51 115//52 114//51
f 51//52 52//53 116//53
f 51//52 116//53 115//52
f 52//53 53//54 117//54
f 52//53 117//54 116//53
f 53//54 54//55 118//55
f 53//54 118//55 117//54
f 54//55 55//56 119//56
f 54//55 119//56 118//55
f 55//56 56//57 120//57
f 55//56 120//57 119//56
f 56//57 57//58 121//58
f 56//57 121//58 120//57
f 57//58 58//59 122//59
f 57//58 122//59 121//58
f 58//59 59//60 123//61
f 58//59 123//61 122//59
f 59//60 60//62 124//62
f 59//60 124//62 123//61
f 60//62 61//63 125//63
f 60//62 125//63 124//62
f 61//63 62//64 126//64
f 61//63 126//64 125//63
f 62//64 63//65 127//65
f 62//64 127//65 126//64
f 63//65 64//66 128//66
f 63//65 128//66 127//65
f 64//66 1//1 65//1
f 64//66 65//1 128//66
s 0
f 129//67 2//67 1//67
f 65//68 66//68 130//68
f 129//69 3//69 2//69
f 66//68 67//68 130//68
f 129//67 4//67 3//67
f 67//70 68//70 130//70
f 129//69 5//69 4//69
f 68//70 69//70 130//70
f 129//69 6//69 5//69
f 69//70 70//70 130//70
f 129//69 7//69 6//69
f 70//68 71//68 130//68
f 129//67 8//67 7//67
f 71//70 72//70 130//70
f 129//69 9//69 8//69
f 72//68 73//68 130//68
f 129//69 10//69 9//69
f 73//70 74//70 130//70
f 129//67 11//67 10//67
f 74//68 75//68 130//68
f 129//69 12//69 11//69
f 75//70 76//70 130//70
f 129//69 13//69 12//69
f 76//68 77//68 130//68
f 129//69 14//69 13//69
f 77//68 78//68 130//68
f 129//69 15//69 14//69
f 78//68 79//68 130//68
f 129//69 16//69 15//69
f 79//68 80//68 130//68
f 129//69 17//69 16//69
f 80//68 81//68 130//68
f 129//69 18//69 17//69
f 81//68 82//68 130//68
f 129//69 19//69 18//69
f 82//68 83//68 130//68
f 129//69 20//69 19//69
f 83//68 84//68 130//68
f 129//69 21//69 20//69
f 84//68 85//68 130//68
f 129//69 22//69 21//69
f 85//68 86//68 130//68
f 129//69 23//69 22//69
f 86//70 87//70 130//70
f 129//67 24//67 23//67
f 87//68 88//68 130//68
f 129//69 25//69 24//69
f 88//70 89//70 130//70
f 129//69 26//69 25//69
f 89//68 90//68 130//68
f 129//67 27//67 26//67
f 90//70 91//70 130//70
f 129//69 28//69 27//69
f 91//68 92//68 130//68
f 129//69 29//69 28//69
f 92//70 93//70 130//70
f 129//69 30//69 29//69
f 93//70 94//70 130//70
f 129//67 31//67 30//67
f 94//70 95//70 130//70
f 129//69 32//69 31//69
f 95//68 96//68 130//68
f 129//67 33//67 32//67
f 96//68 97//68 130//68
f 129//67 34//67 33//67
f 97//68 98//68 130//68
f 129//69 35//69 34//69
f 98//68 99//68 130//68
f 129//69 36//69 35//69
f 99//70 100//70 130//70
f 129//67 37//67 36//67
f 100//68 101//68 130//68
f 129//69 38//69 37//69
f 101//68 102//68 130//68
f 129//67 39//67 38//67
f 102//68 103//68 130//68
f 129//69 40//69 39//69
f 103//70 104//70 130//70
f 129//69 41//69 40//69
f 104//68 105//68 130//68
f 129//69 42//69 41//69
f 105//70 106//70 130//70
f 129//69 43//69 42//69
f 106//68 107//68 130//68
f 129//69 44//69 43//69
f 107//70 108//70 130//70
f 129//69 45//69 44//69
f 108//68 109//68 130//68
f 129//69 46//69 45//69
f 109//70 110//70 130//70
f 129//69 47//69 46//69
f 110//68 111//68 130//68
f 129//69 48//69 47//69
f 111//68 112//68 130//68
f 129//69 49//69 48//69
f 112//68 113//68 130//68
f 129//69 50//69 49//69
f 113//68 114//68 130//68
f 129//69 51//69 50//69
f 114//68 115//68 130//68
f 129//69 52//69 51//69
f 115//68 116//68 130//68
f 129//69 53//69 52//69
f 116//70 117//70 130//70
f 129//69 54//69 53//69
f 117//68 118//68 130//68
f 129//69 55//69 54//69
f 118//70 119//70 130//70
f 129//69 56//69 55//69
f 119//68 120//68 130//68
f 129//69 57//69 56//69
f 120//70 121//70 130//70
f 129//69 58//69 57//69
f 121//68 122//68 130//68
f 129//69 59//69 58//69
f 122//70 123//70 130//70
f 129//67 60//67 59//67
f 123//68 124//68 130//68
f 129//69 61//69 60//69
f 124//68 125//68 130//68
f 129//67 62//67 61//67
f 125//68 126//68 130//68
f 129//69 63//69 62//69
f 126//70 127//70 130//70
f 129//69 64//69 63//69
f 127//68 128//68 130//68
f 129//67 1//67 64//67
f 128//68 65//68 130//68
