# Blender 4.5.0
# www.blender.org
mtllib mesh_001.mtl
o mesh_001
v 0.097708 0.000000 -0.032000
v 0.097499 0.006390 -0.032000
v 0.096872 0.012753 -0.032000
v 0.095831 0.019062 -0.032000
v 0.094379 0.025289 -0.032000
v 0.092523 0.031407 -0.032000
v 0.090271 0.037391 -0.032000
v 0.087632 0.043215 -0.032000
v 0.084618 0.048854 -0.032000
v 0.081241 0.054284 -0.032000
v 0.077517 0.059481 -0.032000
v 0.073461 0.064423 -0.032000
v 0.069090 0.069090 -0.032000
v 0.064423 0.073461 -0.032000
v 0.059481 0.077517 -0.032000
v 0.054284 0.081241 -0.032000
v 0.048854 0.084618 -0.032000
v 0.043215 0.087632 -0.032000
v 0.037391 0.090271 -0.032000
v 0.031407 0.092523 -0.032000
v 0.025289 0.094379 -0.032000
v 0.019062 0.095831 -0.032000
v 0.012753 0.096872 -0.032000
v 0.006390 0.097499 -0.032000
v 0.000000 0.097708 -0.032000
v -0.006390 0.097499 -0.032000
v -0.012753 0.096872 -0.032000
v -0.019062 0.095831 -0.032000
v -0.025289 0.094379 -0.032000
v -0.031407 0.092523 -0.032000
v -0.037391 0.090271 -0.032000
v -0.043215 0.087632 -0.032000
v -0.048854 0.084618 -0.032000
v -0.054284 0.081241 -0.032000
v -0.059481 0.077517 -0.032000
v -0.064423 0.073461 -0.032000
v -0.069090 0.069090 -0.032000
v -0.073461 0.064423 -0.032000
v -0.077517 0.059481 -0.032000
v -0.081241 0.054284 -0.032000
v -0.084618 0.048854 -0.032000
v -0.087632 0.043215 -0.032000
v -0.090271 0.037391 -0.032000
v -0.092523 0.031407 -0.032000
v -0.094379 0.025289 -0.032000
v -0.095831 0.019062 -0.032000
v -0.096872 0.012753 -0.032000
v -0.097499 0.006390 -0.032000
v -0.097708 0.000000 -0.032000
v -0.097499 -0.006390 -0.032000
v -0.096872 -0.012753 -0.032000
v -0.095831 -0.019062 -0.032000
v -0.094379 -0.025289 -0.032000
v -0.092523 -0.031407 -0.032000
v -0.090271 -0.037391 -0.032000
v -0.087632 -0.043215 -0.032000
v -0.084618 -0.048854 -0.032000
v -0.081241 -0.054284 -0.032000
v -0.077517 -0.059481 -0.032000
v -0.073461 -0.064423 -0.032000
v -0.069090 -0.069090 -0.032000
v -0.064423 -0.073461 -0.032000
v -0.059481 -0.077517 -0.032000
v -0.054284 -0.081241 -0.032000
v -0.048854 -0.084618 -0.032000
v -0.043215 -0.087632 -0.032000
v -0.037391 -0.090271 -0.032000
v -0.031407 -0.092523 -0.032000
v -0.025289 -0.094379 -0.032000
v -0.019062 -0.095831 -0.032000
v -0.012753 -0.096872 -0.032000
v -0.006390 -0.097499 -0.032000
v -0.000000 -0.097708 -0.032000
v 0.006390 -0.097499 -0.032000
v 0.012753 -0.096872 -0.032000
v 0.019062 -0.095831 -0.032000
v 0.025289 -0.094379 -0.032000
v 0.031407 -0.092523 -0.032000
v 0.037391 -0.090271 -0.032000
v 0.043215 -0.087632 -0.032000
v 0.048854 -0.084618 -0.032000
v 0.054284 -0.081241 -0.032000
v 0.059481 -0.077517 -0.032000
v 0.064423 -0.073461 -0.032000
v 0.069090 -0.069090 -0.032000
v 0.073461 -0.064423 -0.032000
v 0.077517 -0.059481 -0.032000
v 0.081241 -0.054284 -0.032000
v 0.084618 -0.048854 -0.032000
v 0.087632 -0.043215 -0.032000
v 0.090271 -0.037391 -0.032000
v 0.092523 -0.031407 -0.032000
v 0.094379 -0.025289 -0.032000
v 0.095831 -0.019062 -0.032000
v 0.096872 -0.012753 -0.032000
v 0.097499 -0.006390 -0.032000
v 0.097708 0.000000 0.054499
v 0.097499 0.006390 0.054499
v 0.096872 0.012753 0.054499
v 0.095831 0.019062 0.054499
v 0.094379 0.025289 0.054499
v 0.092523 0.031407 0.054499
v 0.090271 0.037391 0.054499
v 0.087632 0.043215 0.054499
v 0.084618 0.048854 0.054499
v 0.081241 0.054284 0.054499
v 0.077517 0.059481 0.054499
v 0.073461 0.064423 0.054499
v 0.069090 0.069090 0.054499
v 0.064423 0.073461 0.054499
v 0.059481 0.077517 0.054499
v 0.054284 0.081241 0.054499
v 0.048854 0.084618 0.054499
v 0.043215 0.087632 0.054499
v 0.037391 0.090271 0.054499
v 0.031407 0.092523 0.054499
v 0.025289 0.094379 0.054499
v 0.019062 0.095831 0.054499
v 0.012753 0.096872 0.054499
v 0.006390 0.097499 0.054499
v 0.000000 0.097708 0.054499
v -0.006390 0.097499 0.054499
v -0.012753 0.096872 0.054499
v -0.019062 0.095831 0.054499
v -0.025289 0.094379 0.054499
v -0.031407 0.092523 0.054499
v -0.037391 0.090271 0.054499
v -0.043215 0.087632 0.054499
v -0.048854 0.084618 0.054499
v -0.054284 0.081241 0.054499
v -0.059481 0.077517 0.054499
v -0.064423 0.073461 0.054499
v -0.069090 0.069090 0.054499
v -0.073461 0.064423 0.054499
v -0.077517 0.059481 0.054499
v -0.081241 0.054284 0.054499
v -0.084618 0.048854 0.054499
v -0.087632 0.043215 0.054499
v -0.090271 0.037391 0.054499
v -0.092523 0.031407 0.054499
v -0.094379 0.025289 0.054499
v -0.095831 0.019062 0.054499
v -0.096872 0.012753 0.054499
v -0.097499 0.006390 0.054499
v -0.097708 0.000000 0.054499
v -0.097499 -0.006390 0.054499
v -0.096872 -0.012753 0.054499
v -0.095831 -0.019062 0.054499
v -0.094379 -0.025289 0.054499
v -0.092523 -0.031407 0.054499
v -0.090271 -0.037391 0.054499
v -0.087632 -0.043215 0.054499
v -0.084618 -0.048854 0.054499
v -0.081241 -0.054284 0.054499
v -0.077517 -0.059481 0.054499
v -0.073461 -0.064423 0.054499
v -0.069090 -0.069090 0.054499
v -0.064423 -0.073461 0.054499
v -0.059481 -0.077517 0.054499
v -0.054284 -0.081241 0.054499
v -0.048854 -0.084618 0.054499
v -0.043215 -0.087632 0.054499
v -0.037391 -0.090271 0.054499
v -0.031407 -0.092523 0.054499
v -0.025289 -0.094379 0.054499
v -0.019062 -0.095831 0.054499
v -0.012753 -0.096872 0.054499
v -0.006390 -0.097499 0.054499
v -0.000000 -0.097708 0.054499
v 0.006390 -0.097499 0.054499
v 0.012753 -0.096872 0.054499
v 0.019062 -0.095831 0.054499
v 0.025289 -0.094379 0.054499
v 0.031407 -0.092523 0.054499
v 0.037391 -0.090271 0.054499
v 0.043215 -0.087632 0.054499
v 0.048854 -0.084618 0.054499
v 0.054284 -0.081241 0.054499
v 0.059481 -0.077517 0.054499
v 0.064423 -0.073461 0.054499
v 0.069090 -0.069090 0.054499
v 0.073461 -0.064423 0.054499
v 0.077517 -0.059481 0.054499
v 0.081241 -0.054284 0.054499
v 0.084618 -0.048854 0.054499
v 0.087632 -0.043215 0.054499
v 0.090271 -0.037391 0.054499
v 0.092523 -0.031407 0.054499
v 0.094379 -0.025289 0.054499
v 0.095831 -0.019062 0.054499
v 0.096872 -0.012753 0.054499
v 0.097499 -0.006390 0.054499
v 0.096208 0.000000 0.056000
v 0.096002 0.006292 0.056000
v 0.095384 0.012558 0.056000
v 0.094359 0.018769 0.056000
v 0.092929 0.024900 0.056000
v 0.091102 0.030925 0.056000
v 0.088884 0.036817 0.056000
v 0.086286 0.042552 0.056000
v 0.083318 0.048104 0.056000
v 0.079994 0.053450 0.056000
v 0.076327 0.058567 0.056000
v 0.072333 0.063434 0.056000
v 0.068029 0.068029 0.056000
v 0.063434 0.072333 0.056000
v 0.058567 0.076327 0.056000
v 0.053450 0.079994 0.056000
v 0.048104 0.083318 0.056000
v 0.042551 0.086286 0.056000
v 0.036817 0.088884 0.056000
v 0.030925 0.091102 0.056000
v 0.024900 0.092929 0.056000
v 0.018769 0.094359 0.056000
v 0.012558 0.095384 0.056000
v 0.006292 0.096002 0.056000
v 0.000000 0.096208 0.056000
v -0.006292 0.096002 0.056000
v -0.012558 0.095384 0.056000
v -0.018769 0.094359 0.056000
v -0.024900 0.092929 0.056000
v -0.030925 0.091102 0.056000
v -0.036817 0.088884 0.056000
v -0.042551 0.086286 0.056000
v -0.048104 0.083318 0.056000
v -0.053450 0.079994 0.056000
v -0.058567 0.076327 0.056000
v -0.063434 0.072333 0.056000
v -0.068029 0.068029 0.056000
v -0.072333 0.063434 0.056000
v -0.076327 0.058567 0.056000
v -0.079994 0.053450 0.056000
v -0.083318 0.048104 0.056000
v -0.086286 0.042552 0.056000
v -0.088884 0.036817 0.056000
v -0.091102 0.030925 0.056000
v -0.092929 0.024900 0.056000
v -0.094359 0.018769 0.056000
v -0.095384 0.012558 0.056000
v -0.096002 0.006292 0.056000
v -0.096208 0.000000 0.056000
v -0.096002 -0.006292 0.056000
v -0.095384 -0.012558 0.056000
v -0.094359 -0.018769 0.056000
v -0.092929 -0.024900 0.056000
v -0.091102 -0.030925 0.056000
v -0.088884 -0.036817 0.056000
v -0.086286 -0.042551 0.056000
v -0.083318 -0.048104 0.056000
v -0.079994 -0.053450 0.056000
v -0.076327 -0.058567 0.056000
v -0.072333 -0.063434 0.056000
v -0.068029 -0.068029 0.056000
v -0.063434 -0.072333 0.056000
v -0.058567 -0.076327 0.056000
v -0.053450 -0.079994 0.056000
v -0.048104 -0.083318 0.056000
v -0.042551 -0.086286 0.056000
v -0.036817 -0.088884 0.056000
v -0.030925 -0.091102 0.056000
v -0.024900 -0.092929 0.056000
v -0.018769 -0.094359 0.056000
v -0.012558 -0.095384 0.056000
v -0.006292 -0.096002 0.056000
v -0.000000 -0.096208 0.056000
v 0.006292 -0.096002 0.056000
v 0.012558 -0.095384 0.056000
v 0.018769 -0.094359 0.056000
v 0.024900 -0.092929 0.056000
v 0.030925 -0.091102 0.056000
v 0.036817 -0.088884 0.056000
v 0.042551 -0.086286 0.056000
v 0.048104 -0.083318 0.056000
v 0.053450 -0.079994 0.056000
v 0.058567 -0.076327 0.056000
v 0.063434 -0.072333 0.056000
v 0.068029 -0.068029 0.056000
v 0.072333 -0.063434 0.056000
v 0.076327 -0.058567 0.056000
v 0.079994 -0.053450 0.056000
v 0.083318 -0.048104 0.056000
v 0.086286 -0.042551 0.056000
v 0.088884 -0.036817 0.056000
v 0.091102 -0.030925 0.056000
v 0.092929 -0.024900 0.056000
v 0.094359 -0.018769 0.056000
v 0.095384 -0.012558 0.056000
v 0.096002 -0.006292 0.056000
v 0.085203 0.000000 0.056000
v 0.085021 0.005573 0.056000
v 0.084474 0.011121 0.056000
v 0.083566 0.016622 0.056000
v 0.082300 0.022052 0.056000
v 0.080681 0.027388 0.056000
v 0.078717 0.032606 0.056000
v 0.076416 0.037684 0.056000
v 0.073788 0.042602 0.056000
v 0.070844 0.047336 0.056000
v 0.067596 0.051868 0.056000
v 0.064059 0.056178 0.056000
v 0.060248 0.060248 0.056000
v 0.056178 0.064059 0.056000
v 0.051868 0.067596 0.056000
v 0.047336 0.070844 0.056000
v 0.042602 0.073788 0.056000
v 0.037684 0.076416 0.056000
v 0.032606 0.078717 0.056000
v 0.027388 0.080681 0.056000
v 0.022052 0.082300 0.056000
v 0.016622 0.083566 0.056000
v 0.011121 0.084474 0.056000
v 0.005573 0.085021 0.056000
v 0.000000 0.085203 0.056000
v -0.005573 0.085021 0.056000
v -0.011121 0.084474 0.056000
v -0.016622 0.083566 0.056000
v -0.022052 0.082300 0.056000
v -0.027388 0.080681 0.056000
v -0.032606 0.078717 0.056000
v -0.037684 0.076416 0.056000
v -0.042602 0.073788 0.056000
v -0.047336 0.070844 0.056000
v -0.051868 0.067596 0.056000
v -0.056178 0.064059 0.056000
v -0.060248 0.060248 0.056000
v -0.064059 0.056178 0.056000
v -0.067596 0.051868 0.056000
v -0.070844 0.047336 0.056000
v -0.073788 0.042602 0.056000
v -0.076416 0.037684 0.056000
v -0.078717 0.032606 0.056000
v -0.080681 0.027388 0.056000
v -0.082300 0.022052 0.056000
v -0.083566 0.016622 0.056000
v -0.084474 0.011121 0.056000
v -0.085021 0.005573 0.056000
v -0.085203 0.000000 0.056000
v -0.085021 -0.005573 0.056000
v -0.084474 -0.011121 0.056000
v -0.083566 -0.016622 0.056000
v -0.082300 -0.022052 0.056000
v -0.080681 -0.027388 0.056000
v -0.078717 -0.032606 0.056000
v -0.076416 -0.037684 0.056000
v -0.073788 -0.042602 0.056000
v -0.070844 -0.047336 0.056000
v -0.067596 -0.051868 0.056000
v -0.064059 -0.056178 0.056000
v -0.060248 -0.060248 0.056000
v -0.056178 -0.064059 0.056000
v -0.051868 -0.067596 0.056000
v -0.047336 -0.070844 0.056000
v -0.042602 -0.073788 0.056000
v -0.037684 -0.076416 0.056000
v -0.032606 -0.078717 0.056000
v -0.027388 -0.080681 0.056000
v -0.022052 -0.082300 0.056000
v -0.016622 -0.083566 0.056000
v -0.011121 -0.084474 0.056000
v -0.005573 -0.085021 0.056000
v -0.000000 -0.085203 0.056000
v 0.005573 -0.085021 0.056000
v 0.011121 -0.084474 0.056000
v 0.016622 -0.083566 0.056000
v 0.022052 -0.082300 0.056000
v 0.027388 -0.080681 0.056000
v 0.032606 -0.078717 0.056000
v 0.037684 -0.076416 0.056000
v 0.042602 -0.073788 0.056000
v 0.047336 -0.070844 0.056000
v 0.051868 -0.067596 0.056000
v 0.056178 -0.064059 0.056000
v 0.060248 -0.060248 0.056000
v 0.064059 -0.056178 0.056000
v 0.067596 -0.051868 0.056000
v 0.070844 -0.047336 0.056000
v 0.073788 -0.042602 0.056000
v 0.076416 -0.037684 0.056000
v 0.078717 -0.032606 0.056000
v 0.080681 -0.027388 0.056000
v 0.082300 -0.022052 0.056000
v 0.083566 -0.016622 0.056000
v 0.084474 -0.011121 0.056000
v 0.085021 -0.005573 0.056000
v 0.085203 0.000000 -0.032000
v 0.085021 0.005573 -0.032000
v 0.084474 0.011121 -0.032000
v 0.083566 0.016622 -0.032000
v 0.082300 0.022052 -0.032000
v 0.080681 0.027388 -0.032000
v 0.078717 0.032606 -0.032000
v 0.076416 0.037684 -0.032000
v 0.073788 0.042602 -0.032000
v 0.070844 0.047336 -0.032000
v 0.067596 0.051868 -0.032000
v 0.064059 0.056178 -0.032000
v 0.060248 0.060248 -0.032000
v 0.056178 0.064059 -0.032000
v 0.051868 0.067596 -0.032000
v 0.047336 0.070844 -0.032000
v 0.042602 0.073788 -0.032000
v 0.037684 0.076416 -0.032000
v 0.032606 0.078717 -0.032000
v 0.027388 0.080681 -0.032000
v 0.022052 0.082300 -0.032000
v 0.016622 0.083566 -0.032000
v 0.011121 0.084474 -0.032000
v 0.005573 0.085021 -0.032000
v 0.000000 0.085203 -0.032000
v -0.005573 0.085021 -0.032000
v -0.011121 0.084474 -0.032000
v -0.016622 0.083566 -0.032000
v -0.022052 0.082300 -0.032000
v -0.027388 0.080681 -0.032000
v -0.032606 0.078717 -0.032000
v -0.037684 0.076416 -0.032000
v -0.042602 0.073788 -0.032000
v -0.047336 0.070844 -0.032000
v -0.051868 0.067596 -0.032000
v -0.056178 0.064059 -0.032000
v -0.060248 0.060248 -0.032000
v -0.064059 0.056178 -0.032000
v -0.067596 0.051868 -0.032000
v -0.070844 0.047336 -0.032000
v -0.073788 0.042602 -0.032000
v -0.076416 0.037684 -0.032000
v -0.078717 0.032606 -0.032000
v -0.080681 0.027388 -0.032000
v -0.082300 0.022052 -0.032000
v -0.083566 0.016622 -0.032000
v -0.084474 0.011121 -0.032000
v -0.085021 0.005573 -0.032000
v -0.085203 0.000000 -0.032000
v -0.085021 -0.005573 -0.032000
v -0.084474 -0.011121 -0.032000
v -0.083566 -0.016622 -0.032000
v -0.082300 -0.022052 -0.032000
v -0.080681 -0.027388 -0.032000
v -0.078717 -0.032606 -0.032000
v -0.076416 -0.037684 -0.032000
v -0.073788 -0.042602 -0.032000
v -0.070844 -0.047336 -0.032000
v -0.067596 -0.051868 -0.032000
v -0.064059 -0.056178 -0.032000
v -0.060248 -0.060248 -0.032000
v -0.056178 -0.064059 -0.032000
v -0.051868 -0.067596 -0.032000
v -0.047336 -0.070844 -0.032000
v -0.042602 -0.073788 -0.032000
v -0.037684 -0.076416 -0.032000
v -0.032606 -0.078717 -0.032000
v -0.027388 -0.080681 -0.032000
v -0.022052 -0.082300 -0.032000
v -0.016622 -0.083566 -0.032000
v -0.011121 -0.084474 -0.032000
v -0.005573 -0.085021 -0.032000
v -0.000000 -0.085203 -0.032000
v 0.005573 -0.085021 -0.032000
v 0.011121 -0.084474 -0.032000
v 0.016622 -0.083566 -0.032000
v 0.022052 -0.082300 -0.032000
v 0.027388 -0.080681 -0.032000
v 0.032606 -0.078717 -0.032000
v 0.037684 -0.076416 -0.032000
v 0.042602 -0.073788 -0.032000
v 0.047336 -0.070844 -0.032000
v 0.051868 -0.067596 -0.032000
v 0.056178 -0.064059 -0.032000
v 0.060248 -0.060248 -0.032000
v 0.064059 -0.056178 -0.032000
v 0.067596 -0.051868 -0.032000
v 0.070844 -0.047336 -0.032000
v 0.073788 -0.042602 -0.032000
v 0.076416 -0.037684 -0.032000
v 0.078717 -0.032606 -0.032000
v 0.080681 -0.027388 -0.032000
v 0.082300 -0.022052 -0.032000
v 0.083566 -0.016622 -0.032000
v 0.084474 -0.011121 -0.032000
v 0.085021 -0.005573 -0.032000
vn 0.9979 0.0654 -0.0000
vn 1.0000 -0.0000 -0.0000
vn 0.9914 0.1305 -0.0000
vn 0.9808 0.1951 -0.0000
vn 0.9659 0.2588 -0.0000
vn 0.9469 0.3214 -0.0000
vn 0.9239 0.3827 -0.0000
vn 0.8969 0.4423 -0.0000
vn 0.8660 0.5000 -0.0000
vn 0.8315 0.5556 -0.0000
vn 0.7934 0.6088 -0.0000
vn 0.7518 0.6593 -0.0000
vn 0.7071 0.7071 -0.0000
vn 0.6593 0.7518 -0.0000
vn 0.6088 0.7934 -0.0000
vn 0.5556 0.8315 -0.0000
vn 0.5000 0.8660 -0.0000
vn 0.4423 0.8969 -0.0000
vn 0.3827 0.9239 -0.0000
vn 0.3214 0.9469 -0.0000
vn 0.2588 0.9659 -0.0000
vn 0.1951 0.9808 -0.0000
vn 0.1305 0.9914 -0.0000
vn 0.0654 0.9979 -0.0000
vn -0.0000 1.0000 -0.0000
vn -0.0654 0.9979 -0.0000
vn -0.1305 0.9914 -0.0000
vn -0.1951 0.9808 -0.0000
vn -0.2588 0.9659 -0.0000
vn -0.3214 0.9469 -0.0000
vn -0.3827 0.9239 -0.0000
vn -0.4423 0.8969 -0.0000
vn -0.5000 0.8660 -0.0000
vn -0.5556 0.8315 -0.0000
vn -0.6088 0.7934 -0.0000
vn -0.6593 0.7518 -0.0000
vn -0.7071 0.7071 -0.0000
vn -0.7518 0.6593 -0.0000
vn -0.7934 0.6088 -0.0000
vn -0.8315 0.5556 -0.0000
vn -0.8660 0.5000 -0.0000
vn -0.8969 0.4423 -0.0000
vn -0.9239 0.3827 -0.0000
vn -0.9469 0.3214 -0.0000
vn -0.9659 0.2588 -0.0000
vn -0.9808 0.1951 -0.0000
vn -0.9914 0.1305 -0.0000
vn -0.9979 0.0654 -0.0000
vn -1.0000 -0.0000 -0.0000
vn -0.9979 -0.0654 -0.0000
vn -0.9914 -0.1305 -0.0000
vn -0.9808 -0.1951 -0.0000
vn -0.9659 -0.2588 -0.0000
vn -0.9469 -0.3214 -0.0000
vn -0.9239 -0.3827 -0.0000
vn -0.8969 -0.4423 -0.0000
vn -0.8660 -0.5000 -0.0000
vn -0.8315 -0.5556 -0.0000
vn -0.7934 -0.6088 -0.0000
vn -0.7518 -0.6593 -0.0000
vn -0.7071 -0.7071 -0.0000
vn -0.6593 -0.7518 -0.0000
vn -0.6088 -0.7934 -0.0000
vn -0.5556 -0.8315 -0.0000
vn -0.5000 -0.8660 -0.0000
vn -0.4423 -0.8969 -0.0000
vn -0.3827 -0.9239 -0.0000
vn -0.3214 -0.9469 -0.0000
vn -0.2588 -0.9659 -0.0000
vn -0.1951 -0.9808 -0.0000
vn -0.1305 -0.9914 -0.0000
vn -0.0654 -0.9979 -0.0000
vn -0.0000 -1.0000 -0.0000
vn 0.0654 -0.9979 -0.0000
vn 0.1305 -0.9914 -0.0000
vn 0.1951 -0.9808 -0.0000
vn 0.2588 -0.9659 -0.0000
vn 0.3214 -0.9469 -0.0000
vn 0.3827 -0.9239 -0.0000
vn 0.4423 -0.8969 -0.0000
vn 0.5000 -0.8660 -0.0000
vn 0.5556 -0.8315 -0.0000
vn 0.6088 -0.7934 -0.0000
vn 0.6593 -0.7518 -0.0000
vn 0.7071 -0.7071 -0.0000
vn 0.7518 -0.6593 -0.0000
vn 0.7934 -0.6088 -0.0000
vn 0.8315 -0.5556 -0.0000
vn 0.8660 -0.5000 -0.0000
vn 0.8969 -0.4423 -0.0000
vn 0.9239 -0.3827 -0.0000
vn 0.9469 -0.3214 -0.0000
vn 0.9659 -0.2588 -0.0000
vn 0.9808 -0.1951 -0.0000
vn 0.9914 -0.1305 -0.0000
vn 0.9979 -0.0654 -0.0000
vn 0.7069 0.0231 0.7069
vn 0.7039 0.0693 0.7069
vn 0.6978 0.1152 0.7069
vn 0.6888 0.1606 0.7069
vn 0.6768 0.2053 0.7069
vn 0.6620 0.2491 0.7069
vn 0.6443 0.2919 0.7069
vn 0.6238 0.3334 0.7069
vn 0.6006 0.3735 0.7069
vn 0.5749 0.4120 0.7069
vn 0.5467 0.4487 0.7069
vn 0.5162 0.4835 0.7069
vn 0.4835 0.5162 0.7069
vn 0.4487 0.5467 0.7069
vn 0.4120 0.5749 0.7069
vn 0.3735 0.6006 0.7069
vn 0.3334 0.6238 0.7069
vn 0.2919 0.6443 0.7069
vn 0.2491 0.6620 0.7069
vn 0.2053 0.6768 0.7069
vn 0.1606 0.6888 0.7069
vn 0.1152 0.6979 0.7069
vn 0.0693 0.7039 0.7069
vn 0.0231 0.7069 0.7069
vn -0.0231 0.7069 0.7069
vn -0.0693 0.7039 0.7069
vn -0.1152 0.6978 0.7069
vn -0.1606 0.6888 0.7069
vn -0.2053 0.6768 0.7069
vn -0.2491 0.6620 0.7069
vn -0.2919 0.6443 0.7069
vn -0.3334 0.6238 0.7069
vn -0.3735 0.6006 0.7069
vn -0.4120 0.5749 0.7069
vn -0.4487 0.5467 0.7069
vn -0.4835 0.5162 0.7069
vn -0.5162 0.4835 0.7069
vn -0.5467 0.4487 0.7069
vn -0.5749 0.4120 0.7069
vn -0.6006 0.3735 0.7069
vn -0.6238 0.3334 0.7069
vn -0.6443 0.2919 0.7069
vn -0.6620 0.2491 0.7069
vn -0.6768 0.2053 0.7069
vn -0.6888 0.1606 0.7069
vn -0.6978 0.1152 0.7069
vn -0.7039 0.0693 0.7069
vn -0.7069 0.0231 0.7069
vn -0.7069 -0.0231 0.7069
vn -0.7039 -0.0693 0.7069
vn -0.6978 -0.1152 0.7069
vn -0.6888 -0.1606 0.7069
vn -0.6768 -0.2053 0.7069
vn -0.6620 -0.2491 0.7069
vn -0.6443 -0.2919 0.7069
vn -0.6238 -0.3334 0.7069
vn -0.6006 -0.3735 0.7069
vn -0.5749 -0.4120 0.7069
vn -0.5467 -0.4487 0.7069
vn -0.5162 -0.4835 0.7069
vn -0.4835 -0.5162 0.7069
vn -0.4487 -0.5468 0.7069
vn -0.4120 -0.5749 0.7069
vn -0.3735 -0.6006 0.7069
vn -0.3334 -0.6238 0.7069
vn -0.2919 -0.6443 0.7069
vn -0.2491 -0.6620 0.7069
vn -0.2053 -0.6768 0.7069
vn -0.1606 -0.6888 0.7069
vn -0.1152 -0.6978 0.7069
vn -0.0693 -0.7039 0.7069
vn -0.0231 -0.7069 0.7069
vn 0.0231 -0.7069 0.7069
vn 0.0693 -0.7039 0.7069
vn 0.1152 -0.6978 0.7069
vn 0.1606 -0.6888 0.7069
vn 0.2053 -0.6768 0.7069
vn 0.2491 -0.6620 0.7069
vn 0.2919 -0.6443 0.7069
vn 0.3334 -0.6238 0.7069
vn 0.3735 -0.6006 0.7069
vn 0.4120 -0.5749 0.7069
vn 0.4487 -0.5467 0.7069
vn 0.4835 -0.5162 0.7069
vn 0.5162 -0.4835 0.7069
vn 0.5468 -0.4487 0.7069
vn 0.5749 -0.4120 0.7069
vn 0.6006 -0.3735 0.7069
vn 0.6238 -0.3334 0.7069
vn 0.6442 -0.2919 0.7069
vn 0.6620 -0.2491 0.7069
vn 0.6768 -0.2053 0.7069
vn 0.6888 -0.1606 0.7069
vn 0.6978 -0.1152 0.7069
vn 0.7039 -0.0693 0.7069
vn 0.7069 -0.0231 0.7069
vn -0.0000 -0.0000 1.0000
vn -0.0000 -0.0000 -1.0000
vn 0.1152 0.6978 0.7069
vn -0.1152 0.6979 0.7069
vn -0.6442 -0.2919 0.7069
vn -0.5468 -0.4487 0.7069
vn -0.4487 -0.5467 0.7069
vn 0.4487 -0.5468 0.7069
vn 0.5467 -0.4487 0.7069
vn 0.6443 -0.2919 0.7069
s 1
usemtl Closure_molded_gray
f 2//1 97//2 1//2
f 3//3 98//1 2//1
f 4//4 99//3 3//3
f 5//5 100//4 4//4
f 6//6 101//5 5//5
f 7//7 102//6 6//6
f 8//8 103//7 7//7
f 9//9 104//8 8//8
f 10//10 105//9 9//9
f 11//11 106//10 10//10
f 12//12 107//11 11//11
f 13//13 108//12 12//12
f 14//14 109//13 13//13
f 15//15 110//14 14//14
f 16//16 111//15 15//15
f 17//17 112//16 16//16
f 18//18 113//17 17//17
f 19//19 114//18 18//18
f 20//20 115//19 19//19
f 21//21 116//20 20//20
f 22//22 117//21 21//21
f 23//23 118//22 22//22
f 24//24 119//23 23//23
f 25//25 120//24 24//24
f 26//26 121//25 25//25
f 27//27 122//26 26//26
f 28//28 123//27 27//27
f 29//29 124//28 28//28
f 30//30 125//29 29//29
f 31//31 126//30 30//30
f 32//32 127//31 31//31
f 33//33 128//32 32//32
f 34//34 129//33 33//33
f 35//35 130//34 34//34
f 36//36 131//35 35//35
f 37//37 132//36 36//36
f 38//38 133//37 37//37
f 39//39 134//38 38//38
f 40//40 135//39 39//39
f 41//41 136//40 40//40
f 42//42 137//41 41//41
f 43//43 138//42 42//42
f 44//44 139//43 43//43
f 45//45 140//44 44//44
f 46//46 141//45 45//45
f 47//47 142//46 46//46
f 48//48 143//47 47//47
f 49//49 144//48 48//48
f 50//50 145//49 49//49
f 51//51 146//50 50//50
f 52//52 147//51 51//51
f 53//53 148//52 52//52
f 54//54 149//53 53//53
f 55//55 150//54 54//54
f 56//56 151//55 55//55
f 57//57 152//56 56//56
f 58//58 153//57 57//57
f 59//59 154//58 58//58
f 60//60 155//59 59//59
f 61//61 156//60 60//60
f 62//62 157//61 61//61
f 63//63 158//62 62//62
f 64//64 159//63 63//63
f 65//65 160//64 64//64
f 66//66 161//65 65//65
f 67//67 162//66 66//66
f 68//68 163//67 67//67
f 69//69 164//68 68//68
f 70//70 165//69 69//69
f 71//71 166//70 70//70
f 72//72 167//71 71//71
f 73//73 168//72 72//72
f 74//74 169//73 73//73
f 75//75 170//74 74//74
f 76//76 171//75 75//75
f 77//77 172//76 76//76
f 78//78 173//77 77//77
f 79//79 174//78 78//78
f 80//80 175//79 79//79
f 81//81 176//80 80//80
f 82//82 177//81 81//81
f 83//83 178//82 82//82
f 84//84 179//83 83//83
f 85//85 180//84 84//84
f 86//86 181//85 85//85
f 87//87 182//86 86//86
f 88//88 183//87 87//87
f 89//89 184//88 88//88
f 90//90 185//89 89//89
f 91//91 186//90 90//90
f 92//92 187//91 91//91
f 93//93 188//92 92//92
f 94//94 189//93 93//93
f 95//95 190//94 94//94
f 96//96 191//95 95//95
f 1//2 192//96 96//96
s 0
f 98//97 193//97 97//97
f 98//98 195//98 194//98
f 99//99 196//99 195//99
f 100//100 197//100 196//100
f 102//101 197//101 101//101
f 103//102 198//102 102//102
f 103//103 200//103 199//103
f 105//104 200//104 104//104
f 106//105 201//105 105//105
f 106//106 203//106 202//106
f 107//107 204//107 203//107
f 108//108 205//108 204//108
f 109//109 206//109 205//109
f 110//110 207//110 206//110
f 112//111 207//111 111//111
f 113//112 208//112 112//112
f 114//113 209//113 113//113
f 115//114 210//114 114//114
f 116//115 211//115 115//115
f 116//116 213//116 212//116
f 118//117 213//117 117//117
f 119//118 214//118 118//118
f 119//119 216//119 215//119
f 121//120 216//120 120//120
f 121//121 218//121 217//121
f 123//122 218//122 122//122
f 123//123 220//123 219//123
f 124//124 221//124 220//124
f 126//125 221//125 125//125
f 126//126 223//126 222//126
f 127//127 224//127 223//127
f 128//128 225//128 224//128
f 129//129 226//129 225//129
f 130//130 227//130 226//130
f 132//131 227//131 131//131
f 133//132 228//132 132//132
f 134//133 229//133 133//133
f 135//134 230//134 134//134
f 136//135 231//135 135//135
f 136//136 233//136 232//136
f 137//137 234//137 233//137
f 139//138 234//138 138//138
f 140//139 235//139 139//139
f 141//140 236//140 140//140
f 142//141 237//141 141//141
f 143//142 238//142 142//142
f 144//143 239//143 143//143
f 144//144 241//144 240//144
f 145//145 242//145 241//145
f 146//146 243//146 242//146
f 147//147 244//147 243//147
f 148//148 245//148 244//148
f 150//149 245//149 149//149
f 151//150 246//150 150//150
f 152//151 247//151 151//151
f 153//152 248//152 152//152
f 154//153 249//153 153//153
f 154//154 251//154 250//154
f 155//155 252//155 251//155
f 156//156 253//156 252//156
f 157//157 254//157 253//157
f 159//158 254//158 158//158
f 160//159 255//159 159//159
f 161//160 256//160 160//160
f 162//161 257//161 161//161
f 163//162 258//162 162//162
f 163//163 260//163 259//163
f 164//164 261//164 260//164
f 166//165 261//165 165//165
f 166//166 263//166 262//166
f 168//167 263//167 167//167
f 169//168 264//168 168//168
f 170//169 265//169 169//169
f 171//170 266//170 170//170
f 172//171 267//171 171//171
f 172//172 269//172 268//172
f 174//173 269//173 173//173
f 175//174 270//174 174//174
f 175//175 272//175 271//175
f 176//176 273//176 272//176
f 177//177 274//177 273//177
f 178//178 275//178 274//178
f 179//179 276//179 275//179
f 181//180 276//180 180//180
f 182//181 277//181 181//181
f 183//182 278//182 182//182
f 184//183 279//183 183//183
f 185//184 280//184 184//184
f 185//185 282//185 281//185
f 186//186 283//186 282//186
f 187//187 284//187 283//187
f 189//188 284//188 188//188
f 190//189 285//189 189//189
f 191//190 286//190 190//190
f 192//191 287//191 191//191
f 97//192 288//192 192//192
f 194//193 289//193 193//193
f 195//193 290//193 194//193
f 196//193 291//193 195//193
f 197//193 292//193 196//193
f 198//193 293//193 197//193
f 199//193 294//193 198//193
f 200//193 295//193 199//193
f 201//193 296//193 200//193
f 202//193 297//193 201//193
f 203//193 298//193 202//193
f 203//193 300//193 299//193
f 205//193 300//193 204//193
f 206//193 301//193 205//193
f 206//193 303//193 302//193
f 208//193 303//193 207//193
f 209//193 304//193 208//193
f 209//193 306//193 305//193
f 210//193 307//193 306//193
f 212//193 307//193 211//193
f 212//193 309//193 308//193
f 213//193 310//193 309//193
f 215//193 310//193 214//193
f 215//193 312//193 311//193
f 216//193 313//193 312//193
f 218//193 313//193 217//193
f 219//193 314//193 218//193
f 220//193 315//193 219//193
f 221//193 316//193 220//193
f 222//193 317//193 221//193
f 222//193 319//193 318//193
f 224//193 319//193 223//193
f 225//193 320//193 224//193
f 225//193 322//193 321//193
f 226//193 323//193 322//193
f 228//193 323//193 227//193
f 228//193 325//193 324//193
f 229//193 326//193 325//193
f 231//193 326//193 230//193
f 231//193 328//193 327//193
f 233//193 328//193 232//193
f 234//193 329//193 233//193
f 235//193 330//193 234//193
f 235//193 332//193 331//193
f 237//193 332//193 236//193
f 237//193 334//193 333//193
f 238//193 335//193 334//193
f 240//193 335//193 239//193
f 241//193 336//193 240//193
f 242//193 337//193 241//193
f 243//193 338//193 242//193
f 244//193 339//193 243//193
f 245//193 340//193 244//193
f 246//193 341//193 245//193
f 247//193 342//193 246//193
f 248//193 343//193 247//193
f 249//193 344//193 248//193
f 250//193 345//193 249//193
f 251//193 346//193 250//193
f 251//193 348//193 347//193
f 253//193 348//193 252//193
f 254//193 349//193 253//193
f 254//193 351//193 350//193
f 256//193 351//193 255//193
f 257//193 352//193 256//193
f 258//193 353//193 257//193
f 258//193 355//193 354//193
f 260//193 355//193 259//193
f 260//193 357//193 356//193
f 262//193 357//193 261//193
f 262//193 359//193 358//193
f 264//193 359//193 263//193
f 264//193 361//193 360//193
f 266//193 361//193 265//193
f 266//193 363//193 362//193
f 268//193 363//193 267//193
f 268//193 365//193 364//193
f 270//193 365//193 269//193
f 270//193 367//193 366//193
f 272//193 367//193 271//193
f 273//193 368//193 272//193
f 273//193 370//193 369//193
f 275//193 370//193 274//193
f 276//193 371//193 275//193
f 277//193 372//193 276//193
f 277//193 374//193 373//193
f 279//193 374//193 278//193
f 280//193 375//193 279//193
f 280//193 377//193 376//193
f 282//193 377//193 281//193
f 282//193 379//193 378//193
f 284//193 379//193 283//193
f 285//193 380//193 284//193
f 286//193 381//193 285//193
f 287//193 382//193 286//193
f 288//193 383//193 287//193
f 193//193 384//193 288//193
s 1
f 290//50 385//49 289//49
f 291//51 386//50 290//50
f 292//52 387//51 291//51
f 293//53 388//52 292//52
f 294//54 389//53 293//53
f 295//55 390//54 294//54
f 296//56 391//55 295//55
f 297//57 392//56 296//56
f 298//58 393//57 297//57
f 299//59 394//58 298//58
f 300//60 395//59 299//59
f 301//61 396//60 300//60
f 302//62 397//61 301//61
f 303//63 398//62 302//62
f 304//64 399//63 303//63
f 305//65 400//64 304//64
f 306//66 401//65 305//65
f 307//67 402//66 306//66
f 308//68 403//67 307//67
f 309//69 404//68 308//68
f 310//70 405//69 309//69
f 311//71 406//70 310//70
f 312//72 407//71 311//71
f 313//73 408//72 312//72
f 314//74 409//73 313//73
f 315//75 410//74 314//74
f 316//76 411//75 315//75
f 317//77 412//76 316//76
f 318//78 413//77 317//77
f 319//79 414//78 318//78
f 320//80 415//79 319//79
f 321//81 416//80 320//80
f 322//82 417//81 321//81
f 323//83 418//82 322//82
f 324//84 419//83 323//83
f 325//85 420//84 324//84
f 326//86 421//85 325//85
f 327//87 422//86 326//86
f 328//88 423//87 327//87
f 329//89 424//88 328//88
f 330//90 425//89 329//89
f 331//91 426//90 330//90
f 332//92 427//91 331//91
f 333//93 428//92 332//92
f 334//94 429//93 333//93
f 335//95 430//94 334//94
f 336//96 431//95 335//95
f 337//2 432//96 336//96
f 338//1 433//2 337//2
f 339//3 434//1 338//1
f 340//4 435//3 339//3
f 341//5 436//4 340//4
f 342//6 437//5 341//5
f 343//7 438//6 342//6
f 344//8 439//7 343//7
f 345//9 440//8 344//8
f 346//10 441//9 345//9
f 347//11 442//10 346//10
f 348//12 443//11 347//11
f 349//13 444//12 348//12
f 350//14 445//13 349//13
f 351//15 446//14 350//14
f 352//16 447//15 351//15
f 353//17 448//16 352//16
f 354//18 449//17 353//17
f 355//19 450//18 354//18
f 356//20 451//19 355//19
f 357//21 452//20 356//20
f 358//22 453//21 357//21
f 359//23 454//22 358//22
f 360//24 455//23 359//23
f 361//25 456//24 360//24
f 362//26 457//25 361//25
f 363//27 458//26 362//26
f 364//28 459//27 363//27
f 365//29 460//28 364//28
f 366//30 461//29 365//29
f 367//31 462//30 366//30
f 368//32 463//31 367//31
f 369//33 464//32 368//32
f 370//34 465//33 369//33
f 371//35 466//34 370//34
f 372//36 467//35 371//35
f 373//37 468//36 372//36
f 374//38 469//37 373//37
f 375//39 470//38 374//38
f 376//40 471//39 375//39
f 377//41 472//40 376//40
f 378//42 473//41 377//41
f 379//43 474//42 378//42
f 380//44 475//43 379//43
f 381//45 476//44 380//44
f 382//46 477//45 381//45
f 383//47 478//46 382//46
f 384//48 479//47 383//47
f 289//49 480//48 384//48
s 0
f 385//194 2//194 1//194
f 387//194 2//194 386//194
f 388//194 3//194 387//194
f 388//194 5//194 4//194
f 390//194 5//194 389//194
f 390//194 7//194 6//194
f 391//194 8//194 7//194
f 392//194 9//194 8//194
f 394//194 9//194 393//194
f 395//194 10//194 394//194
f 396//194 11//194 395//194
f 396//194 13//194 12//194
f 398//194 13//194 397//194
f 399//194 14//194 398//194
f 400//194 15//194 399//194
f 401//194 16//194 400//194
f 402//194 17//194 401//194
f 403//194 18//194 402//194
f 403//194 20//194 19//194
f 405//194 20//194 404//194
f 405//194 22//194 21//194
f 407//194 22//194 406//194
f 408//194 23//194 407//194
f 409//194 24//194 408//194
f 409//194 26//194 25//194
f 410//194 27//194 26//194
f 411//194 28//194 27//194
f 413//194 28//194 412//194
f 413//194 30//194 29//194
f 415//194 30//194 414//194
f 415//194 32//194 31//194
f 416//194 33//194 32//194
f 417//194 34//194 33//194
f 418//194 35//194 34//194
f 419//194 36//194 35//194
f 421//194 36//194 420//194
f 422//194 37//194 421//194
f 422//194 39//194 38//194
f 423//194 40//194 39//194
f 424//194 41//194 40//194
f 426//194 41//194 425//194
f 427//194 42//194 426//194
f 428//194 43//194 427//194
f 428//194 45//194 44//194
f 430//194 45//194 429//194
f 430//194 47//194 46//194
f 431//194 48//194 47//194
f 433//194 48//194 432//194
f 433//194 50//194 49//194
f 435//194 50//194 434//194
f 436//194 51//194 435//194
f 436//194 53//194 52//194
f 438//194 53//194 437//194
f 438//194 55//194 54//194
f 440//194 55//194 439//194
f 441//194 56//194 440//194
f 441//194 58//194 57//194
f 443//194 58//194 442//194
f 444//194 59//194 443//194
f 444//194 61//194 60//194
f 446//194 61//194 445//194
f 447//194 62//194 446//194
f 448//194 63//194 447//194
f 449//194 64//194 448//194
f 449//194 66//194 65//194
f 451//194 66//194 450//194
f 451//194 68//194 67//194
f 453//194 68//194 452//194
f 453//194 70//194 69//194
f 455//194 70//194 454//194
f 455//194 72//194 71//194
f 457//194 72//194 456//194
f 457//194 74//194 73//194
f 459//194 74//194 458//194
f 459//194 76//194 75//194
f 461//194 76//194 460//194
f 461//194 78//194 77//194
f 463//194 78//194 462//194
f 463//194 80//194 79//194
f 465//194 80//194 464//194
f 466//194 81//194 465//194
f 466//194 83//194 82//194
f 468//194 83//194 467//194
f 469//194 84//194 468//194
f 470//194 85//194 469//194
f 471//194 86//194 470//194
f 472//194 87//194 471//194
f 473//194 88//194 472//194
f 474//194 89//194 473//194
f 475//194 90//194 474//194
f 476//194 91//194 475//194
f 477//194 92//194 476//194
f 478//194 93//194 477//194
f 478//194 95//194 94//194
f 480//194 95//194 479//194
f 385//194 96//194 480//194
s 1
f 2//1 98//1 97//2
f 3//3 99//3 98//1
f 4//4 100//4 99//3
f 5//5 101//5 100//4
f 6//6 102//6 101//5
f 7//7 103//7 102//6
f 8//8 104//8 103//7
f 9//9 105//9 104//8
f 10//10 106//10 105//9
f 11//11 107//11 106//10
f 12//12 108//12 107//11
f 13//13 109//13 108//12
f 14//14 110//14 109//13
f 15//15 111//15 110//14
f 16//16 112//16 111//15
f 17//17 113//17 112//16
f 18//18 114//18 113//17
f 19//19 115//19 114//18
f 20//20 116//20 115//19
f 21//21 117//21 116//20
f 22//22 118//22 117//21
f 23//23 119//23 118//22
f 24//24 120//24 119//23
f 25//25 121//25 120//24
f 26//26 122//26 121//25
f 27//27 123//27 122//26
f 28//28 124//28 123//27
f 29//29 125//29 124//28
f 30//30 126//30 125//29
f 31//31 127//31 126//30
f 32//32 128//32 127//31
f 33//33 129//33 128//32
f 34//34 130//34 129//33
f 35//35 131//35 130//34
f 36//36 132//36 131//35
f 37//37 133//37 132//36
f 38//38 134//38 133//37
f 39//39 135//39 134//38
f 40//40 136//40 135//39
f 41//41 137//41 136//40
f 42//42 138//42 137//41
f 43//43 139//43 138//42
f 44//44 140//44 139//43
f 45//45 141//45 140//44
f 46//46 142//46 141//45
f 47//47 143//47 142//46
f 48//48 144//48 143//47
f 49//49 145//49 144//48
f 50//50 146//50 145//49
f 51//51 147//51 146//50
f 52//52 148//52 147//51
f 53//53 149//53 148//52
f 54//54 150//54 149//53
f 55//55 151//55 150//54
f 56//56 152//56 151//55
f 57//57 153//57 152//56
f 58//58 154//58 153//57
f 59//59 155//59 154//58
f 60//60 156//60 155//59
f 61//61 157//61 156//60
f 62//62 158//62 157//61
f 63//63 159//63 158//62
f 64//64 160//64 159//63
f 65//65 161//65 160//64
f 66//66 162//66 161//65
f 67//67 163//67 162//66
f 68//68 164//68 163//67
f 69//69 165//69 164//68
f 70//70 166//70 165//69
f 71//71 167//71 166//70
f 72//72 168//72 167//71
f 73//73 169//73 168//72
f 74//74 170//74 169//73
f 75//75 171//75 170//74
f 76//76 172//76 171//75
f 77//77 173//77 172//76
f 78//78 174//78 173//77
f 79//79 175//79 174//78
f 80//80 176//80 175//79
f 81//81 177//81 176//80
f 82//82 178//82 177//81
f 83//83 179//83 178//82
f 84//84 180//84 179//83
f 85//85 181//85 180//84
f 86//86 182//86 181//85
f 87//87 183//87 182//86
f 88//88 184//88 183//87
f 89//89 185//89 184//88
f 90//90 186//90 185//89
f 91//91 187//91 186//90
f 92//92 188//92 187//91
f 93//93 189//93 188//92
f 94//94 190//94 189//93
f 95//95 191//95 190//94
f 96//96 192//96 191//95
f 1//2 97//2 192//96
s 0
f 98//97 194//97 193//97
f 98//98 99//98 195//98
f 99//99 100//99 196//99
f 100//100 101//100 197//100
f 102//101 198//101 197//101
f 103//102 199//102 198//102
f 103//103 104//103 200//103
f 105//104 201//104 200//104
f 106//105 202//105 201//105
f 106//106 107//106 203//106
f 107//107 108//107 204//107
f 108//108 109//108 205//108
f 109//109 110//109 206//109
f 110//110 111//110 207//110
f 112//111 208//111 207//111
f 113//112 209//112 208//112
f 114//113 210//113 209//113
f 115//114 211//114 210//114
f 116//115 212//115 211//115
f 116//116 117//116 213//116
f 118//117 214//117 213//117
f 119//195 215//195 214//195
f 119//119 120//119 216//119
f 121//120 217//120 216//120
f 121//121 122//121 218//121
f 123//122 219//122 218//122
f 123//196 124//196 220//196
f 124//124 125//124 221//124
f 126//125 222//125 221//125
f 126//126 127//126 223//126
f 127//127 128//127 224//127
f 128//128 129//128 225//128
f 129//129 130//129 226//129
f 130//130 131//130 227//130
f 132//131 228//131 227//131
f 133//132 229//132 228//132
f 134//133 230//133 229//133
f 135//134 231//134 230//134
f 136//135 232//135 231//135
f 136//136 137//136 233//136
f 137//137 138//137 234//137
f 139//138 235//138 234//138
f 140//139 236//139 235//139
f 141//140 237//140 236//140
f 142//141 238//141 237//141
f 143//142 239//142 238//142
f 144//143 240//143 239//143
f 144//144 145//144 241//144
f 145//145 146//145 242//145
f 146//146 147//146 243//146
f 147//147 148//147 244//147
f 148//148 149//148 245//148
f 150//149 246//149 245//149
f 151//150 247//150 246//150
f 152//197 248//197 247//197
f 153//152 249//152 248//152
f 154//153 250//153 249//153
f 154//154 155//154 251//154
f 155//198 156//198 252//198
f 156//156 157//156 253//156
f 157//157 158//157 254//157
f 159//199 255//199 254//199
f 160//159 256//159 255//159
f 161//160 257//160 256//160
f 162//161 258//161 257//161
f 163//162 259//162 258//162
f 163//163 164//163 260//163
f 164//164 165//164 261//164
f 166//165 262//165 261//165
f 166//166 167//166 263//166
f 168//167 264//167 263//167
f 169//168 265//168 264//168
f 170//169 266//169 265//169
f 171//170 267//170 266//170
f 172//171 268//171 267//171
f 172//172 173//172 269//172
f 174//173 270//173 269//173
f 175//174 271//174 270//174
f 175//175 176//175 272//175
f 176//176 177//176 273//176
f 177//177 178//177 274//177
f 178//178 179//178 275//178
f 179//200 180//200 276//200
f 181//180 277//180 276//180
f 182//181 278//181 277//181
f 183//201 279//201 278//201
f 184//183 280//183 279//183
f 185//184 281//184 280//184
f 185//185 186//185 282//185
f 186//202 187//202 283//202
f 187//187 188//187 284//187
f 189//188 285//188 284//188
f 190//189 286//189 285//189
f 191//190 287//190 286//190
f 192//191 288//191 287//191
f 97//192 193//192 288//192
f 194//193 290//193 289//193
f 195//193 291//193 290//193
f 196//193 292//193 291//193
f 197//193 293//193 292//193
f 198//193 294//193 293//193
f 199//193 295//193 294//193
f 200//193 296//193 295//193
f 201//193 297//193 296//193
f 202//193 298//193 297//193
f 203//193 299//193 298//193
f 203//193 204//193 300//193
f 205//193 301//193 300//193
f 206//193 302//193 301//193
f 206//193 207//193 303//193
f 208//193 304//193 303//193
f 209//193 305//193 304//193
f 209//193 210//193 306//193
f 210//193 211//193 307//193
f 212//193 308//193 307//193
f 212//193 213//193 309//193
f 213//193 214//193 310//193
f 215//193 311//193 310//193
f 215//193 216//193 312//193
f 216//193 217//193 313//193
f 218//193 314//193 313//193
f 219//193 315//193 314//193
f 220//193 316//193 315//193
f 221//193 317//193 316//193
f 222//193 318//193 317//193
f 222//193 223//193 319//193
f 224//193 320//193 319//193
f 225//193 321//193 320//193
f 225//193 226//193 322//193
f 226//193 227//193 323//193
f 228//193 324//193 323//193
f 228//193 229//193 325//193
f 229//193 230//193 326//193
f 231//193 327//193 326//193
f 231//193 232//193 328//193
f 233//193 329//193 328//193
f 234//193 330//193 329//193
f 235//193 331//193 330//193
f 235//193 236//193 332//193
f 237//193 333//193 332//193
f 237//193 238//193 334//193
f 238//193 239//193 335//193
f 240//193 336//193 335//193
f 241//193 337//193 336//193
f 242//193 338//193 337//193
f 243//193 339//193 338//193
f 244//193 340//193 339//193
f 245//193 341//193 340//193
f 246//193 342//193 341//193
f 247//193 343//193 342//193
f 248//193 344//193 343//193
f 249//193 345//193 344//193
f 250//193 346//193 345//193
f 251//193 347//193 346//193
f 251//193 252//193 348//193
f 253//193 349//193 348//193
f 254//193 350//193 349//193
f 254//193 255//193 351//193
f 256//193 352//193 351//193
f 257//193 353//193 352//193
f 258//193 354//193 353//193
f 258//193 259//193 355//193
f 260//193 356//193 355//193
f 260//193 261//193 357//193
f 262//193 358//193 357//193
f 262//193 263//193 359//193
f 264//193 360//193 359//193
f 264//193 265//193 361//193
f 266//193 362//193 361//193
f 266//193 267//193 363//193
f 268//193 364//193 363//193
f 268//193 269//193 365//193
f 270//193 366//193 365//193
f 270//193 271//193 367//193
f 272//193 368//193 367//193
f 273//193 369//193 368//193
f 273//193 274//193 370//193
f 275//193 371//193 370//193
f 276//193 372//193 371//193
f 277//193 373//193 372//193
f 277//193 278//193 374//193
f 279//193 375//193 374//193
f 280//193 376//193 375//193
f 280//193 281//193 377//193
f 282//193 378//193 377//193
f 282//193 283//193 379//193
f 284//193 380//193 379//193
f 285//193 381//193 380//193
f 286//193 382//193 381//193
f 287//193 383//193 382//193
f 288//193 384//193 383//193
f 193//193 289//193 384//193
s 1
f 290//50 386//50 385//49
f 291//51 387//51 386//50
f 292//52 388//52 387//51
f 293//53 389//53 388//52
f 294//54 390//54 389//53
f 295//55 391//55 390//54
f 296//56 392//56 391//55
f 297//57 393//57 392//56
f 298//58 394//58 393//57
f 299//59 395//59 394//58
f 300//60 396//60 395//59
f 301//61 397//61 396//60
f 302//62 398//62 397//61
f 303//63 399//63 398//62
f 304//64 400//64 399//63
f 305//65 401//65 400//64
f 306//66 402//66 401//65
f 307//67 403//67 402//66
f 308//68 404//68 403//67
f 309//69 405//69 404//68
f 310//70 406//70 405//69
f 311//71 407//71 406//70
f 312//72 408//72 407//71
f 313//73 409//73 408//72
f 314//74 410//74 409//73
f 315//75 411//75 410//74
f 316//76 412//76 411//75
f 317//77 413//77 412//76
f 318//78 414//78 413//77
f 319//79 415//79 414//78
f 320//80 416//80 415//79
f 321//81 417//81 416//80
f 322//82 418//82 417//81
f 323//83 419//83 418//82
f 324//84 420//84 419//83
f 325//85 421//85 420//84
f 326//86 422//86 421//85
f 327//87 423//87 422//86
f 328//88 424//88 423//87
f 329//89 425//89 424//88
f 330//90 426//90 425//89
f 331//91 427//91 426//90
f 332//92 428//92 427//91
f 333//93 429//93 428//92
f 334//94 430//94 429//93
f 335//95 431//95 430//94
f 336//96 432//96 431//95
f 337//2 433//2 432//96
f 338//1 434//1 433//2
f 339//3 435//3 434//1
f 340//4 436//4 435//3
f 341//5 437//5 436//4
f 342//6 438//6 437//5
f 343//7 439//7 438//6
f 344//8 440//8 439//7
f 345//9 441//9 440//8
f 346//10 442//10 441//9
f 347//11 443//11 442//10
f 348//12 444//12 443//11
f 349//13 445//13 444//12
f 350//14 446//14 445//13
f 351//15 447//15 446//14
f 352//16 448//16 447//15
f 353//17 449//17 448//16
f 354//18 450//18 449//17
f 355//19 451//19 450//18
f 356//20 452//20 451//19
f 357//21 453//21 452//20
f 358//22 454//22 453//21
f 359//23 455//23 454//22
f 360//24 456//24 455//23
f 361//25 457//25 456//24
f 362//26 458//26 457//25
f 363//27 459//27 458//26
f 364//28 460//28 459//27
f 365//29 461//29 460//28
f 366//30 462//30 461//29
f 367//31 463//31 462//30
f 368//32 464//32 463//31
f 369//33 465//33 464//32
f 370//34 466//34 465//33
f 371//35 467//35 466//34
f 372//36 468//36 467//35
f 373//37 469//37 468//36
f 374//38 470//38 469//37
f 375//39 471//39 470//38
f 376//40 472//40 471//39
f 377//41 473//41 472//40
f 378//42 474//42 473//41
f 379//43 475//43 474//42
f 380//44 476//44 475//43
f 381//45 477//45 476//44
f 382//46 478//46 477//45
f 383//47 479//47 478//46
f 384//48 480//48 479//47
f 289//49 385//49 480//48
s 0
f 385//194 386//194 2//194
f 387//194 3//194 2//194
f 388//194 4//194 3//194
f 388//194 389//194 5//194
f 390//194 6//194 5//194
f 390//194 391//194 7//194
f 391//194 392//194 8//194
f 392//194 393//194 9//194
f 394//194 10//194 9//194
f 395//194 11//194 10//194
f 396//194 12//194 11//194
f 396//194 397//194 13//194
f 398//194 14//194 13//194
f 399//194 15//194 14//194
f 400//194 16//194 15//194
f 401//194 17//194 16//194
f 402//194 18//194 17//194
f 403//194 19//194 18//194
f 403//194 404//194 20//194
f 405//194 21//194 20//194
f 405//194 406//194 22//194
f 407//194 23//194 22//194
f 408//194 24//194 23//194
f 409//194 25//194 24//194
f 409//194 410//194 26//194
f 410//194 411//194 27//194
f 411//194 412//194 28//194
f 413//194 29//194 28//194
f 413//194 414//194 30//194
f 415//194 31//194 30//194
f 415//194 416//194 32//194
f 416//194 417//194 33//194
f 417//194 418//194 34//194
f 418//194 419//194 35//194
f 419//194 420//194 36//194
f 421//194 37//194 36//194
f 422//194 38//194 37//194
f 422//194 423//194 39//194
f 423//194 424//194 40//194
f 424//194 425//194 41//194
f 426//194 42//194 41//194
f 427//194 43//194 42//194
f 428//194 44//194 43//194
f 428//194 429//194 45//194
f 430//194 46//194 45//194
f 430//194 431//194 47//194
f 431//194 432//194 48//194
f 433//194 49//194 48//194
f 433//194 434//194 50//194
f 435//194 51//194 50//194
f 436//194 52//194 51//194
f 436//194 437//194 53//194
f 438//194 54//194 53//194
f 438//194 439//194 55//194
f 440//194 56//194 55//194
f 441//194 57//194 56//194
f 441//194 442//194 58//194
f 443//194 59//194 58//194
f 444//194 60//194 59//194
f 444//194 445//194 61//194
f 446//194 62//194 61//194
f 447//194 63//194 62//194
f 448//194 64//194 63//194
f 449//194 65//194 64//194
f 449//194 450//194 66//194
f 451//194 67//194 66//194
f 451//194 452//194 68//194
f 453//194 69//194 68//194
f 453//194 454//194 70//194
f 455//194 71//194 70//194
f 455//194 456//194 72//194
f 457//194 73//194 72//194
f 457//194 458//194 74//194
f 459//194 75//194 74//194
f 459//194 460//194 76//194
f 461//194 77//194 76//194
f 461//194 462//194 78//194
f 463//194 79//194 78//194
f 463//194 464//194 80//194
f 465//194 81//194 80//194
f 466//194 82//194 81//194
f 466//194 467//194 83//194
f 468//194 84//194 83//194
f 469//194 85//194 84//194
f 470//194 86//194 85//194
f 471//194 87//194 86//194
f 472//194 88//194 87//194
f 473//194 89//194 88//194
f 474//194 90//194 89//194
f 475//194 91//194 90//194
f 476//194 92//194 91//194
f 477//194 93//194 92//194
f 478//194 94//194 93//194
f 478//194 479//194 95//194
f 480//194 96//194 95//194
f 385//194 1//194 96//194
