# Blender 4.5.0
# www.blender.org
mtllib mesh_009.mtl
o mesh_009
v -0.026069 0.006009 0.010250
v -0.027327 0.005003 0.009431
v -0.026069 0.003994 0.010246
v -0.026697 0.005874 0.010129
v -0.026069 0.005371 0.010536
v -0.026671 0.005262 0.010401
v -0.027159 0.004499 0.009826
v -0.027159 0.005505 0.009828
v -0.026995 0.005002 0.010190
v -0.026069 0.004631 0.010534
v -0.026697 0.004129 0.010125
v -0.026671 0.004741 0.010400
v -0.026069 -0.015000 -0.004000
v -0.027327 -0.014348 -0.005082
v -0.026698 -0.014913 -0.004145
v -0.027158 -0.014674 -0.004541
v -0.026069 -0.051000 -0.021000
v -0.027327 -0.050465 -0.022137
v -0.026698 -0.050928 -0.021152
v -0.027158 -0.050732 -0.021569
v -0.026069 -0.066125 -0.029251
v -0.026069 -0.064861 -0.027468
v -0.027327 -0.064820 -0.028837
v -0.026069 -0.065941 -0.028534
v -0.026697 -0.065921 -0.029217
v -0.026671 -0.065743 -0.028528
v -0.026697 -0.064825 -0.027673
v -0.026069 -0.065477 -0.027880
v -0.026671 -0.065417 -0.028068
v -0.027159 -0.065442 -0.029065
v -0.027159 -0.064810 -0.028175
v -0.026995 -0.065406 -0.028421
v -0.026069 -0.066111 -0.038889
v -0.026069 -0.066875 -0.036749
v -0.027327 -0.065690 -0.037532
v -0.026069 -0.066592 -0.038297
v -0.026697 -0.066001 -0.038688
v -0.026671 -0.066464 -0.038120
v -0.026697 -0.066662 -0.036834
v -0.026069 -0.066873 -0.037512
v -0.026671 -0.066662 -0.037567
v -0.027159 -0.065846 -0.038190
v -0.027159 -0.066228 -0.037122
v -0.026995 -0.066355 -0.037770
v -0.026069 -0.058000 -0.047000
v -0.027327 -0.057335 -0.045887
v -0.026698 -0.057911 -0.046851
v -0.027158 -0.057668 -0.046444
v -0.026069 -0.038525 -0.054142
v -0.026069 -0.039204 -0.052639
v -0.027327 -0.036254 -0.052211
v -0.026069 -0.038446 -0.053527
v -0.026684 -0.037999 -0.053439
v -0.026665 -0.038080 -0.053179
v -0.026684 -0.038329 -0.052709
v -0.026069 -0.038690 -0.052987
v -0.026665 -0.038187 -0.052942
v -0.027142 -0.037171 -0.052735
v -0.027142 -0.037253 -0.052553
v -0.027002 -0.037689 -0.052859
v -0.026069 -0.055000 -0.090000
v -0.027327 -0.053883 -0.090580
v -0.026698 -0.054850 -0.090078
v -0.027158 -0.054442 -0.090290
v -0.026069 -0.083000 -0.138000
v -0.027327 -0.081947 -0.138689
v -0.026698 -0.082859 -0.138092
v -0.027158 -0.082473 -0.138344
v -0.026069 -0.118000 -0.186000
v -0.027327 -0.117025 -0.186797
v -0.026698 -0.117869 -0.186107
v -0.027158 -0.117513 -0.186398
v -0.026069 -0.160000 -0.232000
v -0.027327 -0.159118 -0.232898
v -0.026698 -0.159882 -0.232120
v -0.027158 -0.159559 -0.232449
v -0.026069 -0.208743 -0.276000
v -0.026069 -0.209056 -0.275170
v -0.027327 -0.206669 -0.274743
v -0.026069 -0.209232 -0.275866
v -0.026684 -0.208083 -0.275815
v -0.026663 -0.208837 -0.275711
v -0.026684 -0.208439 -0.274873
v -0.026069 -0.209335 -0.275594
v -0.026663 -0.208936 -0.275449
v -0.027142 -0.207328 -0.275358
v -0.027142 -0.207570 -0.274717
v -0.027002 -0.208294 -0.275356
v -0.026069 -0.200000 -0.276000
v -0.027327 -0.200238 -0.274743
v -0.026698 -0.200032 -0.275832
v -0.027158 -0.200119 -0.275372
v -0.026069 -0.172000 -0.265000
v -0.027327 -0.172545 -0.263863
v -0.026698 -0.172073 -0.264848
v -0.027158 -0.172272 -0.264432
v -0.026069 -0.137000 -0.245000
v -0.027327 -0.137687 -0.243945
v -0.026698 -0.137092 -0.244859
v -0.027158 -0.137343 -0.244472
v -0.026069 -0.099000 -0.217000
v -0.027327 -0.099822 -0.216044
v -0.026698 -0.099110 -0.216872
v -0.027158 -0.099411 -0.216522
v -0.026069 -0.066000 -0.184000
v -0.027327 -0.066945 -0.183167
v -0.026698 -0.066127 -0.183888
v -0.027158 -0.066473 -0.183584
v -0.026069 -0.035000 -0.144000
v -0.027327 -0.036032 -0.143280
v -0.026698 -0.035138 -0.143903
v -0.027158 -0.035516 -0.143640
v -0.026069 -0.013756 -0.112178
v -0.026069 -0.015666 -0.113066
v -0.027327 -0.015632 -0.110640
v -0.026069 -0.014462 -0.112248
v -0.026684 -0.014383 -0.111901
v -0.026665 -0.014774 -0.112025
v -0.026684 -0.015473 -0.112408
v -0.026069 -0.015157 -0.112571
v -0.026665 -0.015127 -0.112189
v -0.027142 -0.015066 -0.111342
v -0.027142 -0.015461 -0.111525
v -0.027002 -0.015100 -0.111786
v -0.026069 0.020139 -0.115751
v -0.026069 0.018756 -0.116822
v -0.027327 0.018894 -0.115572
v -0.026069 0.019903 -0.116351
v -0.026697 0.019972 -0.115727
v -0.026671 0.019745 -0.116301
v -0.026697 0.018774 -0.116655
v -0.026069 0.019396 -0.116744
v -0.026671 0.019387 -0.116578
v -0.027159 0.019515 -0.115661
v -0.027159 0.018825 -0.116196
v -0.026995 0.019423 -0.116255
v -0.026069 0.024000 -0.081000
v -0.027327 0.022750 -0.080871
v -0.026698 0.023832 -0.080983
v -0.027158 0.023375 -0.080936
v -0.026069 0.027000 -0.049000
v -0.027327 0.025773 -0.048624
v -0.026698 0.026836 -0.048950
v -0.027158 0.026386 -0.048812
v -0.026069 0.042991 -0.017250
v -0.026069 0.043396 -0.019102
v -0.027327 0.042371 -0.018355
v -0.026069 0.043417 -0.017771
v -0.026697 0.042906 -0.017398
v -0.026671 0.043312 -0.017899
v -0.026697 0.043256 -0.019003
v -0.026069 0.043565 -0.018451
v -0.026671 0.043417 -0.018378
v -0.027159 0.042678 -0.017804
v -0.027159 0.042880 -0.018729
v -0.026995 0.043152 -0.018185
v 0.026069 0.006009 0.010250
v 0.026069 0.003994 0.010246
v 0.027327 0.005003 0.009431
v 0.026069 0.005371 0.010536
v 0.026697 0.005874 0.010129
v 0.026671 0.005262 0.010401
v 0.026697 0.004129 0.010125
v 0.026069 0.004631 0.010534
v 0.026671 0.004741 0.010400
v 0.027159 0.005505 0.009828
v 0.027159 0.004499 0.009826
v 0.026995 0.005002 0.010190
v 0.026069 -0.015000 -0.004000
v 0.027327 -0.014348 -0.005082
v 0.026698 -0.014913 -0.004145
v 0.027158 -0.014674 -0.004541
v 0.026069 -0.051000 -0.021000
v 0.027327 -0.050465 -0.022137
v 0.026698 -0.050928 -0.021152
v 0.027158 -0.050732 -0.021569
v 0.026069 -0.064861 -0.027468
v 0.026069 -0.066125 -0.029251
v 0.027327 -0.064820 -0.028837
v 0.026069 -0.065477 -0.027880
v 0.026697 -0.064825 -0.027673
v 0.026671 -0.065417 -0.028068
v 0.026697 -0.065921 -0.029217
v 0.026069 -0.065941 -0.028534
v 0.026671 -0.065743 -0.028528
v 0.027159 -0.064810 -0.028175
v 0.027159 -0.065442 -0.029065
v 0.026995 -0.065406 -0.028421
v 0.026069 -0.066875 -0.036749
v 0.026069 -0.066111 -0.038889
v 0.027327 -0.065690 -0.037532
v 0.026069 -0.066873 -0.037512
v 0.026697 -0.066662 -0.036834
v 0.026671 -0.066662 -0.037567
v 0.026697 -0.066001 -0.038688
v 0.026069 -0.066592 -0.038297
v 0.026671 -0.066464 -0.038120
v 0.027159 -0.066228 -0.037122
v 0.027159 -0.065846 -0.038190
v 0.026995 -0.066355 -0.037770
v 0.026069 -0.058000 -0.047000
v 0.027327 -0.057335 -0.045887
v 0.026698 -0.057911 -0.046851
v 0.027158 -0.057668 -0.046444
v 0.026069 -0.039204 -0.052639
v 0.026069 -0.038525 -0.054142
v 0.027327 -0.036254 -0.052211
v 0.026069 -0.038690 -0.052987
v 0.026684 -0.038329 -0.052709
v 0.026665 -0.038187 -0.052942
v 0.026684 -0.037999 -0.053439
v 0.026069 -0.038446 -0.053526
v 0.026665 -0.038080 -0.053179
v 0.027142 -0.037253 -0.052553
v 0.027142 -0.037171 -0.052735
v 0.027002 -0.037689 -0.052859
v 0.026069 -0.055000 -0.090000
v 0.027327 -0.053883 -0.090580
v 0.026698 -0.054850 -0.090078
v 0.027158 -0.054442 -0.090290
v 0.026069 -0.083000 -0.138000
v 0.027327 -0.081947 -0.138689
v 0.026698 -0.082859 -0.138092
v 0.027158 -0.082473 -0.138344
v 0.026069 -0.118000 -0.186000
v 0.027327 -0.117025 -0.186797
v 0.026698 -0.117869 -0.186107
v 0.027158 -0.117513 -0.186398
v 0.026069 -0.160000 -0.232000
v 0.027327 -0.159118 -0.232898
v 0.026698 -0.159882 -0.232120
v 0.027158 -0.159559 -0.232449
v 0.026069 -0.209056 -0.275170
v 0.026069 -0.208743 -0.276000
v 0.027327 -0.206669 -0.274743
v 0.026069 -0.209335 -0.275594
v 0.026684 -0.208439 -0.274873
v 0.026663 -0.208936 -0.275449
v 0.026684 -0.208083 -0.275815
v 0.026069 -0.209232 -0.275866
v 0.026663 -0.208837 -0.275711
v 0.027142 -0.207570 -0.274717
v 0.027142 -0.207328 -0.275358
v 0.027002 -0.208294 -0.275356
v 0.026069 -0.200000 -0.276000
v 0.027327 -0.200238 -0.274743
v 0.026698 -0.200032 -0.275832
v 0.027158 -0.200119 -0.275372
v 0.026069 -0.172000 -0.265000
v 0.027327 -0.172545 -0.263863
v 0.026698 -0.172073 -0.264848
v 0.027158 -0.172272 -0.264432
v 0.026069 -0.137000 -0.245000
v 0.027327 -0.137687 -0.243945
v 0.026698 -0.137092 -0.244859
v 0.027158 -0.137343 -0.244472
v 0.026069 -0.099000 -0.217000
v 0.027327 -0.099822 -0.216044
v 0.026698 -0.099110 -0.216872
v 0.027158 -0.099411 -0.216522
v 0.026069 -0.066000 -0.184000
v 0.027327 -0.066945 -0.183167
v 0.026698 -0.066127 -0.183888
v 0.027158 -0.066473 -0.183584
v 0.026069 -0.035000 -0.144000
v 0.027327 -0.036032 -0.143280
v 0.026698 -0.035138 -0.143903
v 0.027158 -0.035516 -0.143640
v 0.026069 -0.015666 -0.113066
v 0.026069 -0.013756 -0.112178
v 0.027327 -0.015632 -0.110640
v 0.026069 -0.015157 -0.112571
v 0.026684 -0.015473 -0.112408
v 0.026665 -0.015127 -0.112189
v 0.026684 -0.014383 -0.111901
v 0.026069 -0.014462 -0.112248
v 0.026665 -0.014774 -0.112025
v 0.027142 -0.015461 -0.111525
v 0.027142 -0.015066 -0.111342
v 0.027002 -0.015100 -0.111786
v 0.026069 0.018756 -0.116822
v 0.026069 0.020139 -0.115751
v 0.027327 0.018894 -0.115572
v 0.026069 0.019396 -0.116744
v 0.026697 0.018774 -0.116655
v 0.026671 0.019387 -0.116578
v 0.026697 0.019972 -0.115727
v 0.026069 0.019903 -0.116351
v 0.026671 0.019745 -0.116301
v 0.027159 0.018825 -0.116196
v 0.027159 0.019515 -0.115661
v 0.026995 0.019423 -0.116255
v 0.026069 0.024000 -0.081000
v 0.027327 0.022750 -0.080871
v 0.026698 0.023832 -0.080983
v 0.027158 0.023375 -0.080936
v 0.026069 0.027000 -0.049000
v 0.027327 0.025773 -0.048624
v 0.026698 0.026836 -0.048950
v 0.027158 0.026386 -0.048812
v 0.026069 0.042991 -0.017250
v 0.027327 0.042371 -0.018355
v 0.026069 0.043396 -0.019102
v 0.026697 0.042906 -0.017398
v 0.026069 0.043417 -0.017771
v 0.026671 0.043312 -0.017899
v 0.027159 0.042880 -0.018729
v 0.027159 0.042678 -0.017804
v 0.026995 0.043152 -0.018185
v 0.026069 0.043565 -0.018451
v 0.026697 0.043256 -0.019003
v 0.026671 0.043417 -0.018378
vn -0.2549 0.3951 0.8826
vn -0.6702 0.2773 0.6884
vn -0.9165 -0.0097 0.3999
vn -0.6702 -0.2801 0.6873
vn -0.2549 -0.3987 0.8810
vn -0.2173 -0.0020 0.9761
vn -0.5448 -0.0017 0.8385
vn -0.2893 -0.9271 0.2383
vn -0.2537 -0.7890 0.5596
vn -0.2894 -0.5315 0.7961
vn -0.6703 -0.4325 0.6030
vn -0.9082 -0.3460 0.2357
vn -0.6703 -0.7121 0.2089
vn -0.5485 -0.6820 0.4837
vn -0.3202 -0.7349 -0.5978
vn -0.2870 -0.9022 -0.3220
vn -0.3203 -0.9473 -0.0026
vn -0.6773 -0.7353 -0.0254
vn -0.9055 -0.3971 -0.1496
vn -0.6773 -0.5851 -0.4460
vn -0.5614 -0.7794 -0.2782
vn -0.5761 -0.8108 0.1035
vn -0.6251 -0.7113 -0.3213
vn -0.5761 -0.4582 -0.6769
vn -0.7993 -0.4826 -0.3580
vn -0.9849 -0.1576 -0.0713
vn -0.8974 -0.1413 -0.4180
vn -0.8223 -0.5186 -0.2343
vn -0.4160 -0.1357 -0.8992
vn -0.5816 -0.7611 -0.2873
vn -0.3931 -0.7683 0.5051
vn -0.7941 -0.4742 0.3801
vn -0.9763 -0.2025 -0.0764
vn -0.7909 -0.1150 -0.6011
vn -0.8815 -0.4418 -0.1667
vn -0.4807 0.0864 -0.8726
vn -0.4885 0.3679 -0.7912
vn -0.4806 0.6115 -0.6285
vn -0.6835 0.4168 -0.5992
vn -0.9784 0.0872 -0.1875
vn -0.8878 0.3447 -0.3050
vn -0.7246 0.2905 -0.6249
vn -0.2523 0.9008 -0.3534
vn -0.2214 0.5972 -0.7709
vn -0.2524 0.1172 -0.9605
vn -0.6934 0.1193 -0.7106
vn -0.9371 0.2137 -0.2759
vn -0.6935 0.6582 -0.2930
vn -0.5836 0.4973 -0.6420
vn -0.2472 0.7504 0.6131
vn -0.2107 0.9551 0.2085
vn -0.2472 0.9376 -0.2446
vn -0.6780 0.7183 -0.1562
vn -0.9238 0.3718 0.0910
vn -0.6780 0.5879 0.4413
vn -0.5562 0.8119 0.1772
vn 0.2549 0.3951 0.8826
vn 0.2173 -0.0020 0.9761
vn 0.2549 -0.3987 0.8810
vn 0.6702 -0.2801 0.6873
vn 0.9165 0.0080 0.3999
vn 0.6702 0.2773 0.6884
vn 0.5448 -0.0017 0.8385
vn 0.2894 -0.5315 0.7961
vn 0.2537 -0.7890 0.5596
vn 0.2893 -0.9271 0.2383
vn 0.6703 -0.7121 0.2089
vn 0.9082 -0.3369 0.2486
vn 0.6703 -0.4326 0.6030
vn 0.5485 -0.6820 0.4837
vn 0.3203 -0.9473 -0.0026
vn 0.2870 -0.9022 -0.3221
vn 0.3202 -0.7349 -0.5978
vn 0.6773 -0.5851 -0.4460
vn 0.9055 -0.4020 -0.1357
vn 0.6773 -0.7353 -0.0254
vn 0.5614 -0.7794 -0.2782
vn 0.5761 -0.4582 -0.6769
vn 0.6251 -0.7113 -0.3214
vn 0.5761 -0.8108 0.1035
vn 0.7993 -0.5876 -0.1255
vn 0.9849 -0.1576 -0.0713
vn 0.8974 -0.4071 0.1702
vn 0.8223 -0.5185 -0.2344
vn 0.4162 -0.6958 0.5854
vn 0.5816 -0.7612 -0.2870
vn 0.3930 -0.2431 -0.8868
vn 0.7941 -0.1049 -0.5986
vn 0.9763 -0.2025 -0.0764
vn 0.7908 -0.4834 0.3754
vn 0.8815 -0.4418 -0.1666
vn 0.4806 0.6115 -0.6286
vn 0.4885 0.3679 -0.7912
vn 0.4806 0.0864 -0.8727
vn 0.6835 0.1895 -0.7049
vn 0.9784 0.0872 -0.1875
vn 0.8878 0.0111 -0.4601
vn 0.7246 0.2905 -0.6249
vn 0.2524 0.1172 -0.9605
vn 0.2214 0.5972 -0.7709
vn 0.2524 0.9008 -0.3534
vn 0.6934 0.6582 -0.2930
vn 0.9371 0.2137 -0.2759
vn 0.6935 0.1192 -0.7105
vn 0.5836 0.4973 -0.6419
vn 0.2472 0.7504 0.6131
vn 0.6780 0.5879 0.4413
vn 0.9238 0.3759 0.0723
vn 0.6780 0.7183 -0.1562
vn 0.2472 0.9376 -0.2446
vn 0.2107 0.9551 0.2085
vn 0.5562 0.8119 0.1772
vn -0.2719 0.5741 0.7723
vn -0.7071 0.4219 0.5675
vn -0.9650 0.1564 0.2103
vn -0.9659 0.2269 -0.1244
vn -0.7071 0.6200 -0.3400
vn -0.2588 0.8470 -0.4644
vn -0.9659 0.2577 -0.0242
vn -0.7071 0.7040 -0.0660
vn -0.2588 0.9617 -0.0902
vn -0.9660 0.2569 -0.0285
vn -0.7071 0.7028 -0.0781
vn -0.2586 0.9601 -0.1067
vn -0.9576 -0.0408 -0.2853
vn -0.7066 -0.1007 -0.7005
vn -0.2876 -0.1360 -0.9480
vn -0.9659 0.2198 -0.1368
vn -0.7071 0.5999 -0.3743
vn -0.2589 0.8191 -0.5119
vn -0.9659 0.2046 -0.1585
vn -0.7071 0.5589 -0.4331
vn -0.2588 0.7635 -0.5917
vn -0.9659 0.1830 -0.1830
vn -0.7071 0.5000 -0.5000
vn -0.2588 0.6830 -0.6830
vn -0.9659 0.1535 -0.2084
vn -0.7071 0.4194 -0.5692
vn -0.2587 0.5730 -0.7776
vn -0.9659 0.1284 -0.2247
vn -0.7071 0.3508 -0.6139
vn -0.2588 0.4792 -0.8387
vn -0.9659 0.0946 -0.2409
vn -0.7072 0.2585 -0.6581
vn -0.2587 0.3532 -0.8991
vn -0.9584 -0.0027 -0.2854
vn -0.7093 -0.0027 -0.7049
vn -0.2881 -0.0000 -0.9576
vn -0.9659 -0.1710 0.1943
vn -0.7071 -0.4674 0.5306
vn -0.2589 -0.6383 0.7249
vn -0.9659 -0.1911 0.1745
vn -0.7071 -0.5222 0.4768
vn -0.2588 -0.7133 0.6513
vn -0.9659 -0.2091 0.1525
vn -0.7071 -0.5713 0.4166
vn -0.2588 -0.7805 0.5691
vn -0.9659 -0.2236 0.1304
vn -0.7071 -0.6108 0.3563
vn -0.2587 -0.8344 0.4867
vn -0.9577 -0.2616 0.1202
vn -0.7065 -0.6428 0.2959
vn -0.2872 -0.8702 0.4003
vn -0.9659 -0.0736 -0.2484
vn -0.7070 -0.2022 -0.6777
vn -0.2588 -0.2776 -0.9252
vn -0.9600 -0.1980 -0.1980
vn -0.7062 -0.5029 -0.4983
vn -0.3302 -0.6704 -0.6644
vn -0.9625 -0.2699 0.0263
vn -0.7075 -0.7034 0.0685
vn -0.3038 -0.9480 0.0948
vn -0.9659 -0.1099 0.2343
vn -0.7071 -0.3004 0.6401
vn -0.2588 -0.4085 0.8753
vn -0.9659 -0.1105 0.2340
vn -0.7071 -0.3019 0.6394
vn -0.2589 -0.4124 0.8734
vn -0.9650 -0.1573 0.2097
vn -0.7071 -0.4240 0.5659
vn -0.2719 -0.5771 0.7701
vn 0.9650 0.1564 0.2103
vn 0.7071 0.4219 0.5675
vn 0.2719 0.5741 0.7723
vn 0.2719 -0.5771 0.7701
vn 0.7071 -0.4241 0.5659
vn 0.9650 -0.1573 0.2097
vn 0.2589 -0.4124 0.8734
vn 0.7071 -0.3019 0.6394
vn 0.9659 -0.1105 0.2340
vn 0.2588 -0.4085 0.8753
vn 0.7071 -0.3004 0.6401
vn 0.9659 -0.1099 0.2343
vn 0.3038 -0.9480 0.0948
vn 0.7075 -0.7034 0.0685
vn 0.9625 -0.2699 0.0263
vn 0.3302 -0.6705 -0.6644
vn 0.7062 -0.5029 -0.4983
vn 0.9600 -0.1980 -0.1980
vn 0.2588 -0.2776 -0.9252
vn 0.7070 -0.2022 -0.6777
vn 0.9659 -0.0736 -0.2484
vn 0.2872 -0.8702 0.4004
vn 0.7065 -0.6428 0.2959
vn 0.9577 -0.2616 0.1202
vn 0.2587 -0.8344 0.4867
vn 0.7071 -0.6108 0.3563
vn 0.9659 -0.2236 0.1304
vn 0.2588 -0.7805 0.5691
vn 0.7071 -0.5713 0.4166
vn 0.9659 -0.2091 0.1525
vn 0.2588 -0.7133 0.6513
vn 0.7071 -0.5222 0.4768
vn 0.9659 -0.1911 0.1745
vn 0.2589 -0.6383 0.7249
vn 0.7071 -0.4674 0.5306
vn 0.9659 -0.1710 0.1943
vn 0.2880 -0.0000 -0.9576
vn 0.7093 -0.0027 -0.7049
vn 0.9584 -0.0027 -0.2854
vn 0.2587 0.3532 -0.8991
vn 0.7072 0.2585 -0.6581
vn 0.9659 0.0946 -0.2409
vn 0.2588 0.4792 -0.8387
vn 0.7071 0.3508 -0.6139
vn 0.9659 0.1284 -0.2247
vn 0.2587 0.5730 -0.7776
vn 0.7071 0.4194 -0.5692
vn 0.9659 0.1535 -0.2084
vn 0.2588 0.6830 -0.6830
vn 0.7071 0.5000 -0.5000
vn 0.9659 0.1830 -0.1830
vn 0.2588 0.7635 -0.5917
vn 0.7071 0.5589 -0.4331
vn 0.9659 0.2046 -0.1585
vn 0.2589 0.8191 -0.5119
vn 0.7071 0.5999 -0.3743
vn 0.9659 0.2198 -0.1368
vn 0.2875 -0.1360 -0.9481
vn 0.7066 -0.1007 -0.7004
vn 0.9576 -0.0408 -0.2853
vn 0.2586 0.9601 -0.1067
vn 0.7071 0.7028 -0.0781
vn 0.9660 0.2569 -0.0285
vn 0.2588 0.9617 -0.0902
vn 0.7071 0.7040 -0.0660
vn 0.9659 0.2577 -0.0242
vn 0.2588 0.8470 -0.4644
vn 0.7071 0.6200 -0.3400
vn 0.9659 0.2269 -0.1244
vn -0.0000 -0.4123 0.9110
vn -0.0000 -0.0021 1.0000
vn -0.0000 0.4086 0.9127
vn -0.0000 -0.9685 0.2490
vn -0.0000 -0.8157 0.5785
vn -0.0000 -0.5552 0.8317
vn -0.0000 -0.7757 -0.6310
vn -0.0000 -0.9418 -0.3362
vn -0.0000 -1.0000 -0.0028
vn -0.0000 -0.9919 0.1267
vn -0.0000 -0.9113 -0.4116
vn -0.0000 -0.5605 -0.8281
vn -0.0000 -0.2644 -0.9644
vn -0.0000 -0.9356 -0.3530
vn -0.0000 -0.8356 0.5493
vn -0.0000 0.0985 -0.9951
vn -0.0000 0.4216 -0.9068
vn -0.0000 0.6973 -0.7167
vn -0.0000 0.9309 -0.3652
vn -0.0000 0.6124 -0.7905
vn -0.0000 0.1211 -0.9926
vn -0.0000 0.7744 0.6327
vn -0.0000 0.9770 0.2132
vn -0.0000 0.9676 -0.2524
vn -0.0000 0.5967 0.8025
vn -1.0000 -0.0000 -0.0000
vn -0.0000 -0.6000 0.8000
vn -0.0000 -0.4270 0.9042
vn -0.0000 -0.4229 0.9062
vn -0.0000 -0.9950 0.0995
vn -0.0000 -0.7071 -0.7071
vn -0.0000 -0.2873 -0.9578
vn -0.0000 -0.9087 0.4175
vn -0.0000 -0.8638 0.5039
vn -0.0000 -0.8080 0.5892
vn -0.0000 -0.7385 0.6743
vn -0.0000 -0.6606 0.7507
vn -0.0000 -0.0000 -1.0000
vn -0.0000 0.3657 -0.9308
vn -0.0000 0.4961 -0.8682
vn -0.0000 0.5932 -0.8051
vn -0.0000 0.7071 -0.7071
vn -0.0000 0.7904 -0.6126
vn -0.0000 0.8480 -0.5300
vn -0.0000 -0.1414 -0.9899
vn -0.0000 0.9939 -0.1104
vn -0.0000 0.9956 -0.0933
vn -0.0000 0.8768 -0.4808
vn 1.0000 -0.0000 -0.0000
vn -0.2667 0.3822 0.8848
vn -0.9165 0.0080 0.3999
vn -0.2667 -0.3858 0.8832
vn -0.2999 -0.9211 0.2483
vn -0.3000 -0.5389 0.7872
vn -0.6703 -0.4326 0.6030
vn -0.9082 -0.3369 0.2486
vn -0.3302 -0.7387 -0.5876
vn -0.2870 -0.9022 -0.3221
vn -0.3303 -0.9438 -0.0130
vn -0.9055 -0.4020 -0.1357
vn -0.5955 -0.7780 -0.2002
vn -0.5955 -0.6645 -0.4515
vn -0.8974 -0.4071 0.1702
vn -0.9663 -0.2347 -0.1061
vn -0.7994 -0.5876 -0.1255
vn -0.3930 -0.2431 -0.8868
vn -0.5815 -0.7612 -0.2871
vn -0.4162 -0.6958 0.5854
vn -0.7908 -0.4834 0.3753
vn -0.9883 -0.1428 -0.0539
vn -0.7940 -0.1050 -0.5987
vn -0.4510 0.2489 -0.8571
vn -0.4885 0.3678 -0.7912
vn -0.4509 0.4950 -0.7427
vn -0.8878 0.0111 -0.4601
vn -0.9412 0.1425 -0.3064
vn -0.6836 0.1896 -0.7048
vn -0.2658 0.8919 -0.3659
vn -0.2658 0.1315 -0.9550
vn -0.6935 0.1192 -0.7105
vn -0.9300 0.2251 -0.2905
vn -0.6934 0.6582 -0.2930
vn -0.2597 0.7564 0.6003
vn -0.2597 0.9378 -0.2305
vn -0.9238 0.3759 0.0723
vn 0.2667 0.3822 0.8848
vn 0.2667 -0.3858 0.8832
vn 0.9165 -0.0097 0.3999
vn 0.3000 -0.5389 0.7872
vn 0.2999 -0.9211 0.2483
vn 0.9082 -0.3460 0.2357
vn 0.6703 -0.4325 0.6030
vn 0.3303 -0.9438 -0.0130
vn 0.2870 -0.9022 -0.3220
vn 0.3302 -0.7387 -0.5876
vn 0.9055 -0.3971 -0.1496
vn 0.5955 -0.6646 -0.4514
vn 0.6252 -0.7112 -0.3215
vn 0.5955 -0.7781 -0.2001
vn 0.8974 -0.1413 -0.4180
vn 0.9663 -0.2347 -0.1060
vn 0.7994 -0.4826 -0.3579
vn 0.3931 -0.7683 0.5051
vn 0.5816 -0.7611 -0.2873
vn 0.4160 -0.1357 -0.8992
vn 0.7909 -0.1151 -0.6010
vn 0.9883 -0.1428 -0.0539
vn 0.7940 -0.4743 0.3802
vn 0.4509 0.4950 -0.7427
vn 0.4509 0.2488 -0.8572
vn 0.8878 0.3447 -0.3050
vn 0.9412 0.1425 -0.3064
vn 0.6835 0.4168 -0.5992
vn 0.2657 0.1315 -0.9550
vn 0.2658 0.8919 -0.3659
vn 0.6935 0.6582 -0.2930
vn 0.9300 0.2251 -0.2905
vn 0.6934 0.1193 -0.7106
vn 0.2597 0.7564 0.6003
vn 0.9238 0.3718 0.0910
vn 0.2597 0.9378 -0.2305
vn -0.2616 0.5759 0.7745
vn -0.7071 0.4218 0.5675
vn -0.9658 0.1547 0.2081
vn -0.9658 0.2274 -0.1247
vn -0.2616 0.8463 -0.4641
vn -0.9659 0.2572 -0.0286
vn -0.2588 0.9600 -0.1067
vn -0.9660 -0.0371 -0.2559
vn -0.7071 -0.1006 -0.6999
vn -0.2587 -0.1366 -0.9562
vn -0.9576 0.2443 -0.1527
vn -0.7067 0.6003 -0.3745
vn -0.2876 0.8125 -0.5072
vn -0.9659 0.2046 -0.1586
vn -0.2589 0.7635 -0.5917
vn -0.7071 0.4195 -0.5693
vn -0.2588 0.5730 -0.7776
vn -0.2588 0.3532 -0.8990
vn -0.9659 -0.0000 -0.2588
vn -0.7069 -0.0030 -0.7073
vn -0.2586 -0.0024 -0.9660
vn -0.9577 -0.1904 0.2159
vn -0.7074 -0.4672 0.5304
vn -0.2882 -0.6326 0.7189
vn -0.7071 -0.5714 0.4166
vn -0.2588 -0.8343 0.4867
vn -0.9659 -0.2350 0.1085
vn -0.7071 -0.6423 0.2957
vn -0.2587 -0.8777 0.4033
vn -0.9577 -0.0827 -0.2757
vn -0.7061 -0.2025 -0.6786
vn -0.2866 -0.2744 -0.9179
vn -0.9659 -0.1840 -0.1824
vn -0.7067 -0.5026 -0.4980
vn -0.2588 -0.6830 -0.6830
vn -0.9600 -0.2786 0.0279
vn -0.7067 -0.7042 0.0687
vn -0.3304 -0.9394 0.0915
vn -0.9624 -0.1148 0.2460
vn -0.7068 -0.3005 0.6404
vn -0.3038 -0.4047 0.8625
vn -0.2588 -0.4125 0.8734
vn -0.9659 -0.1552 0.2071
vn -0.7071 -0.4240 0.5658
vn -0.2589 -0.5795 0.7727
vn 0.9658 0.1547 0.2081
vn 0.7071 0.4218 0.5675
vn 0.2616 0.5759 0.7745
vn 0.2589 -0.5795 0.7727
vn 0.7071 -0.4240 0.5658
vn 0.9659 -0.1552 0.2071
vn 0.2588 -0.4125 0.8734
vn 0.3038 -0.4047 0.8625
vn 0.7068 -0.3005 0.6404
vn 0.9624 -0.1148 0.2460
vn 0.3304 -0.9394 0.0915
vn 0.7066 -0.7042 0.0687
vn 0.9600 -0.2786 0.0279
vn 0.2588 -0.6830 -0.6830
vn 0.7067 -0.5026 -0.4980
vn 0.9659 -0.1840 -0.1824
vn 0.2866 -0.2744 -0.9179
vn 0.7061 -0.2025 -0.6786
vn 0.9577 -0.0827 -0.2757
vn 0.2587 -0.8777 0.4033
vn 0.7071 -0.6423 0.2957
vn 0.9659 -0.2350 0.1085
vn 0.2588 -0.8343 0.4867
vn 0.2587 -0.7805 0.5691
vn 0.7071 -0.5714 0.4166
vn 0.2882 -0.6326 0.7189
vn 0.7074 -0.4672 0.5304
vn 0.9577 -0.1904 0.2159
vn 0.2586 -0.0024 -0.9660
vn 0.7069 -0.0030 -0.7073
vn 0.9659 -0.0000 -0.2588
vn 0.2588 0.3532 -0.8990
vn 0.2588 0.5730 -0.7776
vn 0.7071 0.4195 -0.5693
vn 0.2589 0.7635 -0.5917
vn 0.7071 0.5589 -0.4332
vn 0.9659 0.2046 -0.1586
vn 0.2876 0.8125 -0.5072
vn 0.7067 0.6003 -0.3745
vn 0.9576 0.2443 -0.1527
vn 0.2587 -0.1366 -0.9562
vn 0.7071 -0.1006 -0.6999
vn 0.9660 -0.0371 -0.2559
vn 0.2588 0.9600 -0.1067
vn 0.9659 0.2572 -0.0286
vn 0.2616 0.8463 -0.4641
vn 0.9658 0.2274 -0.1247
vn -0.0000 -0.9113 -0.4118
vn -0.0000 -0.5606 -0.8281
vn -0.0000 -0.9356 -0.3531
vn -0.0000 0.6973 -0.7168
s 0
usemtl Trigger_molded_plastic
f 4//1 5//1 1//1
f 8//2 6//2 4//2
f 2//3 9//3 8//3
f 7//4 12//4 9//4
f 10//5 11//5 3//5
f 5//6 12//6 10//6
f 6//7 9//7 12//7
f 24//8 25//8 21//8
f 28//9 26//9 24//9
f 27//10 28//10 22//10
f 31//11 29//11 27//11
f 23//12 32//12 31//12
f 30//13 26//13 32//13
f 26//14 29//14 32//14
f 36//15 37//15 33//15
f 36//16 41//16 38//16
f 39//17 40//17 34//17
f 43//18 41//18 39//18
f 35//19 44//19 43//19
f 42//20 38//20 44//20
f 38//21 41//21 44//21
f 52//22 53//22 49//22
f 56//23 54//23 52//23
f 55//24 56//24 50//24
f 55//25 60//25 57//25
f 58//26 59//26 51//26
f 53//27 60//27 58//27
f 54//28 57//28 60//28
f 77//29 82//29 81//29
f 84//30 82//30 80//30
f 78//31 85//31 84//31
f 83//32 88//32 85//32
f 86//33 87//33 79//33
f 81//34 88//34 86//34
f 82//35 85//35 88//35
f 116//36 117//36 113//36
f 120//37 118//37 116//37
f 119//38 120//38 114//38
f 119//39 124//39 121//39
f 122//40 123//40 115//40
f 117//41 124//41 122//41
f 118//42 121//42 124//42
f 128//43 129//43 125//43
f 128//44 133//44 130//44
f 131//45 132//45 126//45
f 131//46 136//46 133//46
f 134//47 135//47 127//47
f 129//48 136//48 134//48
f 130//49 133//49 136//49
f 148//50 149//50 145//50
f 152//51 150//51 148//51
f 151//52 152//52 146//52
f 155//53 153//53 151//53
f 147//54 156//54 155//54
f 154//55 150//55 156//55
f 150//56 153//56 156//56
f 160//57 161//57 157//57
f 164//58 162//58 160//58
f 163//59 164//59 158//59
f 167//60 165//60 163//60
f 159//61 168//61 167//61
f 166//62 162//62 168//62
f 162//63 165//63 168//63
f 180//64 181//64 177//64
f 180//65 185//65 182//65
f 183//66 184//66 178//66
f 187//67 185//67 183//67
f 179//68 188//68 187//68
f 186//69 182//69 188//69
f 182//70 185//70 188//70
f 192//71 193//71 189//71
f 196//72 194//72 192//72
f 195//73 196//73 190//73
f 199//74 197//74 195//74
f 191//75 200//75 199//75
f 198//76 194//76 200//76
f 194//77 197//77 200//77
f 208//78 209//78 205//78
f 212//79 210//79 208//79
f 211//80 212//80 206//80
f 211//81 216//81 213//81
f 214//82 215//82 207//82
f 209//83 216//83 214//83
f 210//84 213//84 216//84
f 233//85 238//85 237//85
f 236//86 241//86 238//86
f 234//87 241//87 240//87
f 239//88 244//88 241//88
f 242//89 243//89 235//89
f 237//90 244//90 242//90
f 238//91 241//91 244//91
f 272//92 273//92 269//92
f 272//93 277//93 274//93
f 275//94 276//94 270//94
f 275//95 280//95 277//95
f 278//96 279//96 271//96
f 273//97 280//97 278//97
f 274//98 277//98 280//98
f 284//99 285//99 281//99
f 288//100 286//100 284//100
f 287//101 288//101 282//101
f 287//102 292//102 289//102
f 290//103 291//103 283//103
f 285//104 292//104 290//104
f 286//105 289//105 292//105
f 304//106 305//106 301//106
f 308//107 306//107 304//107
f 302//108 309//108 308//108
f 307//109 312//109 309//109
f 310//110 311//110 303//110
f 305//111 312//111 310//111
f 306//112 309//112 312//112
f 1//113 149//113 4//113
f 4//114 154//114 8//114
f 8//115 147//115 2//115
f 147//116 144//116 142//116
f 155//117 143//117 144//117
f 151//118 141//118 143//118
f 138//119 144//119 140//119
f 140//120 143//120 139//120
f 139//121 141//121 137//121
f 127//122 140//122 134//122
f 134//123 139//123 129//123
f 129//124 137//124 125//124
f 127//125 122//125 115//125
f 135//126 117//126 122//126
f 131//127 113//127 117//127
f 110//128 123//128 112//128
f 112//129 119//129 111//129
f 111//130 114//130 109//130
f 106//131 112//131 108//131
f 108//132 111//132 107//132
f 107//133 109//133 105//133
f 102//134 108//134 104//134
f 104//135 107//135 103//135
f 103//136 105//136 101//136
f 102//137 100//137 98//137
f 104//138 99//138 100//138
f 103//139 97//139 99//139
f 94//140 100//140 96//140
f 96//141 99//141 95//141
f 95//142 97//142 93//142
f 90//143 96//143 92//143
f 92//144 95//144 91//144
f 91//145 93//145 89//145
f 79//146 92//146 86//146
f 86//147 91//147 81//147
f 81//148 89//148 77//148
f 79//149 76//149 74//149
f 87//150 75//150 76//150
f 83//151 73//151 75//151
f 74//152 72//152 70//152
f 76//153 71//153 72//153
f 75//154 69//154 71//154
f 66//155 72//155 68//155
f 68//156 71//156 67//156
f 67//157 69//157 65//157
f 62//158 68//158 64//158
f 64//159 67//159 63//159
f 63//160 65//160 61//160
f 62//161 58//161 51//161
f 64//162 53//162 58//162
f 63//163 49//163 53//163
f 46//164 59//164 48//164
f 48//165 55//165 47//165
f 47//166 50//166 45//166
f 46//167 42//167 35//167
f 48//168 37//168 42//168
f 47//169 33//169 37//169
f 23//170 43//170 30//170
f 30//171 39//171 25//171
f 25//172 34//172 21//172
f 18//173 31//173 20//173
f 20//174 27//174 19//174
f 19//175 22//175 17//175
f 18//176 16//176 14//176
f 20//177 15//177 16//177
f 19//178 13//178 15//178
f 14//179 7//179 2//179
f 16//180 11//180 7//180
f 15//181 3//181 11//181
f 302//182 166//182 159//182
f 308//183 161//183 166//183
f 304//184 157//184 161//184
f 158//185 171//185 163//185
f 163//186 172//186 167//186
f 167//187 170//187 159//187
f 169//188 175//188 171//188
f 171//189 176//189 172//189
f 172//190 174//190 170//190
f 177//191 175//191 173//191
f 181//192 176//192 175//192
f 186//193 174//193 176//193
f 189//194 183//194 178//194
f 193//195 187//195 183//195
f 198//196 179//196 187//196
f 190//197 203//197 195//197
f 195//198 204//198 199//198
f 199//199 202//199 191//199
f 205//200 203//200 201//200
f 209//201 204//201 203//201
f 214//202 202//202 204//202
f 206//203 219//203 211//203
f 211//204 220//204 215//204
f 215//205 218//205 207//205
f 221//206 219//206 217//206
f 223//207 220//207 219//207
f 224//208 218//208 220//208
f 225//209 223//209 221//209
f 227//210 224//210 223//210
f 228//211 222//211 224//211
f 229//212 227//212 225//212
f 227//213 232//213 228//213
f 228//214 230//214 226//214
f 229//215 237//215 231//215
f 231//216 242//216 232//216
f 232//217 235//217 230//217
f 245//218 239//218 234//218
f 247//219 243//219 239//219
f 248//220 235//220 243//220
f 249//221 247//221 245//221
f 251//222 248//222 247//222
f 252//223 246//223 248//223
f 253//224 251//224 249//224
f 255//225 252//225 251//225
f 256//226 250//226 252//226
f 253//227 259//227 255//227
f 255//228 260//228 256//228
f 256//229 258//229 254//229
f 261//230 259//230 257//230
f 263//231 260//231 259//231
f 264//232 258//232 260//232
f 265//233 263//233 261//233
f 267//234 264//234 263//234
f 268//235 262//235 264//235
f 269//236 267//236 265//236
f 273//237 268//237 267//237
f 278//238 266//238 268//238
f 270//239 285//239 275//239
f 275//240 290//240 279//240
f 279//241 283//241 271//241
f 293//242 287//242 282//242
f 295//243 291//243 287//243
f 296//244 283//244 291//244
f 297//245 295//245 293//245
f 299//246 296//246 295//246
f 300//247 294//247 296//247
f 297//248 311//248 299//248
f 299//249 307//249 300//249
f 300//250 302//250 298//250
f 158//251 10//251 3//251
f 164//252 5//252 10//252
f 160//253 1//253 5//253
f 178//254 24//254 21//254
f 184//255 28//255 24//255
f 180//256 22//256 28//256
f 190//257 36//257 33//257
f 196//258 40//258 36//258
f 192//259 34//259 40//259
f 206//260 52//260 49//260
f 212//261 56//261 52//261
f 208//262 50//262 56//262
f 234//263 80//263 77//263
f 240//264 84//264 80//264
f 236//265 78//265 84//265
f 270//266 116//266 113//266
f 276//267 120//267 116//267
f 272//268 114//268 120//268
f 282//269 128//269 125//269
f 288//270 132//270 128//270
f 284//271 126//271 132//271
f 301//272 148//272 145//272
f 305//273 152//273 148//273
f 310//274 146//274 152//274
f 1//275 301//275 145//275
f 142//276 66//276 62//276
f 13//277 158//277 3//277
f 17//278 169//278 13//278
f 22//279 173//279 17//279
f 34//280 178//280 21//280
f 45//281 190//281 33//281
f 50//282 201//282 45//282
f 61//283 206//283 49//283
f 65//284 217//284 61//284
f 69//285 221//285 65//285
f 73//286 225//286 69//286
f 78//287 229//287 73//287
f 89//288 234//288 77//288
f 93//289 245//289 89//289
f 97//290 249//290 93//290
f 101//291 253//291 97//291
f 105//292 257//292 101//292
f 109//293 261//293 105//293
f 109//294 269//294 265//294
f 126//295 270//295 113//295
f 137//296 282//296 125//296
f 141//297 293//297 137//297
f 146//298 297//298 141//298
f 230//299 254//299 271//299
f 4//300 6//300 5//300
f 8//2 9//2 6//2
f 2//301 7//301 9//301
f 7//4 11//4 12//4
f 10//302 12//302 11//302
f 5//6 6//6 12//6
f 24//303 26//303 25//303
f 28//9 29//9 26//9
f 27//304 29//304 28//304
f 31//305 32//305 29//305
f 23//306 30//306 32//306
f 30//13 25//13 26//13
f 36//307 38//307 37//307
f 36//308 40//308 41//308
f 39//309 41//309 40//309
f 43//18 44//18 41//18
f 35//310 42//310 44//310
f 42//20 37//20 38//20
f 52//311 54//311 53//311
f 56//23 57//23 54//23
f 55//312 57//312 56//312
f 55//313 59//313 60//313
f 58//314 60//314 59//314
f 53//315 54//315 60//315
f 77//316 80//316 82//316
f 84//317 85//317 82//317
f 78//318 83//318 85//318
f 83//319 87//319 88//319
f 86//320 88//320 87//320
f 81//321 82//321 88//321
f 116//322 118//322 117//322
f 120//323 121//323 118//323
f 119//324 121//324 120//324
f 119//325 123//325 124//325
f 122//326 124//326 123//326
f 117//327 118//327 124//327
f 128//328 130//328 129//328
f 128//44 132//44 133//44
f 131//329 133//329 132//329
f 131//330 135//330 136//330
f 134//331 136//331 135//331
f 129//332 130//332 136//332
f 148//333 150//333 149//333
f 152//51 153//51 150//51
f 151//334 153//334 152//334
f 155//53 156//53 153//53
f 147//335 154//335 156//335
f 154//55 149//55 150//55
f 160//336 162//336 161//336
f 164//58 165//58 162//58
f 163//337 165//337 164//337
f 167//60 168//60 165//60
f 159//338 166//338 168//338
f 166//62 161//62 162//62
f 180//339 182//339 181//339
f 180//65 184//65 185//65
f 183//340 185//340 184//340
f 187//67 188//67 185//67
f 179//341 186//341 188//341
f 186//342 181//342 182//342
f 192//343 194//343 193//343
f 196//344 197//344 194//344
f 195//345 197//345 196//345
f 199//74 200//74 197//74
f 191//346 198//346 200//346
f 198//76 193//76 194//76
f 208//347 210//347 209//347
f 212//348 213//348 210//348
f 211//349 213//349 212//349
f 211//350 215//350 216//350
f 214//351 216//351 215//351
f 209//352 210//352 216//352
f 233//353 236//353 238//353
f 236//354 240//354 241//354
f 234//355 239//355 241//355
f 239//356 243//356 244//356
f 242//357 244//357 243//357
f 237//358 238//358 244//358
f 272//359 274//359 273//359
f 272//93 276//93 277//93
f 275//360 277//360 276//360
f 275//361 279//361 280//361
f 278//362 280//362 279//362
f 273//363 274//363 280//363
f 284//364 286//364 285//364
f 288//100 289//100 286//100
f 287//365 289//365 288//365
f 287//366 291//366 292//366
f 290//367 292//367 291//367
f 285//368 286//368 292//368
f 304//369 306//369 305//369
f 308//107 309//107 306//107
f 302//370 307//370 309//370
f 307//109 311//109 312//109
f 310//371 312//371 311//371
f 305//111 306//111 312//111
f 1//372 145//372 149//372
f 4//373 149//373 154//373
f 8//374 154//374 147//374
f 147//375 155//375 144//375
f 155//117 151//117 143//117
f 151//376 146//376 141//376
f 138//119 142//119 144//119
f 140//120 144//120 143//120
f 139//121 143//121 141//121
f 127//377 138//377 140//377
f 134//123 140//123 139//123
f 129//378 139//378 137//378
f 127//379 135//379 122//379
f 135//380 131//380 117//380
f 131//381 126//381 113//381
f 110//382 115//382 123//382
f 112//383 123//383 119//383
f 111//384 119//384 114//384
f 106//385 110//385 112//385
f 108//132 112//132 111//132
f 107//386 111//386 109//386
f 102//134 106//134 108//134
f 104//135 108//135 107//135
f 103//136 107//136 105//136
f 102//137 104//137 100//137
f 104//387 103//387 99//387
f 103//388 101//388 97//388
f 94//140 98//140 100//140
f 96//141 100//141 99//141
f 95//142 99//142 97//142
f 90//143 94//143 96//143
f 92//144 96//144 95//144
f 91//389 95//389 93//389
f 79//390 90//390 92//390
f 86//391 92//391 91//391
f 81//392 91//392 89//392
f 79//393 87//393 76//393
f 87//394 83//394 75//394
f 83//395 78//395 73//395
f 74//152 76//152 72//152
f 76//153 75//153 71//153
f 75//154 73//154 69//154
f 66//155 70//155 72//155
f 68//396 72//396 71//396
f 67//157 71//157 69//157
f 62//158 66//158 68//158
f 64//159 68//159 67//159
f 63//397 67//397 65//397
f 62//398 64//398 58//398
f 64//399 63//399 53//399
f 63//400 61//400 49//400
f 46//401 51//401 59//401
f 48//402 59//402 55//402
f 47//403 55//403 50//403
f 46//404 48//404 42//404
f 48//405 47//405 37//405
f 47//406 45//406 33//406
f 23//407 35//407 43//407
f 30//408 43//408 39//408
f 25//409 39//409 34//409
f 18//410 23//410 31//410
f 20//411 31//411 27//411
f 19//412 27//412 22//412
f 18//176 20//176 16//176
f 20//177 19//177 15//177
f 19//413 17//413 13//413
f 14//414 16//414 7//414
f 16//415 15//415 11//415
f 15//416 13//416 3//416
f 302//417 308//417 166//417
f 308//418 304//418 161//418
f 304//419 301//419 157//419
f 158//420 169//420 171//420
f 163//421 171//421 172//421
f 167//422 172//422 170//422
f 169//423 173//423 175//423
f 171//189 175//189 176//189
f 172//190 176//190 174//190
f 177//424 181//424 175//424
f 181//425 186//425 176//425
f 186//426 179//426 174//426
f 189//427 193//427 183//427
f 193//428 198//428 187//428
f 198//429 191//429 179//429
f 190//430 201//430 203//430
f 195//431 203//431 204//431
f 199//432 204//432 202//432
f 205//433 209//433 203//433
f 209//434 214//434 204//434
f 214//435 207//435 202//435
f 206//436 217//436 219//436
f 211//437 219//437 220//437
f 215//438 220//438 218//438
f 221//439 223//439 219//439
f 223//207 224//207 220//207
f 224//208 222//208 218//208
f 225//440 227//440 223//440
f 227//441 228//441 224//441
f 228//211 226//211 222//211
f 229//212 231//212 227//212
f 227//213 231//213 232//213
f 228//214 232//214 230//214
f 229//442 233//442 237//442
f 231//443 237//443 242//443
f 232//444 242//444 235//444
f 245//445 247//445 239//445
f 247//446 248//446 243//446
f 248//447 246//447 235//447
f 249//448 251//448 247//448
f 251//222 252//222 248//222
f 252//223 250//223 246//223
f 253//224 255//224 251//224
f 255//225 256//225 252//225
f 256//226 254//226 250//226
f 253//449 257//449 259//449
f 255//450 259//450 260//450
f 256//229 260//229 258//229
f 261//230 263//230 259//230
f 263//231 264//231 260//231
f 264//232 262//232 258//232
f 265//451 267//451 263//451
f 267//452 268//452 264//452
f 268//453 266//453 262//453
f 269//454 273//454 267//454
f 273//455 278//455 268//455
f 278//456 271//456 266//456
f 270//457 281//457 285//457
f 275//458 285//458 290//458
f 279//459 290//459 283//459
f 293//460 295//460 287//460
f 295//243 296//243 291//243
f 296//461 294//461 283//461
f 297//245 299//245 295//245
f 299//246 300//246 296//246
f 300//247 298//247 294//247
f 297//462 303//462 311//462
f 299//249 311//249 307//249
f 300//463 307//463 302//463
f 158//251 164//251 10//251
f 164//252 160//252 5//252
f 160//253 157//253 1//253
f 178//254 184//254 24//254
f 184//255 180//255 28//255
f 180//256 177//256 22//256
f 190//257 196//257 36//257
f 196//258 192//258 40//258
f 192//259 189//259 34//259
f 206//260 212//260 52//260
f 212//464 208//464 56//464
f 208//465 205//465 50//465
f 234//263 240//263 80//263
f 240//466 236//466 84//466
f 236//265 233//265 78//265
f 270//266 276//266 116//266
f 276//267 272//267 120//267
f 272//467 269//467 114//467
f 282//269 288//269 128//269
f 288//270 284//270 132//270
f 284//271 281//271 126//271
f 301//272 305//272 148//272
f 305//273 310//273 152//273
f 310//274 303//274 146//274
f 1//275 157//275 301//275
f 2//276 147//276 142//276
f 142//276 138//276 127//276
f 115//276 110//276 106//276
f 142//276 127//276 115//276
f 14//276 2//276 142//276
f 35//276 23//276 18//276
f 18//276 14//276 142//276
f 142//276 115//276 106//276
f 106//276 102//276 98//276
f 98//276 94//276 90//276
f 90//276 79//276 74//276
f 98//276 90//276 74//276
f 142//276 106//276 98//276
f 35//276 18//276 142//276
f 51//276 46//276 35//276
f 51//276 35//276 142//276
f 142//276 98//276 74//276
f 142//276 74//276 70//276
f 62//276 51//276 142//276
f 142//276 70//276 66//276
f 13//277 169//277 158//277
f 17//278 173//278 169//278
f 22//279 177//279 173//279
f 34//280 189//280 178//280
f 45//281 201//281 190//281
f 50//282 205//282 201//282
f 61//283 217//283 206//283
f 65//284 221//284 217//284
f 69//285 225//285 221//285
f 73//286 229//286 225//286
f 78//287 233//287 229//287
f 89//288 245//288 234//288
f 93//289 249//289 245//289
f 97//290 253//290 249//290
f 101//291 257//291 253//291
f 105//292 261//292 257//292
f 109//293 265//293 261//293
f 109//294 114//294 269//294
f 126//295 281//295 270//295
f 137//296 293//296 282//296
f 141//297 297//297 293//297
f 146//298 303//298 297//298
f 302//299 159//299 170//299
f 174//299 179//299 191//299
f 302//299 170//299 174//299
f 283//299 294//299 298//299
f 298//299 302//299 174//299
f 174//299 191//299 202//299
f 174//299 202//299 207//299
f 283//299 298//299 174//299
f 262//299 266//299 271//299
f 283//299 174//299 207//299
f 283//299 207//299 218//299
f 258//299 262//299 271//299
f 271//299 283//299 218//299
f 271//299 218//299 222//299
f 254//299 258//299 271//299
f 246//299 250//299 254//299
f 230//299 235//299 246//299
f 271//299 222//299 226//299
f 230//299 246//299 254//299
f 271//299 226//299 230//299
