# Blender 4.5.0
# www.blender.org
mtllib mesh_007.mtl
o mesh_007
v 0.083025 0.000000 0.084505
v 0.082625 0.008138 0.084505
v 0.081430 0.016197 0.084505
v 0.079450 0.024101 0.084505
v 0.076705 0.031772 0.084505
v 0.073222 0.039138 0.084505
v 0.069033 0.046126 0.084505
v 0.064179 0.052671 0.084505
v 0.058708 0.058708 0.084505
v 0.052671 0.064179 0.084505
v 0.046126 0.069033 0.084505
v 0.039138 0.073222 0.084505
v 0.031772 0.076705 0.084505
v 0.024101 0.079450 0.084505
v 0.016197 0.081430 0.084505
v 0.008138 0.082625 0.084505
v 0.000000 0.083025 0.084505
v -0.008138 0.082625 0.084505
v -0.016197 0.081430 0.084505
v -0.024101 0.079450 0.084505
v -0.031772 0.076705 0.084505
v -0.039138 0.073222 0.084505
v -0.046126 0.069033 0.084505
v -0.052671 0.064179 0.084505
v -0.058708 0.058708 0.084505
v -0.064179 0.052671 0.084505
v -0.069033 0.046126 0.084505
v -0.073222 0.039138 0.084505
v -0.076705 0.031772 0.084505
v -0.079450 0.024101 0.084505
v -0.081430 0.016197 0.084505
v -0.082625 0.008138 0.084505
v -0.083025 0.000000 0.084505
v -0.082625 -0.008138 0.084505
v -0.081430 -0.016197 0.084505
v -0.079450 -0.024101 0.084505
v -0.076705 -0.031772 0.084505
v -0.073222 -0.039138 0.084505
v -0.069033 -0.046126 0.084505
v -0.064179 -0.052671 0.084505
v -0.058708 -0.058708 0.084505
v -0.052671 -0.064179 0.084505
v -0.046126 -0.069033 0.084505
v -0.039138 -0.073222 0.084505
v -0.031772 -0.076705 0.084505
v -0.024101 -0.079450 0.084505
v -0.016197 -0.081430 0.084505
v -0.008138 -0.082625 0.084505
v -0.000000 -0.083025 0.084505
v 0.008138 -0.082625 0.084505
v 0.016197 -0.081430 0.084505
v 0.024101 -0.079450 0.084505
v 0.031772 -0.076705 0.084505
v 0.039138 -0.073222 0.084505
v 0.046126 -0.069033 0.084505
v 0.052671 -0.064179 0.084505
v 0.058708 -0.058708 0.084505
v 0.064179 -0.052671 0.084505
v 0.069033 -0.046126 0.084505
v 0.073222 -0.039138 0.084505
v 0.076705 -0.031772 0.084505
v 0.079450 -0.024101 0.084505
v 0.081430 -0.016197 0.084505
v 0.082625 -0.008138 0.084505
v 0.079704 0.000000 0.116475
v 0.079320 0.007812 0.116475
v 0.078173 0.015549 0.116475
v 0.076272 0.023137 0.116475
v 0.073637 0.030501 0.116475
v 0.070293 0.037572 0.116475
v 0.066271 0.044281 0.116475
v 0.061612 0.050564 0.116475
v 0.056359 0.056359 0.116475
v 0.050564 0.061612 0.116475
v 0.044281 0.066271 0.116475
v 0.037572 0.070293 0.116475
v 0.030501 0.073637 0.116475
v 0.023137 0.076272 0.116475
v 0.015549 0.078173 0.116475
v 0.007812 0.079320 0.116475
v 0.000000 0.079704 0.116475
v -0.007812 0.079320 0.116475
v -0.015549 0.078173 0.116475
v -0.023137 0.076272 0.116475
v -0.030501 0.073637 0.116475
v -0.037572 0.070293 0.116475
v -0.044281 0.066271 0.116475
v -0.050564 0.061612 0.116475
v -0.056359 0.056359 0.116475
v -0.061612 0.050564 0.116475
v -0.066271 0.044281 0.116475
v -0.070293 0.037572 0.116475
v -0.073637 0.030501 0.116475
v -0.076272 0.023137 0.116475
v -0.078173 0.015549 0.116475
v -0.079320 0.007812 0.116475
v -0.079704 0.000000 0.116475
v -0.079320 -0.007812 0.116475
v -0.078173 -0.015549 0.116475
v -0.076272 -0.023137 0.116475
v -0.073637 -0.030501 0.116475
v -0.070293 -0.037572 0.116475
v -0.066271 -0.044281 0.116475
v -0.061612 -0.050564 0.116475
v -0.056359 -0.056359 0.116475
v -0.050564 -0.061612 0.116475
v -0.044281 -0.066271 0.116475
v -0.037572 -0.070293 0.116475
v -0.030501 -0.073637 0.116475
v -0.023137 -0.076272 0.116475
v -0.015549 -0.078173 0.116475
v -0.007812 -0.079320 0.116475
v -0.000000 -0.079704 0.116475
v 0.007812 -0.079320 0.116475
v 0.015549 -0.078173 0.116475
v 0.023137 -0.076272 0.116475
v 0.030501 -0.073637 0.116475
v 0.037572 -0.070293 0.116475
v 0.044281 -0.066271 0.116475
v 0.050564 -0.061612 0.116475
v 0.056359 -0.056359 0.116475
v 0.061612 -0.050564 0.116475
v 0.066271 -0.044281 0.116475
v 0.070293 -0.037572 0.116475
v 0.073637 -0.030501 0.116475
v 0.076272 -0.023137 0.116475
v 0.078173 -0.015549 0.116475
v 0.079320 -0.007812 0.116475
v 0.059778 0.000000 0.169295
v 0.059490 0.005859 0.169295
v 0.058629 0.011662 0.169295
v 0.057204 0.017353 0.169295
v 0.055228 0.022876 0.169295
v 0.052719 0.028179 0.169295
v 0.049704 0.033211 0.169295
v 0.046209 0.037923 0.169295
v 0.042269 0.042269 0.169295
v 0.037923 0.046209 0.169295
v 0.033211 0.049704 0.169295
v 0.028179 0.052719 0.169295
v 0.022876 0.055228 0.169295
v 0.017353 0.057204 0.169295
v 0.011662 0.058629 0.169295
v 0.005859 0.059490 0.169295
v 0.000000 0.059778 0.169295
v -0.005859 0.059490 0.169295
v -0.011662 0.058629 0.169295
v -0.017353 0.057204 0.169295
v -0.022876 0.055228 0.169295
v -0.028179 0.052719 0.169295
v -0.033211 0.049704 0.169295
v -0.037923 0.046209 0.169295
v -0.042269 0.042269 0.169295
v -0.046209 0.037923 0.169295
v -0.049704 0.033211 0.169295
v -0.052719 0.028179 0.169295
v -0.055228 0.022876 0.169295
v -0.057204 0.017353 0.169295
v -0.058629 0.011662 0.169295
v -0.059490 0.005859 0.169295
v -0.059778 0.000000 0.169295
v -0.059490 -0.005859 0.169295
v -0.058629 -0.011662 0.169295
v -0.057204 -0.017353 0.169295
v -0.055228 -0.022876 0.169295
v -0.052719 -0.028179 0.169295
v -0.049704 -0.033211 0.169295
v -0.046209 -0.037923 0.169295
v -0.042269 -0.042269 0.169295
v -0.037923 -0.046209 0.169295
v -0.033211 -0.049704 0.169295
v -0.028179 -0.052719 0.169295
v -0.022876 -0.055228 0.169295
v -0.017353 -0.057204 0.169295
v -0.011662 -0.058629 0.169295
v -0.005859 -0.059490 0.169295
v -0.000000 -0.059778 0.169295
v 0.005859 -0.059490 0.169295
v 0.011662 -0.058629 0.169295
v 0.017353 -0.057204 0.169295
v 0.022876 -0.055228 0.169295
v 0.028179 -0.052719 0.169295
v 0.033211 -0.049704 0.169295
v 0.037923 -0.046209 0.169295
v 0.042269 -0.042269 0.169295
v 0.046209 -0.037923 0.169295
v 0.049704 -0.033211 0.169295
v 0.052719 -0.028179 0.169295
v 0.055228 -0.022876 0.169295
v 0.057204 -0.017353 0.169295
v 0.058629 -0.011662 0.169295
v 0.059490 -0.005859 0.169295
v 0.033210 0.000000 0.205435
v 0.033050 0.003255 0.205435
v 0.032572 0.006479 0.205435
v 0.031780 0.009640 0.205435
v 0.030682 0.012709 0.205435
v 0.029289 0.015655 0.205435
v 0.027613 0.018450 0.205435
v 0.025672 0.021068 0.205435
v 0.023483 0.023483 0.205435
v 0.021068 0.025672 0.205435
v 0.018450 0.027613 0.205435
v 0.015655 0.029289 0.205435
v 0.012709 0.030682 0.205435
v 0.009640 0.031780 0.205435
v 0.006479 0.032572 0.205435
v 0.003255 0.033050 0.205435
v 0.000000 0.033210 0.205435
v -0.003255 0.033050 0.205435
v -0.006479 0.032572 0.205435
v -0.009640 0.031780 0.205435
v -0.012709 0.030682 0.205435
v -0.015655 0.029289 0.205435
v -0.018450 0.027613 0.205435
v -0.021068 0.025672 0.205435
v -0.023483 0.023483 0.205435
v -0.025672 0.021068 0.205435
v -0.027613 0.018450 0.205435
v -0.029289 0.015655 0.205435
v -0.030682 0.012709 0.205435
v -0.031780 0.009640 0.205435
v -0.032572 0.006479 0.205435
v -0.033050 0.003255 0.205435
v -0.033210 0.000000 0.205435
v -0.033050 -0.003255 0.205435
v -0.032572 -0.006479 0.205435
v -0.031780 -0.009640 0.205435
v -0.030682 -0.012709 0.205435
v -0.029289 -0.015655 0.205435
v -0.027613 -0.018450 0.205435
v -0.025672 -0.021068 0.205435
v -0.023483 -0.023483 0.205435
v -0.021068 -0.025672 0.205435
v -0.018450 -0.027613 0.205435
v -0.015655 -0.029289 0.205435
v -0.012709 -0.030682 0.205435
v -0.009640 -0.031780 0.205435
v -0.006479 -0.032572 0.205435
v -0.003255 -0.033050 0.205435
v -0.000000 -0.033210 0.205435
v 0.003255 -0.033050 0.205435
v 0.006479 -0.032572 0.205435
v 0.009640 -0.031780 0.205435
v 0.012709 -0.030682 0.205435
v 0.015655 -0.029289 0.205435
v 0.018450 -0.027613 0.205435
v 0.021068 -0.025672 0.205435
v 0.023483 -0.023483 0.205435
v 0.025672 -0.021068 0.205435
v 0.027613 -0.018450 0.205435
v 0.029289 -0.015655 0.205435
v 0.030682 -0.012709 0.205435
v 0.031780 -0.009640 0.205435
v 0.032572 -0.006479 0.205435
v 0.033050 -0.003255 0.205435
v 0.010793 0.000000 0.223505
v 0.010741 0.001058 0.223505
v 0.010586 0.002106 0.223505
v 0.010328 0.003133 0.223505
v 0.009972 0.004130 0.223505
v 0.009519 0.005088 0.223505
v 0.008974 0.005996 0.223505
v 0.008343 0.006847 0.223505
v 0.007632 0.007632 0.223505
v 0.006847 0.008343 0.223505
v 0.005996 0.008974 0.223505
v 0.005088 0.009519 0.223505
v 0.004130 0.009972 0.223505
v 0.003133 0.010328 0.223505
v 0.002106 0.010586 0.223505
v 0.001058 0.010741 0.223505
v 0.000000 0.010793 0.223505
v -0.001058 0.010741 0.223505
v -0.002106 0.010586 0.223505
v -0.003133 0.010328 0.223505
v -0.004130 0.009972 0.223505
v -0.005088 0.009519 0.223505
v -0.005996 0.008974 0.223505
v -0.006847 0.008343 0.223505
v -0.007632 0.007632 0.223505
v -0.008343 0.006847 0.223505
v -0.008974 0.005996 0.223505
v -0.009519 0.005088 0.223505
v -0.009972 0.004130 0.223505
v -0.010328 0.003133 0.223505
v -0.010586 0.002106 0.223505
v -0.010741 0.001058 0.223505
v -0.010793 0.000000 0.223505
v -0.010741 -0.001058 0.223505
v -0.010586 -0.002106 0.223505
v -0.010328 -0.003133 0.223505
v -0.009972 -0.004130 0.223505
v -0.009519 -0.005088 0.223505
v -0.008974 -0.005996 0.223505
v -0.008343 -0.006847 0.223505
v -0.007632 -0.007632 0.223505
v -0.006847 -0.008343 0.223505
v -0.005996 -0.008974 0.223505
v -0.005088 -0.009519 0.223505
v -0.004130 -0.009972 0.223505
v -0.003133 -0.010328 0.223505
v -0.002106 -0.010586 0.223505
v -0.001058 -0.010741 0.223505
v -0.000000 -0.010793 0.223505
v 0.001058 -0.010741 0.223505
v 0.002106 -0.010586 0.223505
v 0.003133 -0.010328 0.223505
v 0.004130 -0.009972 0.223505
v 0.005088 -0.009519 0.223505
v 0.005996 -0.008974 0.223505
v 0.006847 -0.008343 0.223505
v 0.007632 -0.007632 0.223505
v 0.008343 -0.006847 0.223505
v 0.008974 -0.005996 0.223505
v 0.009519 -0.005088 0.223505
v 0.009972 -0.004130 0.223505
v 0.010328 -0.003133 0.223505
v 0.010586 -0.002106 0.223505
v 0.010741 -0.001058 0.223505
v 0.000000 0.000000 0.223505
v 0.000000 0.000000 0.084505
vn 0.9946 -0.0000 0.1033
vn 0.9899 0.0975 0.1033
vn 0.9687 0.0954 0.2292
vn 0.9734 -0.0000 0.2292
vn 0.9755 0.1940 0.1033
vn 0.9547 0.1899 0.2292
vn 0.9518 0.2887 0.1033
vn 0.9315 0.2826 0.2292
vn 0.9189 0.3806 0.1033
vn 0.8993 0.3725 0.2292
vn 0.8772 0.4689 0.1033
vn 0.8585 0.4589 0.2292
vn 0.8270 0.5526 0.1033
vn 0.8093 0.5408 0.2292
vn 0.7689 0.6310 0.1033
vn 0.7524 0.6175 0.2292
vn 0.7033 0.7033 0.1033
vn 0.6883 0.6883 0.2292
vn 0.6310 0.7689 0.1033
vn 0.6175 0.7524 0.2292
vn 0.5526 0.8270 0.1033
vn 0.5408 0.8093 0.2292
vn 0.4689 0.8772 0.1033
vn 0.4589 0.8585 0.2292
vn 0.3806 0.9189 0.1033
vn 0.3725 0.8993 0.2292
vn 0.2887 0.9518 0.1033
vn 0.2826 0.9315 0.2292
vn 0.1940 0.9755 0.1033
vn 0.1899 0.9547 0.2292
vn 0.0975 0.9899 0.1033
vn 0.0954 0.9687 0.2292
vn -0.0000 0.9946 0.1033
vn -0.0000 0.9734 0.2292
vn -0.0975 0.9899 0.1033
vn -0.0954 0.9687 0.2292
vn -0.1940 0.9755 0.1033
vn -0.1899 0.9547 0.2292
vn -0.2887 0.9518 0.1033
vn -0.2826 0.9315 0.2292
vn -0.3806 0.9189 0.1033
vn -0.3725 0.8993 0.2292
vn -0.4689 0.8772 0.1033
vn -0.4589 0.8585 0.2292
vn -0.5526 0.8270 0.1033
vn -0.5408 0.8093 0.2292
vn -0.6310 0.7689 0.1033
vn -0.6175 0.7524 0.2292
vn -0.7033 0.7033 0.1033
vn -0.6883 0.6883 0.2292
vn -0.7689 0.6310 0.1033
vn -0.7524 0.6175 0.2292
vn -0.8270 0.5526 0.1033
vn -0.8093 0.5408 0.2292
vn -0.8772 0.4689 0.1033
vn -0.8585 0.4589 0.2292
vn -0.9189 0.3806 0.1033
vn -0.8993 0.3725 0.2292
vn -0.9518 0.2887 0.1033
vn -0.9315 0.2826 0.2292
vn -0.9755 0.1940 0.1033
vn -0.9547 0.1899 0.2292
vn -0.9899 0.0975 0.1033
vn -0.9687 0.0954 0.2292
vn -0.9946 -0.0000 0.1033
vn -0.9734 -0.0000 0.2292
vn -0.9899 -0.0975 0.1033
vn -0.9687 -0.0954 0.2292
vn -0.9755 -0.1940 0.1033
vn -0.9547 -0.1899 0.2292
vn -0.9518 -0.2887 0.1033
vn -0.9315 -0.2826 0.2292
vn -0.9189 -0.3806 0.1033
vn -0.8993 -0.3725 0.2292
vn -0.8772 -0.4689 0.1033
vn -0.8585 -0.4589 0.2292
vn -0.8270 -0.5526 0.1033
vn -0.8093 -0.5408 0.2292
vn -0.7689 -0.6310 0.1033
vn -0.7524 -0.6175 0.2292
vn -0.7033 -0.7033 0.1033
vn -0.6883 -0.6883 0.2292
vn -0.6310 -0.7689 0.1033
vn -0.6175 -0.7524 0.2292
vn -0.5526 -0.8270 0.1033
vn -0.5408 -0.8093 0.2292
vn -0.4689 -0.8772 0.1033
vn -0.4589 -0.8585 0.2292
vn -0.3806 -0.9189 0.1033
vn -0.3725 -0.8993 0.2292
vn -0.2887 -0.9518 0.1033
vn -0.2826 -0.9315 0.2292
vn -0.1940 -0.9755 0.1033
vn -0.1899 -0.9547 0.2292
vn -0.0975 -0.9899 0.1033
vn -0.0954 -0.9687 0.2292
vn -0.0000 -0.9946 0.1033
vn -0.0000 -0.9734 0.2292
vn 0.0975 -0.9899 0.1033
vn 0.0954 -0.9687 0.2292
vn 0.1940 -0.9755 0.1033
vn 0.1899 -0.9547 0.2292
vn 0.2887 -0.9518 0.1033
vn 0.2826 -0.9315 0.2292
vn 0.3806 -0.9189 0.1033
vn 0.3725 -0.8993 0.2292
vn 0.4689 -0.8772 0.1033
vn 0.4589 -0.8585 0.2292
vn 0.5526 -0.8270 0.1033
vn 0.5408 -0.8093 0.2292
vn 0.6310 -0.7689 0.1033
vn 0.6175 -0.7524 0.2292
vn 0.7033 -0.7033 0.1033
vn 0.6883 -0.6883 0.2292
vn 0.7689 -0.6310 0.1033
vn 0.7524 -0.6175 0.2292
vn 0.8270 -0.5526 0.1033
vn 0.8093 -0.5408 0.2292
vn 0.8772 -0.4689 0.1033
vn 0.8585 -0.4589 0.2292
vn 0.9189 -0.3806 0.1033
vn 0.8993 -0.3725 0.2292
vn 0.9518 -0.2887 0.1033
vn 0.9315 -0.2826 0.2292
vn 0.9755 -0.1940 0.1033
vn 0.9547 -0.1899 0.2292
vn 0.9899 -0.0975 0.1033
vn 0.9687 -0.0954 0.2292
vn 0.8756 0.0862 0.4753
vn 0.8798 -0.0000 0.4753
vn 0.8629 0.1716 0.4753
vn 0.8419 0.2554 0.4753
vn 0.8128 0.3367 0.4753
vn 0.7759 0.4147 0.4753
vn 0.7315 0.4888 0.4753
vn 0.6801 0.5582 0.4753
vn 0.6221 0.6221 0.4753
vn 0.5582 0.6801 0.4753
vn 0.4888 0.7315 0.4753
vn 0.4147 0.7759 0.4753
vn 0.3367 0.8128 0.4753
vn 0.2554 0.8419 0.4753
vn 0.1716 0.8629 0.4753
vn 0.0862 0.8756 0.4753
vn -0.0000 0.8798 0.4753
vn -0.0862 0.8756 0.4753
vn -0.1716 0.8629 0.4753
vn -0.2554 0.8419 0.4753
vn -0.3367 0.8128 0.4753
vn -0.4147 0.7759 0.4753
vn -0.4888 0.7315 0.4753
vn -0.5582 0.6801 0.4753
vn -0.6221 0.6221 0.4753
vn -0.6801 0.5582 0.4753
vn -0.7315 0.4888 0.4753
vn -0.7759 0.4147 0.4753
vn -0.8128 0.3367 0.4753
vn -0.8419 0.2554 0.4753
vn -0.8629 0.1716 0.4753
vn -0.8756 0.0862 0.4753
vn -0.8798 -0.0000 0.4753
vn -0.8756 -0.0862 0.4753
vn -0.8629 -0.1716 0.4753
vn -0.8419 -0.2554 0.4753
vn -0.8128 -0.3367 0.4753
vn -0.7759 -0.4147 0.4753
vn -0.7315 -0.4888 0.4753
vn -0.6801 -0.5582 0.4753
vn -0.6221 -0.6221 0.4753
vn -0.5582 -0.6801 0.4753
vn -0.4888 -0.7315 0.4753
vn -0.4147 -0.7759 0.4753
vn -0.3367 -0.8128 0.4753
vn -0.2554 -0.8419 0.4753
vn -0.1716 -0.8629 0.4753
vn -0.0862 -0.8756 0.4753
vn -0.0000 -0.8798 0.4753
vn 0.0862 -0.8756 0.4753
vn 0.1716 -0.8629 0.4753
vn 0.2554 -0.8419 0.4753
vn 0.3367 -0.8128 0.4753
vn 0.4147 -0.7759 0.4753
vn 0.4888 -0.7315 0.4753
vn 0.5582 -0.6801 0.4753
vn 0.6221 -0.6221 0.4753
vn 0.6801 -0.5582 0.4753
vn 0.7315 -0.4888 0.4753
vn 0.7759 -0.4147 0.4753
vn 0.8128 -0.3367 0.4753
vn 0.8419 -0.2554 0.4753
vn 0.8629 -0.1716 0.4753
vn 0.8756 -0.0862 0.4753
vn 0.7211 0.0710 0.6892
vn 0.7246 -0.0000 0.6892
vn 0.7107 0.1414 0.6892
vn 0.6934 0.2103 0.6892
vn 0.6694 0.2773 0.6892
vn 0.6390 0.3416 0.6892
vn 0.6025 0.4026 0.6892
vn 0.5601 0.4597 0.6892
vn 0.5124 0.5124 0.6892
vn 0.4597 0.5601 0.6892
vn 0.4026 0.6025 0.6892
vn 0.3416 0.6390 0.6892
vn 0.2773 0.6694 0.6892
vn 0.2103 0.6934 0.6892
vn 0.1414 0.7107 0.6892
vn 0.0710 0.7211 0.6892
vn -0.0000 0.7246 0.6892
vn -0.0710 0.7211 0.6892
vn -0.1414 0.7107 0.6892
vn -0.2103 0.6934 0.6892
vn -0.2773 0.6694 0.6892
vn -0.3416 0.6390 0.6892
vn -0.4026 0.6025 0.6892
vn -0.4597 0.5601 0.6892
vn -0.5124 0.5124 0.6892
vn -0.5601 0.4597 0.6892
vn -0.6025 0.4026 0.6892
vn -0.6390 0.3416 0.6892
vn -0.6694 0.2773 0.6892
vn -0.6934 0.2103 0.6892
vn -0.7107 0.1414 0.6892
vn -0.7211 0.0710 0.6892
vn -0.7246 -0.0000 0.6892
vn -0.7211 -0.0710 0.6892
vn -0.7107 -0.1414 0.6892
vn -0.6934 -0.2103 0.6892
vn -0.6694 -0.2773 0.6892
vn -0.6390 -0.3416 0.6892
vn -0.6025 -0.4026 0.6892
vn -0.5601 -0.4597 0.6892
vn -0.5124 -0.5124 0.6892
vn -0.4597 -0.5601 0.6892
vn -0.4026 -0.6025 0.6892
vn -0.3416 -0.6390 0.6892
vn -0.2773 -0.6694 0.6892
vn -0.2103 -0.6934 0.6892
vn -0.1414 -0.7107 0.6892
vn -0.0710 -0.7211 0.6892
vn -0.0000 -0.7246 0.6892
vn 0.0710 -0.7211 0.6892
vn 0.1414 -0.7107 0.6892
vn 0.2103 -0.6934 0.6892
vn 0.2773 -0.6694 0.6892
vn 0.3416 -0.6390 0.6892
vn 0.4026 -0.6025 0.6892
vn 0.4597 -0.5601 0.6892
vn 0.5124 -0.5124 0.6892
vn 0.5601 -0.4597 0.6892
vn 0.6025 -0.4026 0.6892
vn 0.6390 -0.3416 0.6892
vn 0.6694 -0.2773 0.6892
vn 0.6934 -0.2103 0.6892
vn 0.7107 -0.1414 0.6892
vn 0.7211 -0.0710 0.6892
vn 0.6246 0.0615 0.7785
vn 0.6276 -0.0000 0.7785
vn 0.6155 0.1224 0.7785
vn 0.6006 0.1822 0.7786
vn 0.5798 0.2402 0.7785
vn 0.5535 0.2958 0.7786
vn 0.5218 0.3487 0.7786
vn 0.4851 0.3981 0.7785
vn 0.4438 0.4438 0.7785
vn 0.3981 0.4851 0.7785
vn 0.3487 0.5218 0.7785
vn 0.2958 0.5535 0.7786
vn 0.2402 0.5798 0.7786
vn 0.1822 0.6006 0.7786
vn 0.1224 0.6155 0.7785
vn 0.0615 0.6246 0.7785
vn -0.0000 0.6276 0.7785
vn -0.0615 0.6246 0.7785
vn -0.1224 0.6155 0.7786
vn -0.1822 0.6006 0.7785
vn -0.2402 0.5798 0.7785
vn -0.2958 0.5535 0.7785
vn -0.3487 0.5218 0.7785
vn -0.3981 0.4851 0.7785
vn -0.4438 0.4438 0.7785
vn -0.4851 0.3981 0.7785
vn -0.5218 0.3487 0.7785
vn -0.5535 0.2958 0.7785
vn -0.5798 0.2402 0.7785
vn -0.6006 0.1822 0.7785
vn -0.6155 0.1224 0.7785
vn -0.6246 0.0615 0.7786
vn -0.6276 -0.0000 0.7785
vn -0.6246 -0.0615 0.7785
vn -0.6155 -0.1224 0.7785
vn -0.6006 -0.1822 0.7786
vn -0.5798 -0.2402 0.7785
vn -0.5535 -0.2958 0.7786
vn -0.5218 -0.3487 0.7786
vn -0.4851 -0.3981 0.7786
vn -0.4438 -0.4438 0.7786
vn -0.3981 -0.4851 0.7785
vn -0.3487 -0.5218 0.7785
vn -0.2958 -0.5535 0.7785
vn -0.2402 -0.5798 0.7785
vn -0.1822 -0.6006 0.7785
vn -0.1224 -0.6155 0.7786
vn -0.0615 -0.6246 0.7786
vn -0.0000 -0.6276 0.7785
vn 0.0615 -0.6246 0.7785
vn 0.1224 -0.6155 0.7785
vn 0.1822 -0.6006 0.7785
vn 0.2402 -0.5798 0.7785
vn 0.2958 -0.5535 0.7786
vn 0.3487 -0.5218 0.7785
vn 0.3981 -0.4851 0.7785
vn 0.4438 -0.4438 0.7786
vn 0.4851 -0.3981 0.7785
vn 0.5218 -0.3487 0.7785
vn 0.5535 -0.2958 0.7785
vn 0.5798 -0.2402 0.7785
vn 0.6006 -0.1822 0.7785
vn 0.6155 -0.1224 0.7785
vn 0.6246 -0.0615 0.7785
vn -0.0000 -0.0000 1.0000
vn -0.0000 -0.0000 -1.0000
s 1
usemtl Sprayer_light_gray_plastic
f 1//1 2//2 66//3
f 1//1 66//3 65//4
f 2//2 3//5 67//6
f 2//2 67//6 66//3
f 3//5 4//7 68//8
f 3//5 68//8 67//6
f 4//7 5//9 69//10
f 4//7 69//10 68//8
f 5//9 6//11 70//12
f 5//9 70//12 69//10
f 6//11 7//13 71//14
f 6//11 71//14 70//12
f 7//13 8//15 72//16
f 7//13 72//16 71//14
f 8//15 9//17 73//18
f 8//15 73//18 72//16
f 9//17 10//19 74//20
f 9//17 74//20 73//18
f 10//19 11//21 75//22
f 10//19 75//22 74//20
f 11//21 12//23 76//24
f 11//21 76//24 75//22
f 12//23 13//25 77//26
f 12//23 77//26 76//24
f 13//25 14//27 78//28
f 13//25 78//28 77//26
f 14//27 15//29 79//30
f 14//27 79//30 78//28
f 15//29 16//31 80//32
f 15//29 80//32 79//30
f 16//31 17//33 81//34
f 16//31 81//34 80//32
f 17//33 18//35 82//36
f 17//33 82//36 81//34
f 18//35 19//37 83//38
f 18//35 83//38 82//36
f 19//37 20//39 84//40
f 19//37 84//40 83//38
f 20//39 21//41 85//42
f 20//39 85//42 84//40
f 21//41 22//43 86//44
f 21//41 86//44 85//42
f 22//43 23//45 87//46
f 22//43 87//46 86//44
f 23//45 24//47 88//48
f 23//45 88//48 87//46
f 24//47 25//49 89//50
f 24//47 89//50 88//48
f 25//49 26//51 90//52
f 25//49 90//52 89//50
f 26//51 27//53 91//54
f 26//51 91//54 90//52
f 27//53 28//55 92//56
f 27//53 92//56 91//54
f 28//55 29//57 93//58
f 28//55 93//58 92//56
f 29//57 30//59 94//60
f 29//57 94//60 93//58
f 30//59 31//61 95//62
f 30//59 95//62 94//60
f 31//61 32//63 96//64
f 31//61 96//64 95//62
f 32//63 33//65 97//66
f 32//63 97//66 96//64
f 33//65 34//67 98//68
f 33//65 98//68 97//66
f 34//67 35//69 99//70
f 34//67 99//70 98//68
f 35//69 36//71 100//72
f 35//69 100//72 99//70
f 36//71 37//73 101//74
f 36//71 101//74 100//72
f 37//73 38//75 102//76
f 37//73 102//76 101//74
f 38//75 39//77 103//78
f 38//75 103//78 102//76
f 39//77 40//79 104//80
f 39//77 104//80 103//78
f 40//79 41//81 105//82
f 40//79 105//82 104//80
f 41//81 42//83 106//84
f 41//81 106//84 105//82
f 42//83 43//85 107//86
f 42//83 107//86 106//84
f 43//85 44//87 108//88
f 43//85 108//88 107//86
f 44//87 45//89 109//90
f 44//87 109//90 108//88
f 45//89 46//91 110//92
f 45//89 110//92 109//90
f 46//91 47//93 111//94
f 46//91 111//94 110//92
f 47//93 48//95 112//96
f 47//93 112//96 111//94
f 48//95 49//97 113//98
f 48//95 113//98 112//96
f 49//97 50//99 114//100
f 49//97 114//100 113//98
f 50//99 51//101 115//102
f 50//99 115//102 114//100
f 51//101 52//103 116//104
f 51//101 116//104 115//102
f 52//103 53//105 117//106
f 52//103 117//106 116//104
f 53//105 54//107 118//108
f 53//105 118//108 117//106
f 54//107 55//109 119//110
f 54//107 119//110 118//108
f 55//109 56//111 120//112
f 55//109 120//112 119//110
f 56//111 57//113 121//114
f 56//111 121//114 120//112
f 57//113 58//115 122//116
f 57//113 122//116 121//114
f 58//115 59//117 123//118
f 58//115 123//118 122//116
f 59//117 60//119 124//120
f 59//117 124//120 123//118
f 60//119 61//121 125//122
f 60//119 125//122 124//120
f 61//121 62//123 126//124
f 61//121 126//124 125//122
f 62//123 63//125 127//126
f 62//123 127//126 126//124
f 63//125 64//127 128//128
f 63//125 128//128 127//126
f 64//127 1//1 65//4
f 64//127 65//4 128//128
f 65//4 66//3 130//129
f 65//4 130//129 129//130
f 66//3 67//6 131//131
f 66//3 131//131 130//129
f 67//6 68//8 132//132
f 67//6 132//132 131//131
f 68//8 69//10 133//133
f 68//8 133//133 132//132
f 69//10 70//12 134//134
f 69//10 134//134 133//133
f 70//12 71//14 135//135
f 70//12 135//135 134//134
f 71//14 72//16 136//136
f 71//14 136//136 135//135
f 72//16 73//18 137//137
f 72//16 137//137 136//136
f 73//18 74//20 138//138
f 73//18 138//138 137//137
f 74//20 75//22 139//139
f 74//20 139//139 138//138
f 75//22 76//24 140//140
f 75//22 140//140 139//139
f 76//24 77//26 141//141
f 76//24 141//141 140//140
f 77//26 78//28 142//142
f 77//26 142//142 141//141
f 78//28 79//30 143//143
f 78//28 143//143 142//142
f 79//30 80//32 144//144
f 79//30 144//144 143//143
f 80//32 81//34 145//145
f 80//32 145//145 144//144
f 81//34 82//36 146//146
f 81//34 146//146 145//145
f 82//36 83//38 147//147
f 82//36 147//147 146//146
f 83//38 84//40 148//148
f 83//38 148//148 147//147
f 84//40 85//42 149//149
f 84//40 149//149 148//148
f 85//42 86//44 150//150
f 85//42 150//150 149//149
f 86//44 87//46 151//151
f 86//44 151//151 150//150
f 87//46 88//48 152//152
f 87//46 152//152 151//151
f 88//48 89//50 153//153
f 88//48 153//153 152//152
f 89//50 90//52 154//154
f 89//50 154//154 153//153
f 90//52 91//54 155//155
f 90//52 155//155 154//154
f 91//54 92//56 156//156
f 91//54 156//156 155//155
f 92//56 93//58 157//157
f 92//56 157//157 156//156
f 93//58 94//60 158//158
f 93//58 158//158 157//157
f 94//60 95//62 159//159
f 94//60 159//159 158//158
f 95//62 96//64 160//160
f 95//62 160//160 159//159
f 96//64 97//66 161//161
f 96//64 161//161 160//160
f 97//66 98//68 162//162
f 97//66 162//162 161//161
f 98//68 99//70 163//163
f 98//68 163//163 162//162
f 99//70 100//72 164//164
f 99//70 164//164 163//163
f 100//72 101//74 165//165
f 100//72 165//165 164//164
f 101//74 102//76 166//166
f 101//74 166//166 165//165
f 102//76 103//78 167//167
f 102//76 167//167 166//166
f 103//78 104//80 168//168
f 103//78 168//168 167//167
f 104//80 105//82 169//169
f 104//80 169//169 168//168
f 105//82 106//84 170//170
f 105//82 170//170 169//169
f 106//84 107//86 171//171
f 106//84 171//171 170//170
f 107//86 108//88 172//172
f 107//86 172//172 171//171
f 108//88 109//90 173//173
f 108//88 173//173 172//172
f 109//90 110//92 174//174
f 109//90 174//174 173//173
f 110//92 111//94 175//175
f 110//92 175//175 174//174
f 111//94 112//96 176//176
f 111//94 176//176 175//175
f 112//96 113//98 177//177
f 112//96 177//177 176//176
f 113//98 114//100 178//178
f 113//98 178//178 177//177
f 114//100 115//102 179//179
f 114//100 179//179 178//178
f 115//102 116//104 180//180
f 115//102 180//180 179//179
f 116//104 117//106 181//181
f 116//104 181//181 180//180
f 117//106 118//108 182//182
f 117//106 182//182 181//181
f 118//108 119//110 183//183
f 118//108 183//183 182//182
f 119//110 120//112 184//184
f 119//110 184//184 183//183
f 120//112 121//114 185//185
f 120//112 185//185 184//184
f 121//114 122//116 186//186
f 121//114 186//186 185//185
f 122//116 123//118 187//187
f 122//116 187//187 186//186
f 123//118 124//120 188//188
f 123//118 188//188 187//187
f 124//120 125//122 189//189
f 124//120 189//189 188//188
f 125//122 126//124 190//190
f 125//122 190//190 189//189
f 126//124 127//126 191//191
f 126//124 191//191 190//190
f 127//126 128//128 192//192
f 127//126 192//192 191//191
f 128//128 65//4 129//130
f 128//128 129//130 192//192
f 129//130 130//129 194//193
f 129//130 194//193 193//194
f 130//129 131//131 195//195
f 130//129 195//195 194//193
f 131//131 132//132 196//196
f 131//131 196//196 195//195
f 132//132 133//133 197//197
f 132//132 197//197 196//196
f 133//133 134//134 198//198
f 133//133 198//198 197//197
f 134//134 135//135 199//199
f 134//134 199//199 198//198
f 135//135 136//136 200//200
f 135//135 200//200 199//199
f 136//136 137//137 201//201
f 136//136 201//201 200//200
f 137//137 138//138 202//202
f 137//137 202//202 201//201
f 138//138 139//139 203//203
f 138//138 203//203 202//202
f 139//139 140//140 204//204
f 139//139 204//204 203//203
f 140//140 141//141 205//205
f 140//140 205//205 204//204
f 141//141 142//142 206//206
f 141//141 206//206 205//205
f 142//142 143//143 207//207
f 142//142 207//207 206//206
f 143//143 144//144 208//208
f 143//143 208//208 207//207
f 144//144 145//145 209//209
f 144//144 209//209 208//208
f 145//145 146//146 210//210
f 145//145 210//210 209//209
f 146//146 147//147 211//211
f 146//146 211//211 210//210
f 147//147 148//148 212//212
f 147//147 212//212 211//211
f 148//148 149//149 213//213
f 148//148 213//213 212//212
f 149//149 150//150 214//214
f 149//149 214//214 213//213
f 150//150 151//151 215//215
f 150//150 215//215 214//214
f 151//151 152//152 216//216
f 151//151 216//216 215//215
f 152//152 153//153 217//217
f 152//152 217//217 216//216
f 153//153 154//154 218//218
f 153//153 218//218 217//217
f 154//154 155//155 219//219
f 154//154 219//219 218//218
f 155//155 156//156 220//220
f 155//155 220//220 219//219
f 156//156 157//157 221//221
f 156//156 221//221 220//220
f 157//157 158//158 222//222
f 157//157 222//222 221//221
f 158//158 159//159 223//223
f 158//158 223//223 222//222
f 159//159 160//160 224//224
f 159//159 224//224 223//223
f 160//160 161//161 225//225
f 160//160 225//225 224//224
f 161//161 162//162 226//226
f 161//161 226//226 225//225
f 162//162 163//163 227//227
f 162//162 227//227 226//226
f 163//163 164//164 228//228
f 163//163 228//228 227//227
f 164//164 165//165 229//229
f 164//164 229//229 228//228
f 165//165 166//166 230//230
f 165//165 230//230 229//229
f 166//166 167//167 231//231
f 166//166 231//231 230//230
f 167//167 168//168 232//232
f 167//167 232//232 231//231
f 168//168 169//169 233//233
f 168//168 233//233 232//232
f 169//169 170//170 234//234
f 169//169 234//234 233//233
f 170//170 171//171 235//235
f 170//170 235//235 234//234
f 171//171 172//172 236//236
f 171//171 236//236 235//235
f 172//172 173//173 237//237
f 172//172 237//237 236//236
f 173//173 174//174 238//238
f 173//173 238//238 237//237
f 174//174 175//175 239//239
f 174//174 239//239 238//238
f 175//175 176//176 240//240
f 175//175 240//240 239//239
f 176//176 177//177 241//241
f 176//176 241//241 240//240
f 177//177 178//178 242//242
f 177//177 242//242 241//241
f 178//178 179//179 243//243
f 178//178 243//243 242//242
f 179//179 180//180 244//244
f 179//179 244//244 243//243
f 180//180 181//181 245//245
f 180//180 245//245 244//244
f 181//181 182//182 246//246
f 181//181 246//246 245//245
f 182//182 183//183 247//247
f 182//182 247//247 246//246
f 183//183 184//184 248//248
f 183//183 248//248 247//247
f 184//184 185//185 249//249
f 184//184 249//249 248//248
f 185//185 186//186 250//250
f 185//185 250//250 249//249
f 186//186 187//187 251//251
f 186//186 251//251 250//250
f 187//187 188//188 252//252
f 187//187 252//252 251//251
f 188//188 189//189 253//253
f 188//188 253//253 252//252
f 189//189 190//190 254//254
f 189//189 254//254 253//253
f 190//190 191//191 255//255
f 190//190 255//255 254//254
f 191//191 192//192 256//256
f 191//191 256//256 255//255
f 192//192 129//130 193//194
f 192//192 193//194 256//256
f 193//194 194//193 258//257
f 193//194 258//257 257//258
f 194//193 195//195 259//259
f 194//193 259//259 258//257
f 195//195 196//196 260//260
f 195//195 260//260 259//259
f 196//196 197//197 261//261
f 196//196 261//261 260//260
f 197//197 198//198 262//262
f 197//197 262//262 261//261
f 198//198 199//199 263//263
f 198//198 263//263 262//262
f 199//199 200//200 264//264
f 199//199 264//264 263//263
f 200//200 201//201 265//265
f 200//200 265//265 264//264
f 201//201 202//202 266//266
f 201//201 266//266 265//265
f 202//202 203//203 267//267
f 202//202 267//267 266//266
f 203//203 204//204 268//268
f 203//203 268//268 267//267
f 204//204 205//205 269//269
f 204//204 269//269 268//268
f 205//205 206//206 270//270
f 205//205 270//270 269//269
f 206//206 207//207 271//271
f 206//206 271//271 270//270
f 207//207 208//208 272//272
f 207//207 272//272 271//271
f 208//208 209//209 273//273
f 208//208 273//273 272//272
f 209//209 210//210 274//274
f 209//209 274//274 273//273
f 210//210 211//211 275//275
f 210//210 275//275 274//274
f 211//211 212//212 276//276
f 211//211 276//276 275//275
f 212//212 213//213 277//277
f 212//212 277//277 276//276
f 213//213 214//214 278//278
f 213//213 278//278 277//277
f 214//214 215//215 279//279
f 214//214 279//279 278//278
f 215//215 216//216 280//280
f 215//215 280//280 279//279
f 216//216 217//217 281//281
f 216//216 281//281 280//280
f 217//217 218//218 282//282
f 217//217 282//282 281//281
f 218//218 219//219 283//283
f 218//218 283//283 282//282
f 219//219 220//220 284//284
f 219//219 284//284 283//283
f 220//220 221//221 285//285
f 220//220 285//285 284//284
f 221//221 222//222 286//286
f 221//221 286//286 285//285
f 222//222 223//223 287//287
f 222//222 287//287 286//286
f 223//223 224//224 288//288
f 223//223 288//288 287//287
f 224//224 225//225 289//289
f 224//224 289//289 288//288
f 225//225 226//226 290//290
f 225//225 290//290 289//289
f 226//226 227//227 291//291
f 226//226 291//291 290//290
f 227//227 228//228 292//292
f 227//227 292//292 291//291
f 228//228 229//229 293//293
f 228//228 293//293 292//292
f 229//229 230//230 294//294
f 229//229 294//294 293//293
f 230//230 231//231 295//295
f 230//230 295//295 294//294
f 231//231 232//232 296//296
f 231//231 296//296 295//295
f 232//232 233//233 297//297
f 232//232 297//297 296//296
f 233//233 234//234 298//298
f 233//233 298//298 297//297
f 234//234 235//235 299//299
f 234//234 299//299 298//298
f 235//235 236//236 300//300
f 235//235 300//300 299//299
f 236//236 237//237 301//301
f 236//236 301//301 300//300
f 237//237 238//238 302//302
f 237//237 302//302 301//301
f 238//238 239//239 303//303
f 238//238 303//303 302//302
f 239//239 240//240 304//304
f 239//239 304//304 303//303
f 240//240 241//241 305//305
f 240//240 305//305 304//304
f 241//241 242//242 306//306
f 241//241 306//306 305//305
f 242//242 243//243 307//307
f 242//242 307//307 306//306
f 243//243 244//244 308//308
f 243//243 308//308 307//307
f 244//244 245//245 309//309
f 244//244 309//309 308//308
f 245//245 246//246 310//310
f 245//245 310//310 309//309
f 246//246 247//247 311//311
f 246//246 311//311 310//310
f 247//247 248//248 312//312
f 247//247 312//312 311//311
f 248//248 249//249 313//313
f 248//248 313//313 312//312
f 249//249 250//250 314//314
f 249//249 314//314 313//313
f 250//250 251//251 315//315
f 250//250 315//315 314//314
f 251//251 252//252 316//316
f 251//251 316//316 315//315
f 252//252 253//253 317//317
f 252//252 317//317 316//316
f 253//253 254//254 318//318
f 253//253 318//318 317//317
f 254//254 255//255 319//319
f 254//254 319//319 318//318
f 255//255 256//256 320//320
f 255//255 320//320 319//319
f 256//256 193//194 257//258
f 256//256 257//258 320//320
s 0
f 257//321 258//321 321//321
f 322//322 2//322 1//322
f 258//321 259//321 321//321
f 322//322 3//322 2//322
f 259//321 260//321 321//321
f 322//322 4//322 3//322
f 260//321 261//321 321//321
f 322//322 5//322 4//322
f 261//321 262//321 321//321
f 322//322 6//322 5//322
f 262//321 263//321 321//321
f 322//322 7//322 6//322
f 263//321 264//321 321//321
f 322//322 8//322 7//322
f 264//321 265//321 321//321
f 322//322 9//322 8//322
f 265//321 266//321 321//321
f 322//322 10//322 9//322
f 266//321 267//321 321//321
f 322//322 11//322 10//322
f 267//321 268//321 321//321
f 322//322 12//322 11//322
f 268//321 269//321 321//321
f 322//322 13//322 12//322
f 269//321 270//321 321//321
f 322//322 14//322 13//322
f 270//321 271//321 321//321
f 322//322 15//322 14//322
f 271//321 272//321 321//321
f 322//322 16//322 15//322
f 272//321 273//321 321//321
f 322//322 17//322 16//322
f 273//321 274//321 321//321
f 322//322 18//322 17//322
f 274//321 275//321 321//321
f 322//322 19//322 18//322
f 275//321 276//321 321//321
f 322//322 20//322 19//322
f 276//321 277//321 321//321
f 322//322 21//322 20//322
f 277//321 278//321 321//321
f 322//322 22//322 21//322
f 278//321 279//321 321//321
f 322//322 23//322 22//322
f 279//321 280//321 321//321
f 322//322 24//322 23//322
f 280//321 281//321 321//321
f 322//322 25//322 24//322
f 281//321 282//321 321//321
f 322//322 26//322 25//322
f 282//321 283//321 321//321
f 322//322 27//322 26//322
f 283//321 284//321 321//321
f 322//322 28//322 27//322
f 284//321 285//321 321//321
f 322//322 29//322 28//322
f 285//321 286//321 321//321
f 322//322 30//322 29//322
f 286//321 287//321 321//321
f 322//322 31//322 30//322
f 287//321 288//321 321//321
f 322//322 32//322 31//322
f 288//321 289//321 321//321
f 322//322 33//322 32//322
f 289//321 290//321 321//321
f 322//322 34//322 33//322
f 290//321 291//321 321//321
f 322//322 35//322 34//322
f 291//321 292//321 321//321
f 322//322 36//322 35//322
f 292//321 293//321 321//321
f 322//322 37//322 36//322
f 293//321 294//321 321//321
f 322//322 38//322 37//322
f 294//321 295//321 321//321
f 322//322 39//322 38//322
f 295//321 296//321 321//321
f 322//322 40//322 39//322
f 296//321 297//321 321//321
f 322//322 41//322 40//322
f 297//321 298//321 321//321
f 322//322 42//322 41//322
f 298//321 299//321 321//321
f 322//322 43//322 42//322
f 299//321 300//321 321//321
f 322//322 44//322 43//322
f 300//321 301//321 321//321
f 322//322 45//322 44//322
f 301//321 302//321 321//321
f 322//322 46//322 45//322
f 302//321 303//321 321//321
f 322//322 47//322 46//322
f 303//321 304//321 321//321
f 322//322 48//322 47//322
f 304//321 305//321 321//321
f 322//322 49//322 48//322
f 305//321 306//321 321//321
f 322//322 50//322 49//322
f 306//321 307//321 321//321
f 322//322 51//322 50//322
f 307//321 308//321 321//321
f 322//322 52//322 51//322
f 308//321 309//321 321//321
f 322//322 53//322 52//322
f 309//321 310//321 321//321
f 322//322 54//322 53//322
f 310//321 311//321 321//321
f 322//322 55//322 54//322
f 311//321 312//321 321//321
f 322//322 56//322 55//322
f 312//321 313//321 321//321
f 322//322 57//322 56//322
f 313//321 314//321 321//321
f 322//322 58//322 57//322
f 314//321 315//321 321//321
f 322//322 59//322 58//322
f 315//321 316//321 321//321
f 322//322 60//322 59//322
f 316//321 317//321 321//321
f 322//322 61//322 60//322
f 317//321 318//321 321//321
f 322//322 62//322 61//322
f 318//321 319//321 321//321
f 322//322 63//322 62//322
f 319//321 320//321 321//321
f 322//322 64//322 63//322
f 320//321 257//321 321//321
f 322//322 1//322 64//322
