# Blender 4.5.0
# www.blender.org
mtllib mesh_010.mtl
o mesh_010
v -0.020715 0.000000 0.000000
v -0.020460 0.002553 -0.001996
v -0.019701 0.005043 -0.003943
v -0.018457 0.007409 -0.005792
v -0.016759 0.009592 -0.007500
v -0.014648 0.011540 -0.009022
v -0.012176 0.013203 -0.010322
v -0.009405 0.014541 -0.011368
v -0.006401 0.015521 -0.012135
v -0.003241 0.016119 -0.012602
v -0.000000 0.016320 -0.012759
v 0.003241 0.016119 -0.012602
v 0.006401 0.015521 -0.012135
v 0.009405 0.014541 -0.011368
v 0.012176 0.013203 -0.010322
v 0.014648 0.011540 -0.009022
v 0.016759 0.009592 -0.007500
v 0.018457 0.007409 -0.005792
v 0.019701 0.005043 -0.003943
v 0.020460 0.002553 -0.001996
v 0.020715 0.000000 0.000000
v 0.020460 -0.002553 0.001996
v 0.019701 -0.005043 0.003943
v 0.018457 -0.007409 0.005792
v 0.016759 -0.009592 0.007500
v 0.014648 -0.011540 0.009022
v 0.012176 -0.013203 0.010322
v 0.009405 -0.014541 0.011368
v 0.006401 -0.015521 0.012134
v 0.003241 -0.016119 0.012602
v 0.000000 -0.016320 0.012759
v -0.003241 -0.016119 0.012602
v -0.006401 -0.015521 0.012134
v -0.009405 -0.014541 0.011368
v -0.012176 -0.013203 0.010322
v -0.014648 -0.011540 0.009022
v -0.016759 -0.009592 0.007500
v -0.018457 -0.007409 0.005792
v -0.019701 -0.005043 0.003943
v -0.020460 -0.002553 0.001996
v -0.017194 -0.043000 -0.055000
v -0.016982 -0.040881 -0.056657
v -0.016352 -0.038814 -0.058272
v -0.015320 -0.036851 -0.059808
v -0.013910 -0.035038 -0.061225
v -0.012158 -0.033422 -0.062488
v -0.010106 -0.032042 -0.063567
v -0.007806 -0.030931 -0.064436
v -0.005313 -0.030118 -0.065072
v -0.002690 -0.029621 -0.065460
v -0.000000 -0.029455 -0.065590
v 0.002690 -0.029621 -0.065460
v 0.005313 -0.030118 -0.065072
v 0.007806 -0.030931 -0.064436
v 0.010106 -0.032042 -0.063567
v 0.012158 -0.033422 -0.062488
v 0.013910 -0.035038 -0.061225
v 0.015320 -0.036851 -0.059808
v 0.016352 -0.038814 -0.058272
v 0.016982 -0.040881 -0.056657
v 0.017194 -0.043000 -0.055000
v 0.016982 -0.045119 -0.053343
v 0.016352 -0.047186 -0.051728
v 0.015320 -0.049149 -0.050192
v 0.013910 -0.050962 -0.048775
v 0.012158 -0.052578 -0.047512
v 0.010106 -0.053958 -0.046433
v 0.007806 -0.055069 -0.045564
v 0.005313 -0.055882 -0.044928
v 0.002690 -0.056379 -0.044540
v 0.000000 -0.056545 -0.044410
v -0.002690 -0.056379 -0.044540
v -0.005313 -0.055882 -0.044928
v -0.007806 -0.055069 -0.045564
v -0.010106 -0.053958 -0.046433
v -0.012158 -0.052578 -0.047512
v -0.013910 -0.050962 -0.048775
v -0.015320 -0.049149 -0.050192
v -0.016352 -0.047186 -0.051728
v -0.016982 -0.045119 -0.053343
v 0.000000 0.000000 0.000000
v 0.000000 -0.043000 -0.055000
vn -0.7410 0.4136 0.5290
vn -0.7319 0.5049 0.4576
vn -0.7048 0.5940 0.3879
vn -0.6603 0.6786 0.3218
vn -0.5995 0.7567 0.2607
vn -0.5240 0.8264 0.2063
vn -0.4356 0.8859 0.1597
vn -0.3364 0.9337 0.1223
vn -0.2290 0.9688 0.0949
vn -0.1159 0.9902 0.0782
vn -0.0000 0.9974 0.0726
vn 0.1159 0.9902 0.0782
vn 0.2290 0.9688 0.0949
vn 0.3364 0.9337 0.1223
vn 0.4356 0.8859 0.1597
vn 0.5240 0.8264 0.2063
vn 0.5995 0.7567 0.2607
vn 0.6603 0.6786 0.3218
vn 0.7048 0.5940 0.3879
vn 0.7319 0.5049 0.4576
vn 0.7410 0.4136 0.5290
vn 0.7319 0.3222 0.6004
vn 0.7048 0.2332 0.6700
vn 0.6603 0.1485 0.7362
vn 0.5995 0.0704 0.7973
vn 0.5240 0.0008 0.8517
vn 0.4356 -0.0587 0.8982
vn 0.3364 -0.1066 0.9357
vn 0.2290 -0.1416 0.9631
vn 0.1159 -0.1630 0.9798
vn -0.0000 -0.1702 0.9854
vn -0.1159 -0.1630 0.9798
vn -0.2290 -0.1416 0.9631
vn -0.3364 -0.1066 0.9357
vn -0.4356 -0.0587 0.8982
vn -0.5240 0.0008 0.8517
vn -0.5995 0.0704 0.7973
vn -0.6603 0.1485 0.7362
vn -0.7048 0.2332 0.6700
vn -0.7319 0.3222 0.6004
vn -0.7063 -0.4360 -0.5577
vn -0.6976 -0.3490 -0.6257
vn -0.6718 -0.2641 -0.6921
vn -0.6293 -0.1834 -0.7552
vn -0.5714 -0.1089 -0.8134
vn -0.4994 -0.0425 -0.8653
vn -0.4152 0.0142 -0.9096
vn -0.3207 0.0598 -0.9453
vn -0.2183 0.0932 -0.9714
vn -0.1105 0.1136 -0.9874
vn -0.0000 0.1204 -0.9927
vn 0.1105 0.1136 -0.9874
vn 0.2183 0.0932 -0.9714
vn 0.3207 0.0598 -0.9453
vn 0.4152 0.0142 -0.9096
vn 0.4994 -0.0425 -0.8653
vn 0.5714 -0.1089 -0.8134
vn 0.6293 -0.1834 -0.7552
vn 0.6718 -0.2641 -0.6921
vn 0.6976 -0.3490 -0.6257
vn 0.7063 -0.4360 -0.5577
vn 0.6976 -0.5231 -0.4896
vn 0.6718 -0.6080 -0.4232
vn 0.6293 -0.6886 -0.3602
vn 0.5714 -0.7631 -0.3020
vn 0.4994 -0.8295 -0.2501
vn 0.4152 -0.8862 -0.2057
vn 0.3207 -0.9318 -0.1701
vn 0.2183 -0.9652 -0.1439
vn 0.1105 -0.9856 -0.1280
vn -0.0000 -0.9925 -0.1226
vn -0.1105 -0.9856 -0.1280
vn -0.2183 -0.9652 -0.1439
vn -0.3207 -0.9318 -0.1701
vn -0.4152 -0.8862 -0.2057
vn -0.4994 -0.8295 -0.2501
vn -0.5714 -0.7631 -0.3020
vn -0.6293 -0.6886 -0.3602
vn -0.6718 -0.6080 -0.4232
vn -0.6976 -0.5231 -0.4896
vn -0.0000 0.6159 0.7878
vn -0.0000 -0.6159 -0.7878
s 1
usemtl Exposed_pump_plunger
f 1//1 2//2 42//42
f 1//1 42//42 41//41
f 2//2 3//3 43//43
f 2//2 43//43 42//42
f 3//3 4//4 44//44
f 3//3 44//44 43//43
f 4//4 5//5 45//45
f 4//4 45//45 44//44
f 5//5 6//6 46//46
f 5//5 46//46 45//45
f 6//6 7//7 47//47
f 6//6 47//47 46//46
f 7//7 8//8 48//48
f 7//7 48//48 47//47
f 8//8 9//9 49//49
f 8//8 49//49 48//48
f 9//9 10//10 50//50
f 9//9 50//50 49//49
f 10//10 11//11 51//51
f 10//10 51//51 50//50
f 11//11 12//12 52//52
f 11//11 52//52 51//51
f 12//12 13//13 53//53
f 12//12 53//53 52//52
f 13//13 14//14 54//54
f 13//13 54//54 53//53
f 14//14 15//15 55//55
f 14//14 55//55 54//54
f 15//15 16//16 56//56
f 15//15 56//56 55//55
f 16//16 17//17 57//57
f 16//16 57//57 56//56
f 17//17 18//18 58//58
f 17//17 58//58 57//57
f 18//18 19//19 59//59
f 18//18 59//59 58//58
f 19//19 20//20 60//60
f 19//19 60//60 59//59
f 20//20 21//21 61//61
f 20//20 61//61 60//60
f 21//21 22//22 62//62
f 21//21 62//62 61//61
f 22//22 23//23 63//63
f 22//22 63//63 62//62
f 23//23 24//24 64//64
f 23//23 64//64 63//63
f 24//24 25//25 65//65
f 24//24 65//65 64//64
f 25//25 26//26 66//66
f 25//25 66//66 65//65
f 26//26 27//27 67//67
f 26//26 67//67 66//66
f 27//27 28//28 68//68
f 27//27 68//68 67//67
f 28//28 29//29 69//69
f 28//28 69//69 68//68
f 29//29 30//30 70//70
f 29//29 70//70 69//69
f 30//30 31//31 71//71
f 30//30 71//71 70//70
f 31//31 32//32 72//72
f 31//31 72//72 71//71
f 32//32 33//33 73//73
f 32//32 73//73 72//72
f 33//33 34//34 74//74
f 33//33 74//74 73//73
f 34//34 35//35 75//75
f 34//34 75//75 74//74
f 35//35 36//36 76//76
f 35//35 76//76 75//75
f 36//36 37//37 77//77
f 36//36 77//77 76//76
f 37//37 38//38 78//78
f 37//37 78//78 77//77
f 38//38 39//39 79//79
f 38//38 79//79 78//78
f 39//39 40//40 80//80
f 39//39 80//80 79//79
f 40//40 1//1 41//41
f 40//40 41//41 80//80
f 81//81 2//2 1//1
f 41//41 42//42 82//82
f 81//81 3//3 2//2
f 42//42 43//43 82//82
f 81//81 4//4 3//3
f 43//43 44//44 82//82
f 81//81 5//5 4//4
f 44//44 45//45 82//82
f 81//81 6//6 5//5
f 45//45 46//46 82//82
f 81//81 7//7 6//6
f 46//46 47//47 82//82
f 81//81 8//8 7//7
f 47//47 48//48 82//82
f 81//81 9//9 8//8
f 48//48 49//49 82//82
f 81//81 10//10 9//9
f 49//49 50//50 82//82
f 81//81 11//11 10//10
f 50//50 51//51 82//82
f 81//81 12//12 11//11
f 51//51 52//52 82//82
f 81//81 13//13 12//12
f 52//52 53//53 82//82
f 81//81 14//14 13//13
f 53//53 54//54 82//82
f 81//81 15//15 14//14
f 54//54 55//55 82//82
f 81//81 16//16 15//15
f 55//55 56//56 82//82
f 81//81 17//17 16//16
f 56//56 57//57 82//82
f 81//81 18//18 17//17
f 57//57 58//58 82//82
f 81//81 19//19 18//18
f 58//58 59//59 82//82
f 81//81 20//20 19//19
f 59//59 60//60 82//82
f 81//81 21//21 20//20
f 60//60 61//61 82//82
f 81//81 22//22 21//21
f 61//61 62//62 82//82
f 81//81 23//23 22//22
f 62//62 63//63 82//82
f 81//81 24//24 23//23
f 63//63 64//64 82//82
f 81//81 25//25 24//24
f 64//64 65//65 82//82
f 81//81 26//26 25//25
f 65//65 66//66 82//82
f 81//81 27//27 26//26
f 66//66 67//67 82//82
f 81//81 28//28 27//27
f 67//67 68//68 82//82
f 81//81 29//29 28//28
f 68//68 69//69 82//82
f 81//81 30//30 29//29
f 69//69 70//70 82//82
f 81//81 31//31 30//30
f 70//70 71//71 82//82
f 81//81 32//32 31//31
f 71//71 72//72 82//82
f 81//81 33//33 32//32
f 72//72 73//73 82//82
f 81//81 34//34 33//33
f 73//73 74//74 82//82
f 81//81 35//35 34//34
f 74//74 75//75 82//82
f 81//81 36//36 35//35
f 75//75 76//76 82//82
f 81//81 37//37 36//36
f 76//76 77//77 82//82
f 81//81 38//38 37//37
f 77//77 78//78 82//82
f 81//81 39//39 38//38
f 78//78 79//79 82//82
f 81//81 40//40 39//39
f 79//79 80//80 82//82
f 81//81 1//1 40//40
f 80//80 41//41 82//82
