# Blender 4.5.0
# www.blender.org
mtllib mesh_003.mtl
o mesh_003
v 0.041871 -0.235000 0.253761
v 0.048923 -0.235000 0.253761
v 0.041871 -0.233194 0.253583
v 0.048923 -0.233194 0.253583
v 0.041871 -0.231458 0.253056
v 0.048923 -0.231458 0.253056
v 0.041871 -0.229858 0.252201
v 0.048923 -0.229858 0.252201
v 0.041871 -0.228455 0.251050
v 0.048923 -0.228455 0.251050
v 0.041871 -0.227304 0.249647
v 0.048923 -0.227304 0.249647
v 0.041871 -0.226449 0.248047
v 0.048923 -0.226449 0.248047
v 0.041871 -0.225922 0.246311
v 0.048923 -0.225922 0.246311
v 0.041871 -0.225744 0.244505
v 0.048923 -0.225744 0.244505
v 0.041871 -0.225922 0.242699
v 0.048923 -0.225922 0.242699
v 0.041871 -0.226449 0.240963
v 0.048923 -0.226449 0.240963
v 0.041871 -0.227304 0.239363
v 0.048923 -0.227304 0.239363
v 0.041871 -0.228455 0.237960
v 0.048923 -0.228455 0.237960
v 0.041871 -0.229858 0.236809
v 0.048923 -0.229858 0.236809
v 0.041871 -0.231458 0.235954
v 0.048923 -0.231458 0.235954
v 0.041871 -0.233194 0.235427
v 0.048923 -0.233194 0.235427
v 0.041871 -0.235000 0.235249
v 0.048923 -0.235000 0.235249
v 0.041871 -0.236806 0.235427
v 0.048923 -0.236806 0.235427
v 0.041871 -0.238542 0.235954
v 0.048923 -0.238542 0.235954
v 0.041871 -0.240142 0.236809
v 0.048923 -0.240142 0.236809
v 0.041871 -0.241545 0.237960
v 0.048923 -0.241545 0.237960
v 0.041871 -0.242696 0.239363
v 0.048923 -0.242696 0.239363
v 0.041871 -0.243551 0.240963
v 0.048923 -0.243551 0.240963
v 0.041871 -0.244078 0.242699
v 0.048923 -0.244078 0.242699
v 0.041871 -0.244256 0.244505
v 0.048923 -0.244256 0.244505
v 0.041871 -0.244078 0.246311
v 0.048923 -0.244078 0.246311
v 0.041871 -0.243551 0.248047
v 0.048923 -0.243551 0.248047
v 0.041871 -0.242696 0.249647
v 0.048923 -0.242696 0.249647
v 0.041871 -0.241545 0.251050
v 0.048923 -0.241545 0.251050
v 0.041871 -0.240142 0.252201
v 0.048923 -0.240142 0.252201
v 0.041871 -0.238542 0.253056
v 0.048923 -0.238542 0.253056
v 0.041871 -0.236806 0.253583
v 0.048923 -0.236806 0.253583
vn 0.6447 0.6405 0.4173
vn -0.9963 0.0168 0.0844
vn -0.9987 -0.0001 0.0515
vn 0.9689 -0.2144 0.1238
vn -0.9997 0.0097 0.0235
vn 0.9997 0.0142 0.0211
vn -0.9935 0.0633 0.0947
vn -0.9997 0.0180 0.0180
vn 0.9987 0.0428 0.0285
vn -0.9963 0.0715 0.0478
vn 0.9975 0.0657 0.0274
vn -0.9955 0.0876 0.0363
vn -0.9974 0.0710 0.0141
vn 0.9689 0.0323 0.2454
vn -0.9987 0.0515 -0.0000
vn 0.9675 0.1131 0.2260
vn -0.9963 0.0844 -0.0168
vn 0.9689 0.1238 0.2144
vn -0.9997 0.0235 -0.0097
vn 0.9987 0.0428 -0.0287
vn -0.9960 0.0748 -0.0499
vn 0.9963 0.0608 -0.0609
vn -0.9987 0.0364 -0.0364
vn 0.9997 0.0141 -0.0212
vn -0.9929 0.0660 -0.0988
vn -0.9987 0.0197 -0.0476
vn 0.9674 0.2523 -0.0219
vn -0.9984 0.0110 -0.0553
vn 0.9689 0.2454 -0.0323
vn -0.9987 -0.0000 -0.0515
vn 0.9676 0.2258 -0.1131
vn -0.9963 -0.0168 -0.0844
vn 0.9689 0.2144 -0.1238
vn -0.9987 -0.0197 -0.0476
vn 0.9688 0.1832 -0.1671
vn -0.9975 -0.0395 -0.0592
vn 0.9980 -0.0443 -0.0442
vn -0.9955 -0.0670 -0.0670
vn -0.9963 -0.0715 -0.0478
vn 0.9689 0.0641 -0.2391
vn -0.9987 -0.0476 -0.0197
vn 0.9674 -0.0219 -0.2524
vn -0.9974 -0.0710 -0.0141
vn 0.9689 -0.0323 -0.2454
vn -0.9987 -0.0515 -0.0000
vn 0.9676 -0.1131 -0.2258
vn -0.9963 -0.0844 0.0168
vn 0.9688 -0.1239 -0.2146
vn -0.9987 -0.0476 0.0197
vn 0.9682 -0.1799 -0.1736
vn -0.9960 -0.0747 0.0499
vn 0.9689 -0.1964 -0.1507
vn -0.9997 -0.0180 0.0180
vn 0.9987 -0.0286 0.0428
vn -0.9963 -0.0478 0.0715
vn 0.9975 -0.0272 0.0658
vn -0.9955 -0.0363 0.0876
vn 0.2394 0.5312 -0.8127
vn 0.0102 0.3826 0.9239
vn -0.9984 -0.0110 0.0553
vn 0.2931 -0.7609 0.5789
vn 0.9929 0.0841 0.0840
vn 0.9955 -0.0527 -0.0788
vn 0.9929 -0.0840 0.0841
vt 1.000000 1.000000
vt 0.968750 0.500000
vt 1.000000 0.500000
vt 0.968750 1.000000
vt 0.937500 0.500000
vt 0.906250 1.000000
vt 0.906250 0.500000
vt 0.875000 0.500000
vt 0.843750 1.000000
vt 0.843750 0.500000
vt 0.812500 1.000000
vt 0.812500 0.500000
vt 0.781250 0.500000
vt 0.781250 1.000000
vt 0.750000 0.500000
vt 0.750000 1.000000
vt 0.718750 0.500000
vt 0.718750 1.000000
vt 0.687500 0.500000
vt 0.656250 1.000000
vt 0.656250 0.500000
vt 0.625000 1.000000
vt 0.625000 0.500000
vt 0.593750 1.000000
vt 0.593750 0.500000
vt 0.562500 0.500000
vt 0.562500 1.000000
vt 0.531250 0.500000
vt 0.531250 1.000000
vt 0.500000 0.500000
vt 0.500000 1.000000
vt 0.468750 0.500000
vt 0.468750 1.000000
vt 0.437500 0.500000
vt 0.437500 1.000000
vt 0.406250 0.500000
vt 0.375000 1.000000
vt 0.375000 0.500000
vt 0.343750 0.500000
vt 0.343750 1.000000
vt 0.312500 0.500000
vt 0.312500 1.000000
vt 0.281250 0.500000
vt 0.281250 1.000000
vt 0.250000 0.500000
vt 0.250000 1.000000
vt 0.218750 0.500000
vt 0.218750 1.000000
vt 0.187500 0.500000
vt 0.187500 1.000000
vt 0.156250 0.500000
vt 0.156250 1.000000
vt 0.125000 0.500000
vt 0.093750 1.000000
vt 0.093750 0.500000
vt 0.062500 1.000000
vt 0.062500 0.500000
vt 0.158156 0.028269
vt 0.471731 0.158156
vt 0.341844 0.471731
vt 0.031250 0.500000
vt 0.031250 1.000000
vt 0.000000 0.500000
vt 0.796822 0.014612
vt 0.514612 0.203178
vt 0.703178 0.485388
vt 0.937500 1.000000
vt 0.875000 1.000000
vt 0.687500 1.000000
vt 0.406250 1.000000
vt 0.125000 1.000000
vt 0.296822 0.485388
vt 0.250000 0.490000
vt 0.203178 0.485388
vt 0.158156 0.471731
vt 0.116663 0.449553
vt 0.080294 0.419706
vt 0.050447 0.383337
vt 0.028269 0.341844
vt 0.014612 0.296822
vt 0.010000 0.250000
vt 0.014612 0.203178
vt 0.028269 0.158156
vt 0.050447 0.116663
vt 0.080294 0.080294
vt 0.116663 0.050447
vt 0.203178 0.014612
vt 0.250000 0.010000
vt 0.296822 0.014612
vt 0.341844 0.028269
vt 0.383337 0.050447
vt 0.419706 0.080294
vt 0.449553 0.116663
vt 0.485388 0.203178
vt 0.490000 0.250000
vt 0.485388 0.296822
vt 0.471731 0.341844
vt 0.449553 0.383337
vt 0.419706 0.419706
vt 0.383337 0.449553
vt 0.000000 1.000000
vt 0.750000 0.490000
vt 0.796822 0.485388
vt 0.841844 0.471731
vt 0.883337 0.449553
vt 0.919706 0.419706
vt 0.949553 0.383337
vt 0.971731 0.341844
vt 0.985388 0.296822
vt 0.990000 0.250000
vt 0.985388 0.203178
vt 0.971731 0.158156
vt 0.949553 0.116663
vt 0.919706 0.080294
vt 0.883337 0.050447
vt 0.841844 0.028269
vt 0.750000 0.010000
vt 0.703178 0.014612
vt 0.658156 0.028269
vt 0.616663 0.050447
vt 0.580294 0.080294
vt 0.550447 0.116663
vt 0.528269 0.158156
vt 0.510000 0.250000
vt 0.514612 0.296822
vt 0.528269 0.341844
vt 0.550447 0.383337
vt 0.580294 0.419706
vt 0.616663 0.449553
vt 0.658156 0.471731
s 1
usemtl Recessed_pivot_dark_gray
f 2/1/1 3/2/2 1/3/3
f 4/4/4 5/5/5 3/2/2
f 5/5/5 8/6/6 7/7/7
f 8/6/6 9/8/8 7/7/7
f 9/8/8 12/9/9 11/10/10
f 11/10/10 14/11/11 13/12/12
f 14/11/11 15/13/13 13/12/12
f 16/14/14 17/15/15 15/13/13
f 18/16/16 19/17/17 17/15/15
f 20/18/18 21/19/19 19/17/17
f 21/19/19 24/20/20 23/21/21
f 23/21/21 26/22/22 25/23/23
f 25/23/23 28/24/24 27/25/25
f 28/24/24 29/26/26 27/25/25
f 30/27/27 31/28/28 29/26/26
f 32/29/29 33/30/30 31/28/28
f 34/31/31 35/32/32 33/30/30
f 36/33/33 37/34/34 35/32/32
f 38/35/35 39/36/36 37/34/34
f 39/36/36 42/37/37 41/38/38
f 42/37/37 43/39/39 41/38/38
f 44/40/40 45/41/41 43/39/39
f 46/42/42 47/43/43 45/41/41
f 48/44/44 49/45/45 47/43/43
f 50/46/46 51/47/47 49/45/45
f 52/48/48 53/49/49 51/47/47
f 54/50/50 55/51/51 53/49/49
f 56/52/52 57/53/53 55/51/51
f 57/53/53 60/54/54 59/55/55
f 59/55/55 62/56/56 61/57/57
f 38/58/35 22/59/58 6/60/59
f 62/56/56 63/61/60 61/57/57
f 64/62/61 1/63/3 63/61/60
f 31/64/28 47/65/43 63/66/60
f 2/1/1 4/4/4 3/2/2
f 4/4/4 6/67/59 5/5/5
f 5/5/5 6/67/59 8/6/6
f 8/6/6 10/68/62 9/8/8
f 9/8/8 10/68/62 12/9/9
f 11/10/10 12/9/9 14/11/11
f 14/11/11 16/14/14 15/13/13
f 16/14/14 18/16/16 17/15/15
f 18/16/16 20/18/18 19/17/17
f 20/18/18 22/69/58 21/19/19
f 21/19/19 22/69/58 24/20/20
f 23/21/21 24/20/20 26/22/22
f 25/23/23 26/22/22 28/24/24
f 28/24/24 30/27/27 29/26/26
f 30/27/27 32/29/29 31/28/28
f 32/29/29 34/31/31 33/30/30
f 34/31/31 36/33/33 35/32/32
f 36/33/33 38/35/35 37/34/34
f 38/35/35 40/70/63 39/36/36
f 39/36/36 40/70/63 42/37/37
f 42/37/37 44/40/40 43/39/39
f 44/40/40 46/42/42 45/41/41
f 46/42/42 48/44/44 47/43/43
f 48/44/44 50/46/46 49/45/45
f 50/46/46 52/48/48 51/47/47
f 52/48/48 54/50/50 53/49/49
f 54/50/50 56/52/52 55/51/51
f 56/52/52 58/71/64 57/53/53
f 57/53/53 58/71/64 60/54/54
f 59/55/55 60/54/54 62/56/56
f 6/60/59 4/72/4 2/73/1
f 2/73/1 64/74/61 62/75/56
f 62/75/56 60/76/54 58/77/64
f 58/77/64 56/78/52 54/79/50
f 54/79/50 52/80/48 50/81/46
f 50/81/46 48/82/44 46/83/42
f 46/83/42 44/84/40 42/85/37
f 42/85/37 40/86/63 38/58/35
f 38/58/35 36/87/33 34/88/31
f 34/88/31 32/89/29 30/90/27
f 30/90/27 28/91/24 26/92/22
f 26/92/22 24/93/20 22/59/58
f 22/59/58 20/94/18 18/95/16
f 18/95/16 16/96/14 14/97/11
f 14/97/11 12/98/9 10/99/62
f 10/99/62 8/100/6 6/60/59
f 6/60/59 2/73/1 62/75/56
f 62/75/56 58/77/64 54/79/50
f 54/79/50 50/81/46 46/83/42
f 46/83/42 42/85/37 38/58/35
f 38/58/35 34/88/31 30/90/27
f 30/90/27 26/92/22 22/59/58
f 22/59/58 18/95/16 14/97/11
f 14/97/11 10/99/62 6/60/59
f 6/60/59 62/75/56 54/79/50
f 54/79/50 46/83/42 38/58/35
f 38/58/35 30/90/27 22/59/58
f 22/59/58 14/97/11 6/60/59
f 6/60/59 54/79/50 38/58/35
f 62/56/56 64/62/61 63/61/60
f 64/62/61 2/101/1 1/63/3
f 63/66/60 1/102/3 3/103/2
f 3/103/2 5/104/5 7/105/7
f 7/105/7 9/106/8 11/107/10
f 11/107/10 13/108/12 15/109/13
f 15/109/13 17/110/15 19/111/17
f 19/111/17 21/112/19 23/113/21
f 23/113/21 25/114/23 27/115/25
f 27/115/25 29/116/26 31/64/28
f 31/64/28 33/117/30 35/118/32
f 35/118/32 37/119/34 39/120/36
f 39/120/36 41/121/38 43/122/39
f 43/122/39 45/123/41 47/65/43
f 47/65/43 49/124/45 51/125/47
f 51/125/47 53/126/49 55/127/51
f 55/127/51 57/128/53 59/129/55
f 59/129/55 61/130/57 63/66/60
f 63/66/60 3/103/2 7/105/7
f 7/105/7 11/107/10 15/109/13
f 15/109/13 19/111/17 23/113/21
f 23/113/21 27/115/25 31/64/28
f 31/64/28 35/118/32 39/120/36
f 39/120/36 43/122/39 47/65/43
f 47/65/43 51/125/47 55/127/51
f 55/127/51 59/129/55 63/66/60
f 63/66/60 7/105/7 15/109/13
f 15/109/13 23/113/21 31/64/28
f 31/64/28 39/120/36 47/65/43
f 47/65/43 55/127/51 63/66/60
f 63/66/60 15/109/13 31/64/28
