# Blender 4.5.0
# www.blender.org
mtllib mesh_005.mtl
o mesh_005
v -0.041871 -0.222385 0.373335
v -0.041871 -0.219867 0.374950
v -0.044075 -0.220247 0.372771
v -0.041871 -0.221909 0.374346
v -0.042972 -0.222098 0.373258
v -0.042925 -0.221638 0.374225
v -0.042972 -0.219917 0.374657
v -0.041871 -0.220985 0.374938
v -0.042925 -0.220988 0.374642
v -0.043781 -0.221314 0.373051
v -0.043781 -0.220056 0.373857
v -0.043495 -0.221086 0.374080
v -0.044075 -0.126611 0.348387
v -0.041871 -0.126000 0.350505
v -0.043780 -0.126306 0.349446
v -0.042973 -0.126082 0.350221
v -0.044075 -0.047794 0.323445
v -0.041871 -0.047000 0.325505
v -0.043780 -0.047397 0.324475
v -0.042973 -0.047106 0.325229
v -0.044075 0.021928 0.291572
v -0.041871 0.023000 0.293505
v -0.043780 0.022464 0.292539
v -0.042973 0.022856 0.293246
v -0.044075 0.083686 0.250732
v -0.041871 0.085000 0.252505
v -0.043780 0.084343 0.251618
v -0.042973 0.084824 0.252267
v -0.044075 0.141525 0.202865
v -0.041871 0.143000 0.204505
v -0.043780 0.142262 0.203685
v -0.042973 0.142802 0.204285
v -0.041871 0.186378 0.159013
v -0.044075 0.184798 0.160554
v -0.041871 0.186424 0.162046
v -0.042972 0.186166 0.159219
v -0.041871 0.186978 0.159964
v -0.042925 0.186738 0.160132
v -0.043781 0.185609 0.161299
v -0.043781 0.185586 0.159784
v -0.043495 0.186330 0.160530
v -0.041871 0.186995 0.161077
v -0.042972 0.186206 0.161846
v -0.042925 0.186750 0.160916
v -0.044075 0.161758 0.139356
v -0.041871 0.163000 0.137505
v -0.043780 0.162379 0.138431
v -0.042973 0.162834 0.137753
v -0.044075 0.130409 0.124662
v -0.041871 0.131000 0.122505
v -0.043780 0.130705 0.123583
v -0.042973 0.130921 0.122794
v -0.044075 0.099942 0.121713
v -0.041871 0.100000 0.119505
v -0.043780 0.099971 0.120609
v -0.042973 0.099992 0.119801
v -0.044075 0.055048 0.123709
v -0.041871 0.055000 0.121505
v -0.043780 0.055024 0.122607
v -0.042973 0.055006 0.121800
v -0.044075 -0.010637 0.123709
v -0.041871 -0.011000 0.121505
v -0.043780 -0.010819 0.122607
v -0.042973 -0.010951 0.121800
v -0.044075 -0.078505 0.146664
v -0.041871 -0.079000 0.144505
v -0.043780 -0.078753 0.145584
v -0.042973 -0.078934 0.144794
v -0.044075 -0.110169 0.150622
v -0.041871 -0.111000 0.148505
v -0.043780 -0.110584 0.149563
v -0.042973 -0.110889 0.148789
v -0.041871 -0.136580 0.168631
v -0.044075 -0.134079 0.167838
v -0.041871 -0.134212 0.165217
v -0.042952 -0.136146 0.168279
v -0.041871 -0.136035 0.167405
v -0.042918 -0.135751 0.167275
v -0.043749 -0.134342 0.166695
v -0.043749 -0.135241 0.167992
v -0.043504 -0.135212 0.167051
v -0.041871 -0.135169 0.166157
v -0.042952 -0.134390 0.165747
v -0.042918 -0.135192 0.166469
v -0.041871 -0.147083 0.200225
v -0.044075 -0.143180 0.201208
v -0.041871 -0.144420 0.197379
v -0.042949 -0.145964 0.200181
v -0.041871 -0.145980 0.199561
v -0.042916 -0.145370 0.199670
v -0.043751 -0.143938 0.199890
v -0.043751 -0.144545 0.200539
v -0.043506 -0.144703 0.199783
v -0.041871 -0.145009 0.198523
v -0.042949 -0.144389 0.198498
v -0.042916 -0.144860 0.199125
v -0.041871 -0.227322 0.229268
v -0.044075 -0.224642 0.229367
v -0.041871 -0.223917 0.226785
v -0.042951 -0.226769 0.229073
v -0.041871 -0.226372 0.228302
v -0.042918 -0.226049 0.228274
v -0.043749 -0.224534 0.228187
v -0.043749 -0.225799 0.229109
v -0.043504 -0.225464 0.228240
v -0.041871 -0.225127 0.227394
v -0.042951 -0.224272 0.227253
v -0.042918 -0.225253 0.227693
v -0.041871 -0.243615 0.253675
v -0.044075 -0.241663 0.252062
v -0.041871 -0.242678 0.249742
v -0.042972 -0.243239 0.253487
v -0.041871 -0.243746 0.252328
v -0.042925 -0.243368 0.252193
v -0.043781 -0.242055 0.250931
v -0.043781 -0.242523 0.252895
v -0.043495 -0.242864 0.251776
v -0.041871 -0.243402 0.250885
v -0.042972 -0.242427 0.250079
v -0.042925 -0.243126 0.251176
v 0.041871 -0.222385 0.373335
v 0.044075 -0.220247 0.372771
v 0.041871 -0.219867 0.374950
v 0.042972 -0.222098 0.373258
v 0.041871 -0.221909 0.374346
v 0.042925 -0.221638 0.374225
v 0.043781 -0.220056 0.373857
v 0.043781 -0.221314 0.373051
v 0.043495 -0.221086 0.374080
v 0.041871 -0.220985 0.374938
v 0.042972 -0.219917 0.374657
v 0.042925 -0.220988 0.374642
v 0.044075 -0.126611 0.348387
v 0.041871 -0.126000 0.350505
v 0.043780 -0.126306 0.349446
v 0.042973 -0.126082 0.350221
v 0.044075 -0.047794 0.323445
v 0.041871 -0.047000 0.325505
v 0.043780 -0.047397 0.324475
v 0.042973 -0.047106 0.325229
v 0.044075 0.021928 0.291572
v 0.041871 0.023000 0.293505
v 0.043780 0.022464 0.292539
v 0.042973 0.022856 0.293246
v 0.044075 0.083686 0.250732
v 0.041871 0.085000 0.252505
v 0.043780 0.084343 0.251618
v 0.042973 0.084824 0.252267
v 0.044075 0.141525 0.202865
v 0.041871 0.143000 0.204505
v 0.043780 0.142262 0.203685
v 0.042973 0.142802 0.204285
v 0.041871 0.186424 0.162046
v 0.044075 0.184798 0.160554
v 0.041871 0.186378 0.159013
v 0.042972 0.186206 0.161846
v 0.041871 0.186995 0.161077
v 0.042925 0.186750 0.160916
v 0.043781 0.185586 0.159784
v 0.043781 0.185609 0.161299
v 0.043495 0.186330 0.160530
v 0.041871 0.186978 0.159964
v 0.042972 0.186166 0.159219
v 0.042925 0.186738 0.160132
v 0.044075 0.161758 0.139356
v 0.041871 0.163000 0.137505
v 0.043780 0.162379 0.138431
v 0.042973 0.162834 0.137753
v 0.044075 0.130409 0.124662
v 0.041871 0.131000 0.122505
v 0.043780 0.130705 0.123583
v 0.042973 0.130921 0.122794
v 0.044075 0.099942 0.121713
v 0.041871 0.100000 0.119505
v 0.043780 0.099971 0.120609
v 0.042973 0.099992 0.119801
v 0.044075 0.055048 0.123709
v 0.041871 0.055000 0.121505
v 0.043780 0.055024 0.122607
v 0.042973 0.055006 0.121800
v 0.044075 -0.010637 0.123709
v 0.041871 -0.011000 0.121505
v 0.043780 -0.010819 0.122607
v 0.042973 -0.010951 0.121800
v 0.044075 -0.078505 0.146664
v 0.041871 -0.079000 0.144505
v 0.043780 -0.078753 0.145584
v 0.042973 -0.078934 0.144794
v 0.044075 -0.110169 0.150622
v 0.041871 -0.111000 0.148505
v 0.043780 -0.110584 0.149563
v 0.042973 -0.110889 0.148789
v 0.041871 -0.134212 0.165217
v 0.044075 -0.134079 0.167838
v 0.041871 -0.136580 0.168631
v 0.042952 -0.134390 0.165747
v 0.041871 -0.135169 0.166157
v 0.042918 -0.135192 0.166469
v 0.043749 -0.135241 0.167992
v 0.043749 -0.134342 0.166695
v 0.043504 -0.135212 0.167051
v 0.041871 -0.136035 0.167405
v 0.042952 -0.136146 0.168279
v 0.042918 -0.135751 0.167275
v 0.041871 -0.144420 0.197379
v 0.044075 -0.143180 0.201208
v 0.041871 -0.147083 0.200225
v 0.042949 -0.144389 0.198498
v 0.041871 -0.145009 0.198523
v 0.042916 -0.144860 0.199124
v 0.043751 -0.144545 0.200539
v 0.043751 -0.143938 0.199890
v 0.043506 -0.144703 0.199783
v 0.041871 -0.145980 0.199561
v 0.042949 -0.145964 0.200182
v 0.042916 -0.145370 0.199670
v 0.041871 -0.223917 0.226785
v 0.044075 -0.224642 0.229367
v 0.041871 -0.227322 0.229268
v 0.042951 -0.224272 0.227253
v 0.041871 -0.225127 0.227394
v 0.042918 -0.225253 0.227693
v 0.043749 -0.225799 0.229109
v 0.043749 -0.224534 0.228187
v 0.043504 -0.225464 0.228240
v 0.041871 -0.226372 0.228302
v 0.042951 -0.226769 0.229073
v 0.042918 -0.226049 0.228274
v 0.041871 -0.243615 0.253675
v 0.041871 -0.242678 0.249742
v 0.044075 -0.241663 0.252062
v 0.041871 -0.243746 0.252328
v 0.042972 -0.243239 0.253487
v 0.042925 -0.243368 0.252193
v 0.042972 -0.242427 0.250079
v 0.041871 -0.243402 0.250885
v 0.042925 -0.243126 0.251176
v 0.043781 -0.242523 0.252895
v 0.043781 -0.242055 0.250931
v 0.043495 -0.242864 0.251776
vn -0.2566 -0.8744 0.4119
vn -0.2286 -0.5255 0.8195
vn -0.2566 -0.0096 0.9665
vn -0.6989 -0.0400 0.7141
vn -0.9400 -0.1841 0.2871
vn -0.6989 -0.6323 0.3343
vn -0.5943 -0.4341 0.6770
vn -0.2541 0.8179 -0.5162
vn -0.6959 0.6241 -0.3553
vn -0.9384 0.3454 -0.0053
vn -0.6959 0.6346 0.3362
vn -0.2540 0.8332 0.4912
vn -0.2244 0.9744 -0.0148
vn -0.5883 0.8085 -0.0123
vn -0.2285 -0.8896 -0.3954
vn -0.6702 -0.6829 -0.2908
vn -0.9233 -0.2922 -0.2492
vn -0.6256 -0.4394 -0.6446
vn -0.2286 -0.6819 -0.6949
vn -0.1504 -0.8123 -0.5635
vn -0.4737 -0.7236 -0.5020
vn -0.4477 -0.4612 -0.7661
vn -0.6509 -0.4745 -0.5927
vn -0.9760 -0.1591 -0.1488
vn -0.8746 -0.2191 -0.4325
vn -0.4477 -0.7950 -0.4092
vn -0.4453 -0.6538 -0.6117
vn -0.6917 -0.5274 -0.4934
vn -0.2323 -0.6933 -0.6822
vn -0.6738 -0.5352 -0.5095
vn -0.9247 -0.1866 -0.3320
vn -0.6262 -0.2072 -0.7516
vn -0.2324 -0.4375 -0.8687
vn -0.1577 -0.5819 -0.7979
vn -0.4760 -0.5181 -0.7107
vn -0.3358 -0.9375 0.0911
vn -0.6818 -0.7299 0.0482
vn -0.9049 -0.4123 -0.1056
vn -0.6818 -0.6298 -0.3722
vn -0.3358 -0.7957 -0.5041
vn -0.3038 -0.9268 -0.2209
vn -0.5690 -0.7999 -0.1906
vn 0.2566 -0.8744 0.4119
vn 0.6990 -0.6322 0.3343
vn 0.9400 -0.1841 0.2871
vn 0.6990 -0.0400 0.7140
vn 0.2566 -0.0096 0.9665
vn 0.2286 -0.5255 0.8195
vn 0.5943 -0.4341 0.6770
vn 0.2541 0.8332 0.4911
vn 0.6959 0.6346 0.3361
vn 0.9384 0.3454 -0.0052
vn 0.6959 0.6241 -0.3553
vn 0.2540 0.8179 -0.5162
vn 0.2244 0.9744 -0.0148
vn 0.5883 0.8085 -0.0123
vn 0.2285 -0.6819 -0.6949
vn 0.6702 -0.5115 -0.5378
vn 0.9233 -0.3358 -0.1864
vn 0.6256 -0.7577 -0.1859
vn 0.2285 -0.8896 -0.3954
vn 0.1504 -0.8123 -0.5635
vn 0.4738 -0.7236 -0.5020
vn 0.4477 -0.7950 -0.4092
vn 0.6509 -0.6229 -0.4340
vn 0.9760 -0.1591 -0.1488
vn 0.8746 -0.4461 -0.1898
vn 0.4478 -0.4612 -0.7660
vn 0.4453 -0.6539 -0.6117
vn 0.6917 -0.5274 -0.4934
vn 0.2324 -0.4375 -0.8686
vn 0.6738 -0.3215 -0.6653
vn 0.9247 -0.2590 -0.2791
vn 0.6262 -0.6523 -0.4271
vn 0.2324 -0.6933 -0.6821
vn 0.1577 -0.5818 -0.7979
vn 0.4759 -0.5182 -0.7106
vn 0.3359 -0.9375 0.0910
vn 0.3038 -0.9268 -0.2209
vn 0.3358 -0.7957 -0.5041
vn 0.6818 -0.6298 -0.3722
vn 0.9049 -0.4156 -0.0917
vn 0.6818 -0.7299 0.0482
vn 0.5690 -0.7999 -0.1907
vn -0.9659 -0.2548 0.0450
vn -0.7071 -0.6964 0.1229
vn -0.2595 -0.9509 0.1687
vn -0.2900 -0.7672 -0.5721
vn -0.7076 -0.5662 -0.4228
vn -0.9573 -0.2311 -0.1735
vn -0.2882 -0.3129 -0.9050
vn -0.7071 -0.2310 -0.6683
vn -0.9576 -0.0942 -0.2724
vn -0.2890 -0.9236 -0.2519
vn -0.7071 -0.6822 -0.1860
vn -0.9573 -0.2788 -0.0761
vn -0.2589 -0.5644 -0.7839
vn -0.7069 -0.4143 -0.5732
vn -0.9658 -0.1524 -0.2096
vn -0.2588 -0.1198 -0.9585
vn -0.7071 -0.0877 -0.7017
vn -0.9659 -0.0321 -0.2568
vn -0.2588 -0.3095 -0.9150
vn -0.7071 -0.2266 -0.6698
vn -0.9659 -0.0829 -0.2452
vn -0.2587 -0.0000 -0.9660
vn -0.7071 -0.0000 -0.7071
vn -0.9659 -0.0000 -0.2588
vn -0.2588 -0.0429 -0.9650
vn -0.7071 -0.0314 -0.7064
vn -0.9659 -0.0115 -0.2586
vn -0.2588 0.0930 -0.9614
vn -0.7071 0.0681 -0.7038
vn -0.9659 0.0249 -0.2576
vn -0.2588 0.4100 -0.8746
vn -0.7071 0.3001 -0.6402
vn -0.9659 0.1099 -0.2344
vn -0.2590 0.6540 -0.7108
vn -0.7071 0.4788 -0.5204
vn -0.9660 0.1751 -0.1903
vn -0.2588 0.6753 0.6906
vn -0.7071 0.4944 0.5056
vn -0.9659 0.1809 0.1851
vn -0.2589 0.6158 0.7441
vn -0.7071 0.4508 0.5447
vn -0.9659 0.1650 0.1994
vn -0.2588 0.5328 0.8057
vn -0.7071 0.3900 0.5898
vn -0.9659 0.1428 0.2159
vn -0.2589 0.4016 0.8785
vn -0.7071 0.2940 0.6431
vn -0.9659 0.1076 0.2354
vn -0.2588 0.2914 0.9209
vn -0.7071 0.2133 0.6742
vn -0.9659 0.0781 0.2468
vn -0.2596 0.2434 0.9346
vn -0.7071 0.1782 0.6843
vn -0.9659 0.0652 0.2504
vn 0.2595 -0.9509 0.1687
vn 0.7071 -0.6964 0.1229
vn 0.9659 -0.2548 0.0450
vn 0.9659 0.0652 0.2504
vn 0.7071 0.1782 0.6843
vn 0.2595 0.2434 0.9346
vn 0.9659 0.0781 0.2468
vn 0.7071 0.2133 0.6741
vn 0.2588 0.2914 0.9209
vn 0.9659 0.1076 0.2354
vn 0.7071 0.2940 0.6431
vn 0.2589 0.4016 0.8785
vn 0.9659 0.1428 0.2159
vn 0.7071 0.3900 0.5898
vn 0.2588 0.5328 0.8057
vn 0.9659 0.1650 0.1994
vn 0.7071 0.4508 0.5447
vn 0.2588 0.6158 0.7441
vn 0.9659 0.1809 0.1851
vn 0.7071 0.4944 0.5056
vn 0.2588 0.6753 0.6906
vn 0.9660 0.1751 -0.1903
vn 0.7071 0.4788 -0.5204
vn 0.2589 0.6540 -0.7108
vn 0.9659 0.1099 -0.2344
vn 0.7071 0.3001 -0.6402
vn 0.2588 0.4100 -0.8746
vn 0.9659 0.0249 -0.2576
vn 0.7071 0.0681 -0.7038
vn 0.2588 0.0930 -0.9614
vn 0.9659 -0.0115 -0.2586
vn 0.7071 -0.0314 -0.7064
vn 0.2588 -0.0429 -0.9650
vn 0.9659 -0.0000 -0.2588
vn 0.7071 -0.0000 -0.7071
vn 0.2587 -0.0000 -0.9659
vn 0.9659 -0.0829 -0.2452
vn 0.7071 -0.2266 -0.6698
vn 0.2588 -0.3095 -0.9150
vn 0.9659 -0.0321 -0.2568
vn 0.7071 -0.0877 -0.7017
vn 0.2588 -0.1198 -0.9585
vn 0.9658 -0.1524 -0.2096
vn 0.7069 -0.4143 -0.5732
vn 0.2589 -0.5644 -0.7839
vn 0.9573 -0.2788 -0.0761
vn 0.7071 -0.6822 -0.1860
vn 0.2890 -0.9236 -0.2519
vn 0.9576 -0.0942 -0.2724
vn 0.7071 -0.2310 -0.6683
vn 0.2882 -0.3129 -0.9050
vn 0.9573 -0.2311 -0.1735
vn 0.7076 -0.5662 -0.4228
vn 0.2900 -0.7672 -0.5721
vn -0.0000 -0.9047 0.4261
vn -0.0000 -0.5398 0.8418
vn -0.0000 -0.0099 1.0000
vn -0.0000 0.8615 0.5078
vn -0.0000 0.9999 -0.0152
vn -0.0000 0.8457 -0.5337
vn -0.0000 -0.7004 -0.7137
vn -0.0000 -0.8216 -0.5700
vn -0.0000 -0.9138 -0.4061
vn -0.0000 -0.8891 -0.4577
vn -0.0000 -0.7302 -0.6832
vn -0.0000 -0.5158 -0.8567
vn -0.0000 -0.4498 -0.8931
vn -0.0000 -0.5892 -0.8080
vn -0.0000 -0.7128 -0.7014
vn -0.0000 -0.8447 -0.5352
vn -0.0000 -0.9728 -0.2318
vn -0.0000 -0.9953 0.0967
vn -0.0000 -0.9846 0.1747
vn -1.0000 -0.0000 -0.0000
vn -0.0000 0.2520 0.9677
vn -0.0000 0.3017 0.9534
vn -0.0000 0.4158 0.9095
vn -0.0000 0.5516 0.8341
vn -0.0000 0.6376 0.7704
vn -0.0000 0.6991 0.7150
vn -0.0000 0.6771 -0.7359
vn -0.0000 0.4244 -0.9055
vn -0.0000 0.0963 -0.9953
vn -0.0000 -0.0444 -0.9990
vn -0.0000 -0.0000 -1.0000
vn -0.0000 -0.3204 -0.9473
vn -0.0000 -0.1240 -0.9923
vn -0.0000 -0.5843 -0.8115
vn -0.0000 -0.9648 -0.2631
vn -0.0000 -0.3267 -0.9451
vn -0.0000 -0.8000 -0.6000
vn 1.0000 -0.0000 -0.0000
vn -0.2703 -0.8644 0.4240
vn -0.2703 -0.0247 0.9625
vn -0.6990 -0.0400 0.7140
vn -0.9332 -0.1939 0.3024
vn -0.6990 -0.6322 0.3343
vn -0.2676 0.8227 -0.5015
vn -0.9315 0.3638 -0.0055
vn -0.6959 0.6346 0.3361
vn -0.2676 0.8376 0.4762
vn -0.2014 -0.9093 -0.3643
vn -0.6256 -0.7577 -0.1859
vn -0.9233 -0.3358 -0.1864
vn -0.6702 -0.5115 -0.5378
vn -0.2014 -0.6596 -0.7241
vn -0.1503 -0.8123 -0.5635
vn -0.4123 -0.5814 -0.7014
vn -0.8746 -0.4461 -0.1898
vn -0.9325 -0.2637 -0.2466
vn -0.6508 -0.6230 -0.4340
vn -0.4123 -0.7386 -0.5334
vn -0.4453 -0.6539 -0.6117
vn -0.2050 -0.7234 -0.6593
vn -0.6262 -0.6522 -0.4271
vn -0.9247 -0.2590 -0.2791
vn -0.6738 -0.3215 -0.6653
vn -0.2051 -0.4066 -0.8903
vn -0.1575 -0.5818 -0.7980
vn -0.3456 -0.9349 0.0807
vn -0.9049 -0.4156 -0.0917
vn -0.3456 -0.7981 -0.4936
vn 0.2703 -0.8644 0.4240
vn 0.6989 -0.6323 0.3343
vn 0.9332 -0.1939 0.3024
vn 0.6989 -0.0400 0.7141
vn 0.2703 -0.0247 0.9625
vn 0.2676 0.8376 0.4762
vn 0.6959 0.6346 0.3362
vn 0.9315 0.3638 -0.0055
vn 0.2676 0.8228 -0.5015
vn 0.2014 -0.6597 -0.7241
vn 0.6256 -0.4395 -0.6446
vn 0.9233 -0.2922 -0.2493
vn 0.6702 -0.6829 -0.2908
vn 0.2014 -0.9093 -0.3643
vn 0.4123 -0.7386 -0.5334
vn 0.8746 -0.2190 -0.4325
vn 0.9326 -0.2636 -0.2466
vn 0.6509 -0.4745 -0.5926
vn 0.4123 -0.5814 -0.7014
vn 0.2051 -0.4066 -0.8903
vn 0.6262 -0.2072 -0.7516
vn 0.9247 -0.1865 -0.3320
vn 0.6738 -0.5351 -0.5096
vn 0.2051 -0.7233 -0.6594
vn 0.3456 -0.9349 0.0807
vn 0.3456 -0.7981 -0.4936
vn 0.9049 -0.4123 -0.1056
vn -0.9587 -0.2802 0.0497
vn -0.7069 -0.6965 0.1229
vn -0.3438 -0.9247 0.1632
vn -0.3439 -0.7512 -0.5634
vn -0.7067 -0.5669 -0.4233
vn -0.9587 -0.2276 -0.1707
vn -0.2890 -0.3128 -0.9048
vn -0.9573 -0.0944 -0.2731
vn -0.2882 -0.9238 -0.2520
vn -0.9576 -0.2781 -0.0758
vn -0.2885 -0.5605 -0.7763
vn -0.7067 -0.4144 -0.5734
vn -0.9573 -0.1689 -0.2345
vn -0.2589 -0.1198 -0.9585
vn -0.7071 -0.0877 -0.7016
vn -0.2588 -0.0000 -0.9659
vn -0.2587 -0.0429 -0.9650
vn -0.7071 0.3001 -0.6403
vn -0.2588 0.6540 -0.7109
vn -0.9659 0.1752 -0.1905
vn -0.2589 0.6753 0.6906
vn -0.9660 0.1808 0.1849
vn -0.2588 0.6158 0.7441
vn -0.2589 0.5328 0.8057
vn -0.2588 0.4016 0.8785
vn -0.2589 0.2914 0.9209
vn -0.2587 0.2434 0.9348
vn -0.9659 0.0652 0.2505
vn 0.3438 -0.9247 0.1632
vn 0.7069 -0.6965 0.1229
vn 0.9587 -0.2802 0.0497
vn 0.9659 0.0652 0.2505
vn 0.2588 0.2434 0.9348
vn 0.7071 0.2133 0.6742
vn 0.2589 0.2914 0.9209
vn 0.2588 0.4016 0.8785
vn 0.2589 0.5328 0.8057
vn 0.7071 0.4508 0.5448
vn 0.9660 0.1808 0.1849
vn 0.2589 0.6753 0.6906
vn 0.9659 0.1752 -0.1905
vn 0.2588 0.6540 -0.7109
vn 0.7071 0.3001 -0.6403
vn 0.2587 -0.0429 -0.9650
vn 0.2588 -0.0000 -0.9659
vn 0.7071 -0.0877 -0.7016
vn 0.2589 -0.1198 -0.9585
vn 0.9573 -0.1689 -0.2345
vn 0.7067 -0.4144 -0.5734
vn 0.2885 -0.5605 -0.7763
vn 0.9576 -0.2781 -0.0758
vn 0.2882 -0.9238 -0.2520
vn 0.9573 -0.0944 -0.2731
vn 0.2890 -0.3128 -0.9048
vn 0.9587 -0.2276 -0.1707
vn 0.7067 -0.5669 -0.4233
vn 0.3439 -0.7512 -0.5634
vn -0.0000 -0.7004 -0.7138
vn -0.0000 -0.4499 -0.8931
vn -0.0000 -0.9953 0.0966
s 0
usemtl Sprayer_light_gray_plastic
f 4//1 5//1 1//1
f 8//2 6//2 4//2
f 7//3 8//3 2//3
f 7//4 12//4 9//4
f 10//5 11//5 3//5
f 5//6 12//6 10//6
f 6//7 9//7 12//7
f 36//8 37//8 33//8
f 36//9 41//9 38//9
f 39//10 40//10 34//10
f 43//11 41//11 39//11
f 42//12 43//12 35//12
f 37//13 44//13 42//13
f 38//14 41//14 44//14
f 76//15 77//15 73//15
f 80//16 78//16 76//16
f 74//17 81//17 80//17
f 79//18 84//18 81//18
f 82//19 83//19 75//19
f 77//20 84//20 82//20
f 78//21 81//21 84//21
f 88//22 89//22 85//22
f 88//23 93//23 90//23
f 91//24 92//24 86//24
f 95//25 93//25 91//25
f 94//26 95//26 87//26
f 94//27 90//27 96//27
f 90//28 93//28 96//28
f 100//29 101//29 97//29
f 104//30 102//30 100//30
f 98//31 105//31 104//31
f 103//32 108//32 105//32
f 106//33 107//33 99//33
f 101//34 108//34 106//34
f 102//35 105//35 108//35
f 112//36 113//36 109//36
f 116//37 114//37 112//37
f 110//38 117//38 116//38
f 115//39 120//39 117//39
f 118//40 119//40 111//40
f 113//41 120//41 118//41
f 114//42 117//42 120//42
f 124//43 125//43 121//43
f 124//44 129//44 126//44
f 127//45 128//45 122//45
f 131//46 129//46 127//46
f 130//47 131//47 123//47
f 130//48 126//48 132//48
f 126//49 129//49 132//49
f 156//50 157//50 153//50
f 156//51 161//51 158//51
f 159//52 160//52 154//52
f 163//53 161//53 159//53
f 162//54 163//54 155//54
f 162//55 158//55 164//55
f 158//56 161//56 164//56
f 196//57 197//57 193//57
f 200//58 198//58 196//58
f 194//59 201//59 200//59
f 199//60 204//60 201//60
f 202//61 203//61 195//61
f 202//62 198//62 204//62
f 198//63 201//63 204//63
f 208//64 209//64 205//64
f 208//65 213//65 210//65
f 211//66 212//66 206//66
f 215//67 213//67 211//67
f 214//68 215//68 207//68
f 209//69 216//69 214//69
f 210//70 213//70 216//70
f 220//71 221//71 217//71
f 224//72 222//72 220//72
f 218//73 225//73 224//73
f 223//74 228//74 225//74
f 226//75 227//75 219//75
f 226//76 222//76 228//76
f 222//77 225//77 228//77
f 232//78 233//78 229//78
f 232//79 237//79 234//79
f 235//80 236//80 230//80
f 239//81 237//81 235//81
f 231//82 240//82 239//82
f 238//83 234//83 240//83
f 234//84 237//84 240//84
f 3//85 116//85 10//85
f 10//86 112//86 5//86
f 5//87 109//87 1//87
f 97//88 119//88 100//88
f 100//89 115//89 104//89
f 115//90 98//90 104//90
f 85//91 107//91 88//91
f 88//92 103//92 92//92
f 92//93 98//93 86//93
f 87//94 76//94 73//94
f 95//95 80//95 76//95
f 91//96 74//96 80//96
f 75//97 72//97 70//97
f 83//98 71//98 72//98
f 79//99 69//99 71//99
f 66//100 72//100 68//100
f 68//101 71//101 67//101
f 67//102 69//102 65//102
f 66//103 64//103 62//103
f 68//104 63//104 64//104
f 67//105 61//105 63//105
f 58//106 64//106 60//106
f 60//107 63//107 59//107
f 59//108 61//108 57//108
f 58//109 56//109 54//109
f 60//110 55//110 56//110
f 59//111 53//111 55//111
f 54//112 52//112 50//112
f 56//113 51//113 52//113
f 55//114 49//114 51//114
f 46//115 52//115 48//115
f 48//116 51//116 47//116
f 47//117 49//117 45//117
f 33//118 48//118 36//118
f 36//119 47//119 40//119
f 40//120 45//120 34//120
f 30//121 43//121 32//121
f 32//122 39//122 31//122
f 31//123 34//123 29//123
f 30//124 28//124 26//124
f 32//125 27//125 28//125
f 31//126 25//126 27//126
f 26//127 24//127 22//127
f 28//128 23//128 24//128
f 27//129 21//129 23//129
f 18//130 24//130 20//130
f 20//131 23//131 19//131
f 19//132 21//132 17//132
f 14//133 20//133 16//133
f 16//134 19//134 15//134
f 15//135 17//135 13//135
f 14//136 7//136 2//136
f 16//137 11//137 7//137
f 15//138 3//138 11//138
f 229//139 124//139 121//139
f 233//140 128//140 124//140
f 238//141 122//141 128//141
f 122//142 135//142 127//142
f 127//143 136//143 131//143
f 131//144 134//144 123//144
f 137//145 135//145 133//145
f 139//146 136//146 135//146
f 140//147 134//147 136//147
f 141//148 139//148 137//148
f 143//149 140//149 139//149
f 144//150 138//150 140//150
f 141//151 147//151 143//151
f 143//152 148//152 144//152
f 144//153 146//153 142//153
f 145//154 151//154 147//154
f 147//155 152//155 148//155
f 148//156 150//156 146//156
f 154//157 151//157 149//157
f 160//158 152//158 151//158
f 156//159 150//159 152//159
f 165//160 159//160 154//160
f 167//161 163//161 159//161
f 168//162 155//162 163//162
f 169//163 167//163 165//163
f 171//164 168//164 167//164
f 172//165 166//165 168//165
f 169//166 175//166 171//166
f 171//167 176//167 172//167
f 172//168 174//168 170//168
f 173//169 179//169 175//169
f 175//170 180//170 176//170
f 176//171 178//171 174//171
f 181//172 179//172 177//172
f 183//173 180//173 179//173
f 184//174 178//174 180//174
f 181//175 187//175 183//175
f 183//176 188//176 184//176
f 184//177 186//177 182//177
f 189//178 187//178 185//178
f 191//179 188//179 187//179
f 192//180 186//180 188//180
f 189//181 200//181 191//181
f 191//182 196//182 192//182
f 192//183 193//183 190//183
f 194//184 212//184 199//184
f 199//185 208//185 203//185
f 203//186 205//186 195//186
f 218//187 211//187 206//187
f 224//188 215//188 211//188
f 220//189 207//189 215//189
f 218//190 239//190 223//190
f 239//191 227//191 223//191
f 235//192 219//192 227//192
f 121//193 4//193 1//193
f 125//194 8//194 4//194
f 130//195 2//195 8//195
f 153//196 42//196 35//196
f 157//197 37//197 42//197
f 162//198 33//198 37//198
f 193//199 82//199 75//199
f 197//200 77//200 82//200
f 202//201 73//201 77//201
f 205//202 94//202 87//202
f 209//203 89//203 94//203
f 214//204 85//204 89//204
f 217//205 106//205 99//205
f 221//206 101//206 106//206
f 226//207 97//207 101//207
f 230//208 118//208 111//208
f 236//209 113//209 118//209
f 232//210 109//210 113//210
f 229//211 1//211 109//211
f 3//212 25//212 65//212
f 123//213 14//213 2//213
f 134//214 18//214 14//214
f 138//215 22//215 18//215
f 142//216 26//216 22//216
f 146//217 30//217 26//217
f 150//218 35//218 30//218
f 155//219 46//219 33//219
f 166//220 50//220 46//220
f 170//221 54//221 50//221
f 174//222 58//222 54//222
f 178//223 62//223 58//223
f 182//224 66//224 62//224
f 186//225 70//225 66//225
f 190//226 75//226 70//226
f 195//227 87//227 73//227
f 207//228 99//228 85//228
f 219//229 111//229 97//229
f 173//230 149//230 133//230
f 4//231 6//231 5//231
f 8//2 9//2 6//2
f 7//232 9//232 8//232
f 7//233 11//233 12//233
f 10//234 12//234 11//234
f 5//235 6//235 12//235
f 36//236 38//236 37//236
f 36//9 40//9 41//9
f 39//237 41//237 40//237
f 43//238 44//238 41//238
f 42//239 44//239 43//239
f 37//13 38//13 44//13
f 76//240 78//240 77//240
f 80//241 81//241 78//241
f 74//242 79//242 81//242
f 79//243 83//243 84//243
f 82//244 84//244 83//244
f 77//245 78//245 84//245
f 88//246 90//246 89//246
f 88//247 92//247 93//247
f 91//248 93//248 92//248
f 95//249 96//249 93//249
f 94//250 96//250 95//250
f 94//251 89//251 90//251
f 100//252 102//252 101//252
f 104//253 105//253 102//253
f 98//254 103//254 105//254
f 103//255 107//255 108//255
f 106//256 108//256 107//256
f 101//257 102//257 108//257
f 112//258 114//258 113//258
f 116//37 117//37 114//37
f 110//259 115//259 117//259
f 115//39 119//39 120//39
f 118//260 120//260 119//260
f 113//41 114//41 120//41
f 124//261 126//261 125//261
f 124//262 128//262 129//262
f 127//263 129//263 128//263
f 131//264 132//264 129//264
f 130//265 132//265 131//265
f 130//48 125//48 126//48
f 156//266 158//266 157//266
f 156//267 160//267 161//267
f 159//268 161//268 160//268
f 163//53 164//53 161//53
f 162//269 164//269 163//269
f 162//55 157//55 158//55
f 196//270 198//270 197//270
f 200//271 201//271 198//271
f 194//272 199//272 201//272
f 199//273 203//273 204//273
f 202//274 204//274 203//274
f 202//62 197//62 198//62
f 208//275 210//275 209//275
f 208//276 212//276 213//276
f 211//277 213//277 212//277
f 215//278 216//278 213//278
f 214//279 216//279 215//279
f 209//69 210//69 216//69
f 220//280 222//280 221//280
f 224//281 225//281 222//281
f 218//282 223//282 225//282
f 223//283 227//283 228//283
f 226//284 228//284 227//284
f 226//76 221//76 222//76
f 232//285 234//285 233//285
f 232//79 236//79 237//79
f 235//286 237//286 236//286
f 239//81 240//81 237//81
f 231//287 238//287 240//287
f 238//83 233//83 234//83
f 3//288 110//288 116//288
f 10//289 116//289 112//289
f 5//290 112//290 109//290
f 97//291 111//291 119//291
f 100//292 119//292 115//292
f 115//293 110//293 98//293
f 85//294 99//294 107//294
f 88//92 107//92 103//92
f 92//295 103//295 98//295
f 87//296 95//296 76//296
f 95//95 91//95 80//95
f 91//297 86//297 74//297
f 75//298 83//298 72//298
f 83//299 79//299 71//299
f 79//300 74//300 69//300
f 66//301 70//301 72//301
f 68//302 72//302 71//302
f 67//102 71//102 69//102
f 66//103 68//103 64//103
f 68//104 67//104 63//104
f 67//105 65//105 61//105
f 58//303 62//303 64//303
f 60//107 64//107 63//107
f 59//108 63//108 61//108
f 58//304 60//304 56//304
f 60//110 59//110 55//110
f 59//111 57//111 53//111
f 54//112 56//112 52//112
f 56//113 55//113 51//113
f 55//114 53//114 49//114
f 46//115 50//115 52//115
f 48//305 52//305 51//305
f 47//117 51//117 49//117
f 33//306 46//306 48//306
f 36//119 48//119 47//119
f 40//307 47//307 45//307
f 30//308 35//308 43//308
f 32//122 43//122 39//122
f 31//309 39//309 34//309
f 30//310 32//310 28//310
f 32//125 31//125 27//125
f 31//126 29//126 25//126
f 26//311 28//311 24//311
f 28//128 27//128 23//128
f 27//129 25//129 21//129
f 18//312 22//312 24//312
f 20//131 24//131 23//131
f 19//132 23//132 21//132
f 14//313 18//313 20//313
f 16//134 20//134 19//134
f 15//135 19//135 17//135
f 14//314 16//314 7//314
f 16//137 15//137 11//137
f 15//315 13//315 3//315
f 229//316 233//316 124//316
f 233//317 238//317 128//317
f 238//318 231//318 122//318
f 122//319 133//319 135//319
f 127//143 135//143 136//143
f 131//320 136//320 134//320
f 137//145 139//145 135//145
f 139//321 140//321 136//321
f 140//322 138//322 134//322
f 141//148 143//148 139//148
f 143//149 144//149 140//149
f 144//323 142//323 138//323
f 141//151 145//151 147//151
f 143//152 147//152 148//152
f 144//324 148//324 146//324
f 145//154 149//154 151//154
f 147//325 151//325 152//325
f 148//156 152//156 150//156
f 154//326 160//326 151//326
f 160//158 156//158 152//158
f 156//327 153//327 150//327
f 165//328 167//328 159//328
f 167//161 168//161 163//161
f 168//329 166//329 155//329
f 169//163 171//163 167//163
f 171//330 172//330 168//330
f 172//165 170//165 166//165
f 169//166 173//166 175//166
f 171//167 175//167 176//167
f 172//168 176//168 174//168
f 173//169 177//169 179//169
f 175//170 179//170 180//170
f 176//331 180//331 178//331
f 181//172 183//172 179//172
f 183//173 184//173 180//173
f 184//332 182//332 178//332
f 181//175 185//175 187//175
f 183//176 187//176 188//176
f 184//177 188//177 186//177
f 189//178 191//178 187//178
f 191//333 192//333 188//333
f 192//334 190//334 186//334
f 189//335 194//335 200//335
f 191//336 200//336 196//336
f 192//337 196//337 193//337
f 194//338 206//338 212//338
f 199//185 212//185 208//185
f 203//339 208//339 205//339
f 218//340 224//340 211//340
f 224//188 220//188 215//188
f 220//341 217//341 207//341
f 218//342 231//342 239//342
f 239//343 235//343 227//343
f 235//344 230//344 219//344
f 121//193 125//193 4//193
f 125//194 130//194 8//194
f 130//195 123//195 2//195
f 153//196 157//196 42//196
f 157//197 162//197 37//197
f 162//198 155//198 33//198
f 193//345 197//345 82//345
f 197//200 202//200 77//200
f 202//201 195//201 73//201
f 205//202 209//202 94//202
f 209//203 214//203 89//203
f 214//204 207//204 85//204
f 217//346 221//346 106//346
f 221//206 226//206 101//206
f 226//207 219//207 97//207
f 230//208 236//208 118//208
f 236//209 232//209 113//209
f 232//347 229//347 109//347
f 229//211 121//211 1//211
f 98//212 110//212 3//212
f 3//212 13//212 17//212
f 17//212 21//212 25//212
f 25//212 29//212 34//212
f 34//212 45//212 49//212
f 49//212 53//212 57//212
f 57//212 61//212 65//212
f 65//212 69//212 74//212
f 86//212 98//212 3//212
f 65//212 74//212 86//212
f 49//212 57//212 65//212
f 25//212 34//212 49//212
f 3//212 17//212 25//212
f 65//212 86//212 3//212
f 25//212 49//212 65//212
f 123//213 134//213 14//213
f 134//214 138//214 18//214
f 138//215 142//215 22//215
f 142//216 146//216 26//216
f 146//217 150//217 30//217
f 150//218 153//218 35//218
f 155//219 166//219 46//219
f 166//220 170//220 50//220
f 170//221 174//221 54//221
f 174//222 178//222 58//222
f 178//223 182//223 62//223
f 182//224 186//224 66//224
f 186//225 190//225 70//225
f 190//226 193//226 75//226
f 195//227 205//227 87//227
f 207//228 217//228 99//228
f 219//229 230//229 111//229
f 133//230 122//230 231//230
f 231//230 218//230 206//230
f 206//230 194//230 189//230
f 185//230 181//230 177//230
f 206//230 189//230 185//230
f 133//230 231//230 206//230
f 141//230 137//230 133//230
f 149//230 145//230 141//230
f 165//230 154//230 149//230
f 173//230 169//230 165//230
f 185//230 177//230 173//230
f 133//230 206//230 185//230
f 149//230 141//230 133//230
f 173//230 165//230 149//230
f 133//230 185//230 173//230
